G04*
G04 #@! TF.GenerationSoftware,Altium Limited,Altium Designer,18.1.11 (251)*
G04*
G04 Layer_Color=32896*
%FSLAX25Y25*%
%MOIN*%
G70*
G01*
G75*
%ADD12C,0.00787*%
%ADD14C,0.00591*%
%ADD36C,0.01000*%
G36*
X238687Y93024D02*
X239271D01*
X239679Y92966D01*
X239970Y92908D01*
X240087D01*
X241720Y92674D01*
X242420Y92499D01*
X243061Y92383D01*
X243645Y92208D01*
X244053Y92150D01*
X244286Y92033D01*
X244403D01*
X245977Y91508D01*
X246677Y91275D01*
X247319Y90983D01*
X247844Y90808D01*
X248252Y90633D01*
X248485Y90517D01*
X248602Y90458D01*
X250060Y89700D01*
X250701Y89350D01*
X251285Y89000D01*
X251751Y88650D01*
X252101Y88417D01*
X252393Y88242D01*
X252451Y88184D01*
X253792Y87134D01*
X254376Y86667D01*
X254900Y86201D01*
X255367Y85793D01*
X255717Y85501D01*
X255950Y85268D01*
X256008Y85209D01*
X257175Y83985D01*
X257641Y83402D01*
X258108Y82877D01*
X258458Y82468D01*
X258750Y82060D01*
X258924Y81827D01*
X258983Y81769D01*
X259916Y80311D01*
X260324Y79669D01*
X260674Y79027D01*
X260966Y78503D01*
X261199Y78094D01*
X261315Y77861D01*
X261374Y77745D01*
X262074Y76228D01*
X262365Y75528D01*
X262599Y74828D01*
X262773Y74304D01*
X262948Y73895D01*
X263007Y73604D01*
X263065Y73487D01*
X263473Y71912D01*
X263590Y71154D01*
X263707Y70513D01*
X263823Y69930D01*
X263882Y69521D01*
X263940Y69230D01*
Y69113D01*
X264057Y67480D01*
Y66722D01*
X264057Y66080D01*
Y65497D01*
Y65089D01*
Y64797D01*
Y64681D01*
X263998Y63864D01*
X263940Y63048D01*
X263882Y62290D01*
X263823Y61590D01*
X263707Y61065D01*
X263648Y60598D01*
X263590Y60365D01*
Y60249D01*
X263182Y58732D01*
X262948Y57974D01*
X262773Y57391D01*
X262599Y56808D01*
X262424Y56399D01*
X262365Y56166D01*
X262307Y56049D01*
X261666Y54533D01*
X261315Y53833D01*
X261024Y53250D01*
X260791Y52725D01*
X260557Y52317D01*
X260441Y52084D01*
X260382Y51967D01*
X259508Y50567D01*
X259099Y49984D01*
X258691Y49459D01*
X258341Y48993D01*
X258050Y48643D01*
X257875Y48410D01*
X257816Y48351D01*
X257000Y49051D01*
X257933Y50276D01*
X258341Y50859D01*
X258750Y51442D01*
X259041Y51850D01*
X259274Y52259D01*
X259391Y52492D01*
X259449Y52550D01*
X260208Y53950D01*
X260499Y54591D01*
X260791Y55233D01*
X261024Y55699D01*
X261141Y56108D01*
X261257Y56341D01*
X261315Y56458D01*
X261840Y57916D01*
X262015Y58615D01*
X262190Y59257D01*
X262307Y59782D01*
X262424Y60190D01*
X262482Y60423D01*
Y60540D01*
X262715Y62056D01*
X262832Y62756D01*
X262948Y63398D01*
X263007Y63923D01*
Y64331D01*
X263065Y64564D01*
Y64681D01*
Y66255D01*
X263007Y66955D01*
Y67597D01*
X262948Y68180D01*
Y68588D01*
X262890Y68822D01*
Y68938D01*
X262657Y70513D01*
X262482Y71213D01*
X262365Y71854D01*
X262190Y72437D01*
X262132Y72846D01*
X262015Y73079D01*
Y73195D01*
X261491Y74712D01*
X261199Y75412D01*
X260966Y76053D01*
X260732Y76520D01*
X260557Y76928D01*
X260441Y77220D01*
X260382Y77278D01*
X259624Y78736D01*
X259216Y79377D01*
X258866Y79961D01*
X258575Y80427D01*
X258341Y80835D01*
X258166Y81069D01*
X258108Y81127D01*
X257058Y82410D01*
X256592Y82993D01*
X256125Y83460D01*
X255775Y83868D01*
X255484Y84160D01*
X255250Y84393D01*
X255192Y84451D01*
X254026Y85559D01*
X253442Y86084D01*
X252918Y86493D01*
X252509Y86842D01*
X252159Y87134D01*
X251926Y87309D01*
X251868Y87367D01*
X250526Y88184D01*
X249885Y88534D01*
X249302Y88825D01*
X248835Y89059D01*
X248485Y89233D01*
X248194Y89350D01*
X248135Y89408D01*
X246677Y90050D01*
X246036Y90342D01*
X245394Y90575D01*
X244869Y90750D01*
X244461Y90867D01*
X244228Y90983D01*
X244111D01*
X242595Y91333D01*
X241895Y91508D01*
X241253Y91625D01*
X240729Y91683D01*
X240320Y91741D01*
X240087Y91800D01*
X239970D01*
X238396Y91975D01*
X237696D01*
X237054Y92033D01*
X235713D01*
X234138Y91916D01*
X233439Y91800D01*
X232797Y91683D01*
X232214Y91625D01*
X231806Y91508D01*
X231572Y91450D01*
X231456D01*
X229939Y91100D01*
X229240Y90867D01*
X228598Y90692D01*
X228132Y90517D01*
X227723Y90342D01*
X227432Y90283D01*
X227373Y90225D01*
X226907Y91275D01*
X228481Y91800D01*
X229181Y92033D01*
X229823Y92208D01*
X230406Y92383D01*
X230814Y92499D01*
X231106Y92558D01*
X231222D01*
X232855Y92849D01*
X233613Y92908D01*
X234255Y93024D01*
X234838D01*
X235246Y93083D01*
X238046Y93083D01*
X238687Y93024D01*
D02*
G37*
G36*
X217109Y83110D02*
X216059Y81827D01*
X215593Y81244D01*
X215243Y80719D01*
X214893Y80252D01*
X214660Y79844D01*
X214543Y79611D01*
X214485Y79552D01*
X213668Y78153D01*
X213318Y77511D01*
X213027Y76928D01*
X212793Y76403D01*
X212618Y75995D01*
X212560Y75762D01*
X212502Y75645D01*
X211977Y74129D01*
X211743Y73429D01*
X211569Y72787D01*
X211394Y72262D01*
X211277Y71854D01*
X211219Y71621D01*
Y71504D01*
X210927Y69930D01*
X210810Y69230D01*
X210752Y68588D01*
X210694Y68063D01*
X210635Y67597D01*
Y67364D01*
Y67247D01*
X210577Y65614D01*
X210635Y64856D01*
Y64214D01*
X210694Y63631D01*
Y63223D01*
X210752Y62931D01*
Y62814D01*
X210985Y61240D01*
X211102Y60540D01*
X211219Y59899D01*
X211394Y59315D01*
X211452Y58907D01*
X211569Y58674D01*
Y58557D01*
X212093Y56983D01*
X212385Y56283D01*
X212618Y55641D01*
X212852Y55116D01*
X213027Y54708D01*
X213143Y54475D01*
X213201Y54358D01*
X213610Y53600D01*
X213960Y52900D01*
X214368Y52259D01*
X214718Y51675D01*
X215009Y51209D01*
X215243Y50801D01*
X215418Y50567D01*
X215476Y50509D01*
X216001Y49809D01*
X216526Y49168D01*
X216992Y48584D01*
X217459Y48060D01*
X217867Y47593D01*
X218159Y47301D01*
X218392Y47068D01*
X218450Y47010D01*
X219675Y45902D01*
X220258Y45435D01*
X220783Y44969D01*
X221250Y44619D01*
X221658Y44385D01*
X221891Y44210D01*
X221950Y44152D01*
X223291Y43277D01*
X223932Y42927D01*
X224516Y42636D01*
X225041Y42344D01*
X225390Y42169D01*
X225624Y42053D01*
X225740Y41994D01*
X227198Y41353D01*
X227898Y41120D01*
X228540Y40944D01*
X229065Y40770D01*
X229473Y40653D01*
X229706Y40536D01*
X229823D01*
X231397Y40128D01*
X232097Y39953D01*
X232739Y39836D01*
X233264Y39778D01*
X233730Y39720D01*
X233963Y39661D01*
X234080D01*
X235655Y39603D01*
X236413Y39545D01*
X237054D01*
X237638Y39603D01*
X238454D01*
X240087Y39720D01*
X240787Y39836D01*
X241428Y39953D01*
X242012Y40011D01*
X242420Y40128D01*
X242653Y40186D01*
X242770D01*
X244286Y40653D01*
X244986Y40886D01*
X245627Y41061D01*
X246152Y41295D01*
X246561Y41469D01*
X246794Y41528D01*
X246911Y41586D01*
X247377Y40595D01*
X245802Y40011D01*
X245103Y39778D01*
X244403Y39545D01*
X243878Y39428D01*
X243411Y39312D01*
X243178Y39195D01*
X243061D01*
X241370Y38903D01*
X240612Y38787D01*
X239912Y38670D01*
X239329Y38612D01*
X238921Y38553D01*
X238512D01*
X238162Y38495D01*
X236821D01*
X235480Y38553D01*
X234838D01*
X234313Y38612D01*
X233847Y38670D01*
X233439D01*
X233205Y38728D01*
X233147D01*
X231806Y38962D01*
X231164Y39078D01*
X230639Y39195D01*
X230173Y39312D01*
X229823Y39428D01*
X229590Y39487D01*
X229531D01*
X227957Y40011D01*
X227257Y40245D01*
X226615Y40536D01*
X226090Y40711D01*
X225682Y40886D01*
X225449Y41003D01*
X225332Y41061D01*
X223816Y41819D01*
X223116Y42169D01*
X222533Y42519D01*
X222008Y42811D01*
X221658Y43044D01*
X221366Y43219D01*
X221308Y43277D01*
X219967Y44327D01*
X219384Y44794D01*
X218800Y45260D01*
X218392Y45669D01*
X218042Y45960D01*
X217809Y46193D01*
X217751Y46252D01*
X216526Y47535D01*
X216001Y48118D01*
X215534Y48643D01*
X215126Y49109D01*
X214834Y49518D01*
X214660Y49751D01*
X214601Y49809D01*
X213668Y51267D01*
X213260Y51967D01*
X212910Y52609D01*
X212618Y53133D01*
X212385Y53542D01*
X212268Y53775D01*
X212210Y53892D01*
X211510Y55466D01*
X211219Y56224D01*
X210985Y56866D01*
X210810Y57449D01*
X210694Y57916D01*
X210577Y58149D01*
Y58266D01*
X210169Y59899D01*
X209994Y60657D01*
X209877Y61298D01*
X209819Y61881D01*
X209761Y62348D01*
X209702Y62581D01*
Y62698D01*
X209527Y64389D01*
Y65147D01*
Y65847D01*
X209527Y66430D01*
Y66897D01*
Y67189D01*
Y67305D01*
X209702Y68938D01*
X209761Y69696D01*
X209877Y70338D01*
X209994Y70921D01*
X210111Y71388D01*
X210169Y71621D01*
Y71737D01*
X210577Y73370D01*
X210810Y74070D01*
X210985Y74712D01*
X211219Y75295D01*
X211335Y75703D01*
X211452Y75937D01*
X211510Y76053D01*
X212152Y77570D01*
X212502Y78269D01*
X212852Y78852D01*
X213143Y79377D01*
X213318Y79727D01*
X213493Y80019D01*
X213551Y80077D01*
X214018Y80835D01*
X214485Y81477D01*
X214951Y82118D01*
X215359Y82643D01*
X215768Y83110D01*
X216059Y83460D01*
X216234Y83693D01*
X216293Y83751D01*
X217109Y83110D01*
D02*
G37*
G36*
X213376Y94657D02*
X215184Y93199D01*
X216876Y91800D01*
X218392Y90575D01*
X219034Y90050D01*
X219675Y89525D01*
X220200Y89117D01*
X220667Y88709D01*
X221016Y88417D01*
X221308Y88184D01*
X221483Y88067D01*
X221541Y88009D01*
X223408Y86493D01*
X225216Y84976D01*
X226907Y83635D01*
X228423Y82352D01*
X229065Y81827D01*
X229706Y81302D01*
X230231Y80894D01*
X230697Y80485D01*
X231048Y80194D01*
X231339Y79961D01*
X231514Y79844D01*
X231572Y79786D01*
X233439Y78269D01*
X235246Y76811D01*
X236938Y75412D01*
X237754Y74770D01*
X238454Y74187D01*
X239154Y73604D01*
X239737Y73137D01*
X240262Y72671D01*
X240729Y72321D01*
X241078Y72029D01*
X241370Y71796D01*
X241545Y71679D01*
X241603Y71621D01*
X243528Y70105D01*
X245336Y68588D01*
X247085Y67189D01*
X247844Y66489D01*
X248602Y65905D01*
X249302Y65322D01*
X249885Y64856D01*
X250410Y64389D01*
X250876Y63981D01*
X251226Y63689D01*
X251518Y63456D01*
X251693Y63339D01*
X251751Y63281D01*
X250701Y62931D01*
X249768Y62581D01*
X248835Y62290D01*
X248019Y61998D01*
X247319Y61765D01*
X246794Y61590D01*
X246444Y61473D01*
X246327Y61415D01*
X245278Y61065D01*
X244286Y60773D01*
X243411Y60482D01*
X242536Y60190D01*
X241837Y59957D01*
X241312Y59782D01*
X240962Y59665D01*
X240903Y59607D01*
X240845D01*
X241487Y58790D01*
X242070Y58149D01*
X242245Y57857D01*
X242420Y57682D01*
X242536Y57566D01*
X242595Y57507D01*
X243236Y56808D01*
X243819Y56224D01*
X244053Y55991D01*
X244228Y55816D01*
X244344Y55699D01*
X244403Y55641D01*
X246094Y53833D01*
X246852Y53017D01*
X247552Y52259D01*
X248135Y51617D01*
X248602Y51092D01*
X248893Y50801D01*
X249010Y50742D01*
Y50684D01*
X250701Y48876D01*
X251460Y48060D01*
X252159Y47301D01*
X252743Y46660D01*
X253209Y46135D01*
X253501Y45843D01*
X253617Y45785D01*
Y45727D01*
X254492Y44794D01*
X255309Y43919D01*
X256067Y43044D01*
X256767Y42286D01*
X257350Y41703D01*
X257816Y41178D01*
X258108Y40886D01*
X258225Y40770D01*
X259916Y38962D01*
X260674Y38145D01*
X261374Y37387D01*
X261957Y36804D01*
X262424Y36279D01*
X262715Y35987D01*
X262832Y35871D01*
X263298Y35521D01*
X263473Y35404D01*
X263532Y35346D01*
X263707Y35113D01*
X263765Y34938D01*
Y34763D01*
Y34704D01*
X263707Y34588D01*
X263473D01*
X263298Y34704D01*
X263240Y34763D01*
X262948Y35054D01*
X262715Y35229D01*
X262540Y35287D01*
X262482Y35346D01*
X260616Y36746D01*
X258808Y38145D01*
X257117Y39428D01*
X255600Y40536D01*
X254900Y41061D01*
X254317Y41528D01*
X253792Y41936D01*
X253326Y42286D01*
X252976Y42577D01*
X252684Y42753D01*
X252509Y42869D01*
X252451Y42927D01*
X250585Y44327D01*
X248777Y45669D01*
X247085Y46951D01*
X246269Y47535D01*
X245569Y48118D01*
X244869Y48584D01*
X244286Y49051D01*
X243761Y49459D01*
X243295Y49809D01*
X242886Y50101D01*
X242653Y50276D01*
X242478Y50392D01*
X242420Y50451D01*
X240554Y51909D01*
X238687Y53250D01*
X236996Y54533D01*
X236180Y55175D01*
X235421Y55699D01*
X234780Y56224D01*
X234138Y56691D01*
X233613Y57099D01*
X233147Y57449D01*
X232797Y57741D01*
X232505Y57916D01*
X232330Y58032D01*
X232272Y58091D01*
X230406Y59490D01*
X228598Y60890D01*
X226848Y62173D01*
X226090Y62756D01*
X225332Y63281D01*
X224691Y63806D01*
X224049Y64273D01*
X223524Y64681D01*
X223058Y65031D01*
X222708Y65322D01*
X222416Y65497D01*
X222241Y65614D01*
X222183Y65672D01*
X221950Y65905D01*
X221716Y66080D01*
X221541Y66197D01*
X221483Y66255D01*
X221191Y66489D01*
X220900Y66664D01*
X220667Y66839D01*
X220608Y66897D01*
X221891Y67247D01*
X223058Y67597D01*
X224224Y67888D01*
X225216Y68180D01*
X226090Y68355D01*
X226440Y68472D01*
X226732Y68530D01*
X226965Y68647D01*
X227140D01*
X227257Y68705D01*
X227315D01*
X228540Y69055D01*
X229764Y69405D01*
X230873Y69696D01*
X231864Y69988D01*
X232739Y70163D01*
X233089Y70280D01*
X233380Y70338D01*
X233613Y70455D01*
X233788D01*
X233905Y70513D01*
X233963D01*
X232914Y71679D01*
X231864Y72846D01*
X230873Y73895D01*
X230056Y74887D01*
X229298Y75703D01*
X228715Y76345D01*
X228540Y76578D01*
X228365Y76753D01*
X228306Y76811D01*
X228248Y76870D01*
X227198Y78094D01*
X226149Y79203D01*
X225216Y80311D01*
X224341Y81244D01*
X223641Y82060D01*
X223058Y82702D01*
X222883Y82935D01*
X222708Y83110D01*
X222649Y83168D01*
X222591Y83227D01*
X221541Y84451D01*
X220492Y85559D01*
X219500Y86667D01*
X218684Y87600D01*
X217926Y88417D01*
X217342Y89059D01*
X217167Y89292D01*
X216992Y89467D01*
X216934Y89525D01*
X216876Y89583D01*
X215826Y90750D01*
X214834Y91858D01*
X213901Y92908D01*
X213085Y93841D01*
X212385Y94657D01*
X211802Y95299D01*
X211627Y95532D01*
X211452Y95707D01*
X211394Y95765D01*
X211335Y95824D01*
X211394Y95940D01*
X211452Y95999D01*
Y96115D01*
X211510Y96174D01*
X213376Y94657D01*
D02*
G37*
D12*
X210118Y143917D02*
G03*
X210118Y148917I0J2500D01*
G01*
X104842D02*
G03*
X104842Y143917I0J-2500D01*
G01*
X207480Y148917D02*
G03*
X207480Y143917I0J-2500D01*
G01*
X210118Y148917D02*
Y155965D01*
Y136870D02*
Y143917D01*
Y136870D02*
X310118D01*
Y155965D01*
X210118D02*
X310118D01*
X4843Y136870D02*
X104842D01*
X4843D02*
Y155965D01*
X104842D01*
Y148917D02*
Y155965D01*
Y136870D02*
Y143917D01*
X38287Y51705D02*
Y62205D01*
X18957Y51705D02*
X38287D01*
X18957D02*
Y72047D01*
X38287D01*
Y62205D02*
Y72047D01*
X33511Y51862D02*
Y71547D01*
X18957Y62205D02*
X29291D01*
X27953D02*
X38287D01*
X51968D02*
X62303D01*
X42972D02*
X53307D01*
X57526Y51862D02*
Y71547D01*
X62303Y62205D02*
Y72047D01*
X42972D02*
X62303D01*
X42972Y51705D02*
Y72047D01*
Y51705D02*
X62303D01*
Y62205D01*
X76378D02*
X86713D01*
X67382D02*
X77716D01*
X81936Y51862D02*
Y71547D01*
X86713Y62205D02*
Y72047D01*
X67382D02*
X86713D01*
X67382Y51705D02*
Y72047D01*
Y51705D02*
X86713D01*
Y62205D01*
X107480Y136870D02*
X207480D01*
X107480D02*
Y155965D01*
X207480D01*
Y148917D02*
Y155965D01*
Y136870D02*
Y143917D01*
D14*
X199736Y21521D02*
X200392Y20865D01*
Y19554D01*
X199736Y18898D01*
X197113D01*
X196457Y19554D01*
Y20865D01*
X197113Y21521D01*
X198425D01*
Y20210D01*
X196457Y22833D02*
X200392D01*
X196457Y25457D01*
X200392D01*
Y26769D02*
X196457D01*
Y28737D01*
X197113Y29393D01*
X199736D01*
X200392Y28737D01*
Y26769D01*
X190156Y21521D02*
Y18898D01*
X188188D01*
X188844Y20210D01*
Y20865D01*
X188188Y21521D01*
X186876D01*
X186221Y20865D01*
Y19554D01*
X186876Y18898D01*
X190156Y22833D02*
X187532D01*
X186221Y24145D01*
X187532Y25457D01*
X190156D01*
X176378Y18898D02*
Y20210D01*
Y19554D01*
X180314D01*
X179658Y18898D01*
X176378Y24801D02*
Y22177D01*
X179002Y24801D01*
X179658D01*
X180314Y24145D01*
Y22833D01*
X179658Y22177D01*
X180314Y26113D02*
X177690D01*
X176378Y27425D01*
X177690Y28737D01*
X180314D01*
X166535Y18898D02*
X170471D01*
X169159Y20210D01*
X170471Y21521D01*
X166535D01*
X170471Y22833D02*
Y24145D01*
Y23489D01*
X166535D01*
Y22833D01*
Y24145D01*
X169815Y28737D02*
X170471Y28081D01*
Y26769D01*
X169815Y26113D01*
X169159D01*
X168503Y26769D01*
Y28081D01*
X167847Y28737D01*
X167191D01*
X166535Y28081D01*
Y26769D01*
X167191Y26113D01*
X170471Y32017D02*
Y30705D01*
X169815Y30049D01*
X167191D01*
X166535Y30705D01*
Y32017D01*
X167191Y32673D01*
X169815D01*
X170471Y32017D01*
X156693Y18898D02*
X160629D01*
X159317Y20210D01*
X160629Y21521D01*
X156693D01*
X160629Y24801D02*
Y23489D01*
X159973Y22833D01*
X157349D01*
X156693Y23489D01*
Y24801D01*
X157349Y25457D01*
X159973D01*
X160629Y24801D01*
X159973Y29393D02*
X160629Y28737D01*
Y27425D01*
X159973Y26769D01*
X159317D01*
X158661Y27425D01*
Y28737D01*
X158005Y29393D01*
X157349D01*
X156693Y28737D01*
Y27425D01*
X157349Y26769D01*
X160629Y30705D02*
Y32017D01*
Y31361D01*
X156693D01*
Y30705D01*
Y32017D01*
X150130Y21521D02*
X150786Y20865D01*
Y19554D01*
X150130Y18898D01*
X147506D01*
X146850Y19554D01*
Y20865D01*
X147506Y21521D01*
X150786Y22833D02*
X146850D01*
Y25457D01*
X150786Y26769D02*
X146850D01*
X148162D01*
X150786Y29393D01*
X148818Y27425D01*
X146850Y29393D01*
X136614Y18898D02*
X140550D01*
X136614Y21521D01*
X140550D01*
X139894Y25457D02*
X140550Y24801D01*
Y23489D01*
X139894Y22833D01*
X137270D01*
X136614Y23489D01*
Y24801D01*
X137270Y25457D01*
X139894Y29393D02*
X140550Y28737D01*
Y27425D01*
X139894Y26769D01*
X139238D01*
X138582Y27425D01*
Y28737D01*
X137926Y29393D01*
X137270D01*
X136614Y28737D01*
Y27425D01*
X137270Y26769D01*
X130051Y21521D02*
X130707Y20865D01*
Y19554D01*
X130051Y18898D01*
X127428D01*
X126772Y19554D01*
Y20865D01*
X127428Y21521D01*
X128740D01*
Y20210D01*
X126772Y22833D02*
X130707D01*
Y24801D01*
X130051Y25457D01*
X128740D01*
X128084Y24801D01*
Y22833D01*
X130707Y26769D02*
Y28081D01*
Y27425D01*
X126772D01*
Y26769D01*
Y28081D01*
X130707Y32017D02*
Y30705D01*
X130051Y30049D01*
X127428D01*
X126772Y30705D01*
Y32017D01*
X127428Y32673D01*
X130051D01*
X130707Y32017D01*
X130051Y33985D02*
X130707Y34641D01*
Y35952D01*
X130051Y36608D01*
X129395D01*
X128740Y35952D01*
Y35297D01*
Y35952D01*
X128084Y36608D01*
X127428D01*
X126772Y35952D01*
Y34641D01*
X127428Y33985D01*
X119815Y21521D02*
X120471Y20865D01*
Y19554D01*
X119815Y18898D01*
X117191D01*
X116535Y19554D01*
Y20865D01*
X117191Y21521D01*
X118503D01*
Y20210D01*
X116535Y22833D02*
X120471D01*
Y24801D01*
X119815Y25457D01*
X118503D01*
X117847Y24801D01*
Y22833D01*
X120471Y26769D02*
Y28081D01*
Y27425D01*
X116535D01*
Y26769D01*
Y28081D01*
X120471Y32017D02*
Y30705D01*
X119815Y30049D01*
X117191D01*
X116535Y30705D01*
Y32017D01*
X117191Y32673D01*
X119815D01*
X120471Y32017D01*
X116535Y36608D02*
Y33985D01*
X119159Y36608D01*
X119815D01*
X120471Y35952D01*
Y34641D01*
X119815Y33985D01*
X109973Y21521D02*
X110629Y20865D01*
Y19554D01*
X109973Y18898D01*
X107349D01*
X106693Y19554D01*
Y20865D01*
X107349Y21521D01*
X108661D01*
Y20210D01*
X106693Y22833D02*
X110629D01*
Y24801D01*
X109973Y25457D01*
X108661D01*
X108005Y24801D01*
Y22833D01*
X110629Y26769D02*
Y28081D01*
Y27425D01*
X106693D01*
Y26769D01*
Y28081D01*
X110629Y32017D02*
Y30705D01*
X109973Y30049D01*
X107349D01*
X106693Y30705D01*
Y32017D01*
X107349Y32673D01*
X109973D01*
X110629Y32017D01*
X106693Y33985D02*
Y35297D01*
Y34641D01*
X110629D01*
X109973Y33985D01*
D36*
X273228Y176864D02*
Y170866D01*
X269230D01*
X263232Y176864D02*
X267230D01*
Y170866D01*
X263232D01*
X267230Y173865D02*
X265231D01*
X261232Y176864D02*
Y170866D01*
X258233D01*
X257234Y171866D01*
Y175865D01*
X258233Y176864D01*
X261232D01*
X255234Y169867D02*
X251236D01*
X249236Y170866D02*
Y176864D01*
X246237D01*
X245237Y175865D01*
Y173865D01*
X246237Y172865D01*
X249236D01*
X247237D02*
X245237Y170866D01*
X239239Y176864D02*
X243238D01*
Y170866D01*
X239239D01*
X243238Y173865D02*
X241239D01*
X237240Y176864D02*
Y170866D01*
X234241D01*
X233241Y171866D01*
Y175865D01*
X234241Y176864D01*
X237240D01*
X231242Y170866D02*
X229243D01*
X230242D01*
Y176864D01*
X231242Y175865D01*
X37681Y81440D02*
Y75442D01*
X33682D01*
X27684Y81440D02*
X31683D01*
Y75442D01*
X27684D01*
X31683Y78441D02*
X29684D01*
X25685Y81440D02*
Y75442D01*
X22686D01*
X21686Y76441D01*
Y80440D01*
X22686Y81440D01*
X25685D01*
X19687Y75442D02*
X17688D01*
X18687D01*
Y81440D01*
X19687Y80440D01*
X63386Y81327D02*
Y75329D01*
X59387D01*
X53389Y81327D02*
X57388D01*
Y75329D01*
X53389D01*
X57388Y78328D02*
X55388D01*
X51390Y81327D02*
Y75329D01*
X48391D01*
X47391Y76328D01*
Y80327D01*
X48391Y81327D01*
X51390D01*
X41393Y75329D02*
X45392D01*
X41393Y79327D01*
Y80327D01*
X42393Y81327D01*
X44392D01*
X45392Y80327D01*
X90551Y80933D02*
Y74935D01*
X86553D01*
X80554Y80933D02*
X84553D01*
Y74935D01*
X80554D01*
X84553Y77934D02*
X82554D01*
X78555Y80933D02*
Y74935D01*
X75556D01*
X74556Y75935D01*
Y79933D01*
X75556Y80933D01*
X78555D01*
X72557Y79933D02*
X71557Y80933D01*
X69558D01*
X68558Y79933D01*
Y78934D01*
X69558Y77934D01*
X70558D01*
X69558D01*
X68558Y76934D01*
Y75935D01*
X69558Y74935D01*
X71557D01*
X72557Y75935D01*
X80343Y177179D02*
Y171181D01*
X76344D01*
X70346Y177179D02*
X74344D01*
Y171181D01*
X70346D01*
X74344Y174180D02*
X72345D01*
X68346Y177179D02*
Y171181D01*
X65347D01*
X64348Y172181D01*
Y176180D01*
X65347Y177179D01*
X68346D01*
X62348Y170181D02*
X58350D01*
X52352Y176180D02*
X53351Y177179D01*
X55351D01*
X56350Y176180D01*
Y172181D01*
X55351Y171181D01*
X53351D01*
X52352Y172181D01*
Y174180D01*
X54351D01*
X50352Y175180D02*
Y171181D01*
Y173180D01*
X49352Y174180D01*
X48353Y175180D01*
X47353D01*
X41355Y171181D02*
X43354D01*
X44354Y172181D01*
Y174180D01*
X43354Y175180D01*
X41355D01*
X40355Y174180D01*
Y173180D01*
X44354D01*
X35357Y171181D02*
X37356D01*
X38356Y172181D01*
Y174180D01*
X37356Y175180D01*
X35357D01*
X34357Y174180D01*
Y173180D01*
X38356D01*
X32358Y171181D02*
Y175180D01*
X29359D01*
X28359Y174180D01*
Y171181D01*
X184188Y177179D02*
Y171181D01*
X180189D01*
X174191Y177179D02*
X178190D01*
Y171181D01*
X174191D01*
X178190Y174180D02*
X176190D01*
X172192Y177179D02*
Y171181D01*
X169193D01*
X168193Y172181D01*
Y176180D01*
X169193Y177179D01*
X172192D01*
X166194Y170181D02*
X162195D01*
X160196Y177179D02*
Y176180D01*
X158196Y174180D01*
X156197Y176180D01*
Y177179D01*
X158196Y174180D02*
Y171181D01*
X151198D02*
X153198D01*
X154198Y172181D01*
Y174180D01*
X153198Y175180D01*
X151198D01*
X150199Y174180D01*
Y173180D01*
X154198D01*
X148199Y171181D02*
X146200D01*
X147200D01*
Y177179D01*
X148199D01*
X143201Y171181D02*
X141202D01*
X142201D01*
Y177179D01*
X143201D01*
X137203Y171181D02*
X135204D01*
X134204Y172181D01*
Y174180D01*
X135204Y175180D01*
X137203D01*
X138203Y174180D01*
Y172181D01*
X137203Y171181D01*
X132205Y175180D02*
Y172181D01*
X131205Y171181D01*
X130205Y172181D01*
X129206Y171181D01*
X128206Y172181D01*
Y175180D01*
M02*
