G04*
G04 #@! TF.GenerationSoftware,Altium Limited,Altium Designer,18.1.11 (251)*
G04*
G04 Layer_Color=16711935*
%FSLAX25Y25*%
%MOIN*%
G70*
G01*
G75*
%ADD45C,0.00394*%
D45*
X261417Y90571D02*
G03*
X261417Y90571I-1969J0D01*
G01*
X159055D02*
G03*
X159055Y90571I-1969J0D01*
G01*
X56024Y90177D02*
G03*
X56024Y90177I-1969J0D01*
G01*
X182888Y43701D02*
G03*
X182888Y43701I-1969J0D01*
G01*
X286713Y84055D02*
X292028D01*
X286713Y92323D02*
X292028D01*
X286713Y84055D02*
Y92323D01*
X292028Y84055D02*
Y92323D01*
X303248Y91122D02*
X308563D01*
X303248Y99390D02*
X308563D01*
X303248Y91122D02*
Y99390D01*
X308563Y91122D02*
Y99390D01*
X303248Y114075D02*
X308563D01*
X303248Y105807D02*
X308563D01*
Y114075D01*
X303248Y105807D02*
Y114075D01*
X294980Y106102D02*
X300295D01*
X294980Y97835D02*
X300295D01*
Y106102D01*
X294980Y97835D02*
Y106102D01*
X286713Y113976D02*
X292028D01*
X286713Y105709D02*
X292028D01*
Y113976D01*
X286713Y105709D02*
Y113976D01*
X185138Y112008D02*
X190453D01*
X185138Y103740D02*
X190453D01*
Y112008D01*
X185138Y103740D02*
Y112008D01*
X283996Y41142D02*
Y49409D01*
X278681Y41142D02*
Y49409D01*
X283996D01*
X278681Y41142D02*
X283996D01*
X259744D02*
Y49409D01*
X254429Y41142D02*
Y49409D01*
X259744D01*
X254429Y41142D02*
X259744D01*
X241653Y87028D02*
X277244D01*
X272913Y82697D02*
X277244Y87028D01*
X241653Y82697D02*
X272913D01*
X241653D02*
Y118287D01*
X277244D01*
Y87028D02*
Y118287D01*
X174882Y87028D02*
Y118287D01*
X139291D02*
X174882D01*
X139291Y82697D02*
Y118287D01*
Y82697D02*
X170551D01*
X174882Y87028D01*
X139291D02*
X174882D01*
X36260Y86634D02*
X71850D01*
X67520Y82303D02*
X71850Y86634D01*
X36260Y82303D02*
X67520D01*
X36260D02*
Y117894D01*
X71850D01*
Y86634D02*
Y117894D01*
X190354Y45866D02*
Y52559D01*
X193898Y45866D02*
Y52559D01*
X190354Y45866D02*
X193898D01*
X190354Y52559D02*
X193898D01*
X240354Y5709D02*
Y12402D01*
X236811Y5709D02*
Y12402D01*
X240354D01*
X236811Y5709D02*
X240354D01*
X234055D02*
Y12402D01*
X230512Y5709D02*
Y12402D01*
X234055D01*
X230512Y5709D02*
X234055D01*
X80807Y112008D02*
X86122D01*
X80807Y103740D02*
X86122D01*
Y112008D01*
X80807Y103740D02*
Y112008D01*
X90650Y103740D02*
X95965D01*
X90650Y112008D02*
X95965D01*
X90650Y103740D02*
Y112008D01*
X95965Y103740D02*
Y112008D01*
X185531Y96260D02*
X190847D01*
X185531Y87992D02*
X190847D01*
Y96260D01*
X185531Y87992D02*
Y96260D01*
X162298Y23720D02*
Y29035D01*
X154030Y23720D02*
Y29035D01*
Y23720D02*
X162298D01*
X154030Y29035D02*
X162298D01*
X162402Y30413D02*
Y35728D01*
X154134Y30413D02*
Y35728D01*
Y30413D02*
X162402D01*
X154134Y35728D02*
X162402D01*
X156496Y47736D02*
Y53051D01*
X164764Y47736D02*
Y53051D01*
X156496D02*
X164764D01*
X156496Y47736D02*
X164764D01*
X158071Y55709D02*
X164764D01*
X158071Y59252D02*
X164764D01*
Y55709D02*
Y59252D01*
X158071Y55709D02*
Y59252D01*
X192323Y59153D02*
Y64468D01*
X184055Y59153D02*
Y64468D01*
Y59153D02*
X192323D01*
X184055Y64468D02*
X192323D01*
X184055Y70669D02*
X190748D01*
X184055Y67126D02*
X190748D01*
X184055D02*
Y70669D01*
X190748Y67126D02*
Y70669D01*
X171865Y47244D02*
X184463D01*
X171865Y34646D02*
X184463D01*
Y47244D01*
X171865Y34646D02*
Y47244D01*
M02*
