G04*
G04 #@! TF.GenerationSoftware,Altium Limited,Altium Designer,19.1.8 (144)*
G04*
G04 Layer_Color=65535*
%FSLAX25Y25*%
%MOIN*%
G70*
G01*
G75*
%ADD10C,0.01181*%
%ADD11C,0.01000*%
%ADD12C,0.00394*%
%ADD13R,0.40158X0.15945*%
%ADD14C,0.00197*%
G36*
X54059Y775514D02*
X54314D01*
X54606Y775477D01*
X54970Y775441D01*
X55335Y775368D01*
X56210Y775259D01*
X57157Y775040D01*
X58178Y774785D01*
X59198Y774420D01*
X58943Y773691D01*
X58907D01*
X58834Y773728D01*
X58688Y773801D01*
X58469Y773837D01*
X58251Y773946D01*
X57959Y774019D01*
X57631Y774129D01*
X57267Y774202D01*
X56465Y774420D01*
X55517Y774603D01*
X54533Y774712D01*
X53512Y774785D01*
X52492D01*
X52164Y774748D01*
X51799Y774712D01*
X50997Y774639D01*
X50086Y774530D01*
X49138Y774347D01*
X48154Y774092D01*
X48118D01*
X48045Y774056D01*
X47899Y774019D01*
X47717Y773946D01*
X47498Y773874D01*
X47206Y773764D01*
X46587Y773509D01*
X45821Y773181D01*
X45019Y772780D01*
X44181Y772306D01*
X43306Y771759D01*
X43270D01*
X43197Y771687D01*
X43088Y771614D01*
X42905Y771468D01*
X42723Y771322D01*
X42504Y771140D01*
X41958Y770666D01*
X41338Y770119D01*
X40682Y769427D01*
X40026Y768661D01*
X39370Y767823D01*
Y767786D01*
X39297Y767713D01*
X39224Y767604D01*
X39114Y767422D01*
X38969Y767203D01*
X38823Y766948D01*
X38641Y766656D01*
X38458Y766328D01*
X38058Y765599D01*
X37657Y764761D01*
X37256Y763850D01*
X36928Y762866D01*
Y762829D01*
X36891Y762756D01*
X36855Y762610D01*
X36818Y762392D01*
X36745Y762173D01*
X36672Y761881D01*
X36636Y761553D01*
X36563Y761189D01*
X36417Y760387D01*
X36308Y759476D01*
X36235Y758528D01*
Y757508D01*
Y757471D01*
Y757398D01*
Y757252D01*
X36271Y757070D01*
X36308Y756815D01*
Y756523D01*
X36344Y756195D01*
X36417Y755867D01*
X36527Y755065D01*
X36745Y754154D01*
X36964Y753206D01*
X37292Y752222D01*
Y752186D01*
X37328Y752113D01*
X37401Y751967D01*
X37474Y751785D01*
X37584Y751566D01*
X37693Y751274D01*
X38021Y750655D01*
X38385Y749926D01*
X38859Y749124D01*
X39443Y748286D01*
X40062Y747447D01*
X39443Y746901D01*
X39406Y746937D01*
X39370Y747010D01*
X39260Y747119D01*
X39151Y747301D01*
X38969Y747520D01*
X38787Y747775D01*
X38604Y748067D01*
X38385Y748395D01*
X37912Y749160D01*
X37438Y750035D01*
X36964Y750983D01*
X36563Y751967D01*
Y752003D01*
X36527Y752076D01*
X36454Y752222D01*
X36417Y752441D01*
X36308Y752660D01*
X36235Y752951D01*
X36126Y753279D01*
X36053Y753644D01*
X35834Y754482D01*
X35652Y755430D01*
X35506Y756414D01*
X35433Y757471D01*
Y757508D01*
Y757617D01*
Y757763D01*
Y757981D01*
Y758237D01*
X35469Y758528D01*
Y758893D01*
X35506Y759257D01*
X35579Y760132D01*
X35725Y761080D01*
X35943Y762100D01*
X36198Y763121D01*
Y763157D01*
X36235Y763230D01*
X36271Y763376D01*
X36344Y763595D01*
X36454Y763813D01*
X36527Y764105D01*
X36672Y764433D01*
X36818Y764797D01*
X37183Y765599D01*
X37584Y766474D01*
X38130Y767385D01*
X38714Y768297D01*
X38750Y768333D01*
X38787Y768406D01*
X38896Y768515D01*
X39042Y768698D01*
X39187Y768916D01*
X39406Y769135D01*
X39916Y769718D01*
X40500Y770374D01*
X41192Y771067D01*
X41994Y771759D01*
X42832Y772415D01*
X42869Y772452D01*
X42942Y772488D01*
X43088Y772561D01*
X43233Y772671D01*
X43452Y772817D01*
X43744Y772962D01*
X44035Y773144D01*
X44363Y773327D01*
X45129Y773728D01*
X45967Y774129D01*
X46915Y774530D01*
X47899Y774858D01*
X47935D01*
X48008Y774894D01*
X48154Y774931D01*
X48373Y774967D01*
X48628Y775040D01*
X48920Y775113D01*
X49248Y775186D01*
X49649Y775259D01*
X50487Y775368D01*
X51435Y775477D01*
X52455Y775550D01*
X53840D01*
X54059Y775514D01*
D02*
G37*
G36*
X134285Y755393D02*
X132645D01*
Y759184D01*
X128235D01*
Y755393D01*
X126558D01*
Y764287D01*
X128235D01*
Y760606D01*
X132645D01*
Y764287D01*
X134285D01*
Y755393D01*
D02*
G37*
G36*
X123241Y764251D02*
X123533Y764214D01*
X123861Y764141D01*
X124189Y763996D01*
X124517Y763850D01*
X124809Y763631D01*
X124845Y763595D01*
X124918Y763522D01*
X125027Y763376D01*
X125173Y763157D01*
X125282Y762902D01*
X125392Y762574D01*
X125465Y762210D01*
X125501Y761772D01*
Y761699D01*
Y761553D01*
X125465Y761298D01*
X125392Y761007D01*
X125282Y760642D01*
X125100Y760278D01*
X124881Y759913D01*
X124553Y759585D01*
X124517Y759549D01*
X124371Y759439D01*
X124152Y759294D01*
X123861Y759148D01*
X123460Y758929D01*
X122950Y758747D01*
X122366Y758601D01*
X121710Y758455D01*
X121492Y759950D01*
X121528D01*
X121674Y759986D01*
X121892Y760022D01*
X122111Y760095D01*
X122694Y760278D01*
X122950Y760424D01*
X123168Y760569D01*
X123205Y760606D01*
X123278Y760642D01*
X123351Y760751D01*
X123460Y760897D01*
X123679Y761262D01*
X123715Y761481D01*
X123751Y761736D01*
Y761772D01*
Y761809D01*
X123715Y762027D01*
X123642Y762319D01*
X123460Y762538D01*
X123423Y762574D01*
X123241Y762683D01*
X122986Y762793D01*
X122658Y762829D01*
X120398D01*
Y755393D01*
X118758D01*
Y764287D01*
X122986D01*
X123241Y764251D01*
D02*
G37*
G36*
X153896Y755393D02*
X152219D01*
X147517Y761991D01*
Y755393D01*
X145913D01*
Y764287D01*
X147553D01*
X152292Y757799D01*
Y764287D01*
X153896D01*
Y755393D01*
D02*
G37*
G36*
X182035D02*
X180541D01*
Y761553D01*
X178062Y755393D01*
X176677D01*
X174198Y761553D01*
Y755393D01*
X172704D01*
Y764287D01*
X174381D01*
X177442Y757544D01*
X180395Y764287D01*
X182035D01*
Y755393D01*
D02*
G37*
G36*
X114056D02*
X112525D01*
Y761553D01*
X110119Y755393D01*
X108698D01*
X106219Y761553D01*
Y755393D01*
X104688D01*
Y764287D01*
X106438D01*
X109427Y757544D01*
X112416Y764287D01*
X114056D01*
Y755393D01*
D02*
G37*
G36*
X161586Y762866D02*
X159035D01*
Y755393D01*
X157395D01*
Y762866D01*
X154807D01*
Y764287D01*
X161586D01*
Y762866D01*
D02*
G37*
G36*
X144819Y755393D02*
X143070D01*
X142013Y757799D01*
X139060D01*
X139644Y759221D01*
X141430D01*
X140008Y762610D01*
X137056Y755393D01*
X135379D01*
X139170Y764287D01*
X140956D01*
X144819Y755393D01*
D02*
G37*
G36*
X103631D02*
X101809D01*
X100824Y757799D01*
X97835D01*
X98382Y759221D01*
X100205D01*
X98820Y762610D01*
X95831Y755393D01*
X94154D01*
X97945Y764287D01*
X99731D01*
X103631Y755393D01*
D02*
G37*
G36*
X93316Y762866D02*
X88869D01*
Y760606D01*
X93133D01*
Y759148D01*
X88796D01*
Y756815D01*
X93389D01*
Y755393D01*
X87192D01*
Y764287D01*
X93316D01*
Y762866D01*
D02*
G37*
G36*
X86281D02*
X83693D01*
Y755393D01*
X82053D01*
Y762866D01*
X79465D01*
Y764287D01*
X86281D01*
Y762866D01*
D02*
G37*
G36*
X167455Y764287D02*
X167929Y764214D01*
X168476Y764069D01*
X169022Y763886D01*
X169569Y763595D01*
X170007Y763194D01*
X170043Y763157D01*
X170189Y762975D01*
X170371Y762720D01*
X170590Y762355D01*
X170772Y761881D01*
X170954Y761298D01*
X171100Y760606D01*
X171136Y759804D01*
Y759767D01*
Y759694D01*
Y759585D01*
Y759439D01*
X171063Y759038D01*
X170991Y758565D01*
X170845Y758018D01*
X170663Y757435D01*
X170371Y756888D01*
X170007Y756414D01*
X169970Y756378D01*
X169788Y756232D01*
X169533Y756049D01*
X169168Y755867D01*
X168731Y755649D01*
X168148Y755466D01*
X167455Y755321D01*
X166690Y755284D01*
X166471D01*
X166325Y755321D01*
X165961Y755357D01*
X165487Y755430D01*
X164940Y755576D01*
X164393Y755758D01*
X163883Y756049D01*
X163409Y756414D01*
X163373Y756487D01*
X163227Y756633D01*
X163045Y756888D01*
X162862Y757289D01*
X162644Y757763D01*
X162425Y758346D01*
X162279Y759038D01*
X162206Y759804D01*
Y759840D01*
Y759913D01*
Y760022D01*
X162243Y760168D01*
X162279Y760569D01*
X162352Y761080D01*
X162498Y761626D01*
X162680Y762173D01*
X162972Y762720D01*
X163336Y763194D01*
X163373Y763230D01*
X163555Y763376D01*
X163810Y763558D01*
X164174Y763777D01*
X164648Y763996D01*
X165232Y764178D01*
X165924Y764324D01*
X166690Y764360D01*
X167054D01*
X167455Y764287D01*
D02*
G37*
G36*
X183967Y750801D02*
X77460D01*
Y751566D01*
X183967D01*
Y750801D01*
D02*
G37*
G36*
X135415Y747994D02*
X135707Y747921D01*
X135743D01*
X135780Y747885D01*
X135962Y747848D01*
X136181Y747739D01*
X136436Y747557D01*
X136035Y746901D01*
X135999Y746937D01*
X135853Y747010D01*
X135634Y747119D01*
X135415Y747192D01*
X135379Y747229D01*
X135233Y747265D01*
X135014Y747301D01*
X134796Y747338D01*
X134686D01*
X134431Y747265D01*
X134395D01*
X134358Y747229D01*
X134176Y747156D01*
X134103Y747083D01*
X134067Y747010D01*
X133994Y746901D01*
Y746864D01*
Y746828D01*
X133957Y746609D01*
Y746536D01*
X133994Y746390D01*
X134030Y746354D01*
X134103Y746172D01*
X134140Y746135D01*
X134285Y746026D01*
X134322D01*
X134395Y745989D01*
X134504D01*
X134650Y745953D01*
X134686D01*
X134723Y745916D01*
X134869Y745880D01*
X135270D01*
X135415Y745844D01*
X135598Y745807D01*
X135816Y745698D01*
X135853Y745661D01*
X135999Y745625D01*
X136108Y745515D01*
X136254Y745370D01*
X136290Y745333D01*
X136363Y745224D01*
X136436Y745078D01*
X136509Y744896D01*
Y744859D01*
X136545Y744750D01*
X136582Y744604D01*
Y744422D01*
Y744385D01*
Y744313D01*
X136545Y744167D01*
Y744021D01*
X136400Y743656D01*
X136290Y743474D01*
X136144Y743328D01*
X136108D01*
X136072Y743256D01*
X135962Y743219D01*
X135816Y743146D01*
X135634Y743073D01*
X135415Y743037D01*
X135124Y742964D01*
X134614D01*
X134468Y743000D01*
X134140Y743037D01*
X133775Y743110D01*
X133739D01*
X133702Y743146D01*
X133484Y743256D01*
X133192Y743401D01*
X132900Y743656D01*
X133411Y744240D01*
X133447Y744203D01*
X133593Y744094D01*
X133812Y743948D01*
X134030Y743839D01*
X134103D01*
X134285Y743802D01*
X134541Y743766D01*
X134832Y743729D01*
X134905D01*
X135124Y743766D01*
X135343Y743802D01*
X135561Y743875D01*
X135598Y743912D01*
X135707Y744021D01*
X135780Y744167D01*
X135816Y744422D01*
Y744458D01*
Y744568D01*
X135743Y744713D01*
X135671Y744859D01*
X135634Y744896D01*
X135561Y744969D01*
X135379Y745042D01*
X135160Y745115D01*
X134796D01*
X134723Y745151D01*
X134504Y745187D01*
X134468D01*
X134322Y745224D01*
X134103Y745260D01*
X133921Y745333D01*
X133885Y745370D01*
X133775Y745442D01*
X133629Y745552D01*
X133520Y745698D01*
X133484Y745734D01*
X133411Y745807D01*
X133338Y745953D01*
X133265Y746099D01*
Y746135D01*
X133228Y746244D01*
X133192Y746427D01*
Y746609D01*
Y746682D01*
Y746828D01*
X133228Y747010D01*
X133265Y747229D01*
X133301Y747265D01*
X133338Y747374D01*
X133447Y747520D01*
X133593Y747702D01*
X133629Y747739D01*
X133739Y747812D01*
X133921Y747885D01*
X134103Y747958D01*
X134140Y747994D01*
X134322Y748031D01*
X134541Y748067D01*
X135124D01*
X135415Y747994D01*
D02*
G37*
G36*
X84714D02*
X85041Y747921D01*
X85078D01*
X85114Y747885D01*
X85297Y747848D01*
X85515Y747739D01*
X85770Y747557D01*
X85370Y746901D01*
X85333Y746937D01*
X85187Y747010D01*
X84969Y747119D01*
X84750Y747192D01*
X84677Y747229D01*
X84531Y747265D01*
X84349Y747301D01*
X84094Y747338D01*
X83985D01*
X83766Y747265D01*
X83729D01*
X83693Y747229D01*
X83511Y747156D01*
X83438Y747083D01*
X83401Y747010D01*
X83328Y746901D01*
Y746864D01*
X83292Y746828D01*
X83255Y746609D01*
Y746536D01*
X83292Y746390D01*
X83328Y746354D01*
X83438Y746172D01*
X83474Y746135D01*
X83620Y746026D01*
X83656D01*
X83729Y745989D01*
X83839D01*
X83985Y745953D01*
X84021D01*
X84057Y745916D01*
X84203Y745880D01*
X84604D01*
X84750Y745844D01*
X84932Y745807D01*
X85151Y745698D01*
X85187Y745661D01*
X85333Y745625D01*
X85443Y745515D01*
X85588Y745370D01*
X85625Y745333D01*
X85698Y745224D01*
X85770Y745078D01*
X85843Y744896D01*
Y744859D01*
X85880Y744750D01*
X85916Y744604D01*
Y744422D01*
Y744385D01*
Y744313D01*
X85880Y744167D01*
X85843Y744021D01*
X85698Y743656D01*
X85588Y743474D01*
X85443Y743328D01*
X85406D01*
X85370Y743256D01*
X85260Y743219D01*
X85114Y743146D01*
X84932Y743073D01*
X84714Y743037D01*
X84458Y742964D01*
X83948D01*
X83802Y743000D01*
X83474Y743037D01*
X83110Y743110D01*
X83073D01*
X83037Y743146D01*
X82818Y743256D01*
X82526Y743401D01*
X82198Y743656D01*
X82745Y744240D01*
X82782Y744203D01*
X82927Y744094D01*
X83110Y743948D01*
X83365Y743839D01*
X83438D01*
X83620Y743802D01*
X83875Y743766D01*
X84167Y743729D01*
X84240D01*
X84458Y743766D01*
X84677Y743802D01*
X84896Y743875D01*
X84932Y743912D01*
X85041Y744021D01*
X85114Y744167D01*
X85151Y744422D01*
Y744458D01*
X85114Y744568D01*
X85078Y744713D01*
X84969Y744859D01*
X84932Y744896D01*
X84859Y744969D01*
X84714Y745042D01*
X84495Y745115D01*
X84130D01*
X84057Y745151D01*
X83948D01*
X83802Y745187D01*
X83766D01*
X83620Y745224D01*
X83438Y745260D01*
X83255Y745333D01*
X83219Y745370D01*
X83110Y745442D01*
X82964Y745552D01*
X82818Y745698D01*
X82782Y745734D01*
X82745Y745807D01*
X82636Y745953D01*
X82563Y746099D01*
Y746135D01*
X82526Y746244D01*
X82490Y746427D01*
X82454Y746609D01*
Y746682D01*
Y746828D01*
X82490Y747010D01*
X82563Y747229D01*
X82599Y747265D01*
X82672Y747374D01*
X82782Y747520D01*
X82927Y747702D01*
X82964Y747739D01*
X83073Y747812D01*
X83219Y747885D01*
X83401Y747958D01*
X83474Y747994D01*
X83620Y748031D01*
X83839Y748067D01*
X84422D01*
X84714Y747994D01*
D02*
G37*
G36*
X178900Y748031D02*
X179119Y747958D01*
X179155D01*
X179301Y747885D01*
X179483Y747812D01*
X179666Y747666D01*
X179702Y747629D01*
X179812Y747520D01*
X179921Y747374D01*
X180030Y747156D01*
X180067Y747119D01*
X180103Y746973D01*
X180212Y746791D01*
X180285Y746572D01*
X179411D01*
Y746609D01*
X179374Y746682D01*
X179301Y746864D01*
Y746901D01*
X179265Y746937D01*
X179119Y747119D01*
X179083Y747156D01*
X179010Y747192D01*
X178791Y747265D01*
X178754D01*
X178682Y747301D01*
X178463Y747338D01*
X178390Y747301D01*
X178244Y747265D01*
X178171D01*
X177989Y747229D01*
X177953Y747192D01*
X177843Y747083D01*
X177807Y747046D01*
X177697Y746973D01*
X177661Y746901D01*
X177552Y746755D01*
Y746682D01*
X177515Y746536D01*
Y746500D01*
X177479Y746463D01*
Y746317D01*
X177442Y746135D01*
Y746099D01*
Y745953D01*
Y745771D01*
Y745552D01*
Y745479D01*
Y745333D01*
Y745115D01*
Y744896D01*
Y744859D01*
X177479Y744750D01*
Y744604D01*
X177515Y744495D01*
Y744422D01*
X177552Y744276D01*
X177588Y744203D01*
X177697Y744057D01*
X177734Y744021D01*
X177843Y743912D01*
X177880Y743875D01*
X177989Y743839D01*
X178025D01*
X178062Y743802D01*
X178244Y743729D01*
X178536D01*
X178645Y743766D01*
X178827Y743802D01*
X179010Y743875D01*
X179046Y743912D01*
X179155Y744021D01*
X179301Y744167D01*
X179411Y744422D01*
X180285D01*
X180249Y744349D01*
X180212Y744203D01*
X180103Y743985D01*
X179994Y743766D01*
X179957Y743729D01*
X179884Y743620D01*
X179775Y743474D01*
X179629Y743292D01*
X179593Y743256D01*
X179483Y743219D01*
X179301Y743110D01*
X179083Y743037D01*
X179046D01*
X178900Y743000D01*
X178682Y742964D01*
X178317D01*
X178135Y743000D01*
X177953Y743037D01*
X177916D01*
X177807Y743073D01*
X177661Y743146D01*
X177479Y743219D01*
X177442Y743256D01*
X177369Y743328D01*
X177114Y743511D01*
Y743547D01*
X177041Y743620D01*
X176895Y743839D01*
X176859Y743875D01*
X176823Y743948D01*
Y743985D01*
Y744057D01*
X176786Y744094D01*
X176750Y744167D01*
Y744203D01*
Y744240D01*
Y744349D01*
Y744385D01*
X176713Y744458D01*
X176677Y744604D01*
X176640Y744786D01*
Y744823D01*
Y745005D01*
Y745224D01*
Y745552D01*
Y745588D01*
Y745625D01*
Y745807D01*
Y746026D01*
Y746244D01*
Y746281D01*
X176677Y746427D01*
X176713Y746536D01*
X176750Y746682D01*
Y746718D01*
Y746755D01*
X176786Y746937D01*
Y746973D01*
X176823Y747010D01*
X176895Y747192D01*
X176932Y747229D01*
X176968Y747301D01*
X177114Y747520D01*
X177151Y747557D01*
X177224Y747629D01*
X177333Y747739D01*
X177479Y747812D01*
X177515Y747848D01*
X177624Y747885D01*
X177770Y747958D01*
X177953Y747994D01*
X177989D01*
X178098Y748031D01*
X178281Y748067D01*
X178682D01*
X178900Y748031D01*
D02*
G37*
G36*
X163810D02*
X164029Y747958D01*
X164102D01*
X164211Y747885D01*
X164393Y747812D01*
X164575Y747666D01*
X164612Y747629D01*
X164721Y747520D01*
X164831Y747374D01*
X164940Y747156D01*
X164976Y747119D01*
X165013Y746973D01*
X165086Y746791D01*
X165159Y746572D01*
X164357D01*
Y746609D01*
X164320Y746682D01*
X164211Y746864D01*
Y746901D01*
X164174Y746937D01*
X163992Y747119D01*
Y747156D01*
X163919Y747192D01*
X163737Y747265D01*
X163701D01*
X163628Y747301D01*
X163409Y747338D01*
X163373D01*
X163300Y747301D01*
X163117Y747265D01*
X163045D01*
X162935Y747229D01*
X162862Y747192D01*
X162753Y747083D01*
X162716Y747046D01*
X162571Y746973D01*
X162534Y746901D01*
X162461Y746755D01*
X162425Y746682D01*
X162388Y746536D01*
Y746500D01*
Y746463D01*
X162352Y746317D01*
Y746135D01*
Y746099D01*
Y745953D01*
Y745771D01*
Y745552D01*
Y745479D01*
Y745333D01*
Y745115D01*
Y744896D01*
Y744859D01*
Y744750D01*
Y744604D01*
X162388Y744495D01*
X162425Y744422D01*
X162461Y744276D01*
X162498Y744203D01*
X162571Y744057D01*
X162607D01*
X162644Y744021D01*
X162753Y743912D01*
X162789Y743875D01*
X162935Y743839D01*
X162972Y743802D01*
X163117Y743729D01*
X163445D01*
X163591Y743766D01*
X163774Y743802D01*
X163956Y743875D01*
X163992Y743912D01*
X164102Y744021D01*
X164247Y744167D01*
X164357Y744422D01*
X165159D01*
Y744349D01*
X165122Y744203D01*
X165049Y743985D01*
X164940Y743766D01*
X164903Y743729D01*
X164831Y743620D01*
X164685Y743474D01*
X164503Y743292D01*
X164466Y743256D01*
X164357Y743219D01*
X164211Y743110D01*
X163992Y743037D01*
X163956D01*
X163810Y743000D01*
X163628Y742964D01*
X163227D01*
X163008Y743000D01*
X162826Y743037D01*
X162789D01*
X162680Y743073D01*
X162388Y743219D01*
X162352Y743256D01*
X162279Y743328D01*
X162024Y743511D01*
X161987Y743547D01*
X161951Y743620D01*
X161769Y743839D01*
Y743875D01*
X161732Y743948D01*
Y743985D01*
X161696Y744057D01*
X161659Y744094D01*
X161623Y744167D01*
Y744203D01*
Y744240D01*
Y744349D01*
Y744385D01*
Y744458D01*
X161586Y744604D01*
Y744786D01*
Y744823D01*
Y745005D01*
Y745224D01*
Y745552D01*
Y745588D01*
Y745625D01*
Y745807D01*
Y746026D01*
Y746244D01*
Y746281D01*
Y746427D01*
Y746536D01*
X161623Y746682D01*
Y746718D01*
X161659Y746755D01*
X161696Y746937D01*
Y746973D01*
X161732Y747010D01*
X161769Y747192D01*
X161805Y747229D01*
X161842Y747301D01*
X162024Y747520D01*
X162060Y747557D01*
X162133Y747629D01*
X162388Y747812D01*
X162425Y747848D01*
X162498Y747885D01*
X162644Y747958D01*
X162826Y747994D01*
X162862D01*
X163008Y748031D01*
X163190Y748067D01*
X163628D01*
X163810Y748031D01*
D02*
G37*
G36*
X116024Y743000D02*
X115259D01*
Y746135D01*
X115222D01*
X114201Y743729D01*
X113545D01*
X112488Y746135D01*
X112452D01*
Y743000D01*
X111687D01*
Y748031D01*
X112416D01*
X113874Y744750D01*
X115295Y748031D01*
X116024D01*
Y743000D01*
D02*
G37*
G36*
X120945Y744677D02*
Y744604D01*
Y744458D01*
X120872Y744240D01*
X120799Y743985D01*
X120763Y743948D01*
X120726Y743802D01*
X120580Y743620D01*
X120398Y743438D01*
X120362Y743401D01*
X120252Y743292D01*
X120070Y743183D01*
X119851Y743073D01*
X119778D01*
X119633Y743037D01*
X119414Y743000D01*
X119159Y742964D01*
X118904D01*
X118685Y743000D01*
X118430Y743073D01*
X118393Y743110D01*
X118247Y743146D01*
X118065Y743292D01*
X117883Y743438D01*
X117847Y743474D01*
X117737Y743620D01*
X117591Y743766D01*
X117446Y743985D01*
Y744057D01*
X117409Y744203D01*
X117373Y744422D01*
X117336Y744677D01*
Y748031D01*
X118102D01*
Y744786D01*
Y744750D01*
Y744641D01*
X118175Y744349D01*
Y744313D01*
X118247Y744240D01*
X118320Y744130D01*
X118430Y743985D01*
X118466Y743948D01*
X118539Y743912D01*
X118721Y743766D01*
X118831D01*
X118976Y743729D01*
X119305D01*
X119560Y743766D01*
X119596D01*
X119669Y743839D01*
X119888Y743985D01*
X119924Y744021D01*
X119961Y744094D01*
X120106Y744349D01*
Y744385D01*
X120143Y744458D01*
X120179Y744604D01*
Y744786D01*
Y748031D01*
X120945D01*
Y744677D01*
D02*
G37*
G36*
X94774D02*
Y744604D01*
Y744458D01*
X94701Y744240D01*
X94628Y743985D01*
X94591Y743948D01*
X94555Y743802D01*
X94409Y743620D01*
X94227Y743438D01*
X94191Y743401D01*
X94081Y743292D01*
X93899Y743183D01*
X93680Y743073D01*
X93607D01*
X93462Y743037D01*
X93243Y743000D01*
X92951Y742964D01*
X92733D01*
X92514Y743000D01*
X92259Y743073D01*
X92222Y743110D01*
X92076Y743146D01*
X91894Y743292D01*
X91712Y743438D01*
X91675Y743474D01*
X91566Y743620D01*
X91420Y743766D01*
X91274Y743985D01*
Y744057D01*
X91238Y744203D01*
X91202Y744422D01*
X91165Y744677D01*
Y748031D01*
X91931D01*
Y744786D01*
Y744750D01*
Y744641D01*
X92004Y744349D01*
Y744313D01*
X92076Y744240D01*
X92222Y743985D01*
X92259Y743948D01*
X92331Y743912D01*
X92550Y743766D01*
X92660D01*
X92805Y743729D01*
X93243D01*
X93352Y743766D01*
X93389D01*
X93462Y743839D01*
X93680Y743985D01*
X93717Y744021D01*
X93789Y744094D01*
X93862Y744203D01*
X93935Y744349D01*
Y744385D01*
X93972Y744458D01*
X94008Y744604D01*
Y744786D01*
Y748031D01*
X94774D01*
Y744677D01*
D02*
G37*
G36*
X175437Y743000D02*
X174672D01*
Y748031D01*
X175437D01*
Y743000D01*
D02*
G37*
G36*
X172339Y747994D02*
X172521Y747958D01*
X172558D01*
X172667Y747921D01*
X172959Y747739D01*
X172995Y747702D01*
X173105Y747593D01*
X173214Y747447D01*
X173323Y747265D01*
X173360Y747229D01*
X173396Y747083D01*
X173433Y746901D01*
X173469Y746645D01*
Y746609D01*
Y746572D01*
X173433Y746317D01*
X173360Y746026D01*
X173214Y745734D01*
X173178Y745698D01*
X173032Y745552D01*
X172813Y745370D01*
X172521Y745224D01*
X173652Y743000D01*
X172777D01*
X171683Y745151D01*
X170736D01*
Y743000D01*
X169970D01*
Y748031D01*
X172121D01*
X172339Y747994D01*
D02*
G37*
G36*
X169095Y747374D02*
X167710D01*
Y743000D01*
X166945D01*
Y747374D01*
X165560D01*
Y748031D01*
X169095D01*
Y747374D01*
D02*
G37*
G36*
X160675Y747338D02*
X158197D01*
Y745880D01*
X160311D01*
Y745187D01*
X158197D01*
Y743729D01*
X160675D01*
Y743000D01*
X157431D01*
Y748031D01*
X160675D01*
Y747338D01*
D02*
G37*
G36*
X153896Y743729D02*
X156374D01*
Y743000D01*
X153130D01*
Y748031D01*
X153896D01*
Y743729D01*
D02*
G37*
G36*
X152037Y747338D02*
X149594D01*
Y745880D01*
X151709D01*
Y745187D01*
X149594D01*
Y743729D01*
X152037D01*
Y743000D01*
X148829D01*
Y748031D01*
X152037D01*
Y747338D01*
D02*
G37*
G36*
X145658D02*
X143216D01*
Y745880D01*
X145330D01*
Y745187D01*
X143216D01*
Y743729D01*
X145658D01*
Y743000D01*
X142450D01*
Y748031D01*
X145658D01*
Y747338D01*
D02*
G37*
G36*
X141576Y743000D02*
X140737D01*
X140373Y744094D01*
X138441D01*
X138076Y743000D01*
X137238D01*
X139097Y748031D01*
X139716D01*
X141576Y743000D01*
D02*
G37*
G36*
X130385D02*
X129547D01*
X129183Y744094D01*
X127251D01*
X126886Y743000D01*
X126048D01*
X127907Y748031D01*
X128526D01*
X130385Y743000D01*
D02*
G37*
G36*
X123022Y743729D02*
X125538D01*
Y743000D01*
X122293D01*
Y748031D01*
X123022D01*
Y743729D01*
D02*
G37*
G36*
X109354Y747994D02*
X109536Y747958D01*
X109572D01*
X109682Y747921D01*
X109864Y747848D01*
X110046Y747739D01*
X110083Y747702D01*
X110156Y747593D01*
X110265Y747447D01*
X110374Y747265D01*
X110411Y747229D01*
X110447Y747083D01*
X110484Y746901D01*
X110520Y746645D01*
Y746609D01*
Y746572D01*
X110484Y746317D01*
X110411Y746026D01*
X110265Y745734D01*
X110229Y745698D01*
X110083Y745552D01*
X109864Y745370D01*
X109536Y745224D01*
X110739Y743000D01*
X109791D01*
X108771Y745151D01*
X107750D01*
Y743000D01*
X106984D01*
Y748031D01*
X109171D01*
X109354Y747994D01*
D02*
G37*
G36*
X101371Y747338D02*
X98929D01*
Y745844D01*
X101043D01*
Y745151D01*
X98929D01*
Y743000D01*
X98163D01*
Y748031D01*
X101371D01*
Y747338D01*
D02*
G37*
G36*
X90327D02*
X87848D01*
Y745844D01*
X89962D01*
Y745151D01*
X87848D01*
Y743000D01*
X87083D01*
Y748031D01*
X90327D01*
Y747338D01*
D02*
G37*
G36*
X104324Y748031D02*
X104506Y747994D01*
X104542D01*
X104652Y747958D01*
X104797Y747921D01*
X104943Y747812D01*
X104980Y747775D01*
X105089Y747739D01*
X105308Y747520D01*
X105344Y747484D01*
X105381Y747411D01*
X105526Y747192D01*
X105563Y747119D01*
X105636Y746937D01*
X105672Y746864D01*
X105745Y746682D01*
Y746645D01*
Y746572D01*
Y746427D01*
Y746244D01*
Y746208D01*
X105782Y746062D01*
Y745844D01*
Y745552D01*
Y745515D01*
Y745479D01*
Y745297D01*
Y745042D01*
X105745Y744786D01*
Y744750D01*
Y744641D01*
Y744495D01*
Y744349D01*
Y744313D01*
X105709Y744276D01*
X105636Y744057D01*
X105599Y743985D01*
X105526Y743839D01*
Y743802D01*
X105490Y743729D01*
X105308Y743511D01*
X105271Y743474D01*
X105198Y743438D01*
X105089Y743328D01*
X104943Y743219D01*
X104907D01*
X104834Y743146D01*
X104688Y743110D01*
X104506Y743037D01*
X104469D01*
X104360Y743000D01*
X104178Y742964D01*
X103777D01*
X103595Y743000D01*
X103412Y743037D01*
X103376D01*
X103267Y743073D01*
X102975Y743219D01*
X102938Y743256D01*
X102866Y743328D01*
X102610Y743511D01*
X102574Y743547D01*
X102538Y743620D01*
X102392Y743839D01*
X102355Y743875D01*
X102319Y743948D01*
Y743985D01*
X102282Y744057D01*
Y744094D01*
X102246Y744167D01*
Y744203D01*
Y744240D01*
X102209Y744349D01*
Y744385D01*
Y744458D01*
Y744604D01*
X102173Y744786D01*
Y744823D01*
Y745005D01*
X102137Y745224D01*
Y745552D01*
Y745588D01*
Y745625D01*
Y745807D01*
Y746026D01*
X102173Y746244D01*
Y746281D01*
X102209Y746427D01*
Y746536D01*
Y746682D01*
Y746718D01*
X102246Y746755D01*
X102282Y746937D01*
Y746973D01*
X102319Y747010D01*
X102392Y747192D01*
Y747229D01*
X102465Y747301D01*
X102610Y747520D01*
X102647Y747557D01*
X102720Y747629D01*
X102829Y747739D01*
X102975Y747812D01*
X103011Y747848D01*
X103084Y747885D01*
X103230Y747958D01*
X103412Y747994D01*
X103449D01*
X103595Y748031D01*
X103740Y748067D01*
X104141D01*
X104324Y748031D01*
D02*
G37*
G36*
X66088Y769609D02*
X66124Y769536D01*
X66233Y769427D01*
X66379Y769244D01*
X66525Y769062D01*
X66707Y768807D01*
X66926Y768515D01*
X67145Y768224D01*
X67655Y767495D01*
X68129Y766656D01*
X68639Y765709D01*
X69076Y764725D01*
Y764688D01*
X69113Y764615D01*
X69186Y764469D01*
X69259Y764251D01*
X69332Y763996D01*
X69441Y763704D01*
X69550Y763376D01*
X69660Y762975D01*
X69878Y762137D01*
X70097Y761189D01*
X70243Y760132D01*
X70352Y759038D01*
Y759002D01*
Y758893D01*
Y758747D01*
Y758528D01*
Y758273D01*
Y757945D01*
Y757580D01*
X70316Y757179D01*
X70243Y756305D01*
X70134Y755321D01*
X69915Y754263D01*
X69660Y753170D01*
Y753133D01*
X69623Y753061D01*
X69587Y752878D01*
X69514Y752696D01*
X69405Y752441D01*
X69295Y752149D01*
X69186Y751785D01*
X69040Y751420D01*
X68676Y750618D01*
X68238Y749744D01*
X67728Y748796D01*
X67108Y747885D01*
X67072Y747848D01*
X67035Y747775D01*
X66926Y747666D01*
X66780Y747484D01*
X66634Y747265D01*
X66416Y747010D01*
X65942Y746463D01*
X65322Y745807D01*
X64593Y745115D01*
X63791Y744385D01*
X62880Y743729D01*
X62844D01*
X62771Y743656D01*
X62625Y743584D01*
X62442Y743474D01*
X62224Y743328D01*
X61969Y743146D01*
X61641Y742964D01*
X61313Y742782D01*
X60511Y742381D01*
X59599Y741980D01*
X58615Y741579D01*
X57558Y741251D01*
X57522D01*
X57376Y741214D01*
X57121Y741141D01*
X56829Y741069D01*
X56465Y740996D01*
X56100Y740923D01*
X55225Y740777D01*
X55189D01*
X55043Y740740D01*
X54788D01*
X54496Y740704D01*
X54168Y740668D01*
X53767D01*
X52893Y740631D01*
X52601D01*
X52273Y740668D01*
X51836D01*
X51289Y740704D01*
X50742Y740777D01*
X50122Y740850D01*
X49466Y740959D01*
X49393D01*
X49175Y741032D01*
X48847Y741105D01*
X48409Y741214D01*
X47899Y741360D01*
X47352Y741542D01*
X46149Y741980D01*
X46441Y742745D01*
X46477D01*
X46550Y742709D01*
X46696Y742636D01*
X46915Y742563D01*
X47170Y742454D01*
X47462Y742381D01*
X47790Y742271D01*
X48154Y742162D01*
X48992Y741907D01*
X49940Y741688D01*
X50924Y741542D01*
X51981Y741433D01*
X53731D01*
X54533Y741506D01*
X55481Y741615D01*
X56465Y741761D01*
X57449Y742016D01*
X57485D01*
X57558Y742053D01*
X57704Y742089D01*
X57886Y742162D01*
X58141Y742235D01*
X58397Y742344D01*
X59053Y742599D01*
X59818Y742928D01*
X60656Y743328D01*
X61531Y743839D01*
X62406Y744385D01*
X62442Y744422D01*
X62515Y744458D01*
X62625Y744531D01*
X62807Y744677D01*
X62989Y744823D01*
X63244Y745005D01*
X63791Y745479D01*
X64411Y746062D01*
X65103Y746718D01*
X65796Y747484D01*
X66452Y748358D01*
X66488Y748395D01*
X66525Y748468D01*
X66634Y748614D01*
X66744Y748760D01*
X66889Y748978D01*
X67035Y749270D01*
X67217Y749561D01*
X67400Y749889D01*
X67801Y750655D01*
X68238Y751530D01*
X68603Y752441D01*
X68931Y753462D01*
Y753498D01*
X68967Y753571D01*
X69003Y753717D01*
X69040Y753935D01*
X69113Y754190D01*
X69186Y754482D01*
X69259Y754810D01*
X69332Y755175D01*
X69441Y755977D01*
X69550Y756924D01*
X69587Y757872D01*
Y758893D01*
Y758929D01*
Y759002D01*
Y759148D01*
X69550Y759366D01*
X69514Y759622D01*
Y759913D01*
X69441Y760241D01*
X69405Y760606D01*
X69259Y761408D01*
X69040Y762319D01*
X68785Y763303D01*
X68420Y764287D01*
Y764324D01*
X68384Y764396D01*
X68311Y764542D01*
X68238Y764725D01*
X68129Y764980D01*
X67983Y765235D01*
X67655Y765891D01*
X67254Y766620D01*
X66744Y767422D01*
X66124Y768260D01*
X65431Y769099D01*
X66051Y769645D01*
X66088Y769609D01*
D02*
G37*
G36*
X69076Y777482D02*
X69113Y777373D01*
X69149Y777336D01*
X69186Y777300D01*
X69149Y777263D01*
X69113Y777227D01*
X69003Y777118D01*
X68894Y776972D01*
X68530Y776571D01*
X68056Y776060D01*
X67509Y775441D01*
X66926Y774748D01*
X66270Y774019D01*
X65577Y773254D01*
X65541Y773217D01*
X65504Y773181D01*
X65395Y773072D01*
X65286Y772926D01*
X64921Y772525D01*
X64447Y772015D01*
X63937Y771395D01*
X63317Y770702D01*
X62661Y769973D01*
X62005Y769208D01*
X61969Y769171D01*
X61932Y769135D01*
X61823Y769026D01*
X61713Y768880D01*
X61349Y768479D01*
X60875Y767969D01*
X60328Y767349D01*
X59709Y766656D01*
X59053Y765927D01*
X58360Y765162D01*
X58324Y765126D01*
X58287Y765089D01*
X58178Y764980D01*
X58069Y764834D01*
X57704Y764433D01*
X57230Y763923D01*
X56683Y763303D01*
X56064Y762610D01*
X55408Y761881D01*
X54715Y761116D01*
X54752D01*
X54825Y761080D01*
X54934Y761043D01*
X55080Y761007D01*
X55262Y760970D01*
X55517Y760897D01*
X56064Y760751D01*
X56720Y760569D01*
X57412Y760387D01*
X58178Y760168D01*
X58980Y759950D01*
X59016D01*
X59089Y759913D01*
X59198D01*
X59344Y759840D01*
X59526Y759804D01*
X59782Y759731D01*
X60328Y759622D01*
X60948Y759439D01*
X61677Y759257D01*
X62479Y759038D01*
X63281Y758820D01*
X63244Y758783D01*
X63099Y758674D01*
X62916Y758565D01*
X62734Y758419D01*
X62698Y758382D01*
X62588Y758309D01*
X62442Y758164D01*
X62260Y758018D01*
X62224Y757981D01*
X62115Y757908D01*
X61932Y757763D01*
X61713Y757617D01*
X61422Y757398D01*
X61057Y757143D01*
X60656Y756851D01*
X60219Y756523D01*
X59745Y756159D01*
X59235Y755794D01*
X58141Y754956D01*
X56975Y754081D01*
X55772Y753170D01*
X55736Y753133D01*
X55626Y753061D01*
X55444Y752915D01*
X55225Y752769D01*
X54934Y752550D01*
X54606Y752295D01*
X54205Y752003D01*
X53767Y751676D01*
X53330Y751311D01*
X52820Y750947D01*
X51726Y750108D01*
X50560Y749233D01*
X49357Y748322D01*
X49321Y748286D01*
X49211Y748213D01*
X49029Y748103D01*
X48810Y747921D01*
X48519Y747702D01*
X48191Y747447D01*
X47790Y747156D01*
X47352Y746828D01*
X46878Y746463D01*
X46368Y746099D01*
X45311Y745297D01*
X44145Y744422D01*
X42942Y743511D01*
X42905Y743474D01*
X42796Y743401D01*
X42614Y743256D01*
X42395Y743110D01*
X42103Y742891D01*
X41739Y742599D01*
X41374Y742308D01*
X40937Y741980D01*
X40463Y741652D01*
X39953Y741251D01*
X38859Y740449D01*
X37693Y739574D01*
X36490Y738699D01*
X36454Y738663D01*
X36381Y738590D01*
X36235Y738444D01*
X36053Y738298D01*
X36016Y738262D01*
X35907Y738225D01*
X35798Y738189D01*
X35761Y738225D01*
X35725Y738262D01*
Y738298D01*
X35688Y738408D01*
X35725Y738517D01*
X35871Y738663D01*
X35907Y738699D01*
X36053Y738772D01*
X36162Y738881D01*
X36308Y738991D01*
Y739027D01*
X36381Y739064D01*
X36563Y739246D01*
X36855Y739574D01*
X37219Y739975D01*
X37657Y740449D01*
X38167Y740996D01*
X38714Y741579D01*
X39260Y742162D01*
Y742199D01*
X39333Y742235D01*
X39516Y742417D01*
X39807Y742745D01*
X40172Y743146D01*
X40609Y743620D01*
X41119Y744130D01*
X41630Y744713D01*
X42176Y745297D01*
Y745333D01*
X42249Y745370D01*
X42432Y745552D01*
X42723Y745880D01*
X43088Y746281D01*
X43525Y746755D01*
X44035Y747301D01*
X44582Y747885D01*
X45129Y748468D01*
Y748504D01*
X45202Y748541D01*
X45384Y748723D01*
X45676Y749051D01*
X46040Y749452D01*
X46477Y749926D01*
X46988Y750436D01*
X47534Y751019D01*
X48081Y751603D01*
X48118Y751639D01*
X48191Y751712D01*
X48300Y751821D01*
X48446Y752003D01*
X48774Y752368D01*
X49211Y752805D01*
X49248Y752842D01*
X49321Y752915D01*
X49430Y753024D01*
X49576Y753206D01*
X49940Y753644D01*
X50341Y754154D01*
X50305D01*
X50268Y754190D01*
X50050Y754263D01*
X49685Y754373D01*
X49248Y754519D01*
X48701Y754701D01*
X48118Y754919D01*
X47498Y755102D01*
X46842Y755321D01*
X46806D01*
X46769Y755357D01*
X46550Y755430D01*
X46222Y755539D01*
X45748Y755685D01*
X45238Y755867D01*
X44655Y756086D01*
X43999Y756305D01*
X43343Y756523D01*
X43379Y756560D01*
X43488Y756633D01*
X43671Y756778D01*
X43889Y756997D01*
X44181Y757216D01*
X44546Y757508D01*
X44947Y757835D01*
X45384Y758200D01*
X45858Y758565D01*
X46368Y759002D01*
X47462Y759877D01*
X48628Y760824D01*
X49831Y761809D01*
X49867Y761845D01*
X49977Y761918D01*
X50159Y762064D01*
X50378Y762246D01*
X50669Y762501D01*
X51034Y762756D01*
X51435Y763084D01*
X51872Y763449D01*
X52309Y763813D01*
X52820Y764214D01*
X53913Y765089D01*
X55080Y766037D01*
X56283Y767021D01*
X56319Y767057D01*
X56428Y767130D01*
X56611Y767276D01*
X56829Y767495D01*
X57121Y767713D01*
X57449Y768005D01*
X57850Y768333D01*
X58287Y768698D01*
X58761Y769062D01*
X59235Y769499D01*
X60328Y770374D01*
X61495Y771322D01*
X62661Y772306D01*
X62698Y772343D01*
X62807Y772415D01*
X62989Y772561D01*
X63208Y772744D01*
X63500Y772999D01*
X63864Y773254D01*
X64229Y773582D01*
X64666Y773946D01*
X65140Y774311D01*
X65650Y774712D01*
X66707Y775587D01*
X67874Y776534D01*
X69076Y777519D01*
Y777482D01*
D02*
G37*
G36*
X85241Y17493D02*
X85416Y17482D01*
X85569Y17460D01*
X85689Y17438D01*
X85776Y17417D01*
X85831Y17406D01*
X85853Y17395D01*
X86017Y17351D01*
X86159Y17296D01*
X86301Y17231D01*
X86410Y17176D01*
X86498Y17121D01*
X86574Y17078D01*
X86618Y17045D01*
X86629Y17034D01*
X86727Y16925D01*
X86815Y16804D01*
X86880Y16684D01*
X86924Y16575D01*
X86957Y16466D01*
X86990Y16378D01*
X87001Y16324D01*
Y16313D01*
Y16302D01*
X87023Y16116D01*
Y15919D01*
X87011Y15733D01*
X86990Y15548D01*
X86957Y15384D01*
X86935Y15263D01*
X86924Y15209D01*
Y15176D01*
X86913Y15154D01*
Y15143D01*
X85667Y10192D01*
X85580Y9951D01*
X85470Y9733D01*
X85339Y9536D01*
X85197Y9372D01*
X85066Y9241D01*
X84957Y9143D01*
X84913Y9110D01*
X84891Y9088D01*
X84869Y9077D01*
X84858Y9066D01*
X84618Y8913D01*
X84377Y8804D01*
X84137Y8727D01*
X83929Y8673D01*
X83743Y8640D01*
X83667Y8629D01*
X83601D01*
X83547Y8618D01*
X82038D01*
X83470Y14334D01*
X83514Y14520D01*
X83525Y14673D01*
Y14804D01*
X83514Y14914D01*
X83492Y14990D01*
X83470Y15056D01*
X83459Y15089D01*
X83448Y15099D01*
X83383Y15187D01*
X83284Y15242D01*
X83186Y15285D01*
X83077Y15318D01*
X82978Y15340D01*
X82902Y15351D01*
X82825D01*
X82651Y15340D01*
X82497Y15307D01*
X82355Y15274D01*
X82246Y15231D01*
X82148Y15176D01*
X82082Y15143D01*
X82038Y15110D01*
X82027Y15099D01*
X81918Y14990D01*
X81831Y14870D01*
X81754Y14750D01*
X81700Y14618D01*
X81645Y14509D01*
X81612Y14422D01*
X81601Y14356D01*
X81590Y14345D01*
Y14334D01*
X80158Y8618D01*
X76934D01*
X78355Y14323D01*
X78399Y14509D01*
X78421Y14662D01*
Y14804D01*
X78410Y14914D01*
X78388Y14990D01*
X78366Y15056D01*
X78355Y15089D01*
X78344Y15099D01*
X78268Y15187D01*
X78180Y15242D01*
X78071Y15285D01*
X77961Y15318D01*
X77863Y15340D01*
X77787Y15351D01*
X77710D01*
X77546Y15340D01*
X77393Y15307D01*
X77262Y15274D01*
X77153Y15231D01*
X77065Y15176D01*
X77000Y15143D01*
X76956Y15110D01*
X76945Y15099D01*
X76836Y14990D01*
X76748Y14870D01*
X76672Y14750D01*
X76617Y14618D01*
X76573Y14509D01*
X76541Y14422D01*
X76530Y14356D01*
X76519Y14345D01*
Y14334D01*
X75076Y8618D01*
X71852D01*
X74016Y17275D01*
X77273D01*
X77021Y16225D01*
X77054D01*
X77251Y16455D01*
X77448Y16651D01*
X77655Y16815D01*
X77841Y16947D01*
X78005Y17056D01*
X78071Y17100D01*
X78125Y17132D01*
X78180Y17154D01*
X78213Y17176D01*
X78235Y17187D01*
X78246D01*
X78508Y17296D01*
X78781Y17373D01*
X79044Y17438D01*
X79295Y17471D01*
X79404Y17493D01*
X79503D01*
X79590Y17504D01*
X79667Y17515D01*
X80005D01*
X80180Y17504D01*
X80333Y17493D01*
X80464Y17471D01*
X80574Y17460D01*
X80650Y17438D01*
X80694Y17427D01*
X80716D01*
X80858Y17395D01*
X80978Y17362D01*
X81087Y17318D01*
X81186Y17275D01*
X81262Y17242D01*
X81317Y17209D01*
X81350Y17198D01*
X81361Y17187D01*
X81448Y17121D01*
X81525Y17045D01*
X81601Y16979D01*
X81656Y16914D01*
X81700Y16848D01*
X81732Y16804D01*
X81743Y16772D01*
X81754Y16761D01*
X81853Y16564D01*
X81896Y16466D01*
X81929Y16367D01*
X81951Y16291D01*
X81973Y16225D01*
X81984Y16182D01*
Y16171D01*
X82093Y16302D01*
X82202Y16422D01*
X82301Y16531D01*
X82399Y16630D01*
X82486Y16706D01*
X82552Y16761D01*
X82596Y16794D01*
X82607Y16804D01*
X82738Y16903D01*
X82869Y16979D01*
X82989Y17045D01*
X83099Y17110D01*
X83197Y17154D01*
X83274Y17187D01*
X83317Y17198D01*
X83339Y17209D01*
X83612Y17307D01*
X83732Y17351D01*
X83853Y17384D01*
X83940Y17406D01*
X84017Y17427D01*
X84071Y17438D01*
X84082D01*
X84355Y17482D01*
X84487Y17493D01*
X84607Y17504D01*
X84705Y17515D01*
X85055D01*
X85241Y17493D01*
D02*
G37*
G36*
X70256Y8607D02*
X67042D01*
X67294Y9645D01*
X67250D01*
X67053Y9427D01*
X66857Y9241D01*
X66660Y9077D01*
X66474Y8946D01*
X66310Y8847D01*
X66245Y8804D01*
X66190Y8771D01*
X66135Y8749D01*
X66102Y8727D01*
X66081Y8716D01*
X66070D01*
X65807Y8607D01*
X65545Y8530D01*
X65283Y8476D01*
X65042Y8443D01*
X64933Y8421D01*
X64835D01*
X64736Y8410D01*
X64671Y8399D01*
X64310D01*
X64124Y8410D01*
X63949Y8432D01*
X63807Y8454D01*
X63687Y8476D01*
X63599Y8487D01*
X63545Y8509D01*
X63523D01*
X63370Y8563D01*
X63228Y8618D01*
X63108Y8683D01*
X62998Y8749D01*
X62922Y8804D01*
X62856Y8847D01*
X62813Y8880D01*
X62802Y8891D01*
X62692Y8990D01*
X62594Y9099D01*
X62528Y9208D01*
X62474Y9317D01*
X62430Y9427D01*
X62408Y9503D01*
X62386Y9558D01*
Y9580D01*
X62364Y9766D01*
Y9951D01*
X62375Y10137D01*
X62397Y10323D01*
X62430Y10476D01*
X62452Y10607D01*
X62463Y10651D01*
Y10684D01*
X62474Y10706D01*
Y10717D01*
X64113Y17275D01*
X67338D01*
X65906Y11547D01*
X65873Y11361D01*
X65851Y11208D01*
Y11077D01*
X65873Y10968D01*
X65884Y10880D01*
X65906Y10826D01*
X65917Y10782D01*
X65927Y10771D01*
X66004Y10684D01*
X66092Y10618D01*
X66190Y10574D01*
X66299Y10542D01*
X66387Y10520D01*
X66463Y10509D01*
X66540D01*
X66715Y10520D01*
X66868Y10553D01*
X66999Y10596D01*
X67108Y10640D01*
X67195Y10684D01*
X67261Y10727D01*
X67305Y10760D01*
X67316Y10771D01*
X67425Y10880D01*
X67512Y11001D01*
X67589Y11132D01*
X67655Y11263D01*
X67698Y11372D01*
X67731Y11460D01*
X67742Y11525D01*
X67753Y11536D01*
Y11547D01*
X69196Y17275D01*
X72420D01*
X70256Y8607D01*
D02*
G37*
G36*
X60474Y8607D02*
X57249D01*
X59413Y17275D01*
X62649D01*
X60474Y8607D01*
D02*
G37*
G36*
X49937D02*
X46702D01*
X49576Y20040D01*
X52801D01*
X49937Y8607D01*
D02*
G37*
G36*
X46024D02*
X42297D01*
X42406Y10596D01*
X39630D01*
X38756Y8618D01*
X35039Y8607D01*
X39947Y17766D01*
X40056Y17952D01*
X40176Y18116D01*
X40297Y18280D01*
X40395Y18411D01*
X40493Y18520D01*
X40559Y18608D01*
X40603Y18652D01*
X40625Y18674D01*
X40778Y18826D01*
X40931Y18958D01*
X41073Y19078D01*
X41204Y19187D01*
X41324Y19264D01*
X41412Y19329D01*
X41466Y19373D01*
X41488Y19384D01*
X41674Y19493D01*
X41849Y19581D01*
X42024Y19668D01*
X42188Y19734D01*
X42319Y19788D01*
X42428Y19821D01*
X42461Y19832D01*
X42494Y19843D01*
X42505Y19854D01*
X42516D01*
X42723Y19909D01*
X42931Y19952D01*
X43128Y19985D01*
X43302Y20007D01*
X43455Y20029D01*
X43576D01*
X43619Y20040D01*
X45598D01*
X46024Y8607D01*
D02*
G37*
G36*
X56867Y17275D02*
X58222D01*
X57741Y15329D01*
X56386D01*
X55358Y11208D01*
X55336Y11088D01*
Y10979D01*
Y10891D01*
X55358Y10815D01*
X55380Y10760D01*
X55402Y10717D01*
X55413Y10695D01*
X55424Y10684D01*
X55500Y10629D01*
X55577Y10585D01*
X55675Y10564D01*
X55774Y10542D01*
X55861Y10531D01*
X56539D01*
X56058Y8607D01*
X55872Y8596D01*
X55697Y8585D01*
X55544Y8574D01*
X55402Y8563D01*
X55282D01*
X55183Y8552D01*
X55107D01*
X54943Y8541D01*
X54626D01*
X54495Y8530D01*
X53959D01*
X53719Y8541D01*
X53511Y8552D01*
X53325Y8574D01*
X53183Y8585D01*
X53074Y8607D01*
X53008Y8618D01*
X52986D01*
X52811Y8662D01*
X52658Y8705D01*
X52527Y8760D01*
X52418Y8804D01*
X52331Y8847D01*
X52276Y8880D01*
X52232Y8902D01*
X52221Y8913D01*
X52123Y9001D01*
X52047Y9099D01*
X51981Y9208D01*
X51937Y9307D01*
X51904Y9405D01*
X51882Y9481D01*
X51872Y9536D01*
Y9558D01*
X51861Y9733D01*
X51872Y9929D01*
X51893Y10115D01*
X51926Y10301D01*
X51948Y10465D01*
X51981Y10585D01*
X51992Y10640D01*
Y10673D01*
X52003Y10695D01*
Y10706D01*
X54331Y19919D01*
X57566D01*
X56867Y17275D01*
D02*
G37*
%LPC*%
G36*
X166690Y762902D02*
X166471D01*
X166216Y762866D01*
X165924Y762793D01*
X165560Y762720D01*
X165232Y762574D01*
X164903Y762392D01*
X164612Y762137D01*
X164575Y762100D01*
X164503Y761991D01*
X164393Y761809D01*
X164284Y761553D01*
X164138Y761225D01*
X164029Y760861D01*
X163956Y760387D01*
X163919Y759840D01*
Y759767D01*
Y759585D01*
X163956Y759330D01*
X163992Y758965D01*
X164102Y758601D01*
X164211Y758200D01*
X164393Y757835D01*
X164612Y757508D01*
X164648Y757471D01*
X164758Y757398D01*
X164903Y757252D01*
X165122Y757106D01*
X165414Y756961D01*
X165778Y756815D01*
X166216Y756742D01*
X166690Y756706D01*
X166908D01*
X167163Y756742D01*
X167455Y756815D01*
X167783Y756888D01*
X168111Y757034D01*
X168439Y757252D01*
X168694Y757508D01*
X168731Y757544D01*
X168804Y757653D01*
X168913Y757835D01*
X169059Y758091D01*
X169168Y758419D01*
X169278Y758820D01*
X169350Y759294D01*
X169387Y759840D01*
Y759913D01*
Y760095D01*
X169350Y760351D01*
X169314Y760715D01*
X169205Y761080D01*
X169095Y761444D01*
X168913Y761809D01*
X168694Y762137D01*
X168658Y762173D01*
X168585Y762246D01*
X168403Y762392D01*
X168184Y762538D01*
X167929Y762647D01*
X167564Y762793D01*
X167163Y762866D01*
X166690Y762902D01*
D02*
G37*
G36*
X172157Y747374D02*
X170736D01*
Y745844D01*
X172048D01*
X172266Y745880D01*
X172303D01*
X172376Y745916D01*
X172558Y746062D01*
X172594Y746099D01*
X172631Y746135D01*
X172704Y746317D01*
Y746354D01*
X172740Y746427D01*
Y746645D01*
Y746682D01*
Y746755D01*
X172667Y746973D01*
Y747010D01*
X172631Y747046D01*
X172521Y747229D01*
X172485D01*
X172449Y747265D01*
X172230Y747338D01*
X172194D01*
X172157Y747374D01*
D02*
G37*
G36*
X139389Y747010D02*
X138660Y744786D01*
X140118D01*
X139389Y747010D01*
D02*
G37*
G36*
X128235D02*
X127469Y744786D01*
X128964D01*
X128235Y747010D01*
D02*
G37*
G36*
X109208Y747374D02*
X107750D01*
Y745844D01*
X109062D01*
X109317Y745880D01*
X109354D01*
X109427Y745916D01*
X109500Y745989D01*
X109572Y746062D01*
X109609Y746099D01*
X109645Y746135D01*
X109718Y746317D01*
Y746354D01*
X109755Y746427D01*
X109791Y746645D01*
Y746682D01*
Y746755D01*
X109718Y746973D01*
Y747010D01*
X109682Y747046D01*
X109645Y747156D01*
X109536Y747229D01*
X109463Y747265D01*
X109390Y747301D01*
X109281Y747338D01*
X109244D01*
X109208Y747374D01*
D02*
G37*
G36*
X103959Y747338D02*
X103886Y747301D01*
X103704Y747265D01*
X103631D01*
X103485Y747229D01*
X103412Y747192D01*
X103303Y747083D01*
X103267Y747046D01*
X103194Y746973D01*
X103157Y746901D01*
X103048Y746755D01*
X103011Y746682D01*
X102975Y746536D01*
Y746500D01*
Y746463D01*
Y746317D01*
X102938Y746135D01*
Y746099D01*
Y745953D01*
Y745771D01*
Y745552D01*
Y745479D01*
Y745333D01*
Y745115D01*
Y744896D01*
Y744859D01*
X102975Y744750D01*
Y744604D01*
Y744495D01*
X103011Y744422D01*
X103048Y744276D01*
X103084Y744203D01*
X103194Y744057D01*
X103230Y744021D01*
X103303Y743912D01*
X103339Y743875D01*
X103485Y743839D01*
X103558Y743802D01*
X103704Y743729D01*
X104251D01*
X104287Y743766D01*
X104433Y743839D01*
X104469D01*
X104506Y743875D01*
X104615Y743912D01*
X104652Y743948D01*
X104725Y744057D01*
Y744094D01*
X104761Y744130D01*
X104834Y744276D01*
Y744313D01*
X104870Y744349D01*
X104943Y744495D01*
Y744531D01*
Y744604D01*
Y744713D01*
Y744896D01*
Y744932D01*
X104980Y745078D01*
Y745297D01*
Y745552D01*
Y745625D01*
Y745734D01*
Y745953D01*
X104943Y746135D01*
Y746172D01*
Y746281D01*
Y746427D01*
Y746536D01*
Y746572D01*
X104907Y746609D01*
X104834Y746755D01*
Y746791D01*
X104797Y746828D01*
X104725Y746973D01*
X104688Y747010D01*
X104615Y747083D01*
X104579Y747119D01*
X104433Y747229D01*
X104396Y747265D01*
X104214D01*
X104141Y747301D01*
X103959Y747338D01*
D02*
G37*
G36*
X42800Y17548D02*
X40592Y12782D01*
X42526D01*
X42800Y17548D01*
D02*
G37*
%LPD*%
D10*
X669685Y763853D02*
Y755981D01*
X673621D01*
X674933Y757293D01*
Y762541D01*
X673621Y763853D01*
X669685D01*
X677557Y755981D02*
Y761229D01*
X680180Y763853D01*
X682804Y761229D01*
Y755981D01*
Y759917D01*
X677557D01*
X690676Y762541D02*
X689364Y763853D01*
X686740D01*
X685428Y762541D01*
Y761229D01*
X686740Y759917D01*
X689364D01*
X690676Y758605D01*
Y757293D01*
X689364Y755981D01*
X686740D01*
X685428Y757293D01*
X693299Y763853D02*
Y755981D01*
Y759917D01*
X698547D01*
Y763853D01*
Y755981D01*
X701171Y763853D02*
Y755981D01*
X705107D01*
X706419Y757293D01*
Y758605D01*
X705107Y759917D01*
X701171D01*
X705107D01*
X706419Y761229D01*
Y762541D01*
X705107Y763853D01*
X701171D01*
X712978D02*
X710354D01*
X709042Y762541D01*
Y757293D01*
X710354Y755981D01*
X712978D01*
X714290Y757293D01*
Y762541D01*
X712978Y763853D01*
X716914Y755981D02*
Y761229D01*
X719538Y763853D01*
X722162Y761229D01*
Y755981D01*
Y759917D01*
X716914D01*
X724785Y755981D02*
Y763853D01*
X728721D01*
X730033Y762541D01*
Y759917D01*
X728721Y758605D01*
X724785D01*
X727409D02*
X730033Y755981D01*
X732657Y763853D02*
Y755981D01*
X736593D01*
X737905Y757293D01*
Y762541D01*
X736593Y763853D01*
X732657D01*
X669685Y743701D02*
Y751572D01*
X673621D01*
X674933Y750260D01*
Y747637D01*
X673621Y746325D01*
X669685D01*
X672309D02*
X674933Y743701D01*
X682804Y751572D02*
X677557D01*
Y743701D01*
X682804D01*
X677557Y747637D02*
X680180D01*
X685428Y751572D02*
Y746325D01*
X688052Y743701D01*
X690676Y746325D01*
Y751572D01*
X693299Y750260D02*
X694611Y751572D01*
X697235D01*
X698547Y750260D01*
Y745013D01*
X697235Y743701D01*
X694611D01*
X693299Y745013D01*
Y750260D01*
D11*
X607962Y188333D02*
Y183335D01*
X608962Y182335D01*
X610961D01*
X611961Y183335D01*
Y188333D01*
X613960D02*
X617959D01*
Y187334D01*
X613960Y183335D01*
Y182335D01*
X546391Y698572D02*
Y693574D01*
X547391Y692574D01*
X549391D01*
X550390Y693574D01*
Y698572D01*
X556388D02*
X554389Y697572D01*
X552389Y695573D01*
Y693574D01*
X553389Y692574D01*
X555388D01*
X556388Y693574D01*
Y694573D01*
X555388Y695573D01*
X552389D01*
X331383Y698631D02*
Y693633D01*
X332382Y692633D01*
X334382D01*
X335382Y693633D01*
Y698631D01*
X340380Y692633D02*
Y698631D01*
X337381Y695632D01*
X341379D01*
X116560Y698336D02*
Y693337D01*
X117560Y692338D01*
X119559D01*
X120559Y693337D01*
Y698336D01*
X122558Y697336D02*
X123558Y698336D01*
X125557D01*
X126557Y697336D01*
Y696337D01*
X125557Y695337D01*
X124558D01*
X125557D01*
X126557Y694337D01*
Y693337D01*
X125557Y692338D01*
X123558D01*
X122558Y693337D01*
X304846Y274560D02*
Y269562D01*
X305845Y268562D01*
X307845D01*
X308844Y269562D01*
Y274560D01*
X310844Y269562D02*
X311843Y268562D01*
X313843D01*
X314842Y269562D01*
Y273561D01*
X313843Y274560D01*
X311843D01*
X310844Y273561D01*
Y272561D01*
X311843Y271561D01*
X314842D01*
D12*
X611909Y131791D02*
Y156398D01*
X670768Y131693D02*
Y156496D01*
X611909Y179134D02*
X670768D01*
X611909Y167224D02*
Y179134D01*
X670768Y167224D02*
Y179134D01*
X566732Y411614D02*
G03*
X566732Y411614I-1969J0D01*
G01*
X400984Y412795D02*
G03*
X400984Y412795I-1969J0D01*
G01*
X242323Y414764D02*
G03*
X242323Y414764I-1969J0D01*
G01*
X246457Y230709D02*
G03*
X246457Y230709I-1969J0D01*
G01*
X647638Y481595D02*
Y490059D01*
X653150Y481595D02*
Y490059D01*
X647638D02*
X653150D01*
X647638Y481595D02*
X653150D01*
X627953D02*
Y490059D01*
X633465Y481595D02*
Y490059D01*
X627953D02*
X633465D01*
X627953Y481595D02*
X633465D01*
X608661D02*
Y490059D01*
X614173Y481595D02*
Y490059D01*
X608661D02*
X614173D01*
X608661Y481595D02*
X614173D01*
X588189D02*
Y490059D01*
X593701Y481595D02*
Y490059D01*
X588189D02*
X593701D01*
X588189Y481595D02*
X593701D01*
X568504D02*
Y490059D01*
X574016Y481595D02*
Y490059D01*
X568504D02*
X574016D01*
X568504Y481595D02*
X574016D01*
X546850Y481201D02*
Y489665D01*
X552362Y481201D02*
Y489665D01*
X546850D02*
X552362D01*
X546850Y481201D02*
X552362D01*
X668898Y481595D02*
Y490059D01*
X674409Y481595D02*
Y490059D01*
X668898D02*
X674409D01*
X668898Y481595D02*
X674409D01*
X548228Y408071D02*
X568307D01*
X548228Y425787D02*
X568307D01*
Y408071D02*
Y425787D01*
X548228Y408071D02*
Y425787D01*
X372047Y481201D02*
Y489665D01*
X377559Y481201D02*
Y489665D01*
X372047D02*
X377559D01*
X372047Y481201D02*
X377559D01*
X392126D02*
Y489665D01*
X397638Y481201D02*
Y489665D01*
X392126D02*
X397638D01*
X392126Y481201D02*
X397638D01*
X411811D02*
Y489665D01*
X417323Y481201D02*
Y489665D01*
X411811D02*
X417323D01*
X411811Y481201D02*
X417323D01*
X351969D02*
Y489665D01*
X357480Y481201D02*
Y489665D01*
X351969D02*
X357480D01*
X351969Y481201D02*
X357480D01*
X331496D02*
Y489665D01*
X337008Y481201D02*
Y489665D01*
X331496D02*
X337008D01*
X331496Y481201D02*
X337008D01*
X432283Y481299D02*
Y489764D01*
X437795Y481299D02*
Y489764D01*
X432283D02*
X437795D01*
X432283Y481299D02*
X437795D01*
X453937Y481201D02*
Y489665D01*
X459449Y481201D02*
Y489665D01*
X453937D02*
X459449D01*
X453937Y481201D02*
X459449D01*
X382480Y409252D02*
X402559D01*
X382480Y426968D02*
X402559D01*
Y409252D02*
Y426968D01*
X382480Y409252D02*
Y426968D01*
X223819Y411221D02*
X243898D01*
X223819Y428937D02*
X243898D01*
Y411221D02*
Y428937D01*
X223819Y411221D02*
Y428937D01*
X117323Y481201D02*
Y489665D01*
X122835Y481201D02*
Y489665D01*
X117323D02*
X122835D01*
X117323Y481201D02*
X122835D01*
X137402D02*
Y489665D01*
X142913Y481201D02*
Y489665D01*
X137402D02*
X142913D01*
X137402Y481201D02*
X142913D01*
X157480D02*
Y489665D01*
X162992Y481201D02*
Y489665D01*
X157480D02*
X162992D01*
X157480Y481201D02*
X162992D01*
X178347D02*
Y489665D01*
X183858Y481201D02*
Y489665D01*
X178347D02*
X183858D01*
X178347Y481201D02*
X183858D01*
X200000D02*
Y489665D01*
X205512Y481201D02*
Y489665D01*
X200000D02*
X205512D01*
X200000Y481201D02*
X205512D01*
X219685D02*
Y489665D01*
X225197Y481201D02*
Y489665D01*
X219685D02*
X225197D01*
X219685Y481201D02*
X225197D01*
X239370D02*
X244882D01*
X239370Y489665D02*
X244882D01*
Y481201D02*
Y489665D01*
X239370Y481201D02*
Y489665D01*
X277067Y242618D02*
Y249508D01*
X273327Y242618D02*
Y249508D01*
Y242618D02*
X277067D01*
X273327Y249508D02*
X277067D01*
X282874Y242717D02*
X286417D01*
X282874Y249410D02*
X286417D01*
Y242717D02*
Y249410D01*
X282874Y242717D02*
Y249410D01*
X182087Y221457D02*
X185630D01*
X182087Y228150D02*
X185630D01*
Y221457D02*
Y228150D01*
X182087Y221457D02*
Y228150D01*
X216339Y231693D02*
X219882D01*
X216339Y238386D02*
X219882D01*
Y231693D02*
Y238386D01*
X216339Y231693D02*
Y238386D01*
X191732Y220866D02*
X195669D01*
X191732Y227953D02*
X195669D01*
Y220866D02*
Y227953D01*
X191732Y220866D02*
Y227953D01*
X232283Y214567D02*
X248031D01*
X232283Y234252D02*
X248031D01*
X232283Y214567D02*
Y234252D01*
X248031Y214567D02*
Y234252D01*
X648425Y485827D02*
X652362D01*
X650394Y483858D02*
Y487795D01*
X628740Y485827D02*
X632677D01*
X630709Y483858D02*
Y487795D01*
X609449Y485827D02*
X613386D01*
X611417Y483858D02*
Y487795D01*
X588976Y485827D02*
X592913D01*
X590945Y483858D02*
Y487795D01*
X569291Y485827D02*
X573228D01*
X571260Y483858D02*
Y487795D01*
X547638Y485433D02*
X551575D01*
X549606Y483465D02*
Y487402D01*
X669685Y485827D02*
X673622D01*
X671654Y483858D02*
Y487795D01*
X558268Y414961D02*
Y418898D01*
X556299Y416929D02*
X560236D01*
X372835Y485433D02*
X376772D01*
X374803Y483465D02*
Y487402D01*
X392913Y485433D02*
X396850D01*
X394882Y483465D02*
Y487402D01*
X412598Y485433D02*
X416535D01*
X414567Y483465D02*
Y487402D01*
X352756Y485433D02*
X356693D01*
X354724Y483465D02*
Y487402D01*
X332283Y485433D02*
X336221D01*
X334252Y483465D02*
Y487402D01*
X433071Y485532D02*
X437008D01*
X435039Y483563D02*
Y487500D01*
X454724Y485433D02*
X458661D01*
X456693Y483465D02*
Y487402D01*
X392520Y416142D02*
Y420079D01*
X390551Y418110D02*
X394488D01*
X233858D02*
Y422047D01*
X231890Y420079D02*
X235827D01*
X118110Y485433D02*
X122047D01*
X120079Y483465D02*
Y487402D01*
X138189Y485433D02*
X142126D01*
X140157Y483465D02*
Y487402D01*
X158268Y485433D02*
X162205D01*
X160236Y483465D02*
Y487402D01*
X179134Y485433D02*
X183071D01*
X181102Y483465D02*
Y487402D01*
X200787Y485433D02*
X204724D01*
X202756Y483465D02*
Y487402D01*
X220472Y485433D02*
X224410D01*
X222441Y483465D02*
Y487402D01*
X242126Y483465D02*
Y487402D01*
X240158Y485433D02*
X244094D01*
X273327Y246063D02*
X277067D01*
X275197Y244193D02*
Y247933D01*
X284646Y244291D02*
Y247835D01*
X282874Y246063D02*
X286417D01*
X183858Y223031D02*
Y226575D01*
X182087Y224803D02*
X185630D01*
X218110Y233268D02*
Y236811D01*
X216339Y235039D02*
X219882D01*
X193701Y222441D02*
Y226378D01*
X191732Y224410D02*
X195669D01*
X240158Y222441D02*
Y226378D01*
X238189Y224410D02*
X242126D01*
D13*
X650591Y140256D02*
D03*
D14*
X646654Y479134D02*
Y492520D01*
X654134Y479134D02*
Y492520D01*
X646654D02*
X654134D01*
X646654Y479134D02*
X654134D01*
X626968D02*
Y492520D01*
X634449Y479134D02*
Y492520D01*
X626968D02*
X634449D01*
X626968Y479134D02*
X634449D01*
X607677D02*
Y492520D01*
X615158Y479134D02*
Y492520D01*
X607677D02*
X615158D01*
X607677Y479134D02*
X615158D01*
X587205D02*
Y492520D01*
X594685Y479134D02*
Y492520D01*
X587205D02*
X594685D01*
X587205Y479134D02*
X594685D01*
X567520D02*
Y492520D01*
X575000Y479134D02*
Y492520D01*
X567520D02*
X575000D01*
X567520Y479134D02*
X575000D01*
X545866Y478740D02*
Y492126D01*
X553346Y478740D02*
Y492126D01*
X545866D02*
X553346D01*
X545866Y478740D02*
X553346D01*
X667913Y479134D02*
Y492520D01*
X675394Y479134D02*
Y492520D01*
X667913D02*
X675394D01*
X667913Y479134D02*
X675394D01*
X547244Y401575D02*
X569291D01*
X547244Y432283D02*
X569291D01*
Y401575D02*
Y432283D01*
X547244Y401575D02*
Y432283D01*
X371063Y478740D02*
Y492126D01*
X378543Y478740D02*
Y492126D01*
X371063D02*
X378543D01*
X371063Y478740D02*
X378543D01*
X391142D02*
Y492126D01*
X398622Y478740D02*
Y492126D01*
X391142D02*
X398622D01*
X391142Y478740D02*
X398622D01*
X410827D02*
Y492126D01*
X418307Y478740D02*
Y492126D01*
X410827D02*
X418307D01*
X410827Y478740D02*
X418307D01*
X350984D02*
Y492126D01*
X358465Y478740D02*
Y492126D01*
X350984D02*
X358465D01*
X350984Y478740D02*
X358465D01*
X330512D02*
Y492126D01*
X337992Y478740D02*
Y492126D01*
X330512D02*
X337992D01*
X330512Y478740D02*
X337992D01*
X431299Y478839D02*
Y492224D01*
X438779Y478839D02*
Y492224D01*
X431299D02*
X438779D01*
X431299Y478839D02*
X438779D01*
X452953Y478740D02*
Y492126D01*
X460433Y478740D02*
Y492126D01*
X452953D02*
X460433D01*
X452953Y478740D02*
X460433D01*
X381496Y402756D02*
X403543D01*
X381496Y433465D02*
X403543D01*
Y402756D02*
Y433465D01*
X381496Y402756D02*
Y433465D01*
X222835Y404724D02*
X244882D01*
X222835Y435433D02*
X244882D01*
Y404724D02*
Y435433D01*
X222835Y404724D02*
Y435433D01*
X116339Y478740D02*
Y492126D01*
X123819Y478740D02*
Y492126D01*
X116339D02*
X123819D01*
X116339Y478740D02*
X123819D01*
X136417D02*
Y492126D01*
X143898Y478740D02*
Y492126D01*
X136417D02*
X143898D01*
X136417Y478740D02*
X143898D01*
X156496D02*
Y492126D01*
X163976Y478740D02*
Y492126D01*
X156496D02*
X163976D01*
X156496Y478740D02*
X163976D01*
X177362D02*
Y492126D01*
X184843Y478740D02*
Y492126D01*
X177362D02*
X184843D01*
X177362Y478740D02*
X184843D01*
X199016D02*
Y492126D01*
X206496Y478740D02*
Y492126D01*
X199016D02*
X206496D01*
X199016Y478740D02*
X206496D01*
X218701D02*
Y492126D01*
X226181Y478740D02*
Y492126D01*
X218701D02*
X226181D01*
X218701Y478740D02*
X226181D01*
X238386D02*
X245866D01*
X238386Y492126D02*
X245866D01*
Y478740D02*
Y492126D01*
X238386Y478740D02*
Y492126D01*
X278150Y240158D02*
Y251969D01*
X272244Y240158D02*
Y251969D01*
Y240158D02*
X278150D01*
X272244Y251969D02*
X278150D01*
X281890Y240354D02*
X287402D01*
X281890Y251772D02*
X287402D01*
Y240354D02*
Y251772D01*
X281890Y240354D02*
Y251772D01*
X181102Y219094D02*
X186614D01*
X181102Y230512D02*
X186614D01*
Y219094D02*
Y230512D01*
X181102Y219094D02*
Y230512D01*
X215354Y229331D02*
X220866D01*
X215354Y240748D02*
X220866D01*
Y229331D02*
Y240748D01*
X215354Y229331D02*
Y240748D01*
X190748Y218504D02*
X196653D01*
X190748Y230315D02*
X196653D01*
Y218504D02*
Y230315D01*
X190748Y218504D02*
Y230315D01*
X225590Y213583D02*
X254724D01*
X225590Y235236D02*
X254724D01*
X225590Y213583D02*
Y235236D01*
X254724Y213583D02*
Y235236D01*
M02*
