G04*
G04 #@! TF.GenerationSoftware,Altium Limited,Altium Designer,18.1.11 (251)*
G04*
G04 Layer_Color=32768*
%FSLAX25Y25*%
%MOIN*%
G70*
G01*
G75*
%ADD45C,0.00394*%
%ADD46C,0.00197*%
D45*
X289370Y86221D02*
Y90158D01*
X287402Y88189D02*
X291339D01*
X305906Y93287D02*
Y97224D01*
X303937Y95256D02*
X307874D01*
X305906Y107972D02*
Y111909D01*
X303937Y109941D02*
X307874D01*
X297638Y100000D02*
Y103937D01*
X295669Y101969D02*
X299606D01*
X289370Y107874D02*
Y111811D01*
X287402Y109843D02*
X291339D01*
X187795Y105905D02*
Y109843D01*
X185827Y107874D02*
X189764D01*
X279370Y45276D02*
X283307D01*
X281339Y43307D02*
Y47244D01*
X255118Y45276D02*
X259055D01*
X257087Y43307D02*
Y47244D01*
X259449Y98524D02*
Y102461D01*
X257480Y100492D02*
X261417D01*
X155118D02*
X159055D01*
X157087Y98524D02*
Y102461D01*
X54055Y98130D02*
Y102067D01*
X52087Y100098D02*
X56024D01*
X190354Y49213D02*
X193898D01*
X192126Y47441D02*
Y50984D01*
X236811Y9055D02*
X240354D01*
X238583Y7283D02*
Y10827D01*
X230512Y9055D02*
X234055D01*
X232283Y7283D02*
Y10827D01*
X83465Y105905D02*
Y109843D01*
X81496Y107874D02*
X85433D01*
X93307Y105905D02*
Y109843D01*
X91339Y107874D02*
X95276D01*
X188189Y90158D02*
Y94095D01*
X186221Y92126D02*
X190157D01*
X156195Y26378D02*
X160133D01*
X158164Y24409D02*
Y28346D01*
X156299Y33071D02*
X160236D01*
X158268Y31102D02*
Y35039D01*
X158661Y50394D02*
X162598D01*
X160630Y48425D02*
Y52362D01*
X161417Y55709D02*
Y59252D01*
X159646Y57480D02*
X163189D01*
X186221Y61811D02*
X190157D01*
X188189Y59842D02*
Y63779D01*
X187402Y67126D02*
Y70669D01*
X185630Y68898D02*
X189173D01*
X178164Y38976D02*
Y42913D01*
X176196Y40945D02*
X180132D01*
D46*
X285630Y81693D02*
X293110D01*
X285630Y94685D02*
X293110D01*
X285630Y81693D02*
Y94685D01*
X293110Y81693D02*
Y94685D01*
X302165Y88760D02*
X309646D01*
X302165Y101752D02*
X309646D01*
X302165Y88760D02*
Y101752D01*
X309646Y88760D02*
Y101752D01*
X302165Y116437D02*
X309646D01*
X302165Y103445D02*
X309646D01*
Y116437D01*
X302165Y103445D02*
Y116437D01*
X293898Y108465D02*
X301378D01*
X293898Y95472D02*
X301378D01*
Y108465D01*
X293898Y95472D02*
Y108465D01*
X285630Y116339D02*
X293110D01*
X285630Y103346D02*
X293110D01*
Y116339D01*
X285630Y103346D02*
Y116339D01*
X184055Y114370D02*
X191535D01*
X184055Y101378D02*
X191535D01*
Y114370D01*
X184055Y101378D02*
Y114370D01*
X285079Y38780D02*
Y51772D01*
X277598Y38780D02*
Y51772D01*
X285079D01*
X277598Y38780D02*
X285079D01*
X260827D02*
Y51772D01*
X253346Y38780D02*
Y51772D01*
X260827D01*
X253346Y38780D02*
X260827D01*
X237303Y122638D02*
X281594D01*
X237303Y78347D02*
X281594D01*
X237303D02*
Y122638D01*
X281594Y78347D02*
Y122638D01*
X179232Y78347D02*
Y122638D01*
X134941Y78347D02*
Y122638D01*
Y78347D02*
X179232D01*
X134941Y122638D02*
X179232D01*
X31909Y122244D02*
X76201D01*
X31909Y77953D02*
X76201D01*
X31909D02*
Y122244D01*
X76201Y77953D02*
Y122244D01*
X189173Y43307D02*
Y55118D01*
X195079Y43307D02*
Y55118D01*
X189173Y43307D02*
X195079D01*
X189173Y55118D02*
X195079D01*
X241535Y3150D02*
Y14961D01*
X235630Y3150D02*
Y14961D01*
X241535D01*
X235630Y3150D02*
X241535D01*
X235236D02*
Y14961D01*
X229331Y3150D02*
Y14961D01*
X235236D01*
X229331Y3150D02*
X235236D01*
X79724Y114370D02*
X87205D01*
X79724Y101378D02*
X87205D01*
Y114370D01*
X79724Y101378D02*
Y114370D01*
X89567Y101378D02*
X97047D01*
X89567Y114370D02*
X97047D01*
X89567Y101378D02*
Y114370D01*
X97047Y101378D02*
Y114370D01*
X184449Y98622D02*
X191929D01*
X184449Y85630D02*
X191929D01*
Y98622D01*
X184449Y85630D02*
Y98622D01*
X164660Y22638D02*
Y30118D01*
X151668Y22638D02*
Y30118D01*
Y22638D02*
X164660D01*
X151668Y30118D02*
X164660D01*
X164764Y29331D02*
Y36811D01*
X151772Y29331D02*
Y36811D01*
Y29331D02*
X164764D01*
X151772Y36811D02*
X164764D01*
X154134Y46654D02*
Y54134D01*
X167126Y46654D02*
Y54134D01*
X154134D02*
X167126D01*
X154134Y46654D02*
X167126D01*
X155512Y54528D02*
X167323D01*
X155512Y60433D02*
X167323D01*
Y54528D02*
Y60433D01*
X155512Y54528D02*
Y60433D01*
X194685Y58071D02*
Y65551D01*
X181693Y58071D02*
Y65551D01*
Y58071D02*
X194685D01*
X181693Y65551D02*
X194685D01*
X181496Y71850D02*
X193307D01*
X181496Y65945D02*
X193307D01*
X181496D02*
Y71850D01*
X193307Y65945D02*
Y71850D01*
X170880Y53445D02*
X185448D01*
X170880Y28445D02*
X185448D01*
Y53445D01*
X170880Y28445D02*
Y53445D01*
M02*
