G04*
G04 #@! TF.GenerationSoftware,Altium Limited,Altium Designer,18.1.11 (251)*
G04*
G04 Layer_Color=8388736*
%FSLAX25Y25*%
%MOIN*%
G70*
G01*
G75*
%ADD13C,0.00394*%
%ADD14R,0.15945X0.40158*%
%ADD15C,0.00197*%
%ADD18R,0.10249X0.05131*%
%ADD19R,0.06312X0.03241*%
%ADD20C,0.07099*%
%ADD21C,0.06706*%
%ADD22C,0.02769*%
%ADD23C,0.03556*%
%ADD24C,0.10288*%
%ADD25C,0.04540*%
%ADD26C,0.24422*%
D13*
X577461Y406496D02*
X602067D01*
X577362Y347638D02*
X602165D01*
X624803D02*
Y406496D01*
X612894D02*
X624803D01*
X612894Y347638D02*
X624803D01*
X155118Y324803D02*
G03*
X170866Y309055I15748J0D01*
G01*
X619291D02*
G03*
X635039Y324803I0J15748D01*
G01*
Y687008D02*
G03*
X619291Y702756I-15748J0D01*
G01*
X170866D02*
G03*
X155118Y687008I0J-15748D01*
G01*
X170866Y309055D02*
X619291Y309055D01*
X170866Y702756D02*
X619291Y702756D01*
X155118Y324803D02*
X155118Y687008D01*
X635039Y324803D02*
X635039Y687008D01*
X271260Y379921D02*
G03*
X271260Y379921I-1969J0D01*
G01*
X540354Y603346D02*
G03*
X540354Y603346I-1969J0D01*
G01*
X402559D02*
G03*
X402559Y603346I-1969J0D01*
G01*
X264764D02*
G03*
X264764Y603346I-1969J0D01*
G01*
X211910Y374606D02*
Y381299D01*
X215650Y374606D02*
Y381299D01*
X211910D02*
X215650D01*
X211910Y374606D02*
X215650D01*
X194095Y374803D02*
Y381890D01*
X198031Y374803D02*
Y381890D01*
X194095D02*
X198031D01*
X194095Y374803D02*
X198031D01*
X239567Y387598D02*
X243110D01*
X239567Y394291D02*
X243110D01*
Y387598D02*
Y394291D01*
X239567Y387598D02*
Y394291D01*
X243701Y656791D02*
Y665256D01*
X249213Y656791D02*
Y665256D01*
X243701D02*
X249213D01*
X243701Y656791D02*
X249213D01*
X272835Y363779D02*
Y383465D01*
X257087Y363779D02*
Y383465D01*
X272835D01*
X257087Y363779D02*
X272835D01*
X524213Y586811D02*
X541929D01*
X524213Y606890D02*
X541929D01*
X524213Y586811D02*
Y606890D01*
X541929Y586811D02*
Y606890D01*
X386417Y586811D02*
X404134D01*
X386417Y606890D02*
X404134D01*
X386417Y586811D02*
Y606890D01*
X404134Y586811D02*
Y606890D01*
X248622Y586811D02*
X266339D01*
X248622Y606890D02*
X266339D01*
X248622Y586811D02*
Y606890D01*
X266339Y586811D02*
Y606890D01*
X290354Y382874D02*
X297047D01*
X290354Y379331D02*
X297047D01*
Y382874D01*
X290354Y379331D02*
Y382874D01*
X540945Y656398D02*
X546457D01*
X540945Y664862D02*
X546457D01*
Y656398D02*
Y664862D01*
X540945Y656398D02*
Y664862D01*
X550787Y656398D02*
X556299D01*
X550787Y664862D02*
X556299D01*
Y656398D02*
Y664862D01*
X550787Y656398D02*
Y664862D01*
X540945Y540846D02*
X546457D01*
X540945Y532382D02*
X546457D01*
X540945D02*
Y540846D01*
X546457Y532382D02*
Y540846D01*
X531102D02*
X536614D01*
X531102Y532382D02*
X536614D01*
X531102D02*
Y540846D01*
X536614Y532382D02*
Y540846D01*
X520866D02*
X526378D01*
X520866Y532382D02*
X526378D01*
X520866D02*
Y540846D01*
X526378Y532382D02*
Y540846D01*
X511024Y656398D02*
X516535D01*
X511024Y664862D02*
X516535D01*
Y656398D02*
Y664862D01*
X511024Y656398D02*
Y664862D01*
X520866Y656398D02*
X526378D01*
X520866Y664862D02*
X526378D01*
Y656398D02*
Y664862D01*
X520866Y656398D02*
Y664862D01*
X402362Y657185D02*
X407874D01*
X402362Y665650D02*
X407874D01*
Y657185D02*
Y665650D01*
X402362Y657185D02*
Y665650D01*
X263386Y656791D02*
X268898D01*
X263386Y665256D02*
X268898D01*
Y656791D02*
Y665256D01*
X263386Y656791D02*
Y665256D01*
X412598Y657185D02*
X418110D01*
X412598Y665650D02*
X418110D01*
Y657185D02*
Y665650D01*
X412598Y657185D02*
Y665650D01*
X273622Y656791D02*
X279134D01*
X273622Y665256D02*
X279134D01*
Y656791D02*
Y665256D01*
X273622Y656791D02*
Y665256D01*
X402362Y538878D02*
X407874D01*
X402362Y530413D02*
X407874D01*
X402362D02*
Y538878D01*
X407874Y530413D02*
Y538878D01*
X263779Y539272D02*
X269291D01*
X263779Y530807D02*
X269291D01*
X263779D02*
Y539272D01*
X269291Y530807D02*
Y539272D01*
X392913Y538878D02*
X398425D01*
X392913Y530413D02*
X398425D01*
X392913D02*
Y538878D01*
X398425Y530413D02*
Y538878D01*
X253543Y539272D02*
X259055D01*
X253543Y530807D02*
X259055D01*
X253543D02*
Y539272D01*
X259055Y530807D02*
Y539272D01*
X382677Y538878D02*
X388189D01*
X382677Y530413D02*
X388189D01*
X382677D02*
Y538878D01*
X388189Y530413D02*
Y538878D01*
X243701Y539272D02*
X249213D01*
X243701Y530807D02*
X249213D01*
X243701D02*
Y539272D01*
X249213Y530807D02*
Y539272D01*
X372441Y656791D02*
X377953D01*
X372441Y665256D02*
X377953D01*
Y656791D02*
Y665256D01*
X372441Y656791D02*
Y665256D01*
X233465Y656791D02*
X238976D01*
X233465Y665256D02*
X238976D01*
Y656791D02*
Y665256D01*
X233465Y656791D02*
Y665256D01*
X382677Y657185D02*
X388189D01*
X382677Y665650D02*
X388189D01*
Y657185D02*
Y665650D01*
X382677Y657185D02*
Y665650D01*
X296752Y369390D02*
Y373130D01*
X289862Y369390D02*
Y373130D01*
X296752D01*
X289862Y369390D02*
X296752D01*
X211910Y377953D02*
X215650D01*
X213779Y376083D02*
Y379823D01*
X194095Y378346D02*
X198031D01*
X196063Y376378D02*
Y380315D01*
X241339Y389173D02*
Y392717D01*
X239567Y390945D02*
X243110D01*
X244488Y661024D02*
X248425D01*
X246457Y659055D02*
Y662992D01*
X262992Y373622D02*
X266929D01*
X264961Y371654D02*
Y375590D01*
X533071Y594882D02*
Y598819D01*
X531102Y596850D02*
X535039D01*
X395276Y594882D02*
Y598819D01*
X393307Y596850D02*
X397244D01*
X257480Y594882D02*
Y598819D01*
X255512Y596850D02*
X259449D01*
X293701Y379331D02*
Y382874D01*
X291929Y381102D02*
X295472D01*
X543701Y658661D02*
Y662598D01*
X541732Y660630D02*
X545669D01*
X553543Y658661D02*
Y662598D01*
X551575Y660630D02*
X555512D01*
X543701Y534646D02*
Y538583D01*
X541732Y536614D02*
X545669D01*
X533858Y534646D02*
Y538583D01*
X531890Y536614D02*
X535827D01*
X523622Y534646D02*
Y538583D01*
X521654Y536614D02*
X525591D01*
X513779Y658661D02*
Y662598D01*
X511811Y660630D02*
X515748D01*
X523622Y658661D02*
Y662598D01*
X521654Y660630D02*
X525591D01*
X405118Y659449D02*
Y663386D01*
X403150Y661417D02*
X407087D01*
X266142Y659055D02*
Y662992D01*
X264173Y661024D02*
X268110D01*
X415354Y659449D02*
Y663386D01*
X413386Y661417D02*
X417323D01*
X276378Y659055D02*
Y662992D01*
X274410Y661024D02*
X278346D01*
X405118Y532677D02*
Y536614D01*
X403150Y534646D02*
X407087D01*
X266535Y533071D02*
Y537008D01*
X264567Y535039D02*
X268504D01*
X395669Y532677D02*
Y536614D01*
X393701Y534646D02*
X397638D01*
X256299Y533071D02*
Y537008D01*
X254331Y535039D02*
X258268D01*
X385433Y532677D02*
Y536614D01*
X383465Y534646D02*
X387402D01*
X246457Y533071D02*
Y537008D01*
X244488Y535039D02*
X248425D01*
X375197Y659055D02*
Y662992D01*
X373228Y661024D02*
X377165D01*
X236221Y659055D02*
Y662992D01*
X234252Y661024D02*
X238189D01*
X385433Y659449D02*
Y663386D01*
X383465Y661417D02*
X387402D01*
X291437Y371260D02*
X295177D01*
X293307Y369390D02*
Y373130D01*
D14*
X585925Y367814D02*
D03*
D15*
X210827Y372835D02*
Y383071D01*
X216732Y372835D02*
Y383071D01*
X210827D02*
X216732D01*
X210827Y372835D02*
X216732D01*
X193110Y372441D02*
Y384252D01*
X199016Y372441D02*
Y384252D01*
X193110D02*
X199016D01*
X193110Y372441D02*
X199016D01*
X238583Y385236D02*
X244094D01*
X238583Y396654D02*
X244094D01*
Y385236D02*
Y396654D01*
X238583Y385236D02*
Y396654D01*
X242717Y654331D02*
Y667717D01*
X250197Y654331D02*
Y667717D01*
X242717D02*
X250197D01*
X242717Y654331D02*
X250197D01*
X279528Y362795D02*
Y384449D01*
X250394Y362795D02*
Y384449D01*
X279528D01*
X250394Y362795D02*
X279528D01*
X517717Y585827D02*
X548425D01*
X517717Y607874D02*
X548425D01*
X517717Y585827D02*
Y607874D01*
X548425Y585827D02*
Y607874D01*
X379921Y585827D02*
X410630D01*
X379921Y607874D02*
X410630D01*
X379921Y585827D02*
Y607874D01*
X410630Y585827D02*
Y607874D01*
X242126Y585827D02*
X272835D01*
X242126Y607874D02*
X272835D01*
X242126Y585827D02*
Y607874D01*
X272835Y585827D02*
Y607874D01*
X287992Y383858D02*
X299410D01*
X287992Y378346D02*
X299410D01*
Y383858D01*
X287992Y378346D02*
Y383858D01*
X539961Y653937D02*
X547441D01*
X539961Y667323D02*
X547441D01*
Y653937D02*
Y667323D01*
X539961Y653937D02*
Y667323D01*
X549803Y653937D02*
X557283D01*
X549803Y667323D02*
X557283D01*
Y653937D02*
Y667323D01*
X549803Y653937D02*
Y667323D01*
X539961Y543307D02*
X547441D01*
X539961Y529921D02*
X547441D01*
X539961D02*
Y543307D01*
X547441Y529921D02*
Y543307D01*
X530118D02*
X537598D01*
X530118Y529921D02*
X537598D01*
X530118D02*
Y543307D01*
X537598Y529921D02*
Y543307D01*
X519882D02*
X527362D01*
X519882Y529921D02*
X527362D01*
X519882D02*
Y543307D01*
X527362Y529921D02*
Y543307D01*
X510039Y653937D02*
X517520D01*
X510039Y667323D02*
X517520D01*
Y653937D02*
Y667323D01*
X510039Y653937D02*
Y667323D01*
X519882Y653937D02*
X527362D01*
X519882Y667323D02*
X527362D01*
Y653937D02*
Y667323D01*
X519882Y653937D02*
Y667323D01*
X401378Y654724D02*
X408858D01*
X401378Y668110D02*
X408858D01*
Y654724D02*
Y668110D01*
X401378Y654724D02*
Y668110D01*
X262402Y654331D02*
X269882D01*
X262402Y667717D02*
X269882D01*
Y654331D02*
Y667717D01*
X262402Y654331D02*
Y667717D01*
X411614Y654724D02*
X419095D01*
X411614Y668110D02*
X419095D01*
Y654724D02*
Y668110D01*
X411614Y654724D02*
Y668110D01*
X272638Y654331D02*
X280118D01*
X272638Y667717D02*
X280118D01*
Y654331D02*
Y667717D01*
X272638Y654331D02*
Y667717D01*
X401378Y541339D02*
X408858D01*
X401378Y527953D02*
X408858D01*
X401378D02*
Y541339D01*
X408858Y527953D02*
Y541339D01*
X262795Y541732D02*
X270276D01*
X262795Y528346D02*
X270276D01*
X262795D02*
Y541732D01*
X270276Y528346D02*
Y541732D01*
X391929Y541339D02*
X399409D01*
X391929Y527953D02*
X399409D01*
X391929D02*
Y541339D01*
X399409Y527953D02*
Y541339D01*
X252559Y541732D02*
X260039D01*
X252559Y528346D02*
X260039D01*
X252559D02*
Y541732D01*
X260039Y528346D02*
Y541732D01*
X381693Y541339D02*
X389173D01*
X381693Y527953D02*
X389173D01*
X381693D02*
Y541339D01*
X389173Y527953D02*
Y541339D01*
X242717Y541732D02*
X250197D01*
X242717Y528346D02*
X250197D01*
X242717D02*
Y541732D01*
X250197Y528346D02*
Y541732D01*
X371457Y654331D02*
X378937D01*
X371457Y667717D02*
X378937D01*
Y654331D02*
Y667717D01*
X371457Y654331D02*
Y667717D01*
X232480Y654331D02*
X239961D01*
X232480Y667717D02*
X239961D01*
Y654331D02*
Y667717D01*
X232480Y654331D02*
Y667717D01*
X381693Y654724D02*
X389173D01*
X381693Y668110D02*
X389173D01*
Y654724D02*
Y668110D01*
X381693Y654724D02*
Y668110D01*
X299213Y368307D02*
Y374213D01*
X287402Y368307D02*
Y374213D01*
X299213D01*
X287402Y368307D02*
X299213D01*
D18*
X607480Y345276D02*
D03*
Y408858D02*
D03*
X572047D02*
D03*
Y345276D02*
D03*
D19*
X564173Y385335D02*
D03*
Y368012D02*
D03*
Y376673D02*
D03*
Y381004D02*
D03*
Y372342D02*
D03*
Y363681D02*
D03*
Y359350D02*
D03*
Y355020D02*
D03*
Y350689D02*
D03*
D20*
X213779Y402362D02*
D03*
Y392362D02*
D03*
X178740Y402362D02*
D03*
Y392362D02*
D03*
Y369055D02*
D03*
Y359055D02*
D03*
Y349055D02*
D03*
D21*
X485354Y486614D02*
D03*
Y476614D02*
D03*
Y466614D02*
D03*
Y456614D02*
D03*
Y446614D02*
D03*
Y436614D02*
D03*
Y426614D02*
D03*
Y416614D02*
D03*
Y406614D02*
D03*
Y396614D02*
D03*
X475354Y486614D02*
D03*
Y476614D02*
D03*
Y466614D02*
D03*
Y456614D02*
D03*
Y446614D02*
D03*
Y436614D02*
D03*
Y426614D02*
D03*
Y416614D02*
D03*
Y406614D02*
D03*
Y396614D02*
D03*
X315354Y486614D02*
D03*
Y476614D02*
D03*
Y466614D02*
D03*
Y456614D02*
D03*
Y446614D02*
D03*
Y436614D02*
D03*
Y426614D02*
D03*
Y416614D02*
D03*
Y406614D02*
D03*
Y396614D02*
D03*
X305354Y486614D02*
D03*
Y476614D02*
D03*
Y466614D02*
D03*
Y456614D02*
D03*
Y446614D02*
D03*
Y436614D02*
D03*
Y426614D02*
D03*
Y416614D02*
D03*
Y406614D02*
D03*
Y396614D02*
D03*
D22*
X523543Y517165D02*
D03*
Y677165D02*
D03*
X533543Y517165D02*
D03*
Y677165D02*
D03*
X543543Y517165D02*
D03*
Y677165D02*
D03*
X513543Y517165D02*
D03*
Y677165D02*
D03*
X553543Y517165D02*
D03*
Y677165D02*
D03*
X385354Y516929D02*
D03*
Y676929D02*
D03*
X395354Y516929D02*
D03*
Y676929D02*
D03*
X405354Y516929D02*
D03*
Y676929D02*
D03*
X375354Y516929D02*
D03*
Y676929D02*
D03*
X415354Y516929D02*
D03*
Y676929D02*
D03*
X246378Y516929D02*
D03*
Y676929D02*
D03*
X256378Y516929D02*
D03*
Y676929D02*
D03*
X266378Y516929D02*
D03*
Y676929D02*
D03*
X236378Y516929D02*
D03*
Y676929D02*
D03*
X276378Y516929D02*
D03*
Y676929D02*
D03*
D23*
X481102Y322342D02*
D03*
X293307D02*
D03*
X596555Y614567D02*
D03*
X197047Y618405D02*
D03*
Y551772D02*
D03*
X252559Y472342D02*
D03*
X528543Y477953D02*
D03*
X403740Y491634D02*
D03*
X467028Y635335D02*
D03*
Y677067D02*
D03*
X326575Y635433D02*
D03*
Y677067D02*
D03*
X440551Y512992D02*
D03*
X273228Y501181D02*
D03*
X287402Y498032D02*
D03*
X279195Y492581D02*
D03*
X203937Y433071D02*
D03*
X465194Y400455D02*
D03*
X518898Y396063D02*
D03*
X485354Y384567D02*
D03*
X556692Y501574D02*
D03*
X433858Y496457D02*
D03*
X490158Y500787D02*
D03*
X457874Y461417D02*
D03*
X440945Y507874D02*
D03*
X460709Y456614D02*
D03*
X590158Y422441D02*
D03*
X585433Y413386D02*
D03*
X494487Y403936D02*
D03*
X500486Y407067D02*
D03*
X468504Y456299D02*
D03*
X332677Y500787D02*
D03*
X503150Y486614D02*
D03*
X576378Y429134D02*
D03*
X351969Y364567D02*
D03*
X275984Y354330D02*
D03*
X500787Y340945D02*
D03*
X254232Y354429D02*
D03*
X212598Y486614D02*
D03*
X389370Y348031D02*
D03*
X271260Y355512D02*
D03*
X345276Y511024D02*
D03*
X356614Y507874D02*
D03*
X401181Y348031D02*
D03*
X261614Y585335D02*
D03*
X538189Y584449D02*
D03*
X285103Y381122D02*
D03*
X298425Y394444D02*
D03*
X321654Y431102D02*
D03*
X568504Y425197D02*
D03*
X283465Y462992D02*
D03*
X577559Y464173D02*
D03*
X291339Y455512D02*
D03*
X564173Y440551D02*
D03*
X557087Y363386D02*
D03*
X183858Y422047D02*
D03*
X352836Y384565D02*
D03*
X492913Y364567D02*
D03*
X466240Y359350D02*
D03*
X595669Y490945D02*
D03*
X323622Y402756D02*
D03*
X503150Y372441D02*
D03*
X577559Y452756D02*
D03*
X344882Y506299D02*
D03*
X595669Y440945D02*
D03*
Y452362D02*
D03*
X475197Y516929D02*
D03*
X468504Y478346D02*
D03*
X406988Y583169D02*
D03*
X426378Y348031D02*
D03*
X527559Y605905D02*
D03*
X389764D02*
D03*
X252756D02*
D03*
D24*
X616968Y426181D02*
D03*
Y490354D02*
D03*
X173301Y425000D02*
D03*
Y489173D02*
D03*
X427106Y327264D02*
D03*
X362933D02*
D03*
D25*
X609154Y390748D02*
D03*
Y363976D02*
D03*
D26*
X619291Y324803D02*
D03*
Y687008D02*
D03*
X170866D02*
D03*
Y324803D02*
D03*
M02*
