G04*
G04 #@! TF.GenerationSoftware,Altium Limited,Altium Designer,19.1.8 (144)*
G04*
G04 Layer_Physical_Order=1*
G04 Layer_Color=255*
%FSLAX25Y25*%
%MOIN*%
G70*
G01*
G75*
%ADD11C,0.01000*%
%ADD12C,0.00394*%
%ADD13R,0.40158X0.15945*%
%ADD14C,0.00197*%
%ADD15C,0.01968*%
%ADD16R,0.04331X0.09449*%
%ADD17R,0.02441X0.05512*%
%ADD26C,0.01968*%
%ADD27C,0.03937*%
%ADD28C,0.02756*%
%ADD29C,0.09488*%
%ADD30C,0.03740*%
%ADD31C,0.23622*%
G36*
X242913Y775740D02*
X377257Y749137D01*
X377430Y748668D01*
X370079Y739370D01*
X116535Y707087D01*
X102653Y765251D01*
X116535Y781496D01*
X242913Y775740D01*
D02*
G37*
G36*
X244632Y418753D02*
X185776Y359897D01*
X172047D01*
Y388976D01*
X212205Y429134D01*
X234252D01*
X244632Y418753D01*
D02*
G37*
G36*
X537795Y227559D02*
Y177061D01*
X538117Y177382D01*
X614552Y173516D01*
X624790Y163278D01*
X624861Y162735D01*
X625150Y162037D01*
X625610Y161437D01*
X626210Y160977D01*
X626908Y160688D01*
X627451Y160617D01*
X665346Y122722D01*
X665155Y122260D01*
X655224D01*
Y118504D01*
X654224D01*
Y122260D01*
X643262D01*
Y123359D01*
X643447Y123482D01*
X643972Y124269D01*
X644157Y125197D01*
X643972Y126125D01*
X643447Y126911D01*
X642660Y127437D01*
X641732Y127621D01*
X640804Y127437D01*
X640018Y126911D01*
X639817Y126611D01*
X639317D01*
X639116Y126911D01*
X638329Y127437D01*
X637402Y127621D01*
X636474Y127437D01*
X635687Y126911D01*
X635258Y126269D01*
X590158Y150000D01*
X549485D01*
X529261Y168013D01*
X529255Y168231D01*
X529134Y168110D01*
X460110Y168110D01*
X418531Y213810D01*
D01*
X452977Y175951D01*
X452615Y175605D01*
X444362Y183858D01*
X329040D01*
X329012Y183999D01*
X328486Y184785D01*
X328301Y184909D01*
Y192574D01*
Y211571D01*
X388823Y272093D01*
X392859D01*
X392975Y271917D01*
X393052Y271593D01*
X338299Y216840D01*
D01*
X336185Y214725D01*
X333171Y211711D01*
X332839Y211215D01*
X332723Y210630D01*
Y204988D01*
X332538Y204864D01*
X332012Y204077D01*
X331827Y203150D01*
X332012Y202222D01*
X332538Y201435D01*
X333324Y200910D01*
X334252Y200725D01*
X335180Y200910D01*
X335966Y201435D01*
X336492Y202222D01*
X336677Y203150D01*
X336492Y204077D01*
X335966Y204864D01*
X335781Y204988D01*
Y209996D01*
X394850Y269065D01*
X420578D01*
X420660Y268958D01*
X420413Y268459D01*
X398819D01*
X398234Y268342D01*
X397737Y268011D01*
X339863Y210137D01*
X339532Y209640D01*
X339416Y209055D01*
Y202208D01*
X332895Y195688D01*
X332677Y195732D01*
X331749Y195547D01*
X330963Y195021D01*
X330437Y194235D01*
X330253Y193307D01*
X330437Y192379D01*
X330963Y191593D01*
X331749Y191067D01*
X332677Y190883D01*
X333605Y191067D01*
X334392Y191593D01*
X334917Y192379D01*
X335102Y193307D01*
X335058Y193525D01*
X336059Y194526D01*
D01*
X342026Y200493D01*
X342358Y200990D01*
X342474Y201575D01*
Y208422D01*
X349531Y215478D01*
X349564Y215461D01*
X351862D01*
Y217759D01*
X351845Y217792D01*
X399452Y265400D01*
X450918D01*
X451042Y265215D01*
X451828Y264689D01*
X452756Y264505D01*
X453684Y264689D01*
X454470Y265215D01*
X454996Y266001D01*
X455181Y266929D01*
X454996Y267857D01*
X454523Y268565D01*
X454671Y269065D01*
X456746D01*
X456895Y268565D01*
X456421Y267857D01*
X456237Y266929D01*
X456421Y266001D01*
X456947Y265215D01*
X457734Y264689D01*
X458661Y264505D01*
X459589Y264689D01*
X460376Y265215D01*
X460499Y265400D01*
X465114D01*
X472147Y258367D01*
X472643Y258036D01*
X473228Y257919D01*
X484800D01*
X486019Y256700D01*
X485840Y256172D01*
X485445Y256120D01*
X484723Y255821D01*
X484103Y255346D01*
X483628Y254725D01*
X483328Y254003D01*
X483226Y253228D01*
X483328Y252453D01*
X483628Y251731D01*
X484103Y251111D01*
X484723Y250635D01*
X485445Y250336D01*
X486221Y250234D01*
X486995Y250336D01*
X487717Y250635D01*
X488128Y250950D01*
X488628Y250704D01*
Y248031D01*
X488744Y247446D01*
X489076Y246950D01*
X492895Y243132D01*
X492851Y242913D01*
X493036Y241986D01*
X493561Y241199D01*
X494348Y240673D01*
X495276Y240489D01*
X496203Y240673D01*
X496990Y241199D01*
X497516Y241986D01*
X497700Y242913D01*
X497516Y243841D01*
X496990Y244628D01*
X496203Y245153D01*
X495276Y245338D01*
X495057Y245294D01*
X491687Y248665D01*
Y254724D01*
X491570Y255310D01*
X491239Y255806D01*
X487171Y259874D01*
X487293Y260459D01*
X487717Y260635D01*
X488338Y261111D01*
X488813Y261731D01*
X489113Y262453D01*
X489149Y262728D01*
X486221D01*
X483292D01*
X483328Y262453D01*
X483628Y261731D01*
X483822Y261478D01*
X483575Y260978D01*
X478866D01*
X478619Y261478D01*
X478814Y261731D01*
X479113Y262453D01*
X479215Y263228D01*
X479113Y264003D01*
X478814Y264725D01*
X478338Y265346D01*
X477717Y265821D01*
X476995Y266120D01*
X476221Y266223D01*
X475446Y266120D01*
X474723Y265821D01*
X474103Y265346D01*
X473628Y264725D01*
X473328Y264003D01*
X473226Y263228D01*
X473328Y262453D01*
X473494Y262053D01*
X473070Y261770D01*
X466829Y268011D01*
X466333Y268342D01*
X465748Y268459D01*
X460918D01*
X460839Y268565D01*
X461089Y269065D01*
X467445D01*
X468030Y269181D01*
X468526Y269513D01*
X470254Y271241D01*
X470472Y271198D01*
X471400Y271382D01*
X472187Y271908D01*
X472712Y272694D01*
X472897Y273622D01*
X472712Y274550D01*
X472187Y275337D01*
X471400Y275862D01*
X470472Y276047D01*
X469545Y275862D01*
X468758Y275337D01*
X468232Y274550D01*
X468048Y273622D01*
X468075Y273488D01*
X467823Y273259D01*
X467363Y273511D01*
X467385Y273622D01*
X467201Y274550D01*
X466675Y275337D01*
X465889Y275862D01*
X464961Y276047D01*
X464033Y275862D01*
X463246Y275337D01*
X463123Y275151D01*
X436041D01*
X435850Y275613D01*
X442126Y281890D01*
X483465D01*
X537795Y227559D01*
D02*
G37*
G36*
X304331Y359055D02*
Y358537D01*
X304753Y358729D01*
X412392Y275625D01*
X412231Y275151D01*
X388189D01*
X387604Y275035D01*
X387107Y274704D01*
X329244Y216840D01*
D01*
X325690Y213286D01*
X325359Y212790D01*
X325242Y212205D01*
Y184909D01*
X325057Y184785D01*
X324532Y183999D01*
X324504Y183858D01*
X319132D01*
X319113Y184003D01*
X318813Y184725D01*
X318338Y185345D01*
X317718Y185821D01*
X316995Y186120D01*
X316220Y186223D01*
X315445Y186120D01*
X314723Y185821D01*
X314103Y185345D01*
X313628Y184725D01*
X313328Y184003D01*
X313309Y183858D01*
X309132D01*
X309113Y184003D01*
X308814Y184725D01*
X308338Y185345D01*
X307717Y185821D01*
X306995Y186120D01*
X306221Y186223D01*
X305446Y186120D01*
X304723Y185821D01*
X304103Y185345D01*
X303627Y184725D01*
X303328Y184003D01*
X303309Y183858D01*
X298620D01*
X297656Y184821D01*
X295864Y186614D01*
Y202557D01*
D01*
Y203210D01*
Y220298D01*
D01*
Y228092D01*
X296326Y228283D01*
X299652Y224957D01*
Y210500D01*
X299467Y210376D01*
X298941Y209589D01*
X298757Y208661D01*
X298941Y207734D01*
X299467Y206947D01*
X299611Y206851D01*
D01*
X299939Y206632D01*
D01*
X300253Y206421D01*
D01*
X301181Y206237D01*
X302109Y206421D01*
X302895Y206947D01*
X303421Y207734D01*
X303606Y208661D01*
X303421Y209589D01*
X303387Y209640D01*
X302992Y210231D01*
X302895Y210376D01*
X302711Y210500D01*
Y225591D01*
X302594Y226176D01*
X302262Y226672D01*
X298695Y230240D01*
X298941Y230700D01*
X299213Y230646D01*
X300140Y230831D01*
X300927Y231357D01*
X301453Y232143D01*
X301637Y233071D01*
X301453Y233999D01*
X300927Y234785D01*
X300140Y235311D01*
X299213Y235495D01*
X298364Y235327D01*
X297864Y235563D01*
Y243078D01*
X302262Y247477D01*
X302594Y247973D01*
X302711Y248558D01*
Y256036D01*
X302895Y256160D01*
X303421Y256946D01*
X303606Y257874D01*
X303421Y258802D01*
X302895Y259588D01*
X302109Y260114D01*
X301181Y260299D01*
X300253Y260114D01*
X299467Y259588D01*
X298941Y258802D01*
X298757Y257874D01*
X298941Y256946D01*
X299467Y256160D01*
X299652Y256036D01*
Y249192D01*
X297994Y247534D01*
X296326Y245866D01*
X295864Y246057D01*
Y256693D01*
X298229Y259058D01*
D01*
X300870Y261699D01*
X303652D01*
X304103Y261111D01*
X304723Y260635D01*
X305446Y260336D01*
X306221Y260234D01*
X306995Y260336D01*
X307717Y260635D01*
X308338Y261111D01*
X308814Y261731D01*
X309113Y262453D01*
X309215Y263228D01*
X309113Y264003D01*
X308814Y264725D01*
X308338Y265346D01*
X307717Y265821D01*
X306995Y266120D01*
X306221Y266223D01*
X305446Y266120D01*
X304723Y265821D01*
X304331Y265520D01*
X304103Y265346D01*
X303652Y264758D01*
X300236D01*
X299651Y264641D01*
X299155Y264310D01*
X299009Y264164D01*
X293253Y258408D01*
X292922Y257912D01*
X292805Y257327D01*
Y199498D01*
X292343Y199036D01*
X292805Y198845D01*
Y185980D01*
X292922Y185395D01*
X293253Y184899D01*
X293832Y184320D01*
X293640Y183858D01*
X277819D01*
X277627Y184320D01*
X277165Y183858D01*
X215354D01*
X214567Y184646D01*
Y156693D01*
X185039D01*
X175197Y146850D01*
X161811D01*
Y170472D01*
X195276Y203937D01*
X172047Y227165D01*
Y355851D01*
X186614D01*
X187388Y356005D01*
X188045Y356444D01*
X247494Y415892D01*
X304331Y359055D01*
D02*
G37*
%LPC*%
G36*
X119791Y779490D02*
Y777665D01*
X121616D01*
X121531Y778093D01*
X121006Y778880D01*
X120219Y779405D01*
X119791Y779490D01*
D02*
G37*
G36*
X118791D02*
X118363Y779405D01*
X117577Y778880D01*
X117051Y778093D01*
X116966Y777665D01*
X118791D01*
Y779490D01*
D02*
G37*
G36*
X121616Y776665D02*
X119791D01*
Y774840D01*
X120219Y774925D01*
X121006Y775451D01*
X121531Y776237D01*
X121616Y776665D01*
D02*
G37*
G36*
X118791D02*
X116966D01*
X117051Y776237D01*
X117577Y775451D01*
X118363Y774925D01*
X118791Y774840D01*
Y776665D01*
D02*
G37*
G36*
X363492Y750357D02*
Y748531D01*
X365317D01*
X365232Y748959D01*
X364706Y749746D01*
X363920Y750272D01*
X363492Y750357D01*
D02*
G37*
G36*
X362492D02*
X362064Y750272D01*
X361278Y749746D01*
X360752Y748959D01*
X360667Y748531D01*
X362492D01*
Y750357D01*
D02*
G37*
G36*
X365317Y747532D02*
X363492D01*
Y745706D01*
X363920Y745791D01*
X364706Y746317D01*
X365232Y747104D01*
X365317Y747532D01*
D02*
G37*
G36*
X362492D02*
X360667D01*
X360752Y747104D01*
X361278Y746317D01*
X362064Y745791D01*
X362492Y745706D01*
Y747532D01*
D02*
G37*
G36*
X125303Y716892D02*
Y715067D01*
X127128D01*
X127043Y715495D01*
X126518Y716281D01*
X125731Y716807D01*
X125303Y716892D01*
D02*
G37*
G36*
X124303D02*
X123875Y716807D01*
X123089Y716281D01*
X122563Y715495D01*
X122478Y715067D01*
X124303D01*
Y716892D01*
D02*
G37*
G36*
X127128Y714067D02*
X125303D01*
Y712242D01*
X125731Y712327D01*
X126518Y712852D01*
X127043Y713639D01*
X127128Y714067D01*
D02*
G37*
G36*
X124303D02*
X122478D01*
X122563Y713639D01*
X123089Y712852D01*
X123875Y712327D01*
X124303Y712242D01*
Y714067D01*
D02*
G37*
G36*
X218610Y410987D02*
Y409161D01*
X220435D01*
X220350Y409589D01*
X219825Y410376D01*
X219038Y410901D01*
X218610Y410987D01*
D02*
G37*
G36*
X217610D02*
X217182Y410901D01*
X216396Y410376D01*
X215870Y409589D01*
X215785Y409161D01*
X217610D01*
Y410987D01*
D02*
G37*
G36*
X220435Y408161D02*
X218610D01*
Y406336D01*
X219038Y406421D01*
X219825Y406947D01*
X220350Y407734D01*
X220435Y408161D01*
D02*
G37*
G36*
X217610D02*
X215785D01*
X215870Y407734D01*
X216396Y406947D01*
X217182Y406421D01*
X217610Y406336D01*
Y408161D01*
D02*
G37*
G36*
X486721Y266157D02*
Y263728D01*
X489149D01*
X489113Y264003D01*
X488813Y264725D01*
X488338Y265346D01*
X487717Y265821D01*
X486995Y266120D01*
X486721Y266157D01*
D02*
G37*
G36*
X485720Y266157D02*
X485445Y266120D01*
X484723Y265821D01*
X484103Y265346D01*
X483628Y264725D01*
X483328Y264003D01*
X483292Y263728D01*
X485720D01*
Y266157D01*
D02*
G37*
G36*
X464567Y264236D02*
X463639Y264051D01*
X462852Y263525D01*
X462729Y263340D01*
X428346D01*
X427761Y263224D01*
X427265Y262893D01*
X425636Y261263D01*
D01*
X403697Y239325D01*
X399476D01*
X399352Y239510D01*
X398566Y240035D01*
X397638Y240220D01*
X396710Y240035D01*
X395923Y239510D01*
X395398Y238723D01*
X395213Y237795D01*
X395398Y236867D01*
X395923Y236081D01*
X396710Y235555D01*
X397638Y235371D01*
X398566Y235555D01*
X399352Y236081D01*
X399476Y236266D01*
X404331D01*
X404916Y236382D01*
X405412Y236714D01*
X425174Y256476D01*
X428980Y260282D01*
X462729D01*
X462852Y260097D01*
X463639Y259571D01*
X464567Y259386D01*
X465495Y259571D01*
X466281Y260097D01*
X466807Y260883D01*
X466992Y261811D01*
X466807Y262739D01*
X466281Y263525D01*
X465495Y264051D01*
X464567Y264236D01*
D02*
G37*
G36*
X476221Y256223D02*
X475446Y256120D01*
X474723Y255821D01*
X474103Y255346D01*
X473628Y254725D01*
X473328Y254003D01*
X473226Y253228D01*
X473328Y252453D01*
X473628Y251731D01*
X474103Y251111D01*
X474723Y250635D01*
X475446Y250336D01*
X476221Y250234D01*
X476995Y250336D01*
X477717Y250635D01*
X478338Y251111D01*
X478814Y251731D01*
X479113Y252453D01*
X479215Y253228D01*
X479113Y254003D01*
X478814Y254725D01*
X478338Y255346D01*
X477717Y255821D01*
X476995Y256120D01*
X476221Y256223D01*
D02*
G37*
G36*
X398031Y245574D02*
X397104Y245390D01*
X396317Y244864D01*
X396194Y244679D01*
X387465D01*
X386755Y245153D01*
X385827Y245338D01*
X384899Y245153D01*
X384112Y244628D01*
X383587Y243841D01*
X383402Y242913D01*
X383587Y241986D01*
X384112Y241199D01*
X384899Y240673D01*
X385827Y240489D01*
X386755Y240673D01*
X387541Y241199D01*
X387823Y241620D01*
X396194D01*
X396317Y241435D01*
X397104Y240910D01*
X398031Y240725D01*
X398959Y240910D01*
X399746Y241435D01*
X400272Y242222D01*
X400456Y243150D01*
X400272Y244077D01*
X399746Y244864D01*
X398959Y245390D01*
X398031Y245574D01*
D02*
G37*
G36*
X486221Y246222D02*
X485445Y246120D01*
X484723Y245821D01*
X484103Y245345D01*
X483628Y244725D01*
X483328Y244003D01*
X483226Y243228D01*
X483328Y242453D01*
X483628Y241731D01*
X484103Y241111D01*
X484723Y240635D01*
X485445Y240336D01*
X486221Y240234D01*
X486995Y240336D01*
X487717Y240635D01*
X488338Y241111D01*
X488813Y241731D01*
X489113Y242453D01*
X489215Y243228D01*
X489113Y244003D01*
X488813Y244725D01*
X488338Y245345D01*
X487717Y245821D01*
X486995Y246120D01*
X486221Y246222D01*
D02*
G37*
G36*
X476221D02*
X475446Y246120D01*
X474723Y245821D01*
X474103Y245345D01*
X473628Y244725D01*
X473328Y244003D01*
X473226Y243228D01*
X473328Y242453D01*
X473628Y241731D01*
X474103Y241111D01*
X474723Y240635D01*
X475446Y240336D01*
X476221Y240234D01*
X476995Y240336D01*
X477717Y240635D01*
X478338Y241111D01*
X478814Y241731D01*
X479113Y242453D01*
X479215Y243228D01*
X479113Y244003D01*
X478814Y244725D01*
X478338Y245345D01*
X477717Y245821D01*
X476995Y246120D01*
X476221Y246222D01*
D02*
G37*
G36*
X486221Y236223D02*
X485445Y236120D01*
X484723Y235821D01*
X484103Y235346D01*
X483628Y234725D01*
X483328Y234003D01*
X483226Y233228D01*
X483328Y232453D01*
X483628Y231731D01*
X484103Y231111D01*
X484723Y230635D01*
X485445Y230336D01*
X486221Y230234D01*
X486995Y230336D01*
X487717Y230635D01*
X488338Y231111D01*
X488813Y231731D01*
X489113Y232453D01*
X489215Y233228D01*
X489113Y234003D01*
X488813Y234725D01*
X488338Y235346D01*
X487717Y235821D01*
X486995Y236120D01*
X486221Y236223D01*
D02*
G37*
G36*
X476221D02*
X475446Y236120D01*
X474723Y235821D01*
X474103Y235346D01*
X473628Y234725D01*
X473328Y234003D01*
X473226Y233228D01*
X473328Y232453D01*
X473628Y231731D01*
X474103Y231111D01*
X474723Y230635D01*
X475446Y230336D01*
X476221Y230234D01*
X476995Y230336D01*
X477717Y230635D01*
X478338Y231111D01*
X478814Y231731D01*
X479113Y232453D01*
X479215Y233228D01*
X479113Y234003D01*
X478814Y234725D01*
X478338Y235346D01*
X477717Y235821D01*
X476995Y236120D01*
X476221Y236223D01*
D02*
G37*
G36*
X486221Y226222D02*
X485445Y226120D01*
X484723Y225821D01*
X484103Y225345D01*
X483628Y224725D01*
X483328Y224003D01*
X483226Y223228D01*
X483328Y222453D01*
X483628Y221731D01*
X484103Y221111D01*
X484723Y220635D01*
X485445Y220336D01*
X486221Y220234D01*
X486995Y220336D01*
X487717Y220635D01*
X488338Y221111D01*
X488813Y221731D01*
X489113Y222453D01*
X489215Y223228D01*
X489113Y224003D01*
X488813Y224725D01*
X488338Y225345D01*
X487717Y225821D01*
X486995Y226120D01*
X486221Y226222D01*
D02*
G37*
G36*
X476221D02*
X475446Y226120D01*
X474723Y225821D01*
X474103Y225345D01*
X473628Y224725D01*
X473328Y224003D01*
X473226Y223228D01*
X473328Y222453D01*
X473628Y221731D01*
X474103Y221111D01*
X474723Y220635D01*
X475446Y220336D01*
X476221Y220234D01*
X476995Y220336D01*
X477717Y220635D01*
X478338Y221111D01*
X478814Y221731D01*
X479113Y222453D01*
X479215Y223228D01*
X479113Y224003D01*
X478814Y224725D01*
X478338Y225345D01*
X477717Y225821D01*
X476995Y226120D01*
X476221Y226222D01*
D02*
G37*
G36*
X352862Y217286D02*
Y215461D01*
X354687D01*
X354602Y215889D01*
X354077Y216675D01*
X353887Y216802D01*
D01*
X353290Y217201D01*
X352862Y217286D01*
D02*
G37*
G36*
X409949Y216105D02*
Y214280D01*
X411774D01*
X411689Y214707D01*
X411163Y215494D01*
X410377Y216020D01*
X409949Y216105D01*
D02*
G37*
G36*
X408949D02*
X408521Y216020D01*
X407734Y215494D01*
X407209Y214707D01*
X407124Y214280D01*
X408949D01*
Y216105D01*
D02*
G37*
G36*
X354687Y214461D02*
X352862D01*
Y212636D01*
X353290Y212721D01*
X354077Y213246D01*
X354602Y214033D01*
X354687Y214461D01*
D02*
G37*
G36*
X351862D02*
X350037D01*
X350122Y214033D01*
X350648Y213246D01*
X351434Y212721D01*
X351862Y212636D01*
Y214461D01*
D02*
G37*
G36*
X411774Y213280D02*
X409949D01*
Y211454D01*
X410377Y211540D01*
X411163Y212065D01*
X411689Y212852D01*
X411774Y213280D01*
D02*
G37*
G36*
X408949D02*
X407124D01*
X407209Y212852D01*
X407734Y212065D01*
X408521Y211540D01*
X408949Y211454D01*
Y213280D01*
D02*
G37*
G36*
X486221Y216223D02*
X485445Y216120D01*
X484723Y215821D01*
X484103Y215346D01*
X483628Y214725D01*
X483328Y214003D01*
X483226Y213228D01*
X483328Y212453D01*
X483628Y211731D01*
X484103Y211111D01*
X484723Y210635D01*
X485445Y210336D01*
X486221Y210234D01*
X486995Y210336D01*
X487717Y210635D01*
X488338Y211111D01*
X488813Y211731D01*
X489113Y212453D01*
X489215Y213228D01*
X489113Y214003D01*
X488813Y214725D01*
X488338Y215346D01*
X487717Y215821D01*
X486995Y216120D01*
X486221Y216223D01*
D02*
G37*
G36*
X476221D02*
X475446Y216120D01*
X474723Y215821D01*
X474103Y215346D01*
X473628Y214725D01*
X473328Y214003D01*
X473226Y213228D01*
X473328Y212453D01*
X473628Y211731D01*
X474103Y211111D01*
X474723Y210635D01*
X475446Y210336D01*
X476221Y210234D01*
X476995Y210336D01*
X477717Y210635D01*
X478338Y211111D01*
X478814Y211731D01*
X479113Y212453D01*
X479215Y213228D01*
X479113Y214003D01*
X478814Y214725D01*
X478338Y215346D01*
X477717Y215821D01*
X476995Y216120D01*
X476221Y216223D01*
D02*
G37*
G36*
X486221Y206223D02*
X485445Y206120D01*
X484723Y205821D01*
X484103Y205346D01*
X483628Y204725D01*
X483328Y204003D01*
X483226Y203228D01*
X483328Y202453D01*
X483628Y201731D01*
X484103Y201111D01*
X484723Y200635D01*
X485445Y200336D01*
X486221Y200234D01*
X486995Y200336D01*
X487717Y200635D01*
X488338Y201111D01*
X488813Y201731D01*
X489113Y202453D01*
X489215Y203228D01*
X489113Y204003D01*
X488813Y204725D01*
X488338Y205346D01*
X487717Y205821D01*
X486995Y206120D01*
X486221Y206223D01*
D02*
G37*
G36*
X476221D02*
X475446Y206120D01*
X474723Y205821D01*
X474103Y205346D01*
X473628Y204725D01*
X473328Y204003D01*
X473226Y203228D01*
X473328Y202453D01*
X473628Y201731D01*
X474103Y201111D01*
X474723Y200635D01*
X475446Y200336D01*
X476221Y200234D01*
X476995Y200336D01*
X477717Y200635D01*
X478338Y201111D01*
X478814Y201731D01*
X479113Y202453D01*
X479215Y203228D01*
X479113Y204003D01*
X478814Y204725D01*
X478338Y205346D01*
X477717Y205821D01*
X476995Y206120D01*
X476221Y206223D01*
D02*
G37*
G36*
X522154Y193270D02*
Y191445D01*
X523979D01*
X523893Y191873D01*
X523368Y192659D01*
X522581Y193185D01*
X522154Y193270D01*
D02*
G37*
G36*
X521153D02*
X520726Y193185D01*
X519939Y192659D01*
X519414Y191873D01*
X519328Y191445D01*
X521153D01*
Y193270D01*
D02*
G37*
G36*
X486221Y196222D02*
X485445Y196121D01*
X484723Y195821D01*
X484103Y195345D01*
X483628Y194725D01*
X483328Y194003D01*
X483226Y193228D01*
X483328Y192453D01*
X483628Y191731D01*
X484103Y191111D01*
X484723Y190635D01*
X485445Y190336D01*
X486221Y190234D01*
X486995Y190336D01*
X487717Y190635D01*
X488338Y191111D01*
X488813Y191731D01*
X489113Y192453D01*
X489215Y193228D01*
X489113Y194003D01*
X488813Y194725D01*
X488338Y195345D01*
X487717Y195821D01*
X486995Y196121D01*
X486221Y196222D01*
D02*
G37*
G36*
X476221D02*
X475446Y196121D01*
X474723Y195821D01*
X474103Y195345D01*
X473628Y194725D01*
X473328Y194003D01*
X473226Y193228D01*
X473328Y192453D01*
X473628Y191731D01*
X474103Y191111D01*
X474723Y190635D01*
X475446Y190336D01*
X476221Y190234D01*
X476995Y190336D01*
X477717Y190635D01*
X478338Y191111D01*
X478814Y191731D01*
X479113Y192453D01*
X479215Y193228D01*
X479113Y194003D01*
X478814Y194725D01*
X478338Y195345D01*
X477717Y195821D01*
X476995Y196121D01*
X476221Y196222D01*
D02*
G37*
G36*
X523979Y190445D02*
X522154D01*
Y188620D01*
X522581Y188705D01*
X523368Y189231D01*
X523893Y190017D01*
X523979Y190445D01*
D02*
G37*
G36*
X521153D02*
X519328D01*
X519414Y190017D01*
X519939Y189231D01*
X520726Y188705D01*
X521153Y188620D01*
Y190445D01*
D02*
G37*
G36*
X486221Y186223D02*
X485445Y186120D01*
X484723Y185821D01*
X484103Y185345D01*
X483628Y184725D01*
X483328Y184003D01*
X483226Y183228D01*
X483328Y182453D01*
X483628Y181731D01*
X484103Y181111D01*
X484723Y180635D01*
X485445Y180336D01*
X486221Y180234D01*
X486995Y180336D01*
X487717Y180635D01*
X488338Y181111D01*
X488813Y181731D01*
X489113Y182453D01*
X489215Y183228D01*
X489113Y184003D01*
X488813Y184725D01*
X488338Y185345D01*
X487717Y185821D01*
X486995Y186120D01*
X486221Y186223D01*
D02*
G37*
G36*
X476221D02*
X475446Y186120D01*
X474723Y185821D01*
X474103Y185345D01*
X473628Y184725D01*
X473328Y184003D01*
X473226Y183228D01*
X473328Y182453D01*
X473628Y181731D01*
X474103Y181111D01*
X474723Y180635D01*
X475446Y180336D01*
X476221Y180234D01*
X476995Y180336D01*
X477717Y180635D01*
X478338Y181111D01*
X478814Y181731D01*
X479113Y182453D01*
X479215Y183228D01*
X479113Y184003D01*
X478814Y184725D01*
X478338Y185345D01*
X477717Y185821D01*
X476995Y186120D01*
X476221Y186223D01*
D02*
G37*
G36*
X486221Y176223D02*
X485445Y176120D01*
X484723Y175821D01*
X484103Y175346D01*
X483628Y174725D01*
X483328Y174003D01*
X483226Y173228D01*
X483328Y172453D01*
X483628Y171731D01*
X484103Y171111D01*
X484723Y170635D01*
X485445Y170336D01*
X486221Y170234D01*
X486995Y170336D01*
X487717Y170635D01*
X488338Y171111D01*
X488813Y171731D01*
X489113Y172453D01*
X489215Y173228D01*
X489113Y174003D01*
X488813Y174725D01*
X488338Y175346D01*
X487717Y175821D01*
X486995Y176120D01*
X486221Y176223D01*
D02*
G37*
G36*
X476221D02*
X475446Y176120D01*
X474723Y175821D01*
X474103Y175346D01*
X473628Y174725D01*
X473328Y174003D01*
X473226Y173228D01*
X473328Y172453D01*
X473628Y171731D01*
X474103Y171111D01*
X474723Y170635D01*
X475446Y170336D01*
X476221Y170234D01*
X476995Y170336D01*
X477717Y170635D01*
X478338Y171111D01*
X478814Y171731D01*
X479113Y172453D01*
X479215Y173228D01*
X479113Y174003D01*
X478814Y174725D01*
X478338Y175346D01*
X477717Y175821D01*
X476995Y176120D01*
X476221Y176223D01*
D02*
G37*
G36*
X612713Y167535D02*
X606382D01*
Y156087D01*
X612713D01*
Y167535D01*
D02*
G37*
G36*
X650894Y130672D02*
Y128847D01*
X652719D01*
X652634Y129274D01*
X652108Y130061D01*
X651322Y130586D01*
X650894Y130672D01*
D02*
G37*
G36*
X649894D02*
X649466Y130586D01*
X648679Y130061D01*
X648154Y129274D01*
X648069Y128847D01*
X649894D01*
Y130672D01*
D02*
G37*
G36*
X652719Y127847D02*
X650894D01*
Y126021D01*
X651322Y126107D01*
X652108Y126632D01*
X652634Y127419D01*
X652719Y127847D01*
D02*
G37*
G36*
X649894D02*
X648069D01*
X648154Y127419D01*
X648679Y126632D01*
X649466Y126107D01*
X649894Y126021D01*
Y127847D01*
D02*
G37*
G36*
X218610Y296813D02*
Y294988D01*
X220435D01*
X220350Y295416D01*
X219825Y296203D01*
X219038Y296728D01*
X218610Y296813D01*
D02*
G37*
G36*
X217610D02*
X217182Y296728D01*
X216396Y296203D01*
X215870Y295416D01*
X215785Y294988D01*
X217610D01*
Y296813D01*
D02*
G37*
G36*
X220435Y293988D02*
X218610D01*
Y292163D01*
X219038Y292248D01*
X219825Y292774D01*
X220350Y293560D01*
X220435Y293988D01*
D02*
G37*
G36*
X217610D02*
X215785D01*
X215870Y293560D01*
X216396Y292774D01*
X217182Y292248D01*
X217610Y292163D01*
Y293988D01*
D02*
G37*
G36*
X242913Y273684D02*
X241986Y273500D01*
X241199Y272974D01*
X240673Y272188D01*
X240489Y271260D01*
X240673Y270332D01*
X240890Y270007D01*
Y268684D01*
X240793Y268606D01*
X240124Y268707D01*
X239903Y269037D01*
X239117Y269563D01*
X238189Y269747D01*
X237261Y269563D01*
X236475Y269037D01*
X235949Y268251D01*
X235764Y267323D01*
X235949Y266395D01*
X236166Y266070D01*
Y251252D01*
X235949Y250928D01*
X235764Y250000D01*
X235949Y249072D01*
X236475Y248286D01*
X237261Y247760D01*
X238189Y247575D01*
X239117Y247760D01*
X239903Y248286D01*
X240254Y248811D01*
X240848D01*
X241199Y248286D01*
X241986Y247760D01*
X242913Y247575D01*
X243841Y247760D01*
X244628Y248286D01*
X245153Y249072D01*
X245338Y250000D01*
X245153Y250928D01*
X244936Y251252D01*
Y270007D01*
X245153Y270332D01*
X245338Y271260D01*
X245153Y272188D01*
X244628Y272974D01*
X243841Y273500D01*
X242913Y273684D01*
D02*
G37*
G36*
X316220Y266223D02*
X315445Y266120D01*
X314723Y265821D01*
X314103Y265346D01*
X313628Y264725D01*
X313328Y264003D01*
X313226Y263228D01*
X313328Y262453D01*
X313628Y261731D01*
X314103Y261111D01*
X314723Y260635D01*
X315445Y260336D01*
X316220Y260234D01*
X316995Y260336D01*
X317718Y260635D01*
X318338Y261111D01*
X318813Y261731D01*
X319113Y262453D01*
X319215Y263228D01*
X319113Y264003D01*
X318813Y264725D01*
X318338Y265346D01*
X317718Y265821D01*
X316995Y266120D01*
X316220Y266223D01*
D02*
G37*
G36*
X316721Y256157D02*
Y253728D01*
X319149D01*
X319113Y254003D01*
X318813Y254725D01*
X318338Y255346D01*
X317718Y255821D01*
X316995Y256120D01*
X316721Y256157D01*
D02*
G37*
G36*
X315721Y256157D02*
X315445Y256120D01*
X314723Y255821D01*
X314103Y255346D01*
X313628Y254725D01*
X313328Y254003D01*
X313292Y253728D01*
X315721D01*
Y256157D01*
D02*
G37*
G36*
X319149Y252728D02*
X316721D01*
Y250300D01*
X316995Y250336D01*
X317718Y250635D01*
X318338Y251111D01*
X318813Y251731D01*
X319113Y252453D01*
X319149Y252728D01*
D02*
G37*
G36*
X315721D02*
X313292D01*
X313328Y252453D01*
X313628Y251731D01*
X314103Y251111D01*
X314723Y250635D01*
X315445Y250336D01*
X315721Y250300D01*
Y252728D01*
D02*
G37*
G36*
X306221Y256223D02*
X305446Y256120D01*
X304723Y255821D01*
X304103Y255346D01*
X303627Y254725D01*
X303328Y254003D01*
X303226Y253228D01*
X303328Y252453D01*
X303627Y251731D01*
X304103Y251111D01*
X304723Y250635D01*
X305446Y250336D01*
X306221Y250234D01*
X306995Y250336D01*
X307717Y250635D01*
X308338Y251111D01*
X308814Y251731D01*
X309113Y252453D01*
X309215Y253228D01*
X309113Y254003D01*
X308814Y254725D01*
X308338Y255346D01*
X307717Y255821D01*
X306995Y256120D01*
X306221Y256223D01*
D02*
G37*
G36*
X218610Y250750D02*
Y248925D01*
X220435D01*
X220350Y249353D01*
X219825Y250140D01*
X219038Y250665D01*
X218610Y250750D01*
D02*
G37*
G36*
X217610D02*
X217182Y250665D01*
X216396Y250140D01*
X215870Y249353D01*
X215785Y248925D01*
X217610D01*
Y250750D01*
D02*
G37*
G36*
X220435Y247925D02*
X218610D01*
Y246100D01*
X219038Y246185D01*
X219825Y246711D01*
X220350Y247497D01*
X220435Y247925D01*
D02*
G37*
G36*
X217610D02*
X215785D01*
X215870Y247497D01*
X216396Y246711D01*
X217182Y246185D01*
X217610Y246100D01*
Y247925D01*
D02*
G37*
G36*
X259555Y247601D02*
Y245776D01*
X261380D01*
X261295Y246203D01*
X260770Y246990D01*
X259983Y247516D01*
X259555Y247601D01*
D02*
G37*
G36*
X258555D02*
X258127Y247516D01*
X257341Y246990D01*
X256815Y246203D01*
X256730Y245776D01*
X258555D01*
Y247601D01*
D02*
G37*
G36*
X317717Y249167D02*
X314961D01*
X314375Y249051D01*
X313879Y248719D01*
X309996Y244836D01*
X308728D01*
X308338Y245345D01*
X307717Y245821D01*
X306995Y246120D01*
X306221Y246222D01*
X305446Y246120D01*
X304723Y245821D01*
X304103Y245345D01*
X303627Y244725D01*
X303328Y244003D01*
X303226Y243228D01*
X303328Y242453D01*
X303627Y241731D01*
X304103Y241111D01*
X304723Y240635D01*
X305446Y240336D01*
X306221Y240234D01*
X306995Y240336D01*
X307717Y240635D01*
X308338Y241111D01*
X308814Y241731D01*
X308833Y241778D01*
X310630D01*
X311215Y241894D01*
X311711Y242226D01*
X312761Y243275D01*
X313249Y243056D01*
X313328Y242453D01*
X313628Y241731D01*
X314103Y241111D01*
X314723Y240635D01*
X315445Y240336D01*
X316220Y240234D01*
X316995Y240336D01*
X317718Y240635D01*
X318338Y241111D01*
X318813Y241731D01*
X319113Y242453D01*
X319215Y243228D01*
X319208Y243276D01*
X319682Y243510D01*
X320572Y242619D01*
X321068Y242288D01*
X321654Y242171D01*
X330839D01*
X330963Y241986D01*
X331749Y241461D01*
X332677Y241276D01*
X333605Y241461D01*
X334392Y241986D01*
X334917Y242773D01*
X335102Y243701D01*
X334917Y244629D01*
X334392Y245415D01*
X333605Y245941D01*
X332677Y246125D01*
X331749Y245941D01*
X330963Y245415D01*
X330839Y245230D01*
X322287D01*
X318798Y248719D01*
X318302Y249051D01*
X317717Y249167D01*
D02*
G37*
G36*
X261380Y244776D02*
X259555D01*
Y242951D01*
X259983Y243036D01*
X260770Y243561D01*
X261295Y244348D01*
X261380Y244776D01*
D02*
G37*
G36*
X258555D02*
X256730D01*
X256815Y244348D01*
X257341Y243561D01*
X258127Y243036D01*
X258555Y242951D01*
Y244776D01*
D02*
G37*
G36*
X316220Y236223D02*
X315445Y236120D01*
X314723Y235821D01*
X314103Y235346D01*
X313628Y234725D01*
X313328Y234003D01*
X313226Y233228D01*
X313268Y232909D01*
X312795Y232675D01*
X311318Y234152D01*
X310822Y234484D01*
X310236Y234600D01*
X308865D01*
X308814Y234725D01*
X308338Y235346D01*
X307717Y235821D01*
X306995Y236120D01*
X306221Y236223D01*
X305446Y236120D01*
X304723Y235821D01*
X304103Y235346D01*
X303627Y234725D01*
X303328Y234003D01*
X303226Y233228D01*
X303328Y232453D01*
X303627Y231731D01*
X304103Y231111D01*
X304723Y230635D01*
X305446Y230336D01*
X306221Y230234D01*
X306995Y230336D01*
X307717Y230635D01*
X308338Y231111D01*
X308668Y231541D01*
X309603D01*
X313879Y227265D01*
X314375Y226934D01*
X314961Y226817D01*
X318110D01*
X318695Y226934D01*
X319192Y227265D01*
X323468Y231541D01*
X330839D01*
X330963Y231357D01*
X331749Y230831D01*
X332677Y230646D01*
X333605Y230831D01*
X334392Y231357D01*
X334917Y232143D01*
X335102Y233071D01*
X334917Y233999D01*
X334392Y234785D01*
X333605Y235311D01*
X332677Y235495D01*
X331749Y235311D01*
X330963Y234785D01*
X330839Y234600D01*
X322835D01*
X322249Y234484D01*
X321753Y234152D01*
X319371Y231770D01*
X318947Y232053D01*
X319113Y232453D01*
X319215Y233228D01*
X319113Y234003D01*
X318813Y234725D01*
X318338Y235346D01*
X317718Y235821D01*
X316995Y236120D01*
X316220Y236223D01*
D02*
G37*
G36*
X263886Y226734D02*
Y224909D01*
X265711D01*
X265626Y225337D01*
X265100Y226124D01*
X264314Y226649D01*
X263886Y226734D01*
D02*
G37*
G36*
X262886D02*
X262458Y226649D01*
X261671Y226124D01*
X261146Y225337D01*
X261061Y224909D01*
X262886D01*
Y226734D01*
D02*
G37*
G36*
X265711Y223909D02*
X263886D01*
Y222084D01*
X264314Y222169D01*
X265100Y222695D01*
X265626Y223482D01*
X265711Y223909D01*
D02*
G37*
G36*
X262886D02*
X261061D01*
X261146Y223482D01*
X261671Y222695D01*
X262458Y222169D01*
X262886Y222084D01*
Y223909D01*
D02*
G37*
G36*
X316220Y226222D02*
X315445Y226120D01*
X314723Y225821D01*
X314103Y225345D01*
X313628Y224725D01*
X313328Y224003D01*
X313226Y223228D01*
X313328Y222453D01*
X313628Y221731D01*
X314103Y221111D01*
X314723Y220635D01*
X315445Y220336D01*
X316220Y220234D01*
X316995Y220336D01*
X317718Y220635D01*
X318338Y221111D01*
X318813Y221731D01*
X319113Y222453D01*
X319215Y223228D01*
X319113Y224003D01*
X318813Y224725D01*
X318338Y225345D01*
X317718Y225821D01*
X316995Y226120D01*
X316220Y226222D01*
D02*
G37*
G36*
X306221D02*
X305446Y226120D01*
X304723Y225821D01*
X304103Y225345D01*
X303627Y224725D01*
X303328Y224003D01*
X303226Y223228D01*
X303328Y222453D01*
X303627Y221731D01*
X304103Y221111D01*
X304723Y220635D01*
X305446Y220336D01*
X306221Y220234D01*
X306995Y220336D01*
X307717Y220635D01*
X308338Y221111D01*
X308814Y221731D01*
X309113Y222453D01*
X309215Y223228D01*
X309113Y224003D01*
X308814Y224725D01*
X308338Y225345D01*
X307717Y225821D01*
X306995Y226120D01*
X306221Y226222D01*
D02*
G37*
G36*
X316220Y216223D02*
X315445Y216120D01*
X314723Y215821D01*
X314103Y215346D01*
X313628Y214725D01*
X313328Y214003D01*
X313226Y213228D01*
X313328Y212453D01*
X313628Y211731D01*
X314103Y211111D01*
X314723Y210635D01*
X315445Y210336D01*
X316220Y210234D01*
X316995Y210336D01*
X317718Y210635D01*
X318338Y211111D01*
X318813Y211731D01*
X319113Y212453D01*
X319215Y213228D01*
X319113Y214003D01*
X318813Y214725D01*
X318338Y215346D01*
X317718Y215821D01*
X316995Y216120D01*
X316220Y216223D01*
D02*
G37*
G36*
X306221D02*
X305446Y216120D01*
X304723Y215821D01*
X304103Y215346D01*
X303627Y214725D01*
X303328Y214003D01*
X303226Y213228D01*
X303328Y212453D01*
X303627Y211731D01*
X304103Y211111D01*
X304723Y210635D01*
X305446Y210336D01*
X306221Y210234D01*
X306995Y210336D01*
X307717Y210635D01*
X308338Y211111D01*
X308814Y211731D01*
X309113Y212453D01*
X309215Y213228D01*
X309113Y214003D01*
X308814Y214725D01*
X308474Y215167D01*
D01*
X308338Y215346D01*
X307717Y215821D01*
X306995Y216120D01*
X306221Y216223D01*
D02*
G37*
G36*
X316220Y206223D02*
X315445Y206120D01*
X314723Y205821D01*
X314103Y205346D01*
X313628Y204725D01*
X313328Y204003D01*
X313226Y203228D01*
X313328Y202453D01*
X313628Y201731D01*
X314103Y201111D01*
X314723Y200635D01*
X315445Y200336D01*
X316220Y200234D01*
X316995Y200336D01*
X317718Y200635D01*
X318338Y201111D01*
X318813Y201731D01*
X319113Y202453D01*
X319215Y203228D01*
X319113Y204003D01*
X318813Y204725D01*
X318338Y205346D01*
X317718Y205821D01*
X316995Y206120D01*
X316220Y206223D01*
D02*
G37*
G36*
X306221D02*
X305446Y206120D01*
X304723Y205821D01*
X304103Y205346D01*
X303627Y204725D01*
X303328Y204003D01*
X303226Y203228D01*
X303328Y202453D01*
X303627Y201731D01*
X304103Y201111D01*
X304723Y200635D01*
X305446Y200336D01*
X306221Y200234D01*
X306995Y200336D01*
X307717Y200635D01*
X308338Y201111D01*
X308814Y201731D01*
X309113Y202453D01*
X309215Y203228D01*
X309113Y204003D01*
X308814Y204725D01*
X308338Y205346D01*
X307717Y205821D01*
X306995Y206120D01*
X306221Y206223D01*
D02*
G37*
G36*
X316220Y196222D02*
X315445Y196121D01*
X314723Y195821D01*
X314103Y195345D01*
X313628Y194725D01*
X313328Y194003D01*
X313226Y193228D01*
X313328Y192453D01*
X313628Y191731D01*
X314103Y191111D01*
X314723Y190635D01*
X315445Y190336D01*
X316220Y190234D01*
X316995Y190336D01*
X317718Y190635D01*
X318338Y191111D01*
X318813Y191731D01*
X319113Y192453D01*
X319215Y193228D01*
X319113Y194003D01*
X318813Y194725D01*
X318338Y195345D01*
X317718Y195821D01*
X316995Y196121D01*
X316220Y196222D01*
D02*
G37*
G36*
X306221D02*
X305446Y196121D01*
X304723Y195821D01*
X304103Y195345D01*
X303627Y194725D01*
X303328Y194003D01*
X303226Y193228D01*
X303328Y192453D01*
X303627Y191731D01*
X304103Y191111D01*
X304723Y190635D01*
X305446Y190336D01*
X306221Y190234D01*
X306995Y190336D01*
X307717Y190635D01*
X308338Y191111D01*
X308814Y191731D01*
X309113Y192453D01*
X309215Y193228D01*
X309113Y194003D01*
X308814Y194725D01*
X308338Y195345D01*
X307717Y195821D01*
X306995Y196121D01*
X306221Y196222D01*
D02*
G37*
G36*
X174122Y155081D02*
Y153256D01*
X175947D01*
X175862Y153684D01*
X175337Y154470D01*
X174550Y154996D01*
X174122Y155081D01*
D02*
G37*
G36*
X173122D02*
X172694Y154996D01*
X171908Y154470D01*
X171382Y153684D01*
X171297Y153256D01*
X173122D01*
Y155081D01*
D02*
G37*
G36*
X175947Y152256D02*
X174122D01*
Y150431D01*
X174550Y150516D01*
X175337Y151041D01*
X175862Y151828D01*
X175947Y152256D01*
D02*
G37*
G36*
X173122D02*
X171297D01*
X171382Y151828D01*
X171908Y151041D01*
X172694Y150516D01*
X173122Y150431D01*
Y152256D01*
D02*
G37*
%LPD*%
D11*
X546063Y113386D02*
X644882D01*
X540158Y119291D02*
X546063Y113386D01*
X381890Y119291D02*
X540158D01*
X322835Y178347D02*
X381890Y119291D01*
X646063Y114567D02*
Y118504D01*
X644882Y113386D02*
X646063Y114567D01*
X641732Y118504D02*
X641732Y118504D01*
X650394D02*
X650721Y118177D01*
X659055Y114173D02*
X660630Y112598D01*
X663386D01*
X650721Y115027D02*
X652756Y112992D01*
X650721Y115027D02*
Y118177D01*
X637402Y118504D02*
X637402Y118504D01*
X670472D02*
X672047Y116929D01*
X668571Y118504D02*
X670472D01*
X637402Y118504D02*
Y125197D01*
X659055Y114173D02*
Y118504D01*
X667717Y117650D02*
X668571Y118504D01*
X667717Y117650D02*
Y118504D01*
X641732Y118504D02*
Y125197D01*
X593429Y680043D02*
X601187D01*
X590551Y677165D02*
X593429Y680043D01*
X601187D02*
X604064Y677165D01*
X606299D01*
X595669D02*
X600551D01*
X614961D02*
X620551D01*
X625591D02*
X630551D01*
X615748Y517323D02*
X615906Y517165D01*
X620551D01*
X605512Y517323D02*
X605669Y517165D01*
X610551D01*
X595276Y517323D02*
X595433Y517165D01*
X600551D01*
X375512Y677165D02*
X380315D01*
X385512D02*
X390158D01*
X400000D02*
X405512D01*
X410630D02*
X415512D01*
X409685Y517165D02*
X409842Y517323D01*
X405512Y517165D02*
X409685D01*
X395669Y517323D02*
X400394D01*
X395512Y517165D02*
X395669Y517323D01*
X380709D02*
X380866Y517165D01*
X385512D01*
X195669Y676772D02*
X195827Y676929D01*
X200787D01*
X185433Y676772D02*
X185591Y676929D01*
X190787D01*
X165748Y676772D02*
X165905Y676929D01*
X170787D01*
X156299Y676772D02*
X160630D01*
X160787Y676929D01*
X170787Y516929D02*
X175591D01*
X180787D02*
X185433D01*
X190787D02*
X195669D01*
X301181Y208661D02*
Y225591D01*
X296335Y230437D02*
X301181Y225591D01*
X296335Y230437D02*
Y243712D01*
X306221Y243307D02*
X310630D01*
X294335Y257327D02*
X300236Y263228D01*
X294335Y185980D02*
X301969Y178347D01*
X296335Y243712D02*
X301181Y248558D01*
X294335Y185980D02*
Y257327D01*
X754401Y385890D02*
X757283Y383008D01*
Y360236D02*
Y383008D01*
X301181Y248558D02*
Y257874D01*
X300236Y263228D02*
X306221D01*
X242913Y271260D02*
X242995D01*
X301969Y178347D02*
X322835D01*
X340945Y201575D02*
Y209055D01*
X332677Y193307D02*
X340945Y201575D01*
Y209055D02*
X398819Y266929D01*
X334252Y210630D02*
X394216Y270595D01*
X334252Y203150D02*
Y210630D01*
X398819Y266929D02*
X452756D01*
X397638Y237795D02*
X404331D01*
X428346Y261811D01*
X386063Y243150D02*
X398031D01*
X385827Y242913D02*
X386063Y243150D01*
X458661Y266929D02*
X465748D01*
X473228Y259449D01*
X388189Y273622D02*
X464961D01*
X326772Y212205D02*
X388189Y273622D01*
X326772Y183071D02*
Y212205D01*
X318110Y228346D02*
X322835Y233071D01*
X332677D01*
X314961Y228346D02*
X318110D01*
X394216Y270595D02*
X467445D01*
X470472Y273622D01*
X428346Y261811D02*
X464567D01*
X328740Y154724D02*
X330315Y156299D01*
X318898Y154724D02*
X328740D01*
X310630Y164961D02*
X322835D01*
X324520Y159449D02*
X325702Y160630D01*
X314961Y159449D02*
X324520D01*
X325702Y160630D02*
X325984D01*
X306221Y233071D02*
X310236D01*
X473228Y259449D02*
X485433D01*
X490158Y254724D01*
X748032Y399606D02*
X767717D01*
X748032Y387795D02*
X749937Y385890D01*
X754401D01*
X755279Y365122D02*
Y373854D01*
X753150Y362992D02*
X755279Y365122D01*
X748032Y362992D02*
X753150D01*
Y375984D02*
X755279Y373854D01*
X748032Y375984D02*
X753150D01*
X490158Y248031D02*
Y254724D01*
Y248031D02*
X495276Y242913D01*
X310236Y233071D02*
X314961Y228346D01*
X317717Y247638D02*
X321654Y243701D01*
X314961Y247638D02*
X317717D01*
X310630Y243307D02*
X314961Y247638D01*
X321654Y243701D02*
X332677D01*
X188976Y481890D02*
X195276Y475591D01*
X197244D01*
X539370Y107480D02*
Y114173D01*
D12*
X611909Y131791D02*
Y156398D01*
X670768Y131693D02*
Y156496D01*
X611909Y179134D02*
X670768D01*
X611909Y167224D02*
Y179134D01*
X670768Y167224D02*
Y179134D01*
X566732Y411614D02*
G03*
X566732Y411614I-1969J0D01*
G01*
X400984Y412795D02*
G03*
X400984Y412795I-1969J0D01*
G01*
X242323Y414764D02*
G03*
X242323Y414764I-1969J0D01*
G01*
X246457Y230709D02*
G03*
X246457Y230709I-1969J0D01*
G01*
X647638Y481595D02*
Y490059D01*
X653150Y481595D02*
Y490059D01*
X647638D02*
X653150D01*
X647638Y481595D02*
X653150D01*
X627953D02*
Y490059D01*
X633465Y481595D02*
Y490059D01*
X627953D02*
X633465D01*
X627953Y481595D02*
X633465D01*
X608661D02*
Y490059D01*
X614173Y481595D02*
Y490059D01*
X608661D02*
X614173D01*
X608661Y481595D02*
X614173D01*
X588189D02*
Y490059D01*
X593701Y481595D02*
Y490059D01*
X588189D02*
X593701D01*
X588189Y481595D02*
X593701D01*
X568504D02*
Y490059D01*
X574016Y481595D02*
Y490059D01*
X568504D02*
X574016D01*
X568504Y481595D02*
X574016D01*
X546850Y481201D02*
Y489665D01*
X552362Y481201D02*
Y489665D01*
X546850D02*
X552362D01*
X546850Y481201D02*
X552362D01*
X668898Y481595D02*
Y490059D01*
X674409Y481595D02*
Y490059D01*
X668898D02*
X674409D01*
X668898Y481595D02*
X674409D01*
X548228Y408071D02*
X568307D01*
X548228Y425787D02*
X568307D01*
Y408071D02*
Y425787D01*
X548228Y408071D02*
Y425787D01*
X372047Y481201D02*
Y489665D01*
X377559Y481201D02*
Y489665D01*
X372047D02*
X377559D01*
X372047Y481201D02*
X377559D01*
X392126D02*
Y489665D01*
X397638Y481201D02*
Y489665D01*
X392126D02*
X397638D01*
X392126Y481201D02*
X397638D01*
X411811D02*
Y489665D01*
X417323Y481201D02*
Y489665D01*
X411811D02*
X417323D01*
X411811Y481201D02*
X417323D01*
X351969D02*
Y489665D01*
X357480Y481201D02*
Y489665D01*
X351969D02*
X357480D01*
X351969Y481201D02*
X357480D01*
X331496D02*
Y489665D01*
X337008Y481201D02*
Y489665D01*
X331496D02*
X337008D01*
X331496Y481201D02*
X337008D01*
X432283Y481299D02*
Y489764D01*
X437795Y481299D02*
Y489764D01*
X432283D02*
X437795D01*
X432283Y481299D02*
X437795D01*
X453937Y481201D02*
Y489665D01*
X459449Y481201D02*
Y489665D01*
X453937D02*
X459449D01*
X453937Y481201D02*
X459449D01*
X382480Y409252D02*
X402559D01*
X382480Y426968D02*
X402559D01*
Y409252D02*
Y426968D01*
X382480Y409252D02*
Y426968D01*
X223819Y411221D02*
X243898D01*
X223819Y428937D02*
X243898D01*
Y411221D02*
Y428937D01*
X223819Y411221D02*
Y428937D01*
X117323Y481201D02*
Y489665D01*
X122835Y481201D02*
Y489665D01*
X117323D02*
X122835D01*
X117323Y481201D02*
X122835D01*
X137402D02*
Y489665D01*
X142913Y481201D02*
Y489665D01*
X137402D02*
X142913D01*
X137402Y481201D02*
X142913D01*
X157480D02*
Y489665D01*
X162992Y481201D02*
Y489665D01*
X157480D02*
X162992D01*
X157480Y481201D02*
X162992D01*
X178347D02*
Y489665D01*
X183858Y481201D02*
Y489665D01*
X178347D02*
X183858D01*
X178347Y481201D02*
X183858D01*
X200000D02*
Y489665D01*
X205512Y481201D02*
Y489665D01*
X200000D02*
X205512D01*
X200000Y481201D02*
X205512D01*
X219685D02*
Y489665D01*
X225197Y481201D02*
Y489665D01*
X219685D02*
X225197D01*
X219685Y481201D02*
X225197D01*
X239370D02*
X244882D01*
X239370Y489665D02*
X244882D01*
Y481201D02*
Y489665D01*
X239370Y481201D02*
Y489665D01*
X277067Y242618D02*
Y249508D01*
X273327Y242618D02*
Y249508D01*
Y242618D02*
X277067D01*
X273327Y249508D02*
X277067D01*
X282874Y242717D02*
X286417D01*
X282874Y249410D02*
X286417D01*
Y242717D02*
Y249410D01*
X282874Y242717D02*
Y249410D01*
X182087Y221457D02*
X185630D01*
X182087Y228150D02*
X185630D01*
Y221457D02*
Y228150D01*
X182087Y221457D02*
Y228150D01*
X216339Y231693D02*
X219882D01*
X216339Y238386D02*
X219882D01*
Y231693D02*
Y238386D01*
X216339Y231693D02*
Y238386D01*
X191732Y220866D02*
X195669D01*
X191732Y227953D02*
X195669D01*
Y220866D02*
Y227953D01*
X191732Y220866D02*
Y227953D01*
X232283Y214567D02*
X248031D01*
X232283Y234252D02*
X248031D01*
X232283Y214567D02*
Y234252D01*
X248031Y214567D02*
Y234252D01*
X648425Y485827D02*
X652362D01*
X650394Y483858D02*
Y487795D01*
X628740Y485827D02*
X632677D01*
X630709Y483858D02*
Y487795D01*
X609449Y485827D02*
X613386D01*
X611417Y483858D02*
Y487795D01*
X588976Y485827D02*
X592913D01*
X590945Y483858D02*
Y487795D01*
X569291Y485827D02*
X573228D01*
X571260Y483858D02*
Y487795D01*
X547638Y485433D02*
X551575D01*
X549606Y483465D02*
Y487402D01*
X669685Y485827D02*
X673622D01*
X671654Y483858D02*
Y487795D01*
X558268Y414961D02*
Y418898D01*
X556299Y416929D02*
X560236D01*
X372835Y485433D02*
X376772D01*
X374803Y483465D02*
Y487402D01*
X392913Y485433D02*
X396850D01*
X394882Y483465D02*
Y487402D01*
X412598Y485433D02*
X416535D01*
X414567Y483465D02*
Y487402D01*
X352756Y485433D02*
X356693D01*
X354724Y483465D02*
Y487402D01*
X332283Y485433D02*
X336221D01*
X334252Y483465D02*
Y487402D01*
X433071Y485532D02*
X437008D01*
X435039Y483563D02*
Y487500D01*
X454724Y485433D02*
X458661D01*
X456693Y483465D02*
Y487402D01*
X392520Y416142D02*
Y420079D01*
X390551Y418110D02*
X394488D01*
X233858D02*
Y422047D01*
X231890Y420079D02*
X235827D01*
X118110Y485433D02*
X122047D01*
X120079Y483465D02*
Y487402D01*
X138189Y485433D02*
X142126D01*
X140157Y483465D02*
Y487402D01*
X158268Y485433D02*
X162205D01*
X160236Y483465D02*
Y487402D01*
X179134Y485433D02*
X183071D01*
X181102Y483465D02*
Y487402D01*
X200787Y485433D02*
X204724D01*
X202756Y483465D02*
Y487402D01*
X220472Y485433D02*
X224410D01*
X222441Y483465D02*
Y487402D01*
X242126Y483465D02*
Y487402D01*
X240158Y485433D02*
X244094D01*
X273327Y246063D02*
X277067D01*
X275197Y244193D02*
Y247933D01*
X284646Y244291D02*
Y247835D01*
X282874Y246063D02*
X286417D01*
X183858Y223031D02*
Y226575D01*
X182087Y224803D02*
X185630D01*
X218110Y233268D02*
Y236811D01*
X216339Y235039D02*
X219882D01*
X193701Y222441D02*
Y226378D01*
X191732Y224410D02*
X195669D01*
X240158Y222441D02*
Y226378D01*
X238189Y224410D02*
X242126D01*
D13*
X650591Y140256D02*
D03*
D14*
X646654Y479134D02*
Y492520D01*
X654134Y479134D02*
Y492520D01*
X646654D02*
X654134D01*
X646654Y479134D02*
X654134D01*
X626968D02*
Y492520D01*
X634449Y479134D02*
Y492520D01*
X626968D02*
X634449D01*
X626968Y479134D02*
X634449D01*
X607677D02*
Y492520D01*
X615158Y479134D02*
Y492520D01*
X607677D02*
X615158D01*
X607677Y479134D02*
X615158D01*
X587205D02*
Y492520D01*
X594685Y479134D02*
Y492520D01*
X587205D02*
X594685D01*
X587205Y479134D02*
X594685D01*
X567520D02*
Y492520D01*
X575000Y479134D02*
Y492520D01*
X567520D02*
X575000D01*
X567520Y479134D02*
X575000D01*
X545866Y478740D02*
Y492126D01*
X553346Y478740D02*
Y492126D01*
X545866D02*
X553346D01*
X545866Y478740D02*
X553346D01*
X667913Y479134D02*
Y492520D01*
X675394Y479134D02*
Y492520D01*
X667913D02*
X675394D01*
X667913Y479134D02*
X675394D01*
X547244Y401575D02*
X569291D01*
X547244Y432283D02*
X569291D01*
Y401575D02*
Y432283D01*
X547244Y401575D02*
Y432283D01*
X371063Y478740D02*
Y492126D01*
X378543Y478740D02*
Y492126D01*
X371063D02*
X378543D01*
X371063Y478740D02*
X378543D01*
X391142D02*
Y492126D01*
X398622Y478740D02*
Y492126D01*
X391142D02*
X398622D01*
X391142Y478740D02*
X398622D01*
X410827D02*
Y492126D01*
X418307Y478740D02*
Y492126D01*
X410827D02*
X418307D01*
X410827Y478740D02*
X418307D01*
X350984D02*
Y492126D01*
X358465Y478740D02*
Y492126D01*
X350984D02*
X358465D01*
X350984Y478740D02*
X358465D01*
X330512D02*
Y492126D01*
X337992Y478740D02*
Y492126D01*
X330512D02*
X337992D01*
X330512Y478740D02*
X337992D01*
X431299Y478839D02*
Y492224D01*
X438779Y478839D02*
Y492224D01*
X431299D02*
X438779D01*
X431299Y478839D02*
X438779D01*
X452953Y478740D02*
Y492126D01*
X460433Y478740D02*
Y492126D01*
X452953D02*
X460433D01*
X452953Y478740D02*
X460433D01*
X381496Y402756D02*
X403543D01*
X381496Y433465D02*
X403543D01*
Y402756D02*
Y433465D01*
X381496Y402756D02*
Y433465D01*
X222835Y404724D02*
X244882D01*
X222835Y435433D02*
X244882D01*
Y404724D02*
Y435433D01*
X222835Y404724D02*
Y435433D01*
X116339Y478740D02*
Y492126D01*
X123819Y478740D02*
Y492126D01*
X116339D02*
X123819D01*
X116339Y478740D02*
X123819D01*
X136417D02*
Y492126D01*
X143898Y478740D02*
Y492126D01*
X136417D02*
X143898D01*
X136417Y478740D02*
X143898D01*
X156496D02*
Y492126D01*
X163976Y478740D02*
Y492126D01*
X156496D02*
X163976D01*
X156496Y478740D02*
X163976D01*
X177362D02*
Y492126D01*
X184843Y478740D02*
Y492126D01*
X177362D02*
X184843D01*
X177362Y478740D02*
X184843D01*
X199016D02*
Y492126D01*
X206496Y478740D02*
Y492126D01*
X199016D02*
X206496D01*
X199016Y478740D02*
X206496D01*
X218701D02*
Y492126D01*
X226181Y478740D02*
Y492126D01*
X218701D02*
X226181D01*
X218701Y478740D02*
X226181D01*
X238386D02*
X245866D01*
X238386Y492126D02*
X245866D01*
Y478740D02*
Y492126D01*
X238386Y478740D02*
Y492126D01*
X278150Y240158D02*
Y251969D01*
X272244Y240158D02*
Y251969D01*
Y240158D02*
X278150D01*
X272244Y251969D02*
X278150D01*
X281890Y240354D02*
X287402D01*
X281890Y251772D02*
X287402D01*
Y240354D02*
Y251772D01*
X281890Y240354D02*
Y251772D01*
X181102Y219094D02*
X186614D01*
X181102Y230512D02*
X186614D01*
Y219094D02*
Y230512D01*
X181102Y219094D02*
Y230512D01*
X215354Y229331D02*
X220866D01*
X215354Y240748D02*
X220866D01*
Y229331D02*
Y240748D01*
X215354Y229331D02*
Y240748D01*
X190748Y218504D02*
X196653D01*
X190748Y230315D02*
X196653D01*
Y218504D02*
Y230315D01*
X190748Y218504D02*
Y230315D01*
X225590Y213583D02*
X254724D01*
X225590Y235236D02*
X254724D01*
X225590Y213583D02*
Y235236D01*
X254724Y213583D02*
Y235236D01*
D15*
X630551Y677165D02*
D03*
Y517165D02*
D03*
X590551Y677165D02*
D03*
Y517165D02*
D03*
X620551Y677165D02*
D03*
Y517165D02*
D03*
X610551Y677165D02*
D03*
Y517165D02*
D03*
X600551Y677165D02*
D03*
Y517165D02*
D03*
X200787Y676929D02*
D03*
Y516929D02*
D03*
X160787Y676929D02*
D03*
Y516929D02*
D03*
X190787Y676929D02*
D03*
Y516929D02*
D03*
X180787Y676929D02*
D03*
Y516929D02*
D03*
X170787Y676929D02*
D03*
Y516929D02*
D03*
X415512Y677165D02*
D03*
Y517165D02*
D03*
X375512Y677165D02*
D03*
Y517165D02*
D03*
X405512Y677165D02*
D03*
Y517165D02*
D03*
X395512Y677165D02*
D03*
Y517165D02*
D03*
X385512Y677165D02*
D03*
Y517165D02*
D03*
D16*
X673130Y161811D02*
D03*
X609547D02*
D03*
Y126378D02*
D03*
X673130D02*
D03*
D17*
X633071Y118504D02*
D03*
X650394D02*
D03*
X641732D02*
D03*
X637402D02*
D03*
X646063D02*
D03*
X654724D02*
D03*
X659055D02*
D03*
X663386D02*
D03*
X667717D02*
D03*
D26*
X249959Y421219D02*
X250000Y421260D01*
X186614Y357874D02*
X249959Y421219D01*
X375512Y516772D02*
Y517165D01*
X160787Y516535D02*
Y516929D01*
X409449Y416929D02*
Y417323D01*
X249959Y420825D02*
Y421219D01*
X51575Y357874D02*
X51575Y357874D01*
X186614Y357874D01*
X739370Y423228D02*
Y426772D01*
X727165Y438976D02*
X739370Y426772D01*
X564961Y438976D02*
X727165D01*
X200787Y505177D02*
Y516929D01*
X172146Y505177D02*
X200787D01*
Y473228D02*
Y505177D01*
X160787Y516535D02*
X172146Y505177D01*
X200787Y473228D02*
X249919Y424097D01*
Y421260D02*
Y424097D01*
X407933Y415807D02*
X409449Y417323D01*
Y416929D02*
X410571Y415807D01*
X541791D02*
X564961Y438976D01*
X410571Y415807D02*
X541791D01*
X564961Y451575D02*
Y491575D01*
X590551Y517165D01*
X564961Y451575D02*
X630551Y517165D01*
X564961Y438976D02*
Y451575D01*
X254978Y415807D02*
X407933D01*
X249959Y420825D02*
X254978Y415807D01*
X249919Y421260D02*
X249959Y421219D01*
X415512Y504783D02*
Y517165D01*
Y423386D02*
Y504783D01*
X387500D02*
X415512D01*
X375512Y516772D02*
X387500Y504783D01*
X409449Y417323D02*
X415512Y423386D01*
X242913Y250000D02*
Y271260D01*
X238189Y250000D02*
Y267323D01*
D27*
X306221Y263228D02*
D03*
Y253228D02*
D03*
Y243228D02*
D03*
Y233228D02*
D03*
Y223228D02*
D03*
Y213228D02*
D03*
Y203228D02*
D03*
Y193228D02*
D03*
Y183228D02*
D03*
Y173228D02*
D03*
X316220Y263228D02*
D03*
Y253228D02*
D03*
Y243228D02*
D03*
Y233228D02*
D03*
Y223228D02*
D03*
Y213228D02*
D03*
Y203228D02*
D03*
Y193228D02*
D03*
Y183228D02*
D03*
Y173228D02*
D03*
X476221Y263228D02*
D03*
Y253228D02*
D03*
Y243228D02*
D03*
Y233228D02*
D03*
Y223228D02*
D03*
Y213228D02*
D03*
Y203228D02*
D03*
Y193228D02*
D03*
Y183228D02*
D03*
Y173228D02*
D03*
X486221Y263228D02*
D03*
Y253228D02*
D03*
Y243228D02*
D03*
Y233228D02*
D03*
Y223228D02*
D03*
Y213228D02*
D03*
Y203228D02*
D03*
Y193228D02*
D03*
Y183228D02*
D03*
Y173228D02*
D03*
D28*
X218110Y294488D02*
D03*
X352362Y214961D02*
D03*
X409449Y213779D02*
D03*
X124803Y714567D02*
D03*
X650394Y128347D02*
D03*
X521654Y190945D02*
D03*
X218110Y248425D02*
D03*
X173622Y152756D02*
D03*
X218110Y408661D02*
D03*
X119291Y777165D02*
D03*
X362992Y748032D02*
D03*
X263386Y224410D02*
D03*
X259055Y245276D02*
D03*
X51575Y357874D02*
D03*
X652756Y112992D02*
D03*
X641732Y125197D02*
D03*
X637402D02*
D03*
X672047Y116929D02*
D03*
X663386Y112598D02*
D03*
X739370Y423228D02*
D03*
X606299Y677165D02*
D03*
X595669D02*
D03*
X614961D02*
D03*
X625591D02*
D03*
X595276Y517323D02*
D03*
X605512D02*
D03*
X615748D02*
D03*
X380315Y677165D02*
D03*
X390158D02*
D03*
X400000D02*
D03*
X410630D02*
D03*
X409842Y517323D02*
D03*
X380709D02*
D03*
X400394D02*
D03*
X156299Y676772D02*
D03*
X165748D02*
D03*
X185433D02*
D03*
X195669D02*
D03*
X175591Y516929D02*
D03*
X185433D02*
D03*
X195669D02*
D03*
X249919Y421260D02*
D03*
X299213Y233071D02*
D03*
X757283Y360236D02*
D03*
X564961Y438976D02*
D03*
X409449Y417323D02*
D03*
X301181Y208661D02*
D03*
Y257874D02*
D03*
X242913Y271260D02*
D03*
X238189Y267323D02*
D03*
Y250000D02*
D03*
X242913D02*
D03*
X332677Y193307D02*
D03*
X334252Y203150D02*
D03*
X397638Y237795D02*
D03*
X398031Y243150D02*
D03*
X452756Y266929D02*
D03*
X458661D02*
D03*
X326772Y183071D02*
D03*
X470472Y273622D02*
D03*
X464961D02*
D03*
X310630Y164961D02*
D03*
X318898Y154724D02*
D03*
X314961Y159449D02*
D03*
X330315Y156299D02*
D03*
X322835Y164961D02*
D03*
X325984Y160630D02*
D03*
X464567Y261811D02*
D03*
X767717Y399606D02*
D03*
X748032D02*
D03*
Y387795D02*
D03*
Y362992D02*
D03*
Y375984D02*
D03*
X495276Y242913D02*
D03*
X385827D02*
D03*
X332677Y233071D02*
D03*
Y243701D02*
D03*
X197244Y475591D02*
D03*
X188976Y481890D02*
D03*
X539370Y107480D02*
D03*
Y114173D02*
D03*
D29*
X18189Y357677D02*
D03*
Y421850D02*
D03*
X769213Y425787D02*
D03*
Y361614D02*
D03*
X426929Y769193D02*
D03*
X362756D02*
D03*
D30*
X627658Y163484D02*
D03*
X654429D02*
D03*
D31*
X771654Y15748D02*
D03*
Y771654D02*
D03*
X15748D02*
D03*
Y15748D02*
D03*
M02*
