G04*
G04 #@! TF.GenerationSoftware,Altium Limited,Altium Designer,18.1.11 (251)*
G04*
G04 Layer_Physical_Order=1*
G04 Layer_Color=255*
%FSLAX25Y25*%
%MOIN*%
G70*
G01*
G75*
%ADD11C,0.02362*%
%ADD15O,0.09843X0.02559*%
%ADD16O,0.02559X0.09843*%
%ADD17O,0.01378X0.05315*%
%ADD18R,0.03937X0.05315*%
%ADD19R,0.03740X0.04331*%
%ADD20R,0.04331X0.03740*%
%ADD21R,0.05315X0.03937*%
%ADD36C,0.01000*%
%ADD37C,0.03937*%
%ADD38R,0.04331X0.04331*%
%ADD39C,0.04331*%
%ADD40C,0.05504*%
%ADD41R,0.05504X0.05504*%
%ADD42C,0.06299*%
%ADD43C,0.23622*%
%ADD44C,0.02362*%
G36*
X208661Y160124D02*
X208200Y159932D01*
X205335Y162797D01*
X205245Y163014D01*
X204738Y163675D01*
X204077Y164182D01*
X203307Y164501D01*
X202980Y164544D01*
Y161417D01*
X202480D01*
Y160917D01*
X199354D01*
X199396Y160591D01*
X199715Y159821D01*
X200223Y159160D01*
X200884Y158652D01*
X201101Y158563D01*
X203552Y156111D01*
X203360Y155649D01*
X109177Y155771D01*
X108892Y156458D01*
X108416Y157078D01*
X102697Y162797D01*
X102607Y163014D01*
X102100Y163675D01*
X101439Y164182D01*
X100669Y164501D01*
X100343Y164544D01*
Y161417D01*
X99843D01*
Y160917D01*
X96716D01*
X96759Y160591D01*
X97078Y159821D01*
X97585Y159160D01*
X98246Y158652D01*
X98463Y158563D01*
X100782Y156244D01*
X100590Y155782D01*
X4724Y155905D01*
Y166535D01*
X208661D01*
Y160124D01*
D02*
G37*
G36*
X309449Y127559D02*
X306242D01*
X305983Y128000D01*
X306164Y128424D01*
X306714Y128652D01*
X307376Y129160D01*
X307883Y129821D01*
X308202Y130591D01*
X308245Y130917D01*
X305118D01*
Y131417D01*
X304618D01*
Y134544D01*
X304292Y134501D01*
X303522Y134182D01*
X302861Y133675D01*
X302353Y133014D01*
X302082Y132358D01*
X301889Y132278D01*
X301269Y131802D01*
X297025Y127559D01*
X244844D01*
X244680Y127778D01*
X244954Y128246D01*
X245118Y128225D01*
X245944Y128333D01*
X246714Y128652D01*
X247376Y129160D01*
X247883Y129821D01*
X248202Y130591D01*
X248245Y130917D01*
X245118D01*
Y131417D01*
X244618D01*
Y134544D01*
X244292Y134501D01*
X243522Y134182D01*
X242861Y133675D01*
X242353Y133014D01*
X242187Y132612D01*
X241687Y132712D01*
Y135433D01*
X309449D01*
Y127559D01*
D02*
G37*
G36*
X196673Y71866D02*
X196673Y71547D01*
Y69398D01*
X200330D01*
Y68398D01*
X196673D01*
Y65929D01*
X199769D01*
X199920Y65429D01*
X199609Y65221D01*
X199127Y64499D01*
X199057Y64148D01*
X203306D01*
X203236Y64499D01*
X202754Y65221D01*
X202442Y65429D01*
X202593Y65929D01*
X203831D01*
X203988Y65929D01*
X204331Y65571D01*
Y49902D01*
X194996D01*
Y51468D01*
X192126D01*
Y51968D01*
X191626D01*
Y55134D01*
X190157D01*
Y58153D01*
X191232D01*
Y61811D01*
Y65469D01*
X190157D01*
Y66028D01*
X193323D01*
Y68398D01*
X190157D01*
Y69398D01*
X193323D01*
Y71768D01*
X193707Y72047D01*
X196248D01*
X196673Y71866D01*
D02*
G37*
G36*
X159109Y60350D02*
X155496D01*
Y57980D01*
X158661D01*
Y56980D01*
X155496D01*
Y54610D01*
X159109D01*
Y54051D01*
X157587D01*
Y50394D01*
Y46736D01*
X159109D01*
Y45419D01*
X159016Y45325D01*
X145669D01*
Y64567D01*
X159109D01*
Y60350D01*
D02*
G37*
%LPC*%
G36*
X90342Y164544D02*
Y161917D01*
X92969D01*
X92926Y162244D01*
X92607Y163014D01*
X92100Y163675D01*
X91439Y164182D01*
X90669Y164501D01*
X90342Y164544D01*
D02*
G37*
G36*
X80343D02*
Y161917D01*
X82969D01*
X82926Y162244D01*
X82607Y163014D01*
X82100Y163675D01*
X81439Y164182D01*
X80669Y164501D01*
X80343Y164544D01*
D02*
G37*
G36*
X70342D02*
Y161917D01*
X72969D01*
X72926Y162244D01*
X72607Y163014D01*
X72100Y163675D01*
X71439Y164182D01*
X70669Y164501D01*
X70342Y164544D01*
D02*
G37*
G36*
X60343D02*
Y161917D01*
X62969D01*
X62926Y162244D01*
X62607Y163014D01*
X62100Y163675D01*
X61439Y164182D01*
X60669Y164501D01*
X60343Y164544D01*
D02*
G37*
G36*
X50343D02*
Y161917D01*
X52969D01*
X52926Y162244D01*
X52607Y163014D01*
X52100Y163675D01*
X51439Y164182D01*
X50669Y164501D01*
X50343Y164544D01*
D02*
G37*
G36*
X40343D02*
Y161917D01*
X42969D01*
X42926Y162244D01*
X42607Y163014D01*
X42100Y163675D01*
X41439Y164182D01*
X40669Y164501D01*
X40343Y164544D01*
D02*
G37*
G36*
X30343D02*
Y161917D01*
X32969D01*
X32926Y162244D01*
X32607Y163014D01*
X32100Y163675D01*
X31439Y164182D01*
X30669Y164501D01*
X30343Y164544D01*
D02*
G37*
G36*
X20343D02*
Y161917D01*
X22969D01*
X22926Y162244D01*
X22607Y163014D01*
X22100Y163675D01*
X21439Y164182D01*
X20669Y164501D01*
X20343Y164544D01*
D02*
G37*
G36*
X10343D02*
Y161917D01*
X12969D01*
X12926Y162244D01*
X12607Y163014D01*
X12100Y163675D01*
X11439Y164182D01*
X10669Y164501D01*
X10343Y164544D01*
D02*
G37*
G36*
X99343D02*
X99016Y164501D01*
X98246Y164182D01*
X97585Y163675D01*
X97078Y163014D01*
X96759Y162244D01*
X96716Y161917D01*
X99343D01*
Y164544D01*
D02*
G37*
G36*
X89342D02*
X89016Y164501D01*
X88246Y164182D01*
X87585Y163675D01*
X87078Y163014D01*
X86759Y162244D01*
X86716Y161917D01*
X89342D01*
Y164544D01*
D02*
G37*
G36*
X79343D02*
X79016Y164501D01*
X78246Y164182D01*
X77585Y163675D01*
X77078Y163014D01*
X76759Y162244D01*
X76716Y161917D01*
X79343D01*
Y164544D01*
D02*
G37*
G36*
X69342D02*
X69016Y164501D01*
X68246Y164182D01*
X67585Y163675D01*
X67078Y163014D01*
X66759Y162244D01*
X66716Y161917D01*
X69342D01*
Y164544D01*
D02*
G37*
G36*
X59342D02*
X59016Y164501D01*
X58246Y164182D01*
X57585Y163675D01*
X57078Y163014D01*
X56759Y162244D01*
X56716Y161917D01*
X59342D01*
Y164544D01*
D02*
G37*
G36*
X49343D02*
X49016Y164501D01*
X48246Y164182D01*
X47585Y163675D01*
X47078Y163014D01*
X46759Y162244D01*
X46716Y161917D01*
X49343D01*
Y164544D01*
D02*
G37*
G36*
X39342D02*
X39016Y164501D01*
X38246Y164182D01*
X37585Y163675D01*
X37078Y163014D01*
X36759Y162244D01*
X36716Y161917D01*
X39342D01*
Y164544D01*
D02*
G37*
G36*
X29342D02*
X29016Y164501D01*
X28246Y164182D01*
X27585Y163675D01*
X27078Y163014D01*
X26759Y162244D01*
X26716Y161917D01*
X29342D01*
Y164544D01*
D02*
G37*
G36*
X19342D02*
X19016Y164501D01*
X18246Y164182D01*
X17585Y163675D01*
X17078Y163014D01*
X16759Y162244D01*
X16716Y161917D01*
X19342D01*
Y164544D01*
D02*
G37*
G36*
X9342D02*
X9016Y164501D01*
X8246Y164182D01*
X7585Y163675D01*
X7078Y163014D01*
X6759Y162244D01*
X6716Y161917D01*
X9342D01*
Y164544D01*
D02*
G37*
G36*
X192980D02*
Y161917D01*
X195607D01*
X195564Y162244D01*
X195245Y163014D01*
X194738Y163675D01*
X194077Y164182D01*
X193307Y164501D01*
X192980Y164544D01*
D02*
G37*
G36*
X182980D02*
Y161917D01*
X185607D01*
X185564Y162244D01*
X185245Y163014D01*
X184738Y163675D01*
X184077Y164182D01*
X183307Y164501D01*
X182980Y164544D01*
D02*
G37*
G36*
X172980D02*
Y161917D01*
X175607D01*
X175564Y162244D01*
X175245Y163014D01*
X174738Y163675D01*
X174077Y164182D01*
X173307Y164501D01*
X172980Y164544D01*
D02*
G37*
G36*
X162980D02*
Y161917D01*
X165607D01*
X165564Y162244D01*
X165245Y163014D01*
X164738Y163675D01*
X164077Y164182D01*
X163307Y164501D01*
X162980Y164544D01*
D02*
G37*
G36*
X152980D02*
Y161917D01*
X155607D01*
X155564Y162244D01*
X155245Y163014D01*
X154738Y163675D01*
X154077Y164182D01*
X153307Y164501D01*
X152980Y164544D01*
D02*
G37*
G36*
X142980D02*
Y161917D01*
X145607D01*
X145564Y162244D01*
X145245Y163014D01*
X144738Y163675D01*
X144077Y164182D01*
X143307Y164501D01*
X142980Y164544D01*
D02*
G37*
G36*
X132980D02*
Y161917D01*
X135607D01*
X135564Y162244D01*
X135245Y163014D01*
X134738Y163675D01*
X134077Y164182D01*
X133307Y164501D01*
X132980Y164544D01*
D02*
G37*
G36*
X122980D02*
Y161917D01*
X125607D01*
X125564Y162244D01*
X125245Y163014D01*
X124738Y163675D01*
X124077Y164182D01*
X123307Y164501D01*
X122980Y164544D01*
D02*
G37*
G36*
X112980D02*
Y161917D01*
X115607D01*
X115564Y162244D01*
X115245Y163014D01*
X114738Y163675D01*
X114077Y164182D01*
X113307Y164501D01*
X112980Y164544D01*
D02*
G37*
G36*
X201980D02*
X201654Y164501D01*
X200884Y164182D01*
X200223Y163675D01*
X199715Y163014D01*
X199396Y162244D01*
X199354Y161917D01*
X201980D01*
Y164544D01*
D02*
G37*
G36*
X191980D02*
X191654Y164501D01*
X190884Y164182D01*
X190223Y163675D01*
X189715Y163014D01*
X189396Y162244D01*
X189354Y161917D01*
X191980D01*
Y164544D01*
D02*
G37*
G36*
X181980D02*
X181654Y164501D01*
X180884Y164182D01*
X180223Y163675D01*
X179715Y163014D01*
X179396Y162244D01*
X179353Y161917D01*
X181980D01*
Y164544D01*
D02*
G37*
G36*
X171980D02*
X171654Y164501D01*
X170884Y164182D01*
X170223Y163675D01*
X169715Y163014D01*
X169396Y162244D01*
X169353Y161917D01*
X171980D01*
Y164544D01*
D02*
G37*
G36*
X161980D02*
X161654Y164501D01*
X160884Y164182D01*
X160223Y163675D01*
X159715Y163014D01*
X159396Y162244D01*
X159353Y161917D01*
X161980D01*
Y164544D01*
D02*
G37*
G36*
X151980D02*
X151654Y164501D01*
X150884Y164182D01*
X150223Y163675D01*
X149715Y163014D01*
X149396Y162244D01*
X149354Y161917D01*
X151980D01*
Y164544D01*
D02*
G37*
G36*
X141980D02*
X141654Y164501D01*
X140884Y164182D01*
X140223Y163675D01*
X139715Y163014D01*
X139396Y162244D01*
X139354Y161917D01*
X141980D01*
Y164544D01*
D02*
G37*
G36*
X131980D02*
X131654Y164501D01*
X130884Y164182D01*
X130223Y163675D01*
X129715Y163014D01*
X129396Y162244D01*
X129353Y161917D01*
X131980D01*
Y164544D01*
D02*
G37*
G36*
X121980D02*
X121654Y164501D01*
X120884Y164182D01*
X120223Y163675D01*
X119715Y163014D01*
X119396Y162244D01*
X119353Y161917D01*
X121980D01*
Y164544D01*
D02*
G37*
G36*
X111980D02*
X111654Y164501D01*
X110884Y164182D01*
X110223Y163675D01*
X109715Y163014D01*
X109396Y162244D01*
X109353Y161917D01*
X111980D01*
Y164544D01*
D02*
G37*
G36*
X195607Y160917D02*
X192980D01*
Y158291D01*
X193307Y158333D01*
X194077Y158652D01*
X194738Y159160D01*
X195245Y159821D01*
X195564Y160591D01*
X195607Y160917D01*
D02*
G37*
G36*
X185607D02*
X182980D01*
Y158291D01*
X183307Y158333D01*
X184077Y158652D01*
X184738Y159160D01*
X185245Y159821D01*
X185564Y160591D01*
X185607Y160917D01*
D02*
G37*
G36*
X175607D02*
X172980D01*
Y158291D01*
X173307Y158333D01*
X174077Y158652D01*
X174738Y159160D01*
X175245Y159821D01*
X175564Y160591D01*
X175607Y160917D01*
D02*
G37*
G36*
X165607D02*
X162980D01*
Y158291D01*
X163307Y158333D01*
X164077Y158652D01*
X164738Y159160D01*
X165245Y159821D01*
X165564Y160591D01*
X165607Y160917D01*
D02*
G37*
G36*
X155607D02*
X152980D01*
Y158291D01*
X153307Y158333D01*
X154077Y158652D01*
X154738Y159160D01*
X155245Y159821D01*
X155564Y160591D01*
X155607Y160917D01*
D02*
G37*
G36*
X145607D02*
X142980D01*
Y158291D01*
X143307Y158333D01*
X144077Y158652D01*
X144738Y159160D01*
X145245Y159821D01*
X145564Y160591D01*
X145607Y160917D01*
D02*
G37*
G36*
X135607D02*
X132980D01*
Y158291D01*
X133307Y158333D01*
X134077Y158652D01*
X134738Y159160D01*
X135245Y159821D01*
X135564Y160591D01*
X135607Y160917D01*
D02*
G37*
G36*
X125607D02*
X122980D01*
Y158291D01*
X123307Y158333D01*
X124077Y158652D01*
X124738Y159160D01*
X125245Y159821D01*
X125564Y160591D01*
X125607Y160917D01*
D02*
G37*
G36*
X115607D02*
X112980D01*
Y158291D01*
X113307Y158333D01*
X114077Y158652D01*
X114738Y159160D01*
X115245Y159821D01*
X115564Y160591D01*
X115607Y160917D01*
D02*
G37*
G36*
X52969Y160917D02*
X50343D01*
Y158291D01*
X50669Y158333D01*
X51439Y158652D01*
X52100Y159160D01*
X52607Y159821D01*
X52926Y160591D01*
X52969Y160917D01*
D02*
G37*
G36*
X92969D02*
X90342D01*
Y158291D01*
X90669Y158333D01*
X91439Y158652D01*
X92100Y159160D01*
X92607Y159821D01*
X92926Y160591D01*
X92969Y160917D01*
D02*
G37*
G36*
X82969D02*
X80343D01*
Y158291D01*
X80669Y158333D01*
X81439Y158652D01*
X82100Y159160D01*
X82607Y159821D01*
X82926Y160591D01*
X82969Y160917D01*
D02*
G37*
G36*
X72969D02*
X70342D01*
Y158291D01*
X70669Y158333D01*
X71439Y158652D01*
X72100Y159160D01*
X72607Y159821D01*
X72926Y160591D01*
X72969Y160917D01*
D02*
G37*
G36*
X62969D02*
X60343D01*
Y158291D01*
X60669Y158333D01*
X61439Y158652D01*
X62100Y159160D01*
X62607Y159821D01*
X62926Y160591D01*
X62969Y160917D01*
D02*
G37*
G36*
X42969D02*
X40343D01*
Y158291D01*
X40669Y158333D01*
X41439Y158652D01*
X42100Y159160D01*
X42607Y159821D01*
X42926Y160591D01*
X42969Y160917D01*
D02*
G37*
G36*
X32969D02*
X30343D01*
Y158291D01*
X30669Y158333D01*
X31439Y158652D01*
X32100Y159160D01*
X32607Y159821D01*
X32926Y160591D01*
X32969Y160917D01*
D02*
G37*
G36*
X22969D02*
X20343D01*
Y158291D01*
X20669Y158333D01*
X21439Y158652D01*
X22100Y159160D01*
X22607Y159821D01*
X22926Y160591D01*
X22969Y160917D01*
D02*
G37*
G36*
X12969D02*
X10343D01*
Y158291D01*
X10669Y158333D01*
X11439Y158652D01*
X12100Y159160D01*
X12607Y159821D01*
X12926Y160591D01*
X12969Y160917D01*
D02*
G37*
G36*
X89342D02*
X86716D01*
X86759Y160591D01*
X87078Y159821D01*
X87585Y159160D01*
X88246Y158652D01*
X89016Y158333D01*
X89342Y158291D01*
Y160917D01*
D02*
G37*
G36*
X79343D02*
X76716D01*
X76759Y160591D01*
X77078Y159821D01*
X77585Y159160D01*
X78246Y158652D01*
X79016Y158333D01*
X79343Y158291D01*
Y160917D01*
D02*
G37*
G36*
X69342D02*
X66716D01*
X66759Y160591D01*
X67078Y159821D01*
X67585Y159160D01*
X68246Y158652D01*
X69016Y158333D01*
X69342Y158291D01*
Y160917D01*
D02*
G37*
G36*
X59342D02*
X56716D01*
X56759Y160591D01*
X57078Y159821D01*
X57585Y159160D01*
X58246Y158652D01*
X59016Y158333D01*
X59342Y158291D01*
Y160917D01*
D02*
G37*
G36*
X49343D02*
X46716D01*
X46759Y160591D01*
X47078Y159821D01*
X47585Y159160D01*
X48246Y158652D01*
X49016Y158333D01*
X49343Y158291D01*
Y160917D01*
D02*
G37*
G36*
X39342D02*
X36716D01*
X36759Y160591D01*
X37078Y159821D01*
X37585Y159160D01*
X38246Y158652D01*
X39016Y158333D01*
X39342Y158291D01*
Y160917D01*
D02*
G37*
G36*
X29342D02*
X26716D01*
X26759Y160591D01*
X27078Y159821D01*
X27585Y159160D01*
X28246Y158652D01*
X29016Y158333D01*
X29342Y158291D01*
Y160917D01*
D02*
G37*
G36*
X19342D02*
X16716D01*
X16759Y160591D01*
X17078Y159821D01*
X17585Y159160D01*
X18246Y158652D01*
X19016Y158333D01*
X19342Y158291D01*
Y160917D01*
D02*
G37*
G36*
X9342D02*
X6716D01*
X6759Y160591D01*
X7078Y159821D01*
X7585Y159160D01*
X8246Y158652D01*
X9016Y158333D01*
X9342Y158291D01*
Y160917D01*
D02*
G37*
G36*
X191980Y160917D02*
X189354D01*
X189396Y160591D01*
X189715Y159821D01*
X190223Y159160D01*
X190884Y158652D01*
X191654Y158333D01*
X191980Y158291D01*
Y160917D01*
D02*
G37*
G36*
X181980D02*
X179353D01*
X179396Y160591D01*
X179715Y159821D01*
X180223Y159160D01*
X180884Y158652D01*
X181654Y158333D01*
X181980Y158291D01*
Y160917D01*
D02*
G37*
G36*
X171980D02*
X169353D01*
X169396Y160591D01*
X169715Y159821D01*
X170223Y159160D01*
X170884Y158652D01*
X171654Y158333D01*
X171980Y158291D01*
Y160917D01*
D02*
G37*
G36*
X161980D02*
X159353D01*
X159396Y160591D01*
X159715Y159821D01*
X160223Y159160D01*
X160884Y158652D01*
X161654Y158333D01*
X161980Y158291D01*
Y160917D01*
D02*
G37*
G36*
X151980D02*
X149354D01*
X149396Y160591D01*
X149715Y159821D01*
X150223Y159160D01*
X150884Y158652D01*
X151654Y158333D01*
X151980Y158291D01*
Y160917D01*
D02*
G37*
G36*
X141980D02*
X139354D01*
X139396Y160591D01*
X139715Y159821D01*
X140223Y159160D01*
X140884Y158652D01*
X141654Y158333D01*
X141980Y158291D01*
Y160917D01*
D02*
G37*
G36*
X131980D02*
X129353D01*
X129396Y160591D01*
X129715Y159821D01*
X130223Y159160D01*
X130884Y158652D01*
X131654Y158333D01*
X131980Y158291D01*
Y160917D01*
D02*
G37*
G36*
X121980D02*
X119353D01*
X119396Y160591D01*
X119715Y159821D01*
X120223Y159160D01*
X120884Y158652D01*
X121654Y158333D01*
X121980Y158291D01*
Y160917D01*
D02*
G37*
G36*
X111980D02*
X109353D01*
X109396Y160591D01*
X109715Y159821D01*
X110223Y159160D01*
X110884Y158652D01*
X111654Y158333D01*
X111980Y158291D01*
Y160917D01*
D02*
G37*
G36*
X305618Y134544D02*
Y131917D01*
X308245D01*
X308202Y132244D01*
X307883Y133014D01*
X307376Y133675D01*
X306714Y134182D01*
X305944Y134501D01*
X305618Y134544D01*
D02*
G37*
G36*
X295618D02*
Y131917D01*
X298245D01*
X298202Y132244D01*
X297883Y133014D01*
X297376Y133675D01*
X296714Y134182D01*
X295944Y134501D01*
X295618Y134544D01*
D02*
G37*
G36*
X285618D02*
Y131917D01*
X288245D01*
X288202Y132244D01*
X287883Y133014D01*
X287376Y133675D01*
X286714Y134182D01*
X285944Y134501D01*
X285618Y134544D01*
D02*
G37*
G36*
X275618D02*
Y131917D01*
X278245D01*
X278202Y132244D01*
X277883Y133014D01*
X277376Y133675D01*
X276714Y134182D01*
X275944Y134501D01*
X275618Y134544D01*
D02*
G37*
G36*
X265618D02*
Y131917D01*
X268245D01*
X268202Y132244D01*
X267883Y133014D01*
X267376Y133675D01*
X266714Y134182D01*
X265944Y134501D01*
X265618Y134544D01*
D02*
G37*
G36*
X255618D02*
Y131917D01*
X258245D01*
X258202Y132244D01*
X257883Y133014D01*
X257376Y133675D01*
X256714Y134182D01*
X255944Y134501D01*
X255618Y134544D01*
D02*
G37*
G36*
X245618D02*
Y131917D01*
X248245D01*
X248202Y132244D01*
X247883Y133014D01*
X247376Y133675D01*
X246714Y134182D01*
X245944Y134501D01*
X245618Y134544D01*
D02*
G37*
G36*
X294618D02*
X294292Y134501D01*
X293522Y134182D01*
X292861Y133675D01*
X292353Y133014D01*
X292034Y132244D01*
X291991Y131917D01*
X294618D01*
Y134544D01*
D02*
G37*
G36*
X284618D02*
X284292Y134501D01*
X283522Y134182D01*
X282861Y133675D01*
X282353Y133014D01*
X282034Y132244D01*
X281991Y131917D01*
X284618D01*
Y134544D01*
D02*
G37*
G36*
X274618D02*
X274292Y134501D01*
X273522Y134182D01*
X272861Y133675D01*
X272353Y133014D01*
X272034Y132244D01*
X271991Y131917D01*
X274618D01*
Y134544D01*
D02*
G37*
G36*
X264618D02*
X264292Y134501D01*
X263522Y134182D01*
X262861Y133675D01*
X262353Y133014D01*
X262034Y132244D01*
X261991Y131917D01*
X264618D01*
Y134544D01*
D02*
G37*
G36*
X254618D02*
X254292Y134501D01*
X253522Y134182D01*
X252861Y133675D01*
X252353Y133014D01*
X252034Y132244D01*
X251991Y131917D01*
X254618D01*
Y134544D01*
D02*
G37*
G36*
X298245Y130917D02*
X295618D01*
Y128290D01*
X295944Y128333D01*
X296714Y128652D01*
X297376Y129160D01*
X297883Y129821D01*
X298202Y130591D01*
X298245Y130917D01*
D02*
G37*
G36*
X288245D02*
X285618D01*
Y128290D01*
X285944Y128333D01*
X286714Y128652D01*
X287376Y129160D01*
X287883Y129821D01*
X288202Y130591D01*
X288245Y130917D01*
D02*
G37*
G36*
X278245D02*
X275618D01*
Y128290D01*
X275944Y128333D01*
X276714Y128652D01*
X277376Y129160D01*
X277883Y129821D01*
X278202Y130591D01*
X278245Y130917D01*
D02*
G37*
G36*
X268245D02*
X265618D01*
Y128290D01*
X265944Y128333D01*
X266714Y128652D01*
X267376Y129160D01*
X267883Y129821D01*
X268202Y130591D01*
X268245Y130917D01*
D02*
G37*
G36*
X258245D02*
X255618D01*
Y128290D01*
X255944Y128333D01*
X256714Y128652D01*
X257376Y129160D01*
X257883Y129821D01*
X258202Y130591D01*
X258245Y130917D01*
D02*
G37*
G36*
X264618D02*
X261991D01*
X262034Y130591D01*
X262353Y129821D01*
X262861Y129160D01*
X263522Y128652D01*
X264292Y128333D01*
X264618Y128290D01*
Y130917D01*
D02*
G37*
G36*
X294618D02*
X291991D01*
X292034Y130591D01*
X292353Y129821D01*
X292861Y129160D01*
X293522Y128652D01*
X294292Y128333D01*
X294618Y128290D01*
Y130917D01*
D02*
G37*
G36*
X284618D02*
X281991D01*
X282034Y130591D01*
X282353Y129821D01*
X282861Y129160D01*
X283522Y128652D01*
X284292Y128333D01*
X284618Y128290D01*
Y130917D01*
D02*
G37*
G36*
X274618D02*
X271991D01*
X272034Y130591D01*
X272353Y129821D01*
X272861Y129160D01*
X273522Y128652D01*
X274292Y128333D01*
X274618Y128290D01*
Y130917D01*
D02*
G37*
G36*
X254618D02*
X251991D01*
X252034Y130591D01*
X252353Y129821D01*
X252861Y129160D01*
X253522Y128652D01*
X254292Y128333D01*
X254618Y128290D01*
Y130917D01*
D02*
G37*
G36*
X194701Y65469D02*
X192232D01*
Y62311D01*
X194701D01*
Y65469D01*
D02*
G37*
G36*
X203306Y63148D02*
X199057D01*
X199127Y62797D01*
X199609Y62076D01*
X200330Y61594D01*
X200925Y61475D01*
Y60966D01*
X200330Y60847D01*
X199609Y60365D01*
X199127Y59644D01*
X199057Y59293D01*
X203306D01*
X203236Y59644D01*
X202754Y60365D01*
X202032Y60847D01*
X201437Y60966D01*
Y61475D01*
X202032Y61594D01*
X202754Y62076D01*
X203236Y62797D01*
X203306Y63148D01*
D02*
G37*
G36*
X194701Y61311D02*
X192232D01*
Y58153D01*
X194701D01*
Y61311D01*
D02*
G37*
G36*
X203306Y58293D02*
X199057D01*
X199127Y57942D01*
X199609Y57220D01*
X200330Y56738D01*
X200925Y56620D01*
Y56110D01*
X200330Y55992D01*
X199609Y55510D01*
X199127Y54788D01*
X199057Y54437D01*
X203306D01*
X203236Y54788D01*
X202754Y55510D01*
X202032Y55992D01*
X201437Y56110D01*
Y56620D01*
X202032Y56738D01*
X202754Y57220D01*
X203236Y57942D01*
X203306Y58293D01*
D02*
G37*
G36*
X194996Y55134D02*
X192626D01*
Y52469D01*
X194996D01*
Y55134D01*
D02*
G37*
G36*
X203306Y53437D02*
X201681D01*
Y51813D01*
X202032Y51882D01*
X202754Y52364D01*
X203236Y53086D01*
X203306Y53437D01*
D02*
G37*
G36*
X200681D02*
X199057D01*
X199127Y53086D01*
X199609Y52364D01*
X200330Y51882D01*
X200681Y51813D01*
Y53437D01*
D02*
G37*
G36*
X150500Y61180D02*
Y59555D01*
X152124D01*
X152055Y59906D01*
X151573Y60628D01*
X150851Y61110D01*
X150500Y61180D01*
D02*
G37*
G36*
X149500D02*
X149149Y61110D01*
X148427Y60628D01*
X147945Y59906D01*
X147876Y59555D01*
X149500D01*
Y61180D01*
D02*
G37*
G36*
X152124Y58555D02*
X150500D01*
Y56931D01*
X150851Y57001D01*
X151573Y57483D01*
X152055Y58204D01*
X152124Y58555D01*
D02*
G37*
G36*
X149500D02*
X147876D01*
X147945Y58204D01*
X148427Y57483D01*
X149149Y57001D01*
X149500Y56931D01*
Y58555D01*
D02*
G37*
G36*
X150500Y55865D02*
Y54240D01*
X152124D01*
X152055Y54591D01*
X151573Y55313D01*
X150851Y55795D01*
X150500Y55865D01*
D02*
G37*
G36*
X149500D02*
X149149Y55795D01*
X148427Y55313D01*
X147945Y54591D01*
X147876Y54240D01*
X149500D01*
Y55865D01*
D02*
G37*
G36*
X152124Y53240D02*
X150500D01*
Y51616D01*
X150851Y51686D01*
X151573Y52168D01*
X152055Y52889D01*
X152124Y53240D01*
D02*
G37*
G36*
X149500D02*
X147876D01*
X147945Y52889D01*
X148427Y52168D01*
X149149Y51686D01*
X149500Y51616D01*
Y53240D01*
D02*
G37*
G36*
X156587Y54051D02*
X154118D01*
Y50894D01*
X156587D01*
Y54051D01*
D02*
G37*
G36*
X150500Y50550D02*
Y48925D01*
X152124D01*
X152055Y49276D01*
X151573Y49998D01*
X150851Y50480D01*
X150500Y50550D01*
D02*
G37*
G36*
X149500D02*
X149149Y50480D01*
X148427Y49998D01*
X147945Y49276D01*
X147876Y48925D01*
X149500D01*
Y50550D01*
D02*
G37*
G36*
X156587Y49894D02*
X154118D01*
Y46736D01*
X156587D01*
Y49894D01*
D02*
G37*
G36*
X152124Y47925D02*
X150500D01*
Y46301D01*
X150851Y46371D01*
X151573Y46853D01*
X152055Y47574D01*
X152124Y47925D01*
D02*
G37*
G36*
X149500D02*
X147876D01*
X147945Y47574D01*
X148427Y46853D01*
X149149Y46371D01*
X149500Y46301D01*
Y47925D01*
D02*
G37*
%LPD*%
D11*
X274803Y116929D02*
X274902Y117027D01*
D15*
X275689Y90492D02*
D03*
Y95492D02*
D03*
Y100492D02*
D03*
Y105492D02*
D03*
Y110492D02*
D03*
X243209D02*
D03*
Y105492D02*
D03*
Y100492D02*
D03*
Y95492D02*
D03*
Y90492D02*
D03*
X37815Y90098D02*
D03*
Y95098D02*
D03*
Y100098D02*
D03*
Y105098D02*
D03*
Y110098D02*
D03*
X70295D02*
D03*
Y105098D02*
D03*
Y100098D02*
D03*
Y95098D02*
D03*
Y90098D02*
D03*
X173327Y90492D02*
D03*
Y95492D02*
D03*
Y100492D02*
D03*
Y105492D02*
D03*
Y110492D02*
D03*
X140847D02*
D03*
Y105492D02*
D03*
Y100492D02*
D03*
Y95492D02*
D03*
Y90492D02*
D03*
D16*
X269449Y116732D02*
D03*
X264449D02*
D03*
X259449D02*
D03*
X254449D02*
D03*
X249449D02*
D03*
Y84252D02*
D03*
X254449D02*
D03*
X259449D02*
D03*
X264449D02*
D03*
X269449D02*
D03*
X64055Y83858D02*
D03*
X59055D02*
D03*
X54055D02*
D03*
X49055D02*
D03*
X44055D02*
D03*
Y116339D02*
D03*
X49055D02*
D03*
X54055D02*
D03*
X59055D02*
D03*
X64055D02*
D03*
X167087Y116732D02*
D03*
X162087D02*
D03*
X157087D02*
D03*
X152087D02*
D03*
X147087D02*
D03*
Y84252D02*
D03*
X152087D02*
D03*
X157087D02*
D03*
X162087D02*
D03*
X167087D02*
D03*
D17*
X174227Y31988D02*
D03*
X176196D02*
D03*
X178164D02*
D03*
X180132D02*
D03*
X182101D02*
D03*
X174227Y49902D02*
D03*
X176196D02*
D03*
X178164D02*
D03*
X180132D02*
D03*
X182101D02*
D03*
D18*
X154621Y26378D02*
D03*
X161707D02*
D03*
X154724Y33071D02*
D03*
X161811D02*
D03*
X164173Y50394D02*
D03*
X157087D02*
D03*
X184646Y61811D02*
D03*
X191732D02*
D03*
D19*
X192126Y46457D02*
D03*
Y51968D02*
D03*
X232283Y6299D02*
D03*
Y11811D02*
D03*
X238583Y6299D02*
D03*
Y11811D02*
D03*
D20*
X158661Y57480D02*
D03*
X164173D02*
D03*
X190157Y68898D02*
D03*
X184646D02*
D03*
D21*
X33465Y41732D02*
D03*
Y48819D02*
D03*
X57480Y41732D02*
D03*
Y48819D02*
D03*
X82047Y48819D02*
D03*
Y41732D02*
D03*
X289370Y98819D02*
D03*
Y91732D02*
D03*
Y111024D02*
D03*
Y103937D02*
D03*
X297638Y103937D02*
D03*
Y111024D02*
D03*
X200330Y75984D02*
D03*
Y68898D02*
D03*
X192913Y94488D02*
D03*
Y87402D02*
D03*
X187795Y111417D02*
D03*
Y104331D02*
D03*
X83465Y104331D02*
D03*
Y111417D02*
D03*
X93307D02*
D03*
Y104331D02*
D03*
D36*
X259449Y116732D02*
Y119694D01*
X255096Y124047D02*
X259449Y119694D01*
X247927Y124047D02*
X255096D01*
X254449Y116732D02*
Y119961D01*
X251862Y122547D02*
X254449Y119961D01*
X248549Y122547D02*
X251862D01*
X248517Y122516D02*
X248549Y122547D01*
X236295Y122516D02*
X248517D01*
X235039Y121260D02*
X236295Y122516D01*
X236122Y124016D02*
X247896D01*
X231453Y128685D02*
X236122Y124016D01*
X247896D02*
X247927Y124047D01*
X297638Y98819D02*
Y103937D01*
X289370Y98819D02*
Y103937D01*
X281516Y105492D02*
X283071Y103937D01*
X289370D01*
X275689Y110492D02*
X289370D01*
Y111024D02*
X289370Y111024D01*
X297638D01*
X200330Y81039D02*
X200394Y81102D01*
X200330Y75984D02*
Y81039D01*
X192913Y77953D02*
X201969Y87008D01*
X188976Y77953D02*
X192913D01*
X201969Y87008D02*
X208661D01*
X64055Y116929D02*
X69685D01*
X231496Y6299D02*
X231890Y5906D01*
X269449Y116240D02*
X270138Y116929D01*
X225118Y161417D02*
X230630Y166929D01*
X237795D01*
X240158Y164567D01*
Y129921D02*
Y164567D01*
X231496Y157795D02*
X235118Y161417D01*
X231496Y133022D02*
Y157795D01*
X220079Y87795D02*
Y133787D01*
Y87795D02*
X230709Y77165D01*
X231453Y132979D02*
X231496Y133022D01*
X242913Y116535D02*
X249252D01*
X249449Y116732D01*
X215118Y138748D02*
X220079Y133787D01*
X240158Y129921D02*
X244094Y125984D01*
X258268D01*
X264449Y119803D01*
Y116732D02*
Y119803D01*
X231453Y128685D02*
Y132979D01*
X235827Y90492D02*
X243209D01*
X235827Y100492D02*
X241732D01*
X235827Y105492D02*
X241732D01*
X243071Y110630D02*
X243209Y110492D01*
X235827Y110630D02*
X243071D01*
X215118Y138748D02*
Y161417D01*
X230709Y77165D02*
X256299D01*
X259449Y80315D01*
Y84252D01*
X56772Y128347D02*
X59842Y131417D01*
X52362Y128347D02*
X56772D01*
X44055Y120039D02*
X52362Y128347D01*
X157534Y1181D02*
X168164Y11811D01*
X67323Y1181D02*
X157534D01*
X56693Y11811D02*
X67323Y1181D01*
X149912Y3559D02*
X158164Y11811D01*
X74945Y3559D02*
X149912D01*
X66693Y11811D02*
X74945Y3559D01*
X141881Y5528D02*
X148164Y11811D01*
X82976Y5528D02*
X141881D01*
X76693Y11811D02*
X82976Y5528D01*
X70295Y110098D02*
X77815D01*
X70295Y100098D02*
Y105098D01*
Y90098D02*
X81555D01*
X81890Y89764D01*
X59055Y83858D02*
Y102362D01*
X66791Y110098D01*
X70295D01*
X77815D02*
X78555Y110839D01*
X82886D01*
X83465Y111417D01*
X78327Y104331D02*
X83465D01*
X77559Y105098D02*
X78327Y104331D01*
X70295Y105098D02*
X77559D01*
X83465Y111417D02*
X92913D01*
X93307Y111024D01*
Y104331D02*
X98573Y99065D01*
X86693Y11811D02*
X90945Y7559D01*
X133912D01*
X138164Y11811D01*
X198164D02*
X231496D01*
X178164D02*
X183676Y6299D01*
X231496D01*
X232283Y11811D02*
X238583D01*
X232283Y6299D02*
X238583D01*
X182101Y49902D02*
Y53937D01*
X181314Y54724D02*
X182101Y53937D01*
X178951Y54724D02*
X181314D01*
X178164Y53937D02*
X178951Y54724D01*
X178164Y49902D02*
Y53937D01*
X158164Y11811D02*
X163386Y17033D01*
X182101Y24331D02*
Y31988D01*
X174803Y17033D02*
X182101Y24331D01*
X163386Y17033D02*
X174803D01*
X180132Y27377D02*
Y31988D01*
X172702Y19946D02*
X180132Y27377D01*
X156299Y19946D02*
X172702D01*
X148164Y11811D02*
X156299Y19946D01*
X174227Y31988D02*
X176196D01*
X178164Y28558D02*
Y31988D01*
X175984Y26378D02*
X178164Y28558D01*
X162205Y26378D02*
X175984D01*
X174803Y39370D02*
X180132Y44699D01*
X138164Y11811D02*
Y25566D01*
X151969Y39370D01*
X174803D01*
X154724Y26482D02*
Y33071D01*
X154621Y26378D02*
X154724Y26482D01*
X161811Y33071D02*
X168110D01*
X169193Y31988D01*
X174227D01*
X150394Y21260D02*
Y22151D01*
X154621Y26378D01*
X94778Y25197D02*
X108164Y11811D01*
X98479Y31496D02*
X118164Y11811D01*
X82047Y41732D02*
X82677D01*
X90158Y34252D01*
X105723D01*
X128164Y11811D01*
X33622Y49370D02*
Y62205D01*
X33071Y48819D02*
X33622Y49370D01*
X57638Y49370D02*
Y62205D01*
X57087Y48819D02*
X57638Y49370D01*
X82047Y48819D02*
Y62205D01*
X34272Y41732D02*
X50807Y25197D01*
X94778D01*
X33071Y41732D02*
X33465D01*
X34272D01*
X58268Y41732D02*
X68504Y31496D01*
X98479D01*
X180132Y44699D02*
Y49902D01*
X182101Y47820D02*
Y49902D01*
Y47820D02*
X188164Y41757D01*
Y11811D02*
Y41757D01*
X164173Y50394D02*
Y57480D01*
Y50394D02*
X173735D01*
X174227Y49902D01*
X181102Y61811D02*
X184646D01*
X176196Y49902D02*
Y56904D01*
X181102Y61811D01*
X188164Y41757D02*
X191732Y45325D01*
Y46457D01*
X33878Y105098D02*
X37815D01*
X25197Y108661D02*
X33760Y100098D01*
X37815D01*
X30315Y108661D02*
X33878Y105098D01*
X19842Y108898D02*
Y131417D01*
Y108898D02*
X33642Y95098D01*
X37815D01*
X9843Y114173D02*
Y131417D01*
Y114173D02*
X33917Y90098D01*
X37815D01*
X25197Y108661D02*
Y126772D01*
X29842Y131417D01*
X30315Y108661D02*
Y121890D01*
X39843Y131417D01*
X48740Y130315D02*
X49843Y131417D01*
X48425Y130315D02*
X48740D01*
X37815Y110098D02*
Y119705D01*
X48425Y130315D01*
X64055Y83858D02*
X69685D01*
X269547D02*
X274803D01*
X269449Y83760D02*
X269547Y83858D01*
X167677Y117323D02*
X172441D01*
X167087Y116732D02*
X167677Y117323D01*
X167087Y84252D02*
X172441D01*
X127559Y126496D02*
X132480Y131417D01*
X112480Y115079D02*
Y131417D01*
Y115079D02*
X137067Y90492D01*
X140847D01*
X122480Y109803D02*
X136791Y95492D01*
X122480Y109803D02*
Y131417D01*
X136791Y95492D02*
X140847D01*
X127559Y109843D02*
X136909Y100492D01*
X127559Y109843D02*
Y126496D01*
X136909Y100492D02*
X140847D01*
X136634Y105492D02*
X140847D01*
Y110492D02*
Y119783D01*
X152480Y131417D01*
X192480Y130638D02*
Y131417D01*
X59055Y116339D02*
Y120039D01*
X54055Y116339D02*
Y120197D01*
X49055Y116339D02*
Y120315D01*
X44055Y116339D02*
Y120039D01*
X157087Y116732D02*
Y120473D01*
X162087Y116732D02*
Y120354D01*
X152087Y116732D02*
Y120591D01*
X147087Y116732D02*
Y120709D01*
X154331Y127953D01*
X159016D01*
X162480Y131417D01*
X162087Y120354D02*
X164961Y123228D01*
X185071D01*
X192480Y130638D01*
X59055Y120039D02*
X61850Y122835D01*
X81653D01*
X89842Y131024D01*
X157087Y120473D02*
X161417Y124803D01*
X175866D01*
X182480Y131417D01*
X152087Y120591D02*
X157874Y126378D01*
X167441D01*
X172480Y131417D01*
X49055Y120315D02*
X55098Y126358D01*
X64784D01*
X69842Y131417D01*
X54055Y120197D02*
X58661Y124803D01*
X73228D01*
X79843Y131417D01*
X70295Y95098D02*
X84823D01*
X90158Y89764D01*
X156693Y84646D02*
X157087Y84252D01*
X156693Y84646D02*
Y105512D01*
X54055Y83858D02*
Y106968D01*
X165354Y100394D02*
X173228D01*
X173327Y100492D01*
X164961Y95276D02*
X173110D01*
X173327Y95492D01*
Y110492D02*
X179783D01*
X180709Y111417D01*
X173327Y105492D02*
X179764D01*
X180925Y104331D01*
X187795D01*
X180709Y111417D02*
X187795D01*
X173327Y95492D02*
X191909D01*
X192913Y94488D01*
X174227Y68715D02*
X192913Y87402D01*
X174227Y49902D02*
Y68715D01*
X184646Y61811D02*
Y68685D01*
Y68898D02*
Y73622D01*
X188976Y77953D01*
X270138Y116929D02*
X274803D01*
X275689Y100492D02*
X279823D01*
X288583Y91732D01*
X289370D01*
X275689Y105492D02*
X281516D01*
X235827Y95492D02*
X243209D01*
X249449Y116732D02*
Y120315D01*
X173386Y90551D02*
X183465D01*
X173327Y90492D02*
X173386Y90551D01*
X266142Y95669D02*
X275512D01*
X275689Y95492D01*
X266870Y90492D02*
X275689D01*
X264449Y88071D02*
X266870Y90492D01*
X264449Y84252D02*
Y88071D01*
X166294Y110492D02*
X173327D01*
X162087Y106285D02*
X166294Y110492D01*
X162087Y84252D02*
Y106285D01*
X231496Y11811D02*
X231890Y11417D01*
X187795Y111417D02*
X194882D01*
X187795Y111417D02*
X187795Y111417D01*
X57087Y41732D02*
X58268D01*
X99343Y161917D02*
X99843Y161417D01*
X133858Y108268D02*
X136634Y105492D01*
X133858Y108268D02*
Y122795D01*
X142480Y131417D01*
D37*
X209134D02*
X215118D01*
X209055Y126772D02*
Y131496D01*
Y154842D01*
X290728Y117027D02*
X303386Y129685D01*
X274902Y117027D02*
X290728D01*
X69685Y116929D02*
X98425D01*
X106299Y124803D01*
Y154961D01*
X172441Y117323D02*
X199606D01*
X209055Y126772D01*
X99843Y161417D02*
X106299Y154961D01*
X202480Y161417D02*
X209055Y154842D01*
D38*
X215118Y161417D02*
D03*
X99843Y131417D02*
D03*
X202480D02*
D03*
D39*
X225118Y161417D02*
D03*
X235118D02*
D03*
X245118D02*
D03*
X255118D02*
D03*
X265118D02*
D03*
X275118D02*
D03*
X285118D02*
D03*
X295118D02*
D03*
X305118D02*
D03*
X215118Y131417D02*
D03*
X225118D02*
D03*
X235118D02*
D03*
X245118D02*
D03*
X255118D02*
D03*
X265118D02*
D03*
X275118D02*
D03*
X285118D02*
D03*
X295118D02*
D03*
X305118D02*
D03*
X9843Y161417D02*
D03*
X19842D02*
D03*
X29842D02*
D03*
X39843D02*
D03*
X49843D02*
D03*
X59842D02*
D03*
X69842D02*
D03*
X79843D02*
D03*
X89842D02*
D03*
X99843D02*
D03*
X9843Y131417D02*
D03*
X19842D02*
D03*
X29842D02*
D03*
X39843D02*
D03*
X49843D02*
D03*
X59842D02*
D03*
X69842D02*
D03*
X79843D02*
D03*
X89842D02*
D03*
X23622Y62205D02*
D03*
X33622D02*
D03*
X57638D02*
D03*
X47638D02*
D03*
X72047D02*
D03*
X82047D02*
D03*
X112480Y161417D02*
D03*
X122480D02*
D03*
X132480D02*
D03*
X142480D02*
D03*
X152480D02*
D03*
X162480D02*
D03*
X172480D02*
D03*
X182480D02*
D03*
X192480D02*
D03*
X202480D02*
D03*
X112480Y131417D02*
D03*
X122480D02*
D03*
X132480D02*
D03*
X142480D02*
D03*
X152480D02*
D03*
X162480D02*
D03*
X172480D02*
D03*
X182480D02*
D03*
X192480D02*
D03*
D40*
X108164Y11811D02*
D03*
X118164D02*
D03*
X128164D02*
D03*
X138164D02*
D03*
X148164D02*
D03*
X158164D02*
D03*
X168164D02*
D03*
X178164D02*
D03*
X188164D02*
D03*
D41*
X198164D02*
D03*
D42*
X86693D02*
D03*
X76693D02*
D03*
X46693D02*
D03*
X66693D02*
D03*
X56693D02*
D03*
D43*
X15748Y15748D02*
D03*
Y181102D02*
D03*
X299213D02*
D03*
Y15748D02*
D03*
D44*
X297638Y98819D02*
D03*
X200394Y81102D02*
D03*
X235039Y121260D02*
D03*
X242913Y116535D02*
D03*
X235827Y90492D02*
D03*
Y95492D02*
D03*
Y100492D02*
D03*
Y105492D02*
D03*
Y110630D02*
D03*
X81890Y89764D02*
D03*
X168110Y33071D02*
D03*
X150394Y21260D02*
D03*
X98573Y99065D02*
D03*
X69685Y116929D02*
D03*
Y83858D02*
D03*
X172441Y117323D02*
D03*
Y84252D02*
D03*
X274803Y116929D02*
D03*
Y83858D02*
D03*
X90158Y89764D02*
D03*
X156693Y105512D02*
D03*
X54055Y106968D02*
D03*
X165354Y100394D02*
D03*
X164961Y95276D02*
D03*
X183465Y90551D02*
D03*
X208661Y87008D02*
D03*
X266142Y95669D02*
D03*
X150000Y48425D02*
D03*
Y53740D02*
D03*
Y59055D02*
D03*
X201181Y53937D02*
D03*
Y58793D02*
D03*
Y63648D02*
D03*
X266870Y90492D02*
D03*
X194882Y111417D02*
D03*
M02*
