M48
;Layer_Color=9474304
;FILE_FORMAT=2:5
INCH,LZ
;TYPE=PLATED
T1F00S00C0.01575
T2F00S00C0.02362
T3F00S00C0.03504
T4F00S00C0.03543
T5F00S00C0.04331
;TYPE=NON_PLATED
T6F00S00C0.16535
%
T01
X0150394Y002126
X015Y0048425
X016811Y0033071
X0201181Y0053937
Y0058793
Y0063648
X0200394Y0081102
X0208661Y0087008
X0235827Y0090492
Y0095492
Y0100492
Y0105492
Y011063
X0235039Y012126
X0242913Y0116535
X0274803Y0116929
X0266142Y0095669
X026687Y0090492
X0274803Y0083858
X0297638Y0098819
X0194882Y0111417
X0172441Y0117323
X0165354Y0100394
X0164961Y0095276
X0172441Y0084252
X0183465Y0090551
X0156693Y0105512
X015Y0059055
Y005374
X0090158Y0089764
X008189
X0069685Y0083858
Y0116929
X0054055Y0106968
X0098573Y0099065
T02
X0047638Y0062205
X0057638
X0072047
X0082047
X0033622
X0023622
T03
X0108164Y0011811
X0118164
X0128164
X0138164
X0148164
X0158164
X0168164
X0178164
X0188164
X0198164
T04
X019248Y0131417
X020248
X0215118
X0225118
X0235118
X0245118
X0255118
X0265118
X0275118
X0285118
X0295118
X0305118
Y0161417
X0295118
X0285118
X0275118
X0265118
X0255118
X0245118
X0235118
X0225118
X0215118
X020248
X019248
X018248
X017248
X016248
X015248
X014248
X013248
X012248
X011248
X0099843
X0089842
X0079843
X0069842
X0059842
X0049843
X0039843
Y0131417
X0049843
X0059842
X0069842
X0079843
X0089842
X0099843
X011248
X012248
X013248
X014248
X015248
X016248
X017248
X018248
X0029842
X0019842
X0009843
Y0161417
X0019842
X0029842
T05
X0046693Y0011811
X0056693
X0066693
X0076693
X0086693
T06
X0015748Y0015748
X0299213
Y0181102
X0015748
M30
