M48
;Layer_Color=9474304
;FILE_FORMAT=2:5
INCH,LZ
;TYPE=PLATED
T1F00S00C0.01968
T2F00S00C0.02520
T3F00S00C0.03740
T4F00S00C0.09488
T5F00S00C0.15748
%
T01
X0173622Y0152756
X0318898Y0154724
X053937Y0114173
Y010748
X0637402Y0125197
X0641732
X0650394Y0128347
X0652756Y0112992
X0663386Y0112598
X0672047Y0116929
X0521654Y0190945
X0495276Y0242913
X0470472Y0273622
X0464961
X0464567Y0261811
X0458661Y0266929
X0452756
X0398031Y024315
X0397638Y0237795
X0385827Y0242913
X0409449Y0213779
X0352362Y0214961
X0334252Y020315
X0332677Y0193307
X0326772Y0183071
X0322835Y0164961
X0325984Y016063
X0330315Y0156299
X0314961Y0159449
X0332677Y0233071
Y0243701
X0299213Y0233071
X0301181Y0208661
Y0257874
X0259055Y0245276
X0242913Y025
X0238189
Y0267323
X0242913Y027126
X021811Y0248425
Y0294488
X0263386Y022441
X031063Y0164961
X0051575Y0357874
X021811Y0408661
X0249919Y042126
X0409449Y0417323
X0564961Y0438976
X073937Y0423228
X0748032Y0399606
Y0387795
Y0375984
Y0362992
X0757283Y0360236
X0767717Y0399606
X0615748Y0517323
X0605512
X0595276
X0409842
X0400394
X0380709
X0195669Y0516929
X0185433
X0175591
X0188976Y048189
X0197244Y0475591
X0124803Y0714567
X0119291Y0777165
X0156299Y0676772
X0165748
X0185433
X0195669
X0380315Y0677165
X0390158
X04
X041063
X0362992Y0748032
X0595669Y0677165
X0606299
X0614961
X0625591
T02
X0476221Y0173228
Y0183228
Y0193228
Y0203228
Y0213228
Y0223228
Y0233228
Y0243228
Y0253228
Y0263228
X0486221
Y0253228
Y0243228
Y0233228
Y0223228
Y0213228
Y0203228
Y0193228
Y0183228
Y0173228
X031622
Y0183228
Y0193228
Y0203228
Y0213228
Y0223228
Y0233228
Y0243228
Y0253228
Y0263228
X0306221
Y0253228
Y0243228
Y0233228
Y0223228
Y0213228
Y0203228
Y0193228
Y0183228
Y0173228
T03
X0627658Y0163484
X0654429
T04
X0018189Y0357677
Y042185
X0769213Y0425787
Y0361614
X0426929Y0769193
X0362756
T05
X0015748Y0015748
X0771654
X0015748Y0771654
X0771654
M30
