G04*
G04 #@! TF.GenerationSoftware,Altium Limited,Altium Designer,18.1.11 (251)*
G04*
G04 Layer_Color=32896*
%FSLAX25Y25*%
%MOIN*%
G70*
G01*
G75*
%ADD12C,0.00787*%
%ADD14C,0.00591*%
%ADD36C,0.01000*%
G36*
X84750Y103654D02*
X85334D01*
X85742Y103596D01*
X86033Y103538D01*
X86150D01*
X87783Y103304D01*
X88483Y103129D01*
X89124Y103013D01*
X89708Y102838D01*
X90116Y102779D01*
X90349Y102663D01*
X90466D01*
X92040Y102138D01*
X92740Y101905D01*
X93382Y101613D01*
X93907Y101438D01*
X94315Y101263D01*
X94548Y101146D01*
X94665Y101088D01*
X96123Y100330D01*
X96764Y99980D01*
X97347Y99630D01*
X97814Y99280D01*
X98164Y99047D01*
X98456Y98872D01*
X98514Y98814D01*
X99855Y97764D01*
X100438Y97297D01*
X100963Y96831D01*
X101430Y96423D01*
X101780Y96131D01*
X102013Y95898D01*
X102071Y95839D01*
X103238Y94615D01*
X103704Y94031D01*
X104171Y93507D01*
X104521Y93098D01*
X104812Y92690D01*
X104987Y92457D01*
X105046Y92399D01*
X105979Y90940D01*
X106387Y90299D01*
X106737Y89657D01*
X107029Y89133D01*
X107262Y88724D01*
X107378Y88491D01*
X107437Y88374D01*
X108137Y86858D01*
X108428Y86158D01*
X108662Y85458D01*
X108836Y84934D01*
X109011Y84525D01*
X109070Y84234D01*
X109128Y84117D01*
X109536Y82542D01*
X109653Y81784D01*
X109770Y81143D01*
X109886Y80559D01*
X109945Y80151D01*
X110003Y79860D01*
Y79743D01*
X110120Y78110D01*
Y77352D01*
X110120Y76710D01*
Y76127D01*
Y75719D01*
Y75427D01*
Y75311D01*
X110061Y74494D01*
X110003Y73678D01*
X109945Y72920D01*
X109886Y72220D01*
X109770Y71695D01*
X109711Y71228D01*
X109653Y70995D01*
Y70878D01*
X109245Y69362D01*
X109011Y68604D01*
X108836Y68021D01*
X108662Y67437D01*
X108487Y67029D01*
X108428Y66796D01*
X108370Y66679D01*
X107729Y65163D01*
X107378Y64463D01*
X107087Y63880D01*
X106854Y63355D01*
X106620Y62947D01*
X106504Y62714D01*
X106445Y62597D01*
X105571Y61197D01*
X105162Y60614D01*
X104754Y60089D01*
X104404Y59623D01*
X104113Y59273D01*
X103938Y59039D01*
X103879Y58981D01*
X103063Y59681D01*
X103996Y60906D01*
X104404Y61489D01*
X104813Y62072D01*
X105104Y62480D01*
X105337Y62889D01*
X105454Y63122D01*
X105512Y63180D01*
X106271Y64580D01*
X106562Y65221D01*
X106854Y65863D01*
X107087Y66329D01*
X107204Y66738D01*
X107320Y66971D01*
X107378Y67088D01*
X107903Y68546D01*
X108078Y69245D01*
X108253Y69887D01*
X108370Y70412D01*
X108487Y70820D01*
X108545Y71053D01*
Y71170D01*
X108778Y72686D01*
X108895Y73386D01*
X109011Y74028D01*
X109070Y74553D01*
Y74961D01*
X109128Y75194D01*
Y75311D01*
Y76885D01*
X109070Y77585D01*
Y78227D01*
X109011Y78810D01*
Y79218D01*
X108953Y79451D01*
Y79568D01*
X108720Y81143D01*
X108545Y81843D01*
X108428Y82484D01*
X108253Y83067D01*
X108195Y83476D01*
X108078Y83709D01*
Y83825D01*
X107554Y85342D01*
X107262Y86042D01*
X107029Y86683D01*
X106795Y87150D01*
X106620Y87558D01*
X106504Y87849D01*
X106445Y87908D01*
X105687Y89366D01*
X105279Y90007D01*
X104929Y90591D01*
X104638Y91057D01*
X104404Y91465D01*
X104229Y91699D01*
X104171Y91757D01*
X103121Y93040D01*
X102655Y93623D01*
X102188Y94090D01*
X101838Y94498D01*
X101547Y94790D01*
X101313Y95023D01*
X101255Y95081D01*
X100089Y96189D01*
X99505Y96714D01*
X98980Y97122D01*
X98572Y97472D01*
X98222Y97764D01*
X97989Y97939D01*
X97931Y97997D01*
X96589Y98814D01*
X95948Y99164D01*
X95365Y99455D01*
X94898Y99689D01*
X94548Y99863D01*
X94257Y99980D01*
X94198Y100038D01*
X92740Y100680D01*
X92099Y100971D01*
X91457Y101205D01*
X90932Y101380D01*
X90524Y101496D01*
X90291Y101613D01*
X90174D01*
X88658Y101963D01*
X87958Y102138D01*
X87316Y102255D01*
X86792Y102313D01*
X86383Y102371D01*
X86150Y102429D01*
X86033D01*
X84459Y102604D01*
X83759D01*
X83117Y102663D01*
X81776D01*
X80201Y102546D01*
X79502Y102429D01*
X78860Y102313D01*
X78277Y102254D01*
X77869Y102138D01*
X77635Y102080D01*
X77519D01*
X76002Y101730D01*
X75302Y101496D01*
X74661Y101321D01*
X74194Y101146D01*
X73786Y100971D01*
X73495Y100913D01*
X73436Y100855D01*
X72970Y101905D01*
X74544Y102429D01*
X75244Y102663D01*
X75886Y102838D01*
X76469Y103013D01*
X76877Y103129D01*
X77169Y103188D01*
X77285D01*
X78918Y103479D01*
X79677Y103538D01*
X80318Y103654D01*
X80901D01*
X81309Y103713D01*
X84109Y103713D01*
X84750Y103654D01*
D02*
G37*
G36*
X63172Y93740D02*
X62122Y92457D01*
X61656Y91874D01*
X61306Y91349D01*
X60956Y90882D01*
X60723Y90474D01*
X60606Y90241D01*
X60548Y90182D01*
X59731Y88783D01*
X59381Y88141D01*
X59090Y87558D01*
X58856Y87033D01*
X58681Y86625D01*
X58623Y86392D01*
X58565Y86275D01*
X58040Y84759D01*
X57806Y84059D01*
X57632Y83417D01*
X57457Y82892D01*
X57340Y82484D01*
X57282Y82251D01*
Y82134D01*
X56990Y80559D01*
X56873Y79860D01*
X56815Y79218D01*
X56757Y78693D01*
X56699Y78227D01*
Y77993D01*
Y77877D01*
X56640Y76244D01*
X56699Y75486D01*
Y74844D01*
X56757Y74261D01*
Y73853D01*
X56815Y73561D01*
Y73444D01*
X57048Y71870D01*
X57165Y71170D01*
X57282Y70529D01*
X57457Y69945D01*
X57515Y69537D01*
X57632Y69304D01*
Y69187D01*
X58157Y67612D01*
X58448Y66913D01*
X58681Y66271D01*
X58915Y65746D01*
X59090Y65338D01*
X59206Y65105D01*
X59264Y64988D01*
X59673Y64230D01*
X60023Y63530D01*
X60431Y62888D01*
X60781Y62305D01*
X61072Y61839D01*
X61306Y61431D01*
X61481Y61197D01*
X61539Y61139D01*
X62064Y60439D01*
X62589Y59798D01*
X63055Y59214D01*
X63522Y58689D01*
X63930Y58223D01*
X64222Y57931D01*
X64455Y57698D01*
X64513Y57640D01*
X65738Y56532D01*
X66321Y56065D01*
X66846Y55599D01*
X67313Y55249D01*
X67721Y55015D01*
X67954Y54840D01*
X68012Y54782D01*
X69354Y53907D01*
X69995Y53557D01*
X70579Y53266D01*
X71104Y52974D01*
X71453Y52799D01*
X71687Y52683D01*
X71803Y52624D01*
X73261Y51983D01*
X73961Y51749D01*
X74603Y51574D01*
X75128Y51399D01*
X75536Y51283D01*
X75769Y51166D01*
X75886D01*
X77460Y50758D01*
X78160Y50583D01*
X78802Y50466D01*
X79327Y50408D01*
X79793Y50350D01*
X80027Y50291D01*
X80143D01*
X81718Y50233D01*
X82476Y50175D01*
X83117D01*
X83701Y50233D01*
X84517D01*
X86150Y50350D01*
X86850Y50466D01*
X87491Y50583D01*
X88075Y50641D01*
X88483Y50758D01*
X88716Y50816D01*
X88833D01*
X90349Y51283D01*
X91049Y51516D01*
X91690Y51691D01*
X92215Y51924D01*
X92624Y52099D01*
X92857Y52158D01*
X92974Y52216D01*
X93440Y51225D01*
X91865Y50641D01*
X91166Y50408D01*
X90466Y50175D01*
X89941Y50058D01*
X89474Y49942D01*
X89241Y49825D01*
X89124D01*
X87433Y49533D01*
X86675Y49417D01*
X85975Y49300D01*
X85392Y49242D01*
X84984Y49183D01*
X84575D01*
X84225Y49125D01*
X82884D01*
X81543Y49183D01*
X80901D01*
X80376Y49242D01*
X79910Y49300D01*
X79502D01*
X79268Y49358D01*
X79210D01*
X77869Y49592D01*
X77227Y49708D01*
X76702Y49825D01*
X76236Y49942D01*
X75886Y50058D01*
X75652Y50116D01*
X75594D01*
X74019Y50641D01*
X73320Y50875D01*
X72678Y51166D01*
X72153Y51341D01*
X71745Y51516D01*
X71512Y51633D01*
X71395Y51691D01*
X69879Y52449D01*
X69179Y52799D01*
X68596Y53149D01*
X68071Y53441D01*
X67721Y53674D01*
X67429Y53849D01*
X67371Y53907D01*
X66030Y54957D01*
X65447Y55424D01*
X64863Y55890D01*
X64455Y56298D01*
X64105Y56590D01*
X63872Y56823D01*
X63814Y56882D01*
X62589Y58165D01*
X62064Y58748D01*
X61597Y59273D01*
X61189Y59739D01*
X60897Y60148D01*
X60723Y60381D01*
X60664Y60439D01*
X59731Y61897D01*
X59323Y62597D01*
X58973Y63239D01*
X58681Y63763D01*
X58448Y64172D01*
X58331Y64405D01*
X58273Y64521D01*
X57573Y66096D01*
X57282Y66854D01*
X57048Y67496D01*
X56873Y68079D01*
X56757Y68546D01*
X56640Y68779D01*
Y68896D01*
X56232Y70529D01*
X56057Y71287D01*
X55940Y71928D01*
X55882Y72511D01*
X55824Y72978D01*
X55765Y73211D01*
Y73328D01*
X55590Y75019D01*
Y75777D01*
Y76477D01*
X55590Y77060D01*
Y77527D01*
Y77819D01*
Y77935D01*
X55765Y79568D01*
X55824Y80326D01*
X55940Y80968D01*
X56057Y81551D01*
X56174Y82017D01*
X56232Y82251D01*
Y82367D01*
X56640Y84000D01*
X56873Y84700D01*
X57048Y85342D01*
X57282Y85925D01*
X57398Y86333D01*
X57515Y86567D01*
X57573Y86683D01*
X58215Y88199D01*
X58565Y88899D01*
X58915Y89482D01*
X59206Y90007D01*
X59381Y90357D01*
X59556Y90649D01*
X59614Y90707D01*
X60081Y91465D01*
X60548Y92107D01*
X61014Y92748D01*
X61422Y93273D01*
X61831Y93740D01*
X62122Y94090D01*
X62297Y94323D01*
X62356Y94381D01*
X63172Y93740D01*
D02*
G37*
G36*
X59439Y105287D02*
X61247Y103829D01*
X62939Y102429D01*
X64455Y101205D01*
X65096Y100680D01*
X65738Y100155D01*
X66263Y99747D01*
X66729Y99339D01*
X67079Y99047D01*
X67371Y98814D01*
X67546Y98697D01*
X67604Y98639D01*
X69471Y97122D01*
X71278Y95606D01*
X72970Y94265D01*
X74486Y92982D01*
X75128Y92457D01*
X75769Y91932D01*
X76294Y91524D01*
X76761Y91115D01*
X77110Y90824D01*
X77402Y90591D01*
X77577Y90474D01*
X77635Y90416D01*
X79502Y88899D01*
X81309Y87441D01*
X83001Y86042D01*
X83817Y85400D01*
X84517Y84817D01*
X85217Y84234D01*
X85800Y83767D01*
X86325Y83301D01*
X86792Y82951D01*
X87142Y82659D01*
X87433Y82426D01*
X87608Y82309D01*
X87666Y82251D01*
X89591Y80734D01*
X91399Y79218D01*
X93148Y77819D01*
X93907Y77119D01*
X94665Y76535D01*
X95365Y75952D01*
X95948Y75486D01*
X96473Y75019D01*
X96939Y74611D01*
X97289Y74319D01*
X97581Y74086D01*
X97756Y73969D01*
X97814Y73911D01*
X96764Y73561D01*
X95831Y73211D01*
X94898Y72920D01*
X94082Y72628D01*
X93382Y72395D01*
X92857Y72220D01*
X92507Y72103D01*
X92390Y72045D01*
X91341Y71695D01*
X90349Y71403D01*
X89474Y71112D01*
X88599Y70820D01*
X87900Y70587D01*
X87375Y70412D01*
X87025Y70295D01*
X86967Y70237D01*
X86908D01*
X87550Y69420D01*
X88133Y68779D01*
X88308Y68487D01*
X88483Y68312D01*
X88599Y68196D01*
X88658Y68137D01*
X89299Y67437D01*
X89882Y66854D01*
X90116Y66621D01*
X90291Y66446D01*
X90407Y66329D01*
X90466Y66271D01*
X92157Y64463D01*
X92915Y63647D01*
X93615Y62889D01*
X94198Y62247D01*
X94665Y61722D01*
X94956Y61431D01*
X95073Y61372D01*
Y61314D01*
X96764Y59506D01*
X97522Y58689D01*
X98222Y57931D01*
X98805Y57290D01*
X99272Y56765D01*
X99564Y56473D01*
X99680Y56415D01*
Y56357D01*
X100555Y55424D01*
X101372Y54549D01*
X102130Y53674D01*
X102830Y52916D01*
X103413Y52333D01*
X103879Y51808D01*
X104171Y51516D01*
X104288Y51399D01*
X105979Y49592D01*
X106737Y48775D01*
X107437Y48017D01*
X108020Y47434D01*
X108487Y46909D01*
X108778Y46617D01*
X108895Y46501D01*
X109361Y46151D01*
X109536Y46034D01*
X109595Y45976D01*
X109770Y45742D01*
X109828Y45568D01*
Y45393D01*
Y45334D01*
X109770Y45218D01*
X109536D01*
X109361Y45334D01*
X109303Y45393D01*
X109011Y45684D01*
X108778Y45859D01*
X108603Y45917D01*
X108545Y45976D01*
X106679Y47375D01*
X104871Y48775D01*
X103180Y50058D01*
X101663Y51166D01*
X100963Y51691D01*
X100380Y52158D01*
X99855Y52566D01*
X99389Y52916D01*
X99039Y53207D01*
X98747Y53382D01*
X98572Y53499D01*
X98514Y53557D01*
X96648Y54957D01*
X94840Y56298D01*
X93148Y57581D01*
X92332Y58165D01*
X91632Y58748D01*
X90932Y59214D01*
X90349Y59681D01*
X89824Y60089D01*
X89358Y60439D01*
X88949Y60731D01*
X88716Y60906D01*
X88541Y61022D01*
X88483Y61081D01*
X86617Y62539D01*
X84750Y63880D01*
X83059Y65163D01*
X82243Y65805D01*
X81485Y66329D01*
X80843Y66854D01*
X80201Y67321D01*
X79677Y67729D01*
X79210Y68079D01*
X78860Y68371D01*
X78569Y68546D01*
X78394Y68662D01*
X78335Y68721D01*
X76469Y70120D01*
X74661Y71520D01*
X72911Y72803D01*
X72153Y73386D01*
X71395Y73911D01*
X70754Y74436D01*
X70112Y74902D01*
X69587Y75311D01*
X69121Y75661D01*
X68771Y75952D01*
X68479Y76127D01*
X68304Y76244D01*
X68246Y76302D01*
X68012Y76535D01*
X67779Y76710D01*
X67604Y76827D01*
X67546Y76885D01*
X67254Y77119D01*
X66963Y77294D01*
X66729Y77469D01*
X66671Y77527D01*
X67954Y77877D01*
X69121Y78227D01*
X70287Y78518D01*
X71278Y78810D01*
X72153Y78985D01*
X72503Y79102D01*
X72795Y79160D01*
X73028Y79277D01*
X73203D01*
X73320Y79335D01*
X73378D01*
X74603Y79685D01*
X75827Y80035D01*
X76935Y80326D01*
X77927Y80618D01*
X78802Y80793D01*
X79152Y80909D01*
X79443Y80968D01*
X79677Y81084D01*
X79852D01*
X79968Y81143D01*
X80026D01*
X78977Y82309D01*
X77927Y83476D01*
X76935Y84525D01*
X76119Y85517D01*
X75361Y86333D01*
X74778Y86975D01*
X74603Y87208D01*
X74428Y87383D01*
X74369Y87441D01*
X74311Y87500D01*
X73261Y88724D01*
X72212Y89832D01*
X71278Y90940D01*
X70404Y91874D01*
X69704Y92690D01*
X69121Y93332D01*
X68946Y93565D01*
X68771Y93740D01*
X68712Y93798D01*
X68654Y93857D01*
X67604Y95081D01*
X66554Y96189D01*
X65563Y97297D01*
X64747Y98230D01*
X63989Y99047D01*
X63405Y99689D01*
X63230Y99922D01*
X63055Y100097D01*
X62997Y100155D01*
X62939Y100213D01*
X61889Y101380D01*
X60897Y102488D01*
X59964Y103538D01*
X59148Y104471D01*
X58448Y105287D01*
X57865Y105929D01*
X57690Y106162D01*
X57515Y106337D01*
X57457Y106395D01*
X57398Y106454D01*
X57457Y106570D01*
X57515Y106629D01*
Y106745D01*
X57573Y106804D01*
X59439Y105287D01*
D02*
G37*
D12*
X104842Y148917D02*
G03*
X104842Y143917I0J-2500D01*
G01*
X207480Y148917D02*
G03*
X207480Y143917I0J-2500D01*
G01*
X310118Y148917D02*
G03*
X310118Y143917I0J-2500D01*
G01*
X276673Y62205D02*
Y72705D01*
X296004D01*
Y52362D02*
Y72705D01*
X276673Y52362D02*
X296004D01*
X276673D02*
Y62205D01*
X281450Y52862D02*
Y72547D01*
X285669Y62205D02*
X296004D01*
X276673D02*
X287008D01*
X252421D02*
Y72705D01*
X271752D01*
Y52362D02*
Y72705D01*
X252421Y52362D02*
X271752D01*
X252421D02*
Y62205D01*
X257198Y52862D02*
Y72547D01*
X261417Y62205D02*
X271752D01*
X252421D02*
X262756D01*
X104842Y136870D02*
Y143917D01*
Y148917D02*
Y155965D01*
X4843D02*
X104842D01*
X4843Y136870D02*
Y155965D01*
Y136870D02*
X104842D01*
X207480D02*
Y143917D01*
Y148917D02*
Y155965D01*
X107480D02*
X207480D01*
X107480Y136870D02*
Y155965D01*
Y136870D02*
X207480D01*
X310118D02*
Y143917D01*
Y148917D02*
Y155965D01*
X210118D02*
X310118D01*
X210118Y136870D02*
Y155965D01*
Y136870D02*
X310118D01*
D14*
X198949Y21915D02*
X199605Y21259D01*
Y19947D01*
X198949Y19291D01*
X196325D01*
X195669Y19947D01*
Y21259D01*
X196325Y21915D01*
X197637D01*
Y20603D01*
X195669Y23227D02*
X199605D01*
X195669Y25851D01*
X199605D01*
Y27163D02*
X195669D01*
Y29131D01*
X196325Y29787D01*
X198949D01*
X199605Y29131D01*
Y27163D01*
X189762Y21915D02*
Y19291D01*
X187795D01*
X188451Y20603D01*
Y21259D01*
X187795Y21915D01*
X186483D01*
X185827Y21259D01*
Y19947D01*
X186483Y19291D01*
X189762Y23227D02*
X187139D01*
X185827Y24539D01*
X187139Y25851D01*
X189762D01*
X176378Y19291D02*
Y20603D01*
Y19947D01*
X180314D01*
X179658Y19291D01*
X176378Y25195D02*
Y22571D01*
X179002Y25195D01*
X179658D01*
X180314Y24539D01*
Y23227D01*
X179658Y22571D01*
X180314Y26507D02*
X177690D01*
X176378Y27819D01*
X177690Y29131D01*
X180314D01*
X165748Y19291D02*
X169684D01*
X168372Y20603D01*
X169684Y21915D01*
X165748D01*
X169684Y23227D02*
Y24539D01*
Y23883D01*
X165748D01*
Y23227D01*
Y24539D01*
X169028Y29131D02*
X169684Y28475D01*
Y27163D01*
X169028Y26507D01*
X168372D01*
X167716Y27163D01*
Y28475D01*
X167060Y29131D01*
X166404D01*
X165748Y28475D01*
Y27163D01*
X166404Y26507D01*
X169684Y32410D02*
Y31099D01*
X169028Y30443D01*
X166404D01*
X165748Y31099D01*
Y32410D01*
X166404Y33066D01*
X169028D01*
X169684Y32410D01*
X155905Y19291D02*
X159841D01*
X158529Y20603D01*
X159841Y21915D01*
X155905D01*
X159841Y25195D02*
Y23883D01*
X159185Y23227D01*
X156562D01*
X155905Y23883D01*
Y25195D01*
X156562Y25851D01*
X159185D01*
X159841Y25195D01*
X159185Y29787D02*
X159841Y29131D01*
Y27819D01*
X159185Y27163D01*
X158529D01*
X157873Y27819D01*
Y29131D01*
X157217Y29787D01*
X156562D01*
X155905Y29131D01*
Y27819D01*
X156562Y27163D01*
X159841Y31099D02*
Y32410D01*
Y31754D01*
X155905D01*
Y31099D01*
Y32410D01*
X149343Y21915D02*
X149999Y21259D01*
Y19947D01*
X149343Y19291D01*
X146719D01*
X146063Y19947D01*
Y21259D01*
X146719Y21915D01*
X149999Y23227D02*
X146063D01*
Y25851D01*
X149999Y27163D02*
X146063D01*
X147375D01*
X149999Y29787D01*
X148031Y27819D01*
X146063Y29787D01*
X136221Y19291D02*
X140156D01*
X136221Y21915D01*
X140156D01*
X139500Y25851D02*
X140156Y25195D01*
Y23883D01*
X139500Y23227D01*
X136876D01*
X136221Y23883D01*
Y25195D01*
X136876Y25851D01*
X139500Y29787D02*
X140156Y29131D01*
Y27819D01*
X139500Y27163D01*
X138844D01*
X138188Y27819D01*
Y29131D01*
X137532Y29787D01*
X136876D01*
X136221Y29131D01*
Y27819D01*
X136876Y27163D01*
X129264Y21915D02*
X129920Y21259D01*
Y19947D01*
X129264Y19291D01*
X126640D01*
X125984Y19947D01*
Y21259D01*
X126640Y21915D01*
X127952D01*
Y20603D01*
X125984Y23227D02*
X129920D01*
Y25195D01*
X129264Y25851D01*
X127952D01*
X127296Y25195D01*
Y23227D01*
X129920Y27163D02*
Y28475D01*
Y27819D01*
X125984D01*
Y27163D01*
Y28475D01*
X129920Y32410D02*
Y31099D01*
X129264Y30443D01*
X126640D01*
X125984Y31099D01*
Y32410D01*
X126640Y33066D01*
X129264D01*
X129920Y32410D01*
X129264Y34378D02*
X129920Y35034D01*
Y36346D01*
X129264Y37002D01*
X128608D01*
X127952Y36346D01*
Y35690D01*
Y36346D01*
X127296Y37002D01*
X126640D01*
X125984Y36346D01*
Y35034D01*
X126640Y34378D01*
X119422Y21915D02*
X120078Y21259D01*
Y19947D01*
X119422Y19291D01*
X116798D01*
X116142Y19947D01*
Y21259D01*
X116798Y21915D01*
X118110D01*
Y20603D01*
X116142Y23227D02*
X120078D01*
Y25195D01*
X119422Y25851D01*
X118110D01*
X117454Y25195D01*
Y23227D01*
X120078Y27163D02*
Y28475D01*
Y27819D01*
X116142D01*
Y27163D01*
Y28475D01*
X120078Y32410D02*
Y31099D01*
X119422Y30443D01*
X116798D01*
X116142Y31099D01*
Y32410D01*
X116798Y33066D01*
X119422D01*
X120078Y32410D01*
X116142Y37002D02*
Y34378D01*
X118766Y37002D01*
X119422D01*
X120078Y36346D01*
Y35034D01*
X119422Y34378D01*
X109579Y21915D02*
X110235Y21259D01*
Y19947D01*
X109579Y19291D01*
X106955D01*
X106299Y19947D01*
Y21259D01*
X106955Y21915D01*
X108267D01*
Y20603D01*
X106299Y23227D02*
X110235D01*
Y25195D01*
X109579Y25851D01*
X108267D01*
X107611Y25195D01*
Y23227D01*
X110235Y27163D02*
Y28475D01*
Y27819D01*
X106299D01*
Y27163D01*
Y28475D01*
X110235Y32410D02*
Y31099D01*
X109579Y30443D01*
X106955D01*
X106299Y31099D01*
Y32410D01*
X106955Y33066D01*
X109579D01*
X110235Y32410D01*
X106299Y34378D02*
Y35690D01*
Y35034D01*
X110235D01*
X109579Y34378D01*
D36*
X271158Y82051D02*
X269158D01*
X270158D01*
Y76053D01*
X271158D01*
X269158D01*
X266159D02*
Y82051D01*
X264160Y80051D01*
X262160Y82051D01*
Y76053D01*
X260161Y82051D02*
Y76053D01*
X257162D01*
X256162Y77052D01*
Y81051D01*
X257162Y82051D01*
X260161D01*
X295377Y82052D02*
Y76054D01*
X292378D01*
X291378Y77054D01*
Y78054D01*
X292378Y79053D01*
X295377D01*
X292378D01*
X291378Y80053D01*
Y81053D01*
X292378Y82052D01*
X295377D01*
X289379Y76054D02*
Y82052D01*
X287380Y80053D01*
X285380Y82052D01*
Y76054D01*
X279382Y81053D02*
X280382Y82052D01*
X282381D01*
X283381Y81053D01*
Y80053D01*
X282381Y79053D01*
X280382D01*
X279382Y78054D01*
Y77054D01*
X280382Y76054D01*
X282381D01*
X283381Y77054D01*
X278740Y178439D02*
Y172441D01*
X274741D01*
X268743Y178439D02*
X272742D01*
Y172441D01*
X268743D01*
X272742Y175440D02*
X270743D01*
X266744Y178439D02*
Y172441D01*
X263745D01*
X262745Y173441D01*
Y177439D01*
X263745Y178439D01*
X266744D01*
X260746Y171441D02*
X256747D01*
X254748Y172441D02*
Y178439D01*
X251749D01*
X250749Y177439D01*
Y175440D01*
X251749Y174440D01*
X254748D01*
X252749D02*
X250749Y172441D01*
X244751Y178439D02*
X248750D01*
Y172441D01*
X244751D01*
X248750Y175440D02*
X246750D01*
X242752Y178439D02*
Y172441D01*
X239753D01*
X238753Y173441D01*
Y177439D01*
X239753Y178439D01*
X242752D01*
X236754Y172441D02*
X234754D01*
X235754D01*
Y178439D01*
X236754Y177439D01*
X184188Y177179D02*
Y171181D01*
X180189D01*
X174191Y177179D02*
X178190D01*
Y171181D01*
X174191D01*
X178190Y174180D02*
X176190D01*
X172192Y177179D02*
Y171181D01*
X169193D01*
X168193Y172181D01*
Y176180D01*
X169193Y177179D01*
X172192D01*
X166194Y170181D02*
X162195D01*
X160196Y177179D02*
Y176180D01*
X158196Y174180D01*
X156197Y176180D01*
Y177179D01*
X158196Y174180D02*
Y171181D01*
X151198D02*
X153198D01*
X154198Y172181D01*
Y174180D01*
X153198Y175180D01*
X151198D01*
X150199Y174180D01*
Y173180D01*
X154198D01*
X148199Y171181D02*
X146200D01*
X147200D01*
Y177179D01*
X148199D01*
X143201Y171181D02*
X141202D01*
X142201D01*
Y177179D01*
X143201D01*
X137203Y171181D02*
X135204D01*
X134204Y172181D01*
Y174180D01*
X135204Y175180D01*
X137203D01*
X138203Y174180D01*
Y172181D01*
X137203Y171181D01*
X132205Y175180D02*
Y172181D01*
X131205Y171181D01*
X130205Y172181D01*
X129206Y171181D01*
X128206Y172181D01*
Y175180D01*
X80343Y177179D02*
Y171181D01*
X76344D01*
X70346Y177179D02*
X74344D01*
Y171181D01*
X70346D01*
X74344Y174180D02*
X72345D01*
X68346Y177179D02*
Y171181D01*
X65347D01*
X64348Y172181D01*
Y176180D01*
X65347Y177179D01*
X68346D01*
X62348Y170181D02*
X58350D01*
X52352Y176180D02*
X53351Y177179D01*
X55351D01*
X56350Y176180D01*
Y172181D01*
X55351Y171181D01*
X53351D01*
X52352Y172181D01*
Y174180D01*
X54351D01*
X50352Y175180D02*
Y171181D01*
Y173180D01*
X49352Y174180D01*
X48353Y175180D01*
X47353D01*
X41355Y171181D02*
X43354D01*
X44354Y172181D01*
Y174180D01*
X43354Y175180D01*
X41355D01*
X40355Y174180D01*
Y173180D01*
X44354D01*
X35357Y171181D02*
X37356D01*
X38356Y172181D01*
Y174180D01*
X37356Y175180D01*
X35357D01*
X34357Y174180D01*
Y173180D01*
X38356D01*
X32358Y171181D02*
Y175180D01*
X29359D01*
X28359Y174180D01*
Y171181D01*
M02*
