M48
;Layer_Color=9474304
;FILE_FORMAT=2:5
INCH,LZ
;TYPE=PLATED
T1F00S00C0.01575
T2F00S00C0.02362
T3F00S00C0.03504
T4F00S00C0.03543
T5F00S00C0.04331
;TYPE=NON_PLATED
T6F00S00C0.16535
%
T01
X016811Y0033071
X0201181Y0053937
Y0058793
Y0063648
Y0068504
X0195669Y0088583
X0182101Y0090551
X0172441Y0084252
X0165354Y0100394
X0172441Y0117323
X0194882Y0111417
X0259449Y0105512
X0266142Y0095669
X026687Y0090492
X0274803Y0083858
Y0076772
X0275984Y0041732
X0251969Y0041757
X0305906Y0085433
X0297539Y0113386
X0274803Y0116929
X0156693Y0105512
X0164961Y0095276
X015Y0059055
Y005374
Y0048425
X0150394Y002126
X0090158Y0089764
X008189
X0069685Y0083858
Y0116929
X0054055Y0106968
X0098573Y0099065
T02
X0257087Y0062205
X0267087
X0281339
X0291339
T03
X0168164Y0011811
X0178164
X0188164
X0198164
X0158164
X0148164
X0138164
X0128164
X0118164
X0108164
T04
X017248Y0131417
X018248
X019248
X020248
X0215118
X0225118
X0235118
X0245118
X0255118
X0265118
X0275118
X0285118
X0295118
X0305118
X016248
X015248
X014248
X013248
X012248
X011248
X0099843
X0089842
X0079843
X0069842
X0059842
X0049843
X0039843
X0029842
X0019842
X0009843
Y0161417
X0019842
X0029842
X0039843
X0049843
X0059842
X0069842
X0079843
X0089842
X0099843
X011248
X012248
X013248
X014248
X015248
X016248
X017248
X018248
X019248
X020248
X0215118
X0225118
X0235118
X0245118
X0255118
X0265118
X0275118
X0285118
X0295118
X0305118
T05
X0046693Y0011811
X0056693
X0066693
X0076693
X0086693
T06
X0299213Y0015748
X0015748
Y0181102
X0299213
M30
