M48
;Layer_Color=9474304
;FILE_FORMAT=2:5
INCH,LZ
;TYPE=PLATED
T1F00S00C0.01968
T2F00S00C0.01968
T3F00S00C0.03740
T4F00S00C0.04016
T5F00S00C0.09488
T6F00S00C0.15748
%
T01
X0222047Y0387795
X0251575Y0389764
X026811Y0384646
X0305512Y0427165
X045Y0421654
X0454724Y0423228
X0459449Y0425197
X0463779Y0427165
X046811Y0401181
X0464961Y0397244
X0377165Y0348425
X0476378Y0359842
Y0364173
X0496063Y0413386
X0531496Y0423228
X0611713Y037559
X0616043
X0611811Y0358661
X0616142Y0354331
X0626378Y0377559
X0641339Y0494488
X0641732Y0506299
X0641339Y0536221
X0611024Y0502756
X0600787Y0494488
X0548032Y0520079
X0551575Y0569291
X0538976Y0582677
X0532676Y0582676
X0535433Y059252
X0527559Y0605905
X0413386Y0602362
Y0597638
X0398819Y0598032
Y0593701
X0389764Y0605905
X0420079Y052126
X0411024Y0510236
X0364173Y0485433
X0360236Y0488189
X0356299Y0490945
X0327559Y0502756
X032441Y0507087
X0189763Y0508267
X018189Y0505185
X0192913Y0500394
Y0494882
X015748Y0488189
X0261811Y0593701
X027559Y0596063
X0252756Y0605905
X0148031Y0494095
X0138976Y0476378
T02
X0513779Y0516929
X0523779
X0533779
X054378
X055378
X0415354
X0405354
X0395354
X0385354
X0375354
X0276378
X0266378
X0256378
X0246378
X0236378
Y0676929
X0246378
X0256378
X0266378
X0276378
X0375354
X0385354
X0395354
X0405354
X0415354
X0513779
X0523779
X0533779
X054378
X055378
T03
X0601968Y0413878
X062874
T04
X0305197Y0402283
Y0412284
Y0422284
Y0432283
Y0442283
Y0452283
Y0462284
X0315197
Y0452283
Y0442283
Y0432283
Y0422284
Y0412284
Y0402283
X0475197
Y0412284
Y0422284
Y0432283
Y0442283
Y0452283
Y0462284
X0485197
Y0452283
Y0442283
Y0432283
Y0422284
Y0412284
Y0402283
Y0472284
X0475197
Y0482283
Y0492283
X0485197
Y0482283
X0315197
Y0492283
Y0472284
X0305197
Y0482283
Y0492283
T05
X0362933Y0327264
X0427106
X0671969Y0474606
Y0538779
X0117795Y0537992
Y0473819
T06
X0115354Y0324803
X0674409
X0115354Y0687008
X0674409
M30
