G04*
G04 #@! TF.GenerationSoftware,Altium Limited,Altium Designer,18.1.11 (251)*
G04*
G04 Layer_Physical_Order=2*
G04 Layer_Color=16711680*
%FSLAX25Y25*%
%MOIN*%
G70*
G01*
G75*
%ADD36C,0.01000*%
%ADD37C,0.03937*%
%ADD38R,0.04331X0.04331*%
%ADD39C,0.04331*%
%ADD40C,0.05504*%
%ADD41R,0.05504X0.05504*%
%ADD42C,0.06299*%
%ADD43C,0.23622*%
%ADD44C,0.02362*%
G36*
X314961Y0D02*
X0D01*
Y196850D01*
X314961D01*
Y0D01*
D02*
G37*
%LPC*%
G36*
X299213Y193953D02*
X297202Y193795D01*
X295241Y193324D01*
X293378Y192552D01*
X291659Y191499D01*
X290126Y190189D01*
X288816Y188656D01*
X287763Y186936D01*
X286991Y185073D01*
X286520Y183113D01*
X286362Y181102D01*
X286520Y179092D01*
X286991Y177131D01*
X287763Y175268D01*
X288816Y173549D01*
X290126Y172016D01*
X291659Y170706D01*
X293378Y169652D01*
X295241Y168881D01*
X297202Y168410D01*
X299213Y168252D01*
X301223Y168410D01*
X303184Y168881D01*
X305047Y169652D01*
X306766Y170706D01*
X308299Y172016D01*
X309609Y173549D01*
X310663Y175268D01*
X311434Y177131D01*
X311905Y179092D01*
X312063Y181102D01*
X311905Y183113D01*
X311434Y185073D01*
X310663Y186936D01*
X309609Y188656D01*
X308299Y190189D01*
X306766Y191499D01*
X305047Y192552D01*
X303184Y193324D01*
X301223Y193795D01*
X299213Y193953D01*
D02*
G37*
G36*
X15748D02*
X13738Y193795D01*
X11777Y193324D01*
X9914Y192552D01*
X8195Y191499D01*
X6661Y190189D01*
X5352Y188656D01*
X4298Y186936D01*
X3526Y185073D01*
X3056Y183113D01*
X2897Y181102D01*
X3056Y179092D01*
X3526Y177131D01*
X4298Y175268D01*
X5352Y173549D01*
X6661Y172016D01*
X8195Y170706D01*
X9914Y169652D01*
X11777Y168881D01*
X13738Y168410D01*
X15748Y168252D01*
X17758Y168410D01*
X19719Y168881D01*
X21582Y169652D01*
X23301Y170706D01*
X24835Y172016D01*
X26144Y173549D01*
X27198Y175268D01*
X27970Y177131D01*
X28440Y179092D01*
X28599Y181102D01*
X28440Y183113D01*
X27970Y185073D01*
X27198Y186936D01*
X26144Y188656D01*
X24835Y190189D01*
X23301Y191499D01*
X21582Y192552D01*
X19719Y193324D01*
X17758Y193795D01*
X15748Y193953D01*
D02*
G37*
G36*
X218283Y164583D02*
X211953D01*
Y158252D01*
X218283D01*
Y164583D01*
D02*
G37*
G36*
X305118Y164610D02*
X304292Y164501D01*
X303522Y164182D01*
X302861Y163675D01*
X302353Y163014D01*
X302034Y162244D01*
X301925Y161417D01*
X302034Y160591D01*
X302062Y160524D01*
X299312Y157774D01*
X298981Y157278D01*
X298864Y156693D01*
Y129964D01*
X297964Y129063D01*
X297929Y129060D01*
X297761Y129253D01*
X297663Y129534D01*
X297883Y129821D01*
X298202Y130591D01*
X298311Y131417D01*
X298202Y132244D01*
X297883Y133014D01*
X297376Y133675D01*
X296714Y134182D01*
X295944Y134501D01*
X295118Y134610D01*
X294292Y134501D01*
X293522Y134182D01*
X292861Y133675D01*
X292353Y133014D01*
X292187Y132612D01*
X291687Y132712D01*
Y155823D01*
X294225Y158361D01*
X294292Y158333D01*
X295118Y158225D01*
X295944Y158333D01*
X296714Y158652D01*
X297376Y159160D01*
X297883Y159821D01*
X298202Y160591D01*
X298311Y161417D01*
X298202Y162244D01*
X297883Y163014D01*
X297376Y163675D01*
X296714Y164182D01*
X295944Y164501D01*
X295118Y164610D01*
X294292Y164501D01*
X293522Y164182D01*
X292861Y163675D01*
X292353Y163014D01*
X292034Y162244D01*
X291925Y161417D01*
X292034Y160591D01*
X292062Y160524D01*
X289076Y157538D01*
X288744Y157042D01*
X288628Y156457D01*
Y132521D01*
X288128Y132422D01*
X287883Y133014D01*
X287376Y133675D01*
X286714Y134182D01*
X285944Y134501D01*
X285118Y134610D01*
X284292Y134501D01*
X283522Y134182D01*
X282861Y133675D01*
X282738Y133515D01*
X282238Y133685D01*
Y156374D01*
X284225Y158361D01*
X284292Y158333D01*
X285118Y158225D01*
X285944Y158333D01*
X286714Y158652D01*
X287376Y159160D01*
X287883Y159821D01*
X288202Y160591D01*
X288311Y161417D01*
X288202Y162244D01*
X287883Y163014D01*
X287376Y163675D01*
X286714Y164182D01*
X285944Y164501D01*
X285118Y164610D01*
X284292Y164501D01*
X283522Y164182D01*
X282861Y163675D01*
X282353Y163014D01*
X282034Y162244D01*
X281925Y161417D01*
X282034Y160591D01*
X282062Y160524D01*
X279627Y158089D01*
X279296Y157593D01*
X279179Y157008D01*
Y130555D01*
X278409Y129785D01*
X277985Y130068D01*
X278202Y130591D01*
X278311Y131417D01*
X278202Y132244D01*
X277883Y133014D01*
X277376Y133675D01*
X276714Y134182D01*
X275944Y134501D01*
X275118Y134610D01*
X274292Y134501D01*
X273522Y134182D01*
X272896Y133702D01*
X272648Y133747D01*
X272395Y133833D01*
Y156532D01*
X274225Y158361D01*
X274292Y158333D01*
X275118Y158225D01*
X275944Y158333D01*
X276714Y158652D01*
X277376Y159160D01*
X277883Y159821D01*
X278202Y160591D01*
X278311Y161417D01*
X278202Y162244D01*
X277883Y163014D01*
X277376Y163675D01*
X276714Y164182D01*
X275944Y164501D01*
X275118Y164610D01*
X274292Y164501D01*
X273522Y164182D01*
X272861Y163675D01*
X272353Y163014D01*
X272034Y162244D01*
X271925Y161417D01*
X272034Y160591D01*
X272062Y160524D01*
X270118Y158580D01*
X268174Y160524D01*
X268202Y160591D01*
X268311Y161417D01*
X268202Y162244D01*
X267883Y163014D01*
X267376Y163675D01*
X266714Y164182D01*
X265944Y164501D01*
X265118Y164610D01*
X264292Y164501D01*
X263522Y164182D01*
X262861Y163675D01*
X262353Y163014D01*
X262034Y162244D01*
X261925Y161417D01*
X262034Y160591D01*
X262353Y159821D01*
X262861Y159160D01*
X263522Y158652D01*
X264292Y158333D01*
X265118Y158225D01*
X265944Y158333D01*
X266011Y158361D01*
X267807Y156565D01*
Y133851D01*
X267307Y133727D01*
X266714Y134182D01*
X265944Y134501D01*
X265118Y134610D01*
X264292Y134501D01*
X263522Y134182D01*
X263028Y133803D01*
X262528Y134023D01*
Y155537D01*
X262412Y156122D01*
X262080Y156618D01*
X258174Y160524D01*
X258202Y160591D01*
X258311Y161417D01*
X258202Y162244D01*
X257883Y163014D01*
X257376Y163675D01*
X256714Y164182D01*
X255944Y164501D01*
X255118Y164610D01*
X254292Y164501D01*
X253522Y164182D01*
X252861Y163675D01*
X252353Y163014D01*
X252034Y162244D01*
X251925Y161417D01*
X252034Y160591D01*
X252353Y159821D01*
X252861Y159160D01*
X253522Y158652D01*
X254292Y158333D01*
X255118Y158225D01*
X255944Y158333D01*
X256011Y158361D01*
X259469Y154903D01*
Y149882D01*
X259007Y149691D01*
X248174Y160524D01*
X248202Y160591D01*
X248311Y161417D01*
X248202Y162244D01*
X247883Y163014D01*
X247376Y163675D01*
X246714Y164182D01*
X245944Y164501D01*
X245118Y164610D01*
X244292Y164501D01*
X243522Y164182D01*
X242861Y163675D01*
X242353Y163014D01*
X242034Y162244D01*
X241925Y161417D01*
X242034Y160591D01*
X242353Y159821D01*
X242861Y159160D01*
X243522Y158652D01*
X244292Y158333D01*
X245118Y158225D01*
X245944Y158333D01*
X246011Y158361D01*
X257571Y146801D01*
Y136453D01*
X211024D01*
X210633Y136375D01*
X210303Y136154D01*
X210082Y135823D01*
X210004Y135433D01*
Y127559D01*
X210082Y127169D01*
X210303Y126838D01*
X210633Y126617D01*
X211024Y126540D01*
X252608D01*
X252799Y126077D01*
X249511Y122789D01*
X236641D01*
X236612Y122832D01*
X235890Y123314D01*
X235039Y123484D01*
X234188Y123314D01*
X233467Y122832D01*
X232985Y122111D01*
X232816Y121260D01*
X232985Y120409D01*
X233467Y119687D01*
X234188Y119205D01*
X235039Y119036D01*
X235890Y119205D01*
X236612Y119687D01*
X236641Y119730D01*
X248208D01*
X248400Y119269D01*
X247196Y118065D01*
X244515D01*
X244486Y118108D01*
X243764Y118590D01*
X242913Y118759D01*
X242062Y118590D01*
X241341Y118108D01*
X240859Y117386D01*
X240690Y116535D01*
X240859Y115684D01*
X241341Y114963D01*
X242062Y114481D01*
X242913Y114312D01*
X243764Y114481D01*
X244486Y114963D01*
X244515Y115006D01*
X247829D01*
X248415Y115122D01*
X248911Y115454D01*
X262080Y128623D01*
X262342Y129015D01*
X262695Y129113D01*
X262715Y129116D01*
X262920Y129114D01*
X263522Y128652D01*
X264292Y128333D01*
X265118Y128225D01*
X265472Y128271D01*
X265705Y127798D01*
X250067Y112159D01*
X237428D01*
X237399Y112202D01*
X236678Y112685D01*
X235827Y112854D01*
X234976Y112685D01*
X234254Y112202D01*
X233772Y111481D01*
X233603Y110630D01*
X233772Y109779D01*
X234254Y109057D01*
X234976Y108575D01*
X235827Y108406D01*
X236678Y108575D01*
X237399Y109057D01*
X237428Y109100D01*
X248778D01*
X248969Y108639D01*
X247352Y107021D01*
X237428D01*
X237399Y107065D01*
X236678Y107547D01*
X235827Y107716D01*
X234976Y107547D01*
X234254Y107065D01*
X233772Y106343D01*
X233603Y105492D01*
X233772Y104641D01*
X234254Y103920D01*
X234976Y103438D01*
X235827Y103268D01*
X236678Y103438D01*
X237399Y103920D01*
X237428Y103963D01*
X247985D01*
X248571Y104079D01*
X249067Y104411D01*
X263015Y118359D01*
X263477Y118167D01*
Y116682D01*
X248816Y102022D01*
X237428D01*
X237399Y102065D01*
X236678Y102547D01*
X235827Y102716D01*
X234976Y102547D01*
X234254Y102065D01*
X233772Y101343D01*
X233603Y100492D01*
X233772Y99641D01*
X234254Y98920D01*
X234976Y98438D01*
X235827Y98268D01*
X236678Y98438D01*
X237399Y98920D01*
X237428Y98963D01*
X249449D01*
X250035Y99079D01*
X250179Y99176D01*
X250498Y98787D01*
X248732Y97022D01*
X237428D01*
X237399Y97065D01*
X236678Y97547D01*
X235827Y97716D01*
X234976Y97547D01*
X234254Y97065D01*
X233772Y96343D01*
X233603Y95492D01*
X233772Y94641D01*
X234254Y93920D01*
X234976Y93438D01*
X235827Y93268D01*
X236678Y93438D01*
X237399Y93920D01*
X237428Y93963D01*
X249365D01*
X249951Y94079D01*
X250447Y94411D01*
X267462Y111426D01*
X267924Y111234D01*
Y109333D01*
X250612Y92022D01*
X237428D01*
X237399Y92065D01*
X236678Y92547D01*
X235827Y92716D01*
X234976Y92547D01*
X234254Y92065D01*
X233772Y91343D01*
X233603Y90492D01*
X233772Y89641D01*
X234176Y89037D01*
X233995Y88537D01*
X210263D01*
X210234Y88580D01*
X209512Y89062D01*
X208661Y89232D01*
X207810Y89062D01*
X207089Y88580D01*
X206607Y87859D01*
X206438Y87008D01*
X206607Y86157D01*
X207089Y85435D01*
X207810Y84953D01*
X208661Y84784D01*
X209512Y84953D01*
X210234Y85435D01*
X210263Y85479D01*
X257480D01*
X258066Y85595D01*
X258562Y85926D01*
X264689Y92054D01*
X265077Y91735D01*
X264815Y91343D01*
X264746Y90992D01*
X266370D01*
Y92616D01*
X266019Y92547D01*
X265628Y92285D01*
X265309Y92673D01*
X266091Y93456D01*
X266142Y93445D01*
X266993Y93615D01*
X267714Y94097D01*
X268196Y94818D01*
X268366Y95669D01*
X268196Y96520D01*
X267714Y97242D01*
X266993Y97724D01*
X266142Y97893D01*
X265291Y97724D01*
X264569Y97242D01*
X264087Y96520D01*
X263918Y95669D01*
X263928Y95618D01*
X256847Y88537D01*
X251670D01*
X251620Y89037D01*
X251831Y89079D01*
X252327Y89411D01*
X270535Y107618D01*
X270866Y108114D01*
X270983Y108700D01*
Y117725D01*
X274957Y121699D01*
X294292D01*
X294877Y121815D01*
X295373Y122147D01*
X301475Y128249D01*
X301807Y128745D01*
X301923Y129330D01*
Y129598D01*
X302050Y129664D01*
X302423Y129730D01*
X302861Y129160D01*
X303522Y128652D01*
X304292Y128333D01*
X305118Y128225D01*
X305944Y128333D01*
X306714Y128652D01*
X307376Y129160D01*
X307883Y129821D01*
X308202Y130591D01*
X308311Y131417D01*
X308202Y132244D01*
X307883Y133014D01*
X307376Y133675D01*
X306714Y134182D01*
X305944Y134501D01*
X305118Y134610D01*
X304292Y134501D01*
X303522Y134182D01*
X302861Y133675D01*
X302423Y133105D01*
X302050Y133171D01*
X301923Y133237D01*
Y156059D01*
X304225Y158361D01*
X304292Y158333D01*
X305118Y158225D01*
X305944Y158333D01*
X306714Y158652D01*
X307376Y159160D01*
X307883Y159821D01*
X308202Y160591D01*
X308311Y161417D01*
X308202Y162244D01*
X307883Y163014D01*
X307376Y163675D01*
X306714Y164182D01*
X305944Y164501D01*
X305118Y164610D01*
D02*
G37*
G36*
X235118D02*
X234292Y164501D01*
X233522Y164182D01*
X232861Y163675D01*
X232353Y163014D01*
X232034Y162244D01*
X231925Y161417D01*
X232034Y160591D01*
X232353Y159821D01*
X232861Y159160D01*
X233522Y158652D01*
X234292Y158333D01*
X235118Y158225D01*
X235944Y158333D01*
X236714Y158652D01*
X237376Y159160D01*
X237883Y159821D01*
X238202Y160591D01*
X238311Y161417D01*
X238202Y162244D01*
X237883Y163014D01*
X237376Y163675D01*
X236714Y164182D01*
X235944Y164501D01*
X235118Y164610D01*
D02*
G37*
G36*
X225118D02*
X224292Y164501D01*
X223522Y164182D01*
X222861Y163675D01*
X222353Y163014D01*
X222034Y162244D01*
X221925Y161417D01*
X222034Y160591D01*
X222353Y159821D01*
X222861Y159160D01*
X223522Y158652D01*
X224292Y158333D01*
X225118Y158225D01*
X225944Y158333D01*
X226714Y158652D01*
X227376Y159160D01*
X227883Y159821D01*
X228202Y160591D01*
X228311Y161417D01*
X228202Y162244D01*
X227883Y163014D01*
X227376Y163675D01*
X226714Y164182D01*
X225944Y164501D01*
X225118Y164610D01*
D02*
G37*
G36*
X202480D02*
X201654Y164501D01*
X200884Y164182D01*
X200223Y163675D01*
X199715Y163014D01*
X199396Y162244D01*
X199288Y161417D01*
X199396Y160591D01*
X199715Y159821D01*
X200223Y159160D01*
X200884Y158652D01*
X201654Y158333D01*
X202480Y158225D01*
X203307Y158333D01*
X204077Y158652D01*
X204738Y159160D01*
X205245Y159821D01*
X205564Y160591D01*
X205673Y161417D01*
X205564Y162244D01*
X205245Y163014D01*
X204738Y163675D01*
X204077Y164182D01*
X203307Y164501D01*
X202480Y164610D01*
D02*
G37*
G36*
X192480D02*
X191654Y164501D01*
X190884Y164182D01*
X190223Y163675D01*
X189715Y163014D01*
X189396Y162244D01*
X189288Y161417D01*
X189396Y160591D01*
X189715Y159821D01*
X190223Y159160D01*
X190884Y158652D01*
X191654Y158333D01*
X192480Y158225D01*
X193307Y158333D01*
X194077Y158652D01*
X194738Y159160D01*
X195245Y159821D01*
X195564Y160591D01*
X195673Y161417D01*
X195564Y162244D01*
X195245Y163014D01*
X194738Y163675D01*
X194077Y164182D01*
X193307Y164501D01*
X192480Y164610D01*
D02*
G37*
G36*
X182480D02*
X181654Y164501D01*
X180884Y164182D01*
X180223Y163675D01*
X179715Y163014D01*
X179396Y162244D01*
X179288Y161417D01*
X179396Y160591D01*
X179715Y159821D01*
X180223Y159160D01*
X180884Y158652D01*
X181654Y158333D01*
X182480Y158225D01*
X183307Y158333D01*
X184077Y158652D01*
X184738Y159160D01*
X185245Y159821D01*
X185564Y160591D01*
X185673Y161417D01*
X185564Y162244D01*
X185245Y163014D01*
X184738Y163675D01*
X184077Y164182D01*
X183307Y164501D01*
X182480Y164610D01*
D02*
G37*
G36*
X172480D02*
X171654Y164501D01*
X170884Y164182D01*
X170223Y163675D01*
X169715Y163014D01*
X169396Y162244D01*
X169288Y161417D01*
X169396Y160591D01*
X169715Y159821D01*
X170223Y159160D01*
X170884Y158652D01*
X171654Y158333D01*
X172480Y158225D01*
X173307Y158333D01*
X174077Y158652D01*
X174738Y159160D01*
X175245Y159821D01*
X175564Y160591D01*
X175673Y161417D01*
X175564Y162244D01*
X175245Y163014D01*
X174738Y163675D01*
X174077Y164182D01*
X173307Y164501D01*
X172480Y164610D01*
D02*
G37*
G36*
X162480D02*
X161654Y164501D01*
X160884Y164182D01*
X160223Y163675D01*
X159715Y163014D01*
X159396Y162244D01*
X159288Y161417D01*
X159396Y160591D01*
X159715Y159821D01*
X160223Y159160D01*
X160884Y158652D01*
X161654Y158333D01*
X162480Y158225D01*
X163307Y158333D01*
X164077Y158652D01*
X164738Y159160D01*
X165245Y159821D01*
X165564Y160591D01*
X165673Y161417D01*
X165564Y162244D01*
X165245Y163014D01*
X164738Y163675D01*
X164077Y164182D01*
X163307Y164501D01*
X162480Y164610D01*
D02*
G37*
G36*
X152480D02*
X151654Y164501D01*
X150884Y164182D01*
X150223Y163675D01*
X149715Y163014D01*
X149396Y162244D01*
X149288Y161417D01*
X149396Y160591D01*
X149715Y159821D01*
X150223Y159160D01*
X150884Y158652D01*
X151654Y158333D01*
X152480Y158225D01*
X153307Y158333D01*
X154077Y158652D01*
X154738Y159160D01*
X155245Y159821D01*
X155564Y160591D01*
X155673Y161417D01*
X155564Y162244D01*
X155245Y163014D01*
X154738Y163675D01*
X154077Y164182D01*
X153307Y164501D01*
X152480Y164610D01*
D02*
G37*
G36*
X142480D02*
X141654Y164501D01*
X140884Y164182D01*
X140223Y163675D01*
X139715Y163014D01*
X139396Y162244D01*
X139288Y161417D01*
X139396Y160591D01*
X139715Y159821D01*
X140223Y159160D01*
X140884Y158652D01*
X141654Y158333D01*
X142480Y158225D01*
X143307Y158333D01*
X144077Y158652D01*
X144738Y159160D01*
X145245Y159821D01*
X145564Y160591D01*
X145673Y161417D01*
X145564Y162244D01*
X145245Y163014D01*
X144738Y163675D01*
X144077Y164182D01*
X143307Y164501D01*
X142480Y164610D01*
D02*
G37*
G36*
X132480D02*
X131654Y164501D01*
X130884Y164182D01*
X130223Y163675D01*
X129715Y163014D01*
X129396Y162244D01*
X129288Y161417D01*
X129396Y160591D01*
X129715Y159821D01*
X130223Y159160D01*
X130884Y158652D01*
X131654Y158333D01*
X132480Y158225D01*
X133307Y158333D01*
X134077Y158652D01*
X134738Y159160D01*
X135245Y159821D01*
X135564Y160591D01*
X135673Y161417D01*
X135564Y162244D01*
X135245Y163014D01*
X134738Y163675D01*
X134077Y164182D01*
X133307Y164501D01*
X132480Y164610D01*
D02*
G37*
G36*
X122480D02*
X121654Y164501D01*
X120884Y164182D01*
X120223Y163675D01*
X119715Y163014D01*
X119396Y162244D01*
X119288Y161417D01*
X119396Y160591D01*
X119715Y159821D01*
X120223Y159160D01*
X120884Y158652D01*
X121654Y158333D01*
X122480Y158225D01*
X123307Y158333D01*
X124077Y158652D01*
X124738Y159160D01*
X125245Y159821D01*
X125564Y160591D01*
X125673Y161417D01*
X125564Y162244D01*
X125245Y163014D01*
X124738Y163675D01*
X124077Y164182D01*
X123307Y164501D01*
X122480Y164610D01*
D02*
G37*
G36*
X112480D02*
X111654Y164501D01*
X110884Y164182D01*
X110223Y163675D01*
X109715Y163014D01*
X109396Y162244D01*
X109288Y161417D01*
X109396Y160591D01*
X109715Y159821D01*
X110223Y159160D01*
X110884Y158652D01*
X111654Y158333D01*
X112480Y158225D01*
X113307Y158333D01*
X114077Y158652D01*
X114738Y159160D01*
X115245Y159821D01*
X115564Y160591D01*
X115673Y161417D01*
X115564Y162244D01*
X115245Y163014D01*
X114738Y163675D01*
X114077Y164182D01*
X113307Y164501D01*
X112480Y164610D01*
D02*
G37*
G36*
X99843D02*
X99016Y164501D01*
X98246Y164182D01*
X97585Y163675D01*
X97078Y163014D01*
X96759Y162244D01*
X96650Y161417D01*
X96759Y160591D01*
X97078Y159821D01*
X97585Y159160D01*
X98246Y158652D01*
X99016Y158333D01*
X99843Y158225D01*
X100669Y158333D01*
X101439Y158652D01*
X102100Y159160D01*
X102607Y159821D01*
X102926Y160591D01*
X103035Y161417D01*
X102926Y162244D01*
X102607Y163014D01*
X102100Y163675D01*
X101439Y164182D01*
X100669Y164501D01*
X99843Y164610D01*
D02*
G37*
G36*
X89842D02*
X89016Y164501D01*
X88246Y164182D01*
X87585Y163675D01*
X87078Y163014D01*
X86759Y162244D01*
X86650Y161417D01*
X86759Y160591D01*
X87078Y159821D01*
X87585Y159160D01*
X88246Y158652D01*
X89016Y158333D01*
X89842Y158225D01*
X90669Y158333D01*
X91439Y158652D01*
X92100Y159160D01*
X92607Y159821D01*
X92926Y160591D01*
X93035Y161417D01*
X92926Y162244D01*
X92607Y163014D01*
X92100Y163675D01*
X91439Y164182D01*
X90669Y164501D01*
X89842Y164610D01*
D02*
G37*
G36*
X79843D02*
X79016Y164501D01*
X78246Y164182D01*
X77585Y163675D01*
X77078Y163014D01*
X76759Y162244D01*
X76650Y161417D01*
X76759Y160591D01*
X77078Y159821D01*
X77585Y159160D01*
X78246Y158652D01*
X79016Y158333D01*
X79843Y158225D01*
X80669Y158333D01*
X81439Y158652D01*
X82100Y159160D01*
X82607Y159821D01*
X82926Y160591D01*
X83035Y161417D01*
X82926Y162244D01*
X82607Y163014D01*
X82100Y163675D01*
X81439Y164182D01*
X80669Y164501D01*
X79843Y164610D01*
D02*
G37*
G36*
X69842D02*
X69016Y164501D01*
X68246Y164182D01*
X67585Y163675D01*
X67078Y163014D01*
X66759Y162244D01*
X66650Y161417D01*
X66759Y160591D01*
X67078Y159821D01*
X67585Y159160D01*
X68246Y158652D01*
X69016Y158333D01*
X69842Y158225D01*
X70669Y158333D01*
X71439Y158652D01*
X72100Y159160D01*
X72607Y159821D01*
X72926Y160591D01*
X73035Y161417D01*
X72926Y162244D01*
X72607Y163014D01*
X72100Y163675D01*
X71439Y164182D01*
X70669Y164501D01*
X69842Y164610D01*
D02*
G37*
G36*
X59842D02*
X59016Y164501D01*
X58246Y164182D01*
X57585Y163675D01*
X57078Y163014D01*
X56759Y162244D01*
X56650Y161417D01*
X56759Y160591D01*
X57078Y159821D01*
X57585Y159160D01*
X58246Y158652D01*
X59016Y158333D01*
X59842Y158225D01*
X60669Y158333D01*
X61439Y158652D01*
X62100Y159160D01*
X62607Y159821D01*
X62926Y160591D01*
X63035Y161417D01*
X62926Y162244D01*
X62607Y163014D01*
X62100Y163675D01*
X61439Y164182D01*
X60669Y164501D01*
X59842Y164610D01*
D02*
G37*
G36*
X49843D02*
X49016Y164501D01*
X48246Y164182D01*
X47585Y163675D01*
X47078Y163014D01*
X46759Y162244D01*
X46650Y161417D01*
X46759Y160591D01*
X47078Y159821D01*
X47585Y159160D01*
X48246Y158652D01*
X49016Y158333D01*
X49843Y158225D01*
X50669Y158333D01*
X51439Y158652D01*
X52100Y159160D01*
X52607Y159821D01*
X52926Y160591D01*
X53035Y161417D01*
X52926Y162244D01*
X52607Y163014D01*
X52100Y163675D01*
X51439Y164182D01*
X50669Y164501D01*
X49843Y164610D01*
D02*
G37*
G36*
X39843D02*
X39016Y164501D01*
X38246Y164182D01*
X37585Y163675D01*
X37078Y163014D01*
X36759Y162244D01*
X36650Y161417D01*
X36759Y160591D01*
X37078Y159821D01*
X37585Y159160D01*
X38246Y158652D01*
X39016Y158333D01*
X39843Y158225D01*
X40669Y158333D01*
X41439Y158652D01*
X42100Y159160D01*
X42607Y159821D01*
X42926Y160591D01*
X43035Y161417D01*
X42926Y162244D01*
X42607Y163014D01*
X42100Y163675D01*
X41439Y164182D01*
X40669Y164501D01*
X39843Y164610D01*
D02*
G37*
G36*
X29842D02*
X29016Y164501D01*
X28246Y164182D01*
X27585Y163675D01*
X27078Y163014D01*
X26759Y162244D01*
X26650Y161417D01*
X26759Y160591D01*
X27078Y159821D01*
X27585Y159160D01*
X28246Y158652D01*
X29016Y158333D01*
X29842Y158225D01*
X30669Y158333D01*
X31439Y158652D01*
X32100Y159160D01*
X32607Y159821D01*
X32926Y160591D01*
X33035Y161417D01*
X32926Y162244D01*
X32607Y163014D01*
X32100Y163675D01*
X31439Y164182D01*
X30669Y164501D01*
X29842Y164610D01*
D02*
G37*
G36*
X19842D02*
X19016Y164501D01*
X18246Y164182D01*
X17585Y163675D01*
X17078Y163014D01*
X16759Y162244D01*
X16650Y161417D01*
X16759Y160591D01*
X17078Y159821D01*
X17585Y159160D01*
X18246Y158652D01*
X19016Y158333D01*
X19842Y158225D01*
X20669Y158333D01*
X21439Y158652D01*
X22100Y159160D01*
X22607Y159821D01*
X22926Y160591D01*
X23035Y161417D01*
X22926Y162244D01*
X22607Y163014D01*
X22100Y163675D01*
X21439Y164182D01*
X20669Y164501D01*
X19842Y164610D01*
D02*
G37*
G36*
X9843D02*
X9016Y164501D01*
X8246Y164182D01*
X7585Y163675D01*
X7078Y163014D01*
X6759Y162244D01*
X6650Y161417D01*
X6759Y160591D01*
X7078Y159821D01*
X7585Y159160D01*
X8246Y158652D01*
X9016Y158333D01*
X9843Y158225D01*
X10669Y158333D01*
X11439Y158652D01*
X12100Y159160D01*
X12607Y159821D01*
X12926Y160591D01*
X13035Y161417D01*
X12926Y162244D01*
X12607Y163014D01*
X12100Y163675D01*
X11439Y164182D01*
X10669Y164501D01*
X9843Y164610D01*
D02*
G37*
G36*
X192480Y134610D02*
X191654Y134501D01*
X190884Y134182D01*
X190223Y133675D01*
X189715Y133014D01*
X189396Y132244D01*
X189288Y131417D01*
X189396Y130591D01*
X189715Y129821D01*
X190223Y129160D01*
X190884Y128652D01*
X191654Y128333D01*
X192480Y128225D01*
X193307Y128333D01*
X194077Y128652D01*
X194738Y129160D01*
X195245Y129821D01*
X195564Y130591D01*
X195673Y131417D01*
X195564Y132244D01*
X195245Y133014D01*
X194738Y133675D01*
X194077Y134182D01*
X193307Y134501D01*
X192480Y134610D01*
D02*
G37*
G36*
X182480D02*
X181654Y134501D01*
X180884Y134182D01*
X180223Y133675D01*
X179715Y133014D01*
X179396Y132244D01*
X179288Y131417D01*
X179396Y130591D01*
X179715Y129821D01*
X180223Y129160D01*
X180884Y128652D01*
X181654Y128333D01*
X182480Y128225D01*
X183307Y128333D01*
X184077Y128652D01*
X184738Y129160D01*
X185245Y129821D01*
X185564Y130591D01*
X185673Y131417D01*
X185564Y132244D01*
X185245Y133014D01*
X184738Y133675D01*
X184077Y134182D01*
X183307Y134501D01*
X182480Y134610D01*
D02*
G37*
G36*
X172480D02*
X171654Y134501D01*
X170884Y134182D01*
X170223Y133675D01*
X169715Y133014D01*
X169396Y132244D01*
X169288Y131417D01*
X169396Y130591D01*
X169715Y129821D01*
X170223Y129160D01*
X170884Y128652D01*
X171654Y128333D01*
X172480Y128225D01*
X173307Y128333D01*
X174077Y128652D01*
X174738Y129160D01*
X175245Y129821D01*
X175564Y130591D01*
X175673Y131417D01*
X175564Y132244D01*
X175245Y133014D01*
X174738Y133675D01*
X174077Y134182D01*
X173307Y134501D01*
X172480Y134610D01*
D02*
G37*
G36*
X162480D02*
X161654Y134501D01*
X160884Y134182D01*
X160223Y133675D01*
X159715Y133014D01*
X159396Y132244D01*
X159288Y131417D01*
X159396Y130591D01*
X159715Y129821D01*
X160223Y129160D01*
X160884Y128652D01*
X161654Y128333D01*
X162480Y128225D01*
X163307Y128333D01*
X164077Y128652D01*
X164738Y129160D01*
X165245Y129821D01*
X165564Y130591D01*
X165673Y131417D01*
X165564Y132244D01*
X165245Y133014D01*
X164738Y133675D01*
X164077Y134182D01*
X163307Y134501D01*
X162480Y134610D01*
D02*
G37*
G36*
X152480D02*
X151654Y134501D01*
X150884Y134182D01*
X150223Y133675D01*
X149715Y133014D01*
X149396Y132244D01*
X149288Y131417D01*
X149396Y130591D01*
X149715Y129821D01*
X150223Y129160D01*
X150884Y128652D01*
X151654Y128333D01*
X152480Y128225D01*
X153307Y128333D01*
X154077Y128652D01*
X154738Y129160D01*
X155245Y129821D01*
X155564Y130591D01*
X155673Y131417D01*
X155564Y132244D01*
X155245Y133014D01*
X154738Y133675D01*
X154077Y134182D01*
X153307Y134501D01*
X152480Y134610D01*
D02*
G37*
G36*
X142480D02*
X141654Y134501D01*
X140884Y134182D01*
X140223Y133675D01*
X139715Y133014D01*
X139396Y132244D01*
X139288Y131417D01*
X139396Y130591D01*
X139715Y129821D01*
X140223Y129160D01*
X140884Y128652D01*
X141654Y128333D01*
X142480Y128225D01*
X143307Y128333D01*
X144077Y128652D01*
X144738Y129160D01*
X145245Y129821D01*
X145564Y130591D01*
X145673Y131417D01*
X145564Y132244D01*
X145245Y133014D01*
X144738Y133675D01*
X144077Y134182D01*
X143307Y134501D01*
X142480Y134610D01*
D02*
G37*
G36*
X132480D02*
X131654Y134501D01*
X130884Y134182D01*
X130223Y133675D01*
X129715Y133014D01*
X129396Y132244D01*
X129288Y131417D01*
X129396Y130591D01*
X129715Y129821D01*
X130223Y129160D01*
X130884Y128652D01*
X131654Y128333D01*
X132480Y128225D01*
X133307Y128333D01*
X134077Y128652D01*
X134738Y129160D01*
X135245Y129821D01*
X135564Y130591D01*
X135673Y131417D01*
X135564Y132244D01*
X135245Y133014D01*
X134738Y133675D01*
X134077Y134182D01*
X133307Y134501D01*
X132480Y134610D01*
D02*
G37*
G36*
X122480D02*
X121654Y134501D01*
X120884Y134182D01*
X120223Y133675D01*
X119715Y133014D01*
X119396Y132244D01*
X119288Y131417D01*
X119396Y130591D01*
X119715Y129821D01*
X120223Y129160D01*
X120884Y128652D01*
X121654Y128333D01*
X122480Y128225D01*
X123307Y128333D01*
X124077Y128652D01*
X124738Y129160D01*
X125245Y129821D01*
X125564Y130591D01*
X125673Y131417D01*
X125564Y132244D01*
X125245Y133014D01*
X124738Y133675D01*
X124077Y134182D01*
X123307Y134501D01*
X122480Y134610D01*
D02*
G37*
G36*
X112480D02*
X111654Y134501D01*
X110884Y134182D01*
X110223Y133675D01*
X109715Y133014D01*
X109396Y132244D01*
X109288Y131417D01*
X109396Y130591D01*
X109715Y129821D01*
X110223Y129160D01*
X110884Y128652D01*
X111654Y128333D01*
X112480Y128225D01*
X113307Y128333D01*
X114077Y128652D01*
X114738Y129160D01*
X115245Y129821D01*
X115564Y130591D01*
X115673Y131417D01*
X115564Y132244D01*
X115245Y133014D01*
X114738Y133675D01*
X114077Y134182D01*
X113307Y134501D01*
X112480Y134610D01*
D02*
G37*
G36*
X89842D02*
X89016Y134501D01*
X88246Y134182D01*
X87585Y133675D01*
X87078Y133014D01*
X86759Y132244D01*
X86650Y131417D01*
X86759Y130591D01*
X87078Y129821D01*
X87585Y129160D01*
X88246Y128652D01*
X89016Y128333D01*
X89842Y128225D01*
X90669Y128333D01*
X91439Y128652D01*
X92100Y129160D01*
X92607Y129821D01*
X92926Y130591D01*
X93035Y131417D01*
X92926Y132244D01*
X92607Y133014D01*
X92100Y133675D01*
X91439Y134182D01*
X90669Y134501D01*
X89842Y134610D01*
D02*
G37*
G36*
X79843D02*
X79016Y134501D01*
X78246Y134182D01*
X77585Y133675D01*
X77078Y133014D01*
X76759Y132244D01*
X76650Y131417D01*
X76759Y130591D01*
X77078Y129821D01*
X77585Y129160D01*
X78246Y128652D01*
X79016Y128333D01*
X79843Y128225D01*
X80669Y128333D01*
X81439Y128652D01*
X82100Y129160D01*
X82607Y129821D01*
X82926Y130591D01*
X83035Y131417D01*
X82926Y132244D01*
X82607Y133014D01*
X82100Y133675D01*
X81439Y134182D01*
X80669Y134501D01*
X79843Y134610D01*
D02*
G37*
G36*
X69842D02*
X69016Y134501D01*
X68246Y134182D01*
X67585Y133675D01*
X67078Y133014D01*
X66759Y132244D01*
X66650Y131417D01*
X66759Y130591D01*
X67078Y129821D01*
X67585Y129160D01*
X68246Y128652D01*
X69016Y128333D01*
X69842Y128225D01*
X70669Y128333D01*
X71439Y128652D01*
X72100Y129160D01*
X72607Y129821D01*
X72926Y130591D01*
X73035Y131417D01*
X72926Y132244D01*
X72607Y133014D01*
X72100Y133675D01*
X71439Y134182D01*
X70669Y134501D01*
X69842Y134610D01*
D02*
G37*
G36*
X59842D02*
X59016Y134501D01*
X58246Y134182D01*
X57585Y133675D01*
X57078Y133014D01*
X56759Y132244D01*
X56650Y131417D01*
X56759Y130591D01*
X57078Y129821D01*
X57585Y129160D01*
X58246Y128652D01*
X59016Y128333D01*
X59842Y128225D01*
X60669Y128333D01*
X61439Y128652D01*
X62100Y129160D01*
X62607Y129821D01*
X62926Y130591D01*
X63035Y131417D01*
X62926Y132244D01*
X62607Y133014D01*
X62100Y133675D01*
X61439Y134182D01*
X60669Y134501D01*
X59842Y134610D01*
D02*
G37*
G36*
X49843D02*
X49016Y134501D01*
X48246Y134182D01*
X47585Y133675D01*
X47078Y133014D01*
X46759Y132244D01*
X46650Y131417D01*
X46759Y130591D01*
X47078Y129821D01*
X47585Y129160D01*
X48246Y128652D01*
X49016Y128333D01*
X49843Y128225D01*
X50669Y128333D01*
X51439Y128652D01*
X52100Y129160D01*
X52607Y129821D01*
X52926Y130591D01*
X53035Y131417D01*
X52926Y132244D01*
X52607Y133014D01*
X52100Y133675D01*
X51439Y134182D01*
X50669Y134501D01*
X49843Y134610D01*
D02*
G37*
G36*
X39843D02*
X39016Y134501D01*
X38246Y134182D01*
X37585Y133675D01*
X37078Y133014D01*
X36759Y132244D01*
X36650Y131417D01*
X36759Y130591D01*
X37078Y129821D01*
X37585Y129160D01*
X38246Y128652D01*
X39016Y128333D01*
X39843Y128225D01*
X40669Y128333D01*
X41439Y128652D01*
X42100Y129160D01*
X42607Y129821D01*
X42926Y130591D01*
X43035Y131417D01*
X42926Y132244D01*
X42607Y133014D01*
X42100Y133675D01*
X41439Y134182D01*
X40669Y134501D01*
X39843Y134610D01*
D02*
G37*
G36*
X29842D02*
X29016Y134501D01*
X28246Y134182D01*
X27585Y133675D01*
X27078Y133014D01*
X26759Y132244D01*
X26650Y131417D01*
X26759Y130591D01*
X27078Y129821D01*
X27585Y129160D01*
X28246Y128652D01*
X29016Y128333D01*
X29842Y128225D01*
X30669Y128333D01*
X31439Y128652D01*
X32100Y129160D01*
X32607Y129821D01*
X32926Y130591D01*
X33035Y131417D01*
X32926Y132244D01*
X32607Y133014D01*
X32100Y133675D01*
X31439Y134182D01*
X30669Y134501D01*
X29842Y134610D01*
D02*
G37*
G36*
X19842D02*
X19016Y134501D01*
X18246Y134182D01*
X17585Y133675D01*
X17078Y133014D01*
X16759Y132244D01*
X16650Y131417D01*
X16759Y130591D01*
X17078Y129821D01*
X17585Y129160D01*
X18246Y128652D01*
X19016Y128333D01*
X19842Y128225D01*
X20669Y128333D01*
X21439Y128652D01*
X22100Y129160D01*
X22607Y129821D01*
X22926Y130591D01*
X23035Y131417D01*
X22926Y132244D01*
X22607Y133014D01*
X22100Y133675D01*
X21439Y134182D01*
X20669Y134501D01*
X19842Y134610D01*
D02*
G37*
G36*
X9843D02*
X9016Y134501D01*
X8246Y134182D01*
X7585Y133675D01*
X7078Y133014D01*
X6759Y132244D01*
X6650Y131417D01*
X6759Y130591D01*
X7078Y129821D01*
X7585Y129160D01*
X8246Y128652D01*
X9016Y128333D01*
X9843Y128225D01*
X10669Y128333D01*
X11439Y128652D01*
X12100Y129160D01*
X12607Y129821D01*
X12926Y130591D01*
X13035Y131417D01*
X12926Y132244D01*
X12607Y133014D01*
X12100Y133675D01*
X11439Y134182D01*
X10669Y134501D01*
X9843Y134610D01*
D02*
G37*
G36*
X195382Y113542D02*
Y111917D01*
X197006D01*
X196936Y112268D01*
X196454Y112990D01*
X195733Y113472D01*
X195382Y113542D01*
D02*
G37*
G36*
X194382D02*
X194031Y113472D01*
X193309Y112990D01*
X192827Y112268D01*
X192757Y111917D01*
X194382D01*
Y113542D01*
D02*
G37*
G36*
X197006Y110917D02*
X195382D01*
Y109293D01*
X195733Y109363D01*
X196454Y109845D01*
X196936Y110566D01*
X197006Y110917D01*
D02*
G37*
G36*
X194382D02*
X192757D01*
X192827Y110566D01*
X193309Y109845D01*
X194031Y109363D01*
X194382Y109293D01*
Y110917D01*
D02*
G37*
G36*
X103008Y134583D02*
X96677D01*
Y130415D01*
X89445Y123183D01*
X64567D01*
X63982Y123066D01*
X63485Y122735D01*
X52974Y112223D01*
X52642Y111727D01*
X52526Y111142D01*
Y108570D01*
X52483Y108541D01*
X52001Y107819D01*
X51831Y106968D01*
X52001Y106117D01*
X52483Y105396D01*
X53204Y104914D01*
X54055Y104745D01*
X54906Y104914D01*
X55628Y105396D01*
X56110Y106117D01*
X56279Y106968D01*
X56110Y107819D01*
X55628Y108541D01*
X55585Y108570D01*
Y110508D01*
X65200Y120124D01*
X90079D01*
X90664Y120241D01*
X91160Y120572D01*
X98840Y128252D01*
X103008D01*
Y134583D01*
D02*
G37*
G36*
X99073Y101189D02*
Y99565D01*
X100697D01*
X100627Y99916D01*
X100145Y100637D01*
X99424Y101119D01*
X99073Y101189D01*
D02*
G37*
G36*
X98073D02*
X97722Y101119D01*
X97000Y100637D01*
X96518Y99916D01*
X96448Y99565D01*
X98073D01*
Y101189D01*
D02*
G37*
G36*
X298138Y100943D02*
Y99319D01*
X299762D01*
X299692Y99670D01*
X299210Y100391D01*
X298489Y100873D01*
X298138Y100943D01*
D02*
G37*
G36*
X297138D02*
X296787Y100873D01*
X296065Y100391D01*
X295583Y99670D01*
X295513Y99319D01*
X297138D01*
Y100943D01*
D02*
G37*
G36*
X100697Y98565D02*
X99073D01*
Y96941D01*
X99424Y97010D01*
X100145Y97492D01*
X100627Y98214D01*
X100697Y98565D01*
D02*
G37*
G36*
X98073D02*
X96448D01*
X96518Y98214D01*
X97000Y97492D01*
X97722Y97010D01*
X98073Y96941D01*
Y98565D01*
D02*
G37*
G36*
X299762Y98319D02*
X298138D01*
Y96694D01*
X298489Y96764D01*
X299210Y97246D01*
X299692Y97968D01*
X299762Y98319D01*
D02*
G37*
G36*
X297138D02*
X295513D01*
X295583Y97968D01*
X296065Y97246D01*
X296787Y96764D01*
X297138Y96694D01*
Y98319D01*
D02*
G37*
G36*
X165354Y102618D02*
X164503Y102448D01*
X163782Y101966D01*
X163300Y101245D01*
X163130Y100394D01*
X163141Y100343D01*
X157634Y94836D01*
X85433D01*
X84848Y94720D01*
X84352Y94389D01*
X81941Y91978D01*
X81890Y91988D01*
X81039Y91818D01*
X80317Y91336D01*
X79835Y90615D01*
X79666Y89764D01*
X79835Y88913D01*
X80317Y88191D01*
X81039Y87709D01*
X81890Y87540D01*
X82741Y87709D01*
X83462Y88191D01*
X83944Y88913D01*
X84114Y89764D01*
X84104Y89815D01*
X86067Y91778D01*
X88414D01*
X88546Y91278D01*
X88103Y90615D01*
X87934Y89764D01*
X88103Y88913D01*
X88585Y88191D01*
X89306Y87709D01*
X90158Y87540D01*
X91009Y87709D01*
X91730Y88191D01*
X91759Y88234D01*
X159449D01*
X160034Y88351D01*
X160530Y88682D01*
X164910Y93062D01*
X164961Y93052D01*
X165812Y93221D01*
X166533Y93703D01*
X167015Y94425D01*
X167184Y95276D01*
X167015Y96127D01*
X166533Y96848D01*
X165812Y97330D01*
X165528Y97387D01*
X165431Y97514D01*
X165313Y97918D01*
X165519Y98203D01*
X166205Y98339D01*
X166927Y98821D01*
X167409Y99543D01*
X167578Y100394D01*
X167409Y101245D01*
X166927Y101966D01*
X166205Y102448D01*
X165354Y102618D01*
D02*
G37*
G36*
X267370Y92616D02*
Y90992D01*
X268994D01*
X268925Y91343D01*
X268443Y92065D01*
X267721Y92547D01*
X267370Y92616D01*
D02*
G37*
G36*
X268994Y89992D02*
X267370D01*
Y88368D01*
X267721Y88438D01*
X268443Y88920D01*
X268925Y89641D01*
X268994Y89992D01*
D02*
G37*
G36*
X266370D02*
X264746D01*
X264815Y89641D01*
X265298Y88920D01*
X266019Y88438D01*
X266370Y88368D01*
Y89992D01*
D02*
G37*
G36*
X274803Y119153D02*
X273952Y118984D01*
X273231Y118502D01*
X272749Y117780D01*
X272579Y116929D01*
X272749Y116078D01*
X273231Y115357D01*
X273274Y115328D01*
Y85460D01*
X273231Y85431D01*
X272749Y84709D01*
X272579Y83858D01*
X272749Y83007D01*
X273231Y82286D01*
X273952Y81804D01*
X274803Y81634D01*
X275654Y81804D01*
X276376Y82286D01*
X276858Y83007D01*
X277027Y83858D01*
X276858Y84709D01*
X276376Y85431D01*
X276332Y85460D01*
Y115328D01*
X276376Y115357D01*
X276858Y116078D01*
X277027Y116929D01*
X276858Y117780D01*
X276376Y118502D01*
X275654Y118984D01*
X274803Y119153D01*
D02*
G37*
G36*
X69685D02*
X68834Y118984D01*
X68112Y118502D01*
X67630Y117780D01*
X67461Y116929D01*
X67630Y116078D01*
X68112Y115357D01*
X68156Y115328D01*
Y85460D01*
X68112Y85431D01*
X67630Y84709D01*
X67461Y83858D01*
X67630Y83007D01*
X68112Y82286D01*
X68834Y81804D01*
X69685Y81634D01*
X70536Y81804D01*
X71258Y82286D01*
X71740Y83007D01*
X71909Y83858D01*
X71740Y84709D01*
X71258Y85431D01*
X71214Y85460D01*
Y115328D01*
X71258Y115357D01*
X71740Y116078D01*
X71909Y116929D01*
X71740Y117780D01*
X71258Y118502D01*
X70536Y118984D01*
X69685Y119153D01*
D02*
G37*
G36*
X183465Y92775D02*
X182614Y92606D01*
X181892Y92124D01*
X181410Y91402D01*
X181241Y90551D01*
X181410Y89700D01*
X181892Y88979D01*
X182614Y88497D01*
X183465Y88327D01*
X183515Y88337D01*
X191832Y80021D01*
X192328Y79689D01*
X192913Y79573D01*
X198792D01*
X198821Y79530D01*
X199543Y79048D01*
X200394Y78878D01*
X201245Y79048D01*
X201966Y79530D01*
X202448Y80251D01*
X202618Y81102D01*
X202448Y81953D01*
X201966Y82675D01*
X201245Y83157D01*
X200394Y83326D01*
X199543Y83157D01*
X198821Y82675D01*
X198792Y82632D01*
X193547D01*
X185678Y90500D01*
X185688Y90551D01*
X185519Y91402D01*
X185037Y92124D01*
X184316Y92606D01*
X183465Y92775D01*
D02*
G37*
G36*
X201681Y65773D02*
Y64148D01*
X203306D01*
X203236Y64499D01*
X202754Y65221D01*
X202032Y65703D01*
X201681Y65773D01*
D02*
G37*
G36*
X200681D02*
X200330Y65703D01*
X199609Y65221D01*
X199127Y64499D01*
X199057Y64148D01*
X200681D01*
Y65773D01*
D02*
G37*
G36*
X72547Y65332D02*
Y62705D01*
X75174D01*
X75131Y63031D01*
X74812Y63801D01*
X74305Y64462D01*
X73644Y64970D01*
X72874Y65289D01*
X72547Y65332D01*
D02*
G37*
G36*
X71547D02*
X71221Y65289D01*
X70451Y64970D01*
X69790Y64462D01*
X69282Y63801D01*
X68963Y63031D01*
X68920Y62705D01*
X71547D01*
Y65332D01*
D02*
G37*
G36*
X48138D02*
Y62705D01*
X50765D01*
X50722Y63031D01*
X50403Y63801D01*
X49895Y64462D01*
X49234Y64970D01*
X48464Y65289D01*
X48138Y65332D01*
D02*
G37*
G36*
X47138D02*
X46812Y65289D01*
X46042Y64970D01*
X45380Y64462D01*
X44873Y63801D01*
X44554Y63031D01*
X44511Y62705D01*
X47138D01*
Y65332D01*
D02*
G37*
G36*
X24122D02*
Y62705D01*
X26749D01*
X26706Y63031D01*
X26387Y63801D01*
X25880Y64462D01*
X25218Y64970D01*
X24448Y65289D01*
X24122Y65332D01*
D02*
G37*
G36*
X23122D02*
X22796Y65289D01*
X22026Y64970D01*
X21364Y64462D01*
X20857Y63801D01*
X20538Y63031D01*
X20495Y62705D01*
X23122D01*
Y65332D01*
D02*
G37*
G36*
X150500Y61180D02*
Y59555D01*
X152124D01*
X152055Y59906D01*
X151573Y60628D01*
X150851Y61110D01*
X150500Y61180D01*
D02*
G37*
G36*
X149500D02*
X149149Y61110D01*
X148427Y60628D01*
X147945Y59906D01*
X147876Y59555D01*
X149500D01*
Y61180D01*
D02*
G37*
G36*
X203306Y63148D02*
X199057D01*
X199127Y62797D01*
X199609Y62076D01*
X200330Y61594D01*
X200925Y61475D01*
Y60966D01*
X200330Y60847D01*
X199609Y60365D01*
X199127Y59644D01*
X199057Y59293D01*
X203306D01*
X203236Y59644D01*
X202754Y60365D01*
X202032Y60847D01*
X201437Y60966D01*
Y61475D01*
X202032Y61594D01*
X202754Y62076D01*
X203236Y62797D01*
X203306Y63148D01*
D02*
G37*
G36*
X75174Y61705D02*
X72547D01*
Y59078D01*
X72874Y59121D01*
X73644Y59440D01*
X74305Y59947D01*
X74812Y60608D01*
X75131Y61378D01*
X75174Y61705D01*
D02*
G37*
G36*
X71547D02*
X68920D01*
X68963Y61378D01*
X69282Y60608D01*
X69790Y59947D01*
X70451Y59440D01*
X71221Y59121D01*
X71547Y59078D01*
Y61705D01*
D02*
G37*
G36*
X50765D02*
X48138D01*
Y59078D01*
X48464Y59121D01*
X49234Y59440D01*
X49895Y59947D01*
X50403Y60608D01*
X50722Y61378D01*
X50765Y61705D01*
D02*
G37*
G36*
X47138D02*
X44511D01*
X44554Y61378D01*
X44873Y60608D01*
X45380Y59947D01*
X46042Y59440D01*
X46812Y59121D01*
X47138Y59078D01*
Y61705D01*
D02*
G37*
G36*
X26749D02*
X24122D01*
Y59078D01*
X24448Y59121D01*
X25218Y59440D01*
X25880Y59947D01*
X26387Y60608D01*
X26706Y61378D01*
X26749Y61705D01*
D02*
G37*
G36*
X23122D02*
X20495D01*
X20538Y61378D01*
X20857Y60608D01*
X21364Y59947D01*
X22026Y59440D01*
X22796Y59121D01*
X23122Y59078D01*
Y61705D01*
D02*
G37*
G36*
X82047Y65397D02*
X81221Y65289D01*
X80451Y64970D01*
X79790Y64462D01*
X79282Y63801D01*
X78963Y63031D01*
X78855Y62205D01*
X78963Y61378D01*
X79282Y60608D01*
X79790Y59947D01*
X80451Y59440D01*
X81221Y59121D01*
X82047Y59012D01*
X82874Y59121D01*
X83644Y59440D01*
X84305Y59947D01*
X84812Y60608D01*
X85131Y61378D01*
X85240Y62205D01*
X85131Y63031D01*
X84812Y63801D01*
X84305Y64462D01*
X83644Y64970D01*
X82874Y65289D01*
X82047Y65397D01*
D02*
G37*
G36*
X57638D02*
X56811Y65289D01*
X56042Y64970D01*
X55380Y64462D01*
X54873Y63801D01*
X54554Y63031D01*
X54445Y62205D01*
X54554Y61378D01*
X54873Y60608D01*
X55380Y59947D01*
X56042Y59440D01*
X56811Y59121D01*
X57638Y59012D01*
X58464Y59121D01*
X59234Y59440D01*
X59895Y59947D01*
X60403Y60608D01*
X60722Y61378D01*
X60830Y62205D01*
X60722Y63031D01*
X60403Y63801D01*
X59895Y64462D01*
X59234Y64970D01*
X58464Y65289D01*
X57638Y65397D01*
D02*
G37*
G36*
X33622D02*
X32796Y65289D01*
X32026Y64970D01*
X31365Y64462D01*
X30857Y63801D01*
X30538Y63031D01*
X30429Y62205D01*
X30538Y61378D01*
X30857Y60608D01*
X31365Y59947D01*
X32026Y59440D01*
X32796Y59121D01*
X33622Y59012D01*
X34448Y59121D01*
X35218Y59440D01*
X35880Y59947D01*
X36387Y60608D01*
X36706Y61378D01*
X36815Y62205D01*
X36706Y63031D01*
X36387Y63801D01*
X35880Y64462D01*
X35218Y64970D01*
X34448Y65289D01*
X33622Y65397D01*
D02*
G37*
G36*
X152124Y58555D02*
X150500D01*
Y56931D01*
X150851Y57001D01*
X151573Y57483D01*
X152055Y58204D01*
X152124Y58555D01*
D02*
G37*
G36*
X149500D02*
X147876D01*
X147945Y58204D01*
X148427Y57483D01*
X149149Y57001D01*
X149500Y56931D01*
Y58555D01*
D02*
G37*
G36*
X203306Y58293D02*
X199057D01*
X199127Y57942D01*
X199609Y57220D01*
X200330Y56738D01*
X200925Y56620D01*
Y56110D01*
X200330Y55992D01*
X199609Y55510D01*
X199127Y54788D01*
X199057Y54437D01*
X203306D01*
X203236Y54788D01*
X202754Y55510D01*
X202032Y55992D01*
X201437Y56110D01*
Y56620D01*
X202032Y56738D01*
X202754Y57220D01*
X203236Y57942D01*
X203306Y58293D01*
D02*
G37*
G36*
X150500Y55865D02*
Y54240D01*
X152124D01*
X152055Y54591D01*
X151573Y55313D01*
X150851Y55795D01*
X150500Y55865D01*
D02*
G37*
G36*
X149500D02*
X149149Y55795D01*
X148427Y55313D01*
X147945Y54591D01*
X147876Y54240D01*
X149500D01*
Y55865D01*
D02*
G37*
G36*
X203306Y53437D02*
X201681D01*
Y51813D01*
X202032Y51882D01*
X202754Y52364D01*
X203236Y53086D01*
X203306Y53437D01*
D02*
G37*
G36*
X200681D02*
X199057D01*
X199127Y53086D01*
X199609Y52364D01*
X200330Y51882D01*
X200681Y51813D01*
Y53437D01*
D02*
G37*
G36*
X152124Y53240D02*
X150500D01*
Y51616D01*
X150851Y51686D01*
X151573Y52168D01*
X152055Y52889D01*
X152124Y53240D01*
D02*
G37*
G36*
X149500D02*
X147876D01*
X147945Y52889D01*
X148427Y52168D01*
X149149Y51686D01*
X149500Y51616D01*
Y53240D01*
D02*
G37*
G36*
X150500Y50550D02*
Y48925D01*
X152124D01*
X152055Y49276D01*
X151573Y49998D01*
X150851Y50480D01*
X150500Y50550D01*
D02*
G37*
G36*
X149500D02*
X149149Y50480D01*
X148427Y49998D01*
X147945Y49276D01*
X147876Y48925D01*
X149500D01*
Y50550D01*
D02*
G37*
G36*
X152124Y47925D02*
X150500D01*
Y46301D01*
X150851Y46371D01*
X151573Y46853D01*
X152055Y47574D01*
X152124Y47925D01*
D02*
G37*
G36*
X149500D02*
X147876D01*
X147945Y47574D01*
X148427Y46853D01*
X149149Y46371D01*
X149500Y46301D01*
Y47925D01*
D02*
G37*
G36*
X205646Y134583D02*
X199315D01*
Y130415D01*
X192083Y123183D01*
X167717D01*
X167131Y123066D01*
X166635Y122735D01*
X155612Y111711D01*
X155280Y111215D01*
X155164Y110630D01*
Y107113D01*
X155120Y107084D01*
X154638Y106363D01*
X154469Y105512D01*
X154638Y104661D01*
X155120Y103939D01*
X155842Y103457D01*
X156693Y103288D01*
X157544Y103457D01*
X158265Y103939D01*
X158747Y104661D01*
X158917Y105512D01*
X158747Y106363D01*
X158265Y107084D01*
X158222Y107113D01*
Y109996D01*
X168350Y120124D01*
X170394D01*
X170564Y119624D01*
X170324Y119440D01*
X169848Y118820D01*
X169549Y118098D01*
X169447Y117323D01*
Y84252D01*
Y35395D01*
X169037Y35115D01*
X168947Y35128D01*
X168610Y35195D01*
Y33071D01*
Y30946D01*
X168947Y31014D01*
X169037Y31027D01*
X169447Y30746D01*
Y17534D01*
X169549Y16759D01*
X169848Y16037D01*
X170209Y15566D01*
X169894Y15156D01*
X169143Y15466D01*
X168164Y15595D01*
X167184Y15466D01*
X166822Y15316D01*
X159797Y22341D01*
X159300Y22673D01*
X158715Y22789D01*
X151995D01*
X151966Y22832D01*
X151245Y23314D01*
X150394Y23484D01*
X149543Y23314D01*
X148821Y22832D01*
X148339Y22111D01*
X148170Y21260D01*
X148339Y20409D01*
X148821Y19687D01*
X149543Y19205D01*
X150394Y19036D01*
X151245Y19205D01*
X151966Y19687D01*
X151995Y19730D01*
X158082D01*
X164659Y13153D01*
X164509Y12790D01*
X164380Y11811D01*
X164509Y10832D01*
X164887Y9919D01*
X165488Y9135D01*
X166272Y8534D01*
X167184Y8156D01*
X168164Y8027D01*
X169143Y8156D01*
X170056Y8534D01*
X170840Y9135D01*
X171441Y9919D01*
X171819Y10832D01*
X171948Y11811D01*
X171819Y12790D01*
X171520Y13514D01*
X171944Y13797D01*
X174448Y11293D01*
X174509Y10832D01*
X174887Y9919D01*
X175488Y9135D01*
X176272Y8534D01*
X177184Y8156D01*
X178164Y8027D01*
X179144Y8156D01*
X180056Y8534D01*
X180840Y9135D01*
X181441Y9919D01*
X181819Y10832D01*
X181948Y11811D01*
X181819Y12790D01*
X181441Y13703D01*
X180840Y14487D01*
X180056Y15088D01*
X179144Y15466D01*
X178682Y15527D01*
X175435Y18774D01*
Y84252D01*
Y117323D01*
X175333Y118098D01*
X175034Y118820D01*
X174558Y119440D01*
X174318Y119624D01*
X174488Y120124D01*
X192717D01*
X193302Y120241D01*
X193798Y120572D01*
X201478Y128252D01*
X205646D01*
Y134583D01*
D02*
G37*
G36*
X167610Y35195D02*
X167259Y35125D01*
X166538Y34643D01*
X166056Y33922D01*
X165986Y33571D01*
X167610D01*
Y35195D01*
D02*
G37*
G36*
Y32571D02*
X165986D01*
X166056Y32220D01*
X166538Y31498D01*
X167259Y31016D01*
X167610Y30946D01*
Y32571D01*
D02*
G37*
G36*
X47193Y15931D02*
Y12311D01*
X50813D01*
X50736Y12894D01*
X50318Y13904D01*
X49652Y14771D01*
X48786Y15436D01*
X47776Y15854D01*
X47193Y15931D01*
D02*
G37*
G36*
X201916Y15563D02*
X198664D01*
Y12311D01*
X201916D01*
Y15563D01*
D02*
G37*
G36*
X197664D02*
X194412D01*
Y12311D01*
X197664D01*
Y15563D01*
D02*
G37*
G36*
X46193Y15931D02*
X45610Y15854D01*
X44600Y15436D01*
X43733Y14771D01*
X43068Y13904D01*
X42650Y12894D01*
X42573Y12311D01*
X46193D01*
Y15931D01*
D02*
G37*
G36*
X201916Y11311D02*
X198664D01*
Y8059D01*
X201916D01*
Y11311D01*
D02*
G37*
G36*
X197664D02*
X194412D01*
Y8059D01*
X197664D01*
Y11311D01*
D02*
G37*
G36*
X188164Y15595D02*
X187185Y15466D01*
X186272Y15088D01*
X185488Y14487D01*
X184887Y13703D01*
X184509Y12790D01*
X184380Y11811D01*
X184509Y10832D01*
X184887Y9919D01*
X185488Y9135D01*
X186272Y8534D01*
X187185Y8156D01*
X188164Y8027D01*
X189144Y8156D01*
X190056Y8534D01*
X190840Y9135D01*
X191441Y9919D01*
X191819Y10832D01*
X191948Y11811D01*
X191819Y12790D01*
X191441Y13703D01*
X190840Y14487D01*
X190056Y15088D01*
X189144Y15466D01*
X188164Y15595D01*
D02*
G37*
G36*
X158164D02*
X157185Y15466D01*
X156272Y15088D01*
X155488Y14487D01*
X154887Y13703D01*
X154509Y12790D01*
X154380Y11811D01*
X154509Y10832D01*
X154887Y9919D01*
X155488Y9135D01*
X156272Y8534D01*
X157185Y8156D01*
X158164Y8027D01*
X159143Y8156D01*
X160056Y8534D01*
X160840Y9135D01*
X161441Y9919D01*
X161819Y10832D01*
X161948Y11811D01*
X161819Y12790D01*
X161441Y13703D01*
X160840Y14487D01*
X160056Y15088D01*
X159143Y15466D01*
X158164Y15595D01*
D02*
G37*
G36*
X148164D02*
X147185Y15466D01*
X146272Y15088D01*
X145488Y14487D01*
X144887Y13703D01*
X144509Y12790D01*
X144380Y11811D01*
X144509Y10832D01*
X144887Y9919D01*
X145488Y9135D01*
X146272Y8534D01*
X147185Y8156D01*
X148164Y8027D01*
X149144Y8156D01*
X150056Y8534D01*
X150840Y9135D01*
X151441Y9919D01*
X151819Y10832D01*
X151948Y11811D01*
X151819Y12790D01*
X151441Y13703D01*
X150840Y14487D01*
X150056Y15088D01*
X149144Y15466D01*
X148164Y15595D01*
D02*
G37*
G36*
X138164D02*
X137185Y15466D01*
X136272Y15088D01*
X135488Y14487D01*
X134887Y13703D01*
X134509Y12790D01*
X134380Y11811D01*
X134509Y10832D01*
X134887Y9919D01*
X135488Y9135D01*
X136272Y8534D01*
X137185Y8156D01*
X138164Y8027D01*
X139144Y8156D01*
X140056Y8534D01*
X140840Y9135D01*
X141441Y9919D01*
X141819Y10832D01*
X141948Y11811D01*
X141819Y12790D01*
X141441Y13703D01*
X140840Y14487D01*
X140056Y15088D01*
X139144Y15466D01*
X138164Y15595D01*
D02*
G37*
G36*
X128164D02*
X127184Y15466D01*
X126272Y15088D01*
X125488Y14487D01*
X124887Y13703D01*
X124509Y12790D01*
X124380Y11811D01*
X124509Y10832D01*
X124887Y9919D01*
X125488Y9135D01*
X126272Y8534D01*
X127184Y8156D01*
X128164Y8027D01*
X129144Y8156D01*
X130056Y8534D01*
X130840Y9135D01*
X131441Y9919D01*
X131819Y10832D01*
X131948Y11811D01*
X131819Y12790D01*
X131441Y13703D01*
X130840Y14487D01*
X130056Y15088D01*
X129144Y15466D01*
X128164Y15595D01*
D02*
G37*
G36*
X118164D02*
X117184Y15466D01*
X116272Y15088D01*
X115488Y14487D01*
X114887Y13703D01*
X114509Y12790D01*
X114380Y11811D01*
X114509Y10832D01*
X114887Y9919D01*
X115488Y9135D01*
X116272Y8534D01*
X117184Y8156D01*
X118164Y8027D01*
X119143Y8156D01*
X120056Y8534D01*
X120840Y9135D01*
X121441Y9919D01*
X121819Y10832D01*
X121948Y11811D01*
X121819Y12790D01*
X121441Y13703D01*
X120840Y14487D01*
X120056Y15088D01*
X119143Y15466D01*
X118164Y15595D01*
D02*
G37*
G36*
X108164D02*
X107185Y15466D01*
X106272Y15088D01*
X105488Y14487D01*
X104887Y13703D01*
X104509Y12790D01*
X104380Y11811D01*
X104509Y10832D01*
X104887Y9919D01*
X105488Y9135D01*
X106272Y8534D01*
X107185Y8156D01*
X108164Y8027D01*
X109143Y8156D01*
X110056Y8534D01*
X110840Y9135D01*
X111441Y9919D01*
X111819Y10832D01*
X111948Y11811D01*
X111819Y12790D01*
X111441Y13703D01*
X110840Y14487D01*
X110056Y15088D01*
X109143Y15466D01*
X108164Y15595D01*
D02*
G37*
G36*
X50813Y11311D02*
X47193D01*
Y7691D01*
X47776Y7768D01*
X48786Y8186D01*
X49652Y8851D01*
X50318Y9718D01*
X50736Y10728D01*
X50813Y11311D01*
D02*
G37*
G36*
X46193D02*
X42573D01*
X42650Y10728D01*
X43068Y9718D01*
X43733Y8851D01*
X44600Y8186D01*
X45610Y7768D01*
X46193Y7691D01*
Y11311D01*
D02*
G37*
G36*
X86693Y15996D02*
X85610Y15854D01*
X84600Y15436D01*
X83733Y14771D01*
X83068Y13904D01*
X82650Y12894D01*
X82507Y11811D01*
X82650Y10728D01*
X83068Y9718D01*
X83733Y8851D01*
X84600Y8186D01*
X85610Y7768D01*
X86693Y7626D01*
X87776Y7768D01*
X88786Y8186D01*
X89652Y8851D01*
X90318Y9718D01*
X90736Y10728D01*
X90878Y11811D01*
X90736Y12894D01*
X90318Y13904D01*
X89652Y14771D01*
X88786Y15436D01*
X87776Y15854D01*
X86693Y15996D01*
D02*
G37*
G36*
X76693D02*
X75610Y15854D01*
X74600Y15436D01*
X73733Y14771D01*
X73068Y13904D01*
X72650Y12894D01*
X72508Y11811D01*
X72650Y10728D01*
X73068Y9718D01*
X73733Y8851D01*
X74600Y8186D01*
X75610Y7768D01*
X76693Y7626D01*
X77776Y7768D01*
X78786Y8186D01*
X79652Y8851D01*
X80318Y9718D01*
X80736Y10728D01*
X80878Y11811D01*
X80736Y12894D01*
X80318Y13904D01*
X79652Y14771D01*
X78786Y15436D01*
X77776Y15854D01*
X76693Y15996D01*
D02*
G37*
G36*
X66693D02*
X65610Y15854D01*
X64600Y15436D01*
X63733Y14771D01*
X63068Y13904D01*
X62650Y12894D01*
X62507Y11811D01*
X62650Y10728D01*
X63068Y9718D01*
X63733Y8851D01*
X64600Y8186D01*
X65610Y7768D01*
X66693Y7626D01*
X67776Y7768D01*
X68786Y8186D01*
X69652Y8851D01*
X70318Y9718D01*
X70736Y10728D01*
X70878Y11811D01*
X70736Y12894D01*
X70318Y13904D01*
X69652Y14771D01*
X68786Y15436D01*
X67776Y15854D01*
X66693Y15996D01*
D02*
G37*
G36*
X56693D02*
X55610Y15854D01*
X54600Y15436D01*
X53733Y14771D01*
X53068Y13904D01*
X52650Y12894D01*
X52508Y11811D01*
X52650Y10728D01*
X53068Y9718D01*
X53733Y8851D01*
X54600Y8186D01*
X55610Y7768D01*
X56693Y7626D01*
X57776Y7768D01*
X58786Y8186D01*
X59652Y8851D01*
X60318Y9718D01*
X60736Y10728D01*
X60878Y11811D01*
X60736Y12894D01*
X60318Y13904D01*
X59652Y14771D01*
X58786Y15436D01*
X57776Y15854D01*
X56693Y15996D01*
D02*
G37*
G36*
X299213Y28599D02*
X297202Y28440D01*
X295241Y27970D01*
X293378Y27198D01*
X291659Y26144D01*
X290126Y24835D01*
X288816Y23301D01*
X287763Y21582D01*
X286991Y19719D01*
X286520Y17758D01*
X286362Y15748D01*
X286520Y13738D01*
X286991Y11777D01*
X287763Y9914D01*
X288816Y8195D01*
X290126Y6661D01*
X291659Y5352D01*
X293378Y4298D01*
X295241Y3526D01*
X297202Y3056D01*
X299213Y2897D01*
X301223Y3056D01*
X303184Y3526D01*
X305047Y4298D01*
X306766Y5352D01*
X308299Y6661D01*
X309609Y8195D01*
X310663Y9914D01*
X311434Y11777D01*
X311905Y13738D01*
X312063Y15748D01*
X311905Y17758D01*
X311434Y19719D01*
X310663Y21582D01*
X309609Y23301D01*
X308299Y24835D01*
X306766Y26144D01*
X305047Y27198D01*
X303184Y27970D01*
X301223Y28440D01*
X299213Y28599D01*
D02*
G37*
G36*
X15748D02*
X13738Y28440D01*
X11777Y27970D01*
X9914Y27198D01*
X8195Y26144D01*
X6661Y24835D01*
X5352Y23301D01*
X4298Y21582D01*
X3526Y19719D01*
X3056Y17758D01*
X2897Y15748D01*
X3056Y13738D01*
X3526Y11777D01*
X4298Y9914D01*
X5352Y8195D01*
X6661Y6661D01*
X8195Y5352D01*
X9914Y4298D01*
X11777Y3526D01*
X13738Y3056D01*
X15748Y2897D01*
X17758Y3056D01*
X19719Y3526D01*
X21582Y4298D01*
X23301Y5352D01*
X24835Y6661D01*
X26144Y8195D01*
X27198Y9914D01*
X27970Y11777D01*
X28440Y13738D01*
X28599Y15748D01*
X28440Y17758D01*
X27970Y19719D01*
X27198Y21582D01*
X26144Y23301D01*
X24835Y24835D01*
X23301Y26144D01*
X21582Y27198D01*
X19719Y27970D01*
X17758Y28440D01*
X15748Y28599D01*
D02*
G37*
%LPD*%
G36*
X257571Y134155D02*
X257071Y133908D01*
X256714Y134182D01*
X255944Y134501D01*
X255618Y134544D01*
Y131417D01*
X255118D01*
Y130917D01*
X251991D01*
X252034Y130591D01*
X252353Y129821D01*
X252861Y129160D01*
X253522Y128652D01*
X254271Y128342D01*
X254351Y128141D01*
X254441Y127850D01*
X254203Y127559D01*
X211024D01*
Y135433D01*
X257571D01*
Y134155D01*
D02*
G37*
%LPC*%
G36*
X245618Y134544D02*
Y131917D01*
X248245D01*
X248202Y132244D01*
X247883Y133014D01*
X247376Y133675D01*
X246714Y134182D01*
X245944Y134501D01*
X245618Y134544D01*
D02*
G37*
G36*
X235618D02*
Y131917D01*
X238245D01*
X238202Y132244D01*
X237883Y133014D01*
X237376Y133675D01*
X236714Y134182D01*
X235944Y134501D01*
X235618Y134544D01*
D02*
G37*
G36*
X225618D02*
Y131917D01*
X228245D01*
X228202Y132244D01*
X227883Y133014D01*
X227376Y133675D01*
X226714Y134182D01*
X225944Y134501D01*
X225618Y134544D01*
D02*
G37*
G36*
X215618D02*
Y131917D01*
X218245D01*
X218202Y132244D01*
X217883Y133014D01*
X217376Y133675D01*
X216714Y134182D01*
X215944Y134501D01*
X215618Y134544D01*
D02*
G37*
G36*
X254618D02*
X254292Y134501D01*
X253522Y134182D01*
X252861Y133675D01*
X252353Y133014D01*
X252034Y132244D01*
X251991Y131917D01*
X254618D01*
Y134544D01*
D02*
G37*
G36*
X244618D02*
X244292Y134501D01*
X243522Y134182D01*
X242861Y133675D01*
X242353Y133014D01*
X242034Y132244D01*
X241991Y131917D01*
X244618D01*
Y134544D01*
D02*
G37*
G36*
X234618D02*
X234292Y134501D01*
X233522Y134182D01*
X232861Y133675D01*
X232353Y133014D01*
X232034Y132244D01*
X231991Y131917D01*
X234618D01*
Y134544D01*
D02*
G37*
G36*
X224618D02*
X224292Y134501D01*
X223522Y134182D01*
X222861Y133675D01*
X222353Y133014D01*
X222034Y132244D01*
X221991Y131917D01*
X224618D01*
Y134544D01*
D02*
G37*
G36*
X214618D02*
X214292Y134501D01*
X213522Y134182D01*
X212861Y133675D01*
X212353Y133014D01*
X212034Y132244D01*
X211991Y131917D01*
X214618D01*
Y134544D01*
D02*
G37*
G36*
X248245Y130917D02*
X245618D01*
Y128290D01*
X245944Y128333D01*
X246714Y128652D01*
X247376Y129160D01*
X247883Y129821D01*
X248202Y130591D01*
X248245Y130917D01*
D02*
G37*
G36*
X238245D02*
X235618D01*
Y128290D01*
X235944Y128333D01*
X236714Y128652D01*
X237376Y129160D01*
X237883Y129821D01*
X238202Y130591D01*
X238245Y130917D01*
D02*
G37*
G36*
X228245D02*
X225618D01*
Y128290D01*
X225944Y128333D01*
X226714Y128652D01*
X227376Y129160D01*
X227883Y129821D01*
X228202Y130591D01*
X228245Y130917D01*
D02*
G37*
G36*
X218245D02*
X215618D01*
Y128290D01*
X215944Y128333D01*
X216714Y128652D01*
X217376Y129160D01*
X217883Y129821D01*
X218202Y130591D01*
X218245Y130917D01*
D02*
G37*
G36*
X224618D02*
X221991D01*
X222034Y130591D01*
X222353Y129821D01*
X222861Y129160D01*
X223522Y128652D01*
X224292Y128333D01*
X224618Y128290D01*
Y130917D01*
D02*
G37*
G36*
X244618D02*
X241991D01*
X242034Y130591D01*
X242353Y129821D01*
X242861Y129160D01*
X243522Y128652D01*
X244292Y128333D01*
X244618Y128290D01*
Y130917D01*
D02*
G37*
G36*
X234618D02*
X231991D01*
X232034Y130591D01*
X232353Y129821D01*
X232861Y129160D01*
X233522Y128652D01*
X234292Y128333D01*
X234618Y128290D01*
Y130917D01*
D02*
G37*
G36*
X214618D02*
X211991D01*
X212034Y130591D01*
X212353Y129821D01*
X212861Y129160D01*
X213522Y128652D01*
X214292Y128333D01*
X214618Y128290D01*
Y130917D01*
D02*
G37*
%LPD*%
D36*
X250144Y121260D02*
X259101Y130216D01*
X235039Y121260D02*
X250144D01*
X259101Y130216D02*
Y147435D01*
X245118Y161417D02*
X259101Y147435D01*
X255118Y161417D02*
X260999Y155537D01*
Y129705D02*
Y155537D01*
X247829Y116535D02*
X260999Y129705D01*
X269337Y129266D02*
Y157199D01*
X250700Y110630D02*
X269337Y129266D01*
X235827Y110630D02*
X250700D01*
X265118Y161417D02*
X269337Y157199D01*
X270866Y157165D02*
X275118Y161417D01*
X270866Y128373D02*
Y157165D01*
X247985Y105492D02*
X270866Y128373D01*
X272994Y127484D02*
X278272D01*
X265006Y119496D02*
X272994Y127484D01*
X265006Y116049D02*
Y119496D01*
X242913Y116535D02*
X247829D01*
X294292Y123228D02*
X300394Y129330D01*
X274323Y123228D02*
X294292D01*
X269453Y118358D02*
X274323Y123228D01*
X183465Y90551D02*
X192913Y81102D01*
X200394D01*
X267376Y119072D02*
X273894Y125591D01*
X267376Y113502D02*
Y119072D01*
X249365Y95492D02*
X267376Y113502D01*
X286221Y125591D02*
X290158Y129528D01*
X273894Y125591D02*
X286221D01*
X300394Y129330D02*
Y156693D01*
X235827Y105492D02*
X247985D01*
X235827Y100492D02*
X249449D01*
X265006Y116049D01*
X278272Y127484D02*
X280709Y129921D01*
Y157008D01*
X285118Y161417D01*
X235827Y95492D02*
X249365D01*
X290158Y129528D02*
Y156457D01*
X295118Y161417D01*
X300394Y156693D02*
X305118Y161417D01*
X269453Y108700D02*
Y118358D01*
X251246Y90492D02*
X269453Y108700D01*
X235827Y90492D02*
X251246D01*
X150394Y21260D02*
X158715D01*
X69685Y83858D02*
Y116929D01*
X64567Y121653D02*
X90079D01*
X99843Y131417D01*
X274803Y83858D02*
Y116929D01*
X167717Y121653D02*
X192717D01*
X202480Y131417D01*
X90158Y89764D02*
X159449D01*
X164961Y95276D01*
X156693Y105512D02*
Y110630D01*
X167717Y121653D01*
X54055Y111142D02*
X64567Y121653D01*
X54055Y106968D02*
Y111142D01*
X81890Y89764D02*
X85433Y93307D01*
X158268D01*
X165354Y100394D01*
X208661Y87008D02*
X257480D01*
X266142Y95669D01*
X158715Y21260D02*
X168164Y11811D01*
D37*
X172441Y84252D02*
Y117323D01*
Y17534D02*
X178164Y11811D01*
X172441Y17534D02*
Y84252D01*
D38*
X215118Y161417D02*
D03*
X99843Y131417D02*
D03*
X202480D02*
D03*
D39*
X225118Y161417D02*
D03*
X235118D02*
D03*
X245118D02*
D03*
X255118D02*
D03*
X265118D02*
D03*
X275118D02*
D03*
X285118D02*
D03*
X295118D02*
D03*
X305118D02*
D03*
X215118Y131417D02*
D03*
X225118D02*
D03*
X235118D02*
D03*
X245118D02*
D03*
X255118D02*
D03*
X265118D02*
D03*
X275118D02*
D03*
X285118D02*
D03*
X295118D02*
D03*
X305118D02*
D03*
X9843Y161417D02*
D03*
X19842D02*
D03*
X29842D02*
D03*
X39843D02*
D03*
X49843D02*
D03*
X59842D02*
D03*
X69842D02*
D03*
X79843D02*
D03*
X89842D02*
D03*
X99843D02*
D03*
X9843Y131417D02*
D03*
X19842D02*
D03*
X29842D02*
D03*
X39843D02*
D03*
X49843D02*
D03*
X59842D02*
D03*
X69842D02*
D03*
X79843D02*
D03*
X89842D02*
D03*
X23622Y62205D02*
D03*
X33622D02*
D03*
X57638D02*
D03*
X47638D02*
D03*
X72047D02*
D03*
X82047D02*
D03*
X112480Y161417D02*
D03*
X122480D02*
D03*
X132480D02*
D03*
X142480D02*
D03*
X152480D02*
D03*
X162480D02*
D03*
X172480D02*
D03*
X182480D02*
D03*
X192480D02*
D03*
X202480D02*
D03*
X112480Y131417D02*
D03*
X122480D02*
D03*
X132480D02*
D03*
X142480D02*
D03*
X152480D02*
D03*
X162480D02*
D03*
X172480D02*
D03*
X182480D02*
D03*
X192480D02*
D03*
D40*
X108164Y11811D02*
D03*
X118164D02*
D03*
X128164D02*
D03*
X138164D02*
D03*
X148164D02*
D03*
X158164D02*
D03*
X168164D02*
D03*
X178164D02*
D03*
X188164D02*
D03*
D41*
X198164D02*
D03*
D42*
X86693D02*
D03*
X76693D02*
D03*
X46693D02*
D03*
X66693D02*
D03*
X56693D02*
D03*
D43*
X15748Y15748D02*
D03*
Y181102D02*
D03*
X299213D02*
D03*
Y15748D02*
D03*
D44*
X297638Y98819D02*
D03*
X200394Y81102D02*
D03*
X235039Y121260D02*
D03*
X242913Y116535D02*
D03*
X235827Y90492D02*
D03*
Y95492D02*
D03*
Y100492D02*
D03*
Y105492D02*
D03*
Y110630D02*
D03*
X81890Y89764D02*
D03*
X168110Y33071D02*
D03*
X150394Y21260D02*
D03*
X98573Y99065D02*
D03*
X69685Y116929D02*
D03*
Y83858D02*
D03*
X172441Y117323D02*
D03*
Y84252D02*
D03*
X274803Y116929D02*
D03*
Y83858D02*
D03*
X90158Y89764D02*
D03*
X156693Y105512D02*
D03*
X54055Y106968D02*
D03*
X165354Y100394D02*
D03*
X164961Y95276D02*
D03*
X183465Y90551D02*
D03*
X208661Y87008D02*
D03*
X266142Y95669D02*
D03*
X150000Y48425D02*
D03*
Y53740D02*
D03*
Y59055D02*
D03*
X201181Y53937D02*
D03*
Y58793D02*
D03*
Y63648D02*
D03*
X266870Y90492D02*
D03*
X194882Y111417D02*
D03*
M02*
