G04*
G04 #@! TF.GenerationSoftware,Altium Limited,Altium Designer,19.1.8 (144)*
G04*
G04 Layer_Physical_Order=2*
G04 Layer_Color=16711680*
%FSLAX25Y25*%
%MOIN*%
G70*
G01*
G75*
%ADD10C,0.01000*%
%ADD13C,0.00394*%
%ADD14R,0.40158X0.15945*%
%ADD15C,0.00197*%
%ADD26C,0.01968*%
%ADD27C,0.04016*%
%ADD28C,0.01968*%
%ADD29C,0.02756*%
%ADD30C,0.09488*%
%ADD31C,0.23622*%
%ADD32C,0.03740*%
%ADD33R,0.11496X0.05000*%
%ADD34C,0.04331*%
%ADD35R,0.05000X0.11496*%
%ADD36R,0.05512X0.04331*%
%ADD37O,0.05709X0.02362*%
%ADD38O,0.05512X0.01772*%
%ADD39R,0.03543X0.03740*%
%ADD40R,0.03937X0.04134*%
%ADD41R,0.03347X0.03543*%
%ADD42R,0.03543X0.03347*%
%ADD43R,0.04134X0.03937*%
G36*
X664961Y699213D02*
X666549Y697625D01*
X666529Y697125D01*
X665323Y696095D01*
X664013Y694561D01*
X662959Y692842D01*
X662188Y690979D01*
X661717Y689018D01*
X661598Y687508D01*
X674409D01*
Y687008D01*
X674909D01*
Y674197D01*
X676420Y674315D01*
X678380Y674786D01*
X680243Y675558D01*
X681963Y676612D01*
X683496Y677921D01*
X684526Y679127D01*
X685026Y679147D01*
X688976Y675197D01*
X688976Y337008D01*
X684845Y332876D01*
X684345Y332896D01*
X683496Y333890D01*
X681963Y335199D01*
X680243Y336253D01*
X678380Y337025D01*
X676420Y337496D01*
X674909Y337614D01*
Y324803D01*
X674409D01*
Y324303D01*
X661598D01*
X661717Y322793D01*
X662188Y320832D01*
X662959Y318969D01*
X664013Y317250D01*
X665323Y315716D01*
X666140Y315019D01*
X666167Y314430D01*
X665917Y314173D01*
X124016Y314173D01*
X123640Y314549D01*
X123659Y315049D01*
X124441Y315716D01*
X125751Y317250D01*
X126804Y318969D01*
X127576Y320832D01*
X128047Y322793D01*
X128166Y324303D01*
X115354D01*
Y324803D01*
X114854D01*
Y337614D01*
X113344Y337496D01*
X111383Y337025D01*
X109520Y336253D01*
X107801Y335199D01*
X106268Y333890D01*
X105600Y333108D01*
X105100Y333089D01*
X102362Y335827D01*
Y365329D01*
X102862Y365536D01*
X121404Y346995D01*
X122060Y346556D01*
X122835Y346402D01*
X367661Y346402D01*
Y341677D01*
X369138D01*
Y338681D01*
X369292Y337907D01*
X369731Y337250D01*
X388333Y318648D01*
X388990Y318210D01*
X389764Y318056D01*
X622047D01*
X622822Y318210D01*
X623478Y318648D01*
X652218Y347388D01*
X652657Y348045D01*
X652810Y348819D01*
X652810Y479571D01*
X657535D01*
Y486571D01*
X644039D01*
Y479571D01*
X648764D01*
X648764Y349657D01*
X621209Y322102D01*
X430636D01*
X430467Y322602D01*
X431203Y323167D01*
X432124Y324367D01*
X432702Y325764D01*
X432900Y327264D01*
X432702Y328763D01*
X432124Y330161D01*
X431203Y331361D01*
X430210Y332123D01*
X430380Y332623D01*
X438189D01*
X438963Y332776D01*
X439619Y333215D01*
X476627Y370223D01*
X477066Y370879D01*
X477220Y371654D01*
Y400044D01*
X477342Y400138D01*
X477824Y400767D01*
X478127Y401498D01*
X478231Y402283D01*
X478127Y403069D01*
X477824Y403800D01*
X477342Y404429D01*
X476928Y404746D01*
X477098Y405246D01*
X477848D01*
X478434Y405363D01*
X478930Y405694D01*
X480482Y407246D01*
X486650D01*
X487235Y407363D01*
X487731Y407694D01*
X491894Y411856D01*
X494225D01*
X494349Y411671D01*
X495135Y411146D01*
X496063Y410961D01*
X496991Y411146D01*
X497777Y411671D01*
X498303Y412458D01*
X498488Y413386D01*
X498319Y414234D01*
X498556Y414734D01*
X538705D01*
X539290Y414851D01*
X539786Y415182D01*
X627797Y503193D01*
X639307D01*
Y504749D01*
X639807Y504900D01*
X640018Y504585D01*
X640804Y504059D01*
X641732Y503875D01*
X642660Y504059D01*
X643447Y504585D01*
X643959Y504467D01*
X644039Y504393D01*
Y503193D01*
X657535D01*
Y510193D01*
X644039D01*
Y508206D01*
X643959Y508131D01*
X643447Y508014D01*
X642660Y508539D01*
X641732Y508724D01*
X640804Y508539D01*
X640018Y508014D01*
X639807Y507698D01*
X639307Y507850D01*
Y510193D01*
X627576D01*
X627385Y510655D01*
X628193Y511463D01*
X642126D01*
X642711Y511579D01*
X643207Y511911D01*
X646301Y515004D01*
X657535D01*
Y522004D01*
X644039D01*
Y517068D01*
X641493Y514522D01*
X639350D01*
X639307Y515004D01*
X639307D01*
Y522004D01*
X639591Y522386D01*
X641339D01*
X642113Y522540D01*
X642769Y522979D01*
X646605Y526815D01*
X657535D01*
Y533815D01*
X649467D01*
X649272Y533854D01*
X646566D01*
X643655Y536765D01*
X643579Y537148D01*
X643053Y537935D01*
X642266Y538460D01*
X641339Y538645D01*
X640411Y538460D01*
X639624Y537935D01*
X639099Y537148D01*
X638914Y536221D01*
X639099Y535293D01*
X639624Y534506D01*
X640411Y533981D01*
X640794Y533904D01*
X644039Y530659D01*
Y529971D01*
X640501Y526433D01*
X639591D01*
X639307Y526815D01*
X639307Y526933D01*
Y529815D01*
X632559D01*
X625811D01*
Y526933D01*
X625811Y526815D01*
X625527Y526433D01*
X622835D01*
X622060Y526279D01*
X621404Y525840D01*
X614516Y518952D01*
X553780D01*
X553005Y518798D01*
X552349Y518360D01*
X549398Y515409D01*
X545752D01*
X545484Y515909D01*
X545649Y516155D01*
X545803Y516929D01*
X545649Y517703D01*
X545230Y518330D01*
Y519410D01*
X545730Y519459D01*
X545791Y519151D01*
X546317Y518364D01*
X547104Y517839D01*
X548032Y517654D01*
X548959Y517839D01*
X549746Y518364D01*
X550272Y519151D01*
X550456Y520079D01*
X550272Y521007D01*
X549746Y521793D01*
X549561Y521917D01*
Y561045D01*
X555534Y567018D01*
X555866Y567514D01*
X555982Y568099D01*
Y593606D01*
X555866Y594192D01*
X555534Y594688D01*
X548625Y601597D01*
X548415Y601737D01*
X548246Y602361D01*
X548256Y602399D01*
X548331Y602512D01*
X548478Y603248D01*
X548331Y603984D01*
X547968Y604528D01*
X548331Y605071D01*
X548478Y605807D01*
X548331Y606543D01*
X547915Y607167D01*
X547291Y607584D01*
X546555Y607730D01*
X542815D01*
X542079Y607584D01*
X541455Y607167D01*
X541039Y606543D01*
X540892Y605807D01*
X541032Y605104D01*
X541029Y604995D01*
X540820Y604604D01*
X540682D01*
X540097Y604488D01*
X539601Y604156D01*
X534585Y599140D01*
X534085Y599347D01*
Y616347D01*
X544782Y627044D01*
X545114Y627541D01*
X545230Y628126D01*
Y654020D01*
X547457D01*
Y659811D01*
X547957Y660018D01*
X549787Y658187D01*
Y654020D01*
X557299D01*
Y660350D01*
X552354D01*
X552315Y660409D01*
X552582Y660910D01*
X557299D01*
Y667240D01*
X555309D01*
Y675646D01*
X555649Y676155D01*
X555803Y676929D01*
X555649Y677703D01*
X555210Y678360D01*
X554554Y678798D01*
X553780Y678952D01*
X553005Y678798D01*
X552349Y678360D01*
X551910Y677703D01*
X551756Y676929D01*
X551910Y676155D01*
X552250Y675646D01*
Y667240D01*
X550348D01*
Y675591D01*
X550232Y676176D01*
X549900Y676672D01*
X545963Y680609D01*
X545467Y680940D01*
X544882Y681057D01*
X542520D01*
X541934Y680940D01*
X541438Y680609D01*
X538289Y677459D01*
X537957Y676963D01*
X537841Y676378D01*
Y627257D01*
X529474Y618890D01*
X529142Y618394D01*
X529026Y617809D01*
Y608316D01*
X528585Y608080D01*
X528487Y608146D01*
X527559Y608330D01*
X526631Y608146D01*
X525845Y607620D01*
X525655Y607337D01*
X524432D01*
X524063Y607584D01*
X523327Y607730D01*
X519587D01*
X518851Y607584D01*
X518227Y607167D01*
X517810Y606543D01*
X517809Y606536D01*
X517309Y606586D01*
Y649300D01*
X522029Y654020D01*
X527378D01*
Y660350D01*
X519866D01*
Y656183D01*
X518035Y654352D01*
X517535Y654559D01*
Y660350D01*
X510024D01*
Y654020D01*
X512250D01*
Y603543D01*
X512367Y602958D01*
X512698Y602462D01*
X515379Y599781D01*
X515682Y599579D01*
X515745Y599202D01*
X515741Y599034D01*
X515727Y598993D01*
X512119Y595385D01*
X511788Y594888D01*
X511671Y594303D01*
Y583505D01*
X511788Y582919D01*
X512119Y582423D01*
X522093Y572450D01*
Y543224D01*
X519866D01*
Y536894D01*
X527378D01*
Y543224D01*
X525151D01*
Y571566D01*
X525613Y571758D01*
X532329Y565042D01*
Y543224D01*
X530102D01*
Y536894D01*
X537614D01*
Y543224D01*
X535388D01*
Y564158D01*
X535850Y564350D01*
X542171Y558028D01*
Y543224D01*
X539945D01*
Y536894D01*
X546502D01*
Y536335D01*
X539945D01*
Y530004D01*
X542171D01*
Y518094D01*
X541910Y517703D01*
X541756Y516929D01*
X541910Y516155D01*
X542075Y515909D01*
X541808Y515409D01*
X535752D01*
X535484Y515909D01*
X535649Y516155D01*
X535803Y516929D01*
X535649Y517703D01*
X535309Y518212D01*
Y530004D01*
X537614D01*
Y536335D01*
X530102D01*
Y530004D01*
X532250D01*
Y518212D01*
X531910Y517703D01*
X531756Y516929D01*
X531910Y516155D01*
X532075Y515909D01*
X531808Y515409D01*
X525752D01*
X525484Y515909D01*
X525649Y516155D01*
X525803Y516929D01*
X525649Y517703D01*
X525210Y518360D01*
X525151Y518399D01*
Y530004D01*
X527378D01*
Y536335D01*
X519866D01*
Y530004D01*
X522093D01*
Y517976D01*
X521910Y517703D01*
X521756Y516929D01*
X521910Y516155D01*
X522075Y515909D01*
X521807Y515409D01*
X518161D01*
X515210Y518360D01*
X514554Y518798D01*
X513779Y518952D01*
X421805D01*
X421654Y519452D01*
X421793Y519545D01*
X422319Y520332D01*
X422503Y521260D01*
X422319Y522188D01*
X421793Y522974D01*
X421007Y523500D01*
X420079Y523684D01*
X419151Y523500D01*
X418364Y522974D01*
X418241Y522789D01*
X414173D01*
X413588Y522673D01*
X413092Y522341D01*
X407853Y517102D01*
X407310Y517267D01*
X407224Y517703D01*
X406884Y518212D01*
Y528035D01*
X408874D01*
Y534366D01*
X401362D01*
Y528035D01*
X403825D01*
Y518212D01*
X403485Y517703D01*
X403331Y516929D01*
X403485Y516155D01*
X403924Y515499D01*
X404085Y515391D01*
X403933Y514891D01*
X396775D01*
X396624Y515391D01*
X396785Y515499D01*
X397223Y516155D01*
X397377Y516929D01*
X397223Y517703D01*
X396884Y518212D01*
Y528035D01*
X399425D01*
Y534366D01*
X391913D01*
Y528035D01*
X393825D01*
Y518212D01*
X393485Y517703D01*
X393331Y516929D01*
X393485Y516155D01*
X393924Y515499D01*
X394085Y515391D01*
X393933Y514891D01*
X386775D01*
X386624Y515391D01*
X386785Y515499D01*
X387224Y516155D01*
X387377Y516929D01*
X387224Y517703D01*
X386884Y518212D01*
Y528035D01*
X389189D01*
Y534366D01*
X381677D01*
Y528035D01*
X383825D01*
Y518212D01*
X383666Y517974D01*
X383050Y517883D01*
X296604Y604329D01*
X296108Y604661D01*
X295522Y604777D01*
X273100D01*
X272782Y605277D01*
X272887Y605807D01*
X272741Y606543D01*
X272324Y607167D01*
X271700Y607584D01*
X270965Y607730D01*
X267224D01*
X266489Y607584D01*
X265865Y607167D01*
X265448Y606543D01*
X265302Y605807D01*
X265448Y605071D01*
X265811Y604528D01*
X265448Y603984D01*
X265302Y603248D01*
X265448Y602512D01*
X265811Y601968D01*
X265448Y601425D01*
X265302Y600689D01*
X265448Y599953D01*
X265811Y599409D01*
X265448Y598866D01*
X265302Y598130D01*
X265407Y597600D01*
X265089Y597100D01*
X263681D01*
X263096Y596984D01*
X262600Y596652D01*
X262029Y596082D01*
X261811Y596125D01*
X260883Y595941D01*
X260663Y595794D01*
X260222Y596030D01*
Y616107D01*
X267223Y623107D01*
X267555Y623604D01*
X267671Y624189D01*
Y654413D01*
X269898D01*
Y660709D01*
X269910Y660721D01*
X270556Y660655D01*
X270572Y660631D01*
X272622Y658581D01*
Y654413D01*
X280134D01*
Y660744D01*
X275189D01*
X275149Y660803D01*
X275417Y661303D01*
X280134D01*
Y667634D01*
X277907D01*
Y675646D01*
X278247Y676155D01*
X278401Y676929D01*
X278247Y677703D01*
X277808Y678360D01*
X277152Y678798D01*
X276378Y678952D01*
X275604Y678798D01*
X274947Y678360D01*
X274509Y677703D01*
X274355Y676929D01*
X274509Y676155D01*
X274849Y675646D01*
Y667634D01*
X273183D01*
Y675984D01*
X273066Y676570D01*
X272735Y677066D01*
X269192Y680609D01*
X268695Y680940D01*
X268110Y681057D01*
X264961D01*
X264375Y680940D01*
X263879Y680609D01*
X260730Y677459D01*
X260398Y676963D01*
X260282Y676378D01*
Y623320D01*
X255611Y618650D01*
X255280Y618154D01*
X255164Y617569D01*
Y607482D01*
X254663Y607331D01*
X254470Y607620D01*
X253684Y608146D01*
X252756Y608330D01*
X251828Y608146D01*
X251042Y607620D01*
X250852Y607337D01*
X248842D01*
X248472Y607584D01*
X247736Y607730D01*
X243996D01*
X243260Y607584D01*
X242636Y607167D01*
X242220Y606543D01*
X242073Y605807D01*
X242179Y605277D01*
X241860Y604777D01*
X240299D01*
X239750Y605326D01*
Y649300D01*
X244864Y654413D01*
X250213D01*
Y660744D01*
X242701D01*
Y656576D01*
X240433Y654308D01*
X239976Y654559D01*
Y660744D01*
X232465D01*
Y654413D01*
X234691D01*
Y603543D01*
X234807Y602958D01*
X235139Y602462D01*
X237993Y599608D01*
X238490Y599276D01*
X239075Y599160D01*
X239845D01*
X240053Y598660D01*
X236257Y594864D01*
X235926Y594368D01*
X235809Y593783D01*
Y578658D01*
X235926Y578073D01*
X236257Y577577D01*
X244927Y568906D01*
Y541650D01*
X242701D01*
Y535319D01*
X250213D01*
Y541650D01*
X247986D01*
Y568023D01*
X248448Y568214D01*
X254770Y561892D01*
Y541650D01*
X252543D01*
Y535319D01*
X260055D01*
Y541650D01*
X257829D01*
Y561009D01*
X258291Y561200D01*
X265006Y554485D01*
Y541650D01*
X262779D01*
Y535319D01*
X270291D01*
Y541650D01*
X268065D01*
Y555118D01*
X267948Y555703D01*
X267617Y556200D01*
X242868Y580948D01*
Y585824D01*
X243368Y586096D01*
X243996Y585971D01*
X247736D01*
X248472Y586117D01*
X249096Y586534D01*
X249098Y586538D01*
X254281D01*
X254866Y586654D01*
X255363Y586985D01*
X259774Y591397D01*
X260106Y591893D01*
X260186Y591927D01*
X260883Y591461D01*
X261811Y591276D01*
X262739Y591461D01*
X263525Y591986D01*
X264051Y592773D01*
X264236Y593701D01*
X264625Y594009D01*
X265145Y593953D01*
X265407Y593541D01*
X265302Y593012D01*
X265448Y592276D01*
X265811Y591732D01*
X265448Y591189D01*
X265401Y590953D01*
X269094D01*
X272788D01*
X272741Y591189D01*
X272378Y591732D01*
X272741Y592276D01*
X272887Y593012D01*
X272741Y593748D01*
X272378Y594291D01*
X272741Y594835D01*
X272821Y595236D01*
X273330Y595236D01*
X273351Y595135D01*
X273876Y594349D01*
X274663Y593823D01*
X275590Y593639D01*
X276518Y593823D01*
X277305Y594349D01*
X277831Y595135D01*
X278015Y596063D01*
X277831Y596991D01*
X277305Y597777D01*
X276518Y598303D01*
X275590Y598488D01*
X274872Y598345D01*
X274519Y598698D01*
X274711Y599160D01*
X294619D01*
X374365Y519414D01*
X374173Y518952D01*
X276378D01*
X275604Y518798D01*
X274947Y518360D01*
X274509Y517703D01*
X274355Y516929D01*
X274509Y516155D01*
X274740Y515809D01*
X274473Y515309D01*
X268283D01*
X268016Y515809D01*
X268247Y516155D01*
X268401Y516929D01*
X268247Y517703D01*
X267907Y518212D01*
Y528429D01*
X270291D01*
Y534760D01*
X262779D01*
Y528429D01*
X264849D01*
Y518212D01*
X264509Y517703D01*
X264355Y516929D01*
X264509Y516155D01*
X264740Y515809D01*
X264473Y515309D01*
X258283D01*
X258016Y515809D01*
X258247Y516155D01*
X258401Y516929D01*
X258247Y517703D01*
X257907Y518212D01*
Y528429D01*
X260055D01*
Y534760D01*
X252543D01*
Y528429D01*
X254849D01*
Y518212D01*
X254509Y517703D01*
X254355Y516929D01*
X254509Y516155D01*
X254740Y515809D01*
X254473Y515309D01*
X248283D01*
X248016Y515809D01*
X248247Y516155D01*
X248401Y516929D01*
X248247Y517703D01*
X247907Y518212D01*
Y528429D01*
X250213D01*
Y534760D01*
X242701D01*
Y528429D01*
X244849D01*
Y518212D01*
X244509Y517703D01*
X244355Y516929D01*
X244509Y516155D01*
X244740Y515809D01*
X244473Y515309D01*
X238283D01*
X238016Y515809D01*
X238247Y516155D01*
X238401Y516929D01*
X238247Y517703D01*
X237808Y518360D01*
X237152Y518798D01*
X236378Y518952D01*
X235604Y518798D01*
X234947Y518360D01*
X234509Y517703D01*
X234355Y516929D01*
X234509Y516155D01*
X234740Y515809D01*
X234473Y515309D01*
X190485D01*
X189899Y515193D01*
X189403Y514861D01*
X182108Y507566D01*
X181890Y507609D01*
X181041Y507440D01*
X180541Y507677D01*
Y511146D01*
X180425Y511731D01*
X180093Y512227D01*
X163953Y528368D01*
Y533028D01*
X150457D01*
Y526028D01*
X161967D01*
X177482Y510512D01*
Y503993D01*
X177547Y503670D01*
X177086Y503424D01*
X163953Y516557D01*
Y521216D01*
X150457D01*
Y514217D01*
X161967D01*
X182383Y493800D01*
X182879Y493469D01*
X183465Y493353D01*
X191075D01*
X191199Y493167D01*
X191986Y492642D01*
X192913Y492457D01*
X193841Y492642D01*
X194628Y493167D01*
X195153Y493954D01*
X195338Y494882D01*
X195153Y495810D01*
X194628Y496596D01*
X193841Y497122D01*
X192913Y497306D01*
X191986Y497122D01*
X191199Y496596D01*
X191075Y496411D01*
X184098D01*
X182042Y498468D01*
X182288Y498928D01*
X182611Y498864D01*
X191075D01*
X191199Y498679D01*
X191986Y498154D01*
X192913Y497969D01*
X193841Y498154D01*
X194628Y498679D01*
X195153Y499466D01*
X195338Y500394D01*
X195153Y501322D01*
X194628Y502108D01*
X193841Y502634D01*
X192913Y502818D01*
X191986Y502634D01*
X191199Y502108D01*
X191075Y501923D01*
X183244D01*
X182699Y502468D01*
X182885Y502989D01*
X183604Y503470D01*
X184130Y504257D01*
X184314Y505185D01*
X184271Y505403D01*
X186880Y508012D01*
X187422Y507847D01*
X187523Y507339D01*
X188049Y506552D01*
X188836Y506027D01*
X189763Y505842D01*
X190691Y506027D01*
X191478Y506552D01*
X192003Y507339D01*
X192188Y508267D01*
X192003Y509195D01*
X191871Y509393D01*
X192511Y510033D01*
X343244D01*
X365092Y488185D01*
X364845Y487724D01*
X364173Y487858D01*
X363245Y487673D01*
X363041Y487536D01*
X362591Y487837D01*
X362661Y488189D01*
X362476Y489117D01*
X361951Y489903D01*
X361164Y490429D01*
X360236Y490614D01*
X359308Y490429D01*
X359104Y490292D01*
X358654Y490593D01*
X358724Y490945D01*
X358539Y491873D01*
X358014Y492659D01*
X357227Y493185D01*
X356299Y493369D01*
X355371Y493185D01*
X354585Y492659D01*
X354059Y491873D01*
X353875Y490945D01*
X354059Y490017D01*
X354585Y489230D01*
X354770Y489107D01*
Y487926D01*
X354308Y487734D01*
X338205Y503837D01*
X337709Y504169D01*
X337123Y504285D01*
X329397D01*
X329274Y504470D01*
X328487Y504996D01*
X327559Y505181D01*
X326720Y505014D01*
X326379Y505192D01*
X326215Y505319D01*
X326202Y505490D01*
X326649Y506159D01*
X326834Y507087D01*
X326649Y508014D01*
X326124Y508801D01*
X325337Y509327D01*
X324410Y509511D01*
X323482Y509327D01*
X322695Y508801D01*
X322169Y508014D01*
X321985Y507087D01*
X322169Y506159D01*
X322695Y505372D01*
X322880Y505249D01*
Y501835D01*
X322996Y501250D01*
X323328Y500754D01*
X329807Y494275D01*
X329616Y493813D01*
X317815D01*
X317342Y494429D01*
X316714Y494911D01*
X315982Y495214D01*
X315197Y495317D01*
X314412Y495214D01*
X313680Y494911D01*
X313052Y494429D01*
X312569Y493800D01*
X312266Y493069D01*
X312163Y492283D01*
X312266Y491498D01*
X312554Y490805D01*
X312426Y490442D01*
X312358Y490305D01*
X309338D01*
X308129Y491514D01*
X308231Y492283D01*
X308127Y493069D01*
X307824Y493800D01*
X307342Y494429D01*
X306714Y494911D01*
X305982Y495214D01*
X305197Y495317D01*
X304412Y495214D01*
X303680Y494911D01*
X303052Y494429D01*
X302570Y493800D01*
X302266Y493069D01*
X302163Y492283D01*
X302266Y491498D01*
X302570Y490767D01*
X303052Y490138D01*
X303680Y489656D01*
X304412Y489353D01*
X305197Y489250D01*
X305966Y489351D01*
X307623Y487694D01*
X308120Y487363D01*
X308705Y487246D01*
X331179D01*
X334150Y484275D01*
X333959Y483813D01*
X317815D01*
X317342Y484429D01*
X316714Y484911D01*
X315982Y485214D01*
X315197Y485317D01*
X314412Y485214D01*
X313680Y484911D01*
X313052Y484429D01*
X312569Y483800D01*
X312266Y483069D01*
X312163Y482283D01*
X312266Y481498D01*
X312569Y480767D01*
X313052Y480138D01*
X313680Y479656D01*
X314412Y479353D01*
X315197Y479250D01*
X315982Y479353D01*
X316714Y479656D01*
X317342Y480138D01*
X317815Y480754D01*
X334843D01*
X341322Y474275D01*
X341131Y473813D01*
X317815D01*
X317342Y474429D01*
X316714Y474911D01*
X315982Y475214D01*
X315197Y475317D01*
X314412Y475214D01*
X313680Y474911D01*
X313052Y474429D01*
X312569Y473800D01*
X312266Y473069D01*
X312163Y472284D01*
X312266Y471498D01*
X312569Y470767D01*
X313052Y470138D01*
X313680Y469656D01*
X314412Y469353D01*
X315197Y469250D01*
X315982Y469353D01*
X316714Y469656D01*
X317342Y470138D01*
X317815Y470754D01*
X342014D01*
X390747Y422021D01*
X391244Y421689D01*
X391829Y421573D01*
X447524D01*
X447608Y421489D01*
X447760Y420726D01*
X448049Y420293D01*
X447782Y419793D01*
X358354D01*
X318290Y459857D01*
X317937Y460093D01*
X317749Y460669D01*
X317824Y460767D01*
X318127Y461498D01*
X318231Y462284D01*
X318127Y463069D01*
X317824Y463800D01*
X317342Y464429D01*
X316714Y464911D01*
X315982Y465214D01*
X315197Y465317D01*
X314427Y465216D01*
X312770Y466873D01*
X312274Y467204D01*
X311689Y467321D01*
X201200D01*
X163953Y504568D01*
Y509406D01*
X150457D01*
Y504140D01*
X149957Y503872D01*
X149955Y503874D01*
Y511811D01*
X149838Y512396D01*
X149507Y512892D01*
X145724Y516675D01*
Y521216D01*
X132228D01*
Y514217D01*
X143857D01*
X146896Y511177D01*
Y503952D01*
X146434Y503760D01*
X145724Y504470D01*
Y509406D01*
X132228D01*
Y502406D01*
X143463D01*
X146502Y499367D01*
Y496040D01*
X146220Y495811D01*
X145724Y495996D01*
Y497594D01*
X132228D01*
Y490594D01*
X143463D01*
X146950Y487108D01*
X147446Y486776D01*
X148031Y486660D01*
X155642D01*
X155766Y486475D01*
X156052Y486283D01*
X155900Y485783D01*
X150457D01*
Y482784D01*
X163953D01*
Y485783D01*
X159060D01*
X158909Y486283D01*
X159195Y486475D01*
X159720Y487261D01*
X159905Y488189D01*
X159720Y489117D01*
X159195Y489903D01*
X158909Y490095D01*
X159060Y490594D01*
X161967D01*
X214867Y437694D01*
X215364Y437363D01*
X215949Y437246D01*
X306650D01*
X307235Y437363D01*
X307731Y437694D01*
X311782Y441745D01*
X312255Y441584D01*
X312266Y441498D01*
X312569Y440767D01*
X313052Y440138D01*
X313680Y439656D01*
X314412Y439353D01*
X315197Y439250D01*
X315982Y439353D01*
X316714Y439656D01*
X317342Y440138D01*
X317824Y440767D01*
X318127Y441498D01*
X318231Y442283D01*
X318127Y443069D01*
X317824Y443800D01*
X317342Y444429D01*
X316714Y444911D01*
X315982Y445214D01*
X315897Y445225D01*
X315736Y445699D01*
X316278Y446241D01*
X316610Y446737D01*
X316726Y447323D01*
Y449666D01*
X317342Y450138D01*
X317824Y450767D01*
X318127Y451498D01*
X318231Y452283D01*
X318127Y453069D01*
X317824Y453800D01*
X317342Y454429D01*
X316714Y454911D01*
X315982Y455214D01*
X315197Y455317D01*
X314412Y455214D01*
X313680Y454911D01*
X313052Y454429D01*
X312569Y453800D01*
X312266Y453069D01*
X312163Y452283D01*
X312266Y451498D01*
X312569Y450767D01*
X313052Y450138D01*
X313667Y449666D01*
Y447956D01*
X308603Y442892D01*
X308459Y442941D01*
X308111Y443107D01*
X307824Y443800D01*
X307342Y444429D01*
X306714Y444911D01*
X305982Y445214D01*
X305197Y445317D01*
X304427Y445216D01*
X302892Y446751D01*
X302396Y447082D01*
X301811Y447199D01*
X218350D01*
X201749Y463800D01*
X201940Y464262D01*
X302358D01*
X302426Y464125D01*
X302554Y463762D01*
X302266Y463069D01*
X302163Y462284D01*
X302266Y461498D01*
X302570Y460767D01*
X303052Y460138D01*
X303680Y459656D01*
X304412Y459353D01*
X305197Y459250D01*
X305966Y459351D01*
X307623Y457694D01*
X308120Y457363D01*
X308705Y457246D01*
X316576D01*
X355567Y418255D01*
X355375Y417793D01*
X331850D01*
X318129Y431514D01*
X318231Y432283D01*
X318127Y433069D01*
X317824Y433800D01*
X317342Y434429D01*
X316714Y434911D01*
X315982Y435214D01*
X315197Y435317D01*
X314412Y435214D01*
X313680Y434911D01*
X313052Y434429D01*
X312569Y433800D01*
X312266Y433069D01*
X312163Y432283D01*
X312266Y431498D01*
X312569Y430767D01*
X312607Y430718D01*
X312386Y430269D01*
X308008D01*
X307787Y430718D01*
X307824Y430767D01*
X308127Y431498D01*
X308231Y432283D01*
X308127Y433069D01*
X307824Y433800D01*
X307342Y434429D01*
X306714Y434911D01*
X305982Y435214D01*
X305197Y435317D01*
X304412Y435214D01*
X303680Y434911D01*
X303052Y434429D01*
X302570Y433800D01*
X302266Y433069D01*
X302163Y432283D01*
X302266Y431498D01*
X302570Y430767D01*
X303052Y430138D01*
X303680Y429656D01*
X303914Y429559D01*
X303970Y428995D01*
X303797Y428880D01*
X303272Y428093D01*
X303087Y427165D01*
X303272Y426237D01*
X303771Y425490D01*
X303803Y425363D01*
X303762Y424945D01*
X303680Y424911D01*
X303052Y424429D01*
X302570Y423800D01*
X302266Y423069D01*
X302163Y422284D01*
X302266Y421498D01*
X302570Y420767D01*
X303052Y420138D01*
X303680Y419656D01*
X304412Y419353D01*
X305197Y419250D01*
X305982Y419353D01*
X306714Y419656D01*
X307342Y420138D01*
X307824Y420767D01*
X308127Y421498D01*
X308231Y422284D01*
X308127Y423069D01*
X307824Y423800D01*
X307342Y424429D01*
X306995Y424695D01*
X307013Y425309D01*
X307226Y425451D01*
X307752Y426237D01*
X307936Y427165D01*
X307974Y427211D01*
X314327D01*
X315795Y425743D01*
X315562Y425269D01*
X315197Y425317D01*
X314412Y425214D01*
X313680Y424911D01*
X313052Y424429D01*
X312569Y423800D01*
X312266Y423069D01*
X312163Y422284D01*
X312266Y421498D01*
X312569Y420767D01*
X313052Y420138D01*
X313680Y419656D01*
X314412Y419353D01*
X315197Y419250D01*
X315967Y419351D01*
X328525Y406793D01*
X329021Y406461D01*
X329606Y406345D01*
X471183D01*
X471834Y405694D01*
X472330Y405363D01*
X472915Y405246D01*
X473296D01*
X473465Y404746D01*
X473052Y404429D01*
X472570Y403800D01*
X472266Y403069D01*
X472163Y402283D01*
X472266Y401498D01*
X472570Y400767D01*
X473052Y400138D01*
X473174Y400044D01*
Y372492D01*
X437351Y336669D01*
X401343D01*
X401325Y336715D01*
X401260Y337169D01*
X401824Y337546D01*
X405956Y341677D01*
X410291D01*
Y355173D01*
X403291D01*
Y344735D01*
X399556Y341000D01*
X393186D01*
X393052Y341177D01*
X393301Y341677D01*
X398382D01*
Y355173D01*
X396905D01*
Y358268D01*
X396751Y359042D01*
X396312Y359698D01*
X380564Y375446D01*
X379908Y375885D01*
X379134Y376039D01*
X229185D01*
X228377Y376847D01*
X228623Y377307D01*
X228740Y377284D01*
X232087D01*
X232938Y377453D01*
X232985Y377485D01*
X447224D01*
X447999Y377639D01*
X448655Y378077D01*
X465506Y394928D01*
X465889Y395004D01*
X466675Y395530D01*
X467201Y396316D01*
X467385Y397244D01*
X467201Y398172D01*
X466974Y398512D01*
X467018Y398602D01*
X467304Y398917D01*
X468110Y398757D01*
X469038Y398941D01*
X469825Y399467D01*
X470350Y400253D01*
X470535Y401181D01*
X470350Y402109D01*
X469825Y402895D01*
X469038Y403421D01*
X468110Y403606D01*
X467182Y403421D01*
X466396Y402895D01*
X466272Y402710D01*
X461024D01*
X460438Y402594D01*
X459942Y402262D01*
X456969Y399289D01*
X317057D01*
X316887Y399789D01*
X317342Y400138D01*
X317824Y400767D01*
X318127Y401498D01*
X318165Y401783D01*
X315197D01*
X312229D01*
X312266Y401498D01*
X312569Y400767D01*
X313052Y400138D01*
X313506Y399789D01*
X313337Y399289D01*
X307057D01*
X306887Y399789D01*
X307342Y400138D01*
X307824Y400767D01*
X308127Y401498D01*
X308231Y402283D01*
X308127Y403069D01*
X307824Y403800D01*
X307342Y404429D01*
X306714Y404911D01*
X305982Y405214D01*
X305197Y405317D01*
X304412Y405214D01*
X303680Y404911D01*
X303052Y404429D01*
X302570Y403800D01*
X302266Y403069D01*
X302163Y402283D01*
X302266Y401498D01*
X302570Y400767D01*
X303052Y400138D01*
X303506Y399789D01*
X303337Y399289D01*
X243079D01*
X242494Y399173D01*
X241998Y398841D01*
X239194Y396037D01*
X233688D01*
X233659Y396080D01*
X232938Y396562D01*
X232087Y396732D01*
X228740D01*
X227889Y396562D01*
X227168Y396080D01*
X226686Y395359D01*
X226516Y394508D01*
X226686Y393657D01*
X227168Y392935D01*
X227889Y392453D01*
X228740Y392284D01*
X232087D01*
X232938Y392453D01*
X233659Y392935D01*
X233688Y392979D01*
X239827D01*
X240413Y393095D01*
X240909Y393426D01*
X242239Y394756D01*
X242701Y394565D01*
Y391717D01*
X243351D01*
Y387614D01*
X242012D01*
Y386531D01*
X232985D01*
X232938Y386562D01*
X232087Y386732D01*
X228740D01*
X227889Y386562D01*
X227168Y386080D01*
X226686Y385359D01*
X226516Y384508D01*
X226686Y383657D01*
X227168Y382935D01*
X227889Y382453D01*
X228740Y382284D01*
X232087D01*
X232938Y382453D01*
X232985Y382485D01*
X242012D01*
Y381677D01*
X241572Y381531D01*
X232985D01*
X232938Y381562D01*
X232087Y381732D01*
X228740D01*
X227889Y381562D01*
X227168Y381080D01*
X226686Y380359D01*
X226516Y379508D01*
X226540Y379391D01*
X226079Y379145D01*
X214285Y390938D01*
X213629Y391377D01*
X212854Y391531D01*
X211528D01*
X211481Y391562D01*
X210630Y391732D01*
X207283D01*
X206433Y391562D01*
X205711Y391080D01*
X205682Y391037D01*
X193803D01*
X186127Y398713D01*
X186155Y398780D01*
X186264Y399606D01*
X186155Y400433D01*
X185836Y401203D01*
X185328Y401864D01*
X184667Y402371D01*
X183897Y402690D01*
X183071Y402799D01*
X182245Y402690D01*
X181474Y402371D01*
X180813Y401864D01*
X180306Y401203D01*
X180278Y401136D01*
X156336D01*
X156308Y401203D01*
X155801Y401864D01*
X155140Y402371D01*
X154370Y402690D01*
X153543Y402799D01*
X152717Y402690D01*
X151947Y402371D01*
X151286Y401864D01*
X150778Y401203D01*
X150751Y401136D01*
X141969D01*
X141383Y401019D01*
X140887Y400688D01*
X133344Y393144D01*
X133110Y393241D01*
X132283Y393350D01*
X131457Y393241D01*
X130687Y392922D01*
X130026Y392415D01*
X129519Y391754D01*
X129200Y390984D01*
X129091Y390158D01*
X129200Y389331D01*
X129519Y388561D01*
X130026Y387900D01*
X130687Y387393D01*
X131457Y387074D01*
X132283Y386965D01*
X133110Y387074D01*
X133880Y387393D01*
X134541Y387900D01*
X135048Y388561D01*
X135367Y389331D01*
X135476Y390158D01*
X135384Y390859D01*
X142602Y398077D01*
X150751D01*
X150778Y398010D01*
X151286Y397349D01*
X151947Y396841D01*
X152717Y396522D01*
X153543Y396414D01*
X154370Y396522D01*
X155140Y396841D01*
X155801Y397349D01*
X156308Y398010D01*
X156336Y398077D01*
X180278D01*
X180306Y398010D01*
X180813Y397349D01*
X181474Y396841D01*
X182245Y396522D01*
X183071Y396414D01*
X183897Y396522D01*
X183964Y396550D01*
X192088Y388426D01*
X192584Y388095D01*
X193169Y387979D01*
X205682D01*
X205711Y387935D01*
X206433Y387453D01*
X207283Y387284D01*
X210630D01*
X211481Y387453D01*
X211528Y387485D01*
X212016D01*
X212508Y386993D01*
X212317Y386531D01*
X211528D01*
X211481Y386562D01*
X210630Y386732D01*
X207283D01*
X206433Y386562D01*
X205711Y386080D01*
X205682Y386037D01*
X183981D01*
X183897Y386522D01*
X184667Y386841D01*
X185328Y387349D01*
X185836Y388010D01*
X186155Y388780D01*
X186264Y389606D01*
X186155Y390433D01*
X185836Y391203D01*
X185328Y391864D01*
X184667Y392371D01*
X183897Y392690D01*
X183071Y392799D01*
X182245Y392690D01*
X181474Y392371D01*
X180813Y391864D01*
X180306Y391203D01*
X180278Y391136D01*
X176197D01*
Y392929D01*
X170260D01*
Y386795D01*
Y385683D01*
X166157D01*
Y387386D01*
Y393126D01*
X160614D01*
Y391136D01*
X156336D01*
X156308Y391203D01*
X155801Y391864D01*
X155140Y392371D01*
X154370Y392690D01*
X153543Y392799D01*
X152717Y392690D01*
X151947Y392371D01*
X151286Y391864D01*
X150778Y391203D01*
X150459Y390433D01*
X150351Y389606D01*
X150459Y388780D01*
X150778Y388010D01*
X151286Y387349D01*
X151947Y386841D01*
X152586Y386577D01*
X152487Y386077D01*
X136909D01*
X136324Y385960D01*
X135828Y385629D01*
X133344Y383144D01*
X133110Y383241D01*
X132283Y383350D01*
X131457Y383241D01*
X130687Y382922D01*
X130026Y382415D01*
X129519Y381754D01*
X129200Y380984D01*
X129091Y380157D01*
X129200Y379331D01*
X129519Y378561D01*
X130026Y377900D01*
X130687Y377393D01*
X131457Y377074D01*
X132283Y376965D01*
X133110Y377074D01*
X133880Y377393D01*
X134541Y377900D01*
X135048Y378561D01*
X135367Y379331D01*
X135476Y380157D01*
X135384Y380859D01*
X137543Y383018D01*
X160614D01*
Y381677D01*
X166157D01*
Y382624D01*
X170260D01*
Y381087D01*
X176197D01*
Y382979D01*
X205682D01*
X205711Y382935D01*
X206433Y382453D01*
X207283Y382284D01*
X210630D01*
X211481Y382453D01*
X211528Y382485D01*
X212686D01*
X232821Y362349D01*
X233478Y361910D01*
X234252Y361756D01*
X381446D01*
X386953Y356249D01*
Y355457D01*
X386571Y355173D01*
X386453Y355173D01*
X379571D01*
Y350448D01*
X378418D01*
X378093Y350665D01*
X377165Y350850D01*
X376238Y350665D01*
X375451Y350140D01*
X375161Y349706D01*
X374661Y349858D01*
Y355173D01*
X367661D01*
Y350448D01*
X123673Y350448D01*
X105960Y368161D01*
X105960Y497193D01*
X134794Y526028D01*
X145724D01*
Y533028D01*
X132228D01*
Y529184D01*
X102862Y499818D01*
X102362Y500025D01*
X102362Y677165D01*
X104516Y679319D01*
X105142Y679239D01*
X106268Y677921D01*
X107801Y676612D01*
X109520Y675558D01*
X111383Y674786D01*
X113344Y674315D01*
X114854Y674197D01*
Y687008D01*
X115354D01*
Y687508D01*
X128166D01*
X128047Y689018D01*
X127576Y690979D01*
X126804Y692842D01*
X125751Y694561D01*
X124441Y696095D01*
X123124Y697220D01*
X123043Y697846D01*
X124409Y699213D01*
X664961Y699213D01*
D02*
G37*
G36*
X550045Y591878D02*
Y571129D01*
X549860Y571006D01*
X549335Y570219D01*
X549150Y569291D01*
X549335Y568364D01*
X549860Y567577D01*
X550580Y567096D01*
X550766Y566575D01*
X546950Y562759D01*
X546619Y562263D01*
X546502Y561678D01*
Y543224D01*
X545230D01*
Y558661D01*
X545114Y559247D01*
X544782Y559743D01*
X518934Y585591D01*
X519156Y586005D01*
X519230Y586042D01*
X519587Y585971D01*
X523327D01*
X524063Y586117D01*
X524686Y586534D01*
X524689Y586538D01*
X527903D01*
X528488Y586654D01*
X528985Y586985D01*
X533074Y591075D01*
X533571Y591026D01*
X533719Y590805D01*
X534505Y590280D01*
X534958Y590190D01*
X535122Y589647D01*
X531595Y586120D01*
X531263Y585624D01*
X531147Y585038D01*
Y584514D01*
X530962Y584390D01*
X530436Y583604D01*
X530252Y582676D01*
X530436Y581748D01*
X530962Y580962D01*
X531748Y580436D01*
X532676Y580252D01*
X533604Y580436D01*
X534390Y580962D01*
X534916Y581748D01*
X535101Y582676D01*
X534916Y583604D01*
X534390Y584390D01*
X534373Y584572D01*
X539983Y590182D01*
X540314Y590679D01*
X540431Y591264D01*
Y592768D01*
X540931Y592817D01*
X541039Y592276D01*
X541402Y591732D01*
X541039Y591189D01*
X540992Y590953D01*
X544685D01*
X548378D01*
X548331Y591189D01*
X547968Y591732D01*
X548331Y592276D01*
X548432Y592783D01*
X548958Y592965D01*
X550045Y591878D01*
D02*
G37*
G36*
X463535Y399152D02*
X463246Y398958D01*
X462721Y398172D01*
X462644Y397789D01*
X446386Y381531D01*
X254491D01*
X254051Y381677D01*
Y384146D01*
X250984D01*
Y385146D01*
X254051D01*
Y387614D01*
X253469D01*
X253332Y388114D01*
X253815Y388836D01*
X253999Y389764D01*
X253815Y390692D01*
X253598Y391016D01*
Y391717D01*
X254150D01*
Y396231D01*
X457602D01*
X458188Y396347D01*
X458684Y396678D01*
X461657Y399652D01*
X463384D01*
X463535Y399152D01*
D02*
G37*
%LPC*%
G36*
X533779Y678952D02*
X533005Y678798D01*
X532349Y678360D01*
X531910Y677703D01*
X531756Y676929D01*
X531910Y676155D01*
X532349Y675499D01*
X533005Y675060D01*
X533779Y674906D01*
X534554Y675060D01*
X535210Y675499D01*
X535649Y676155D01*
X535803Y676929D01*
X535649Y677703D01*
X535210Y678360D01*
X534554Y678798D01*
X533779Y678952D01*
D02*
G37*
G36*
X395354D02*
X394580Y678798D01*
X393924Y678360D01*
X393485Y677703D01*
X393331Y676929D01*
X393485Y676155D01*
X393924Y675499D01*
X394580Y675060D01*
X395354Y674906D01*
X396129Y675060D01*
X396785Y675499D01*
X397223Y676155D01*
X397377Y676929D01*
X397223Y677703D01*
X396785Y678360D01*
X396129Y678798D01*
X395354Y678952D01*
D02*
G37*
G36*
X256378D02*
X255604Y678798D01*
X254947Y678360D01*
X254509Y677703D01*
X254355Y676929D01*
X254509Y676155D01*
X254947Y675499D01*
X255604Y675060D01*
X256378Y674906D01*
X257152Y675060D01*
X257808Y675499D01*
X258247Y676155D01*
X258401Y676929D01*
X258247Y677703D01*
X257808Y678360D01*
X257152Y678798D01*
X256378Y678952D01*
D02*
G37*
G36*
X673910Y686508D02*
X661598D01*
X661717Y684998D01*
X662188Y683037D01*
X662959Y681174D01*
X664013Y679455D01*
X665323Y677921D01*
X666856Y676612D01*
X668575Y675558D01*
X670438Y674786D01*
X672399Y674315D01*
X673910Y674197D01*
Y686508D01*
D02*
G37*
G36*
X128166D02*
X115854D01*
Y674197D01*
X117365Y674315D01*
X119325Y674786D01*
X121188Y675558D01*
X122908Y676612D01*
X124441Y677921D01*
X125751Y679455D01*
X126804Y681174D01*
X127576Y683037D01*
X128047Y684998D01*
X128166Y686508D01*
D02*
G37*
G36*
X385354Y678952D02*
X384580Y678798D01*
X383924Y678360D01*
X383485Y677703D01*
X383331Y676929D01*
X383485Y676155D01*
X383825Y675646D01*
Y668027D01*
X381677D01*
Y661697D01*
X389189D01*
Y668027D01*
X386884D01*
Y675646D01*
X387224Y676155D01*
X387377Y676929D01*
X387224Y677703D01*
X386785Y678360D01*
X386128Y678798D01*
X385354Y678952D01*
D02*
G37*
G36*
X375354D02*
X374580Y678798D01*
X373924Y678360D01*
X373485Y677703D01*
X373331Y676929D01*
X373485Y676155D01*
X373825Y675646D01*
Y667634D01*
X371441D01*
Y661303D01*
X378953D01*
Y667634D01*
X376884D01*
Y675646D01*
X377223Y676155D01*
X377377Y676929D01*
X377223Y677703D01*
X376785Y678360D01*
X376129Y678798D01*
X375354Y678952D01*
D02*
G37*
G36*
X246378D02*
X245604Y678798D01*
X244947Y678360D01*
X244509Y677703D01*
X244355Y676929D01*
X244509Y676155D01*
X244849Y675646D01*
Y667634D01*
X242701D01*
Y661303D01*
X250213D01*
Y667634D01*
X247907D01*
Y675646D01*
X248247Y676155D01*
X248401Y676929D01*
X248247Y677703D01*
X247809Y678360D01*
X247152Y678798D01*
X246378Y678952D01*
D02*
G37*
G36*
X236378D02*
X235604Y678798D01*
X234947Y678360D01*
X234509Y677703D01*
X234355Y676929D01*
X234509Y676155D01*
X234849Y675646D01*
Y667634D01*
X232465D01*
Y661303D01*
X239976D01*
Y667634D01*
X237907D01*
Y675646D01*
X238247Y676155D01*
X238401Y676929D01*
X238247Y677703D01*
X237808Y678360D01*
X237152Y678798D01*
X236378Y678952D01*
D02*
G37*
G36*
X523779D02*
X523005Y678798D01*
X522349Y678360D01*
X521910Y677703D01*
X521756Y676929D01*
X521910Y676155D01*
X522250Y675646D01*
Y667240D01*
X519866D01*
Y660910D01*
X527378D01*
Y667240D01*
X525309D01*
Y675646D01*
X525649Y676155D01*
X525803Y676929D01*
X525649Y677703D01*
X525210Y678360D01*
X524554Y678798D01*
X523779Y678952D01*
D02*
G37*
G36*
X513779D02*
X513005Y678798D01*
X512349Y678360D01*
X511910Y677703D01*
X511756Y676929D01*
X511910Y676155D01*
X512250Y675646D01*
Y667240D01*
X510024D01*
Y660910D01*
X517535D01*
Y667240D01*
X515309D01*
Y675646D01*
X515649Y676155D01*
X515803Y676929D01*
X515649Y677703D01*
X515210Y678360D01*
X514554Y678798D01*
X513779Y678952D01*
D02*
G37*
G36*
X406413Y680943D02*
X404216D01*
X403631Y680826D01*
X403135Y680495D01*
X399706Y677066D01*
X399374Y676570D01*
X399258Y675984D01*
Y625682D01*
X392194Y618618D01*
X391863Y618122D01*
X391746Y617537D01*
Y608042D01*
X391246Y607775D01*
X390692Y608146D01*
X389764Y608330D01*
X388836Y608146D01*
X388049Y607620D01*
X387860Y607337D01*
X386637D01*
X386267Y607584D01*
X385531Y607730D01*
X381791D01*
X381055Y607584D01*
X380432Y607167D01*
X380015Y606543D01*
X379869Y605807D01*
X379940Y605451D01*
X379540Y604951D01*
X378726D01*
Y649693D01*
X383840Y654807D01*
X389189D01*
Y661138D01*
X381677D01*
Y656970D01*
X379453Y654746D01*
X378953Y654953D01*
Y660744D01*
X371441D01*
Y654413D01*
X373668D01*
Y603471D01*
X373784Y602885D01*
X374115Y602389D01*
X376724Y599781D01*
X377220Y599449D01*
X377805Y599333D01*
X377814D01*
X378021Y598833D01*
X374052Y594864D01*
X373721Y594368D01*
X373604Y593783D01*
Y585351D01*
X373721Y584766D01*
X374052Y584270D01*
X376519Y581803D01*
X376540Y581698D01*
X376871Y581202D01*
X383904Y574170D01*
Y541256D01*
X381677D01*
Y534925D01*
X389189D01*
Y541256D01*
X386963D01*
Y573535D01*
X387424Y573726D01*
X394140Y567010D01*
Y541256D01*
X391913D01*
Y534925D01*
X399425D01*
Y541256D01*
X397199D01*
Y566127D01*
X397661Y566318D01*
X403589Y560390D01*
Y541256D01*
X401362D01*
Y534925D01*
X408874D01*
Y541256D01*
X406647D01*
Y561024D01*
X406531Y561609D01*
X406200Y562105D01*
X382796Y585509D01*
X382987Y585971D01*
X385531D01*
X386267Y586117D01*
X386891Y586534D01*
X386893Y586538D01*
X393579D01*
X394164Y586654D01*
X394660Y586985D01*
X396357Y588682D01*
X396689Y589179D01*
X396805Y589764D01*
Y591603D01*
X397305Y591852D01*
X397891Y591461D01*
X398819Y591276D01*
X399747Y591461D01*
X400533Y591986D01*
X401059Y592773D01*
X401243Y593701D01*
X401200Y593919D01*
X402631Y595350D01*
X403174Y595186D01*
X403243Y594835D01*
X403607Y594291D01*
X403243Y593748D01*
X403097Y593012D01*
X403243Y592276D01*
X403607Y591732D01*
X403243Y591189D01*
X403196Y590953D01*
X406890D01*
X410583D01*
X410536Y591189D01*
X410173Y591732D01*
X410536Y592276D01*
X410683Y593012D01*
X410577Y593541D01*
X410895Y594041D01*
X411319D01*
X411904Y594158D01*
X412400Y594489D01*
X413168Y595257D01*
X413386Y595213D01*
X414314Y595398D01*
X415100Y595923D01*
X415626Y596710D01*
X415810Y597638D01*
X415626Y598566D01*
X415100Y599352D01*
X414575Y599703D01*
Y600297D01*
X415100Y600648D01*
X415626Y601434D01*
X415810Y602362D01*
X415626Y603290D01*
X415100Y604077D01*
X414314Y604602D01*
X413386Y604787D01*
X412458Y604602D01*
X411671Y604077D01*
X411169Y603324D01*
X411024Y603314D01*
X410655Y603386D01*
X410536Y603984D01*
X410173Y604528D01*
X410536Y605071D01*
X410683Y605807D01*
X410536Y606543D01*
X410119Y607167D01*
X409496Y607584D01*
X408760Y607730D01*
X405020D01*
X404284Y607584D01*
X403660Y607167D01*
X403243Y606543D01*
X403097Y605807D01*
X403243Y605071D01*
X403279Y605018D01*
X403283Y604927D01*
X403103Y604380D01*
X402806Y604182D01*
X399037Y600413D01*
X398819Y600456D01*
X397891Y600272D01*
X397305Y599880D01*
X396805Y600129D01*
Y616075D01*
X406200Y625470D01*
X406531Y625966D01*
X406647Y626551D01*
Y654807D01*
X408874D01*
Y660662D01*
X408874Y660992D01*
X409330Y661242D01*
X409347Y661226D01*
X411598Y658975D01*
Y654807D01*
X419110D01*
Y661138D01*
X414165D01*
X414126Y661197D01*
X414393Y661697D01*
X419110D01*
Y668027D01*
X416884D01*
Y675646D01*
X417223Y676155D01*
X417378Y676929D01*
X417223Y677703D01*
X416785Y678360D01*
X416128Y678798D01*
X415354Y678952D01*
X414580Y678798D01*
X413924Y678360D01*
X413485Y677703D01*
X413331Y676929D01*
X413485Y676155D01*
X413825Y675646D01*
Y668027D01*
X411598D01*
Y664419D01*
X411098Y664156D01*
X410978Y664238D01*
Y676378D01*
X410862Y676963D01*
X410530Y677459D01*
X407495Y680495D01*
X406999Y680826D01*
X406413Y680943D01*
D02*
G37*
G36*
X272788Y589953D02*
X269094D01*
X265401D01*
X265448Y589717D01*
X265811Y589173D01*
X265448Y588629D01*
X265401Y588394D01*
X269094D01*
X272788D01*
X272741Y588629D01*
X272378Y589173D01*
X272741Y589717D01*
X272788Y589953D01*
D02*
G37*
G36*
X410583D02*
X406890D01*
X403196D01*
X403243Y589717D01*
X403607Y589173D01*
X403243Y588629D01*
X403196Y588394D01*
X406890D01*
X410583D01*
X410536Y588629D01*
X410173Y589173D01*
X410536Y589717D01*
X410583Y589953D01*
D02*
G37*
G36*
X410583Y587394D02*
X407390D01*
Y585971D01*
X408760D01*
X409496Y586117D01*
X410119Y586534D01*
X410536Y587158D01*
X410583Y587394D01*
D02*
G37*
G36*
X406390D02*
X403196D01*
X403243Y587158D01*
X403660Y586534D01*
X404284Y586117D01*
X405020Y585971D01*
X406390D01*
Y587394D01*
D02*
G37*
G36*
X272788D02*
X269595D01*
Y585971D01*
X270965D01*
X271700Y586117D01*
X272324Y586534D01*
X272741Y587158D01*
X272788Y587394D01*
D02*
G37*
G36*
X268595D02*
X265401D01*
X265448Y587158D01*
X265865Y586534D01*
X266489Y586117D01*
X267224Y585971D01*
X268595D01*
Y587394D01*
D02*
G37*
G36*
X671969Y544573D02*
X670469Y544376D01*
X669072Y543797D01*
X667872Y542876D01*
X666951Y541676D01*
X666372Y540279D01*
X666175Y538779D01*
X666372Y537280D01*
X666951Y535883D01*
X667872Y534683D01*
X669072Y533762D01*
X670469Y533183D01*
X671969Y532986D01*
X673468Y533183D01*
X674865Y533762D01*
X676065Y534683D01*
X676986Y535883D01*
X677565Y537280D01*
X677762Y538779D01*
X677565Y540279D01*
X676986Y541676D01*
X676065Y542876D01*
X674865Y543797D01*
X673468Y544376D01*
X671969Y544573D01*
D02*
G37*
G36*
X117795Y543786D02*
X116296Y543588D01*
X114899Y543010D01*
X113698Y542089D01*
X112778Y540889D01*
X112199Y539492D01*
X112002Y537992D01*
X112199Y536493D01*
X112778Y535095D01*
X113698Y533895D01*
X114899Y532975D01*
X116296Y532396D01*
X117795Y532198D01*
X119295Y532396D01*
X120692Y532975D01*
X121892Y533895D01*
X122813Y535095D01*
X123391Y536493D01*
X123589Y537992D01*
X123391Y539492D01*
X122813Y540889D01*
X121892Y542089D01*
X120692Y543010D01*
X119295Y543588D01*
X117795Y543786D01*
D02*
G37*
G36*
X639307Y533815D02*
X633059D01*
Y530815D01*
X639307D01*
Y533815D01*
D02*
G37*
G36*
X632059D02*
X625811D01*
Y530815D01*
X632059D01*
Y533815D01*
D02*
G37*
G36*
X657535Y498382D02*
X644039D01*
Y496018D01*
X643177D01*
X643053Y496203D01*
X642266Y496728D01*
X641339Y496913D01*
X640411Y496728D01*
X639807Y496325D01*
X639307Y496559D01*
Y498382D01*
X625811D01*
Y491382D01*
X626243D01*
X626434Y490920D01*
X622115Y486600D01*
X616888D01*
X616303Y486484D01*
X615807Y486152D01*
X495357Y365703D01*
X478216D01*
X478092Y365888D01*
X477306Y366413D01*
X476378Y366598D01*
X475450Y366413D01*
X474663Y365888D01*
X474138Y365101D01*
X473953Y364173D01*
X474138Y363245D01*
X474663Y362459D01*
X474964Y362258D01*
Y361758D01*
X474663Y361557D01*
X474138Y360770D01*
X473953Y359842D01*
X474138Y358915D01*
X474663Y358128D01*
X475450Y357603D01*
X476378Y357418D01*
X477306Y357603D01*
X478092Y358128D01*
X478216Y358313D01*
X494488D01*
X495074Y358430D01*
X495570Y358761D01*
X618350Y481541D01*
X625811D01*
Y479571D01*
X639307D01*
Y486571D01*
X627064D01*
X626873Y487033D01*
X630226Y490386D01*
X630558Y490882D01*
X630657Y491382D01*
X639307D01*
Y492417D01*
X639807Y492652D01*
X640411Y492248D01*
X641339Y492064D01*
X642266Y492248D01*
X643053Y492774D01*
X643177Y492959D01*
X644039D01*
Y491382D01*
X657535D01*
Y498382D01*
D02*
G37*
G36*
X305197Y485317D02*
X304412Y485214D01*
X303680Y484911D01*
X303052Y484429D01*
X302570Y483800D01*
X302266Y483069D01*
X302163Y482283D01*
X302266Y481498D01*
X302570Y480767D01*
X303052Y480138D01*
X303680Y479656D01*
X304412Y479353D01*
X305197Y479250D01*
X305982Y479353D01*
X306714Y479656D01*
X307342Y480138D01*
X307824Y480767D01*
X308127Y481498D01*
X308231Y482283D01*
X308127Y483069D01*
X307824Y483800D01*
X307342Y484429D01*
X306714Y484911D01*
X305982Y485214D01*
X305197Y485317D01*
D02*
G37*
G36*
X163953Y481783D02*
X157705D01*
Y478784D01*
X163953D01*
Y481783D01*
D02*
G37*
G36*
X156705D02*
X150457D01*
Y478784D01*
X156705D01*
Y481783D01*
D02*
G37*
G36*
X145724Y485783D02*
X132228D01*
Y478784D01*
X136953D01*
Y477630D01*
X136736Y477306D01*
X136552Y476378D01*
X136736Y475450D01*
X137262Y474663D01*
X138049Y474138D01*
X138976Y473953D01*
X139904Y474138D01*
X140691Y474663D01*
X141216Y475450D01*
X141401Y476378D01*
X141216Y477306D01*
X140999Y477630D01*
Y478784D01*
X145724D01*
Y485783D01*
D02*
G37*
G36*
X305197Y475317D02*
X304412Y475214D01*
X303680Y474911D01*
X303052Y474429D01*
X302570Y473800D01*
X302266Y473069D01*
X302163Y472284D01*
X302266Y471498D01*
X302570Y470767D01*
X303052Y470138D01*
X303680Y469656D01*
X304412Y469353D01*
X305197Y469250D01*
X305982Y469353D01*
X306714Y469656D01*
X307342Y470138D01*
X307824Y470767D01*
X308127Y471498D01*
X308231Y472284D01*
X308127Y473069D01*
X307824Y473800D01*
X307342Y474429D01*
X306714Y474911D01*
X305982Y475214D01*
X305197Y475317D01*
D02*
G37*
G36*
X671969Y480400D02*
X670469Y480202D01*
X669072Y479624D01*
X667872Y478703D01*
X666951Y477503D01*
X666372Y476106D01*
X666175Y474606D01*
X666372Y473107D01*
X666951Y471709D01*
X667872Y470510D01*
X669072Y469589D01*
X670469Y469010D01*
X671969Y468813D01*
X673468Y469010D01*
X674865Y469589D01*
X676065Y470510D01*
X676986Y471709D01*
X677565Y473107D01*
X677762Y474606D01*
X677565Y476106D01*
X676986Y477503D01*
X676065Y478703D01*
X674865Y479624D01*
X673468Y480202D01*
X671969Y480400D01*
D02*
G37*
G36*
X117795Y479613D02*
X116296Y479415D01*
X114899Y478836D01*
X113698Y477916D01*
X112778Y476716D01*
X112199Y475318D01*
X112002Y473819D01*
X112199Y472319D01*
X112778Y470922D01*
X113698Y469722D01*
X114899Y468801D01*
X116296Y468223D01*
X117795Y468025D01*
X119295Y468223D01*
X120692Y468801D01*
X121892Y469722D01*
X122813Y470922D01*
X123391Y472319D01*
X123589Y473819D01*
X123391Y475318D01*
X122813Y476716D01*
X121892Y477916D01*
X120692Y478836D01*
X119295Y479415D01*
X117795Y479613D01*
D02*
G37*
G36*
X305197Y455317D02*
X304412Y455214D01*
X303680Y454911D01*
X303052Y454429D01*
X302570Y453800D01*
X302266Y453069D01*
X302163Y452283D01*
X302266Y451498D01*
X302570Y450767D01*
X303052Y450138D01*
X303680Y449656D01*
X304412Y449353D01*
X305197Y449250D01*
X305982Y449353D01*
X306714Y449656D01*
X307342Y450138D01*
X307824Y450767D01*
X308127Y451498D01*
X308231Y452283D01*
X308127Y453069D01*
X307824Y453800D01*
X307342Y454429D01*
X306714Y454911D01*
X305982Y455214D01*
X305197Y455317D01*
D02*
G37*
G36*
X628740Y416773D02*
X627991Y416674D01*
X627293Y416385D01*
X626693Y415925D01*
X626233Y415325D01*
X625944Y414627D01*
X625845Y413878D01*
X625944Y413129D01*
X626233Y412430D01*
X626693Y411831D01*
X627293Y411371D01*
X627991Y411082D01*
X628740Y410983D01*
X629489Y411082D01*
X630188Y411371D01*
X630787Y411831D01*
X631247Y412430D01*
X631536Y413129D01*
X631635Y413878D01*
X631536Y414627D01*
X631247Y415325D01*
X630787Y415925D01*
X630188Y416385D01*
X629489Y416674D01*
X628740Y416773D01*
D02*
G37*
G36*
X601968D02*
X601219Y416674D01*
X600521Y416385D01*
X599922Y415925D01*
X599462Y415325D01*
X599172Y414627D01*
X599074Y413878D01*
X599172Y413129D01*
X599462Y412430D01*
X599922Y411831D01*
X600521Y411371D01*
X601219Y411082D01*
X601968Y410983D01*
X602718Y411082D01*
X603416Y411371D01*
X604015Y411831D01*
X604475Y412430D01*
X604765Y413129D01*
X604863Y413878D01*
X604765Y414627D01*
X604475Y415325D01*
X604015Y415925D01*
X603416Y416385D01*
X602718Y416674D01*
X601968Y416773D01*
D02*
G37*
G36*
X315197Y415317D02*
X314412Y415214D01*
X313680Y414911D01*
X313052Y414429D01*
X312569Y413800D01*
X312266Y413069D01*
X312163Y412284D01*
X312266Y411498D01*
X312569Y410767D01*
X313052Y410138D01*
X313680Y409656D01*
X314412Y409353D01*
X315197Y409250D01*
X315982Y409353D01*
X316714Y409656D01*
X317342Y410138D01*
X317824Y410767D01*
X318127Y411498D01*
X318231Y412284D01*
X318127Y413069D01*
X317824Y413800D01*
X317342Y414429D01*
X316714Y414911D01*
X315982Y415214D01*
X315197Y415317D01*
D02*
G37*
G36*
X305197D02*
X304412Y415214D01*
X303680Y414911D01*
X303052Y414429D01*
X302570Y413800D01*
X302266Y413069D01*
X302163Y412284D01*
X302266Y411498D01*
X302570Y410767D01*
X303052Y410138D01*
X303680Y409656D01*
X304412Y409353D01*
X305197Y409250D01*
X305982Y409353D01*
X306714Y409656D01*
X307342Y410138D01*
X307824Y410767D01*
X308127Y411498D01*
X308231Y412284D01*
X308127Y413069D01*
X307824Y413800D01*
X307342Y414429D01*
X306714Y414911D01*
X305982Y415214D01*
X305197Y415317D01*
D02*
G37*
G36*
X315697Y405252D02*
Y402783D01*
X318165D01*
X318127Y403069D01*
X317824Y403800D01*
X317342Y404429D01*
X316714Y404911D01*
X315982Y405214D01*
X315697Y405252D01*
D02*
G37*
G36*
X314697D02*
X314412Y405214D01*
X313680Y404911D01*
X313052Y404429D01*
X312569Y403800D01*
X312266Y403069D01*
X312229Y402783D01*
X314697D01*
Y405252D01*
D02*
G37*
G36*
X200409Y403362D02*
X198138D01*
Y401189D01*
X200409D01*
Y403362D01*
D02*
G37*
G36*
X197138D02*
X194866D01*
Y401189D01*
X197138D01*
Y403362D01*
D02*
G37*
G36*
X132783Y403284D02*
Y400658D01*
X135410D01*
X135367Y400984D01*
X135048Y401754D01*
X134541Y402415D01*
X133880Y402922D01*
X133110Y403241D01*
X132783Y403284D01*
D02*
G37*
G36*
X131783D02*
X131457Y403241D01*
X130687Y402922D01*
X130026Y402415D01*
X129519Y401754D01*
X129200Y400984D01*
X129157Y400658D01*
X131783D01*
Y403284D01*
D02*
G37*
G36*
X485197Y405317D02*
X484412Y405214D01*
X483680Y404911D01*
X483052Y404429D01*
X482570Y403800D01*
X482266Y403069D01*
X482163Y402283D01*
X482266Y401498D01*
X482570Y400767D01*
X483052Y400138D01*
X483680Y399656D01*
X484412Y399353D01*
X485197Y399250D01*
X485982Y399353D01*
X486714Y399656D01*
X487342Y400138D01*
X487824Y400767D01*
X488127Y401498D01*
X488231Y402283D01*
X488127Y403069D01*
X487824Y403800D01*
X487342Y404429D01*
X486714Y404911D01*
X485982Y405214D01*
X485197Y405317D01*
D02*
G37*
G36*
X200409Y400189D02*
X198138D01*
Y398016D01*
X200409D01*
Y400189D01*
D02*
G37*
G36*
X197138D02*
X194866D01*
Y398016D01*
X197138D01*
Y400189D01*
D02*
G37*
G36*
X135410Y399658D02*
X132783D01*
Y397031D01*
X133110Y397074D01*
X133880Y397393D01*
X134541Y397900D01*
X135048Y398561D01*
X135367Y399331D01*
X135410Y399658D01*
D02*
G37*
G36*
X131783D02*
X129157D01*
X129200Y399331D01*
X129519Y398561D01*
X130026Y397900D01*
X130687Y397393D01*
X131457Y397074D01*
X131783Y397031D01*
Y399658D01*
D02*
G37*
G36*
X200409Y397260D02*
X194866D01*
Y391913D01*
X200409D01*
Y392979D01*
X205682D01*
X205711Y392935D01*
X206433Y392453D01*
X207283Y392284D01*
X210630D01*
X211481Y392453D01*
X212202Y392935D01*
X212684Y393657D01*
X212854Y394508D01*
X212684Y395359D01*
X212202Y396080D01*
X211481Y396562D01*
X210630Y396732D01*
X207283D01*
X206433Y396562D01*
X205711Y396080D01*
X205682Y396037D01*
X200409D01*
Y397260D01*
D02*
G37*
G36*
X232087Y391732D02*
X230913D01*
Y390008D01*
X234211D01*
X234141Y390359D01*
X233659Y391080D01*
X232938Y391562D01*
X232087Y391732D01*
D02*
G37*
G36*
X229913D02*
X228740D01*
X227889Y391562D01*
X227168Y391080D01*
X226686Y390359D01*
X226616Y390008D01*
X229913D01*
Y391732D01*
D02*
G37*
G36*
X222547Y390120D02*
Y388295D01*
X224372D01*
X224287Y388723D01*
X223762Y389510D01*
X222975Y390035D01*
X222547Y390120D01*
D02*
G37*
G36*
X221547D02*
X221119Y390035D01*
X220333Y389510D01*
X219807Y388723D01*
X219722Y388295D01*
X221547D01*
Y390120D01*
D02*
G37*
G36*
X234211Y389008D02*
X230913D01*
Y387284D01*
X232087D01*
X232938Y387453D01*
X233659Y387935D01*
X234141Y388657D01*
X234211Y389008D01*
D02*
G37*
G36*
X229913D02*
X226616D01*
X226686Y388657D01*
X227168Y387935D01*
X227889Y387453D01*
X228740Y387284D01*
X229913D01*
Y389008D01*
D02*
G37*
G36*
X224372Y387295D02*
X222547D01*
Y385470D01*
X222975Y385555D01*
X223762Y386081D01*
X224287Y386867D01*
X224372Y387295D01*
D02*
G37*
G36*
X221547D02*
X219722D01*
X219807Y386867D01*
X220333Y386081D01*
X221119Y385555D01*
X221547Y385470D01*
Y387295D01*
D02*
G37*
G36*
X626878Y379884D02*
Y378059D01*
X628703D01*
X628618Y378487D01*
X628092Y379274D01*
X627306Y379799D01*
X626878Y379884D01*
D02*
G37*
G36*
X625878D02*
X625450Y379799D01*
X624663Y379274D01*
X624138Y378487D01*
X624053Y378059D01*
X625878D01*
Y379884D01*
D02*
G37*
G36*
X210630Y381732D02*
X207283D01*
X206433Y381562D01*
X205711Y381080D01*
X205229Y380359D01*
X205060Y379508D01*
X205229Y378657D01*
X205711Y377935D01*
X206433Y377453D01*
X207283Y377284D01*
X210630D01*
X211481Y377453D01*
X212202Y377935D01*
X212684Y378657D01*
X212854Y379508D01*
X212684Y380359D01*
X212202Y381080D01*
X211481Y381562D01*
X210630Y381732D01*
D02*
G37*
G36*
X616043Y378015D02*
X615115Y377831D01*
X614329Y377305D01*
X614128Y377004D01*
X613628D01*
X613427Y377305D01*
X612640Y377831D01*
X611713Y378015D01*
X610785Y377831D01*
X609998Y377305D01*
X609473Y376518D01*
X609288Y375590D01*
X609473Y374663D01*
X609998Y373876D01*
X610282Y373687D01*
Y360500D01*
X610097Y360376D01*
X609571Y359589D01*
X609386Y358661D01*
X609571Y357734D01*
X610097Y356947D01*
X610883Y356421D01*
X611811Y356237D01*
X612739Y356421D01*
X613525Y356947D01*
X614051Y357734D01*
X614112Y358042D01*
X614612Y357993D01*
Y356169D01*
X614427Y356045D01*
X613902Y355258D01*
X613717Y354331D01*
X613902Y353403D01*
X614427Y352616D01*
X615214Y352091D01*
X616142Y351906D01*
X617070Y352091D01*
X617856Y352616D01*
X618382Y353403D01*
X618566Y354331D01*
X618382Y355258D01*
X617856Y356045D01*
X617671Y356169D01*
Y373818D01*
X617758Y373876D01*
X618283Y374663D01*
X618468Y375590D01*
X618283Y376518D01*
X617758Y377305D01*
X616971Y377831D01*
X616043Y378015D01*
D02*
G37*
G36*
X628703Y377059D02*
X626878D01*
Y375234D01*
X627306Y375319D01*
X628092Y375845D01*
X628618Y376631D01*
X628703Y377059D01*
D02*
G37*
G36*
X625878D02*
X624053D01*
X624138Y376631D01*
X624663Y375845D01*
X625450Y375319D01*
X625878Y375234D01*
Y377059D01*
D02*
G37*
G36*
X422102Y355173D02*
X419102D01*
Y348925D01*
X422102D01*
Y355173D01*
D02*
G37*
G36*
X418102D02*
X415102D01*
Y348925D01*
X418102D01*
Y355173D01*
D02*
G37*
G36*
X422102Y347925D02*
X419102D01*
Y341677D01*
X422102D01*
Y347925D01*
D02*
G37*
G36*
X418102D02*
X415102D01*
Y341677D01*
X418102D01*
Y347925D01*
D02*
G37*
G36*
X673910Y337614D02*
X672399Y337496D01*
X670438Y337025D01*
X668575Y336253D01*
X666856Y335199D01*
X665323Y333890D01*
X664013Y332357D01*
X662959Y330637D01*
X662188Y328774D01*
X661717Y326813D01*
X661598Y325303D01*
X673910D01*
Y337614D01*
D02*
G37*
G36*
X115854D02*
Y325303D01*
X128166D01*
X128047Y326813D01*
X127576Y328774D01*
X126804Y330637D01*
X125751Y332357D01*
X124441Y333890D01*
X122908Y335199D01*
X121188Y336253D01*
X119325Y337025D01*
X117365Y337496D01*
X115854Y337614D01*
D02*
G37*
G36*
X362933Y333057D02*
X361434Y332860D01*
X360036Y332281D01*
X358836Y331361D01*
X357916Y330161D01*
X357337Y328763D01*
X357139Y327264D01*
X357337Y325764D01*
X357916Y324367D01*
X358836Y323167D01*
X360036Y322246D01*
X361434Y321668D01*
X362933Y321470D01*
X364433Y321668D01*
X365830Y322246D01*
X367030Y323167D01*
X367951Y324367D01*
X368529Y325764D01*
X368727Y327264D01*
X368529Y328763D01*
X367951Y330161D01*
X367030Y331361D01*
X365830Y332281D01*
X364433Y332860D01*
X362933Y333057D01*
D02*
G37*
G36*
X548378Y589953D02*
X544685D01*
X540992D01*
X541039Y589717D01*
X541402Y589173D01*
X541039Y588629D01*
X540992Y588394D01*
X544685D01*
X548378D01*
X548331Y588629D01*
X547968Y589173D01*
X548331Y589717D01*
X548378Y589953D01*
D02*
G37*
G36*
X548378Y587394D02*
X545185D01*
Y585971D01*
X546555D01*
X547291Y586117D01*
X547915Y586534D01*
X548331Y587158D01*
X548378Y587394D01*
D02*
G37*
G36*
X544185D02*
X540992D01*
X541039Y587158D01*
X541455Y586534D01*
X542079Y586117D01*
X542815Y585971D01*
X544185D01*
Y587394D01*
D02*
G37*
G36*
X539476Y585002D02*
Y583177D01*
X541301D01*
X541216Y583605D01*
X540691Y584392D01*
X539904Y584917D01*
X539476Y585002D01*
D02*
G37*
G36*
X538476D02*
X538049Y584917D01*
X537262Y584392D01*
X536736Y583605D01*
X536651Y583177D01*
X538476D01*
Y585002D01*
D02*
G37*
G36*
X541301Y582177D02*
X539476D01*
Y580352D01*
X539904Y580437D01*
X540691Y580963D01*
X541216Y581749D01*
X541301Y582177D01*
D02*
G37*
G36*
X538476D02*
X536651D01*
X536736Y581749D01*
X537262Y580963D01*
X538049Y580437D01*
X538476Y580352D01*
Y582177D01*
D02*
G37*
G36*
X268610Y386971D02*
Y385146D01*
X270435D01*
X270350Y385574D01*
X269825Y386360D01*
X269038Y386886D01*
X268610Y386971D01*
D02*
G37*
G36*
X267610D02*
X267182Y386886D01*
X266396Y386360D01*
X265870Y385574D01*
X265785Y385146D01*
X267610D01*
Y386971D01*
D02*
G37*
G36*
X270435Y384146D02*
X268610D01*
Y382321D01*
X269038Y382406D01*
X269825Y382931D01*
X270350Y383718D01*
X270435Y384146D01*
D02*
G37*
G36*
X267610D02*
X265785D01*
X265870Y383718D01*
X266396Y382931D01*
X267182Y382406D01*
X267610Y382321D01*
Y384146D01*
D02*
G37*
%LPD*%
D10*
X415354Y664862D02*
Y676929D01*
X405118Y664862D02*
X405354Y665098D01*
Y676929D01*
X406413Y679413D02*
X409449Y676378D01*
X400787Y675984D02*
X404216Y679413D01*
X406413D01*
X409449Y663287D02*
Y676378D01*
Y663287D02*
X414764Y657972D01*
X415354D01*
X457150Y427102D02*
X459449Y424803D01*
X650394Y506299D02*
X650787Y506693D01*
X641732Y506299D02*
X650394D01*
X611024Y500394D02*
Y502756D01*
X586421Y475791D02*
X611024Y500394D01*
X584646Y478346D02*
X600787Y494488D01*
X468504Y478346D02*
X584646D01*
X369745Y475791D02*
X586421D01*
X462630Y484221D02*
X468504Y478346D01*
X387596Y452283D02*
X475197D01*
X384046Y458661D02*
X481575D01*
X356299Y486409D02*
Y490945D01*
X361295Y484241D02*
X369745Y475791D01*
X361295Y484241D02*
Y486725D01*
X360236Y487784D02*
X361295Y486725D01*
X360236Y487784D02*
Y488189D01*
X356299Y486409D02*
X384046Y458661D01*
X337123Y502756D02*
X387596Y452283D01*
X327559Y502756D02*
X337123D01*
X650394Y494488D02*
X650787Y494882D01*
X641339Y494488D02*
X650394D01*
X617717Y507087D02*
X629134Y518504D01*
X487008Y507087D02*
X617717D01*
X475197Y495276D02*
X487008Y507087D01*
X629134Y518504D02*
X632559D01*
X368390Y484221D02*
X462630D01*
X367178Y485433D02*
X368390Y484221D01*
X364173Y485433D02*
X367178D01*
X369219Y486221D02*
X481260D01*
X369685Y488583D02*
X481496D01*
X344488Y513779D02*
X369685Y488583D01*
X343877Y511562D02*
X369219Y486221D01*
X481496Y488583D02*
X485197Y492283D01*
X191877Y511562D02*
X343877D01*
X306650Y438776D02*
X315197Y447323D01*
X215949Y438776D02*
X306650D01*
X315197Y447323D02*
Y452283D01*
X331217Y416264D02*
X538705D01*
X315197Y432283D02*
X331217Y416264D01*
X357721Y418264D02*
X532831D01*
X317209Y458776D02*
X357721Y418264D01*
X308705Y458776D02*
X317209D01*
X532831Y418264D02*
X627559Y512992D01*
X480528Y412284D02*
X485197D01*
X477020Y408776D02*
X480528Y412284D01*
X473744Y408776D02*
X477020D01*
X470236Y412284D02*
X473744Y408776D01*
X331417Y412284D02*
X470236D01*
X479848Y408776D02*
X486650D01*
X477848Y406776D02*
X479848Y408776D01*
X472915Y406776D02*
X477848D01*
X471817Y407874D02*
X472915Y406776D01*
X329606Y407874D02*
X471817D01*
X538705Y416264D02*
X629134Y506693D01*
X495991Y364173D02*
X616888Y485071D01*
X494488Y359842D02*
X617717Y483071D01*
X314961Y428740D02*
X331417Y412284D01*
X491260Y413386D02*
X496063D01*
X307087Y428740D02*
X314961D01*
X305512Y427165D02*
X307087Y428740D01*
X616043Y375590D02*
X616142Y375492D01*
Y354331D02*
Y375492D01*
X454331Y423228D02*
X454724D01*
X452457Y425102D02*
X454331Y423228D01*
X459449Y424803D02*
Y425197D01*
X463779Y427165D02*
Y427165D01*
X461842Y429102D02*
X463779Y427165D01*
X449606Y421654D02*
X450000D01*
X448158Y423102D02*
X449606Y421654D01*
X391829Y423102D02*
X448158D01*
X342648Y472284D02*
X391829Y423102D01*
X315197Y472284D02*
X342648D01*
X611713Y375590D02*
X611811Y375492D01*
Y358661D02*
Y375492D01*
X392657Y425102D02*
X452457D01*
X335476Y482283D02*
X392657Y425102D01*
X394314Y429102D02*
X461842D01*
X331133Y492283D02*
X394314Y429102D01*
X315197Y492283D02*
X331133D01*
X395143Y431102D02*
X466378D01*
X324410Y501835D02*
X395143Y431102D01*
X393486Y427102D02*
X457150D01*
X331813Y488776D02*
X393486Y427102D01*
X466378Y431102D02*
X475197Y422284D01*
X315197Y482283D02*
X335476D01*
X476378Y364173D02*
X495991D01*
X476378Y359842D02*
X494488D01*
X616888Y485071D02*
X622748D01*
X629145Y491468D01*
Y492882D01*
X631145Y494882D01*
X632559D01*
X486650Y408776D02*
X491260Y413386D01*
X617717Y483071D02*
X632559D01*
X457602Y397760D02*
X461024Y401181D01*
X468110D01*
X315197Y422284D02*
X329606Y407874D01*
X243079Y397760D02*
X457602D01*
X239827Y394508D02*
X243079Y397760D01*
X230413Y394508D02*
X239827D01*
X308705Y488776D02*
X331813D01*
X305197Y492283D02*
X308705Y488776D01*
X531496Y423228D02*
Y425984D01*
X485197Y472284D02*
X531496Y425984D01*
X179012Y503993D02*
X182611Y500394D01*
X160630Y529528D02*
X179012Y511146D01*
X157205Y529528D02*
X160630D01*
X179012Y503993D02*
Y511146D01*
X481575Y458661D02*
X485197Y462284D01*
X627559Y512992D02*
X642126D01*
X647638Y518504D01*
X148031Y488189D02*
X157480D01*
X142126Y494095D02*
X148031Y488189D01*
X138976Y494095D02*
X142126D01*
X148031D02*
Y500000D01*
X142126Y505905D02*
X148031Y500000D01*
X138976Y505905D02*
X142126D01*
X150787Y500394D02*
X162992D01*
X148425Y502756D02*
X150787Y500394D01*
X162992D02*
X217717Y445669D01*
X148425Y502756D02*
Y511811D01*
X160453Y505905D02*
X200567Y465791D01*
X157205Y505905D02*
X160453D01*
X160630Y517717D02*
X183465Y494882D01*
X157205Y517717D02*
X160630D01*
X181890Y505185D02*
X190485Y513779D01*
X344488Y513779D01*
X182611Y500394D02*
X192913D01*
X189763Y508267D02*
Y508662D01*
X189370Y509055D02*
X189763Y508662D01*
X183465Y494882D02*
X192913D01*
X189370Y509055D02*
X191877Y511562D01*
X481260Y486221D02*
X485197Y482283D01*
X324410Y501835D02*
Y507087D01*
X160630Y494095D02*
X215949Y438776D01*
X157205Y494095D02*
X160630D01*
X547543Y600516D02*
X554453Y593606D01*
Y568099D02*
Y593606D01*
X548032Y520079D02*
Y561678D01*
X554453Y568099D01*
X547274Y600516D02*
X547543D01*
X547248Y600541D02*
X547274Y600516D01*
X544833Y600541D02*
X547248D01*
X544685Y600689D02*
X544833Y600541D01*
X132283Y389921D02*
X141969Y399606D01*
X132283Y379921D02*
X136909Y384547D01*
X629134Y506693D02*
X632559D01*
X311689Y465791D02*
X315197Y462284D01*
X200567Y465791D02*
X311689D01*
X305197Y462284D02*
X308705Y458776D01*
X647638Y518504D02*
X650394D01*
X535433Y592520D02*
Y597826D01*
X540682Y603075D01*
X542096D01*
X542122Y603100D01*
X544537D01*
X544685Y603248D01*
X530555Y617809D02*
X539370Y626624D01*
X532555Y616980D02*
X543701Y628126D01*
X532555Y592719D02*
Y616980D01*
X530555Y593547D02*
Y617809D01*
X527461Y590453D02*
X530555Y593547D01*
X527903Y588067D02*
X532555Y592719D01*
X532676Y585038D02*
X538902Y591264D01*
Y596382D01*
X532676Y582676D02*
Y585038D01*
X540476Y597957D02*
X542096D01*
X538902Y596382D02*
X540476Y597957D01*
X542096D02*
X542122Y597982D01*
X544537D01*
X544685Y598130D01*
X551575Y569291D02*
Y592511D01*
X548688Y595398D02*
X551575Y592511D01*
X547274Y595398D02*
X548688D01*
X547248Y595423D02*
X547274Y595398D01*
X544833Y595423D02*
X547248D01*
X544685Y595571D02*
X544833Y595423D01*
X524046Y588067D02*
X527903D01*
X524020Y588041D02*
X524046Y588067D01*
X521604Y588041D02*
X524020D01*
X521457Y590453D02*
X527461D01*
X385706Y510236D02*
X411024D01*
X385409Y513362D02*
X406275D01*
X295253Y600689D02*
X385706Y510236D01*
X405354Y516929D02*
Y530965D01*
X295522Y603248D02*
X385409Y513362D01*
X406275D02*
X414173Y521260D01*
X420079D01*
X395354Y516929D02*
Y530886D01*
X395669Y531201D01*
X411713Y600689D02*
X413386Y602362D01*
X406890Y600689D02*
X411713D01*
X413386Y597638D02*
X413386Y597638D01*
X411319Y595571D02*
X413386Y597638D01*
X406890Y595571D02*
X411319D01*
X475197Y492283D02*
Y495276D01*
X527461Y605807D02*
X527559Y605905D01*
X521457Y605807D02*
X527461D01*
X389665D02*
X389764Y605905D01*
X383661Y605807D02*
X389665D01*
X393276Y591701D02*
Y617537D01*
X395276Y589764D02*
Y616709D01*
X405118Y626551D01*
X393276Y617537D02*
X400787Y625049D01*
X252658Y605807D02*
X252756Y605905D01*
X245866Y605807D02*
X252658D01*
X272924Y598130D02*
X274256Y596798D01*
X269094Y598130D02*
X272924D01*
X275565Y596089D02*
X275590Y596063D01*
X301811Y445669D02*
X305197Y442283D01*
X217717Y445669D02*
X301811D01*
X142520Y517717D02*
X148425Y511811D01*
X138976Y517717D02*
X142520D01*
X275090Y596089D02*
X275565D01*
X274380Y596798D02*
X275090Y596089D01*
X274256Y596798D02*
X274380D01*
X269094Y600689D02*
X295253D01*
X379134Y587008D02*
Y592126D01*
Y587008D02*
X405118Y561024D01*
X375134Y585351D02*
Y593783D01*
Y585351D02*
X377953Y582532D01*
Y582283D02*
Y582532D01*
Y582283D02*
X385433Y574803D01*
X269094Y603248D02*
X295522D01*
X261811Y593701D02*
X263681Y595571D01*
X269094D01*
X398819Y593701D02*
X403248Y598130D01*
X406890D01*
X398819Y598032D02*
X403888Y603100D01*
X406742D01*
X406890Y603248D01*
X393579Y588067D02*
X395276Y589764D01*
X386250Y588067D02*
X393579D01*
X383661Y590453D02*
X392028D01*
X393276Y591701D01*
X239665Y603248D02*
X245866D01*
X238221Y604693D02*
X239665Y603248D01*
X238221Y604693D02*
Y649933D01*
X245866Y657579D01*
X246457D01*
X239075Y600689D02*
X245866D01*
X236221Y603543D02*
X239075Y600689D01*
X236221Y603543D02*
Y657579D01*
X246457Y538484D02*
Y569540D01*
X237339Y578658D02*
X246457Y569540D01*
X237339Y578658D02*
Y593783D01*
X241512Y597957D01*
X243277D01*
X243303Y597982D01*
X245719D01*
X245866Y598130D01*
X256299Y538484D02*
Y562526D01*
X239339Y579487D02*
X256299Y562526D01*
X239339Y579487D02*
Y592954D01*
X241782Y595398D01*
X243277D01*
X243303Y595423D01*
X245719D01*
X245866Y595571D01*
X241339Y592126D02*
X242224Y593012D01*
X241339Y580315D02*
Y592126D01*
Y580315D02*
X266535Y555118D01*
X242224Y593012D02*
X245866D01*
X266535Y538484D02*
Y555118D01*
X254281Y588067D02*
X258693Y592479D01*
Y616740D02*
X266142Y624189D01*
X258693Y592479D02*
Y616740D01*
X248455Y588067D02*
X254281D01*
X256693Y617569D02*
X261811Y622687D01*
X256693Y593307D02*
Y617569D01*
X253839Y590453D02*
X256693Y593307D01*
X245866Y590453D02*
X253839D01*
X261811Y676378D02*
X264961Y679528D01*
X261811Y622687D02*
Y676378D01*
X264961Y679528D02*
X268110D01*
X271654Y675984D01*
Y661713D02*
X275787Y657579D01*
X271654Y661713D02*
Y675984D01*
X275787Y657579D02*
X276378D01*
X266142Y624189D02*
Y657579D01*
X248429Y588041D02*
X248455Y588067D01*
X246014Y588041D02*
X248429D01*
X245866Y587894D02*
X246014Y588041D01*
X246378Y531516D02*
X246457Y531595D01*
X246378Y516929D02*
Y531516D01*
X256299Y531595D02*
X256378Y531516D01*
Y516929D02*
Y531516D01*
X266378Y531437D02*
X266535Y531595D01*
X266378Y516929D02*
Y531437D01*
X276378Y664468D02*
Y676929D01*
X266142Y664468D02*
X266378Y664705D01*
Y676929D01*
X246378Y664547D02*
X246457Y664468D01*
X246378Y664547D02*
Y676929D01*
X236221Y664468D02*
X236378Y664626D01*
Y676929D01*
X516730Y603421D02*
X518868D01*
X515779Y604372D02*
X516730Y603421D01*
X515779Y604372D02*
Y649933D01*
X523032Y657185D01*
X523622D01*
X518868Y603421D02*
X518893Y603396D01*
X521309D01*
X521457Y603248D01*
X516461Y600862D02*
X518868D01*
X513779Y603543D02*
X516461Y600862D01*
X513779Y603543D02*
Y657185D01*
X518868Y600862D02*
X518893Y600837D01*
X521309D01*
X521457Y600689D01*
X517642Y592839D02*
X518868D01*
X517201Y592398D02*
X517642Y592839D01*
X517201Y585161D02*
Y592398D01*
X517124Y595398D02*
X518868D01*
X515201Y593475D02*
X517124Y595398D01*
X515201Y584333D02*
Y593475D01*
X516854Y597957D02*
X518868D01*
X513201Y594303D02*
X516854Y597957D01*
X513201Y583505D02*
Y594303D01*
X523622Y540059D02*
Y573083D01*
X513201Y583505D02*
X523622Y573083D01*
X533858Y540059D02*
Y565675D01*
X515201Y584333D02*
X533858Y565675D01*
X517201Y585161D02*
X543701Y558661D01*
X518868Y597957D02*
X518893Y597982D01*
X521309D01*
X521457Y598130D01*
X543701Y540059D02*
Y558661D01*
X518868Y595398D02*
X518893Y595423D01*
X521309D01*
X521457Y595571D01*
X518868Y592839D02*
X518893Y592864D01*
X521309D01*
X521457Y593012D01*
X539370Y676378D02*
X542520Y679528D01*
X539370Y626624D02*
Y676378D01*
X544882Y679528D02*
X548819Y675591D01*
Y661319D02*
Y675591D01*
Y661319D02*
X552953Y657185D01*
X542520Y679528D02*
X544882D01*
X552953Y657185D02*
X553543D01*
X543701Y628126D02*
Y657185D01*
X521457Y587894D02*
X521604Y588041D01*
X385433Y538091D02*
Y574803D01*
X375134Y593783D02*
X379308Y597957D01*
X381072D01*
X381098Y597982D01*
X383514D01*
X383661Y598130D01*
X395669Y538091D02*
Y567644D01*
X377134Y586179D02*
X395669Y567644D01*
X377134Y586179D02*
Y592954D01*
X379577Y595398D01*
X381072D01*
X381098Y595423D01*
X383514D01*
X383661Y595571D01*
X405118Y538091D02*
Y561024D01*
X385354Y531122D02*
X385433Y531201D01*
X385354Y516929D02*
Y531122D01*
X405118Y531201D02*
X405354Y530965D01*
X543701Y517008D02*
X543780Y516929D01*
X543701Y517008D02*
Y533169D01*
X533779Y533090D02*
X533858Y533169D01*
X533779Y516929D02*
Y533090D01*
X523622Y517087D02*
X523779Y516929D01*
X523622Y517087D02*
Y533169D01*
X553543Y664075D02*
X553780Y664311D01*
Y676929D01*
X543701Y676850D02*
X543780Y676929D01*
X543701Y664075D02*
Y676850D01*
X523622Y664075D02*
X523779Y664232D01*
Y676929D01*
X513779Y664075D02*
Y676929D01*
X377197Y650327D02*
X384842Y657972D01*
X377197Y604299D02*
Y650327D01*
Y604299D02*
X378075Y603421D01*
X377805Y600862D02*
X381072D01*
X375197Y603471D02*
X377805Y600862D01*
X375197Y603471D02*
Y657579D01*
X378075Y603421D02*
X381072D01*
X384842Y657972D02*
X385433D01*
X381072Y603421D02*
X381098Y603396D01*
X383514D01*
X383661Y603248D01*
X381098Y600837D02*
X383514D01*
X383661Y600689D01*
X381072Y600862D02*
X381098Y600837D01*
Y592864D02*
X383514D01*
X381072Y592839D02*
X381098Y592864D01*
X379847Y592839D02*
X381072D01*
X379134Y592126D02*
X379847Y592839D01*
X383514Y592864D02*
X383661Y593012D01*
X400787Y625049D02*
Y675984D01*
X386225Y588041D02*
X386250Y588067D01*
X383809Y588041D02*
X386225D01*
X405118Y626551D02*
Y657972D01*
X383661Y587894D02*
X383809Y588041D01*
X375354Y664626D02*
Y676929D01*
X385354Y664941D02*
Y676929D01*
X136909Y384547D02*
X163386D01*
X141969Y399606D02*
X153543D01*
X163386Y384547D02*
X163779Y384154D01*
X173228D01*
X173583Y384508D01*
X208957D01*
X162736Y389606D02*
X163386Y390256D01*
X153543Y389606D02*
X162736D01*
X173228Y389862D02*
X173484Y389606D01*
X183071D01*
X197638Y394587D02*
X197716Y394508D01*
X208957D01*
X153543Y399606D02*
X183071D01*
X193169Y389508D01*
X208957D01*
D13*
X645079Y417618D02*
Y429528D01*
X586221Y417618D02*
Y429528D01*
X645079D01*
Y382087D02*
Y406890D01*
X586221Y382185D02*
Y406791D01*
X99606Y702756D02*
X690158D01*
Y309055D02*
Y702756D01*
X99606Y309055D02*
X690158D01*
X99606D02*
Y702756D01*
X225984Y393307D02*
G03*
X225984Y393307I-1969J0D01*
G01*
X540354Y603346D02*
G03*
X540354Y603346I-1969J0D01*
G01*
X402559D02*
G03*
X402559Y603346I-1969J0D01*
G01*
X264764D02*
G03*
X264764Y603346I-1969J0D01*
G01*
X243701Y656791D02*
Y665256D01*
X249213Y656791D02*
Y665256D01*
X243701D02*
X249213D01*
X243701Y656791D02*
X249213D01*
X227559Y377165D02*
Y396850D01*
X211811Y377165D02*
Y396850D01*
X227559D01*
X211811Y377165D02*
X227559D01*
X524213Y586811D02*
X541929D01*
X524213Y606890D02*
X541929D01*
X524213Y586811D02*
Y606890D01*
X541929Y586811D02*
Y606890D01*
X386417Y586811D02*
X404134D01*
X386417Y606890D02*
X404134D01*
X386417Y586811D02*
Y606890D01*
X404134Y586811D02*
Y606890D01*
X248622Y586811D02*
X266339D01*
X248622Y606890D02*
X266339D01*
X248622Y586811D02*
Y606890D01*
X266339Y586811D02*
Y606890D01*
X161614Y384055D02*
Y390748D01*
X165157Y384055D02*
Y390748D01*
X161614D02*
X165157D01*
X161614Y384055D02*
X165157D01*
X171260Y383465D02*
Y390551D01*
X175197Y383465D02*
Y390551D01*
X171260D02*
X175197D01*
X171260Y383465D02*
X175197D01*
X245079Y396260D02*
X251772D01*
X245079Y392717D02*
X251772D01*
Y396260D01*
X245079Y392717D02*
Y396260D01*
X195866Y394291D02*
Y400984D01*
X199409Y394291D02*
Y400984D01*
X195866D02*
X199409D01*
X195866Y394291D02*
X199409D01*
X540945Y656398D02*
X546457D01*
X540945Y664862D02*
X546457D01*
Y656398D02*
Y664862D01*
X540945Y656398D02*
Y664862D01*
X550787Y656398D02*
X556299D01*
X550787Y664862D02*
X556299D01*
Y656398D02*
Y664862D01*
X550787Y656398D02*
Y664862D01*
X540945Y540846D02*
X546457D01*
X540945Y532382D02*
X546457D01*
X540945D02*
Y540846D01*
X546457Y532382D02*
Y540846D01*
X531102D02*
X536614D01*
X531102Y532382D02*
X536614D01*
X531102D02*
Y540846D01*
X536614Y532382D02*
Y540846D01*
X520866D02*
X526378D01*
X520866Y532382D02*
X526378D01*
X520866D02*
Y540846D01*
X526378Y532382D02*
Y540846D01*
X511024Y656398D02*
X516535D01*
X511024Y664862D02*
X516535D01*
Y656398D02*
Y664862D01*
X511024Y656398D02*
Y664862D01*
X520866Y656398D02*
X526378D01*
X520866Y664862D02*
X526378D01*
Y656398D02*
Y664862D01*
X520866Y656398D02*
Y664862D01*
X402362Y657185D02*
X407874D01*
X402362Y665650D02*
X407874D01*
Y657185D02*
Y665650D01*
X402362Y657185D02*
Y665650D01*
X263386Y656791D02*
X268898D01*
X263386Y665256D02*
X268898D01*
Y656791D02*
Y665256D01*
X263386Y656791D02*
Y665256D01*
X412598Y657185D02*
X418110D01*
X412598Y665650D02*
X418110D01*
Y657185D02*
Y665650D01*
X412598Y657185D02*
Y665650D01*
X273622Y656791D02*
X279134D01*
X273622Y665256D02*
X279134D01*
Y656791D02*
Y665256D01*
X273622Y656791D02*
Y665256D01*
X402362Y538878D02*
X407874D01*
X402362Y530413D02*
X407874D01*
X402362D02*
Y538878D01*
X407874Y530413D02*
Y538878D01*
X263779Y539272D02*
X269291D01*
X263779Y530807D02*
X269291D01*
X263779D02*
Y539272D01*
X269291Y530807D02*
Y539272D01*
X392913Y538878D02*
X398425D01*
X392913Y530413D02*
X398425D01*
X392913D02*
Y538878D01*
X398425Y530413D02*
Y538878D01*
X253543Y539272D02*
X259055D01*
X253543Y530807D02*
X259055D01*
X253543D02*
Y539272D01*
X259055Y530807D02*
Y539272D01*
X382677Y538878D02*
X388189D01*
X382677Y530413D02*
X388189D01*
X382677D02*
Y538878D01*
X388189Y530413D02*
Y538878D01*
X243701Y539272D02*
X249213D01*
X243701Y530807D02*
X249213D01*
X243701D02*
Y539272D01*
X249213Y530807D02*
Y539272D01*
X372441Y656791D02*
X377953D01*
X372441Y665256D02*
X377953D01*
Y656791D02*
Y665256D01*
X372441Y656791D02*
Y665256D01*
X233465Y656791D02*
X238976D01*
X233465Y665256D02*
X238976D01*
Y656791D02*
Y665256D01*
X233465Y656791D02*
Y665256D01*
X382677Y657185D02*
X388189D01*
X382677Y665650D02*
X388189D01*
Y657185D02*
Y665650D01*
X382677Y657185D02*
Y665650D01*
X251476Y382776D02*
Y386516D01*
X244587Y382776D02*
Y386516D01*
X251476D01*
X244587Y382776D02*
X251476D01*
X244488Y661024D02*
X248425D01*
X246457Y659055D02*
Y662992D01*
X217717Y387008D02*
X221654D01*
X219685Y385039D02*
Y388976D01*
X533071Y594882D02*
Y598819D01*
X531102Y596850D02*
X535039D01*
X395276Y594882D02*
Y598819D01*
X393307Y596850D02*
X397244D01*
X257480Y594882D02*
Y598819D01*
X255512Y596850D02*
X259449D01*
X161614Y387402D02*
X165157D01*
X163386Y385630D02*
Y389173D01*
X171260Y387008D02*
X175197D01*
X173228Y385039D02*
Y388976D01*
X248425Y392717D02*
Y396260D01*
X246654Y394488D02*
X250197D01*
X195866Y397638D02*
X199409D01*
X197638Y395866D02*
Y399409D01*
X543701Y658661D02*
Y662598D01*
X541732Y660630D02*
X545669D01*
X553543Y658661D02*
Y662598D01*
X551575Y660630D02*
X555512D01*
X543701Y534646D02*
Y538583D01*
X541732Y536614D02*
X545669D01*
X533858Y534646D02*
Y538583D01*
X531890Y536614D02*
X535827D01*
X523622Y534646D02*
Y538583D01*
X521654Y536614D02*
X525591D01*
X513779Y658661D02*
Y662598D01*
X511811Y660630D02*
X515748D01*
X523622Y658661D02*
Y662598D01*
X521654Y660630D02*
X525591D01*
X405118Y659449D02*
Y663386D01*
X403150Y661417D02*
X407087D01*
X266142Y659055D02*
Y662992D01*
X264173Y661024D02*
X268110D01*
X415354Y659449D02*
Y663386D01*
X413386Y661417D02*
X417323D01*
X276378Y659055D02*
Y662992D01*
X274410Y661024D02*
X278346D01*
X405118Y532677D02*
Y536614D01*
X403150Y534646D02*
X407087D01*
X266535Y533071D02*
Y537008D01*
X264567Y535039D02*
X268504D01*
X395669Y532677D02*
Y536614D01*
X393701Y534646D02*
X397638D01*
X256299Y533071D02*
Y537008D01*
X254331Y535039D02*
X258268D01*
X385433Y532677D02*
Y536614D01*
X383465Y534646D02*
X387402D01*
X246457Y533071D02*
Y537008D01*
X244488Y535039D02*
X248425D01*
X375197Y659055D02*
Y662992D01*
X373228Y661024D02*
X377165D01*
X236221Y659055D02*
Y662992D01*
X234252Y661024D02*
X238189D01*
X385433Y659449D02*
Y663386D01*
X383465Y661417D02*
X387402D01*
X246161Y384646D02*
X249902D01*
X248031Y382776D02*
Y386516D01*
D14*
X624902Y390650D02*
D03*
D15*
X242717Y654331D02*
Y667717D01*
X250197Y654331D02*
Y667717D01*
X242717D02*
X250197D01*
X242717Y654331D02*
X250197D01*
X234252Y376181D02*
Y397835D01*
X205118Y376181D02*
Y397835D01*
X234252D01*
X205118Y376181D02*
X234252D01*
X517717Y585827D02*
X548425D01*
X517717Y607874D02*
X548425D01*
X517717Y585827D02*
Y607874D01*
X548425Y585827D02*
Y607874D01*
X379921Y585827D02*
X410630D01*
X379921Y607874D02*
X410630D01*
X379921Y585827D02*
Y607874D01*
X410630Y585827D02*
Y607874D01*
X242126Y585827D02*
X272835D01*
X242126Y607874D02*
X272835D01*
X242126Y585827D02*
Y607874D01*
X272835Y585827D02*
Y607874D01*
X160630Y381693D02*
Y393110D01*
X166142Y381693D02*
Y393110D01*
X160630D02*
X166142D01*
X160630Y381693D02*
X166142D01*
X170276Y381102D02*
Y392913D01*
X176181Y381102D02*
Y392913D01*
X170276D02*
X176181D01*
X170276Y381102D02*
X176181D01*
X242717Y397244D02*
X254134D01*
X242717Y391732D02*
X254134D01*
Y397244D01*
X242717Y391732D02*
Y397244D01*
X194882Y391929D02*
Y403346D01*
X200394Y391929D02*
Y403346D01*
X194882D02*
X200394D01*
X194882Y391929D02*
X200394D01*
X539961Y653937D02*
X547441D01*
X539961Y667323D02*
X547441D01*
Y653937D02*
Y667323D01*
X539961Y653937D02*
Y667323D01*
X549803Y653937D02*
X557283D01*
X549803Y667323D02*
X557283D01*
Y653937D02*
Y667323D01*
X549803Y653937D02*
Y667323D01*
X539961Y543307D02*
X547441D01*
X539961Y529921D02*
X547441D01*
X539961D02*
Y543307D01*
X547441Y529921D02*
Y543307D01*
X530118D02*
X537598D01*
X530118Y529921D02*
X537598D01*
X530118D02*
Y543307D01*
X537598Y529921D02*
Y543307D01*
X519882D02*
X527362D01*
X519882Y529921D02*
X527362D01*
X519882D02*
Y543307D01*
X527362Y529921D02*
Y543307D01*
X510039Y653937D02*
X517520D01*
X510039Y667323D02*
X517520D01*
Y653937D02*
Y667323D01*
X510039Y653937D02*
Y667323D01*
X519882Y653937D02*
X527362D01*
X519882Y667323D02*
X527362D01*
Y653937D02*
Y667323D01*
X519882Y653937D02*
Y667323D01*
X401378Y654724D02*
X408858D01*
X401378Y668110D02*
X408858D01*
Y654724D02*
Y668110D01*
X401378Y654724D02*
Y668110D01*
X262402Y654331D02*
X269882D01*
X262402Y667717D02*
X269882D01*
Y654331D02*
Y667717D01*
X262402Y654331D02*
Y667717D01*
X411614Y654724D02*
X419095D01*
X411614Y668110D02*
X419095D01*
Y654724D02*
Y668110D01*
X411614Y654724D02*
Y668110D01*
X272638Y654331D02*
X280118D01*
X272638Y667717D02*
X280118D01*
Y654331D02*
Y667717D01*
X272638Y654331D02*
Y667717D01*
X401378Y541339D02*
X408858D01*
X401378Y527953D02*
X408858D01*
X401378D02*
Y541339D01*
X408858Y527953D02*
Y541339D01*
X262795Y541732D02*
X270276D01*
X262795Y528346D02*
X270276D01*
X262795D02*
Y541732D01*
X270276Y528346D02*
Y541732D01*
X391929Y541339D02*
X399409D01*
X391929Y527953D02*
X399409D01*
X391929D02*
Y541339D01*
X399409Y527953D02*
Y541339D01*
X252559Y541732D02*
X260039D01*
X252559Y528346D02*
X260039D01*
X252559D02*
Y541732D01*
X260039Y528346D02*
Y541732D01*
X381693Y541339D02*
X389173D01*
X381693Y527953D02*
X389173D01*
X381693D02*
Y541339D01*
X389173Y527953D02*
Y541339D01*
X242717Y541732D02*
X250197D01*
X242717Y528346D02*
X250197D01*
X242717D02*
Y541732D01*
X250197Y528346D02*
Y541732D01*
X371457Y654331D02*
X378937D01*
X371457Y667717D02*
X378937D01*
Y654331D02*
Y667717D01*
X371457Y654331D02*
Y667717D01*
X232480Y654331D02*
X239961D01*
X232480Y667717D02*
X239961D01*
Y654331D02*
Y667717D01*
X232480Y654331D02*
Y667717D01*
X381693Y654724D02*
X389173D01*
X381693Y668110D02*
X389173D01*
Y654724D02*
Y668110D01*
X381693Y654724D02*
Y668110D01*
X253937Y381693D02*
Y387598D01*
X242126Y381693D02*
Y387598D01*
X253937D01*
X242126Y381693D02*
X253937D01*
D26*
X447224Y379508D02*
X464961Y397244D01*
X230413Y379508D02*
X447224D01*
X377165Y348425D02*
X383071D01*
X245374Y384941D02*
Y394488D01*
X245079Y384646D02*
X245374Y384941D01*
X251575Y389764D02*
Y394390D01*
X251476Y394488D02*
X251575Y394390D01*
X622047Y320079D02*
X650787Y348819D01*
X650787Y483071D02*
X650787Y348819D01*
X389764Y320079D02*
X622047D01*
X276378Y516929D02*
X375354D01*
X138976Y476378D02*
Y482283D01*
X244941Y384508D02*
X245079Y384646D01*
X230413Y384508D02*
X244941D01*
X228346Y374016D02*
X379134D01*
X212854Y389508D02*
X228346Y374016D01*
X208957Y389508D02*
X212854D01*
X234252Y363779D02*
X382283D01*
X213524Y384508D02*
X234252Y363779D01*
X208957Y384508D02*
X213524D01*
X392126Y338976D02*
X400394D01*
X388976Y342126D02*
X392126Y338976D01*
X388976Y342126D02*
Y357087D01*
X400394Y338976D02*
X406791Y345374D01*
X438189Y334646D02*
X475197Y371654D01*
X389764Y334646D02*
X438189D01*
X383071Y341339D02*
X389764Y334646D01*
X371161Y338681D02*
X389764Y320079D01*
X406791Y345374D02*
Y348425D01*
X383071Y341339D02*
Y348425D01*
X382283Y363779D02*
X388976Y357087D01*
X379134Y374016D02*
X394882Y358268D01*
Y348425D02*
Y358268D01*
X375354Y516929D02*
X386378Y505905D01*
X412992D01*
X415354Y508268D01*
Y516929D01*
X513779D01*
X135433Y529528D02*
X138976D01*
X103937Y498032D02*
X135433Y529528D01*
X122835Y348425D02*
X371161Y348425D01*
X103937Y367323D02*
X122835Y348425D01*
X103937Y367323D02*
X103937Y498032D01*
X641339Y536221D02*
X645728Y531831D01*
X649272D01*
X650787Y530315D01*
X371161Y338681D02*
Y348425D01*
X475197Y371654D02*
Y402283D01*
X550236Y513386D02*
X553780Y516929D01*
X517323Y513386D02*
X550236D01*
X513779Y516929D02*
X517323Y513386D01*
X646871Y529942D02*
X650414D01*
X641339Y524409D02*
X646871Y529942D01*
X622835Y524409D02*
X641339D01*
X615354Y516929D02*
X622835Y524409D01*
X553780Y516929D02*
X615354D01*
X375197Y664468D02*
X375354Y664626D01*
X385354Y664941D02*
X385433Y664862D01*
D27*
X315197Y492283D02*
D03*
Y482283D02*
D03*
Y472284D02*
D03*
Y462284D02*
D03*
Y452283D02*
D03*
Y442283D02*
D03*
Y432283D02*
D03*
Y422284D02*
D03*
Y412284D02*
D03*
Y402283D02*
D03*
X305197Y492283D02*
D03*
Y482283D02*
D03*
Y472284D02*
D03*
Y462284D02*
D03*
Y452283D02*
D03*
Y442283D02*
D03*
Y432283D02*
D03*
Y422284D02*
D03*
Y412284D02*
D03*
Y402283D02*
D03*
X475197Y492283D02*
D03*
Y482283D02*
D03*
Y472284D02*
D03*
Y462284D02*
D03*
Y452283D02*
D03*
Y442283D02*
D03*
Y432283D02*
D03*
Y422284D02*
D03*
Y412284D02*
D03*
Y402283D02*
D03*
X485197Y492283D02*
D03*
Y482283D02*
D03*
Y472284D02*
D03*
Y462284D02*
D03*
Y452283D02*
D03*
Y442283D02*
D03*
Y432283D02*
D03*
Y422284D02*
D03*
Y412284D02*
D03*
Y402283D02*
D03*
D28*
X553780Y676929D02*
D03*
Y516929D02*
D03*
X513779Y676929D02*
D03*
Y516929D02*
D03*
X543780Y676929D02*
D03*
Y516929D02*
D03*
X533779Y676929D02*
D03*
Y516929D02*
D03*
X523779Y676929D02*
D03*
Y516929D02*
D03*
X385354D02*
D03*
Y676929D02*
D03*
X395354Y516929D02*
D03*
Y676929D02*
D03*
X405354Y516929D02*
D03*
Y676929D02*
D03*
X375354Y516929D02*
D03*
Y676929D02*
D03*
X415354Y516929D02*
D03*
Y676929D02*
D03*
X246378Y516929D02*
D03*
Y676929D02*
D03*
X256378Y516929D02*
D03*
Y676929D02*
D03*
X266378Y516929D02*
D03*
Y676929D02*
D03*
X236378Y516929D02*
D03*
Y676929D02*
D03*
X276378Y516929D02*
D03*
Y676929D02*
D03*
D29*
X268110Y384646D02*
D03*
X538976Y582677D02*
D03*
X222047Y387795D02*
D03*
X626378Y377559D02*
D03*
X600787Y494488D02*
D03*
X360236Y488189D02*
D03*
X611024Y502756D02*
D03*
X641732Y506299D02*
D03*
X641339Y494488D02*
D03*
X364173Y485433D02*
D03*
X496063Y413386D02*
D03*
X377165Y348425D02*
D03*
X251575Y389764D02*
D03*
X616142Y354331D02*
D03*
X454724Y423228D02*
D03*
X459449Y425197D02*
D03*
X463779Y427165D02*
D03*
X450000Y421654D02*
D03*
X611811Y358661D02*
D03*
X476378Y364173D02*
D03*
Y359842D02*
D03*
X468110Y401181D02*
D03*
X464961Y397244D02*
D03*
X616043Y375590D02*
D03*
X327559Y502756D02*
D03*
X531496Y423228D02*
D03*
X611713Y375590D02*
D03*
X148031Y494095D02*
D03*
X181890Y505185D02*
D03*
X189763Y508267D02*
D03*
X324410Y507087D02*
D03*
X157480Y488189D02*
D03*
X138976Y476378D02*
D03*
X356299Y490945D02*
D03*
X548032Y520079D02*
D03*
X192913Y494882D02*
D03*
Y500394D02*
D03*
X305512Y427165D02*
D03*
X535433Y592520D02*
D03*
X532676Y582676D02*
D03*
X551575Y569291D02*
D03*
X411024Y510236D02*
D03*
X420079Y521260D02*
D03*
X413386Y602362D02*
D03*
Y597638D02*
D03*
X641339Y536221D02*
D03*
X527559Y605905D02*
D03*
X389764D02*
D03*
X275590Y596063D02*
D03*
X252756Y605905D02*
D03*
X261811Y593701D02*
D03*
X398819D02*
D03*
Y598032D02*
D03*
D30*
X117795Y473819D02*
D03*
Y537992D02*
D03*
X671969Y538779D02*
D03*
Y474606D02*
D03*
X427106Y327264D02*
D03*
X362933D02*
D03*
D31*
X674409Y324803D02*
D03*
Y687008D02*
D03*
X115354D02*
D03*
Y324803D02*
D03*
D32*
X628740Y413878D02*
D03*
X601968D02*
D03*
D33*
X157205Y505905D02*
D03*
Y529528D02*
D03*
X138976D02*
D03*
Y505905D02*
D03*
X157205Y482283D02*
D03*
X138976D02*
D03*
X157205Y517717D02*
D03*
X138976D02*
D03*
X157205Y494095D02*
D03*
X138976D02*
D03*
X632559Y506693D02*
D03*
Y483071D02*
D03*
X650787D02*
D03*
Y506693D02*
D03*
X632559Y530315D02*
D03*
X650787D02*
D03*
X632559Y494882D02*
D03*
X650787D02*
D03*
X632559Y518504D02*
D03*
X650787D02*
D03*
D34*
X153543Y389606D02*
D03*
Y399606D02*
D03*
X183071Y389606D02*
D03*
Y399606D02*
D03*
X132283Y380157D02*
D03*
Y390158D02*
D03*
Y400157D02*
D03*
D35*
X394882Y348425D02*
D03*
X371161D02*
D03*
X418602D02*
D03*
X383071D02*
D03*
X406791D02*
D03*
D36*
X246457Y664468D02*
D03*
Y657579D02*
D03*
X543701Y657185D02*
D03*
Y664075D02*
D03*
X553543Y657185D02*
D03*
Y664075D02*
D03*
X543701Y540059D02*
D03*
Y533169D02*
D03*
X533858Y540059D02*
D03*
Y533169D02*
D03*
X523622Y540059D02*
D03*
Y533169D02*
D03*
X513779Y657185D02*
D03*
Y664075D02*
D03*
X523622Y657185D02*
D03*
Y664075D02*
D03*
X405118Y657972D02*
D03*
Y664862D02*
D03*
X266142Y657579D02*
D03*
Y664468D02*
D03*
X415354Y657972D02*
D03*
Y664862D02*
D03*
X276378Y657579D02*
D03*
Y664468D02*
D03*
X405118Y538091D02*
D03*
Y531201D02*
D03*
X266535Y538484D02*
D03*
Y531595D02*
D03*
X395669Y538091D02*
D03*
Y531201D02*
D03*
X256299Y538484D02*
D03*
Y531595D02*
D03*
X385433Y538091D02*
D03*
Y531201D02*
D03*
X246457Y538484D02*
D03*
Y531595D02*
D03*
X375197Y657579D02*
D03*
Y664468D02*
D03*
X236221Y657579D02*
D03*
Y664468D02*
D03*
X385433Y657972D02*
D03*
Y664862D02*
D03*
D37*
X230413Y394508D02*
D03*
Y389508D02*
D03*
Y384508D02*
D03*
Y379508D02*
D03*
X208957Y394508D02*
D03*
Y389508D02*
D03*
Y384508D02*
D03*
Y379508D02*
D03*
D38*
X521457Y587894D02*
D03*
Y590453D02*
D03*
Y593012D02*
D03*
Y595571D02*
D03*
Y598130D02*
D03*
Y600689D02*
D03*
Y603248D02*
D03*
Y605807D02*
D03*
X544685Y587894D02*
D03*
Y590453D02*
D03*
Y593012D02*
D03*
Y595571D02*
D03*
Y598130D02*
D03*
Y600689D02*
D03*
Y603248D02*
D03*
Y605807D02*
D03*
X383661Y587894D02*
D03*
Y590453D02*
D03*
Y593012D02*
D03*
Y595571D02*
D03*
Y598130D02*
D03*
Y600689D02*
D03*
Y603248D02*
D03*
Y605807D02*
D03*
X406890Y587894D02*
D03*
Y590453D02*
D03*
Y593012D02*
D03*
Y595571D02*
D03*
Y598130D02*
D03*
Y600689D02*
D03*
Y603248D02*
D03*
Y605807D02*
D03*
X245866Y587894D02*
D03*
Y590453D02*
D03*
Y593012D02*
D03*
Y595571D02*
D03*
Y598130D02*
D03*
Y600689D02*
D03*
Y603248D02*
D03*
Y605807D02*
D03*
X269094Y587894D02*
D03*
Y590453D02*
D03*
Y593012D02*
D03*
Y595571D02*
D03*
Y598130D02*
D03*
Y600689D02*
D03*
Y603248D02*
D03*
Y605807D02*
D03*
D39*
X163386Y390256D02*
D03*
Y384547D02*
D03*
D40*
X173228Y389862D02*
D03*
Y384154D02*
D03*
D41*
X251476Y394488D02*
D03*
X245374D02*
D03*
D42*
X197638Y400689D02*
D03*
Y394587D02*
D03*
D43*
X250984Y384646D02*
D03*
X245079D02*
D03*
M02*
