G04*
G04 #@! TF.GenerationSoftware,Altium Limited,Altium Designer,18.1.11 (251)*
G04*
G04 Layer_Color=16711935*
%FSLAX25Y25*%
%MOIN*%
G70*
G01*
G75*
%ADD29R,0.05131X0.05131*%
%ADD30C,0.05131*%
%ADD31C,0.06304*%
%ADD32R,0.06304X0.06304*%
%ADD33C,0.07099*%
%ADD34C,0.24422*%
%ADD35C,0.03162*%
D29*
X215118Y161417D02*
D03*
X99843Y131417D02*
D03*
X202480D02*
D03*
D30*
X225118Y161417D02*
D03*
X235118D02*
D03*
X245118D02*
D03*
X255118D02*
D03*
X265118D02*
D03*
X275118D02*
D03*
X285118D02*
D03*
X295118D02*
D03*
X305118D02*
D03*
X215118Y131417D02*
D03*
X225118D02*
D03*
X235118D02*
D03*
X245118D02*
D03*
X255118D02*
D03*
X265118D02*
D03*
X275118D02*
D03*
X285118D02*
D03*
X295118D02*
D03*
X305118D02*
D03*
X9843Y161417D02*
D03*
X19842D02*
D03*
X29842D02*
D03*
X39843D02*
D03*
X49843D02*
D03*
X59842D02*
D03*
X69842D02*
D03*
X79843D02*
D03*
X89842D02*
D03*
X99843D02*
D03*
X9843Y131417D02*
D03*
X19842D02*
D03*
X29842D02*
D03*
X39843D02*
D03*
X49843D02*
D03*
X59842D02*
D03*
X69842D02*
D03*
X79843D02*
D03*
X89842D02*
D03*
X23622Y62205D02*
D03*
X33622D02*
D03*
X57638D02*
D03*
X47638D02*
D03*
X72047D02*
D03*
X82047D02*
D03*
X112480Y161417D02*
D03*
X122480D02*
D03*
X132480D02*
D03*
X142480D02*
D03*
X152480D02*
D03*
X162480D02*
D03*
X172480D02*
D03*
X182480D02*
D03*
X192480D02*
D03*
X202480D02*
D03*
X112480Y131417D02*
D03*
X122480D02*
D03*
X132480D02*
D03*
X142480D02*
D03*
X152480D02*
D03*
X162480D02*
D03*
X172480D02*
D03*
X182480D02*
D03*
X192480D02*
D03*
D31*
X108164Y11811D02*
D03*
X118164D02*
D03*
X128164D02*
D03*
X138164D02*
D03*
X148164D02*
D03*
X158164D02*
D03*
X168164D02*
D03*
X178164D02*
D03*
X188164D02*
D03*
D32*
X198164D02*
D03*
D33*
X86693D02*
D03*
X76693D02*
D03*
X46693D02*
D03*
X66693D02*
D03*
X56693D02*
D03*
D34*
X15748Y15748D02*
D03*
Y181102D02*
D03*
X299213D02*
D03*
Y15748D02*
D03*
D35*
X297638Y98819D02*
D03*
X200394Y81102D02*
D03*
X235039Y121260D02*
D03*
X242913Y116535D02*
D03*
X235827Y90492D02*
D03*
Y95492D02*
D03*
Y100492D02*
D03*
Y105492D02*
D03*
Y110630D02*
D03*
X81890Y89764D02*
D03*
X168110Y33071D02*
D03*
X150394Y21260D02*
D03*
X98573Y99065D02*
D03*
X69685Y116929D02*
D03*
Y83858D02*
D03*
X172441Y117323D02*
D03*
Y84252D02*
D03*
X274803Y116929D02*
D03*
Y83858D02*
D03*
X90158Y89764D02*
D03*
X156693Y105512D02*
D03*
X54055Y106968D02*
D03*
X165354Y100394D02*
D03*
X164961Y95276D02*
D03*
X183465Y90551D02*
D03*
X208661Y87008D02*
D03*
X266142Y95669D02*
D03*
X150000Y48425D02*
D03*
Y53740D02*
D03*
Y59055D02*
D03*
X201181Y53937D02*
D03*
Y58793D02*
D03*
Y63648D02*
D03*
X266870Y90492D02*
D03*
X194882Y111417D02*
D03*
M02*
