G04*
G04 #@! TF.GenerationSoftware,Altium Limited,Altium Designer,19.1.8 (144)*
G04*
G04 Layer_Color=32896*
%FSLAX25Y25*%
%MOIN*%
G70*
G01*
G75*
%ADD11C,0.01000*%
%ADD12C,0.00394*%
%ADD13R,0.40158X0.15945*%
%ADD14C,0.00197*%
%ADD50C,0.00984*%
%ADD51C,0.02362*%
%ADD52C,0.00787*%
D11*
X150264Y15745D02*
X155512D01*
Y11810D01*
X152888D01*
X155512D01*
Y7874D01*
X147640D02*
Y13122D01*
X145017Y15745D01*
X142393Y13122D01*
Y7874D01*
Y11810D01*
X147640D01*
X139769Y7874D02*
Y15745D01*
X135833D01*
X134521Y14434D01*
Y11810D01*
X135833Y10498D01*
X139769D01*
X137145D02*
X134521Y7874D01*
X131897D02*
Y13122D01*
X129274Y15745D01*
X126650Y13122D01*
Y7874D01*
Y11810D01*
X131897D01*
X124026Y15745D02*
X118778D01*
Y14434D01*
X124026Y9186D01*
Y7874D01*
X118778D01*
X108283Y15745D02*
Y7874D01*
X104347D01*
X103035Y9186D01*
Y10498D01*
X104347Y11810D01*
X108283D01*
X104347D01*
X103035Y13122D01*
Y14434D01*
X104347Y15745D01*
X108283D01*
X96476D02*
X99099D01*
X100411Y14434D01*
Y9186D01*
X99099Y7874D01*
X96476D01*
X95164Y9186D01*
Y14434D01*
X96476Y15745D01*
X92540Y7874D02*
Y15745D01*
X88604D01*
X87292Y14434D01*
Y11810D01*
X88604Y10498D01*
X92540D01*
X89916D02*
X87292Y7874D01*
X79421Y14434D02*
X80733Y15745D01*
X83357D01*
X84668Y14434D01*
Y9186D01*
X83357Y7874D01*
X80733D01*
X79421Y9186D01*
Y11810D01*
X82045D01*
X76797Y15745D02*
Y7874D01*
Y11810D01*
X71549D01*
Y15745D01*
Y7874D01*
X63678Y15745D02*
X68925D01*
Y7874D01*
X63678D01*
X68925Y11810D02*
X66302D01*
X61054Y15745D02*
X58430D01*
X59742D01*
Y7874D01*
X61054D01*
X58430D01*
X182023Y251119D02*
X184023D01*
X183023D01*
Y246121D01*
X184023Y245121D01*
X185022D01*
X186022Y246121D01*
X180024Y245121D02*
Y251119D01*
X177025D01*
X176025Y250120D01*
Y248120D01*
X177025Y247121D01*
X180024D01*
X174026Y250120D02*
X173026Y251119D01*
X171027D01*
X170027Y250120D01*
Y249120D01*
X171027Y248120D01*
X172027D01*
X171027D01*
X170027Y247121D01*
Y246121D01*
X171027Y245121D01*
X173026D01*
X174026Y246121D01*
X211544Y251111D02*
X213543D01*
X212544D01*
Y246113D01*
X213543Y245113D01*
X214543D01*
X215543Y246113D01*
X209544Y245113D02*
Y251111D01*
X206545D01*
X205546Y250112D01*
Y248112D01*
X206545Y247113D01*
X209544D01*
X199548Y245113D02*
X203546D01*
X199548Y249112D01*
Y250112D01*
X200547Y251111D01*
X202547D01*
X203546Y250112D01*
X158800Y251530D02*
X160800D01*
X159800D01*
Y246532D01*
X160800Y245532D01*
X161800D01*
X162799Y246532D01*
X156801Y245532D02*
Y251530D01*
X153802D01*
X152802Y250531D01*
Y248531D01*
X153802Y247532D01*
X156801D01*
X150803Y245532D02*
X148804D01*
X149803D01*
Y251530D01*
X150803Y250531D01*
X730664Y439961D02*
X732664D01*
X731664D01*
Y434963D01*
X732664Y433963D01*
X733663D01*
X734663Y434963D01*
X724666Y433963D02*
X728665D01*
X724666Y437962D01*
Y438961D01*
X725666Y439961D01*
X727665D01*
X728665Y438961D01*
X5009Y436827D02*
X7008D01*
X6009D01*
Y431829D01*
X7008Y430829D01*
X8008D01*
X9008Y431829D01*
X3009Y430829D02*
X1010D01*
X2010D01*
Y436827D01*
X3009Y435827D01*
X364505Y739069D02*
X366505D01*
X365505D01*
Y734071D01*
X366505Y733071D01*
X367504D01*
X368504Y734071D01*
X362506Y738069D02*
X361506Y739069D01*
X359507D01*
X358507Y738069D01*
Y737070D01*
X359507Y736070D01*
X360507D01*
X359507D01*
X358507Y735070D01*
Y734071D01*
X359507Y733071D01*
X361506D01*
X362506Y734071D01*
X246063Y494095D02*
Y500093D01*
X243064D01*
X242064Y499093D01*
Y497093D01*
X243064Y496094D01*
X246063D01*
X244064D02*
X242064Y494095D01*
X240065D02*
X238066D01*
X239065D01*
Y500093D01*
X240065Y499093D01*
X236441Y245209D02*
Y240211D01*
X235441Y239211D01*
X233442D01*
X232442Y240211D01*
Y245209D01*
X230443Y244209D02*
X229443Y245209D01*
X227444D01*
X226444Y244209D01*
Y243210D01*
X227444Y242210D01*
X226444Y241210D01*
Y240211D01*
X227444Y239211D01*
X229443D01*
X230443Y240211D01*
Y241210D01*
X229443Y242210D01*
X230443Y243210D01*
Y244209D01*
X229443Y242210D02*
X227444D01*
X577652Y422047D02*
X572653D01*
X571654Y423047D01*
Y425046D01*
X572653Y426046D01*
X577652D01*
Y432044D02*
Y428045D01*
X574653D01*
X575652Y430045D01*
Y431044D01*
X574653Y432044D01*
X572653D01*
X571654Y431044D01*
Y429045D01*
X572653Y428045D01*
X411904Y422835D02*
X406905D01*
X405905Y423834D01*
Y425834D01*
X406905Y426833D01*
X411904D01*
X405905Y432831D02*
Y428833D01*
X409904Y432831D01*
X410904D01*
X411904Y431832D01*
Y429832D01*
X410904Y428833D01*
X253242Y427165D02*
X248244D01*
X247244Y428165D01*
Y430164D01*
X248244Y431164D01*
X253242D01*
X247244Y433163D02*
Y435163D01*
Y434163D01*
X253242D01*
X252242Y433163D01*
X186614Y217717D02*
X180616D01*
Y214718D01*
X181616Y213718D01*
X183615D01*
X184615Y214718D01*
Y217717D01*
Y215717D02*
X186614Y213718D01*
Y207720D02*
Y211719D01*
X182615Y207720D01*
X181616D01*
X180616Y208719D01*
Y210719D01*
X181616Y211719D01*
X180616Y201722D02*
Y205720D01*
X183615D01*
X182615Y203721D01*
Y202721D01*
X183615Y201722D01*
X185615D01*
X186614Y202721D01*
Y204721D01*
X185615Y205720D01*
X196850Y217323D02*
X190852D01*
Y214324D01*
X191852Y213324D01*
X193851D01*
X194851Y214324D01*
Y217323D01*
Y215323D02*
X196850Y213324D01*
Y207326D02*
Y211325D01*
X192852Y207326D01*
X191852D01*
X190852Y208326D01*
Y210325D01*
X191852Y211325D01*
X196850Y202328D02*
X190852D01*
X193851Y205327D01*
Y201328D01*
X287402Y238976D02*
X281403D01*
Y235977D01*
X282403Y234978D01*
X284402D01*
X285402Y235977D01*
Y238976D01*
Y236977D02*
X287402Y234978D01*
Y228980D02*
Y232978D01*
X283403Y228980D01*
X282403D01*
X281403Y229979D01*
Y231979D01*
X282403Y232978D01*
Y226980D02*
X281403Y225981D01*
Y223981D01*
X282403Y222982D01*
X283403D01*
X284402Y223981D01*
Y224981D01*
Y223981D01*
X285402Y222982D01*
X286402D01*
X287402Y223981D01*
Y225981D01*
X286402Y226980D01*
X220866Y227953D02*
X214868D01*
Y224954D01*
X215868Y223954D01*
X217867D01*
X218867Y224954D01*
Y227953D01*
Y225953D02*
X220866Y223954D01*
Y217956D02*
Y221955D01*
X216867Y217956D01*
X215868D01*
X214868Y218956D01*
Y220955D01*
X215868Y221955D01*
X220866Y211958D02*
Y215957D01*
X216867Y211958D01*
X215868D01*
X214868Y212958D01*
Y214957D01*
X215868Y215957D01*
X678740Y495669D02*
Y501667D01*
X675741D01*
X674741Y500668D01*
Y498668D01*
X675741Y497669D01*
X678740D01*
X676741D02*
X674741Y495669D01*
X668743D02*
X672742D01*
X668743Y499668D01*
Y500668D01*
X669743Y501667D01*
X671742D01*
X672742Y500668D01*
X666744Y495669D02*
X664745D01*
X665744D01*
Y501667D01*
X666744Y500668D01*
X659842Y495669D02*
Y501667D01*
X656844D01*
X655844Y500668D01*
Y498668D01*
X656844Y497669D01*
X659842D01*
X657843D02*
X655844Y495669D01*
X649846D02*
X653844D01*
X649846Y499668D01*
Y500668D01*
X650845Y501667D01*
X652845D01*
X653844Y500668D01*
X647846D02*
X646847Y501667D01*
X644847D01*
X643848Y500668D01*
Y496669D01*
X644847Y495669D01*
X646847D01*
X647846Y496669D01*
Y500668D01*
X638976Y495669D02*
Y501667D01*
X635977D01*
X634978Y500668D01*
Y498668D01*
X635977Y497669D01*
X638976D01*
X636977D02*
X634978Y495669D01*
X632978D02*
X630979D01*
X631979D01*
Y501667D01*
X632978Y500668D01*
X627980Y496669D02*
X626980Y495669D01*
X624981D01*
X623981Y496669D01*
Y500668D01*
X624981Y501667D01*
X626980D01*
X627980Y500668D01*
Y499668D01*
X626980Y498668D01*
X623981D01*
X619291Y495669D02*
Y501667D01*
X616292D01*
X615293Y500668D01*
Y498668D01*
X616292Y497669D01*
X619291D01*
X617292D02*
X615293Y495669D01*
X613293D02*
X611294D01*
X612294D01*
Y501667D01*
X613293Y500668D01*
X608295D02*
X607295Y501667D01*
X605296D01*
X604296Y500668D01*
Y499668D01*
X605296Y498668D01*
X604296Y497669D01*
Y496669D01*
X605296Y495669D01*
X607295D01*
X608295Y496669D01*
Y497669D01*
X607295Y498668D01*
X608295Y499668D01*
Y500668D01*
X607295Y498668D02*
X605296D01*
X598032Y495276D02*
Y501274D01*
X595033D01*
X594033Y500274D01*
Y498275D01*
X595033Y497275D01*
X598032D01*
X596032D02*
X594033Y495276D01*
X592033D02*
X590034D01*
X591034D01*
Y501274D01*
X592033Y500274D01*
X587035Y501274D02*
X583036D01*
Y500274D01*
X587035Y496275D01*
Y495276D01*
X577953Y495669D02*
Y501667D01*
X574954D01*
X573954Y500668D01*
Y498668D01*
X574954Y497669D01*
X577953D01*
X575953D02*
X573954Y495669D01*
X571955D02*
X569955D01*
X570955D01*
Y501667D01*
X571955Y500668D01*
X562958Y501667D02*
X564957Y500668D01*
X566956Y498668D01*
Y496669D01*
X565957Y495669D01*
X563957D01*
X562958Y496669D01*
Y497669D01*
X563957Y498668D01*
X566956D01*
X557480Y495276D02*
Y501274D01*
X554481D01*
X553482Y500274D01*
Y498275D01*
X554481Y497275D01*
X557480D01*
X555481D02*
X553482Y495276D01*
X551482D02*
X549483D01*
X550483D01*
Y501274D01*
X551482Y500274D01*
X542485Y501274D02*
X546484D01*
Y498275D01*
X544485Y499274D01*
X543485D01*
X542485Y498275D01*
Y496275D01*
X543485Y495276D01*
X545484D01*
X546484Y496275D01*
X341339Y494882D02*
Y500880D01*
X338340D01*
X337340Y499880D01*
Y497881D01*
X338340Y496881D01*
X341339D01*
X339339D02*
X337340Y494882D01*
X335340D02*
X333341D01*
X334341D01*
Y500880D01*
X335340Y499880D01*
X327343Y494882D02*
Y500880D01*
X330342Y497881D01*
X326343D01*
X127165Y494095D02*
Y500093D01*
X124166D01*
X123167Y499093D01*
Y497093D01*
X124166Y496094D01*
X127165D01*
X125166D02*
X123167Y494095D01*
X121167D02*
X119168D01*
X120168D01*
Y500093D01*
X121167Y499093D01*
X116169D02*
X115169Y500093D01*
X113170D01*
X112170Y499093D01*
Y498093D01*
X113170Y497093D01*
X114170D01*
X113170D01*
X112170Y496094D01*
Y495094D01*
X113170Y494095D01*
X115169D01*
X116169Y495094D01*
X362598Y494882D02*
Y500880D01*
X359599D01*
X358600Y499880D01*
Y497881D01*
X359599Y496881D01*
X362598D01*
X360599D02*
X358600Y494882D01*
X356600D02*
X354601D01*
X355601D01*
Y500880D01*
X356600Y499880D01*
X347603Y494882D02*
X351602D01*
X347603Y498881D01*
Y499880D01*
X348603Y500880D01*
X350602D01*
X351602Y499880D01*
X146850Y494095D02*
Y500093D01*
X143851D01*
X142852Y499093D01*
Y497093D01*
X143851Y496094D01*
X146850D01*
X144851D02*
X142852Y494095D01*
X140852D02*
X138853D01*
X139853D01*
Y500093D01*
X140852Y499093D01*
X135854Y494095D02*
X133855D01*
X134854D01*
Y500093D01*
X135854Y499093D01*
X383465Y495177D02*
Y501175D01*
X380466D01*
X379466Y500176D01*
Y498176D01*
X380466Y497177D01*
X383465D01*
X381465D02*
X379466Y495177D01*
X377467D02*
X375467D01*
X376467D01*
Y501175D01*
X377467Y500176D01*
X372468D02*
X371468Y501175D01*
X369469D01*
X368469Y500176D01*
Y496177D01*
X369469Y495177D01*
X371468D01*
X372468Y496177D01*
Y500176D01*
X165354Y494095D02*
Y500093D01*
X162355D01*
X161356Y499093D01*
Y497093D01*
X162355Y496094D01*
X165354D01*
X163355D02*
X161356Y494095D01*
X159356Y495094D02*
X158357Y494095D01*
X156357D01*
X155358Y495094D01*
Y499093D01*
X156357Y500093D01*
X158357D01*
X159356Y499093D01*
Y498093D01*
X158357Y497093D01*
X155358D01*
X400000Y495276D02*
Y501274D01*
X397001D01*
X396001Y500274D01*
Y498275D01*
X397001Y497275D01*
X400000D01*
X398001D02*
X396001Y495276D01*
X394002Y500274D02*
X393002Y501274D01*
X391003D01*
X390003Y500274D01*
Y499274D01*
X391003Y498275D01*
X390003Y497275D01*
Y496275D01*
X391003Y495276D01*
X393002D01*
X394002Y496275D01*
Y497275D01*
X393002Y498275D01*
X394002Y499274D01*
Y500274D01*
X393002Y498275D02*
X391003D01*
X185039Y494095D02*
Y500093D01*
X182040D01*
X181041Y499093D01*
Y497093D01*
X182040Y496094D01*
X185039D01*
X183040D02*
X181041Y494095D01*
X179041Y500093D02*
X175043D01*
Y499093D01*
X179041Y495094D01*
Y494095D01*
X418898Y495276D02*
Y501274D01*
X415899D01*
X414899Y500274D01*
Y498275D01*
X415899Y497275D01*
X418898D01*
X416898D02*
X414899Y495276D01*
X408901Y501274D02*
X410900Y500274D01*
X412900Y498275D01*
Y496275D01*
X411900Y495276D01*
X409901D01*
X408901Y496275D01*
Y497275D01*
X409901Y498275D01*
X412900D01*
X207874Y494095D02*
Y500093D01*
X204875D01*
X203875Y499093D01*
Y497093D01*
X204875Y496094D01*
X207874D01*
X205875D02*
X203875Y494095D01*
X197877Y500093D02*
X201876D01*
Y497093D01*
X199877Y498093D01*
X198877D01*
X197877Y497093D01*
Y495094D01*
X198877Y494095D01*
X200876D01*
X201876Y495094D01*
X439764Y494980D02*
Y500978D01*
X436765D01*
X435765Y499979D01*
Y497979D01*
X436765Y496980D01*
X439764D01*
X437764D02*
X435765Y494980D01*
X430767D02*
Y500978D01*
X433766Y497979D01*
X429767D01*
X227559Y494095D02*
Y500093D01*
X224560D01*
X223560Y499093D01*
Y497093D01*
X224560Y496094D01*
X227559D01*
X225560D02*
X223560Y494095D01*
X221561Y499093D02*
X220561Y500093D01*
X218562D01*
X217562Y499093D01*
Y498093D01*
X218562Y497093D01*
X219562D01*
X218562D01*
X217562Y496094D01*
Y495094D01*
X218562Y494095D01*
X220561D01*
X221561Y495094D01*
X461811Y495276D02*
Y501274D01*
X458812D01*
X457812Y500274D01*
Y498275D01*
X458812Y497275D01*
X461811D01*
X459812D02*
X457812Y495276D01*
X451814D02*
X455813D01*
X451814Y499274D01*
Y500274D01*
X452814Y501274D01*
X454813D01*
X455813Y500274D01*
X272561Y234190D02*
X271561Y235190D01*
Y237189D01*
X272561Y238189D01*
X276559D01*
X277559Y237189D01*
Y235190D01*
X276559Y234190D01*
X277559Y232191D02*
Y230192D01*
Y231191D01*
X271561D01*
X272561Y232191D01*
D12*
X611909Y131791D02*
Y156398D01*
X670768Y131693D02*
Y156496D01*
X611909Y179134D02*
X670768D01*
X611909Y167224D02*
Y179134D01*
X670768Y167224D02*
Y179134D01*
X566732Y411614D02*
G03*
X566732Y411614I-1969J0D01*
G01*
X400984Y412795D02*
G03*
X400984Y412795I-1969J0D01*
G01*
X242323Y414764D02*
G03*
X242323Y414764I-1969J0D01*
G01*
X246457Y230709D02*
G03*
X246457Y230709I-1969J0D01*
G01*
X647638Y481595D02*
Y490059D01*
X653150Y481595D02*
Y490059D01*
X647638D02*
X653150D01*
X647638Y481595D02*
X653150D01*
X627953D02*
Y490059D01*
X633465Y481595D02*
Y490059D01*
X627953D02*
X633465D01*
X627953Y481595D02*
X633465D01*
X608661D02*
Y490059D01*
X614173Y481595D02*
Y490059D01*
X608661D02*
X614173D01*
X608661Y481595D02*
X614173D01*
X588189D02*
Y490059D01*
X593701Y481595D02*
Y490059D01*
X588189D02*
X593701D01*
X588189Y481595D02*
X593701D01*
X568504D02*
Y490059D01*
X574016Y481595D02*
Y490059D01*
X568504D02*
X574016D01*
X568504Y481595D02*
X574016D01*
X546850Y481201D02*
Y489665D01*
X552362Y481201D02*
Y489665D01*
X546850D02*
X552362D01*
X546850Y481201D02*
X552362D01*
X668898Y481595D02*
Y490059D01*
X674409Y481595D02*
Y490059D01*
X668898D02*
X674409D01*
X668898Y481595D02*
X674409D01*
X548228Y408071D02*
X568307D01*
X548228Y425787D02*
X568307D01*
Y408071D02*
Y425787D01*
X548228Y408071D02*
Y425787D01*
X372047Y481201D02*
Y489665D01*
X377559Y481201D02*
Y489665D01*
X372047D02*
X377559D01*
X372047Y481201D02*
X377559D01*
X392126D02*
Y489665D01*
X397638Y481201D02*
Y489665D01*
X392126D02*
X397638D01*
X392126Y481201D02*
X397638D01*
X411811D02*
Y489665D01*
X417323Y481201D02*
Y489665D01*
X411811D02*
X417323D01*
X411811Y481201D02*
X417323D01*
X351969D02*
Y489665D01*
X357480Y481201D02*
Y489665D01*
X351969D02*
X357480D01*
X351969Y481201D02*
X357480D01*
X331496D02*
Y489665D01*
X337008Y481201D02*
Y489665D01*
X331496D02*
X337008D01*
X331496Y481201D02*
X337008D01*
X432283Y481299D02*
Y489764D01*
X437795Y481299D02*
Y489764D01*
X432283D02*
X437795D01*
X432283Y481299D02*
X437795D01*
X453937Y481201D02*
Y489665D01*
X459449Y481201D02*
Y489665D01*
X453937D02*
X459449D01*
X453937Y481201D02*
X459449D01*
X382480Y409252D02*
X402559D01*
X382480Y426968D02*
X402559D01*
Y409252D02*
Y426968D01*
X382480Y409252D02*
Y426968D01*
X223819Y411221D02*
X243898D01*
X223819Y428937D02*
X243898D01*
Y411221D02*
Y428937D01*
X223819Y411221D02*
Y428937D01*
X117323Y481201D02*
Y489665D01*
X122835Y481201D02*
Y489665D01*
X117323D02*
X122835D01*
X117323Y481201D02*
X122835D01*
X137402D02*
Y489665D01*
X142913Y481201D02*
Y489665D01*
X137402D02*
X142913D01*
X137402Y481201D02*
X142913D01*
X157480D02*
Y489665D01*
X162992Y481201D02*
Y489665D01*
X157480D02*
X162992D01*
X157480Y481201D02*
X162992D01*
X178347D02*
Y489665D01*
X183858Y481201D02*
Y489665D01*
X178347D02*
X183858D01*
X178347Y481201D02*
X183858D01*
X200000D02*
Y489665D01*
X205512Y481201D02*
Y489665D01*
X200000D02*
X205512D01*
X200000Y481201D02*
X205512D01*
X219685D02*
Y489665D01*
X225197Y481201D02*
Y489665D01*
X219685D02*
X225197D01*
X219685Y481201D02*
X225197D01*
X239370D02*
X244882D01*
X239370Y489665D02*
X244882D01*
Y481201D02*
Y489665D01*
X239370Y481201D02*
Y489665D01*
X277067Y242618D02*
Y249508D01*
X273327Y242618D02*
Y249508D01*
Y242618D02*
X277067D01*
X273327Y249508D02*
X277067D01*
X282874Y242717D02*
X286417D01*
X282874Y249410D02*
X286417D01*
Y242717D02*
Y249410D01*
X282874Y242717D02*
Y249410D01*
X182087Y221457D02*
X185630D01*
X182087Y228150D02*
X185630D01*
Y221457D02*
Y228150D01*
X182087Y221457D02*
Y228150D01*
X216339Y231693D02*
X219882D01*
X216339Y238386D02*
X219882D01*
Y231693D02*
Y238386D01*
X216339Y231693D02*
Y238386D01*
X191732Y220866D02*
X195669D01*
X191732Y227953D02*
X195669D01*
Y220866D02*
Y227953D01*
X191732Y220866D02*
Y227953D01*
X232283Y214567D02*
X248031D01*
X232283Y234252D02*
X248031D01*
X232283Y214567D02*
Y234252D01*
X248031Y214567D02*
Y234252D01*
X648425Y485827D02*
X652362D01*
X650394Y483858D02*
Y487795D01*
X628740Y485827D02*
X632677D01*
X630709Y483858D02*
Y487795D01*
X609449Y485827D02*
X613386D01*
X611417Y483858D02*
Y487795D01*
X588976Y485827D02*
X592913D01*
X590945Y483858D02*
Y487795D01*
X569291Y485827D02*
X573228D01*
X571260Y483858D02*
Y487795D01*
X547638Y485433D02*
X551575D01*
X549606Y483465D02*
Y487402D01*
X669685Y485827D02*
X673622D01*
X671654Y483858D02*
Y487795D01*
X558268Y414961D02*
Y418898D01*
X556299Y416929D02*
X560236D01*
X372835Y485433D02*
X376772D01*
X374803Y483465D02*
Y487402D01*
X392913Y485433D02*
X396850D01*
X394882Y483465D02*
Y487402D01*
X412598Y485433D02*
X416535D01*
X414567Y483465D02*
Y487402D01*
X352756Y485433D02*
X356693D01*
X354724Y483465D02*
Y487402D01*
X332283Y485433D02*
X336221D01*
X334252Y483465D02*
Y487402D01*
X433071Y485532D02*
X437008D01*
X435039Y483563D02*
Y487500D01*
X454724Y485433D02*
X458661D01*
X456693Y483465D02*
Y487402D01*
X392520Y416142D02*
Y420079D01*
X390551Y418110D02*
X394488D01*
X233858D02*
Y422047D01*
X231890Y420079D02*
X235827D01*
X118110Y485433D02*
X122047D01*
X120079Y483465D02*
Y487402D01*
X138189Y485433D02*
X142126D01*
X140157Y483465D02*
Y487402D01*
X158268Y485433D02*
X162205D01*
X160236Y483465D02*
Y487402D01*
X179134Y485433D02*
X183071D01*
X181102Y483465D02*
Y487402D01*
X200787Y485433D02*
X204724D01*
X202756Y483465D02*
Y487402D01*
X220472Y485433D02*
X224410D01*
X222441Y483465D02*
Y487402D01*
X242126Y483465D02*
Y487402D01*
X240158Y485433D02*
X244094D01*
X273327Y246063D02*
X277067D01*
X275197Y244193D02*
Y247933D01*
X284646Y244291D02*
Y247835D01*
X282874Y246063D02*
X286417D01*
X183858Y223031D02*
Y226575D01*
X182087Y224803D02*
X185630D01*
X218110Y233268D02*
Y236811D01*
X216339Y235039D02*
X219882D01*
X193701Y222441D02*
Y226378D01*
X191732Y224410D02*
X195669D01*
X240158Y222441D02*
Y226378D01*
X238189Y224410D02*
X242126D01*
D13*
X650591Y140256D02*
D03*
D14*
X646654Y479134D02*
Y492520D01*
X654134Y479134D02*
Y492520D01*
X646654D02*
X654134D01*
X646654Y479134D02*
X654134D01*
X626968D02*
Y492520D01*
X634449Y479134D02*
Y492520D01*
X626968D02*
X634449D01*
X626968Y479134D02*
X634449D01*
X607677D02*
Y492520D01*
X615158Y479134D02*
Y492520D01*
X607677D02*
X615158D01*
X607677Y479134D02*
X615158D01*
X587205D02*
Y492520D01*
X594685Y479134D02*
Y492520D01*
X587205D02*
X594685D01*
X587205Y479134D02*
X594685D01*
X567520D02*
Y492520D01*
X575000Y479134D02*
Y492520D01*
X567520D02*
X575000D01*
X567520Y479134D02*
X575000D01*
X545866Y478740D02*
Y492126D01*
X553346Y478740D02*
Y492126D01*
X545866D02*
X553346D01*
X545866Y478740D02*
X553346D01*
X667913Y479134D02*
Y492520D01*
X675394Y479134D02*
Y492520D01*
X667913D02*
X675394D01*
X667913Y479134D02*
X675394D01*
X547244Y401575D02*
X569291D01*
X547244Y432283D02*
X569291D01*
Y401575D02*
Y432283D01*
X547244Y401575D02*
Y432283D01*
X371063Y478740D02*
Y492126D01*
X378543Y478740D02*
Y492126D01*
X371063D02*
X378543D01*
X371063Y478740D02*
X378543D01*
X391142D02*
Y492126D01*
X398622Y478740D02*
Y492126D01*
X391142D02*
X398622D01*
X391142Y478740D02*
X398622D01*
X410827D02*
Y492126D01*
X418307Y478740D02*
Y492126D01*
X410827D02*
X418307D01*
X410827Y478740D02*
X418307D01*
X350984D02*
Y492126D01*
X358465Y478740D02*
Y492126D01*
X350984D02*
X358465D01*
X350984Y478740D02*
X358465D01*
X330512D02*
Y492126D01*
X337992Y478740D02*
Y492126D01*
X330512D02*
X337992D01*
X330512Y478740D02*
X337992D01*
X431299Y478839D02*
Y492224D01*
X438779Y478839D02*
Y492224D01*
X431299D02*
X438779D01*
X431299Y478839D02*
X438779D01*
X452953Y478740D02*
Y492126D01*
X460433Y478740D02*
Y492126D01*
X452953D02*
X460433D01*
X452953Y478740D02*
X460433D01*
X381496Y402756D02*
X403543D01*
X381496Y433465D02*
X403543D01*
Y402756D02*
Y433465D01*
X381496Y402756D02*
Y433465D01*
X222835Y404724D02*
X244882D01*
X222835Y435433D02*
X244882D01*
Y404724D02*
Y435433D01*
X222835Y404724D02*
Y435433D01*
X116339Y478740D02*
Y492126D01*
X123819Y478740D02*
Y492126D01*
X116339D02*
X123819D01*
X116339Y478740D02*
X123819D01*
X136417D02*
Y492126D01*
X143898Y478740D02*
Y492126D01*
X136417D02*
X143898D01*
X136417Y478740D02*
X143898D01*
X156496D02*
Y492126D01*
X163976Y478740D02*
Y492126D01*
X156496D02*
X163976D01*
X156496Y478740D02*
X163976D01*
X177362D02*
Y492126D01*
X184843Y478740D02*
Y492126D01*
X177362D02*
X184843D01*
X177362Y478740D02*
X184843D01*
X199016D02*
Y492126D01*
X206496Y478740D02*
Y492126D01*
X199016D02*
X206496D01*
X199016Y478740D02*
X206496D01*
X218701D02*
Y492126D01*
X226181Y478740D02*
Y492126D01*
X218701D02*
X226181D01*
X218701Y478740D02*
X226181D01*
X238386D02*
X245866D01*
X238386Y492126D02*
X245866D01*
Y478740D02*
Y492126D01*
X238386Y478740D02*
Y492126D01*
X278150Y240158D02*
Y251969D01*
X272244Y240158D02*
Y251969D01*
Y240158D02*
X278150D01*
X272244Y251969D02*
X278150D01*
X281890Y240354D02*
X287402D01*
X281890Y251772D02*
X287402D01*
Y240354D02*
Y251772D01*
X281890Y240354D02*
Y251772D01*
X181102Y219094D02*
X186614D01*
X181102Y230512D02*
X186614D01*
Y219094D02*
Y230512D01*
X181102Y219094D02*
Y230512D01*
X215354Y229331D02*
X220866D01*
X215354Y240748D02*
X220866D01*
Y229331D02*
Y240748D01*
X215354Y229331D02*
Y240748D01*
X190748Y218504D02*
X196653D01*
X190748Y230315D02*
X196653D01*
Y218504D02*
Y230315D01*
X190748Y218504D02*
Y230315D01*
X225590Y213583D02*
X254724D01*
X225590Y235236D02*
X254724D01*
X225590Y213583D02*
Y235236D01*
X254724Y213583D02*
Y235236D01*
D50*
X570768Y405315D02*
G03*
X570768Y405315I-492J0D01*
G01*
X405020Y406496D02*
G03*
X405020Y406496I-492J0D01*
G01*
X246358Y408465D02*
G03*
X246358Y408465I-492J0D01*
G01*
X251378Y235256D02*
G03*
X251378Y235256I-492J0D01*
G01*
D51*
X565551Y413583D02*
G03*
X565551Y413583I-1181J0D01*
G01*
X399803Y414764D02*
G03*
X399803Y414764I-1181J0D01*
G01*
X241142Y416732D02*
G03*
X241142Y416732I-1181J0D01*
G01*
X243701Y230315D02*
G03*
X243701Y230315I-1181J0D01*
G01*
D52*
X548228Y409646D02*
X568307D01*
X548228Y424213D02*
X568307D01*
Y409646D02*
Y424213D01*
X548228Y409646D02*
Y424213D01*
X382480Y410827D02*
X402559D01*
X382480Y425394D02*
X402559D01*
Y410827D02*
Y425394D01*
X382480Y410827D02*
Y425394D01*
X223819Y412795D02*
X243898D01*
X223819Y427362D02*
X243898D01*
Y412795D02*
Y427362D01*
X223819Y412795D02*
Y427362D01*
X233858Y214567D02*
X246457D01*
X233858Y234252D02*
X246457D01*
X233858Y214567D02*
Y234252D01*
X246457Y214567D02*
Y234252D01*
M02*
