G04*
G04 #@! TF.GenerationSoftware,Altium Limited,Altium Designer,19.1.8 (144)*
G04*
G04 Layer_Color=255*
%FSLAX25Y25*%
%MOIN*%
G70*
G01*
G75*
%ADD12C,0.00394*%
%ADD13R,0.40158X0.15945*%
%ADD14C,0.00197*%
%ADD15C,0.01968*%
%ADD16R,0.04331X0.09449*%
%ADD17R,0.02441X0.05512*%
%ADD27C,0.03937*%
D12*
X611909Y131791D02*
Y156398D01*
X670768Y131693D02*
Y156496D01*
X611909Y179134D02*
X670768D01*
X611909Y167224D02*
Y179134D01*
X670768Y167224D02*
Y179134D01*
X566732Y411614D02*
G03*
X566732Y411614I-1969J0D01*
G01*
X400984Y412795D02*
G03*
X400984Y412795I-1969J0D01*
G01*
X242323Y414764D02*
G03*
X242323Y414764I-1969J0D01*
G01*
X246457Y230709D02*
G03*
X246457Y230709I-1969J0D01*
G01*
X647638Y481595D02*
Y490059D01*
X653150Y481595D02*
Y490059D01*
X647638D02*
X653150D01*
X647638Y481595D02*
X653150D01*
X627953D02*
Y490059D01*
X633465Y481595D02*
Y490059D01*
X627953D02*
X633465D01*
X627953Y481595D02*
X633465D01*
X608661D02*
Y490059D01*
X614173Y481595D02*
Y490059D01*
X608661D02*
X614173D01*
X608661Y481595D02*
X614173D01*
X588189D02*
Y490059D01*
X593701Y481595D02*
Y490059D01*
X588189D02*
X593701D01*
X588189Y481595D02*
X593701D01*
X568504D02*
Y490059D01*
X574016Y481595D02*
Y490059D01*
X568504D02*
X574016D01*
X568504Y481595D02*
X574016D01*
X546850Y481201D02*
Y489665D01*
X552362Y481201D02*
Y489665D01*
X546850D02*
X552362D01*
X546850Y481201D02*
X552362D01*
X668898Y481595D02*
Y490059D01*
X674409Y481595D02*
Y490059D01*
X668898D02*
X674409D01*
X668898Y481595D02*
X674409D01*
X548228Y408071D02*
X568307D01*
X548228Y425787D02*
X568307D01*
Y408071D02*
Y425787D01*
X548228Y408071D02*
Y425787D01*
X372047Y481201D02*
Y489665D01*
X377559Y481201D02*
Y489665D01*
X372047D02*
X377559D01*
X372047Y481201D02*
X377559D01*
X392126D02*
Y489665D01*
X397638Y481201D02*
Y489665D01*
X392126D02*
X397638D01*
X392126Y481201D02*
X397638D01*
X411811D02*
Y489665D01*
X417323Y481201D02*
Y489665D01*
X411811D02*
X417323D01*
X411811Y481201D02*
X417323D01*
X351969D02*
Y489665D01*
X357480Y481201D02*
Y489665D01*
X351969D02*
X357480D01*
X351969Y481201D02*
X357480D01*
X331496D02*
Y489665D01*
X337008Y481201D02*
Y489665D01*
X331496D02*
X337008D01*
X331496Y481201D02*
X337008D01*
X432283Y481299D02*
Y489764D01*
X437795Y481299D02*
Y489764D01*
X432283D02*
X437795D01*
X432283Y481299D02*
X437795D01*
X453937Y481201D02*
Y489665D01*
X459449Y481201D02*
Y489665D01*
X453937D02*
X459449D01*
X453937Y481201D02*
X459449D01*
X382480Y409252D02*
X402559D01*
X382480Y426968D02*
X402559D01*
Y409252D02*
Y426968D01*
X382480Y409252D02*
Y426968D01*
X223819Y411221D02*
X243898D01*
X223819Y428937D02*
X243898D01*
Y411221D02*
Y428937D01*
X223819Y411221D02*
Y428937D01*
X117323Y481201D02*
Y489665D01*
X122835Y481201D02*
Y489665D01*
X117323D02*
X122835D01*
X117323Y481201D02*
X122835D01*
X137402D02*
Y489665D01*
X142913Y481201D02*
Y489665D01*
X137402D02*
X142913D01*
X137402Y481201D02*
X142913D01*
X157480D02*
Y489665D01*
X162992Y481201D02*
Y489665D01*
X157480D02*
X162992D01*
X157480Y481201D02*
X162992D01*
X178347D02*
Y489665D01*
X183858Y481201D02*
Y489665D01*
X178347D02*
X183858D01*
X178347Y481201D02*
X183858D01*
X200000D02*
Y489665D01*
X205512Y481201D02*
Y489665D01*
X200000D02*
X205512D01*
X200000Y481201D02*
X205512D01*
X219685D02*
Y489665D01*
X225197Y481201D02*
Y489665D01*
X219685D02*
X225197D01*
X219685Y481201D02*
X225197D01*
X239370D02*
X244882D01*
X239370Y489665D02*
X244882D01*
Y481201D02*
Y489665D01*
X239370Y481201D02*
Y489665D01*
X277067Y242618D02*
Y249508D01*
X273327Y242618D02*
Y249508D01*
Y242618D02*
X277067D01*
X273327Y249508D02*
X277067D01*
X282874Y242717D02*
X286417D01*
X282874Y249410D02*
X286417D01*
Y242717D02*
Y249410D01*
X282874Y242717D02*
Y249410D01*
X182087Y221457D02*
X185630D01*
X182087Y228150D02*
X185630D01*
Y221457D02*
Y228150D01*
X182087Y221457D02*
Y228150D01*
X216339Y231693D02*
X219882D01*
X216339Y238386D02*
X219882D01*
Y231693D02*
Y238386D01*
X216339Y231693D02*
Y238386D01*
X191732Y220866D02*
X195669D01*
X191732Y227953D02*
X195669D01*
Y220866D02*
Y227953D01*
X191732Y220866D02*
Y227953D01*
X232283Y214567D02*
X248031D01*
X232283Y234252D02*
X248031D01*
X232283Y214567D02*
Y234252D01*
X248031Y214567D02*
Y234252D01*
X648425Y485827D02*
X652362D01*
X650394Y483858D02*
Y487795D01*
X628740Y485827D02*
X632677D01*
X630709Y483858D02*
Y487795D01*
X609449Y485827D02*
X613386D01*
X611417Y483858D02*
Y487795D01*
X588976Y485827D02*
X592913D01*
X590945Y483858D02*
Y487795D01*
X569291Y485827D02*
X573228D01*
X571260Y483858D02*
Y487795D01*
X547638Y485433D02*
X551575D01*
X549606Y483465D02*
Y487402D01*
X669685Y485827D02*
X673622D01*
X671654Y483858D02*
Y487795D01*
X558268Y414961D02*
Y418898D01*
X556299Y416929D02*
X560236D01*
X372835Y485433D02*
X376772D01*
X374803Y483465D02*
Y487402D01*
X392913Y485433D02*
X396850D01*
X394882Y483465D02*
Y487402D01*
X412598Y485433D02*
X416535D01*
X414567Y483465D02*
Y487402D01*
X352756Y485433D02*
X356693D01*
X354724Y483465D02*
Y487402D01*
X332283Y485433D02*
X336221D01*
X334252Y483465D02*
Y487402D01*
X433071Y485532D02*
X437008D01*
X435039Y483563D02*
Y487500D01*
X454724Y485433D02*
X458661D01*
X456693Y483465D02*
Y487402D01*
X392520Y416142D02*
Y420079D01*
X390551Y418110D02*
X394488D01*
X233858D02*
Y422047D01*
X231890Y420079D02*
X235827D01*
X118110Y485433D02*
X122047D01*
X120079Y483465D02*
Y487402D01*
X138189Y485433D02*
X142126D01*
X140157Y483465D02*
Y487402D01*
X158268Y485433D02*
X162205D01*
X160236Y483465D02*
Y487402D01*
X179134Y485433D02*
X183071D01*
X181102Y483465D02*
Y487402D01*
X200787Y485433D02*
X204724D01*
X202756Y483465D02*
Y487402D01*
X220472Y485433D02*
X224410D01*
X222441Y483465D02*
Y487402D01*
X242126Y483465D02*
Y487402D01*
X240158Y485433D02*
X244094D01*
X273327Y246063D02*
X277067D01*
X275197Y244193D02*
Y247933D01*
X284646Y244291D02*
Y247835D01*
X282874Y246063D02*
X286417D01*
X183858Y223031D02*
Y226575D01*
X182087Y224803D02*
X185630D01*
X218110Y233268D02*
Y236811D01*
X216339Y235039D02*
X219882D01*
X193701Y222441D02*
Y226378D01*
X191732Y224410D02*
X195669D01*
X240158Y222441D02*
Y226378D01*
X238189Y224410D02*
X242126D01*
D13*
X650591Y140256D02*
D03*
D14*
X646654Y479134D02*
Y492520D01*
X654134Y479134D02*
Y492520D01*
X646654D02*
X654134D01*
X646654Y479134D02*
X654134D01*
X626968D02*
Y492520D01*
X634449Y479134D02*
Y492520D01*
X626968D02*
X634449D01*
X626968Y479134D02*
X634449D01*
X607677D02*
Y492520D01*
X615158Y479134D02*
Y492520D01*
X607677D02*
X615158D01*
X607677Y479134D02*
X615158D01*
X587205D02*
Y492520D01*
X594685Y479134D02*
Y492520D01*
X587205D02*
X594685D01*
X587205Y479134D02*
X594685D01*
X567520D02*
Y492520D01*
X575000Y479134D02*
Y492520D01*
X567520D02*
X575000D01*
X567520Y479134D02*
X575000D01*
X545866Y478740D02*
Y492126D01*
X553346Y478740D02*
Y492126D01*
X545866D02*
X553346D01*
X545866Y478740D02*
X553346D01*
X667913Y479134D02*
Y492520D01*
X675394Y479134D02*
Y492520D01*
X667913D02*
X675394D01*
X667913Y479134D02*
X675394D01*
X547244Y401575D02*
X569291D01*
X547244Y432283D02*
X569291D01*
Y401575D02*
Y432283D01*
X547244Y401575D02*
Y432283D01*
X371063Y478740D02*
Y492126D01*
X378543Y478740D02*
Y492126D01*
X371063D02*
X378543D01*
X371063Y478740D02*
X378543D01*
X391142D02*
Y492126D01*
X398622Y478740D02*
Y492126D01*
X391142D02*
X398622D01*
X391142Y478740D02*
X398622D01*
X410827D02*
Y492126D01*
X418307Y478740D02*
Y492126D01*
X410827D02*
X418307D01*
X410827Y478740D02*
X418307D01*
X350984D02*
Y492126D01*
X358465Y478740D02*
Y492126D01*
X350984D02*
X358465D01*
X350984Y478740D02*
X358465D01*
X330512D02*
Y492126D01*
X337992Y478740D02*
Y492126D01*
X330512D02*
X337992D01*
X330512Y478740D02*
X337992D01*
X431299Y478839D02*
Y492224D01*
X438779Y478839D02*
Y492224D01*
X431299D02*
X438779D01*
X431299Y478839D02*
X438779D01*
X452953Y478740D02*
Y492126D01*
X460433Y478740D02*
Y492126D01*
X452953D02*
X460433D01*
X452953Y478740D02*
X460433D01*
X381496Y402756D02*
X403543D01*
X381496Y433465D02*
X403543D01*
Y402756D02*
Y433465D01*
X381496Y402756D02*
Y433465D01*
X222835Y404724D02*
X244882D01*
X222835Y435433D02*
X244882D01*
Y404724D02*
Y435433D01*
X222835Y404724D02*
Y435433D01*
X116339Y478740D02*
Y492126D01*
X123819Y478740D02*
Y492126D01*
X116339D02*
X123819D01*
X116339Y478740D02*
X123819D01*
X136417D02*
Y492126D01*
X143898Y478740D02*
Y492126D01*
X136417D02*
X143898D01*
X136417Y478740D02*
X143898D01*
X156496D02*
Y492126D01*
X163976Y478740D02*
Y492126D01*
X156496D02*
X163976D01*
X156496Y478740D02*
X163976D01*
X177362D02*
Y492126D01*
X184843Y478740D02*
Y492126D01*
X177362D02*
X184843D01*
X177362Y478740D02*
X184843D01*
X199016D02*
Y492126D01*
X206496Y478740D02*
Y492126D01*
X199016D02*
X206496D01*
X199016Y478740D02*
X206496D01*
X218701D02*
Y492126D01*
X226181Y478740D02*
Y492126D01*
X218701D02*
X226181D01*
X218701Y478740D02*
X226181D01*
X238386D02*
X245866D01*
X238386Y492126D02*
X245866D01*
Y478740D02*
Y492126D01*
X238386Y478740D02*
Y492126D01*
X278150Y240158D02*
Y251969D01*
X272244Y240158D02*
Y251969D01*
Y240158D02*
X278150D01*
X272244Y251969D02*
X278150D01*
X281890Y240354D02*
X287402D01*
X281890Y251772D02*
X287402D01*
Y240354D02*
Y251772D01*
X281890Y240354D02*
Y251772D01*
X181102Y219094D02*
X186614D01*
X181102Y230512D02*
X186614D01*
Y219094D02*
Y230512D01*
X181102Y219094D02*
Y230512D01*
X215354Y229331D02*
X220866D01*
X215354Y240748D02*
X220866D01*
Y229331D02*
Y240748D01*
X215354Y229331D02*
Y240748D01*
X190748Y218504D02*
X196653D01*
X190748Y230315D02*
X196653D01*
Y218504D02*
Y230315D01*
X190748Y218504D02*
Y230315D01*
X225590Y213583D02*
X254724D01*
X225590Y235236D02*
X254724D01*
X225590Y213583D02*
Y235236D01*
X254724Y213583D02*
Y235236D01*
D15*
X630551Y677165D02*
D03*
Y517165D02*
D03*
X590551Y677165D02*
D03*
Y517165D02*
D03*
X620551Y677165D02*
D03*
Y517165D02*
D03*
X610551Y677165D02*
D03*
Y517165D02*
D03*
X600551Y677165D02*
D03*
Y517165D02*
D03*
X200787Y676929D02*
D03*
Y516929D02*
D03*
X160787Y676929D02*
D03*
Y516929D02*
D03*
X190787Y676929D02*
D03*
Y516929D02*
D03*
X180787Y676929D02*
D03*
Y516929D02*
D03*
X170787Y676929D02*
D03*
Y516929D02*
D03*
X415512Y677165D02*
D03*
Y517165D02*
D03*
X375512Y677165D02*
D03*
Y517165D02*
D03*
X405512Y677165D02*
D03*
Y517165D02*
D03*
X395512Y677165D02*
D03*
Y517165D02*
D03*
X385512Y677165D02*
D03*
Y517165D02*
D03*
D16*
X673130Y161811D02*
D03*
X609547D02*
D03*
Y126378D02*
D03*
X673130D02*
D03*
D17*
X633071Y118504D02*
D03*
X650394D02*
D03*
X641732D02*
D03*
X637402D02*
D03*
X646063D02*
D03*
X654724D02*
D03*
X659055D02*
D03*
X663386D02*
D03*
X667717D02*
D03*
D27*
X306221Y263228D02*
D03*
Y253228D02*
D03*
Y243228D02*
D03*
Y233228D02*
D03*
Y223228D02*
D03*
Y213228D02*
D03*
Y203228D02*
D03*
Y193228D02*
D03*
Y183228D02*
D03*
Y173228D02*
D03*
X316220Y263228D02*
D03*
Y253228D02*
D03*
Y243228D02*
D03*
Y233228D02*
D03*
Y223228D02*
D03*
Y213228D02*
D03*
Y203228D02*
D03*
Y193228D02*
D03*
Y183228D02*
D03*
Y173228D02*
D03*
X476221Y263228D02*
D03*
Y253228D02*
D03*
Y243228D02*
D03*
Y233228D02*
D03*
Y223228D02*
D03*
Y213228D02*
D03*
Y203228D02*
D03*
Y193228D02*
D03*
Y183228D02*
D03*
Y173228D02*
D03*
X486221Y263228D02*
D03*
Y253228D02*
D03*
Y243228D02*
D03*
Y233228D02*
D03*
Y223228D02*
D03*
Y213228D02*
D03*
Y203228D02*
D03*
Y193228D02*
D03*
Y183228D02*
D03*
Y173228D02*
D03*
M02*
