G04*
G04 #@! TF.GenerationSoftware,Altium Limited,Altium Designer,18.1.11 (251)*
G04*
G04 Layer_Physical_Order=1*
G04 Layer_Color=255*
%FSLAX25Y25*%
%MOIN*%
G70*
G01*
G75*
%ADD10C,0.01000*%
%ADD11C,0.01181*%
%ADD13C,0.00394*%
%ADD14R,0.15945X0.40158*%
%ADD15C,0.00197*%
%ADD16R,0.09449X0.04331*%
%ADD17R,0.05512X0.02441*%
%ADD27C,0.01968*%
%ADD28C,0.06299*%
%ADD29C,0.05906*%
%ADD30C,0.01968*%
%ADD31C,0.02756*%
%ADD32C,0.09488*%
%ADD33C,0.03740*%
%ADD34C,0.23622*%
G36*
X610295Y696172D02*
X610205Y696095D01*
X608895Y694561D01*
X607841Y692842D01*
X607070Y690979D01*
X606599Y689018D01*
X606480Y687508D01*
X619291D01*
Y687008D01*
X619791D01*
Y674197D01*
X621302Y674315D01*
X623262Y674786D01*
X625125Y675558D01*
X626114Y676164D01*
X626730Y675385D01*
X626730Y337196D01*
X625704Y335898D01*
X625125Y336253D01*
X623262Y337025D01*
X621302Y337496D01*
X619791Y337614D01*
Y324803D01*
X619291D01*
Y324303D01*
X606480D01*
X606599Y322793D01*
X607070Y320832D01*
X607841Y318969D01*
X608895Y317250D01*
X609968Y315994D01*
X608366Y313968D01*
X180381D01*
X179383Y315230D01*
X179953Y315716D01*
X181263Y317250D01*
X182316Y318969D01*
X183088Y320832D01*
X183559Y322793D01*
X183677Y324303D01*
X170866D01*
Y324803D01*
X170366D01*
Y337614D01*
X168856Y337496D01*
X166895Y337025D01*
X165032Y336253D01*
X163503Y335316D01*
X162951Y336015D01*
Y676324D01*
X163451Y676527D01*
X165032Y675558D01*
X166895Y674786D01*
X168856Y674315D01*
X170366Y674197D01*
Y687008D01*
X170866D01*
Y687508D01*
X183677D01*
X183559Y689018D01*
X183088Y690979D01*
X182316Y692842D01*
X181263Y694561D01*
X179953Y696095D01*
X178648Y697209D01*
X180693Y699794D01*
X607432D01*
X610295Y696172D01*
D02*
G37*
%LPC*%
G36*
X467528Y679392D02*
Y677567D01*
X469353D01*
X469268Y677995D01*
X468742Y678781D01*
X467955Y679307D01*
X467528Y679392D01*
D02*
G37*
G36*
X466528D02*
X466100Y679307D01*
X465313Y678781D01*
X464788Y677995D01*
X464703Y677567D01*
X466528D01*
Y679392D01*
D02*
G37*
G36*
X327075D02*
Y677567D01*
X328900D01*
X328815Y677995D01*
X328289Y678781D01*
X327503Y679307D01*
X327075Y679392D01*
D02*
G37*
G36*
X326075D02*
X325647Y679307D01*
X324860Y678781D01*
X324335Y677995D01*
X324250Y677567D01*
X326075D01*
Y679392D01*
D02*
G37*
G36*
X328900Y676567D02*
X327075D01*
Y674742D01*
X327503Y674827D01*
X328289Y675352D01*
X328815Y676139D01*
X328900Y676567D01*
D02*
G37*
G36*
X326075D02*
X324250D01*
X324335Y676139D01*
X324860Y675352D01*
X325647Y674827D01*
X326075Y674742D01*
Y676567D01*
D02*
G37*
G36*
X469353D02*
X467528D01*
Y674742D01*
X467955Y674827D01*
X468742Y675352D01*
X469268Y676139D01*
X469353Y676567D01*
D02*
G37*
G36*
X466528D02*
X464703D01*
X464788Y676139D01*
X465313Y675352D01*
X466100Y674827D01*
X466528Y674742D01*
Y676567D01*
D02*
G37*
G36*
X553543Y679590D02*
X552615Y679405D01*
X551829Y678880D01*
X551303Y678093D01*
X551119Y677165D01*
X551303Y676237D01*
X551829Y675451D01*
X552615Y674925D01*
X553543Y674741D01*
X554471Y674925D01*
X555258Y675451D01*
X555783Y676237D01*
X555968Y677165D01*
X555783Y678093D01*
X555258Y678880D01*
X554471Y679405D01*
X553543Y679590D01*
D02*
G37*
G36*
X543543D02*
X542616Y679405D01*
X541829Y678880D01*
X541303Y678093D01*
X541119Y677165D01*
X541303Y676237D01*
X541829Y675451D01*
X542616Y674925D01*
X543543Y674741D01*
X544471Y674925D01*
X545258Y675451D01*
X545783Y676237D01*
X545968Y677165D01*
X545783Y678093D01*
X545258Y678880D01*
X544471Y679405D01*
X543543Y679590D01*
D02*
G37*
G36*
X533543D02*
X532616Y679405D01*
X531829Y678880D01*
X531303Y678093D01*
X531119Y677165D01*
X531303Y676237D01*
X531829Y675451D01*
X532616Y674925D01*
X533543Y674741D01*
X534471Y674925D01*
X535258Y675451D01*
X535783Y676237D01*
X535968Y677165D01*
X535783Y678093D01*
X535258Y678880D01*
X534471Y679405D01*
X533543Y679590D01*
D02*
G37*
G36*
X523543D02*
X522615Y679405D01*
X521829Y678880D01*
X521303Y678093D01*
X521119Y677165D01*
X521303Y676237D01*
X521829Y675451D01*
X522615Y674925D01*
X523543Y674741D01*
X524471Y674925D01*
X525258Y675451D01*
X525783Y676237D01*
X525968Y677165D01*
X525783Y678093D01*
X525258Y678880D01*
X524471Y679405D01*
X523543Y679590D01*
D02*
G37*
G36*
X513543D02*
X512615Y679405D01*
X511829Y678880D01*
X511303Y678093D01*
X511119Y677165D01*
X511303Y676237D01*
X511829Y675451D01*
X512615Y674925D01*
X513543Y674741D01*
X514471Y674925D01*
X515258Y675451D01*
X515783Y676237D01*
X515968Y677165D01*
X515783Y678093D01*
X515258Y678880D01*
X514471Y679405D01*
X513543Y679590D01*
D02*
G37*
G36*
X415354Y679354D02*
X414427Y679169D01*
X413640Y678644D01*
X413114Y677857D01*
X412930Y676929D01*
X413114Y676001D01*
X413640Y675215D01*
X414427Y674689D01*
X415354Y674505D01*
X416282Y674689D01*
X417069Y675215D01*
X417594Y676001D01*
X417779Y676929D01*
X417594Y677857D01*
X417069Y678644D01*
X416282Y679169D01*
X415354Y679354D01*
D02*
G37*
G36*
X405354D02*
X404426Y679169D01*
X403640Y678644D01*
X403114Y677857D01*
X402930Y676929D01*
X403114Y676001D01*
X403640Y675215D01*
X404426Y674689D01*
X405354Y674505D01*
X406282Y674689D01*
X407069Y675215D01*
X407594Y676001D01*
X407779Y676929D01*
X407594Y677857D01*
X407069Y678644D01*
X406282Y679169D01*
X405354Y679354D01*
D02*
G37*
G36*
X395354D02*
X394426Y679169D01*
X393640Y678644D01*
X393114Y677857D01*
X392930Y676929D01*
X393114Y676001D01*
X393640Y675215D01*
X394426Y674689D01*
X395354Y674505D01*
X396282Y674689D01*
X397069Y675215D01*
X397594Y676001D01*
X397779Y676929D01*
X397594Y677857D01*
X397069Y678644D01*
X396282Y679169D01*
X395354Y679354D01*
D02*
G37*
G36*
X385354D02*
X384426Y679169D01*
X383640Y678644D01*
X383114Y677857D01*
X382930Y676929D01*
X383114Y676001D01*
X383640Y675215D01*
X384426Y674689D01*
X385354Y674505D01*
X386282Y674689D01*
X387069Y675215D01*
X387594Y676001D01*
X387779Y676929D01*
X387594Y677857D01*
X387069Y678644D01*
X386282Y679169D01*
X385354Y679354D01*
D02*
G37*
G36*
X375354D02*
X374427Y679169D01*
X373640Y678644D01*
X373114Y677857D01*
X372930Y676929D01*
X373114Y676001D01*
X373640Y675215D01*
X374427Y674689D01*
X375354Y674505D01*
X376282Y674689D01*
X377069Y675215D01*
X377594Y676001D01*
X377779Y676929D01*
X377594Y677857D01*
X377069Y678644D01*
X376282Y679169D01*
X375354Y679354D01*
D02*
G37*
G36*
X276378D02*
X275450Y679169D01*
X274663Y678644D01*
X274138Y677857D01*
X273953Y676929D01*
X274138Y676001D01*
X274663Y675215D01*
X275450Y674689D01*
X276378Y674505D01*
X277306Y674689D01*
X278092Y675215D01*
X278618Y676001D01*
X278802Y676929D01*
X278618Y677857D01*
X278092Y678644D01*
X277306Y679169D01*
X276378Y679354D01*
D02*
G37*
G36*
X266378D02*
X265450Y679169D01*
X264664Y678644D01*
X264138Y677857D01*
X263953Y676929D01*
X264138Y676001D01*
X264664Y675215D01*
X265450Y674689D01*
X266378Y674505D01*
X267306Y674689D01*
X268092Y675215D01*
X268618Y676001D01*
X268802Y676929D01*
X268618Y677857D01*
X268092Y678644D01*
X267306Y679169D01*
X266378Y679354D01*
D02*
G37*
G36*
X256378D02*
X255450Y679169D01*
X254663Y678644D01*
X254138Y677857D01*
X253953Y676929D01*
X254138Y676001D01*
X254663Y675215D01*
X255450Y674689D01*
X256378Y674505D01*
X257306Y674689D01*
X258092Y675215D01*
X258618Y676001D01*
X258803Y676929D01*
X258618Y677857D01*
X258092Y678644D01*
X257306Y679169D01*
X256378Y679354D01*
D02*
G37*
G36*
X246378D02*
X245450Y679169D01*
X244664Y678644D01*
X244138Y677857D01*
X243953Y676929D01*
X244138Y676001D01*
X244664Y675215D01*
X245450Y674689D01*
X246378Y674505D01*
X247306Y674689D01*
X248092Y675215D01*
X248618Y676001D01*
X248802Y676929D01*
X248618Y677857D01*
X248092Y678644D01*
X247306Y679169D01*
X246378Y679354D01*
D02*
G37*
G36*
X236378D02*
X235450Y679169D01*
X234664Y678644D01*
X234138Y677857D01*
X233953Y676929D01*
X234138Y676001D01*
X234664Y675215D01*
X235450Y674689D01*
X236378Y674505D01*
X237306Y674689D01*
X238092Y675215D01*
X238618Y676001D01*
X238803Y676929D01*
X238618Y677857D01*
X238092Y678644D01*
X237306Y679169D01*
X236378Y679354D01*
D02*
G37*
G36*
X183677Y686508D02*
X171366D01*
Y674197D01*
X172876Y674315D01*
X174837Y674786D01*
X176700Y675558D01*
X178420Y676612D01*
X179953Y677921D01*
X181263Y679455D01*
X182316Y681174D01*
X183088Y683037D01*
X183559Y684998D01*
X183677Y686508D01*
D02*
G37*
G36*
X618791D02*
X606480D01*
X606599Y684998D01*
X607070Y683037D01*
X607841Y681174D01*
X608895Y679455D01*
X610205Y677921D01*
X611738Y676612D01*
X613457Y675558D01*
X615320Y674786D01*
X617281Y674315D01*
X618791Y674197D01*
Y686508D01*
D02*
G37*
G36*
X327075Y637758D02*
Y635933D01*
X328900D01*
X328815Y636361D01*
X328289Y637148D01*
X327503Y637673D01*
X327075Y637758D01*
D02*
G37*
G36*
X326075D02*
X325647Y637673D01*
X324860Y637148D01*
X324335Y636361D01*
X324250Y635933D01*
X326075D01*
Y637758D01*
D02*
G37*
G36*
X467528Y637660D02*
Y635835D01*
X469353D01*
X469268Y636263D01*
X468742Y637049D01*
X467955Y637575D01*
X467528Y637660D01*
D02*
G37*
G36*
X466528D02*
X466100Y637575D01*
X465313Y637049D01*
X464788Y636263D01*
X464703Y635835D01*
X466528D01*
Y637660D01*
D02*
G37*
G36*
X328900Y634933D02*
X327075D01*
Y633108D01*
X327503Y633193D01*
X328289Y633719D01*
X328815Y634505D01*
X328900Y634933D01*
D02*
G37*
G36*
X326075D02*
X324250D01*
X324335Y634505D01*
X324860Y633719D01*
X325647Y633193D01*
X326075Y633108D01*
Y634933D01*
D02*
G37*
G36*
X469353Y634835D02*
X467528D01*
Y633010D01*
X467955Y633095D01*
X468742Y633620D01*
X469268Y634407D01*
X469353Y634835D01*
D02*
G37*
G36*
X466528D02*
X464703D01*
X464788Y634407D01*
X465313Y633620D01*
X466100Y633095D01*
X466528Y633010D01*
Y634835D01*
D02*
G37*
G36*
X197547Y620731D02*
Y618905D01*
X199372D01*
X199287Y619333D01*
X198762Y620120D01*
X197975Y620646D01*
X197547Y620731D01*
D02*
G37*
G36*
X196547D02*
X196119Y620646D01*
X195333Y620120D01*
X194807Y619333D01*
X194722Y618905D01*
X196547D01*
Y620731D01*
D02*
G37*
G36*
X199372Y617906D02*
X197547D01*
Y616080D01*
X197975Y616165D01*
X198762Y616691D01*
X199287Y617478D01*
X199372Y617906D01*
D02*
G37*
G36*
X196547D02*
X194722D01*
X194807Y617478D01*
X195333Y616691D01*
X196119Y616165D01*
X196547Y616080D01*
Y617906D01*
D02*
G37*
G36*
X597055Y616892D02*
Y615067D01*
X598880D01*
X598795Y615495D01*
X598270Y616281D01*
X597483Y616807D01*
X597055Y616892D01*
D02*
G37*
G36*
X596055D02*
X595627Y616807D01*
X594841Y616281D01*
X594315Y615495D01*
X594230Y615067D01*
X596055D01*
Y616892D01*
D02*
G37*
G36*
X598880Y614067D02*
X597055D01*
Y612242D01*
X597483Y612327D01*
X598270Y612852D01*
X598795Y613639D01*
X598880Y614067D01*
D02*
G37*
G36*
X596055D02*
X594230D01*
X594315Y613639D01*
X594841Y612852D01*
X595627Y612327D01*
X596055Y612242D01*
Y614067D01*
D02*
G37*
G36*
X527559Y608330D02*
X526631Y608146D01*
X526307Y607929D01*
X391016D01*
X390692Y608146D01*
X389764Y608330D01*
X388836Y608146D01*
X388511Y607929D01*
X254008D01*
X253684Y608146D01*
X252756Y608330D01*
X251828Y608146D01*
X251042Y607620D01*
X250516Y606833D01*
X250440Y606451D01*
X234947Y590958D01*
X234509Y590302D01*
X234355Y589528D01*
Y518182D01*
X234138Y517857D01*
X234062Y517474D01*
X202506Y485919D01*
X202068Y485262D01*
X201914Y484488D01*
Y434323D01*
X201697Y433999D01*
X201513Y433071D01*
X201697Y432143D01*
X202223Y431356D01*
X203009Y430831D01*
X203937Y430646D01*
X204865Y430831D01*
X205651Y431356D01*
X206177Y432143D01*
X206362Y433071D01*
X206177Y433999D01*
X205960Y434323D01*
Y483650D01*
X209848Y487538D01*
X210309Y487292D01*
X210174Y486614D01*
X210358Y485686D01*
X210884Y484900D01*
X211671Y484374D01*
X212598Y484190D01*
X212817Y484233D01*
X216241Y480808D01*
X216738Y480477D01*
X217323Y480360D01*
X302922D01*
X303092Y479860D01*
X302535Y479433D01*
X301902Y478608D01*
X301503Y477646D01*
X301367Y476614D01*
X301503Y475582D01*
X301902Y474621D01*
X302535Y473795D01*
X303361Y473161D01*
X304322Y472763D01*
X305354Y472627D01*
X306386Y472763D01*
X307348Y473161D01*
X308173Y473795D01*
X308807Y474621D01*
X309205Y475582D01*
X309341Y476614D01*
X309205Y477646D01*
X308807Y478608D01*
X308173Y479433D01*
X307617Y479860D01*
X307787Y480360D01*
X312922D01*
X313092Y479860D01*
X312535Y479433D01*
X311902Y478608D01*
X311503Y477646D01*
X311368Y476614D01*
X311503Y475582D01*
X311902Y474621D01*
X312535Y473795D01*
X313361Y473161D01*
X314322Y472763D01*
X315354Y472627D01*
X316386Y472763D01*
X317348Y473161D01*
X318174Y473795D01*
X318807Y474621D01*
X319205Y475582D01*
X319341Y476614D01*
X319205Y477646D01*
X318807Y478608D01*
X318174Y479433D01*
X317617Y479860D01*
X317787Y480360D01*
X322595D01*
X338682Y464273D01*
X339178Y463941D01*
X339764Y463825D01*
X456297D01*
X456449Y463325D01*
X456160Y463132D01*
X456036Y462947D01*
X317889D01*
X317720Y463447D01*
X318174Y463795D01*
X318807Y464621D01*
X319205Y465582D01*
X319341Y466614D01*
X319205Y467646D01*
X318807Y468608D01*
X318174Y469433D01*
X317348Y470067D01*
X316386Y470465D01*
X315354Y470601D01*
X314322Y470465D01*
X313361Y470067D01*
X312535Y469433D01*
X311902Y468608D01*
X311503Y467646D01*
X311368Y466614D01*
X311503Y465582D01*
X311902Y464621D01*
X312535Y463795D01*
X312989Y463447D01*
X312819Y462947D01*
X311185D01*
X309013Y465118D01*
X309205Y465582D01*
X309341Y466614D01*
X309205Y467646D01*
X308807Y468608D01*
X308173Y469433D01*
X307348Y470067D01*
X306386Y470465D01*
X305354Y470601D01*
X304322Y470465D01*
X303361Y470067D01*
X302535Y469433D01*
X301902Y468608D01*
X301503Y467646D01*
X301367Y466614D01*
X301503Y465582D01*
X301902Y464621D01*
X302535Y463795D01*
X303361Y463161D01*
X304322Y462763D01*
X305354Y462627D01*
X306386Y462763D01*
X306850Y462955D01*
X309470Y460336D01*
X309966Y460004D01*
X310551Y459888D01*
X312381D01*
X312425Y459757D01*
X312500Y459388D01*
X311902Y458608D01*
X311503Y457646D01*
X311368Y456614D01*
X311503Y455582D01*
X311902Y454621D01*
X312380Y453998D01*
X312133Y453498D01*
X310633D01*
X309013Y455118D01*
X309205Y455582D01*
X309341Y456614D01*
X309205Y457646D01*
X308807Y458608D01*
X308173Y459433D01*
X307348Y460067D01*
X306386Y460465D01*
X305354Y460601D01*
X304322Y460465D01*
X303361Y460067D01*
X302535Y459433D01*
X301902Y458608D01*
X301503Y457646D01*
X301367Y456614D01*
X301503Y455582D01*
X301902Y454621D01*
X302535Y453795D01*
X303361Y453161D01*
X304322Y452763D01*
X305354Y452627D01*
X306386Y452763D01*
X306850Y452955D01*
X308918Y450887D01*
X309415Y450556D01*
X310000Y450439D01*
X313025D01*
X313194Y449939D01*
X312535Y449433D01*
X311902Y448608D01*
X311503Y447646D01*
X311368Y446614D01*
X311503Y445582D01*
X311902Y444621D01*
X312535Y443795D01*
X312613Y443735D01*
X312453Y443262D01*
X308256D01*
X308095Y443735D01*
X308173Y443795D01*
X308807Y444621D01*
X309205Y445582D01*
X309341Y446614D01*
X309205Y447646D01*
X308807Y448608D01*
X308173Y449433D01*
X307348Y450067D01*
X306386Y450465D01*
X305354Y450601D01*
X304322Y450465D01*
X303361Y450067D01*
X302535Y449433D01*
X301902Y448608D01*
X301503Y447646D01*
X301367Y446614D01*
X301503Y445582D01*
X301902Y444621D01*
X302535Y443795D01*
X302613Y443735D01*
X302452Y443262D01*
X301421D01*
X292868Y451815D01*
Y453674D01*
X293053Y453797D01*
X293579Y454584D01*
X293763Y455512D01*
X293579Y456440D01*
X293053Y457226D01*
X292266Y457752D01*
X285584Y464100D01*
X285179Y464707D01*
X284392Y465232D01*
X283465Y465417D01*
X282537Y465232D01*
X281750Y464707D01*
X281225Y463920D01*
X281040Y462992D01*
X281225Y462064D01*
X281750Y461278D01*
X281935Y461154D01*
Y451968D01*
X282052Y451383D01*
X282383Y450887D01*
X302462Y430808D01*
X302958Y430477D01*
X303050Y430458D01*
X303175Y429924D01*
X302535Y429433D01*
X301902Y428608D01*
X301503Y427646D01*
X301367Y426614D01*
X301503Y425582D01*
X301902Y424621D01*
X302319Y424077D01*
X302073Y423577D01*
X185696Y423577D01*
X185573Y423762D01*
X184786Y424287D01*
X183858Y424472D01*
X182930Y424287D01*
X182144Y423762D01*
X181618Y422975D01*
X181434Y422047D01*
X181618Y421119D01*
X182144Y420333D01*
X182930Y419807D01*
X183858Y419623D01*
X184786Y419807D01*
X185573Y420333D01*
X185696Y420518D01*
X303159Y420518D01*
X303279Y420248D01*
X303297Y420018D01*
X302535Y419433D01*
X301902Y418608D01*
X301503Y417646D01*
X301367Y416614D01*
X301503Y415582D01*
X301902Y414621D01*
X302535Y413795D01*
X303361Y413161D01*
X304322Y412763D01*
X305354Y412627D01*
X306386Y412763D01*
X307348Y413161D01*
X308173Y413795D01*
X308807Y414621D01*
X309205Y415582D01*
X309341Y416614D01*
X309205Y417646D01*
X308807Y418608D01*
X308173Y419433D01*
X307412Y420018D01*
X307429Y420248D01*
X307550Y420518D01*
X313159D01*
X313280Y420248D01*
X313297Y420018D01*
X312535Y419433D01*
X311902Y418608D01*
X311503Y417646D01*
X311368Y416614D01*
X311503Y415582D01*
X311902Y414621D01*
X312535Y413795D01*
X312989Y413447D01*
X312819Y412947D01*
X310157D01*
X309572Y412830D01*
X309076Y412499D01*
X306850Y410273D01*
X306386Y410465D01*
X305354Y410601D01*
X304322Y410465D01*
X303361Y410067D01*
X302535Y409433D01*
X301902Y408608D01*
X301503Y407646D01*
X301367Y406614D01*
X301503Y405582D01*
X301902Y404621D01*
X302535Y403795D01*
X303361Y403161D01*
X304322Y402763D01*
X305354Y402627D01*
X306386Y402763D01*
X307348Y403161D01*
X308173Y403795D01*
X308807Y404621D01*
X309205Y405582D01*
X309341Y406614D01*
X309205Y407646D01*
X309013Y408110D01*
X310791Y409888D01*
X312381D01*
X312425Y409757D01*
X312500Y409388D01*
X311902Y408608D01*
X311503Y407646D01*
X311368Y406614D01*
X311503Y405582D01*
X311902Y404621D01*
X312535Y403795D01*
X313361Y403161D01*
X313518Y403096D01*
X313419Y402596D01*
X310640D01*
X310055Y402480D01*
X309559Y402148D01*
X307421Y400011D01*
X307348Y400067D01*
X306386Y400465D01*
X305354Y400601D01*
X304322Y400465D01*
X303361Y400067D01*
X302535Y399433D01*
X301902Y398608D01*
X301503Y397646D01*
X301367Y396614D01*
X301503Y395582D01*
X301902Y394621D01*
X302535Y393795D01*
X303361Y393162D01*
X304322Y392763D01*
X305354Y392627D01*
X306386Y392763D01*
X307348Y393162D01*
X308173Y393795D01*
X308807Y394621D01*
X309205Y395582D01*
X309341Y396614D01*
X309226Y397490D01*
X311273Y399537D01*
X311985D01*
X312231Y399038D01*
X311902Y398608D01*
X311503Y397646D01*
X311368Y396614D01*
X311503Y395582D01*
X311902Y394621D01*
X312535Y393795D01*
X313361Y393162D01*
X314322Y392763D01*
X315354Y392627D01*
X316386Y392763D01*
X316850Y392955D01*
X349447Y360359D01*
X349255Y359897D01*
X273228Y359897D01*
X272454Y359743D01*
X271798Y359305D01*
X270070Y357577D01*
X269545Y357226D01*
X269020Y356440D01*
X268835Y355512D01*
X269020Y354584D01*
X269545Y353797D01*
X270332Y353272D01*
X271260Y353087D01*
X272188Y353272D01*
X272974Y353797D01*
X273114Y354006D01*
X273645Y353901D01*
X273744Y353402D01*
X274269Y352616D01*
X275056Y352090D01*
X275984Y351905D01*
X276606Y352029D01*
X276916Y351719D01*
X277572Y351280D01*
X278346Y351127D01*
X383414Y351127D01*
X387054Y347486D01*
X387130Y347104D01*
X387656Y346317D01*
X388442Y345792D01*
X389370Y345607D01*
X390298Y345792D01*
X391085Y346317D01*
X391441Y346850D01*
X399110D01*
X399467Y346317D01*
X400253Y345792D01*
X401181Y345607D01*
X402109Y345792D01*
X402895Y346317D01*
X403421Y347104D01*
X403606Y348031D01*
X403421Y348959D01*
X402895Y349746D01*
X402109Y350272D01*
X401726Y350348D01*
X393435Y358639D01*
X393626Y359101D01*
X417216D01*
X425569Y350748D01*
X425383Y350227D01*
X424663Y349746D01*
X424138Y348959D01*
X424053Y348532D01*
X428703D01*
X428678Y348660D01*
X429040Y349160D01*
X560417D01*
Y348468D01*
X565834D01*
X566323Y348441D01*
X566323Y347969D01*
Y342110D01*
X577772D01*
Y348441D01*
X568418D01*
X567929Y348468D01*
X567929Y348941D01*
Y352799D01*
Y357130D01*
Y361461D01*
Y363181D01*
X564173D01*
X560417D01*
Y360880D01*
X558516D01*
X558364Y361380D01*
X558801Y361671D01*
X559327Y362458D01*
X559412Y362886D01*
X554762D01*
X554847Y362458D01*
X555372Y361671D01*
X555809Y361380D01*
X555657Y360880D01*
X468078D01*
X467955Y361065D01*
X467168Y361590D01*
X466240Y361775D01*
X465312Y361590D01*
X464526Y361065D01*
X464000Y360278D01*
X463816Y359350D01*
X464000Y358423D01*
X464526Y357636D01*
X465312Y357110D01*
X466240Y356926D01*
X467168Y357110D01*
X467955Y357636D01*
X468078Y357821D01*
X560417D01*
Y352218D01*
X428424D01*
X418931Y361711D01*
X418435Y362043D01*
X417850Y362159D01*
X353545D01*
X353394Y362659D01*
X353683Y362853D01*
X353806Y363038D01*
X491075Y363037D01*
X491199Y362853D01*
X491986Y362327D01*
X492913Y362142D01*
X493841Y362327D01*
X494628Y362853D01*
X495153Y363639D01*
X495338Y364567D01*
X495153Y365495D01*
X494828Y365982D01*
X495095Y366482D01*
X560417D01*
Y364181D01*
X564173D01*
X567929D01*
Y365791D01*
Y370122D01*
Y374453D01*
Y378783D01*
Y383114D01*
Y387555D01*
X560417D01*
Y382533D01*
X487423D01*
X487190Y383033D01*
X487594Y383639D01*
X487779Y384567D01*
X487594Y385495D01*
X487069Y386281D01*
X486282Y386807D01*
X485354Y386992D01*
X484426Y386807D01*
X483640Y386281D01*
X483515Y386094D01*
X354675D01*
X354551Y386279D01*
X353764Y386805D01*
X352836Y386990D01*
X351909Y386805D01*
X351122Y386279D01*
X350597Y385493D01*
X350507Y385041D01*
X349964Y384876D01*
X322341Y412499D01*
X321845Y412830D01*
X321260Y412947D01*
X317889D01*
X317720Y413447D01*
X318174Y413795D01*
X318807Y414621D01*
X319205Y415582D01*
X319341Y416614D01*
X319313Y416831D01*
X319761Y417052D01*
X326478Y410336D01*
X326974Y410004D01*
X327559Y409888D01*
X461571D01*
X470966Y400493D01*
X471462Y400162D01*
X472047Y400045D01*
X472555D01*
X472716Y399572D01*
X472535Y399433D01*
X471902Y398608D01*
X471503Y397646D01*
X471430Y397090D01*
X470902Y396910D01*
X467576Y400237D01*
X467619Y400455D01*
X467434Y401383D01*
X466909Y402170D01*
X466122Y402695D01*
X465194Y402880D01*
X464267Y402695D01*
X463480Y402170D01*
X462954Y401383D01*
X462770Y400455D01*
X462954Y399527D01*
X463480Y398741D01*
X464267Y398215D01*
X465194Y398031D01*
X465413Y398074D01*
X474411Y389076D01*
X474907Y388744D01*
X475492Y388628D01*
X487402D01*
X487987Y388744D01*
X488483Y389076D01*
X493940Y394534D01*
X517060D01*
X517183Y394349D01*
X517970Y393823D01*
X518898Y393638D01*
X519825Y393823D01*
X520612Y394349D01*
X521138Y395135D01*
X521322Y396063D01*
Y399529D01*
X554601D01*
X555187Y399645D01*
X555683Y399977D01*
X565861Y410155D01*
X566323Y409963D01*
Y405693D01*
X577772D01*
Y411856D01*
X583595D01*
X583719Y411671D01*
X584505Y411146D01*
X585433Y410961D01*
X586361Y411146D01*
X587148Y411671D01*
X587673Y412458D01*
X587858Y413386D01*
X587673Y414314D01*
X587148Y415100D01*
X586361Y415626D01*
X586167Y415664D01*
X586022Y416143D01*
X589939Y420060D01*
X590158Y420016D01*
X591085Y420201D01*
X591872Y420726D01*
X592397Y421513D01*
X592582Y422441D01*
X592397Y423369D01*
X591872Y424155D01*
X591085Y424681D01*
X590158Y424865D01*
X589230Y424681D01*
X588443Y424155D01*
X587918Y423369D01*
X587733Y422441D01*
X587776Y422223D01*
X582469Y416915D01*
X567108D01*
X566917Y417377D01*
X576271Y426731D01*
X576378Y426709D01*
X577306Y426894D01*
X578092Y427419D01*
X578618Y428206D01*
X578802Y429134D01*
X578618Y430062D01*
X578092Y430848D01*
X577306Y431374D01*
X576378Y431558D01*
X575450Y431374D01*
X574663Y430848D01*
X574138Y430062D01*
X573953Y429134D01*
X574019Y428805D01*
X571220Y426006D01*
X570699Y426192D01*
X570218Y426911D01*
X569432Y427437D01*
X568504Y427621D01*
X567576Y427437D01*
X566789Y426911D01*
X566264Y426125D01*
X566079Y425197D01*
X566123Y424979D01*
X554485Y413340D01*
X488328D01*
X488283Y413472D01*
X488208Y413840D01*
X488807Y414621D01*
X489205Y415582D01*
X489341Y416614D01*
X489205Y417646D01*
X488807Y418608D01*
X488173Y419433D01*
X487348Y420067D01*
X487190Y420132D01*
X487290Y420632D01*
X489878D01*
X490463Y420748D01*
X490959Y421080D01*
X494964Y425085D01*
X557717D01*
X558302Y425201D01*
X558798Y425533D01*
X569531Y436266D01*
X592520D01*
X593105Y436382D01*
X593601Y436714D01*
X595451Y438564D01*
X595669Y438520D01*
X596597Y438705D01*
X597384Y439230D01*
X597909Y440017D01*
X598094Y440945D01*
X597909Y441873D01*
X597384Y442659D01*
X596597Y443185D01*
X595669Y443369D01*
X594741Y443185D01*
X593955Y442659D01*
X593429Y441873D01*
X593245Y440945D01*
X593288Y440727D01*
X591886Y439325D01*
X568898D01*
X568312Y439208D01*
X567816Y438877D01*
X567532Y438592D01*
X566514Y439186D01*
X566413Y439623D01*
X566598Y440551D01*
X566413Y441479D01*
X565888Y442266D01*
X565101Y442791D01*
X564173Y442976D01*
X563245Y442791D01*
X562459Y442266D01*
X561933Y441479D01*
X561749Y440551D01*
X561792Y440333D01*
X554091Y432632D01*
X487375D01*
X487276Y433132D01*
X487348Y433161D01*
X488173Y433795D01*
X488807Y434621D01*
X489205Y435582D01*
X489341Y436614D01*
X489205Y437646D01*
X488807Y438608D01*
X488173Y439433D01*
X487822Y439703D01*
X487992Y440203D01*
X489370D01*
X489955Y440319D01*
X490451Y440651D01*
X495122Y445321D01*
X590158D01*
X590743Y445437D01*
X591239Y445769D01*
X595451Y449981D01*
X595669Y449938D01*
X596597Y450122D01*
X597384Y450648D01*
X597909Y451434D01*
X598094Y452362D01*
X597909Y453290D01*
X597384Y454077D01*
X596597Y454602D01*
X595669Y454787D01*
X594741Y454602D01*
X593955Y454077D01*
X593429Y453290D01*
X593245Y452362D01*
X593288Y452144D01*
X589524Y448380D01*
X494488D01*
X493903Y448263D01*
X493407Y447932D01*
X488737Y443262D01*
X488256D01*
X488095Y443735D01*
X488173Y443795D01*
X488807Y444621D01*
X489205Y445582D01*
X489341Y446614D01*
X489205Y447646D01*
X488807Y448608D01*
X488173Y449433D01*
X487514Y449939D01*
X487684Y450439D01*
X491339D01*
X491924Y450556D01*
X492420Y450887D01*
X504177Y462644D01*
X575721D01*
X575845Y462459D01*
X576631Y461933D01*
X577559Y461749D01*
X578487Y461933D01*
X579274Y462459D01*
X579799Y463245D01*
X579984Y464173D01*
X579799Y465101D01*
X579274Y465888D01*
X578487Y466413D01*
X577559Y466598D01*
X576631Y466413D01*
X575845Y465888D01*
X575721Y465703D01*
X503543D01*
X502958Y465586D01*
X502462Y465255D01*
X490705Y453498D01*
X488576D01*
X488329Y453998D01*
X488807Y454621D01*
X489205Y455582D01*
X489341Y456614D01*
X489205Y457646D01*
X488807Y458608D01*
X488173Y459433D01*
X487348Y460067D01*
X486386Y460465D01*
X485354Y460601D01*
X484323Y460465D01*
X483361Y460067D01*
X482535Y459433D01*
X481902Y458608D01*
X481503Y457646D01*
X481367Y456614D01*
X481503Y455582D01*
X481902Y454621D01*
X482379Y453998D01*
X482133Y453498D01*
X478576D01*
X478329Y453998D01*
X478807Y454621D01*
X479205Y455582D01*
X479341Y456614D01*
X479205Y457646D01*
X479013Y458110D01*
X481003Y460100D01*
X481334Y460596D01*
X481451Y461181D01*
Y464418D01*
X481720Y464539D01*
X481951Y464557D01*
X482535Y463795D01*
X483361Y463161D01*
X484323Y462763D01*
X485354Y462627D01*
X486386Y462763D01*
X487348Y463161D01*
X488173Y463795D01*
X488807Y464621D01*
X489205Y465582D01*
X489341Y466614D01*
X489205Y467646D01*
X488807Y468608D01*
X488173Y469433D01*
X487348Y470067D01*
X486386Y470465D01*
X485354Y470601D01*
X484323Y470465D01*
X483361Y470067D01*
X482535Y469433D01*
X481907Y468614D01*
X481876Y468611D01*
X481386Y468669D01*
X481334Y468930D01*
X481003Y469426D01*
X477659Y472770D01*
X477702Y473433D01*
X478173Y473795D01*
X478807Y474621D01*
X479205Y475582D01*
X479275Y476114D01*
X475354D01*
X471433D01*
X471503Y475582D01*
X471902Y474621D01*
X472231Y474191D01*
X471985Y473691D01*
X470992D01*
X469093Y475590D01*
X469238Y476068D01*
X469432Y476107D01*
X470218Y476632D01*
X470744Y477419D01*
X470829Y477846D01*
X468504D01*
Y478346D01*
X468004D01*
Y480672D01*
X467576Y480586D01*
X466789Y480061D01*
X466264Y479274D01*
X466225Y479081D01*
X465747Y478936D01*
X462512Y482170D01*
X462704Y482632D01*
X470877D01*
X472429Y481080D01*
X472925Y480748D01*
X473007Y480732D01*
X473381Y480160D01*
X473361Y480067D01*
X472535Y479433D01*
X471902Y478608D01*
X471503Y477646D01*
X471433Y477114D01*
X475354D01*
X479275D01*
X479205Y477646D01*
X478807Y478608D01*
X478173Y479433D01*
X477348Y480067D01*
X477190Y480132D01*
X477290Y480632D01*
X477776D01*
X481417Y476991D01*
X481367Y476614D01*
X481503Y475582D01*
X481902Y474621D01*
X482535Y473795D01*
X483361Y473161D01*
X484323Y472763D01*
X485354Y472627D01*
X486386Y472763D01*
X487348Y473161D01*
X488173Y473795D01*
X488807Y474621D01*
X489205Y475582D01*
X489341Y476614D01*
X489205Y477646D01*
X488807Y478608D01*
X488173Y479433D01*
X487348Y480067D01*
X486386Y480465D01*
X485354Y480601D01*
X484323Y480465D01*
X483361Y480067D01*
X482968Y479766D01*
X479491Y483243D01*
X478995Y483574D01*
X478682Y483637D01*
X478463Y484172D01*
X478807Y484621D01*
X479205Y485582D01*
X479341Y486614D01*
X479205Y487646D01*
X478807Y488608D01*
X478173Y489433D01*
X477348Y490067D01*
X476386Y490465D01*
X475354Y490601D01*
X474323Y490465D01*
X473361Y490067D01*
X472535Y489433D01*
X471902Y488608D01*
X471503Y487646D01*
X471368Y486614D01*
X471440Y486067D01*
X471110Y485691D01*
X341741D01*
X325170Y502262D01*
X324674Y502594D01*
X324088Y502710D01*
X275066D01*
X274943Y502895D01*
X274156Y503421D01*
X273228Y503606D01*
X272301Y503421D01*
X271514Y502895D01*
X270988Y502109D01*
X270804Y501181D01*
X270988Y500253D01*
X271514Y499467D01*
X272301Y498941D01*
X273228Y498757D01*
X274156Y498941D01*
X274943Y499467D01*
X275066Y499652D01*
X285094D01*
X285330Y499211D01*
X285162Y498959D01*
X284977Y498032D01*
X285162Y497104D01*
X285687Y496317D01*
X286474Y495791D01*
X287402Y495607D01*
X288329Y495791D01*
X289116Y496317D01*
X289240Y496502D01*
X323776D01*
X325767Y494511D01*
X325576Y494049D01*
X281074D01*
X280909Y494295D01*
X280123Y494821D01*
X279195Y495005D01*
X278267Y494821D01*
X277481Y494295D01*
X276955Y493509D01*
X276770Y492581D01*
X276955Y491653D01*
X277481Y490866D01*
X278267Y490341D01*
X279195Y490156D01*
X280123Y490341D01*
X280909Y490866D01*
X280992Y490990D01*
X304481D01*
X304513Y490490D01*
X304322Y490465D01*
X303361Y490067D01*
X302535Y489433D01*
X301902Y488608D01*
X301503Y487646D01*
X301433Y487114D01*
X305354D01*
X309275D01*
X309205Y487646D01*
X308807Y488608D01*
X308173Y489433D01*
X307348Y490067D01*
X306386Y490465D01*
X306195Y490490D01*
X306228Y490990D01*
X314480D01*
X314513Y490490D01*
X314322Y490465D01*
X313361Y490067D01*
X312535Y489433D01*
X311902Y488608D01*
X311503Y487646D01*
X311368Y486614D01*
X311503Y485582D01*
X311902Y484621D01*
X312440Y483919D01*
X312262Y483419D01*
X308446D01*
X308269Y483919D01*
X308807Y484621D01*
X309205Y485582D01*
X309275Y486114D01*
X305354D01*
X301433D01*
X301503Y485582D01*
X301902Y484621D01*
X302440Y483919D01*
X302262Y483419D01*
X217956D01*
X214980Y486396D01*
X215023Y486614D01*
X214838Y487542D01*
X214313Y488329D01*
X213526Y488854D01*
X212598Y489039D01*
X211921Y488904D01*
X211675Y489365D01*
X236378Y514068D01*
X238491Y511955D01*
X239147Y511517D01*
X239921Y511363D01*
X272835D01*
X273609Y511517D01*
X274265Y511955D01*
X276923Y514613D01*
X277306Y514689D01*
X277948Y515119D01*
X373784D01*
X374427Y514689D01*
X374809Y514613D01*
X376348Y513074D01*
X376157Y512612D01*
X347074D01*
X346990Y512738D01*
X346203Y513264D01*
X345276Y513448D01*
X344348Y513264D01*
X343561Y512738D01*
X343036Y511951D01*
X342851Y511024D01*
X343036Y510096D01*
X343561Y509309D01*
X343951Y509049D01*
X343953Y508814D01*
X343884Y508492D01*
X343167Y508014D01*
X342642Y507227D01*
X342457Y506299D01*
X342642Y505371D01*
X343167Y504585D01*
X340899Y502317D01*
X334515D01*
X334392Y502502D01*
X333605Y503027D01*
X332677Y503212D01*
X331749Y503027D01*
X330963Y502502D01*
X330437Y501715D01*
X330253Y500787D01*
X330437Y499860D01*
X330963Y499073D01*
X331749Y498547D01*
X332677Y498363D01*
X333605Y498547D01*
X334392Y499073D01*
X334515Y499258D01*
X433190D01*
X433239Y498758D01*
X432930Y498697D01*
X432144Y498171D01*
X431618Y497385D01*
X431434Y496457D01*
X431618Y495529D01*
X432144Y494742D01*
X432930Y494217D01*
X433858Y494032D01*
X434786Y494217D01*
X435573Y494742D01*
X435696Y494927D01*
X550394D01*
X550979Y495044D01*
X551475Y495375D01*
X555566Y499466D01*
X555764Y499334D01*
X556692Y499149D01*
X557620Y499334D01*
X558406Y499859D01*
X558932Y500646D01*
X559116Y501574D01*
X558932Y502502D01*
X558621Y502967D01*
X558888Y503467D01*
X570355D01*
X585478Y488343D01*
Y462838D01*
X577777Y455137D01*
X577559Y455181D01*
X576631Y454996D01*
X575845Y454470D01*
X575319Y453684D01*
X575135Y452756D01*
X575319Y451828D01*
X575845Y451042D01*
X576631Y450516D01*
X577559Y450331D01*
X578487Y450516D01*
X579274Y451042D01*
X579799Y451828D01*
X579984Y452756D01*
X579940Y452974D01*
X588089Y461123D01*
X588421Y461619D01*
X588537Y462205D01*
Y488976D01*
X588421Y489562D01*
X588089Y490058D01*
X572070Y506077D01*
X571573Y506409D01*
X570988Y506526D01*
X443437D01*
X443201Y507025D01*
X443369Y507874D01*
X443185Y508802D01*
X442659Y509588D01*
X441873Y510114D01*
X441353Y510217D01*
Y510727D01*
X441479Y510752D01*
X442266Y511278D01*
X442791Y512064D01*
X442976Y512992D01*
X442791Y513920D01*
X442466Y514406D01*
X442734Y514906D01*
X473945D01*
X474269Y514689D01*
X475197Y514505D01*
X476125Y514689D01*
X476449Y514906D01*
X512627D01*
X515577Y511955D01*
X516234Y511517D01*
X517008Y511363D01*
X549606D01*
X550381Y511517D01*
X551037Y511955D01*
X553892Y514810D01*
X554471Y514925D01*
X555258Y515451D01*
X555783Y516237D01*
X555968Y517165D01*
X555783Y518093D01*
X555258Y518880D01*
X554471Y519405D01*
X553543Y519590D01*
X552615Y519405D01*
X551829Y518880D01*
X551303Y518093D01*
X551266Y517907D01*
X548768Y515409D01*
X545831D01*
X545564Y515909D01*
X545783Y516237D01*
X545968Y517165D01*
X545783Y518093D01*
X545258Y518880D01*
X544471Y519405D01*
X543543Y519590D01*
X542616Y519405D01*
X541829Y518880D01*
X541303Y518093D01*
X541119Y517165D01*
X541303Y516237D01*
X541523Y515909D01*
X541256Y515409D01*
X535831D01*
X535564Y515909D01*
X535783Y516237D01*
X535968Y517165D01*
X535783Y518093D01*
X535258Y518880D01*
X534471Y519405D01*
X533543Y519590D01*
X532616Y519405D01*
X531829Y518880D01*
X531303Y518093D01*
X531119Y517165D01*
X531303Y516237D01*
X531523Y515909D01*
X531256Y515409D01*
X525831D01*
X525564Y515909D01*
X525783Y516237D01*
X525968Y517165D01*
X525783Y518093D01*
X525258Y518880D01*
X524471Y519405D01*
X523543Y519590D01*
X522615Y519405D01*
X521829Y518880D01*
X521303Y518093D01*
X521119Y517165D01*
X521303Y516237D01*
X521523Y515909D01*
X521256Y515409D01*
X517846D01*
X515938Y517317D01*
X515783Y518093D01*
X515258Y518880D01*
X514471Y519405D01*
X513543Y519590D01*
X512615Y519405D01*
X511937Y518952D01*
X476449D01*
X476125Y519169D01*
X475197Y519354D01*
X474269Y519169D01*
X473945Y518952D01*
X416607D01*
X416282Y519169D01*
X415354Y519354D01*
X414427Y519169D01*
X413640Y518644D01*
X413114Y517857D01*
X413038Y517474D01*
X411154Y515590D01*
X407875D01*
X407612Y516090D01*
X407779Y516929D01*
X407594Y517857D01*
X407069Y518644D01*
X406282Y519169D01*
X405354Y519354D01*
X404426Y519169D01*
X403640Y518644D01*
X403114Y517857D01*
X402930Y516929D01*
X403097Y516090D01*
X402834Y515590D01*
X397875D01*
X397612Y516090D01*
X397779Y516929D01*
X397594Y517857D01*
X397069Y518644D01*
X396282Y519169D01*
X395354Y519354D01*
X394426Y519169D01*
X393640Y518644D01*
X393114Y517857D01*
X392930Y516929D01*
X393097Y516090D01*
X392834Y515590D01*
X387875D01*
X387612Y516090D01*
X387779Y516929D01*
X387594Y517857D01*
X387069Y518644D01*
X386282Y519169D01*
X385354Y519354D01*
X384426Y519169D01*
X383640Y518644D01*
X383114Y517857D01*
X382930Y516929D01*
X383097Y516090D01*
X382834Y515590D01*
X379555D01*
X377671Y517474D01*
X377594Y517857D01*
X377069Y518644D01*
X376282Y519169D01*
X375354Y519354D01*
X374427Y519169D01*
X374420Y519165D01*
X277312D01*
X277306Y519169D01*
X276378Y519354D01*
X275450Y519169D01*
X274663Y518644D01*
X274138Y517857D01*
X274062Y517474D01*
X271997Y515409D01*
X268753D01*
X268517Y515850D01*
X268618Y516001D01*
X268802Y516929D01*
X268618Y517857D01*
X268092Y518644D01*
X267306Y519169D01*
X266378Y519354D01*
X265450Y519169D01*
X264664Y518644D01*
X264138Y517857D01*
X263953Y516929D01*
X264138Y516001D01*
X264239Y515850D01*
X264003Y515409D01*
X258752D01*
X258517Y515850D01*
X258618Y516001D01*
X258803Y516929D01*
X258618Y517857D01*
X258092Y518644D01*
X257306Y519169D01*
X256378Y519354D01*
X255450Y519169D01*
X254663Y518644D01*
X254138Y517857D01*
X253953Y516929D01*
X254138Y516001D01*
X254239Y515850D01*
X254003Y515409D01*
X248752D01*
X248517Y515850D01*
X248618Y516001D01*
X248802Y516929D01*
X248618Y517857D01*
X248092Y518644D01*
X247306Y519169D01*
X246378Y519354D01*
X245450Y519169D01*
X244664Y518644D01*
X244138Y517857D01*
X243953Y516929D01*
X244138Y516001D01*
X244239Y515850D01*
X244003Y515409D01*
X240759D01*
X238694Y517474D01*
X238618Y517857D01*
X238401Y518182D01*
Y588690D01*
X253301Y603589D01*
X253684Y603665D01*
X254008Y603882D01*
X388511D01*
X388836Y603665D01*
X389764Y603481D01*
X390692Y603665D01*
X391016Y603882D01*
X526307D01*
X526631Y603665D01*
X527014Y603589D01*
X593646Y536957D01*
Y492197D01*
X593429Y491873D01*
X593245Y490945D01*
X593429Y490017D01*
X593955Y489230D01*
X594741Y488705D01*
X595669Y488520D01*
X596597Y488705D01*
X597384Y489230D01*
X597909Y490017D01*
X598094Y490945D01*
X597909Y491873D01*
X597692Y492197D01*
Y537795D01*
X597538Y538569D01*
X597100Y539226D01*
X529875Y606451D01*
X529799Y606833D01*
X529274Y607620D01*
X528487Y608146D01*
X527559Y608330D01*
D02*
G37*
G36*
X262114Y587660D02*
Y585835D01*
X263939D01*
X263854Y586263D01*
X263329Y587049D01*
X262542Y587575D01*
X262114Y587660D01*
D02*
G37*
G36*
X261114D02*
X260686Y587575D01*
X259900Y587049D01*
X259374Y586263D01*
X259289Y585835D01*
X261114D01*
Y587660D01*
D02*
G37*
G36*
X538689Y586774D02*
Y584949D01*
X540514D01*
X540429Y585377D01*
X539903Y586163D01*
X539117Y586689D01*
X538689Y586774D01*
D02*
G37*
G36*
X537689D02*
X537261Y586689D01*
X536475Y586163D01*
X535949Y585377D01*
X535864Y584949D01*
X537689D01*
Y586774D01*
D02*
G37*
G36*
X407488Y585494D02*
Y583669D01*
X409313D01*
X409228Y584097D01*
X408703Y584884D01*
X407916Y585409D01*
X407488Y585494D01*
D02*
G37*
G36*
X406488D02*
X406060Y585409D01*
X405274Y584884D01*
X404748Y584097D01*
X404663Y583669D01*
X406488D01*
Y585494D01*
D02*
G37*
G36*
X263939Y584835D02*
X262114D01*
Y583010D01*
X262542Y583095D01*
X263329Y583620D01*
X263854Y584407D01*
X263939Y584835D01*
D02*
G37*
G36*
X261114D02*
X259289D01*
X259374Y584407D01*
X259900Y583620D01*
X260686Y583095D01*
X261114Y583010D01*
Y584835D01*
D02*
G37*
G36*
X540514Y583949D02*
X538689D01*
Y582124D01*
X539117Y582209D01*
X539903Y582734D01*
X540429Y583521D01*
X540514Y583949D01*
D02*
G37*
G36*
X537689D02*
X535864D01*
X535949Y583521D01*
X536475Y582734D01*
X537261Y582209D01*
X537689Y582124D01*
Y583949D01*
D02*
G37*
G36*
X409313Y582669D02*
X407488D01*
Y580844D01*
X407916Y580929D01*
X408703Y581455D01*
X409228Y582241D01*
X409313Y582669D01*
D02*
G37*
G36*
X406488D02*
X404663D01*
X404748Y582241D01*
X405274Y581455D01*
X406060Y580929D01*
X406488Y580844D01*
Y582669D01*
D02*
G37*
G36*
X197547Y554097D02*
Y552272D01*
X199372D01*
X199287Y552700D01*
X198762Y553486D01*
X197975Y554012D01*
X197547Y554097D01*
D02*
G37*
G36*
X196547D02*
X196119Y554012D01*
X195333Y553486D01*
X194807Y552700D01*
X194722Y552272D01*
X196547D01*
Y554097D01*
D02*
G37*
G36*
X199372Y551272D02*
X197547D01*
Y549447D01*
X197975Y549532D01*
X198762Y550057D01*
X199287Y550844D01*
X199372Y551272D01*
D02*
G37*
G36*
X196547D02*
X194722D01*
X194807Y550844D01*
X195333Y550057D01*
X196119Y549532D01*
X196547Y549447D01*
Y551272D01*
D02*
G37*
G36*
X404240Y493959D02*
Y492134D01*
X406065D01*
X405980Y492562D01*
X405455Y493348D01*
X404668Y493874D01*
X404240Y493959D01*
D02*
G37*
G36*
X403240D02*
X402812Y493874D01*
X402026Y493348D01*
X401500Y492562D01*
X401415Y492134D01*
X403240D01*
Y493959D01*
D02*
G37*
G36*
X406065Y491134D02*
X404240D01*
Y489309D01*
X404668Y489394D01*
X405455Y489919D01*
X405980Y490706D01*
X406065Y491134D01*
D02*
G37*
G36*
X403240D02*
X401415D01*
X401500Y490706D01*
X402026Y489919D01*
X402812Y489394D01*
X403240Y489309D01*
Y491134D01*
D02*
G37*
G36*
X616968Y496148D02*
X615469Y495951D01*
X614072Y495372D01*
X612872Y494451D01*
X611951Y493251D01*
X611372Y491854D01*
X611175Y490354D01*
X611372Y488855D01*
X611951Y487458D01*
X612872Y486258D01*
X614072Y485337D01*
X615469Y484758D01*
X616968Y484561D01*
X618468Y484758D01*
X619865Y485337D01*
X621065Y486258D01*
X621986Y487458D01*
X622565Y488855D01*
X622762Y490354D01*
X622565Y491854D01*
X621986Y493251D01*
X621065Y494451D01*
X619865Y495372D01*
X618468Y495951D01*
X616968Y496148D01*
D02*
G37*
G36*
X485354Y490601D02*
X484323Y490465D01*
X483361Y490067D01*
X482535Y489433D01*
X481902Y488608D01*
X481503Y487646D01*
X481367Y486614D01*
X481503Y485582D01*
X481902Y484621D01*
X482535Y483795D01*
X483361Y483161D01*
X484323Y482763D01*
X485354Y482627D01*
X486386Y482763D01*
X487348Y483161D01*
X488173Y483795D01*
X488807Y484621D01*
X488999Y485085D01*
X501312D01*
X501435Y484900D01*
X502222Y484374D01*
X503150Y484190D01*
X504077Y484374D01*
X504864Y484900D01*
X505390Y485686D01*
X505574Y486614D01*
X505390Y487542D01*
X504864Y488329D01*
X504077Y488854D01*
X503150Y489039D01*
X502222Y488854D01*
X501435Y488329D01*
X501312Y488144D01*
X488999D01*
X488807Y488608D01*
X488173Y489433D01*
X487348Y490067D01*
X486386Y490465D01*
X485354Y490601D01*
D02*
G37*
G36*
X173301Y494967D02*
X171801Y494769D01*
X170404Y494191D01*
X169204Y493270D01*
X168283Y492070D01*
X167704Y490673D01*
X167507Y489173D01*
X167704Y487674D01*
X168283Y486276D01*
X169204Y485077D01*
X170404Y484156D01*
X171801Y483577D01*
X173301Y483380D01*
X174800Y483577D01*
X176198Y484156D01*
X177398Y485077D01*
X178318Y486276D01*
X178897Y487674D01*
X179094Y489173D01*
X178897Y490673D01*
X178318Y492070D01*
X177398Y493270D01*
X176198Y494191D01*
X174800Y494769D01*
X173301Y494967D01*
D02*
G37*
G36*
X469004Y480672D02*
Y478847D01*
X470829D01*
X470744Y479274D01*
X470218Y480061D01*
X469432Y480586D01*
X469004Y480672D01*
D02*
G37*
G36*
X529043Y480278D02*
Y478453D01*
X530868D01*
X530783Y478881D01*
X530258Y479667D01*
X529471Y480193D01*
X529043Y480278D01*
D02*
G37*
G36*
X528043D02*
X527615Y480193D01*
X526829Y479667D01*
X526303Y478881D01*
X526218Y478453D01*
X528043D01*
Y480278D01*
D02*
G37*
G36*
X530868Y477453D02*
X529043D01*
Y475628D01*
X529471Y475713D01*
X530258Y476238D01*
X530783Y477025D01*
X530868Y477453D01*
D02*
G37*
G36*
X528043D02*
X526218D01*
X526303Y477025D01*
X526829Y476238D01*
X527615Y475713D01*
X528043Y475628D01*
Y477453D01*
D02*
G37*
G36*
X253059Y474668D02*
Y472843D01*
X254884D01*
X254799Y473270D01*
X254274Y474057D01*
X253487Y474582D01*
X253059Y474668D01*
D02*
G37*
G36*
X252059D02*
X251631Y474582D01*
X250845Y474057D01*
X250319Y473270D01*
X250234Y472843D01*
X252059D01*
Y474668D01*
D02*
G37*
G36*
X254884Y471842D02*
X253059D01*
Y470017D01*
X253487Y470103D01*
X254274Y470628D01*
X254799Y471415D01*
X254884Y471842D01*
D02*
G37*
G36*
X252059D02*
X250234D01*
X250319Y471415D01*
X250845Y470628D01*
X251631Y470103D01*
X252059Y470017D01*
Y471842D01*
D02*
G37*
G36*
X616968Y431975D02*
X615469Y431777D01*
X614072Y431199D01*
X612872Y430278D01*
X611951Y429078D01*
X611372Y427681D01*
X611175Y426181D01*
X611372Y424682D01*
X611951Y423284D01*
X612872Y422084D01*
X614072Y421164D01*
X615469Y420585D01*
X616968Y420387D01*
X618468Y420585D01*
X619865Y421164D01*
X621065Y422084D01*
X621986Y423284D01*
X622565Y424682D01*
X622762Y426181D01*
X622565Y427681D01*
X621986Y429078D01*
X621065Y430278D01*
X619865Y431199D01*
X618468Y431777D01*
X616968Y431975D01*
D02*
G37*
G36*
X173301Y430794D02*
X171801Y430596D01*
X170404Y430018D01*
X169204Y429097D01*
X168283Y427897D01*
X167704Y426500D01*
X167507Y425000D01*
X167704Y423500D01*
X168283Y422103D01*
X169204Y420903D01*
X170404Y419982D01*
X171801Y419404D01*
X173301Y419206D01*
X174800Y419404D01*
X176198Y419982D01*
X177398Y420903D01*
X178318Y422103D01*
X178897Y423500D01*
X179094Y425000D01*
X178897Y426500D01*
X178318Y427897D01*
X177398Y429097D01*
X176198Y430018D01*
X174800Y430596D01*
X173301Y430794D01*
D02*
G37*
G36*
X613205Y412024D02*
X601756D01*
Y405693D01*
X613205D01*
Y412024D01*
D02*
G37*
G36*
X213779Y406548D02*
X212696Y406405D01*
X211687Y405987D01*
X210820Y405322D01*
X210155Y404455D01*
X209737Y403445D01*
X209594Y402362D01*
X209737Y401279D01*
X210155Y400270D01*
X210820Y399403D01*
X211687Y398738D01*
X212696Y398319D01*
X213779Y398177D01*
X214863Y398319D01*
X215872Y398738D01*
X216739Y399403D01*
X217404Y400270D01*
X217822Y401279D01*
X217965Y402362D01*
X217822Y403445D01*
X217404Y404455D01*
X216739Y405322D01*
X215872Y405987D01*
X214863Y406405D01*
X213779Y406548D01*
D02*
G37*
G36*
X178740D02*
X177657Y406405D01*
X176647Y405987D01*
X175781Y405322D01*
X175116Y404455D01*
X174697Y403445D01*
X174555Y402362D01*
X174697Y401279D01*
X175116Y400270D01*
X175781Y399403D01*
X176647Y398738D01*
X177657Y398319D01*
X178740Y398177D01*
X179823Y398319D01*
X180833Y398738D01*
X181700Y399403D01*
X182365Y400270D01*
X182783Y401279D01*
X182926Y402362D01*
X182783Y403445D01*
X182365Y404455D01*
X181700Y405322D01*
X180833Y405987D01*
X179823Y406405D01*
X178740Y406548D01*
D02*
G37*
G36*
X298425Y396869D02*
X297497Y396684D01*
X296711Y396159D01*
X296185Y395372D01*
X296001Y394444D01*
X296044Y394226D01*
X285321Y383503D01*
X285103Y383547D01*
X284175Y383362D01*
X283389Y382837D01*
X282863Y382050D01*
X282679Y381122D01*
X282863Y380194D01*
X283389Y379408D01*
X284175Y378882D01*
X285103Y378697D01*
X286031Y378882D01*
X286818Y379408D01*
X287343Y380194D01*
X287528Y381122D01*
X287484Y381340D01*
X298207Y392063D01*
X298425Y392020D01*
X299353Y392204D01*
X300140Y392730D01*
X300665Y393516D01*
X300850Y394444D01*
X300665Y395372D01*
X300140Y396159D01*
X299353Y396684D01*
X298425Y396869D01*
D02*
G37*
G36*
X213779Y396548D02*
X212696Y396405D01*
X211687Y395987D01*
X210820Y395322D01*
X210155Y394455D01*
X209737Y393445D01*
X209594Y392362D01*
X209737Y391279D01*
X210155Y390269D01*
X210820Y389403D01*
X211687Y388738D01*
X212696Y388319D01*
X213779Y388177D01*
X214863Y388319D01*
X215872Y388738D01*
X216739Y389403D01*
X217404Y390269D01*
X217822Y391279D01*
X217965Y392362D01*
X217822Y393445D01*
X217404Y394455D01*
X216739Y395322D01*
X215872Y395987D01*
X214863Y396405D01*
X213779Y396548D01*
D02*
G37*
G36*
X178740D02*
X177657Y396405D01*
X176647Y395987D01*
X175781Y395322D01*
X175116Y394455D01*
X174697Y393445D01*
X174555Y392362D01*
X174697Y391279D01*
X175116Y390269D01*
X175781Y389403D01*
X176647Y388738D01*
X177657Y388319D01*
X178740Y388177D01*
X179823Y388319D01*
X180833Y388738D01*
X181700Y389403D01*
X182365Y390269D01*
X182783Y391279D01*
X182926Y392362D01*
X182783Y393445D01*
X182365Y394455D01*
X181700Y395322D01*
X180833Y395987D01*
X179823Y396405D01*
X178740Y396548D01*
D02*
G37*
G36*
X609154Y393643D02*
X608404Y393544D01*
X607706Y393255D01*
X607107Y392795D01*
X606646Y392196D01*
X606357Y391497D01*
X606259Y390748D01*
X606357Y389999D01*
X606646Y389301D01*
X607107Y388701D01*
X607706Y388241D01*
X608404Y387952D01*
X609154Y387853D01*
X609903Y387952D01*
X610601Y388241D01*
X611201Y388701D01*
X611660Y389301D01*
X611950Y389999D01*
X612048Y390748D01*
X611950Y391497D01*
X611660Y392196D01*
X611201Y392795D01*
X610601Y393255D01*
X609903Y393544D01*
X609154Y393643D01*
D02*
G37*
G36*
X179240Y373175D02*
Y369555D01*
X182860D01*
X182783Y370138D01*
X182365Y371148D01*
X181700Y372015D01*
X180833Y372680D01*
X179823Y373098D01*
X179240Y373175D01*
D02*
G37*
G36*
X178240D02*
X177657Y373098D01*
X176647Y372680D01*
X175781Y372015D01*
X175116Y371148D01*
X174697Y370138D01*
X174621Y369555D01*
X178240D01*
Y373175D01*
D02*
G37*
G36*
X182860Y368555D02*
X179240D01*
Y364935D01*
X179823Y365012D01*
X180833Y365430D01*
X181700Y366096D01*
X182365Y366962D01*
X182783Y367972D01*
X182860Y368555D01*
D02*
G37*
G36*
X178240D02*
X174621D01*
X174697Y367972D01*
X175116Y366962D01*
X175781Y366096D01*
X176647Y365430D01*
X177657Y365012D01*
X178240Y364935D01*
Y368555D01*
D02*
G37*
G36*
X557587Y365711D02*
Y363886D01*
X559412D01*
X559327Y364314D01*
X558801Y365100D01*
X558014Y365626D01*
X557587Y365711D01*
D02*
G37*
G36*
X556587D02*
X556159Y365626D01*
X555372Y365100D01*
X554847Y364314D01*
X554762Y363886D01*
X556587D01*
Y365711D01*
D02*
G37*
G36*
X609154Y366871D02*
X608404Y366773D01*
X607706Y366483D01*
X607107Y366023D01*
X606646Y365424D01*
X606357Y364726D01*
X606259Y363976D01*
X606357Y363227D01*
X606646Y362529D01*
X607107Y361929D01*
X607706Y361469D01*
X608404Y361180D01*
X609154Y361082D01*
X609903Y361180D01*
X610601Y361469D01*
X611201Y361929D01*
X611660Y362529D01*
X611950Y363227D01*
X612048Y363976D01*
X611950Y364726D01*
X611660Y365424D01*
X611201Y366023D01*
X610601Y366483D01*
X609903Y366773D01*
X609154Y366871D01*
D02*
G37*
G36*
X178740Y363241D02*
X177657Y363098D01*
X176647Y362680D01*
X175781Y362015D01*
X175116Y361148D01*
X174697Y360138D01*
X174555Y359055D01*
X174697Y357972D01*
X175116Y356962D01*
X175781Y356096D01*
X176647Y355431D01*
X177657Y355012D01*
X178740Y354870D01*
X179823Y355012D01*
X180833Y355431D01*
X181700Y356096D01*
X182365Y356962D01*
X182783Y357972D01*
X182926Y359055D01*
X182783Y360138D01*
X182365Y361148D01*
X181700Y362015D01*
X180833Y362680D01*
X179823Y363098D01*
X178740Y363241D01*
D02*
G37*
G36*
X428703Y347532D02*
X426878D01*
Y345706D01*
X427306Y345792D01*
X428092Y346317D01*
X428618Y347104D01*
X428703Y347532D01*
D02*
G37*
G36*
X425878D02*
X424053D01*
X424138Y347104D01*
X424663Y346317D01*
X425450Y345792D01*
X425878Y345706D01*
Y347532D01*
D02*
G37*
G36*
X178740Y353240D02*
X177657Y353098D01*
X176647Y352680D01*
X175781Y352015D01*
X175116Y351148D01*
X174697Y350138D01*
X174555Y349055D01*
X174697Y347972D01*
X175116Y346962D01*
X175781Y346096D01*
X176647Y345430D01*
X177657Y345012D01*
X178740Y344870D01*
X179823Y345012D01*
X180833Y345430D01*
X181700Y346096D01*
X182365Y346962D01*
X182783Y347972D01*
X182926Y349055D01*
X182783Y350138D01*
X182365Y351148D01*
X181700Y352015D01*
X180833Y352680D01*
X179823Y353098D01*
X178740Y353240D01*
D02*
G37*
G36*
X613205Y348441D02*
X601756D01*
Y342110D01*
X613205D01*
Y348441D01*
D02*
G37*
G36*
X254232Y356854D02*
X253305Y356669D01*
X252518Y356143D01*
X251992Y355357D01*
X251808Y354429D01*
X251992Y353501D01*
X252518Y352715D01*
X252611Y352653D01*
Y345374D01*
X252734Y344753D01*
X253086Y344227D01*
X257515Y339798D01*
X258041Y339447D01*
X258661Y339323D01*
X499011D01*
X499073Y339230D01*
X499860Y338705D01*
X500787Y338520D01*
X501715Y338705D01*
X502502Y339230D01*
X503027Y340017D01*
X503212Y340945D01*
X503027Y341873D01*
X502502Y342659D01*
X501715Y343185D01*
X500787Y343369D01*
X499860Y343185D01*
X499073Y342659D01*
X499011Y342567D01*
X259333D01*
X255854Y346046D01*
Y352653D01*
X255947Y352715D01*
X256472Y353501D01*
X256657Y354429D01*
X256472Y355357D01*
X255947Y356143D01*
X255160Y356669D01*
X254232Y356854D01*
D02*
G37*
G36*
X618791Y337614D02*
X617281Y337496D01*
X615320Y337025D01*
X613457Y336253D01*
X611738Y335199D01*
X610205Y333890D01*
X608895Y332357D01*
X607841Y330637D01*
X607070Y328774D01*
X606599Y326813D01*
X606480Y325303D01*
X618791D01*
Y337614D01*
D02*
G37*
G36*
X171366D02*
Y325303D01*
X183677D01*
X183559Y326813D01*
X183088Y328774D01*
X182316Y330637D01*
X181263Y332357D01*
X179953Y333890D01*
X178420Y335199D01*
X176700Y336253D01*
X174837Y337025D01*
X172876Y337496D01*
X171366Y337614D01*
D02*
G37*
G36*
X481602Y324668D02*
Y322843D01*
X483427D01*
X483342Y323270D01*
X482817Y324057D01*
X482030Y324583D01*
X481602Y324668D01*
D02*
G37*
G36*
X480602D02*
X480174Y324583D01*
X479388Y324057D01*
X478862Y323270D01*
X478777Y322843D01*
X480602D01*
Y324668D01*
D02*
G37*
G36*
X293807D02*
Y322843D01*
X295632D01*
X295547Y323270D01*
X295022Y324057D01*
X294235Y324583D01*
X293807Y324668D01*
D02*
G37*
G36*
X292807D02*
X292379Y324583D01*
X291593Y324057D01*
X291067Y323270D01*
X290982Y322843D01*
X292807D01*
Y324668D01*
D02*
G37*
G36*
X427106Y333057D02*
X425607Y332860D01*
X424209Y332281D01*
X423010Y331361D01*
X422089Y330161D01*
X421510Y328763D01*
X421313Y327264D01*
X421510Y325764D01*
X422089Y324367D01*
X423010Y323167D01*
X424209Y322246D01*
X425607Y321668D01*
X427106Y321470D01*
X428606Y321668D01*
X430003Y322246D01*
X431203Y323167D01*
X432124Y324367D01*
X432702Y325764D01*
X432900Y327264D01*
X432702Y328763D01*
X432124Y330161D01*
X431203Y331361D01*
X430003Y332281D01*
X428606Y332860D01*
X427106Y333057D01*
D02*
G37*
G36*
X362933D02*
X361434Y332860D01*
X360036Y332281D01*
X358836Y331361D01*
X357916Y330161D01*
X357337Y328763D01*
X357139Y327264D01*
X357337Y325764D01*
X357916Y324367D01*
X358836Y323167D01*
X360036Y322246D01*
X361434Y321668D01*
X362933Y321470D01*
X364433Y321668D01*
X365830Y322246D01*
X367030Y323167D01*
X367951Y324367D01*
X368529Y325764D01*
X368727Y327264D01*
X368529Y328763D01*
X367951Y330161D01*
X367030Y331361D01*
X365830Y332281D01*
X364433Y332860D01*
X362933Y333057D01*
D02*
G37*
G36*
X483427Y321843D02*
X481602D01*
Y320017D01*
X482030Y320103D01*
X482817Y320628D01*
X483342Y321415D01*
X483427Y321843D01*
D02*
G37*
G36*
X480602D02*
X478777D01*
X478862Y321415D01*
X479388Y320628D01*
X480174Y320103D01*
X480602Y320017D01*
Y321843D01*
D02*
G37*
G36*
X295632D02*
X293807D01*
Y320017D01*
X294235Y320103D01*
X295022Y320628D01*
X295547Y321415D01*
X295632Y321843D01*
D02*
G37*
G36*
X292807D02*
X290982D01*
X291067Y321415D01*
X291593Y320628D01*
X292379Y320103D01*
X292807Y320017D01*
Y321843D01*
D02*
G37*
%LPD*%
D10*
X322598Y446614D02*
X475354Y446614D01*
X317717Y441732D02*
X322598Y446614D01*
X300787Y441732D02*
X317717D01*
X322146D02*
X489370D01*
X317028Y436614D02*
X322146Y441732D01*
X315354Y436614D02*
X317028D01*
X322441D02*
X475354D01*
X317717Y431890D02*
X322441Y436614D01*
X303543Y431890D02*
X317717D01*
X310640Y401067D02*
X317437D01*
X306187Y396614D02*
X310640Y401067D01*
X305354Y396614D02*
X306187D01*
X279195Y492520D02*
X326772D01*
X217323Y481890D02*
X323228D01*
X212598Y486614D02*
X217323Y481890D01*
X345335Y511083D02*
X413021D01*
X345276Y511024D02*
X345335Y511083D01*
X413021D02*
X414931Y512992D01*
X440551D01*
X324088Y501181D02*
X341108Y484161D01*
X273228Y501181D02*
X324088D01*
X287402Y498032D02*
X324410D01*
X465194Y400455D02*
X475492Y390158D01*
X487402D01*
X493307Y396063D01*
X518898D01*
X351673Y381004D02*
X564173D01*
X321260Y411417D02*
X351673Y381004D01*
X352836Y384565D02*
X485354D01*
X555511Y501574D02*
X556692D01*
X550394Y496457D02*
X555511Y501574D01*
X433858Y496457D02*
X550394D01*
X332677Y500787D02*
X490158D01*
X310551Y461417D02*
X457874D01*
X356614Y507874D02*
X440945D01*
X346185Y504996D02*
X570988D01*
X315354Y456614D02*
X460709D01*
X305354Y466614D02*
X310551Y461417D01*
X500486Y407067D02*
X554444D01*
X583102Y415386D02*
X590158Y422441D01*
X566101Y415386D02*
X583102D01*
X554651Y403936D02*
X566101Y415386D01*
X494487Y403936D02*
X554651D01*
X554444Y407067D02*
X576378Y429001D01*
Y429134D01*
X566929Y413386D02*
X585433D01*
X554601Y401058D02*
X566929Y413386D01*
X493295Y401058D02*
X554601D01*
X493286Y401067D02*
X493295Y401058D01*
X483510Y401067D02*
X493286D01*
X480158Y411811D02*
X555118D01*
X568504Y425197D01*
X475354Y416614D02*
X480158Y411811D01*
X472720Y422161D02*
X489878D01*
X479843Y431102D02*
X554724D01*
X481843Y433102D02*
X485354Y436614D01*
X479014Y433102D02*
X481843D01*
X468268Y426614D02*
X472720Y422161D01*
X459449Y465354D02*
X468504Y456299D01*
X592520Y437795D02*
X595669Y440945D01*
X568898Y437795D02*
X592520D01*
X557717Y426614D02*
X568898Y437795D01*
X485354Y486614D02*
X503150D01*
X344882Y506299D02*
X346185Y504996D01*
X339764Y465354D02*
X459449D01*
X323228Y481890D02*
X339764Y465354D01*
X470358Y472161D02*
X476104D01*
X460358Y482161D02*
X470358Y472161D01*
X340280Y482161D02*
X460358D01*
X470394Y466614D02*
X475354D01*
X460236Y476772D02*
X470394Y466614D01*
X342520Y476772D02*
X460236D01*
X326772Y492520D02*
X342520Y476772D01*
X315354Y396614D02*
X351339Y360630D01*
X417850D01*
X352362Y364567D02*
X492913Y364567D01*
X417850Y360630D02*
X427790Y350689D01*
X564173D01*
X305354Y456614D02*
X310000Y451968D01*
X285103Y381122D02*
X298425Y394444D01*
X283465Y451968D02*
X303543Y431890D01*
X283465Y451968D02*
Y462992D01*
X321654Y431102D02*
X477014Y431102D01*
X479014Y433102D01*
X554724Y431102D02*
X564173Y440551D01*
X475354Y426614D02*
X479843Y431102D01*
X479221Y396778D02*
X483510Y401067D01*
X480315Y401575D02*
X485354Y406614D01*
X472047Y401575D02*
X480315D01*
X291339Y451181D02*
Y455512D01*
Y451181D02*
X300787Y441732D01*
X489370D02*
X494488Y446850D01*
X462205Y411417D02*
X472047Y401575D01*
X489878Y422161D02*
X494331Y426614D01*
X327559Y411417D02*
X462205D01*
X316929Y422047D02*
X327559Y411417D01*
X310000Y451968D02*
X491339Y451968D01*
X503543Y464173D01*
X577559D01*
X494488Y446850D02*
X590158D01*
X494331Y426614D02*
X557717D01*
X590158Y446850D02*
X595669Y452362D01*
X315354Y426614D02*
X468268D01*
X183858Y422047D02*
X316929Y422047D01*
X352756Y384646D02*
X352836Y384565D01*
X466240Y359350D02*
X564173D01*
X570988Y504996D02*
X587008Y488976D01*
Y462205D02*
Y488976D01*
X323622Y402756D02*
X349705Y376673D01*
X317437Y401067D02*
X350492Y368012D01*
X564173D01*
X349705Y376673D02*
X564173Y376673D01*
X503150Y372441D02*
X564075D01*
X564173Y372342D01*
X577559Y452756D02*
X587008Y462205D01*
X479921Y461181D02*
Y468344D01*
X341108Y484161D02*
X471510D01*
X473510Y482161D01*
X478410D01*
X483018Y477553D01*
X484416D01*
X485354Y476614D01*
X476104Y472161D02*
X479921Y468344D01*
X324410Y498032D02*
X340280Y482161D01*
X475354Y456614D02*
X479921Y461181D01*
X475519Y396778D02*
X479221D01*
X475354Y396614D02*
X475519Y396778D01*
X310157Y411417D02*
X321260D01*
X305354Y406614D02*
X310157Y411417D01*
X543937Y516457D02*
X544016Y516378D01*
X543937Y516457D02*
Y517165D01*
X534016Y516378D02*
Y517165D01*
X523858Y516535D02*
X524016Y516378D01*
X523858Y516535D02*
Y517165D01*
D11*
X258661Y340945D02*
X500787D01*
X254232Y345374D02*
X258661Y340945D01*
X254232Y345374D02*
Y354429D01*
D13*
X577461Y406496D02*
X602067D01*
X577362Y347638D02*
X602165D01*
X624803D02*
Y406496D01*
X612894D02*
X624803D01*
X612894Y347638D02*
X624803D01*
X155118Y324803D02*
G03*
X170866Y309055I15748J0D01*
G01*
X619291D02*
G03*
X635039Y324803I0J15748D01*
G01*
Y687008D02*
G03*
X619291Y702756I-15748J0D01*
G01*
X170866D02*
G03*
X155118Y687008I0J-15748D01*
G01*
X170866Y309055D02*
X619291Y309055D01*
X170866Y702756D02*
X619291Y702756D01*
X155118Y324803D02*
X155118Y687008D01*
X635039Y324803D02*
X635039Y687008D01*
X271260Y379921D02*
G03*
X271260Y379921I-1969J0D01*
G01*
X540354Y603346D02*
G03*
X540354Y603346I-1969J0D01*
G01*
X402559D02*
G03*
X402559Y603346I-1969J0D01*
G01*
X264764D02*
G03*
X264764Y603346I-1969J0D01*
G01*
X211910Y374606D02*
Y381299D01*
X215650Y374606D02*
Y381299D01*
X211910D02*
X215650D01*
X211910Y374606D02*
X215650D01*
X194095Y374803D02*
Y381890D01*
X198031Y374803D02*
Y381890D01*
X194095D02*
X198031D01*
X194095Y374803D02*
X198031D01*
X239567Y387598D02*
X243110D01*
X239567Y394291D02*
X243110D01*
Y387598D02*
Y394291D01*
X239567Y387598D02*
Y394291D01*
X243701Y656791D02*
Y665256D01*
X249213Y656791D02*
Y665256D01*
X243701D02*
X249213D01*
X243701Y656791D02*
X249213D01*
X272835Y363779D02*
Y383465D01*
X257087Y363779D02*
Y383465D01*
X272835D01*
X257087Y363779D02*
X272835D01*
X524213Y586811D02*
X541929D01*
X524213Y606890D02*
X541929D01*
X524213Y586811D02*
Y606890D01*
X541929Y586811D02*
Y606890D01*
X386417Y586811D02*
X404134D01*
X386417Y606890D02*
X404134D01*
X386417Y586811D02*
Y606890D01*
X404134Y586811D02*
Y606890D01*
X248622Y586811D02*
X266339D01*
X248622Y606890D02*
X266339D01*
X248622Y586811D02*
Y606890D01*
X266339Y586811D02*
Y606890D01*
X290354Y382874D02*
X297047D01*
X290354Y379331D02*
X297047D01*
Y382874D01*
X290354Y379331D02*
Y382874D01*
X540945Y656398D02*
X546457D01*
X540945Y664862D02*
X546457D01*
Y656398D02*
Y664862D01*
X540945Y656398D02*
Y664862D01*
X550787Y656398D02*
X556299D01*
X550787Y664862D02*
X556299D01*
Y656398D02*
Y664862D01*
X550787Y656398D02*
Y664862D01*
X540945Y540846D02*
X546457D01*
X540945Y532382D02*
X546457D01*
X540945D02*
Y540846D01*
X546457Y532382D02*
Y540846D01*
X531102D02*
X536614D01*
X531102Y532382D02*
X536614D01*
X531102D02*
Y540846D01*
X536614Y532382D02*
Y540846D01*
X520866D02*
X526378D01*
X520866Y532382D02*
X526378D01*
X520866D02*
Y540846D01*
X526378Y532382D02*
Y540846D01*
X511024Y656398D02*
X516535D01*
X511024Y664862D02*
X516535D01*
Y656398D02*
Y664862D01*
X511024Y656398D02*
Y664862D01*
X520866Y656398D02*
X526378D01*
X520866Y664862D02*
X526378D01*
Y656398D02*
Y664862D01*
X520866Y656398D02*
Y664862D01*
X402362Y657185D02*
X407874D01*
X402362Y665650D02*
X407874D01*
Y657185D02*
Y665650D01*
X402362Y657185D02*
Y665650D01*
X263386Y656791D02*
X268898D01*
X263386Y665256D02*
X268898D01*
Y656791D02*
Y665256D01*
X263386Y656791D02*
Y665256D01*
X412598Y657185D02*
X418110D01*
X412598Y665650D02*
X418110D01*
Y657185D02*
Y665650D01*
X412598Y657185D02*
Y665650D01*
X273622Y656791D02*
X279134D01*
X273622Y665256D02*
X279134D01*
Y656791D02*
Y665256D01*
X273622Y656791D02*
Y665256D01*
X402362Y538878D02*
X407874D01*
X402362Y530413D02*
X407874D01*
X402362D02*
Y538878D01*
X407874Y530413D02*
Y538878D01*
X263779Y539272D02*
X269291D01*
X263779Y530807D02*
X269291D01*
X263779D02*
Y539272D01*
X269291Y530807D02*
Y539272D01*
X392913Y538878D02*
X398425D01*
X392913Y530413D02*
X398425D01*
X392913D02*
Y538878D01*
X398425Y530413D02*
Y538878D01*
X253543Y539272D02*
X259055D01*
X253543Y530807D02*
X259055D01*
X253543D02*
Y539272D01*
X259055Y530807D02*
Y539272D01*
X382677Y538878D02*
X388189D01*
X382677Y530413D02*
X388189D01*
X382677D02*
Y538878D01*
X388189Y530413D02*
Y538878D01*
X243701Y539272D02*
X249213D01*
X243701Y530807D02*
X249213D01*
X243701D02*
Y539272D01*
X249213Y530807D02*
Y539272D01*
X372441Y656791D02*
X377953D01*
X372441Y665256D02*
X377953D01*
Y656791D02*
Y665256D01*
X372441Y656791D02*
Y665256D01*
X233465Y656791D02*
X238976D01*
X233465Y665256D02*
X238976D01*
Y656791D02*
Y665256D01*
X233465Y656791D02*
Y665256D01*
X382677Y657185D02*
X388189D01*
X382677Y665650D02*
X388189D01*
Y657185D02*
Y665650D01*
X382677Y657185D02*
Y665650D01*
X296752Y369390D02*
Y373130D01*
X289862Y369390D02*
Y373130D01*
X296752D01*
X289862Y369390D02*
X296752D01*
X211910Y377953D02*
X215650D01*
X213779Y376083D02*
Y379823D01*
X194095Y378346D02*
X198031D01*
X196063Y376378D02*
Y380315D01*
X241339Y389173D02*
Y392717D01*
X239567Y390945D02*
X243110D01*
X244488Y661024D02*
X248425D01*
X246457Y659055D02*
Y662992D01*
X262992Y373622D02*
X266929D01*
X264961Y371654D02*
Y375590D01*
X533071Y594882D02*
Y598819D01*
X531102Y596850D02*
X535039D01*
X395276Y594882D02*
Y598819D01*
X393307Y596850D02*
X397244D01*
X257480Y594882D02*
Y598819D01*
X255512Y596850D02*
X259449D01*
X293701Y379331D02*
Y382874D01*
X291929Y381102D02*
X295472D01*
X543701Y658661D02*
Y662598D01*
X541732Y660630D02*
X545669D01*
X553543Y658661D02*
Y662598D01*
X551575Y660630D02*
X555512D01*
X543701Y534646D02*
Y538583D01*
X541732Y536614D02*
X545669D01*
X533858Y534646D02*
Y538583D01*
X531890Y536614D02*
X535827D01*
X523622Y534646D02*
Y538583D01*
X521654Y536614D02*
X525591D01*
X513779Y658661D02*
Y662598D01*
X511811Y660630D02*
X515748D01*
X523622Y658661D02*
Y662598D01*
X521654Y660630D02*
X525591D01*
X405118Y659449D02*
Y663386D01*
X403150Y661417D02*
X407087D01*
X266142Y659055D02*
Y662992D01*
X264173Y661024D02*
X268110D01*
X415354Y659449D02*
Y663386D01*
X413386Y661417D02*
X417323D01*
X276378Y659055D02*
Y662992D01*
X274410Y661024D02*
X278346D01*
X405118Y532677D02*
Y536614D01*
X403150Y534646D02*
X407087D01*
X266535Y533071D02*
Y537008D01*
X264567Y535039D02*
X268504D01*
X395669Y532677D02*
Y536614D01*
X393701Y534646D02*
X397638D01*
X256299Y533071D02*
Y537008D01*
X254331Y535039D02*
X258268D01*
X385433Y532677D02*
Y536614D01*
X383465Y534646D02*
X387402D01*
X246457Y533071D02*
Y537008D01*
X244488Y535039D02*
X248425D01*
X375197Y659055D02*
Y662992D01*
X373228Y661024D02*
X377165D01*
X236221Y659055D02*
Y662992D01*
X234252Y661024D02*
X238189D01*
X385433Y659449D02*
Y663386D01*
X383465Y661417D02*
X387402D01*
X291437Y371260D02*
X295177D01*
X293307Y369390D02*
Y373130D01*
D14*
X585925Y367814D02*
D03*
D15*
X210827Y372835D02*
Y383071D01*
X216732Y372835D02*
Y383071D01*
X210827D02*
X216732D01*
X210827Y372835D02*
X216732D01*
X193110Y372441D02*
Y384252D01*
X199016Y372441D02*
Y384252D01*
X193110D02*
X199016D01*
X193110Y372441D02*
X199016D01*
X238583Y385236D02*
X244094D01*
X238583Y396654D02*
X244094D01*
Y385236D02*
Y396654D01*
X238583Y385236D02*
Y396654D01*
X242717Y654331D02*
Y667717D01*
X250197Y654331D02*
Y667717D01*
X242717D02*
X250197D01*
X242717Y654331D02*
X250197D01*
X279528Y362795D02*
Y384449D01*
X250394Y362795D02*
Y384449D01*
X279528D01*
X250394Y362795D02*
X279528D01*
X517717Y585827D02*
X548425D01*
X517717Y607874D02*
X548425D01*
X517717Y585827D02*
Y607874D01*
X548425Y585827D02*
Y607874D01*
X379921Y585827D02*
X410630D01*
X379921Y607874D02*
X410630D01*
X379921Y585827D02*
Y607874D01*
X410630Y585827D02*
Y607874D01*
X242126Y585827D02*
X272835D01*
X242126Y607874D02*
X272835D01*
X242126Y585827D02*
Y607874D01*
X272835Y585827D02*
Y607874D01*
X287992Y383858D02*
X299410D01*
X287992Y378346D02*
X299410D01*
Y383858D01*
X287992Y378346D02*
Y383858D01*
X539961Y653937D02*
X547441D01*
X539961Y667323D02*
X547441D01*
Y653937D02*
Y667323D01*
X539961Y653937D02*
Y667323D01*
X549803Y653937D02*
X557283D01*
X549803Y667323D02*
X557283D01*
Y653937D02*
Y667323D01*
X549803Y653937D02*
Y667323D01*
X539961Y543307D02*
X547441D01*
X539961Y529921D02*
X547441D01*
X539961D02*
Y543307D01*
X547441Y529921D02*
Y543307D01*
X530118D02*
X537598D01*
X530118Y529921D02*
X537598D01*
X530118D02*
Y543307D01*
X537598Y529921D02*
Y543307D01*
X519882D02*
X527362D01*
X519882Y529921D02*
X527362D01*
X519882D02*
Y543307D01*
X527362Y529921D02*
Y543307D01*
X510039Y653937D02*
X517520D01*
X510039Y667323D02*
X517520D01*
Y653937D02*
Y667323D01*
X510039Y653937D02*
Y667323D01*
X519882Y653937D02*
X527362D01*
X519882Y667323D02*
X527362D01*
Y653937D02*
Y667323D01*
X519882Y653937D02*
Y667323D01*
X401378Y654724D02*
X408858D01*
X401378Y668110D02*
X408858D01*
Y654724D02*
Y668110D01*
X401378Y654724D02*
Y668110D01*
X262402Y654331D02*
X269882D01*
X262402Y667717D02*
X269882D01*
Y654331D02*
Y667717D01*
X262402Y654331D02*
Y667717D01*
X411614Y654724D02*
X419095D01*
X411614Y668110D02*
X419095D01*
Y654724D02*
Y668110D01*
X411614Y654724D02*
Y668110D01*
X272638Y654331D02*
X280118D01*
X272638Y667717D02*
X280118D01*
Y654331D02*
Y667717D01*
X272638Y654331D02*
Y667717D01*
X401378Y541339D02*
X408858D01*
X401378Y527953D02*
X408858D01*
X401378D02*
Y541339D01*
X408858Y527953D02*
Y541339D01*
X262795Y541732D02*
X270276D01*
X262795Y528346D02*
X270276D01*
X262795D02*
Y541732D01*
X270276Y528346D02*
Y541732D01*
X391929Y541339D02*
X399409D01*
X391929Y527953D02*
X399409D01*
X391929D02*
Y541339D01*
X399409Y527953D02*
Y541339D01*
X252559Y541732D02*
X260039D01*
X252559Y528346D02*
X260039D01*
X252559D02*
Y541732D01*
X260039Y528346D02*
Y541732D01*
X381693Y541339D02*
X389173D01*
X381693Y527953D02*
X389173D01*
X381693D02*
Y541339D01*
X389173Y527953D02*
Y541339D01*
X242717Y541732D02*
X250197D01*
X242717Y528346D02*
X250197D01*
X242717D02*
Y541732D01*
X250197Y528346D02*
Y541732D01*
X371457Y654331D02*
X378937D01*
X371457Y667717D02*
X378937D01*
Y654331D02*
Y667717D01*
X371457Y654331D02*
Y667717D01*
X232480Y654331D02*
X239961D01*
X232480Y667717D02*
X239961D01*
Y654331D02*
Y667717D01*
X232480Y654331D02*
Y667717D01*
X381693Y654724D02*
X389173D01*
X381693Y668110D02*
X389173D01*
Y654724D02*
Y668110D01*
X381693Y654724D02*
Y668110D01*
X299213Y368307D02*
Y374213D01*
X287402Y368307D02*
Y374213D01*
X299213D01*
X287402Y368307D02*
X299213D01*
D16*
X607480Y345276D02*
D03*
Y408858D02*
D03*
X572047D02*
D03*
Y345276D02*
D03*
D17*
X564173Y385335D02*
D03*
Y368012D02*
D03*
Y376673D02*
D03*
Y381004D02*
D03*
Y372342D02*
D03*
Y363681D02*
D03*
Y359350D02*
D03*
Y355020D02*
D03*
Y350689D02*
D03*
D27*
X375354Y516929D02*
X378716Y513567D01*
X375142Y517142D02*
X375354Y516929D01*
X203937Y433071D02*
Y484488D01*
X236378Y516929D01*
X275984Y354330D02*
X277166D01*
X278346Y353150D01*
X391339Y357874D02*
X401181Y348031D01*
X273228Y357874D02*
X391339Y357874D01*
X271260Y355906D02*
X273228Y357874D01*
X384252Y353150D02*
X389370Y348031D01*
X411992Y513567D02*
X415354Y516929D01*
X378716Y513567D02*
X411992D01*
X278346Y353150D02*
X384252Y353150D01*
X595669Y490945D02*
Y537795D01*
X527559Y605905D02*
X595669Y537795D01*
X415354Y516929D02*
X475197D01*
X513465D01*
X276591Y517142D02*
X375142D01*
X276378Y516929D02*
X276591Y517142D01*
X272835Y513386D02*
X276378Y516929D01*
X549606Y513386D02*
X553150Y516929D01*
X517008Y513386D02*
X549606D01*
X513465Y516929D02*
X517008Y513386D01*
X239921D02*
X272835D01*
X236378Y516929D02*
X239921Y513386D01*
X236378Y516929D02*
Y589528D01*
X252756Y605905D01*
X389764D01*
X527559D01*
D28*
X213779Y402362D02*
D03*
Y392362D02*
D03*
X178740Y402362D02*
D03*
Y392362D02*
D03*
Y369055D02*
D03*
Y359055D02*
D03*
Y349055D02*
D03*
D29*
X485354Y486614D02*
D03*
Y476614D02*
D03*
Y466614D02*
D03*
Y456614D02*
D03*
Y446614D02*
D03*
Y436614D02*
D03*
Y426614D02*
D03*
Y416614D02*
D03*
Y406614D02*
D03*
Y396614D02*
D03*
X475354Y486614D02*
D03*
Y476614D02*
D03*
Y466614D02*
D03*
Y456614D02*
D03*
Y446614D02*
D03*
Y436614D02*
D03*
Y426614D02*
D03*
Y416614D02*
D03*
Y406614D02*
D03*
Y396614D02*
D03*
X315354Y486614D02*
D03*
Y476614D02*
D03*
Y466614D02*
D03*
Y456614D02*
D03*
Y446614D02*
D03*
Y436614D02*
D03*
Y426614D02*
D03*
Y416614D02*
D03*
Y406614D02*
D03*
Y396614D02*
D03*
X305354Y486614D02*
D03*
Y476614D02*
D03*
Y466614D02*
D03*
Y456614D02*
D03*
Y446614D02*
D03*
Y436614D02*
D03*
Y426614D02*
D03*
Y416614D02*
D03*
Y406614D02*
D03*
Y396614D02*
D03*
D30*
X523543Y517165D02*
D03*
Y677165D02*
D03*
X533543Y517165D02*
D03*
Y677165D02*
D03*
X543543Y517165D02*
D03*
Y677165D02*
D03*
X513543Y517165D02*
D03*
Y677165D02*
D03*
X553543Y517165D02*
D03*
Y677165D02*
D03*
X385354Y516929D02*
D03*
Y676929D02*
D03*
X395354Y516929D02*
D03*
Y676929D02*
D03*
X405354Y516929D02*
D03*
Y676929D02*
D03*
X375354Y516929D02*
D03*
Y676929D02*
D03*
X415354Y516929D02*
D03*
Y676929D02*
D03*
X246378Y516929D02*
D03*
Y676929D02*
D03*
X256378Y516929D02*
D03*
Y676929D02*
D03*
X266378Y516929D02*
D03*
Y676929D02*
D03*
X236378Y516929D02*
D03*
Y676929D02*
D03*
X276378Y516929D02*
D03*
Y676929D02*
D03*
D31*
X481102Y322342D02*
D03*
X293307D02*
D03*
X596555Y614567D02*
D03*
X197047Y618405D02*
D03*
Y551772D02*
D03*
X252559Y472342D02*
D03*
X528543Y477953D02*
D03*
X403740Y491634D02*
D03*
X467028Y635335D02*
D03*
Y677067D02*
D03*
X326575Y635433D02*
D03*
Y677067D02*
D03*
X440551Y512992D02*
D03*
X273228Y501181D02*
D03*
X287402Y498032D02*
D03*
X279195Y492581D02*
D03*
X203937Y433071D02*
D03*
X465194Y400455D02*
D03*
X518898Y396063D02*
D03*
X485354Y384567D02*
D03*
X556692Y501574D02*
D03*
X433858Y496457D02*
D03*
X490158Y500787D02*
D03*
X457874Y461417D02*
D03*
X440945Y507874D02*
D03*
X460709Y456614D02*
D03*
X590158Y422441D02*
D03*
X585433Y413386D02*
D03*
X494487Y403936D02*
D03*
X500486Y407067D02*
D03*
X468504Y456299D02*
D03*
X332677Y500787D02*
D03*
X503150Y486614D02*
D03*
X576378Y429134D02*
D03*
X351969Y364567D02*
D03*
X275984Y354330D02*
D03*
X500787Y340945D02*
D03*
X254232Y354429D02*
D03*
X212598Y486614D02*
D03*
X389370Y348031D02*
D03*
X271260Y355512D02*
D03*
X345276Y511024D02*
D03*
X356614Y507874D02*
D03*
X401181Y348031D02*
D03*
X261614Y585335D02*
D03*
X538189Y584449D02*
D03*
X285103Y381122D02*
D03*
X298425Y394444D02*
D03*
X321654Y431102D02*
D03*
X568504Y425197D02*
D03*
X283465Y462992D02*
D03*
X577559Y464173D02*
D03*
X291339Y455512D02*
D03*
X564173Y440551D02*
D03*
X557087Y363386D02*
D03*
X183858Y422047D02*
D03*
X352836Y384565D02*
D03*
X492913Y364567D02*
D03*
X466240Y359350D02*
D03*
X595669Y490945D02*
D03*
X323622Y402756D02*
D03*
X503150Y372441D02*
D03*
X577559Y452756D02*
D03*
X344882Y506299D02*
D03*
X595669Y440945D02*
D03*
Y452362D02*
D03*
X475197Y516929D02*
D03*
X468504Y478346D02*
D03*
X406988Y583169D02*
D03*
X426378Y348031D02*
D03*
X527559Y605905D02*
D03*
X389764D02*
D03*
X252756D02*
D03*
D32*
X616968Y426181D02*
D03*
Y490354D02*
D03*
X173301Y425000D02*
D03*
Y489173D02*
D03*
X427106Y327264D02*
D03*
X362933D02*
D03*
D33*
X609154Y390748D02*
D03*
Y363976D02*
D03*
D34*
X619291Y324803D02*
D03*
Y687008D02*
D03*
X170866D02*
D03*
Y324803D02*
D03*
M02*
