G04*
G04 #@! TF.GenerationSoftware,Altium Limited,Altium Designer,18.1.11 (251)*
G04*
G04 Layer_Color=32768*
%FSLAX25Y25*%
%MOIN*%
G70*
G01*
G75*
%ADD45C,0.00394*%
%ADD46C,0.00197*%
D45*
X257480Y100492D02*
X261417D01*
X259449Y98524D02*
Y102461D01*
X176196Y40945D02*
X180132D01*
X178164Y38976D02*
Y42913D01*
X158164Y24409D02*
Y28346D01*
X156195Y26378D02*
X160133D01*
X190354Y49213D02*
X193898D01*
X192126Y47441D02*
Y50984D01*
X159646Y57480D02*
X163189D01*
X161417Y55709D02*
Y59252D01*
X185630Y68898D02*
X189173D01*
X187402Y67126D02*
Y70669D01*
X232283Y7283D02*
Y10827D01*
X230512Y9055D02*
X234055D01*
X238583Y7283D02*
Y10827D01*
X236811Y9055D02*
X240354D01*
X158268Y31102D02*
Y35039D01*
X156299Y33071D02*
X160236D01*
X160630Y48425D02*
Y52362D01*
X158661Y50394D02*
X162598D01*
X188189Y59842D02*
Y63779D01*
X186221Y61811D02*
X190157D01*
X33465Y43307D02*
Y47244D01*
X31496Y45276D02*
X35433D01*
X57480Y43307D02*
Y47244D01*
X55512Y45276D02*
X59449D01*
X80079Y45276D02*
X84016D01*
X82047Y43307D02*
Y47244D01*
X289370Y93307D02*
Y97244D01*
X287402Y95276D02*
X291339D01*
X289370Y105512D02*
Y109449D01*
X287402Y107480D02*
X291339D01*
X297638Y105512D02*
Y109449D01*
X295669Y107480D02*
X299606D01*
X198362Y72441D02*
X202299D01*
X200330Y70472D02*
Y74409D01*
X190945Y90945D02*
X194882D01*
X192913Y88976D02*
Y92913D01*
X187795Y105905D02*
Y109843D01*
X185827Y107874D02*
X189764D01*
X81496Y107874D02*
X85433D01*
X83465Y105905D02*
Y109843D01*
X91339Y107874D02*
X95276D01*
X93307Y105905D02*
Y109843D01*
X54055Y98130D02*
Y102067D01*
X52087Y100098D02*
X56024D01*
X155118Y100492D02*
X159055D01*
X157087Y98524D02*
Y102461D01*
D46*
X281594Y78347D02*
Y122638D01*
X237303Y78347D02*
Y122638D01*
Y78347D02*
X281594D01*
X237303Y122638D02*
X281594D01*
X170880Y28445D02*
Y53445D01*
X185448Y28445D02*
Y53445D01*
X170880Y28445D02*
X185448D01*
X170880Y53445D02*
X185448D01*
X151668Y30118D02*
X164660D01*
X151668Y22638D02*
X164660D01*
X151668D02*
Y30118D01*
X164660Y22638D02*
Y30118D01*
X189173Y43307D02*
Y55118D01*
X195079Y43307D02*
Y55118D01*
X189173Y43307D02*
X195079D01*
X189173Y55118D02*
X195079D01*
X155512Y54528D02*
Y60433D01*
X167323Y54528D02*
Y60433D01*
X155512D02*
X167323D01*
X155512Y54528D02*
X167323D01*
X193307Y65945D02*
Y71850D01*
X181496Y65945D02*
Y71850D01*
Y65945D02*
X193307D01*
X181496Y71850D02*
X193307D01*
X229331Y3150D02*
X235236D01*
X229331Y14961D02*
X235236D01*
X229331Y3150D02*
Y14961D01*
X235236Y3150D02*
Y14961D01*
X235630Y3150D02*
X241535D01*
X235630Y14961D02*
X241535D01*
X235630Y3150D02*
Y14961D01*
X241535Y3150D02*
Y14961D01*
X151772Y36811D02*
X164764D01*
X151772Y29331D02*
X164764D01*
X151772D02*
Y36811D01*
X164764Y29331D02*
Y36811D01*
X154134Y46654D02*
X167126D01*
X154134Y54134D02*
X167126D01*
Y46654D02*
Y54134D01*
X154134Y46654D02*
Y54134D01*
X181693Y65551D02*
X194685D01*
X181693Y58071D02*
X194685D01*
X181693D02*
Y65551D01*
X194685Y58071D02*
Y65551D01*
X29724Y38780D02*
X37205D01*
X29724Y51772D02*
X37205D01*
X29724Y38780D02*
Y51772D01*
X37205Y38780D02*
Y51772D01*
X53740Y38780D02*
X61221D01*
X53740Y51772D02*
X61221D01*
X53740Y38780D02*
Y51772D01*
X61221Y38780D02*
Y51772D01*
X85787Y38780D02*
Y51772D01*
X78307Y38780D02*
Y51772D01*
X85787D01*
X78307Y38780D02*
X85787D01*
X285630Y101772D02*
X293110D01*
X285630Y88779D02*
X293110D01*
Y101772D01*
X285630Y88779D02*
Y101772D01*
Y113976D02*
X293110D01*
X285630Y100984D02*
X293110D01*
Y113976D01*
X285630Y100984D02*
Y113976D01*
X293898Y100984D02*
X301378D01*
X293898Y113976D02*
X301378D01*
X293898Y100984D02*
Y113976D01*
X301378Y100984D02*
Y113976D01*
X204070Y65945D02*
Y78937D01*
X196590Y65945D02*
Y78937D01*
X204070D01*
X196590Y65945D02*
X204070D01*
X196653Y84449D02*
Y97441D01*
X189173Y84449D02*
Y97441D01*
X196653D01*
X189173Y84449D02*
X196653D01*
X184055Y114370D02*
X191535D01*
X184055Y101378D02*
X191535D01*
Y114370D01*
X184055Y101378D02*
Y114370D01*
X79724Y101378D02*
Y114370D01*
X87205Y101378D02*
Y114370D01*
X79724Y101378D02*
X87205D01*
X79724Y114370D02*
X87205D01*
X97047Y101378D02*
Y114370D01*
X89567Y101378D02*
Y114370D01*
X97047D01*
X89567Y101378D02*
X97047D01*
X31909Y122244D02*
X76201D01*
X31909Y77953D02*
X76201D01*
X31909D02*
Y122244D01*
X76201Y77953D02*
Y122244D01*
X179232Y78347D02*
Y122638D01*
X134941Y78347D02*
Y122638D01*
Y78347D02*
X179232D01*
X134941Y122638D02*
X179232D01*
M02*
