M48
;Layer_Color=9474304
;FILE_FORMAT=2:5
INCH,LZ
;TYPE=PLATED
T1F00S00C0.01968
T2F00S00C0.02756
T3F00S00C0.03740
T4F00S00C0.04016
T5F00S00C0.09488
T6F00S00C0.15748
%
T01
X0251575Y0389764
X0242126Y0401575
X0305118Y0411417
X0295276Y0436221
X0286614Y0463386
X0285433Y0468504
X0279528Y0460236
X0354724Y0444882
X0377165Y0348425
X0412598
X0646949Y0475984
X0641732Y0494882
X0632677Y0501181
Y0512697
X0641339Y0524409
X0641339Y0536221
X0650787Y0501181
X0551181Y0508661
X0498032Y0498819
Y0494488
Y0490158
X0527559Y0605905
X0412992Y0586614
X0389764Y0605905
X0314961Y0481496
X0277559Y0472441
X016811Y0482283
X0166339Y0511811
X0252756Y0605905
X0138976Y0476378
T02
X0513543Y0517165
X0523543
X0533543
X0543543
X0553543
X0415354Y0516929
X0405354
X0395354
X0385354
X0375354
X0276378
X0266378
X0256378
X0246378
X0236378
Y0676929
X0246378
X0256378
X0266378
X0276378
X0375354
X0385354
X0395354
X0405354
X0415354
X0513543Y0677165
X0523543
X0533543
X0543543
X0553543
T03
X0601968Y0413878
X062874
T04
X0305039Y039622
Y040622
Y0416221
Y0426221
Y0436221
Y044622
Y045622
Y0466221
X0315039
Y045622
Y044622
Y0436221
Y0426221
Y0416221
Y040622
Y039622
X0475039
X0485039
Y040622
Y0416221
Y0426221
Y0436221
Y044622
Y045622
Y0466221
X0475039
Y045622
Y044622
Y0436221
Y0426221
Y0416221
Y040622
Y0476221
X0485039
Y0486221
X0475039
X0315039
Y0476221
X0305039
Y0486221
T05
X0362933Y0327264
X0427106
X0671969Y0474606
Y0538779
X0117795Y0537992
Y0473819
T06
X0115354Y0324803
X0674409
X0115354Y0687008
X0674409
M30
