G04*
G04 #@! TF.GenerationSoftware,Altium Limited,Altium Designer,18.1.11 (251)*
G04*
G04 Layer_Color=65535*
%FSLAX25Y25*%
%MOIN*%
G70*
G01*
G75*
%ADD10C,0.01000*%
%ADD11C,0.01181*%
%ADD12C,0.00600*%
%ADD13C,0.00394*%
%ADD14R,0.15945X0.40158*%
%ADD15C,0.00197*%
G36*
X183261Y657585D02*
X183378Y657556D01*
X183553Y657468D01*
X183728Y657381D01*
X183757Y657352D01*
X183844Y657293D01*
X183961Y657206D01*
X184107Y657089D01*
X184136Y657060D01*
X184165Y656973D01*
X184252Y656827D01*
X184311Y656652D01*
Y656623D01*
X184340Y656506D01*
X184369Y656331D01*
X184369Y656039D01*
X184340Y655894D01*
X184311Y655748D01*
Y655719D01*
X184282Y655631D01*
X184223Y655515D01*
X184165Y655369D01*
X184136Y655340D01*
X184077Y655281D01*
X183932Y655077D01*
X183903D01*
X183844Y655019D01*
X183669Y654902D01*
X183640Y654873D01*
X183582Y654844D01*
X183553D01*
X183494D01*
X183465Y654815D01*
X183407Y654786D01*
X183378D01*
X183348D01*
X183261D01*
X183232D01*
X183174Y654756D01*
X183057Y654727D01*
X182911Y654698D01*
X182882D01*
X182736D01*
X182561D01*
X182299D01*
X182270D01*
X182240D01*
X182095D01*
X181920D01*
X181745D01*
X181716D01*
X181599Y654727D01*
X181511Y654756D01*
X181395Y654786D01*
X181366D01*
X181336D01*
X181191Y654815D01*
X181161D01*
X181132Y654844D01*
X180986Y654902D01*
X180957Y654931D01*
X180899Y654961D01*
X180724Y655077D01*
X180695Y655106D01*
X180637Y655165D01*
X180549Y655252D01*
X180491Y655369D01*
X180462Y655398D01*
X180432Y655485D01*
X180374Y655602D01*
X180345Y655748D01*
Y655777D01*
X180316Y655864D01*
X180287Y656010D01*
X180287Y656331D01*
X180316Y656506D01*
X180374Y656681D01*
Y656710D01*
X180432Y656827D01*
X180491Y656973D01*
X180607Y657118D01*
X180637Y657148D01*
X180724Y657235D01*
X180841Y657323D01*
X181016Y657410D01*
X181045Y657439D01*
X181161Y657468D01*
X181307Y657556D01*
X181482Y657614D01*
Y656914D01*
X181453D01*
X181395Y656885D01*
X181249Y656827D01*
X181220D01*
X181191Y656798D01*
X181045Y656681D01*
X181016Y656652D01*
X180986Y656594D01*
X180928Y656419D01*
Y656389D01*
X180899Y656331D01*
X180870Y656156D01*
X180899Y656098D01*
X180928Y655981D01*
Y655923D01*
X180957Y655777D01*
X180986Y655748D01*
X181074Y655660D01*
X181103Y655631D01*
X181161Y655544D01*
X181220Y655515D01*
X181336Y655427D01*
X181395D01*
X181511Y655398D01*
X181541D01*
X181570Y655369D01*
X181686D01*
X181832Y655340D01*
X181861D01*
X181978D01*
X182124D01*
X182299D01*
X182357D01*
X182474D01*
X182649D01*
X182824D01*
X182853D01*
X182940Y655369D01*
X183057D01*
X183144Y655398D01*
X183203D01*
X183319Y655427D01*
X183378Y655456D01*
X183494Y655544D01*
X183523Y655573D01*
X183611Y655660D01*
X183640Y655690D01*
X183669Y655777D01*
Y655806D01*
X183698Y655835D01*
X183757Y655981D01*
X183757Y656214D01*
X183728Y656302D01*
X183698Y656448D01*
X183640Y656594D01*
X183611Y656623D01*
X183523Y656710D01*
X183407Y656827D01*
X183203Y656914D01*
Y657614D01*
X183261Y657585D01*
D02*
G37*
G36*
X184340Y653124D02*
X180316D01*
Y653736D01*
X184340D01*
Y653124D01*
D02*
G37*
G36*
X174425Y657818D02*
X169497D01*
X174425Y655835D01*
Y654727D01*
X169497Y652744D01*
X174425D01*
Y651549D01*
X167310D01*
Y652890D01*
X172705Y655340D01*
X167310Y657702D01*
Y659014D01*
X174425D01*
Y657818D01*
D02*
G37*
G36*
X184340Y651607D02*
X182619Y650732D01*
Y649974D01*
X184340D01*
Y649362D01*
X180316D01*
Y651082D01*
X180345Y651257D01*
X180374Y651403D01*
Y651432D01*
X180403Y651520D01*
X180549Y651753D01*
X180578Y651782D01*
X180666Y651870D01*
X180782Y651957D01*
X180928Y652045D01*
X180957Y652074D01*
X181074Y652103D01*
X181220Y652132D01*
X181424Y652161D01*
X181453D01*
X181482D01*
X181686Y652132D01*
X181920Y652074D01*
X182153Y651957D01*
X182182Y651928D01*
X182299Y651811D01*
X182445Y651636D01*
X182561Y651403D01*
X184340Y652307D01*
Y651607D01*
D02*
G37*
G36*
X180841Y647554D02*
X184340D01*
Y646942D01*
X180841D01*
Y645833D01*
X180316D01*
Y648662D01*
X180841D01*
Y647554D01*
D02*
G37*
G36*
X183378Y645484D02*
X183553Y645425D01*
X183728Y645338D01*
X183757Y645309D01*
X183844Y645250D01*
X183961Y645134D01*
X184107Y644988D01*
X184136Y644959D01*
X184165Y644871D01*
X184252Y644755D01*
X184311Y644580D01*
Y644550D01*
X184340Y644434D01*
X184369Y644288D01*
Y643967D01*
X184340Y643792D01*
X184311Y643646D01*
Y643617D01*
X184282Y643530D01*
X184165Y643297D01*
X184136Y643267D01*
X184077Y643209D01*
X183932Y643005D01*
X183903Y642976D01*
X183844Y642947D01*
X183669Y642801D01*
X183640D01*
X183582Y642772D01*
X183553D01*
X183494Y642742D01*
X183465Y642713D01*
X183407Y642684D01*
X183378D01*
X183348D01*
X183261D01*
X183232D01*
X183174D01*
X183057Y642655D01*
X182911D01*
X182882D01*
X182736D01*
X182561D01*
X182299D01*
X182270D01*
X182240D01*
X182095D01*
X181920D01*
X181745D01*
X181716D01*
X181599D01*
X181511D01*
X181395Y642684D01*
X181366D01*
X181336Y642713D01*
X181191Y642742D01*
X181161D01*
X181132Y642772D01*
X180986Y642801D01*
X180957Y642830D01*
X180899Y642859D01*
X180724Y643005D01*
X180695Y643034D01*
X180637Y643092D01*
X180491Y643297D01*
X180462Y643326D01*
X180432Y643384D01*
X180374Y643501D01*
X180345Y643646D01*
Y643676D01*
X180316Y643792D01*
X180287Y643938D01*
Y644288D01*
X180316Y644434D01*
X180374Y644609D01*
Y644667D01*
X180432Y644755D01*
X180491Y644900D01*
X180607Y645046D01*
X180637Y645075D01*
X180724Y645163D01*
X180841Y645250D01*
X181016Y645338D01*
X181045Y645367D01*
X181161Y645396D01*
X181307Y645454D01*
X181482Y645513D01*
Y644871D01*
X181453D01*
X181395Y644842D01*
X181249Y644755D01*
X181220D01*
X181191Y644725D01*
X181045Y644580D01*
X181016D01*
X180986Y644521D01*
X180928Y644376D01*
Y644346D01*
X180899Y644288D01*
X180870Y644113D01*
Y644084D01*
X180899Y644026D01*
X180928Y643880D01*
Y643821D01*
X180957Y643734D01*
X180986Y643676D01*
X181074Y643588D01*
X181103Y643559D01*
X181161Y643442D01*
X181220Y643413D01*
X181336Y643355D01*
X181395Y643326D01*
X181511Y643297D01*
X181541D01*
X181570D01*
X181686Y643267D01*
X181832D01*
X181861D01*
X181978D01*
X182124D01*
X182299D01*
X182357D01*
X182474D01*
X182649D01*
X182824D01*
X182853D01*
X182940D01*
X183057D01*
X183144Y643297D01*
X183203Y643326D01*
X183319Y643355D01*
X183378Y643384D01*
X183494Y643442D01*
Y643471D01*
X183523Y643501D01*
X183611Y643588D01*
X183640Y643617D01*
X183669Y643734D01*
X183698Y643763D01*
X183757Y643880D01*
Y644142D01*
X183728Y644259D01*
X183698Y644405D01*
X183640Y644550D01*
X183611Y644580D01*
X183523Y644667D01*
X183407Y644784D01*
X183203Y644871D01*
Y645513D01*
X183261D01*
X183378Y645484D01*
D02*
G37*
G36*
X171510Y650237D02*
X171888Y650178D01*
X172326Y650062D01*
X172792Y649916D01*
X173230Y649683D01*
X173609Y649391D01*
X173638Y649362D01*
X173755Y649216D01*
X173901Y649012D01*
X174046Y648720D01*
X174221Y648370D01*
X174367Y647904D01*
X174484Y647350D01*
X174513Y646737D01*
Y646562D01*
X174484Y646446D01*
X174455Y646154D01*
X174396Y645775D01*
X174280Y645338D01*
X174134Y644900D01*
X173901Y644492D01*
X173609Y644113D01*
X173551Y644084D01*
X173434Y643967D01*
X173230Y643821D01*
X172909Y643676D01*
X172530Y643501D01*
X172064Y643326D01*
X171510Y643209D01*
X170897Y643151D01*
X170868D01*
X170810D01*
X170722D01*
X170606Y643180D01*
X170285Y643209D01*
X169877Y643267D01*
X169439Y643384D01*
X169002Y643530D01*
X168564Y643763D01*
X168185Y644055D01*
X168156Y644084D01*
X168039Y644230D01*
X167894Y644434D01*
X167719Y644725D01*
X167544Y645105D01*
X167398Y645571D01*
X167281Y646125D01*
X167252Y646737D01*
Y647029D01*
X167310Y647350D01*
X167369Y647729D01*
X167485Y648166D01*
X167631Y648604D01*
X167865Y649041D01*
X168185Y649391D01*
X168214Y649420D01*
X168360Y649537D01*
X168564Y649683D01*
X168856Y649858D01*
X169235Y650003D01*
X169702Y650149D01*
X170256Y650266D01*
X170897Y650295D01*
X170926D01*
X170985D01*
X171072D01*
X171189D01*
X171510Y650237D01*
D02*
G37*
G36*
X184340Y639331D02*
X180316D01*
Y641926D01*
X180870D01*
Y639943D01*
X182036D01*
Y641634D01*
X182590D01*
Y639943D01*
X183757D01*
Y641926D01*
X184340D01*
Y639331D01*
D02*
G37*
G36*
X168448Y640614D02*
X174425D01*
Y639302D01*
X168448D01*
Y637231D01*
X167310D01*
Y642655D01*
X168448D01*
Y640614D01*
D02*
G37*
G36*
X184340Y635890D02*
X180316D01*
Y636502D01*
X183757D01*
Y638485D01*
X184340D01*
Y635890D01*
D02*
G37*
G36*
Y632449D02*
X180316D01*
Y635015D01*
X180870D01*
Y633061D01*
X182036D01*
Y634753D01*
X182590D01*
Y633061D01*
X183757D01*
Y635015D01*
X184340D01*
Y632449D01*
D02*
G37*
G36*
X174425Y635161D02*
X169148Y631399D01*
X174425D01*
Y630116D01*
X167310D01*
Y631428D01*
X172501Y635219D01*
X167310D01*
Y636502D01*
X174425D01*
Y635161D01*
D02*
G37*
G36*
X184340Y627346D02*
X180316D01*
Y629912D01*
X180870D01*
Y627958D01*
X182036D01*
Y629650D01*
X182590D01*
Y627958D01*
X183757D01*
Y629912D01*
X184340D01*
Y627346D01*
D02*
G37*
G36*
X174425Y627842D02*
X172501Y626996D01*
Y624634D01*
X171364Y625101D01*
Y626530D01*
X168652Y625392D01*
X174425Y623030D01*
Y621689D01*
X167310Y624722D01*
Y626151D01*
X174425Y629241D01*
Y627842D01*
D02*
G37*
G36*
X184340Y625976D02*
X183465Y625684D01*
Y624138D01*
X184340Y623847D01*
Y623176D01*
X180316Y624663D01*
Y625159D01*
X184340Y626646D01*
Y625976D01*
D02*
G37*
G36*
X183407Y622622D02*
X183523D01*
X183815Y622506D01*
X183961Y622418D01*
X184077Y622301D01*
Y622272D01*
X184136Y622243D01*
X184165Y622156D01*
X184223Y622039D01*
X184282Y621893D01*
X184311Y621718D01*
X184369Y621485D01*
Y621077D01*
X184340Y620960D01*
X184311Y620698D01*
X184252Y620406D01*
Y620377D01*
X184223Y620348D01*
X184136Y620173D01*
X184019Y619939D01*
X183815Y619706D01*
X183348Y620114D01*
X183378Y620144D01*
X183465Y620260D01*
X183582Y620435D01*
X183669Y620610D01*
Y620668D01*
X183698Y620814D01*
X183728Y621018D01*
X183757Y621252D01*
Y621310D01*
X183728Y621485D01*
X183698Y621660D01*
X183640Y621835D01*
X183611Y621864D01*
X183523Y621951D01*
X183407Y622010D01*
X183203Y622039D01*
X183174D01*
X183086D01*
X182969Y621981D01*
X182853Y621922D01*
X182824Y621893D01*
X182765Y621835D01*
X182707Y621689D01*
X182649Y621514D01*
Y621222D01*
X182619Y621164D01*
X182590Y620989D01*
Y620960D01*
X182561Y620843D01*
X182532Y620668D01*
X182474Y620523D01*
X182445Y620493D01*
X182386Y620406D01*
X182299Y620289D01*
X182182Y620202D01*
X182153Y620173D01*
X182095Y620114D01*
X181978Y620056D01*
X181861Y619998D01*
X181832D01*
X181745Y619969D01*
X181599Y619939D01*
X181453D01*
X181395D01*
X181278D01*
X181132Y619969D01*
X180957Y619998D01*
X180928Y620027D01*
X180841Y620056D01*
X180724Y620144D01*
X180578Y620260D01*
X180549Y620289D01*
X180491Y620377D01*
X180432Y620523D01*
X180374Y620668D01*
X180345Y620698D01*
X180316Y620843D01*
X180287Y621018D01*
Y621485D01*
X180345Y621718D01*
X180403Y621951D01*
Y621981D01*
X180432Y622010D01*
X180462Y622156D01*
X180549Y622331D01*
X180695Y622535D01*
X181220Y622214D01*
X181191Y622185D01*
X181132Y622068D01*
X181045Y621893D01*
X180986Y621718D01*
X180957Y621689D01*
X180928Y621572D01*
X180899Y621397D01*
X180870Y621222D01*
Y621135D01*
X180928Y620931D01*
Y620902D01*
X180957Y620872D01*
X181016Y620727D01*
X181074Y620668D01*
X181132Y620639D01*
X181220Y620581D01*
X181249D01*
X181278D01*
X181453Y620552D01*
X181511D01*
X181628Y620581D01*
X181657Y620610D01*
X181803Y620668D01*
X181832Y620698D01*
X181920Y620814D01*
Y620843D01*
X181949Y620902D01*
Y620989D01*
X181978Y621106D01*
Y621135D01*
X182007Y621164D01*
X182036Y621281D01*
Y621601D01*
X182065Y621718D01*
X182095Y621864D01*
X182182Y622039D01*
X182211Y622068D01*
X182240Y622185D01*
X182328Y622272D01*
X182445Y622389D01*
X182474Y622418D01*
X182561Y622476D01*
X182678Y622535D01*
X182824Y622593D01*
X182853D01*
X182940Y622622D01*
X183057Y622651D01*
X183203D01*
X183232D01*
X183290D01*
X183407Y622622D01*
D02*
G37*
G36*
X174425Y619502D02*
X171393D01*
Y615974D01*
X174425D01*
Y614632D01*
X167310D01*
Y615974D01*
X170256D01*
Y619502D01*
X167310D01*
Y620814D01*
X174425D01*
Y619502D01*
D02*
G37*
G36*
X184340Y617023D02*
X183465Y616732D01*
Y615186D01*
X184340Y614895D01*
Y614224D01*
X180316Y615711D01*
Y616207D01*
X184340Y617694D01*
Y617023D01*
D02*
G37*
G36*
Y611221D02*
X180316D01*
Y611804D01*
X183757D01*
Y613816D01*
X184340D01*
Y611221D01*
D02*
G37*
G36*
X169702Y613758D02*
X169935Y613699D01*
X170226Y613612D01*
X170518Y613466D01*
X170810Y613291D01*
X171072Y613028D01*
X171101Y612999D01*
X171189Y612883D01*
X171305Y612708D01*
X171422Y612474D01*
X171597Y612154D01*
X171743Y611745D01*
X171859Y611279D01*
X171976Y610754D01*
X170781Y610579D01*
Y610608D01*
X170751Y610725D01*
X170722Y610900D01*
X170664Y611075D01*
X170518Y611541D01*
X170401Y611745D01*
X170285Y611920D01*
X170256Y611950D01*
X170226Y612008D01*
X170139Y612066D01*
X170022Y612154D01*
X169731Y612329D01*
X169556Y612358D01*
X169352Y612387D01*
X169323D01*
X169293D01*
X169118Y612358D01*
X168885Y612299D01*
X168710Y612154D01*
X168681Y612124D01*
X168594Y611979D01*
X168506Y611775D01*
X168477Y611512D01*
Y609704D01*
X174425D01*
Y608392D01*
X167310D01*
Y611775D01*
X167340Y611979D01*
X167369Y612212D01*
X167427Y612474D01*
X167544Y612737D01*
X167660Y612999D01*
X167835Y613233D01*
X167865Y613262D01*
X167923Y613320D01*
X168039Y613408D01*
X168214Y613524D01*
X168419Y613612D01*
X168681Y613699D01*
X168973Y613758D01*
X169323Y613787D01*
X169381D01*
X169497D01*
X169702Y613758D01*
D02*
G37*
G36*
X183348Y610083D02*
X183553Y610025D01*
X183582Y609996D01*
X183698Y609967D01*
X183844Y609850D01*
X183990Y609704D01*
X184019Y609675D01*
X184107Y609588D01*
X184194Y609442D01*
X184282Y609267D01*
Y609208D01*
X184311Y609092D01*
X184340Y608917D01*
X184369Y608713D01*
Y608509D01*
X184340Y608334D01*
X184282Y608130D01*
X184252Y608100D01*
X184223Y607984D01*
X184107Y607838D01*
X183990Y607692D01*
X183961Y607663D01*
X183844Y607576D01*
X183728Y607459D01*
X183553Y607342D01*
X183494D01*
X183378Y607313D01*
X183203Y607284D01*
X182999Y607255D01*
X180316D01*
Y607867D01*
X182911D01*
X182940D01*
X183028D01*
X183261Y607926D01*
X183290D01*
X183348Y607984D01*
X183436Y608042D01*
X183553Y608130D01*
X183582Y608159D01*
X183611Y608217D01*
X183728Y608363D01*
Y608450D01*
X183757Y608567D01*
Y608829D01*
X183728Y609034D01*
Y609063D01*
X183669Y609121D01*
X183553Y609296D01*
X183523Y609325D01*
X183465Y609354D01*
X183261Y609471D01*
X183232D01*
X183174Y609500D01*
X183057Y609529D01*
X182911D01*
X180316D01*
Y610142D01*
X182999D01*
X183057D01*
X183174D01*
X183348Y610083D01*
D02*
G37*
G36*
X184340Y605593D02*
X181832D01*
Y605563D01*
X183757Y604747D01*
Y604222D01*
X181832Y603376D01*
Y603347D01*
X184340D01*
Y602735D01*
X180316D01*
Y603318D01*
X182940Y604485D01*
X180316Y605622D01*
Y606205D01*
X184340D01*
Y605593D01*
D02*
G37*
G36*
Y601219D02*
X182619Y600402D01*
Y599586D01*
X184340D01*
Y598973D01*
X180316D01*
Y600723D01*
X180345Y600869D01*
X180374Y601015D01*
Y601044D01*
X180403Y601131D01*
X180462Y601277D01*
X180549Y601423D01*
X180578Y601452D01*
X180666Y601510D01*
X180782Y601598D01*
X180928Y601685D01*
X180957Y601714D01*
X181074Y601744D01*
X181220Y601773D01*
X181424Y601802D01*
X181453D01*
X181482D01*
X181686Y601773D01*
X181920Y601714D01*
X182153Y601598D01*
X182182Y601569D01*
X182299Y601452D01*
X182445Y601277D01*
X182561Y601015D01*
X184340Y601977D01*
Y601219D01*
D02*
G37*
G36*
X174425Y603406D02*
X169497D01*
X174425Y601481D01*
Y600344D01*
X169497Y598361D01*
X174425D01*
Y597136D01*
X167310D01*
Y598536D01*
X172705Y600927D01*
X167310Y603318D01*
Y604630D01*
X174425D01*
Y603406D01*
D02*
G37*
G36*
X182911Y597982D02*
X182940D01*
X183028D01*
X183144D01*
X183261D01*
X183290D01*
X183319Y597953D01*
X183494Y597894D01*
X183553Y597865D01*
X183669Y597807D01*
X183698D01*
X183757Y597778D01*
X183932Y597632D01*
X183961Y597603D01*
X183990Y597544D01*
X184077Y597457D01*
X184165Y597340D01*
Y597311D01*
X184223Y597253D01*
X184252Y597136D01*
X184311Y596990D01*
Y596961D01*
X184340Y596874D01*
X184369Y596728D01*
Y596407D01*
X184340Y596262D01*
X184311Y596116D01*
Y596087D01*
X184282Y595999D01*
X184165Y595766D01*
X184136Y595737D01*
X184077Y595678D01*
X183932Y595474D01*
X183903Y595445D01*
X183844Y595416D01*
X183669Y595299D01*
X183640Y595270D01*
X183582Y595241D01*
X183553D01*
X183494Y595212D01*
X183465D01*
X183407Y595183D01*
X183378D01*
X183348D01*
X183261Y595153D01*
X183232D01*
X183174D01*
X183057D01*
X182911Y595124D01*
X182882D01*
X182736D01*
X182561Y595095D01*
X182299D01*
X182270D01*
X182240D01*
X182095D01*
X181920D01*
X181745Y595124D01*
X181716D01*
X181599Y595153D01*
X181511D01*
X181395D01*
X181366D01*
X181336Y595183D01*
X181191Y595212D01*
X181161D01*
X181132Y595241D01*
X180986Y595299D01*
X180957D01*
X180899Y595358D01*
X180724Y595474D01*
X180695Y595503D01*
X180637Y595562D01*
X180549Y595649D01*
X180491Y595766D01*
X180462Y595795D01*
X180432Y595853D01*
X180374Y595970D01*
X180345Y596116D01*
Y596145D01*
X180316Y596262D01*
X180287Y596378D01*
Y596699D01*
X180316Y596845D01*
X180345Y596990D01*
Y597020D01*
X180374Y597107D01*
X180403Y597224D01*
X180491Y597340D01*
X180520Y597370D01*
X180549Y597457D01*
X180724Y597632D01*
X180753Y597661D01*
X180812Y597690D01*
X180986Y597807D01*
X181045Y597836D01*
X181191Y597894D01*
X181249Y597924D01*
X181395Y597982D01*
X181424D01*
X181482D01*
X181599D01*
X181745D01*
X181774D01*
X181890Y598011D01*
X182065D01*
X182299D01*
X182328D01*
X182357D01*
X182503D01*
X182707D01*
X182911Y597982D01*
D02*
G37*
G36*
X180870Y592529D02*
X182065D01*
Y594220D01*
X182619D01*
Y592529D01*
X184340D01*
Y591917D01*
X180316D01*
Y594483D01*
X180870D01*
Y592529D01*
D02*
G37*
G36*
X174425Y594833D02*
X172501Y594045D01*
Y591654D01*
X171364Y592092D01*
Y593550D01*
X168652Y592442D01*
X174425Y590050D01*
Y588709D01*
X167310Y591742D01*
Y593170D01*
X174425Y596291D01*
Y594833D01*
D02*
G37*
G36*
X183348Y589146D02*
X183553Y589088D01*
X183582Y589059D01*
X183698Y589030D01*
X183844Y588913D01*
X183990Y588767D01*
X184019Y588738D01*
X184107Y588651D01*
X184194Y588505D01*
X184282Y588330D01*
Y588272D01*
X184311Y588155D01*
X184340Y587980D01*
X184369Y587747D01*
Y587572D01*
X184340Y587397D01*
X184282Y587193D01*
X184252Y587164D01*
X184223Y587047D01*
X184107Y586901D01*
X183990Y586755D01*
X183961Y586726D01*
X183844Y586639D01*
X183728Y586522D01*
X183553Y586405D01*
X183494D01*
X183378Y586376D01*
X183203Y586347D01*
X182999Y586318D01*
X180316D01*
Y586930D01*
X182911D01*
X182940D01*
X183028D01*
X183261Y586989D01*
X183290D01*
X183348Y587047D01*
X183553Y587164D01*
X183582Y587193D01*
X183611Y587251D01*
X183728Y587426D01*
Y587513D01*
X183757Y587630D01*
Y587980D01*
X183728Y588067D01*
Y588097D01*
X183669Y588155D01*
X183553Y588330D01*
X183523Y588359D01*
X183465Y588417D01*
X183378Y588476D01*
X183261Y588534D01*
X183232D01*
X183174Y588563D01*
X183057Y588592D01*
X182911D01*
X180316D01*
Y589205D01*
X182999D01*
X183057D01*
X183174D01*
X183348Y589146D01*
D02*
G37*
G36*
X174425Y583140D02*
X167310D01*
Y588038D01*
X168448D01*
Y584481D01*
X170256D01*
Y587893D01*
X171422D01*
Y584422D01*
X173288D01*
Y588097D01*
X174425D01*
Y583140D01*
D02*
G37*
G36*
X180870Y583664D02*
X182065D01*
Y585356D01*
X182619D01*
Y583664D01*
X184340D01*
Y583052D01*
X180316D01*
Y585647D01*
X180870D01*
Y583664D01*
D02*
G37*
G36*
X183407Y582090D02*
X183523Y582061D01*
X183815Y581944D01*
X183961Y581856D01*
X184077Y581740D01*
Y581711D01*
X184136Y581681D01*
X184165Y581594D01*
X184223Y581477D01*
X184282Y581332D01*
X184311Y581157D01*
X184369Y580953D01*
Y580544D01*
X184340Y580428D01*
X184311Y580165D01*
X184252Y579874D01*
Y579844D01*
X184223Y579815D01*
X184136Y579640D01*
X184019Y579407D01*
X183815Y579145D01*
X183348Y579582D01*
X183378Y579611D01*
X183465Y579728D01*
X183582Y579874D01*
X183669Y580078D01*
Y580136D01*
X183698Y580282D01*
X183728Y580486D01*
X183757Y580719D01*
Y580778D01*
X183728Y580953D01*
X183698Y581127D01*
X183640Y581302D01*
X183611Y581332D01*
X183523Y581419D01*
X183407Y581477D01*
X183203Y581506D01*
X183174D01*
X183086Y581477D01*
X182969Y581448D01*
X182853Y581361D01*
X182824Y581332D01*
X182765Y581273D01*
X182707Y581157D01*
X182649Y580982D01*
Y580690D01*
X182619Y580632D01*
Y580544D01*
X182590Y580428D01*
Y580398D01*
X182561Y580282D01*
X182532Y580136D01*
X182474Y579990D01*
X182445Y579961D01*
X182386Y579874D01*
X182299Y579757D01*
X182182Y579640D01*
X182153Y579611D01*
X182095Y579582D01*
X181978Y579494D01*
X181861Y579436D01*
X181832D01*
X181745Y579407D01*
X181599Y579378D01*
X181453Y579349D01*
X181395D01*
X181278D01*
X181132Y579378D01*
X180957Y579436D01*
X180928Y579465D01*
X180841Y579524D01*
X180724Y579611D01*
X180578Y579728D01*
X180549Y579757D01*
X180491Y579844D01*
X180432Y579961D01*
X180374Y580107D01*
X180345Y580165D01*
X180316Y580282D01*
X180287Y580457D01*
Y580923D01*
X180345Y581157D01*
X180403Y581419D01*
Y581448D01*
X180432Y581477D01*
X180462Y581623D01*
X180549Y581798D01*
X180695Y582002D01*
X181220Y581681D01*
X181191Y581652D01*
X181132Y581536D01*
X181045Y581361D01*
X180986Y581186D01*
X180957Y581127D01*
X180928Y581011D01*
X180899Y580865D01*
X180870Y580661D01*
Y580573D01*
X180928Y580398D01*
Y580369D01*
X180957Y580340D01*
X181016Y580194D01*
X181074Y580136D01*
X181132Y580107D01*
X181220Y580049D01*
X181249D01*
X181278Y580019D01*
X181453Y579990D01*
X181511D01*
X181628Y580019D01*
X181657Y580049D01*
X181803Y580136D01*
X181832Y580165D01*
X181920Y580282D01*
Y580311D01*
X181949Y580369D01*
Y580457D01*
X181978Y580573D01*
Y580603D01*
X182007Y580632D01*
X182036Y580748D01*
Y581069D01*
X182065Y581186D01*
X182095Y581332D01*
X182182Y581506D01*
X182211Y581536D01*
X182240Y581652D01*
X182328Y581740D01*
X182445Y581856D01*
X182474Y581886D01*
X182561Y581944D01*
X182678Y582002D01*
X182824Y582061D01*
X182853D01*
X182940Y582090D01*
X183057Y582119D01*
X183203D01*
X183232D01*
X183290D01*
X183407Y582090D01*
D02*
G37*
G36*
X168448Y580340D02*
X174425D01*
Y579028D01*
X168448D01*
Y576958D01*
X167310D01*
Y582410D01*
X168448D01*
Y580340D01*
D02*
G37*
G36*
X178100Y575354D02*
X177487D01*
X177487Y660559D01*
X178100D01*
X178100Y575354D01*
D02*
G37*
G36*
X172997Y569638D02*
X173696Y569580D01*
X174484Y569493D01*
X175329Y569318D01*
X176204Y569113D01*
X176233D01*
X176292Y569084D01*
X176437Y569055D01*
X176583Y568997D01*
X176787Y568909D01*
X177021Y568822D01*
X177312Y568734D01*
X177604Y568618D01*
X178245Y568326D01*
X178945Y567976D01*
X179703Y567568D01*
X180432Y567072D01*
X180462Y567043D01*
X180520Y567014D01*
X180607Y566926D01*
X180753Y566810D01*
X180928Y566693D01*
X181132Y566518D01*
X181570Y566139D01*
X182095Y565644D01*
X182649Y565060D01*
X183232Y564419D01*
X183757Y563690D01*
Y563661D01*
X183815Y563602D01*
X183873Y563486D01*
X183961Y563340D01*
X184077Y563165D01*
X184223Y562961D01*
X184369Y562698D01*
X184515Y562436D01*
X184836Y561794D01*
X185156Y561065D01*
X185477Y560278D01*
X185740Y559432D01*
Y559403D01*
X185769Y559287D01*
X185827Y559083D01*
X185885Y558849D01*
X185944Y558558D01*
X186002Y558266D01*
X186119Y557566D01*
Y557537D01*
X186148Y557420D01*
Y557216D01*
X186177Y556983D01*
X186206Y556720D01*
Y556400D01*
X186235Y555700D01*
Y555467D01*
X186206Y555204D01*
Y554854D01*
X186177Y554417D01*
X186119Y553979D01*
X186060Y553484D01*
X185973Y552959D01*
Y552901D01*
X185915Y552726D01*
X185856Y552463D01*
X185769Y552113D01*
X185652Y551705D01*
X185506Y551268D01*
X185156Y550305D01*
X184544Y550539D01*
Y550568D01*
X184573Y550626D01*
X184632Y550743D01*
X184690Y550918D01*
X184777Y551122D01*
X184836Y551355D01*
X184923Y551617D01*
X185011Y551909D01*
X185215Y552580D01*
X185390Y553338D01*
X185506Y554125D01*
X185594Y554971D01*
Y556371D01*
X185535Y557012D01*
X185448Y557770D01*
X185331Y558558D01*
X185127Y559345D01*
Y559374D01*
X185098Y559432D01*
X185069Y559549D01*
X185011Y559695D01*
X184952Y559899D01*
X184865Y560103D01*
X184661Y560628D01*
X184398Y561240D01*
X184077Y561911D01*
X183669Y562611D01*
X183232Y563311D01*
X183203Y563340D01*
X183174Y563398D01*
X183115Y563486D01*
X182999Y563631D01*
X182882Y563777D01*
X182736Y563981D01*
X182357Y564419D01*
X181890Y564915D01*
X181366Y565469D01*
X180753Y566023D01*
X180053Y566547D01*
X180024Y566577D01*
X179966Y566606D01*
X179849Y566693D01*
X179733Y566781D01*
X179558Y566897D01*
X179324Y567014D01*
X179091Y567160D01*
X178829Y567306D01*
X178216Y567626D01*
X177516Y567976D01*
X176787Y568268D01*
X175971Y568530D01*
X175942D01*
X175883Y568560D01*
X175767Y568589D01*
X175592Y568618D01*
X175388Y568676D01*
X175154Y568734D01*
X174892Y568793D01*
X174600Y568851D01*
X173959Y568939D01*
X173201Y569026D01*
X172443Y569055D01*
X171626D01*
X171597D01*
X171539D01*
X171422D01*
X171247Y569026D01*
X171043Y568997D01*
X170810D01*
X170547Y568939D01*
X170256Y568909D01*
X169614Y568793D01*
X168885Y568618D01*
X168098Y568414D01*
X167310Y568122D01*
X167281D01*
X167223Y568093D01*
X167106Y568035D01*
X166961Y567976D01*
X166756Y567889D01*
X166552Y567772D01*
X166027Y567510D01*
X165444Y567189D01*
X164803Y566781D01*
X164132Y566285D01*
X163461Y565731D01*
X163024Y566227D01*
X163053Y566256D01*
X163111Y566285D01*
X163199Y566372D01*
X163345Y566489D01*
X163490Y566606D01*
X163695Y566752D01*
X163928Y566926D01*
X164161Y567101D01*
X164744Y567510D01*
X165415Y567889D01*
X166173Y568297D01*
X166961Y568647D01*
X166990D01*
X167048Y568676D01*
X167165Y568734D01*
X167340Y568793D01*
X167544Y568851D01*
X167777Y568939D01*
X168039Y569026D01*
X168360Y569113D01*
X169031Y569288D01*
X169789Y569463D01*
X170635Y569580D01*
X171510Y569668D01*
X171539D01*
X171626D01*
X171743D01*
X171918D01*
X172122D01*
X172384D01*
X172676D01*
X172997Y569638D01*
D02*
G37*
G36*
X156930Y568705D02*
X156959Y568676D01*
X157046Y568589D01*
X157163Y568501D01*
X157483Y568210D01*
X157892Y567831D01*
X158387Y567393D01*
X158941Y566926D01*
X159525Y566402D01*
X160137Y565848D01*
X160166Y565818D01*
X160195Y565789D01*
X160283Y565702D01*
X160399Y565614D01*
X160720Y565323D01*
X161128Y564944D01*
X161624Y564535D01*
X162178Y564040D01*
X162761Y563515D01*
X163374Y562990D01*
X163403Y562961D01*
X163432Y562932D01*
X163520Y562844D01*
X163636Y562757D01*
X163957Y562465D01*
X164365Y562086D01*
X164861Y561649D01*
X165415Y561153D01*
X165998Y560628D01*
X166611Y560074D01*
X166640Y560045D01*
X166669Y560016D01*
X166756Y559928D01*
X166873Y559841D01*
X167194Y559549D01*
X167602Y559170D01*
X168098Y558733D01*
X168652Y558237D01*
X169235Y557712D01*
X169847Y557158D01*
Y557187D01*
X169877Y557245D01*
X169906Y557333D01*
X169935Y557449D01*
X169964Y557595D01*
X170022Y557799D01*
X170139Y558237D01*
X170285Y558762D01*
X170431Y559316D01*
X170606Y559928D01*
X170781Y560570D01*
Y560599D01*
X170810Y560657D01*
Y560745D01*
X170868Y560861D01*
X170897Y561007D01*
X170955Y561211D01*
X171043Y561649D01*
X171189Y562144D01*
X171335Y562727D01*
X171510Y563369D01*
X171684Y564010D01*
X171714Y563981D01*
X171801Y563865D01*
X171888Y563719D01*
X172005Y563573D01*
X172034Y563544D01*
X172093Y563456D01*
X172209Y563340D01*
X172326Y563194D01*
X172355Y563165D01*
X172413Y563077D01*
X172530Y562932D01*
X172647Y562757D01*
X172822Y562523D01*
X173026Y562232D01*
X173259Y561911D01*
X173521Y561561D01*
X173813Y561182D01*
X174105Y560774D01*
X174775Y559899D01*
X175475Y558966D01*
X176204Y558004D01*
X176233Y557974D01*
X176292Y557887D01*
X176408Y557741D01*
X176525Y557566D01*
X176700Y557333D01*
X176904Y557070D01*
X177137Y556750D01*
X177400Y556400D01*
X177691Y556050D01*
X177983Y555642D01*
X178654Y554767D01*
X179353Y553834D01*
X180082Y552871D01*
X180112Y552842D01*
X180170Y552755D01*
X180257Y552609D01*
X180403Y552434D01*
X180578Y552201D01*
X180782Y551938D01*
X181016Y551617D01*
X181278Y551268D01*
X181570Y550888D01*
X181861Y550480D01*
X182503Y549635D01*
X183203Y548701D01*
X183932Y547739D01*
X183961Y547710D01*
X184019Y547623D01*
X184136Y547477D01*
X184252Y547302D01*
X184427Y547069D01*
X184661Y546777D01*
X184894Y546485D01*
X185156Y546135D01*
X185419Y545756D01*
X185740Y545348D01*
X186381Y544473D01*
X187081Y543540D01*
X187781Y542578D01*
X187810Y542549D01*
X187868Y542490D01*
X187985Y542374D01*
X188101Y542228D01*
X188131Y542199D01*
X188160Y542111D01*
X188189Y542024D01*
X188160Y541995D01*
X188131Y541966D01*
X188101D01*
X188014Y541936D01*
X187926Y541966D01*
X187810Y542082D01*
X187781Y542111D01*
X187722Y542228D01*
X187635Y542315D01*
X187548Y542432D01*
X187518D01*
X187489Y542490D01*
X187343Y542636D01*
X187081Y542870D01*
X186760Y543161D01*
X186381Y543511D01*
X185944Y543919D01*
X185477Y544357D01*
X185011Y544794D01*
X184981D01*
X184952Y544852D01*
X184806Y544998D01*
X184544Y545231D01*
X184223Y545523D01*
X183844Y545873D01*
X183436Y546281D01*
X182969Y546690D01*
X182503Y547127D01*
X182474D01*
X182445Y547185D01*
X182299Y547331D01*
X182036Y547564D01*
X181716Y547856D01*
X181336Y548206D01*
X180899Y548614D01*
X180432Y549051D01*
X179966Y549489D01*
X179937D01*
X179908Y549547D01*
X179762Y549693D01*
X179499Y549926D01*
X179179Y550218D01*
X178799Y550568D01*
X178391Y550976D01*
X177925Y551413D01*
X177458Y551851D01*
X177429Y551880D01*
X177371Y551938D01*
X177283Y552026D01*
X177137Y552142D01*
X176846Y552405D01*
X176496Y552755D01*
X176467Y552784D01*
X176408Y552842D01*
X176321Y552930D01*
X176175Y553046D01*
X175825Y553338D01*
X175417Y553659D01*
Y553630D01*
X175388Y553600D01*
X175329Y553425D01*
X175242Y553134D01*
X175125Y552784D01*
X174979Y552347D01*
X174804Y551880D01*
X174659Y551384D01*
X174484Y550859D01*
Y550830D01*
X174455Y550801D01*
X174396Y550626D01*
X174309Y550364D01*
X174192Y549985D01*
X174046Y549576D01*
X173871Y549110D01*
X173696Y548585D01*
X173521Y548060D01*
X173492Y548089D01*
X173434Y548177D01*
X173317Y548322D01*
X173142Y548497D01*
X172968Y548731D01*
X172734Y549022D01*
X172472Y549343D01*
X172180Y549693D01*
X171888Y550072D01*
X171539Y550480D01*
X170839Y551355D01*
X170081Y552288D01*
X169293Y553251D01*
X169264Y553280D01*
X169206Y553367D01*
X169089Y553513D01*
X168943Y553688D01*
X168739Y553921D01*
X168535Y554213D01*
X168273Y554533D01*
X167981Y554883D01*
X167690Y555233D01*
X167369Y555642D01*
X166669Y556516D01*
X165911Y557449D01*
X165123Y558412D01*
X165094Y558441D01*
X165036Y558528D01*
X164919Y558674D01*
X164744Y558849D01*
X164569Y559083D01*
X164336Y559345D01*
X164074Y559666D01*
X163782Y560016D01*
X163490Y560395D01*
X163140Y560774D01*
X162441Y561649D01*
X161682Y562582D01*
X160895Y563515D01*
X160866Y563544D01*
X160808Y563631D01*
X160691Y563777D01*
X160545Y563952D01*
X160341Y564185D01*
X160137Y564477D01*
X159875Y564769D01*
X159583Y565119D01*
X159291Y565498D01*
X158971Y565906D01*
X158271Y566752D01*
X157513Y567685D01*
X156725Y568647D01*
X156755D01*
X156842Y568676D01*
X156871Y568705D01*
X156900Y568734D01*
X156930Y568705D01*
D02*
G37*
G36*
X159787Y560540D02*
Y560511D01*
X159758Y560453D01*
X159700Y560336D01*
X159670Y560161D01*
X159583Y559986D01*
X159525Y559753D01*
X159437Y559491D01*
X159379Y559199D01*
X159204Y558558D01*
X159058Y557799D01*
X158971Y557012D01*
X158912Y556196D01*
Y555379D01*
X158941Y555117D01*
X158971Y554825D01*
X159029Y554184D01*
X159116Y553455D01*
X159262Y552696D01*
X159466Y551909D01*
Y551880D01*
X159495Y551822D01*
X159525Y551705D01*
X159583Y551559D01*
X159641Y551384D01*
X159729Y551151D01*
X159933Y550655D01*
X160195Y550043D01*
X160516Y549401D01*
X160895Y548731D01*
X161333Y548031D01*
Y548002D01*
X161391Y547943D01*
X161449Y547856D01*
X161566Y547710D01*
X161682Y547564D01*
X161828Y547389D01*
X162207Y546952D01*
X162645Y546456D01*
X163199Y545931D01*
X163811Y545406D01*
X164482Y544882D01*
X164511D01*
X164569Y544823D01*
X164657Y544765D01*
X164803Y544677D01*
X164978Y544561D01*
X165182Y544444D01*
X165415Y544298D01*
X165677Y544153D01*
X166261Y543832D01*
X166931Y543511D01*
X167660Y543190D01*
X168448Y542928D01*
X168477D01*
X168535Y542899D01*
X168652Y542870D01*
X168827Y542840D01*
X169002Y542782D01*
X169235Y542724D01*
X169497Y542695D01*
X169789Y542636D01*
X170431Y542520D01*
X171160Y542432D01*
X171918Y542374D01*
X172734D01*
X172763D01*
X172822D01*
X172938D01*
X173084Y542403D01*
X173288Y542432D01*
X173521D01*
X173784Y542461D01*
X174046Y542520D01*
X174688Y542607D01*
X175417Y542782D01*
X176175Y542957D01*
X176962Y543219D01*
X176991D01*
X177050Y543249D01*
X177166Y543307D01*
X177312Y543365D01*
X177487Y543453D01*
X177720Y543540D01*
X178216Y543803D01*
X178799Y544094D01*
X179441Y544473D01*
X180112Y544940D01*
X180782Y545436D01*
X181220Y544940D01*
X181191Y544911D01*
X181132Y544882D01*
X181045Y544794D01*
X180899Y544707D01*
X180724Y544561D01*
X180520Y544415D01*
X180287Y544269D01*
X180024Y544094D01*
X179412Y543715D01*
X178712Y543336D01*
X177954Y542957D01*
X177166Y542636D01*
X177137D01*
X177079Y542607D01*
X176962Y542549D01*
X176787Y542520D01*
X176612Y542432D01*
X176379Y542374D01*
X176117Y542286D01*
X175825Y542228D01*
X175154Y542053D01*
X174396Y541907D01*
X173609Y541791D01*
X172763Y541732D01*
X172734D01*
X172647D01*
X172530D01*
X172355D01*
X172151D01*
X171918Y541761D01*
X171626D01*
X171335Y541791D01*
X170635Y541849D01*
X169877Y541966D01*
X169060Y542140D01*
X168244Y542345D01*
X168214D01*
X168156Y542374D01*
X168039Y542403D01*
X167865Y542461D01*
X167690Y542549D01*
X167456Y542607D01*
X167194Y542724D01*
X166902Y542840D01*
X166261Y543132D01*
X165561Y543453D01*
X164832Y543890D01*
X164103Y544357D01*
X164074Y544386D01*
X164015Y544415D01*
X163928Y544502D01*
X163782Y544619D01*
X163607Y544736D01*
X163432Y544911D01*
X162966Y545319D01*
X162441Y545786D01*
X161887Y546340D01*
X161333Y546981D01*
X160808Y547652D01*
X160779Y547681D01*
X160749Y547739D01*
X160691Y547856D01*
X160604Y547972D01*
X160487Y548147D01*
X160370Y548381D01*
X160224Y548614D01*
X160079Y548876D01*
X159758Y549489D01*
X159437Y550160D01*
X159116Y550918D01*
X158854Y551705D01*
Y551734D01*
X158825Y551792D01*
X158796Y551909D01*
X158766Y552084D01*
X158708Y552288D01*
X158650Y552522D01*
X158592Y552784D01*
X158533Y553105D01*
X158446Y553775D01*
X158358Y554533D01*
X158300Y555350D01*
Y556458D01*
X158329Y556633D01*
Y556837D01*
X158358Y557070D01*
X158387Y557362D01*
X158446Y557654D01*
X158533Y558354D01*
X158708Y559112D01*
X158912Y559928D01*
X159204Y560745D01*
X159787Y560540D01*
D02*
G37*
G36*
X535241Y321824D02*
X535416Y321813D01*
X535569Y321791D01*
X535689Y321769D01*
X535776Y321747D01*
X535831Y321736D01*
X535853Y321725D01*
X536017Y321682D01*
X536159Y321627D01*
X536301Y321562D01*
X536410Y321507D01*
X536498Y321452D01*
X536574Y321409D01*
X536618Y321376D01*
X536629Y321365D01*
X536727Y321255D01*
X536815Y321135D01*
X536880Y321015D01*
X536924Y320906D01*
X536957Y320796D01*
X536990Y320709D01*
X537001Y320654D01*
Y320643D01*
Y320632D01*
X537022Y320447D01*
Y320250D01*
X537011Y320064D01*
X536990Y319878D01*
X536957Y319714D01*
X536935Y319594D01*
X536924Y319539D01*
Y319507D01*
X536913Y319485D01*
Y319474D01*
X535667Y314523D01*
X535580Y314282D01*
X535470Y314064D01*
X535339Y313867D01*
X535197Y313703D01*
X535066Y313572D01*
X534957Y313473D01*
X534913Y313440D01*
X534891Y313419D01*
X534869Y313408D01*
X534858Y313397D01*
X534618Y313244D01*
X534377Y313135D01*
X534137Y313058D01*
X533929Y313003D01*
X533743Y312970D01*
X533667Y312960D01*
X533601D01*
X533547Y312949D01*
X532038D01*
X533470Y318665D01*
X533514Y318851D01*
X533525Y319004D01*
Y319135D01*
X533514Y319244D01*
X533492Y319321D01*
X533470Y319386D01*
X533459Y319419D01*
X533448Y319430D01*
X533383Y319518D01*
X533284Y319572D01*
X533186Y319616D01*
X533077Y319649D01*
X532978Y319671D01*
X532902Y319682D01*
X532825D01*
X532651Y319671D01*
X532497Y319638D01*
X532355Y319605D01*
X532246Y319561D01*
X532148Y319507D01*
X532082Y319474D01*
X532038Y319441D01*
X532027Y319430D01*
X531918Y319321D01*
X531831Y319201D01*
X531754Y319080D01*
X531700Y318949D01*
X531645Y318840D01*
X531612Y318753D01*
X531601Y318687D01*
X531590Y318676D01*
Y318665D01*
X530158Y312949D01*
X526934D01*
X528355Y318654D01*
X528399Y318840D01*
X528420Y318993D01*
Y319135D01*
X528410Y319244D01*
X528388Y319321D01*
X528366Y319386D01*
X528355Y319419D01*
X528344Y319430D01*
X528267Y319518D01*
X528180Y319572D01*
X528071Y319616D01*
X527961Y319649D01*
X527863Y319671D01*
X527787Y319682D01*
X527710D01*
X527546Y319671D01*
X527393Y319638D01*
X527262Y319605D01*
X527153Y319561D01*
X527065Y319507D01*
X527000Y319474D01*
X526956Y319441D01*
X526945Y319430D01*
X526836Y319321D01*
X526748Y319201D01*
X526672Y319080D01*
X526617Y318949D01*
X526573Y318840D01*
X526541Y318753D01*
X526530Y318687D01*
X526519Y318676D01*
Y318665D01*
X525076Y312949D01*
X521852D01*
X524016Y321605D01*
X527273D01*
X527022Y320556D01*
X527054D01*
X527251Y320785D01*
X527448Y320982D01*
X527655Y321146D01*
X527841Y321277D01*
X528005Y321387D01*
X528071Y321430D01*
X528125Y321463D01*
X528180Y321485D01*
X528213Y321507D01*
X528235Y321518D01*
X528246D01*
X528508Y321627D01*
X528781Y321704D01*
X529043Y321769D01*
X529295Y321802D01*
X529404Y321824D01*
X529503D01*
X529590Y321835D01*
X529667Y321846D01*
X530005D01*
X530180Y321835D01*
X530333Y321824D01*
X530465Y321802D01*
X530574Y321791D01*
X530650Y321769D01*
X530694Y321758D01*
X530716D01*
X530858Y321725D01*
X530978Y321693D01*
X531087Y321649D01*
X531186Y321605D01*
X531262Y321572D01*
X531317Y321540D01*
X531350Y321529D01*
X531361Y321518D01*
X531448Y321452D01*
X531525Y321376D01*
X531601Y321310D01*
X531656Y321245D01*
X531700Y321179D01*
X531732Y321135D01*
X531743Y321102D01*
X531754Y321092D01*
X531853Y320895D01*
X531896Y320796D01*
X531929Y320698D01*
X531951Y320621D01*
X531973Y320556D01*
X531984Y320512D01*
Y320501D01*
X532093Y320632D01*
X532202Y320753D01*
X532301Y320862D01*
X532399Y320960D01*
X532486Y321037D01*
X532552Y321092D01*
X532596Y321124D01*
X532607Y321135D01*
X532738Y321234D01*
X532869Y321310D01*
X532989Y321376D01*
X533099Y321441D01*
X533197Y321485D01*
X533274Y321518D01*
X533317Y321529D01*
X533339Y321540D01*
X533612Y321638D01*
X533733Y321682D01*
X533853Y321714D01*
X533940Y321736D01*
X534017Y321758D01*
X534071Y321769D01*
X534082D01*
X534355Y321813D01*
X534487Y321824D01*
X534607Y321835D01*
X534705Y321846D01*
X535055D01*
X535241Y321824D01*
D02*
G37*
G36*
X520256Y312938D02*
X517042D01*
X517294Y313976D01*
X517250D01*
X517053Y313757D01*
X516857Y313572D01*
X516660Y313408D01*
X516474Y313277D01*
X516310Y313178D01*
X516245Y313135D01*
X516190Y313102D01*
X516135Y313080D01*
X516102Y313058D01*
X516081Y313047D01*
X516070D01*
X515807Y312938D01*
X515545Y312861D01*
X515283Y312807D01*
X515042Y312774D01*
X514933Y312752D01*
X514835D01*
X514736Y312741D01*
X514671Y312730D01*
X514310D01*
X514124Y312741D01*
X513949Y312763D01*
X513807Y312785D01*
X513687Y312807D01*
X513599Y312818D01*
X513545Y312839D01*
X513523D01*
X513370Y312894D01*
X513228Y312949D01*
X513108Y313014D01*
X512998Y313080D01*
X512922Y313134D01*
X512856Y313178D01*
X512813Y313211D01*
X512802Y313222D01*
X512692Y313320D01*
X512594Y313430D01*
X512528Y313539D01*
X512474Y313648D01*
X512430Y313757D01*
X512408Y313834D01*
X512386Y313889D01*
Y313911D01*
X512364Y314096D01*
Y314282D01*
X512375Y314468D01*
X512397Y314654D01*
X512430Y314807D01*
X512452Y314938D01*
X512463Y314982D01*
Y315014D01*
X512474Y315036D01*
Y315047D01*
X514113Y321605D01*
X517338D01*
X515906Y315878D01*
X515873Y315692D01*
X515851Y315539D01*
Y315408D01*
X515873Y315299D01*
X515884Y315211D01*
X515906Y315157D01*
X515917Y315113D01*
X515928Y315102D01*
X516004Y315014D01*
X516091Y314949D01*
X516190Y314905D01*
X516299Y314872D01*
X516387Y314850D01*
X516463Y314840D01*
X516540D01*
X516714Y314850D01*
X516867Y314883D01*
X516999Y314927D01*
X517108Y314971D01*
X517195Y315014D01*
X517261Y315058D01*
X517305Y315091D01*
X517316Y315102D01*
X517425Y315211D01*
X517512Y315331D01*
X517589Y315462D01*
X517655Y315594D01*
X517698Y315703D01*
X517731Y315790D01*
X517742Y315856D01*
X517753Y315867D01*
Y315878D01*
X519196Y321605D01*
X522420D01*
X520256Y312938D01*
D02*
G37*
G36*
X510473Y312938D02*
X507249D01*
X509413Y321605D01*
X512648D01*
X510473Y312938D01*
D02*
G37*
G36*
X499937D02*
X496702D01*
X499576Y324371D01*
X502801D01*
X499937Y312938D01*
D02*
G37*
G36*
X496024D02*
X492297D01*
X492406Y314927D01*
X489630D01*
X488756Y312949D01*
X485039Y312938D01*
X489947Y322097D01*
X490056Y322283D01*
X490176Y322447D01*
X490297Y322611D01*
X490395Y322742D01*
X490493Y322851D01*
X490559Y322939D01*
X490603Y322982D01*
X490625Y323004D01*
X490778Y323157D01*
X490931Y323288D01*
X491073Y323409D01*
X491204Y323518D01*
X491324Y323594D01*
X491412Y323660D01*
X491466Y323704D01*
X491488Y323715D01*
X491674Y323824D01*
X491849Y323911D01*
X492024Y323999D01*
X492188Y324064D01*
X492319Y324119D01*
X492428Y324152D01*
X492461Y324163D01*
X492494Y324174D01*
X492505Y324185D01*
X492516D01*
X492723Y324239D01*
X492931Y324283D01*
X493128Y324316D01*
X493302Y324338D01*
X493456Y324359D01*
X493576D01*
X493619Y324371D01*
X495598D01*
X496024Y312938D01*
D02*
G37*
G36*
X506867Y321605D02*
X508222D01*
X507741Y319660D01*
X506386D01*
X505358Y315539D01*
X505336Y315419D01*
Y315310D01*
Y315222D01*
X505358Y315146D01*
X505380Y315091D01*
X505402Y315047D01*
X505413Y315025D01*
X505424Y315014D01*
X505500Y314960D01*
X505577Y314916D01*
X505675Y314894D01*
X505774Y314872D01*
X505861Y314861D01*
X506539D01*
X506058Y312938D01*
X505872Y312927D01*
X505697Y312916D01*
X505544Y312905D01*
X505402Y312894D01*
X505282D01*
X505183Y312883D01*
X505107D01*
X504943Y312872D01*
X504626D01*
X504495Y312861D01*
X503959D01*
X503719Y312872D01*
X503511Y312883D01*
X503325Y312905D01*
X503183Y312916D01*
X503074Y312938D01*
X503008Y312949D01*
X502986D01*
X502811Y312992D01*
X502659Y313036D01*
X502527Y313091D01*
X502418Y313134D01*
X502331Y313178D01*
X502276Y313211D01*
X502232Y313233D01*
X502221Y313244D01*
X502123Y313331D01*
X502046Y313430D01*
X501981Y313539D01*
X501937Y313637D01*
X501904Y313736D01*
X501883Y313812D01*
X501872Y313867D01*
Y313889D01*
X501861Y314064D01*
X501872Y314260D01*
X501893Y314446D01*
X501926Y314632D01*
X501948Y314796D01*
X501981Y314916D01*
X501992Y314971D01*
Y315003D01*
X502003Y315025D01*
Y315036D01*
X504331Y324250D01*
X507566D01*
X506867Y321605D01*
D02*
G37*
%LPC*%
G36*
X181599Y651578D02*
X181424D01*
X181395D01*
X181336D01*
X181161Y651520D01*
X181132D01*
X181103Y651490D01*
X180957Y651403D01*
Y651374D01*
X180928Y651345D01*
X180870Y651170D01*
Y651141D01*
X180841Y651111D01*
Y649974D01*
X182065D01*
Y651024D01*
X182036Y651199D01*
Y651228D01*
X182007Y651286D01*
X181890Y651432D01*
X181861Y651461D01*
X181832Y651490D01*
X181686Y651549D01*
X181657D01*
X181599Y651578D01*
D02*
G37*
G36*
X170868Y648895D02*
X170810D01*
X170664D01*
X170460Y648866D01*
X170168Y648837D01*
X169877Y648749D01*
X169585Y648662D01*
X169293Y648516D01*
X169031Y648341D01*
X169002Y648312D01*
X168943Y648254D01*
X168827Y648108D01*
X168710Y647933D01*
X168623Y647729D01*
X168506Y647437D01*
X168448Y647117D01*
X168419Y646737D01*
Y646562D01*
X168448Y646358D01*
X168506Y646125D01*
X168564Y645833D01*
X168681Y645571D01*
X168827Y645309D01*
X169031Y645075D01*
X169060Y645046D01*
X169148Y644988D01*
X169293Y644900D01*
X169497Y644813D01*
X169760Y644696D01*
X170052Y644609D01*
X170431Y644550D01*
X170868Y644521D01*
X170926D01*
X171072D01*
X171276Y644550D01*
X171568Y644580D01*
X171859Y644667D01*
X172180Y644755D01*
X172472Y644900D01*
X172734Y645075D01*
X172763Y645105D01*
X172822Y645192D01*
X172938Y645309D01*
X173055Y645484D01*
X173172Y645717D01*
X173288Y646008D01*
X173346Y646358D01*
X173376Y646737D01*
Y646912D01*
X173346Y647117D01*
X173288Y647350D01*
X173230Y647612D01*
X173113Y647875D01*
X172938Y648137D01*
X172734Y648341D01*
X172705Y648370D01*
X172617Y648429D01*
X172472Y648516D01*
X172268Y648633D01*
X172005Y648720D01*
X171684Y648808D01*
X171305Y648866D01*
X170868Y648895D01*
D02*
G37*
G36*
X182911Y625480D02*
X181132Y624897D01*
X182911Y624313D01*
Y625480D01*
D02*
G37*
G36*
Y616557D02*
X181132Y615974D01*
X182911Y615361D01*
Y616557D01*
D02*
G37*
G36*
X181424Y601219D02*
X181395D01*
X181336D01*
X181161Y601160D01*
X181132D01*
X181103Y601131D01*
X181016Y601102D01*
X180957Y601015D01*
X180928Y600956D01*
X180899Y600898D01*
X180870Y600810D01*
Y600781D01*
X180841Y600752D01*
Y599586D01*
X182065D01*
Y600635D01*
X182036Y600840D01*
Y600869D01*
X182007Y600927D01*
X181949Y600985D01*
X181890Y601044D01*
X181861Y601073D01*
X181832Y601102D01*
X181686Y601160D01*
X181657D01*
X181599Y601190D01*
X181424Y601219D01*
D02*
G37*
G36*
X182678Y597370D02*
X182503D01*
X182299D01*
X182240D01*
X182153D01*
X181978D01*
X181832Y597340D01*
X181803D01*
X181716D01*
X181599D01*
X181511D01*
X181482D01*
X181453Y597311D01*
X181336Y597253D01*
X181307D01*
X181278Y597224D01*
X181161Y597165D01*
X181132Y597136D01*
X181074Y597078D01*
X181045Y597049D01*
X180957Y596932D01*
X180928Y596903D01*
Y596757D01*
X180899Y596699D01*
X180870Y596553D01*
X180899Y596495D01*
X180928Y596349D01*
Y596291D01*
X180957Y596174D01*
X180986Y596116D01*
X181074Y596028D01*
X181103Y595999D01*
X181161Y595941D01*
X181220Y595912D01*
X181336Y595824D01*
X181395Y595795D01*
X181511Y595766D01*
X181541D01*
X181570D01*
X181686D01*
X181832Y595737D01*
X181861D01*
X181978D01*
X182124D01*
X182299D01*
X182357D01*
X182474D01*
X182649D01*
X182824D01*
X182853D01*
X182940Y595766D01*
X183057D01*
X183144D01*
X183203Y595795D01*
X183319Y595824D01*
X183378Y595853D01*
X183494Y595941D01*
X183523Y595970D01*
X183611Y596028D01*
X183640Y596057D01*
X183669Y596174D01*
X183698Y596232D01*
X183757Y596349D01*
Y596786D01*
X183728Y596815D01*
X183669Y596932D01*
Y596961D01*
X183640Y596990D01*
X183611Y597078D01*
X183582Y597107D01*
X183494Y597165D01*
X183465D01*
X183436Y597195D01*
X183319Y597253D01*
X183290D01*
X183261Y597282D01*
X183144Y597340D01*
X183115D01*
X183057D01*
X182969D01*
X182824D01*
X182794D01*
X182678Y597370D01*
D02*
G37*
G36*
X492800Y321878D02*
X490592Y317113D01*
X492526D01*
X492800Y321878D01*
D02*
G37*
%LPD*%
D10*
X149000Y702908D02*
X151000D01*
X149000Y309207D02*
X151000D01*
X150000Y702908D02*
X152000Y696908D01*
X148000D02*
X150000Y702908D01*
Y309207D02*
X152000Y315207D01*
X148000D02*
X150000Y309207D01*
Y528651D02*
Y702908D01*
Y309207D02*
Y483465D01*
X635204Y706480D02*
Y708480D01*
X155282Y706480D02*
Y708480D01*
X629204Y705480D02*
X635204Y707480D01*
X629204Y709480D02*
X635204Y707480D01*
X155282D02*
X161282Y705480D01*
X155282Y707480D02*
X161282Y709480D01*
X422835Y707480D02*
X635204D01*
X155282D02*
X367652D01*
X469393Y698613D02*
Y693615D01*
X470393Y692615D01*
X472392D01*
X473392Y693615D01*
Y698613D01*
X479390D02*
X477391Y697614D01*
X475391Y695614D01*
Y693615D01*
X476391Y692615D01*
X478390D01*
X479390Y693615D01*
Y694615D01*
X478390Y695614D01*
X475391D01*
X331204Y698377D02*
Y693379D01*
X332204Y692379D01*
X334203D01*
X335203Y693379D01*
Y698377D01*
X340201Y692379D02*
Y698377D01*
X337202Y695378D01*
X341201D01*
X192228Y698377D02*
Y693379D01*
X193228Y692379D01*
X195227D01*
X196227Y693379D01*
Y698377D01*
X198226Y697377D02*
X199226Y698377D01*
X201225D01*
X202225Y697377D01*
Y696378D01*
X201225Y695378D01*
X200225D01*
X201225D01*
X202225Y694379D01*
Y693379D01*
X201225Y692379D01*
X199226D01*
X198226Y693379D01*
X616142Y415742D02*
Y410744D01*
X617141Y409744D01*
X619141D01*
X620140Y410744D01*
Y415742D01*
X622140D02*
X626138D01*
Y414743D01*
X622140Y410744D01*
Y409744D01*
D11*
X605832Y571260D02*
X613704D01*
Y575196D01*
X612392Y576508D01*
X607144D01*
X605832Y575196D01*
Y571260D01*
X613704Y579131D02*
X608456D01*
X605832Y581755D01*
X608456Y584379D01*
X613704D01*
X609768D01*
Y579131D01*
X607144Y592250D02*
X605832Y590939D01*
Y588315D01*
X607144Y587003D01*
X608456D01*
X609768Y588315D01*
Y590939D01*
X611080Y592250D01*
X612392D01*
X613704Y590939D01*
Y588315D01*
X612392Y587003D01*
X605832Y594874D02*
X613704D01*
X609768D01*
Y600122D01*
X605832D01*
X613704D01*
X605832Y602746D02*
X613704D01*
Y606681D01*
X612392Y607993D01*
X611080D01*
X609768Y606681D01*
Y602746D01*
Y606681D01*
X608456Y607993D01*
X607144D01*
X605832Y606681D01*
Y602746D01*
Y614553D02*
Y611929D01*
X607144Y610617D01*
X612392D01*
X613704Y611929D01*
Y614553D01*
X612392Y615865D01*
X607144D01*
X605832Y614553D01*
X613704Y618489D02*
X608456D01*
X605832Y621112D01*
X608456Y623736D01*
X613704D01*
X609768D01*
Y618489D01*
X613704Y626360D02*
X605832D01*
Y630296D01*
X607144Y631608D01*
X609768D01*
X611080Y630296D01*
Y626360D01*
Y628984D02*
X613704Y631608D01*
X605832Y634232D02*
X613704D01*
Y638167D01*
X612392Y639479D01*
X607144D01*
X605832Y638167D01*
Y634232D01*
X625984Y571260D02*
X618113D01*
Y575196D01*
X619425Y576508D01*
X622049D01*
X623360Y575196D01*
Y571260D01*
Y573884D02*
X625984Y576508D01*
X618113Y584379D02*
Y579131D01*
X625984D01*
Y584379D01*
X622049Y579131D02*
Y581755D01*
X618113Y587003D02*
X623360D01*
X625984Y589627D01*
X623360Y592250D01*
X618113D01*
X619425Y594874D02*
X618113Y596186D01*
Y598810D01*
X619425Y600122D01*
X624672D01*
X625984Y598810D01*
Y596186D01*
X624672Y594874D01*
X619425D01*
D12*
X153599Y484465D02*
Y486464D01*
Y485464D01*
X147601D01*
X148601Y484465D01*
Y489463D02*
X147601Y490463D01*
Y492462D01*
X148601Y493462D01*
X152599D01*
X153599Y492462D01*
Y490463D01*
X152599Y489463D01*
X148601D01*
Y495461D02*
X147601Y496461D01*
Y498460D01*
X148601Y499460D01*
X152599D01*
X153599Y498460D01*
Y496461D01*
X152599Y495461D01*
X148601D01*
X153599Y509456D02*
X151600Y507457D01*
X149600D01*
X147601Y509456D01*
X153599Y512456D02*
X149600D01*
Y513455D01*
X150600Y514455D01*
X153599D01*
X150600D01*
X149600Y515454D01*
X150600Y516454D01*
X153599D01*
Y518454D02*
X149600D01*
Y519453D01*
X150600Y520453D01*
X153599D01*
X150600D01*
X149600Y521453D01*
X150600Y522452D01*
X153599D01*
Y524452D02*
X151600Y526451D01*
X149600D01*
X147601Y524452D01*
X368652Y703881D02*
X370651D01*
X369651D01*
Y709879D01*
X368652Y708880D01*
X377649Y703881D02*
X373650D01*
X377649Y707880D01*
Y708880D01*
X376649Y709879D01*
X374650D01*
X373650Y708880D01*
X379648Y703881D02*
X381647D01*
X380648D01*
Y709879D01*
X379648Y708880D01*
X384646Y703881D02*
Y704881D01*
X385646D01*
Y703881D01*
X384646D01*
X389645Y704881D02*
X390644Y703881D01*
X392644D01*
X393643Y704881D01*
Y708880D01*
X392644Y709879D01*
X390644D01*
X389645Y708880D01*
Y707880D01*
X390644Y706880D01*
X393643D01*
X403640Y703881D02*
X401641Y705881D01*
Y707880D01*
X403640Y709879D01*
X406639Y703881D02*
Y707880D01*
X407639D01*
X408638Y706880D01*
Y703881D01*
Y706880D01*
X409638Y707880D01*
X410638Y706880D01*
Y703881D01*
X412637D02*
Y707880D01*
X413637D01*
X414637Y706880D01*
Y703881D01*
Y706880D01*
X415636Y707880D01*
X416636Y706880D01*
Y703881D01*
X418635D02*
X420635Y705881D01*
Y707880D01*
X418635Y709879D01*
D13*
X577461Y406496D02*
X602067D01*
X577362Y347638D02*
X602165D01*
X624803D02*
Y406496D01*
X612894D02*
X624803D01*
X612894Y347638D02*
X624803D01*
X155118Y324803D02*
G03*
X170866Y309055I15748J0D01*
G01*
X619291D02*
G03*
X635039Y324803I0J15748D01*
G01*
Y687008D02*
G03*
X619291Y702756I-15748J0D01*
G01*
X170866D02*
G03*
X155118Y687008I0J-15748D01*
G01*
X170866Y309055D02*
X619291Y309055D01*
X170866Y702756D02*
X619291Y702756D01*
X155118Y324803D02*
X155118Y687008D01*
X635039Y324803D02*
X635039Y687008D01*
X271260Y379921D02*
G03*
X271260Y379921I-1969J0D01*
G01*
X540354Y603346D02*
G03*
X540354Y603346I-1969J0D01*
G01*
X402559D02*
G03*
X402559Y603346I-1969J0D01*
G01*
X264764D02*
G03*
X264764Y603346I-1969J0D01*
G01*
X211910Y374606D02*
Y381299D01*
X215650Y374606D02*
Y381299D01*
X211910D02*
X215650D01*
X211910Y374606D02*
X215650D01*
X194095Y374803D02*
Y381890D01*
X198031Y374803D02*
Y381890D01*
X194095D02*
X198031D01*
X194095Y374803D02*
X198031D01*
X239567Y387598D02*
X243110D01*
X239567Y394291D02*
X243110D01*
Y387598D02*
Y394291D01*
X239567Y387598D02*
Y394291D01*
X243701Y656791D02*
Y665256D01*
X249213Y656791D02*
Y665256D01*
X243701D02*
X249213D01*
X243701Y656791D02*
X249213D01*
X272835Y363779D02*
Y383465D01*
X257087Y363779D02*
Y383465D01*
X272835D01*
X257087Y363779D02*
X272835D01*
X524213Y586811D02*
X541929D01*
X524213Y606890D02*
X541929D01*
X524213Y586811D02*
Y606890D01*
X541929Y586811D02*
Y606890D01*
X386417Y586811D02*
X404134D01*
X386417Y606890D02*
X404134D01*
X386417Y586811D02*
Y606890D01*
X404134Y586811D02*
Y606890D01*
X248622Y586811D02*
X266339D01*
X248622Y606890D02*
X266339D01*
X248622Y586811D02*
Y606890D01*
X266339Y586811D02*
Y606890D01*
X290354Y382874D02*
X297047D01*
X290354Y379331D02*
X297047D01*
Y382874D01*
X290354Y379331D02*
Y382874D01*
X540945Y656398D02*
X546457D01*
X540945Y664862D02*
X546457D01*
Y656398D02*
Y664862D01*
X540945Y656398D02*
Y664862D01*
X550787Y656398D02*
X556299D01*
X550787Y664862D02*
X556299D01*
Y656398D02*
Y664862D01*
X550787Y656398D02*
Y664862D01*
X540945Y540846D02*
X546457D01*
X540945Y532382D02*
X546457D01*
X540945D02*
Y540846D01*
X546457Y532382D02*
Y540846D01*
X531102D02*
X536614D01*
X531102Y532382D02*
X536614D01*
X531102D02*
Y540846D01*
X536614Y532382D02*
Y540846D01*
X520866D02*
X526378D01*
X520866Y532382D02*
X526378D01*
X520866D02*
Y540846D01*
X526378Y532382D02*
Y540846D01*
X511024Y656398D02*
X516535D01*
X511024Y664862D02*
X516535D01*
Y656398D02*
Y664862D01*
X511024Y656398D02*
Y664862D01*
X520866Y656398D02*
X526378D01*
X520866Y664862D02*
X526378D01*
Y656398D02*
Y664862D01*
X520866Y656398D02*
Y664862D01*
X402362Y657185D02*
X407874D01*
X402362Y665650D02*
X407874D01*
Y657185D02*
Y665650D01*
X402362Y657185D02*
Y665650D01*
X263386Y656791D02*
X268898D01*
X263386Y665256D02*
X268898D01*
Y656791D02*
Y665256D01*
X263386Y656791D02*
Y665256D01*
X412598Y657185D02*
X418110D01*
X412598Y665650D02*
X418110D01*
Y657185D02*
Y665650D01*
X412598Y657185D02*
Y665650D01*
X273622Y656791D02*
X279134D01*
X273622Y665256D02*
X279134D01*
Y656791D02*
Y665256D01*
X273622Y656791D02*
Y665256D01*
X402362Y538878D02*
X407874D01*
X402362Y530413D02*
X407874D01*
X402362D02*
Y538878D01*
X407874Y530413D02*
Y538878D01*
X263779Y539272D02*
X269291D01*
X263779Y530807D02*
X269291D01*
X263779D02*
Y539272D01*
X269291Y530807D02*
Y539272D01*
X392913Y538878D02*
X398425D01*
X392913Y530413D02*
X398425D01*
X392913D02*
Y538878D01*
X398425Y530413D02*
Y538878D01*
X253543Y539272D02*
X259055D01*
X253543Y530807D02*
X259055D01*
X253543D02*
Y539272D01*
X259055Y530807D02*
Y539272D01*
X382677Y538878D02*
X388189D01*
X382677Y530413D02*
X388189D01*
X382677D02*
Y538878D01*
X388189Y530413D02*
Y538878D01*
X243701Y539272D02*
X249213D01*
X243701Y530807D02*
X249213D01*
X243701D02*
Y539272D01*
X249213Y530807D02*
Y539272D01*
X372441Y656791D02*
X377953D01*
X372441Y665256D02*
X377953D01*
Y656791D02*
Y665256D01*
X372441Y656791D02*
Y665256D01*
X233465Y656791D02*
X238976D01*
X233465Y665256D02*
X238976D01*
Y656791D02*
Y665256D01*
X233465Y656791D02*
Y665256D01*
X382677Y657185D02*
X388189D01*
X382677Y665650D02*
X388189D01*
Y657185D02*
Y665650D01*
X382677Y657185D02*
Y665650D01*
X296752Y369390D02*
Y373130D01*
X289862Y369390D02*
Y373130D01*
X296752D01*
X289862Y369390D02*
X296752D01*
X211910Y377953D02*
X215650D01*
X213779Y376083D02*
Y379823D01*
X194095Y378346D02*
X198031D01*
X196063Y376378D02*
Y380315D01*
X241339Y389173D02*
Y392717D01*
X239567Y390945D02*
X243110D01*
X244488Y661024D02*
X248425D01*
X246457Y659055D02*
Y662992D01*
X262992Y373622D02*
X266929D01*
X264961Y371654D02*
Y375590D01*
X533071Y594882D02*
Y598819D01*
X531102Y596850D02*
X535039D01*
X395276Y594882D02*
Y598819D01*
X393307Y596850D02*
X397244D01*
X257480Y594882D02*
Y598819D01*
X255512Y596850D02*
X259449D01*
X293701Y379331D02*
Y382874D01*
X291929Y381102D02*
X295472D01*
X543701Y658661D02*
Y662598D01*
X541732Y660630D02*
X545669D01*
X553543Y658661D02*
Y662598D01*
X551575Y660630D02*
X555512D01*
X543701Y534646D02*
Y538583D01*
X541732Y536614D02*
X545669D01*
X533858Y534646D02*
Y538583D01*
X531890Y536614D02*
X535827D01*
X523622Y534646D02*
Y538583D01*
X521654Y536614D02*
X525591D01*
X513779Y658661D02*
Y662598D01*
X511811Y660630D02*
X515748D01*
X523622Y658661D02*
Y662598D01*
X521654Y660630D02*
X525591D01*
X405118Y659449D02*
Y663386D01*
X403150Y661417D02*
X407087D01*
X266142Y659055D02*
Y662992D01*
X264173Y661024D02*
X268110D01*
X415354Y659449D02*
Y663386D01*
X413386Y661417D02*
X417323D01*
X276378Y659055D02*
Y662992D01*
X274410Y661024D02*
X278346D01*
X405118Y532677D02*
Y536614D01*
X403150Y534646D02*
X407087D01*
X266535Y533071D02*
Y537008D01*
X264567Y535039D02*
X268504D01*
X395669Y532677D02*
Y536614D01*
X393701Y534646D02*
X397638D01*
X256299Y533071D02*
Y537008D01*
X254331Y535039D02*
X258268D01*
X385433Y532677D02*
Y536614D01*
X383465Y534646D02*
X387402D01*
X246457Y533071D02*
Y537008D01*
X244488Y535039D02*
X248425D01*
X375197Y659055D02*
Y662992D01*
X373228Y661024D02*
X377165D01*
X236221Y659055D02*
Y662992D01*
X234252Y661024D02*
X238189D01*
X385433Y659449D02*
Y663386D01*
X383465Y661417D02*
X387402D01*
X291437Y371260D02*
X295177D01*
X293307Y369390D02*
Y373130D01*
D14*
X585925Y367814D02*
D03*
D15*
X210827Y372835D02*
Y383071D01*
X216732Y372835D02*
Y383071D01*
X210827D02*
X216732D01*
X210827Y372835D02*
X216732D01*
X193110Y372441D02*
Y384252D01*
X199016Y372441D02*
Y384252D01*
X193110D02*
X199016D01*
X193110Y372441D02*
X199016D01*
X238583Y385236D02*
X244094D01*
X238583Y396654D02*
X244094D01*
Y385236D02*
Y396654D01*
X238583Y385236D02*
Y396654D01*
X242717Y654331D02*
Y667717D01*
X250197Y654331D02*
Y667717D01*
X242717D02*
X250197D01*
X242717Y654331D02*
X250197D01*
X279528Y362795D02*
Y384449D01*
X250394Y362795D02*
Y384449D01*
X279528D01*
X250394Y362795D02*
X279528D01*
X517717Y585827D02*
X548425D01*
X517717Y607874D02*
X548425D01*
X517717Y585827D02*
Y607874D01*
X548425Y585827D02*
Y607874D01*
X379921Y585827D02*
X410630D01*
X379921Y607874D02*
X410630D01*
X379921Y585827D02*
Y607874D01*
X410630Y585827D02*
Y607874D01*
X242126Y585827D02*
X272835D01*
X242126Y607874D02*
X272835D01*
X242126Y585827D02*
Y607874D01*
X272835Y585827D02*
Y607874D01*
X287992Y383858D02*
X299410D01*
X287992Y378346D02*
X299410D01*
Y383858D01*
X287992Y378346D02*
Y383858D01*
X539961Y653937D02*
X547441D01*
X539961Y667323D02*
X547441D01*
Y653937D02*
Y667323D01*
X539961Y653937D02*
Y667323D01*
X549803Y653937D02*
X557283D01*
X549803Y667323D02*
X557283D01*
Y653937D02*
Y667323D01*
X549803Y653937D02*
Y667323D01*
X539961Y543307D02*
X547441D01*
X539961Y529921D02*
X547441D01*
X539961D02*
Y543307D01*
X547441Y529921D02*
Y543307D01*
X530118D02*
X537598D01*
X530118Y529921D02*
X537598D01*
X530118D02*
Y543307D01*
X537598Y529921D02*
Y543307D01*
X519882D02*
X527362D01*
X519882Y529921D02*
X527362D01*
X519882D02*
Y543307D01*
X527362Y529921D02*
Y543307D01*
X510039Y653937D02*
X517520D01*
X510039Y667323D02*
X517520D01*
Y653937D02*
Y667323D01*
X510039Y653937D02*
Y667323D01*
X519882Y653937D02*
X527362D01*
X519882Y667323D02*
X527362D01*
Y653937D02*
Y667323D01*
X519882Y653937D02*
Y667323D01*
X401378Y654724D02*
X408858D01*
X401378Y668110D02*
X408858D01*
Y654724D02*
Y668110D01*
X401378Y654724D02*
Y668110D01*
X262402Y654331D02*
X269882D01*
X262402Y667717D02*
X269882D01*
Y654331D02*
Y667717D01*
X262402Y654331D02*
Y667717D01*
X411614Y654724D02*
X419095D01*
X411614Y668110D02*
X419095D01*
Y654724D02*
Y668110D01*
X411614Y654724D02*
Y668110D01*
X272638Y654331D02*
X280118D01*
X272638Y667717D02*
X280118D01*
Y654331D02*
Y667717D01*
X272638Y654331D02*
Y667717D01*
X401378Y541339D02*
X408858D01*
X401378Y527953D02*
X408858D01*
X401378D02*
Y541339D01*
X408858Y527953D02*
Y541339D01*
X262795Y541732D02*
X270276D01*
X262795Y528346D02*
X270276D01*
X262795D02*
Y541732D01*
X270276Y528346D02*
Y541732D01*
X391929Y541339D02*
X399409D01*
X391929Y527953D02*
X399409D01*
X391929D02*
Y541339D01*
X399409Y527953D02*
Y541339D01*
X252559Y541732D02*
X260039D01*
X252559Y528346D02*
X260039D01*
X252559D02*
Y541732D01*
X260039Y528346D02*
Y541732D01*
X381693Y541339D02*
X389173D01*
X381693Y527953D02*
X389173D01*
X381693D02*
Y541339D01*
X389173Y527953D02*
Y541339D01*
X242717Y541732D02*
X250197D01*
X242717Y528346D02*
X250197D01*
X242717D02*
Y541732D01*
X250197Y528346D02*
Y541732D01*
X371457Y654331D02*
X378937D01*
X371457Y667717D02*
X378937D01*
Y654331D02*
Y667717D01*
X371457Y654331D02*
Y667717D01*
X232480Y654331D02*
X239961D01*
X232480Y667717D02*
X239961D01*
Y654331D02*
Y667717D01*
X232480Y654331D02*
Y667717D01*
X381693Y654724D02*
X389173D01*
X381693Y668110D02*
X389173D01*
Y654724D02*
Y668110D01*
X381693Y654724D02*
Y668110D01*
X299213Y368307D02*
Y374213D01*
X287402Y368307D02*
Y374213D01*
X299213D01*
X287402Y368307D02*
X299213D01*
M02*
