G04*
G04 #@! TF.GenerationSoftware,Altium Limited,Altium Designer,19.1.8 (144)*
G04*
G04 Layer_Physical_Order=1*
G04 Layer_Color=255*
%FSLAX25Y25*%
%MOIN*%
G70*
G01*
G75*
%ADD10C,0.01000*%
%ADD13C,0.00394*%
%ADD14R,0.40158X0.15945*%
%ADD15C,0.00197*%
%ADD16R,0.02441X0.05512*%
%ADD17R,0.04331X0.09449*%
%ADD26C,0.01968*%
%ADD27C,0.04016*%
%ADD28C,0.01968*%
%ADD29C,0.02756*%
%ADD30C,0.09488*%
%ADD31C,0.23622*%
%ADD32C,0.03740*%
G36*
X666549Y697625D02*
X666529Y697125D01*
X665323Y696095D01*
X664013Y694561D01*
X662959Y692842D01*
X662188Y690979D01*
X661717Y689018D01*
X661598Y687508D01*
X674409D01*
Y687008D01*
X674909D01*
Y674197D01*
X676420Y674315D01*
X678380Y674786D01*
X680243Y675558D01*
X681963Y676612D01*
X683496Y677921D01*
X684526Y679127D01*
X685026Y679147D01*
X688976Y675197D01*
X688976Y337008D01*
X684845Y332876D01*
X684345Y332896D01*
X683496Y333890D01*
X681963Y335199D01*
X680243Y336253D01*
X678380Y337025D01*
X676420Y337496D01*
X674909Y337614D01*
Y324803D01*
X674409D01*
Y324303D01*
X661598D01*
X661717Y322793D01*
X662188Y320832D01*
X662959Y318969D01*
X664013Y317250D01*
X665323Y315716D01*
X666317Y314867D01*
X666336Y314368D01*
X665748Y313779D01*
X124409D01*
X123640Y314549D01*
X123659Y315049D01*
X124441Y315716D01*
X125751Y317250D01*
X126804Y318969D01*
X127576Y320832D01*
X128047Y322793D01*
X128166Y324303D01*
X115354D01*
Y324803D01*
X114854D01*
Y337614D01*
X113344Y337496D01*
X111383Y337025D01*
X109520Y336253D01*
X107801Y335199D01*
X106268Y333890D01*
X105600Y333108D01*
X105100Y333089D01*
X102362Y335827D01*
Y677165D01*
X104516Y679319D01*
X105142Y679239D01*
X106268Y677921D01*
X107801Y676612D01*
X109520Y675558D01*
X111383Y674786D01*
X113344Y674315D01*
X114854Y674197D01*
Y687008D01*
X115354D01*
Y687508D01*
X128166D01*
X128047Y689018D01*
X127576Y690979D01*
X126804Y692842D01*
X125751Y694561D01*
X124441Y696095D01*
X123124Y697220D01*
X123043Y697846D01*
X124803Y699606D01*
X664567D01*
X666549Y697625D01*
D02*
G37*
%LPC*%
G36*
X553780Y678952D02*
X553005Y678798D01*
X552349Y678360D01*
X551910Y677703D01*
X551756Y676929D01*
X551910Y676155D01*
X552349Y675499D01*
X553005Y675060D01*
X553780Y674906D01*
X554554Y675060D01*
X555210Y675499D01*
X555649Y676155D01*
X555803Y676929D01*
X555649Y677703D01*
X555210Y678360D01*
X554554Y678798D01*
X553780Y678952D01*
D02*
G37*
G36*
X543780D02*
X543005Y678798D01*
X542349Y678360D01*
X541910Y677703D01*
X541756Y676929D01*
X541910Y676155D01*
X542349Y675499D01*
X543005Y675060D01*
X543780Y674906D01*
X544554Y675060D01*
X545210Y675499D01*
X545649Y676155D01*
X545803Y676929D01*
X545649Y677703D01*
X545210Y678360D01*
X544554Y678798D01*
X543780Y678952D01*
D02*
G37*
G36*
X533779D02*
X533005Y678798D01*
X532349Y678360D01*
X531910Y677703D01*
X531756Y676929D01*
X531910Y676155D01*
X532349Y675499D01*
X533005Y675060D01*
X533779Y674906D01*
X534554Y675060D01*
X535210Y675499D01*
X535649Y676155D01*
X535803Y676929D01*
X535649Y677703D01*
X535210Y678360D01*
X534554Y678798D01*
X533779Y678952D01*
D02*
G37*
G36*
X523779D02*
X523005Y678798D01*
X522349Y678360D01*
X521910Y677703D01*
X521756Y676929D01*
X521910Y676155D01*
X522349Y675499D01*
X523005Y675060D01*
X523779Y674906D01*
X524554Y675060D01*
X525210Y675499D01*
X525649Y676155D01*
X525803Y676929D01*
X525649Y677703D01*
X525210Y678360D01*
X524554Y678798D01*
X523779Y678952D01*
D02*
G37*
G36*
X513779D02*
X513005Y678798D01*
X512349Y678360D01*
X511910Y677703D01*
X511756Y676929D01*
X511910Y676155D01*
X512349Y675499D01*
X513005Y675060D01*
X513779Y674906D01*
X514554Y675060D01*
X515210Y675499D01*
X515649Y676155D01*
X515803Y676929D01*
X515649Y677703D01*
X515210Y678360D01*
X514554Y678798D01*
X513779Y678952D01*
D02*
G37*
G36*
X415354D02*
X414580Y678798D01*
X413924Y678360D01*
X413485Y677703D01*
X413331Y676929D01*
X413485Y676155D01*
X413924Y675499D01*
X414580Y675060D01*
X415354Y674906D01*
X416128Y675060D01*
X416785Y675499D01*
X417223Y676155D01*
X417378Y676929D01*
X417223Y677703D01*
X416785Y678360D01*
X416128Y678798D01*
X415354Y678952D01*
D02*
G37*
G36*
X405354D02*
X404580Y678798D01*
X403924Y678360D01*
X403485Y677703D01*
X403331Y676929D01*
X403485Y676155D01*
X403924Y675499D01*
X404580Y675060D01*
X405354Y674906D01*
X406129Y675060D01*
X406785Y675499D01*
X407224Y676155D01*
X407377Y676929D01*
X407224Y677703D01*
X406785Y678360D01*
X406129Y678798D01*
X405354Y678952D01*
D02*
G37*
G36*
X395354D02*
X394580Y678798D01*
X393924Y678360D01*
X393485Y677703D01*
X393331Y676929D01*
X393485Y676155D01*
X393924Y675499D01*
X394580Y675060D01*
X395354Y674906D01*
X396129Y675060D01*
X396785Y675499D01*
X397223Y676155D01*
X397377Y676929D01*
X397223Y677703D01*
X396785Y678360D01*
X396129Y678798D01*
X395354Y678952D01*
D02*
G37*
G36*
X385354D02*
X384580Y678798D01*
X383924Y678360D01*
X383485Y677703D01*
X383331Y676929D01*
X383485Y676155D01*
X383924Y675499D01*
X384580Y675060D01*
X385354Y674906D01*
X386128Y675060D01*
X386785Y675499D01*
X387224Y676155D01*
X387377Y676929D01*
X387224Y677703D01*
X386785Y678360D01*
X386128Y678798D01*
X385354Y678952D01*
D02*
G37*
G36*
X375354D02*
X374580Y678798D01*
X373924Y678360D01*
X373485Y677703D01*
X373331Y676929D01*
X373485Y676155D01*
X373924Y675499D01*
X374580Y675060D01*
X375354Y674906D01*
X376129Y675060D01*
X376785Y675499D01*
X377223Y676155D01*
X377377Y676929D01*
X377223Y677703D01*
X376785Y678360D01*
X376129Y678798D01*
X375354Y678952D01*
D02*
G37*
G36*
X276378D02*
X275604Y678798D01*
X274947Y678360D01*
X274509Y677703D01*
X274355Y676929D01*
X274509Y676155D01*
X274947Y675499D01*
X275604Y675060D01*
X276378Y674906D01*
X277152Y675060D01*
X277808Y675499D01*
X278247Y676155D01*
X278401Y676929D01*
X278247Y677703D01*
X277808Y678360D01*
X277152Y678798D01*
X276378Y678952D01*
D02*
G37*
G36*
X266378D02*
X265604Y678798D01*
X264947Y678360D01*
X264509Y677703D01*
X264355Y676929D01*
X264509Y676155D01*
X264947Y675499D01*
X265604Y675060D01*
X266378Y674906D01*
X267152Y675060D01*
X267809Y675499D01*
X268247Y676155D01*
X268401Y676929D01*
X268247Y677703D01*
X267809Y678360D01*
X267152Y678798D01*
X266378Y678952D01*
D02*
G37*
G36*
X256378D02*
X255604Y678798D01*
X254947Y678360D01*
X254509Y677703D01*
X254355Y676929D01*
X254509Y676155D01*
X254947Y675499D01*
X255604Y675060D01*
X256378Y674906D01*
X257152Y675060D01*
X257808Y675499D01*
X258247Y676155D01*
X258401Y676929D01*
X258247Y677703D01*
X257808Y678360D01*
X257152Y678798D01*
X256378Y678952D01*
D02*
G37*
G36*
X246378D02*
X245604Y678798D01*
X244947Y678360D01*
X244509Y677703D01*
X244355Y676929D01*
X244509Y676155D01*
X244947Y675499D01*
X245604Y675060D01*
X246378Y674906D01*
X247152Y675060D01*
X247809Y675499D01*
X248247Y676155D01*
X248401Y676929D01*
X248247Y677703D01*
X247809Y678360D01*
X247152Y678798D01*
X246378Y678952D01*
D02*
G37*
G36*
X236378D02*
X235604Y678798D01*
X234947Y678360D01*
X234509Y677703D01*
X234355Y676929D01*
X234509Y676155D01*
X234947Y675499D01*
X235604Y675060D01*
X236378Y674906D01*
X237152Y675060D01*
X237808Y675499D01*
X238247Y676155D01*
X238401Y676929D01*
X238247Y677703D01*
X237808Y678360D01*
X237152Y678798D01*
X236378Y678952D01*
D02*
G37*
G36*
X673910Y686508D02*
X661598D01*
X661717Y684998D01*
X662188Y683037D01*
X662959Y681174D01*
X664013Y679455D01*
X665323Y677921D01*
X666856Y676612D01*
X668575Y675558D01*
X670438Y674786D01*
X672399Y674315D01*
X673910Y674197D01*
Y686508D01*
D02*
G37*
G36*
X128166D02*
X115854D01*
Y674197D01*
X117365Y674315D01*
X119325Y674786D01*
X121188Y675558D01*
X122908Y676612D01*
X124441Y677921D01*
X125751Y679455D01*
X126804Y681174D01*
X127576Y683037D01*
X128047Y684998D01*
X128166Y686508D01*
D02*
G37*
G36*
X527559Y608330D02*
X526631Y608146D01*
X526307Y607929D01*
X391016D01*
X390692Y608146D01*
X389764Y608330D01*
X388836Y608146D01*
X388511Y607929D01*
X254008D01*
X253684Y608146D01*
X252756Y608330D01*
X251828Y608146D01*
X251042Y607620D01*
X250516Y606833D01*
X250440Y606451D01*
X234947Y590958D01*
X234509Y590302D01*
X234355Y589528D01*
Y518952D01*
X162992D01*
X162218Y518798D01*
X161562Y518360D01*
X137546Y494344D01*
X137107Y493688D01*
X136953Y492913D01*
Y477630D01*
X136736Y477306D01*
X136552Y476378D01*
X136736Y475450D01*
X137262Y474663D01*
X138049Y474138D01*
X138431Y474062D01*
X220617Y391877D01*
X221273Y391438D01*
X222047Y391284D01*
X247194D01*
X249259Y389219D01*
X249335Y388836D01*
X249860Y388049D01*
X250647Y387524D01*
X251575Y387339D01*
X252503Y387524D01*
X252827Y387741D01*
X313365D01*
X345178Y355928D01*
X345835Y355489D01*
X346609Y355335D01*
X367394D01*
X374849Y347880D01*
X374925Y347497D01*
X375451Y346711D01*
X376238Y346185D01*
X377165Y346001D01*
X378093Y346185D01*
X378880Y346711D01*
X379405Y347497D01*
X379590Y348425D01*
X379405Y349353D01*
X378880Y350140D01*
X378093Y350665D01*
X377710Y350741D01*
X370601Y357851D01*
X370792Y358313D01*
X474540D01*
X474663Y358128D01*
X475450Y357603D01*
X476378Y357418D01*
X477306Y357603D01*
X478092Y358128D01*
X478618Y358915D01*
X478802Y359842D01*
X478618Y360770D01*
X478092Y361557D01*
X477792Y361758D01*
Y362258D01*
X478092Y362459D01*
X478618Y363245D01*
X478802Y364173D01*
X478618Y365101D01*
X478092Y365888D01*
X477306Y366413D01*
X476378Y366598D01*
X475450Y366413D01*
X474663Y365888D01*
X474540Y365703D01*
X347878D01*
X314780Y398800D01*
X315014Y399274D01*
X315197Y399250D01*
X315982Y399353D01*
X316714Y399656D01*
X317342Y400138D01*
X317824Y400767D01*
X318127Y401498D01*
X318165Y401783D01*
X315197D01*
Y402283D01*
X314697D01*
Y405252D01*
X314412Y405214D01*
X313680Y404911D01*
X313052Y404429D01*
X312569Y403800D01*
X312266Y403069D01*
X312266Y403063D01*
X311766Y403095D01*
Y407244D01*
X311649Y407829D01*
X311318Y408325D01*
X308129Y411514D01*
X308231Y412284D01*
X308127Y413069D01*
X307824Y413800D01*
X307342Y414429D01*
X306714Y414911D01*
X305982Y415214D01*
X305197Y415317D01*
X304412Y415214D01*
X303680Y414911D01*
X303052Y414429D01*
X302570Y413800D01*
X302266Y413069D01*
X302163Y412284D01*
X302266Y411498D01*
X302570Y410767D01*
X303052Y410138D01*
X303680Y409656D01*
X304412Y409353D01*
X305197Y409250D01*
X305966Y409351D01*
X308707Y406611D01*
Y402571D01*
X308675Y402495D01*
X308207Y402465D01*
X308191Y402585D01*
X308127Y403069D01*
X307824Y403800D01*
X307342Y404429D01*
X306714Y404911D01*
X305982Y405214D01*
X305197Y405317D01*
X304412Y405214D01*
X303680Y404911D01*
X303052Y404429D01*
X302570Y403800D01*
X302266Y403069D01*
X302163Y402283D01*
X302266Y401498D01*
X302570Y400767D01*
X303052Y400138D01*
X303680Y399656D01*
X304412Y399353D01*
X305197Y399250D01*
X305966Y399351D01*
X313069Y392249D01*
X312877Y391787D01*
X252827D01*
X252503Y392004D01*
X252120Y392080D01*
X249462Y394738D01*
X248806Y395176D01*
X248031Y395330D01*
X222885D01*
X141293Y476923D01*
X141216Y477306D01*
X140999Y477630D01*
Y492075D01*
X163830Y514906D01*
X236378D01*
X237152Y515060D01*
X237808Y515499D01*
X238247Y516155D01*
X238401Y516929D01*
Y588690D01*
X253301Y603589D01*
X253684Y603665D01*
X254008Y603882D01*
X388511D01*
X388836Y603665D01*
X389764Y603481D01*
X390692Y603665D01*
X391016Y603882D01*
X411011D01*
X411247Y603441D01*
X411146Y603290D01*
X410961Y602362D01*
X411146Y601434D01*
X411671Y600648D01*
X412197Y600297D01*
Y599703D01*
X411671Y599352D01*
X411146Y598566D01*
X410961Y597638D01*
X411146Y596710D01*
X411671Y595923D01*
X411856Y595800D01*
Y519107D01*
X404430Y511681D01*
X404099Y511185D01*
X403982Y510600D01*
Y494095D01*
X404099Y493509D01*
X404430Y493013D01*
X471359Y426084D01*
X471856Y425752D01*
X472441Y425636D01*
X474124D01*
X474223Y425136D01*
X473680Y424911D01*
X473052Y424429D01*
X472570Y423800D01*
X472266Y423069D01*
X472163Y422284D01*
X472266Y421498D01*
X472570Y420767D01*
X472748Y420533D01*
X472502Y420033D01*
X471654D01*
X471068Y419917D01*
X470572Y419585D01*
X463879Y412892D01*
X463548Y412396D01*
X463478Y412047D01*
X462978Y412096D01*
Y416982D01*
X464861Y418864D01*
X465193Y419360D01*
X465309Y419946D01*
Y425327D01*
X465494Y425451D01*
X466019Y426237D01*
X466204Y427165D01*
X466019Y428093D01*
X465494Y428880D01*
X464707Y429405D01*
X463779Y429590D01*
X462852Y429405D01*
X462065Y428880D01*
X461540Y428093D01*
X461393Y427359D01*
X460950Y427115D01*
X460872Y427106D01*
X460377Y427437D01*
X459449Y427621D01*
X458521Y427437D01*
X457734Y426911D01*
X457209Y426125D01*
X457024Y425197D01*
X457090Y424869D01*
X456618Y424674D01*
X456439Y424943D01*
X455652Y425468D01*
X454724Y425653D01*
X453797Y425468D01*
X453010Y424943D01*
X452484Y424156D01*
X452325Y423354D01*
X451909Y423208D01*
X451824Y423204D01*
X451714Y423368D01*
X450928Y423893D01*
X450000Y424078D01*
X449072Y423893D01*
X448286Y423368D01*
X447760Y422581D01*
X447576Y421654D01*
X447760Y420726D01*
X448286Y419939D01*
X449072Y419414D01*
X450000Y419229D01*
X450218Y419272D01*
X453919Y415571D01*
Y392044D01*
X454036Y391459D01*
X454367Y390963D01*
X492081Y353249D01*
X492577Y352918D01*
X493162Y352801D01*
X614304D01*
X614427Y352616D01*
X615214Y352091D01*
X616142Y351906D01*
X617070Y352091D01*
X617856Y352616D01*
X618382Y353403D01*
X618566Y354331D01*
X618382Y355258D01*
X617856Y356045D01*
X617070Y356571D01*
X616142Y356755D01*
X615214Y356571D01*
X614427Y356045D01*
X614304Y355860D01*
X612480D01*
X612430Y356360D01*
X612739Y356421D01*
X613525Y356947D01*
X614051Y357734D01*
X614236Y358661D01*
X614051Y359589D01*
X613680Y360144D01*
X613948Y360644D01*
X622576D01*
X623161Y360760D01*
X623657Y361092D01*
X624816Y362250D01*
X640945D01*
X641530Y362367D01*
X642026Y362698D01*
X643109Y363781D01*
X643440Y364277D01*
X643557Y364862D01*
Y365142D01*
X644248D01*
Y370559D01*
X644276Y371047D01*
X644748Y371047D01*
X650606D01*
Y382496D01*
X644276D01*
Y373142D01*
X644248Y372654D01*
X643776Y372654D01*
X634896D01*
Y378839D01*
X634779Y379424D01*
X634448Y379920D01*
X630578Y383790D01*
X630081Y384122D01*
X629496Y384238D01*
X595556D01*
X574430Y405365D01*
X573933Y405696D01*
X573348Y405813D01*
X551074D01*
X533877Y423010D01*
X533921Y423228D01*
X533736Y424156D01*
X533211Y424943D01*
X532424Y425468D01*
X531496Y425653D01*
X530568Y425468D01*
X529782Y424943D01*
X529256Y424156D01*
X529072Y423228D01*
X529256Y422300D01*
X529782Y421514D01*
X530568Y420988D01*
X531496Y420804D01*
X531714Y420847D01*
X548287Y404275D01*
X548095Y403813D01*
X487815D01*
X487342Y404429D01*
X486714Y404911D01*
X485982Y405214D01*
X485197Y405317D01*
X484412Y405214D01*
X483680Y404911D01*
X483052Y404429D01*
X482570Y403800D01*
X482266Y403069D01*
X482163Y402283D01*
X482266Y401498D01*
X482570Y400767D01*
X483052Y400138D01*
X483680Y399656D01*
X484412Y399353D01*
X485197Y399250D01*
X485982Y399353D01*
X486714Y399656D01*
X487342Y400138D01*
X487815Y400754D01*
X571886D01*
X593013Y379627D01*
X593509Y379296D01*
X594095Y379179D01*
X616296D01*
X617072Y378403D01*
X616958Y377861D01*
X616929Y377839D01*
X616043Y378015D01*
X615115Y377831D01*
X614329Y377305D01*
X614128Y377004D01*
X613628D01*
X613427Y377305D01*
X612640Y377831D01*
X611713Y378015D01*
X610785Y377831D01*
X609998Y377305D01*
X609473Y376518D01*
X609288Y375590D01*
X609473Y374663D01*
X609998Y373876D01*
X610183Y373752D01*
Y372654D01*
X605161D01*
Y365703D01*
X492760D01*
X463952Y394511D01*
X464198Y394971D01*
X464961Y394819D01*
X465889Y395004D01*
X466675Y395530D01*
X467201Y396316D01*
X467385Y397244D01*
X467201Y398172D01*
X466974Y398512D01*
X467018Y398602D01*
X467304Y398917D01*
X468110Y398757D01*
X469038Y398941D01*
X469825Y399467D01*
X470350Y400253D01*
X470535Y401181D01*
X470350Y402109D01*
X469825Y402895D01*
X469640Y403019D01*
Y411499D01*
X472090Y413949D01*
X472514Y413666D01*
X472266Y413069D01*
X472229Y412783D01*
X475197D01*
X478165D01*
X478127Y413069D01*
X477824Y413800D01*
X477585Y414112D01*
X477831Y414612D01*
X482562D01*
X482809Y414112D01*
X482570Y413800D01*
X482266Y413069D01*
X482163Y412284D01*
X482266Y411498D01*
X482570Y410767D01*
X483052Y410138D01*
X483680Y409656D01*
X484412Y409353D01*
X485197Y409250D01*
X485982Y409353D01*
X486714Y409656D01*
X487342Y410138D01*
X487824Y410767D01*
X488127Y411498D01*
X488231Y412284D01*
X488127Y413069D01*
X487824Y413800D01*
X487585Y414112D01*
X487831Y414612D01*
X488976D01*
X489562Y414729D01*
X490058Y415060D01*
X495176Y420178D01*
X495507Y420675D01*
X495624Y421260D01*
Y443386D01*
X495507Y443971D01*
X495176Y444467D01*
X488129Y451514D01*
X488231Y452283D01*
X488127Y453069D01*
X487824Y453800D01*
X487342Y454429D01*
X486714Y454911D01*
X485982Y455214D01*
X485197Y455317D01*
X484412Y455214D01*
X483680Y454911D01*
X483052Y454429D01*
X482570Y453800D01*
X482266Y453069D01*
X482163Y452283D01*
X482266Y451498D01*
X482570Y450767D01*
X483052Y450138D01*
X483680Y449656D01*
X484412Y449353D01*
X485197Y449250D01*
X485966Y449351D01*
X492565Y442752D01*
Y421893D01*
X492067Y421395D01*
X491606Y421641D01*
X491687Y422047D01*
Y437323D01*
X491570Y437908D01*
X491239Y438404D01*
X488129Y441514D01*
X488231Y442283D01*
X488127Y443069D01*
X487824Y443800D01*
X487342Y444429D01*
X486714Y444911D01*
X485982Y445214D01*
X485197Y445317D01*
X484412Y445214D01*
X483680Y444911D01*
X483052Y444429D01*
X482570Y443800D01*
X482266Y443069D01*
X482163Y442283D01*
X482266Y441498D01*
X482570Y440767D01*
X483052Y440138D01*
X483680Y439656D01*
X484412Y439353D01*
X485197Y439250D01*
X485966Y439351D01*
X488628Y436689D01*
Y433095D01*
X488128Y433063D01*
X488127Y433069D01*
X487824Y433800D01*
X487342Y434429D01*
X486714Y434911D01*
X485982Y435214D01*
X485197Y435317D01*
X484412Y435214D01*
X483680Y434911D01*
X483052Y434429D01*
X482579Y433813D01*
X481736D01*
X477853Y437696D01*
X477357Y438027D01*
X476772Y438144D01*
X475043D01*
X474306Y438881D01*
X474560Y439333D01*
X475197Y439250D01*
X475982Y439353D01*
X476714Y439656D01*
X477342Y440138D01*
X477824Y440767D01*
X478127Y441498D01*
X478231Y442283D01*
X478127Y443069D01*
X477824Y443800D01*
X477342Y444429D01*
X476714Y444911D01*
X475982Y445214D01*
X475197Y445317D01*
X474427Y445216D01*
X421608Y498035D01*
Y519422D01*
X421793Y519545D01*
X422319Y520332D01*
X422503Y521260D01*
X422319Y522188D01*
X421793Y522974D01*
X421007Y523500D01*
X420079Y523684D01*
X419151Y523500D01*
X418364Y522974D01*
X418293Y522868D01*
X417793Y523019D01*
Y599484D01*
X417677Y600070D01*
X417345Y600566D01*
X415767Y602144D01*
X415810Y602362D01*
X415626Y603290D01*
X415525Y603441D01*
X415760Y603882D01*
X526307D01*
X526631Y603665D01*
X527014Y603589D01*
X535196Y595407D01*
X535032Y594864D01*
X534505Y594760D01*
X533719Y594234D01*
X533193Y593447D01*
X533008Y592520D01*
X533193Y591592D01*
X533719Y590805D01*
X534025Y590601D01*
Y585169D01*
X533525Y584932D01*
X532676Y585101D01*
X531748Y584916D01*
X530962Y584390D01*
X530436Y583604D01*
X530252Y582676D01*
X530436Y581748D01*
X530962Y580962D01*
X531147Y580838D01*
Y550632D01*
X478446Y497932D01*
X478115Y497436D01*
X477998Y496850D01*
Y494395D01*
X477498Y494225D01*
X477342Y494429D01*
X476714Y494911D01*
X475982Y495214D01*
X475197Y495317D01*
X474412Y495214D01*
X473680Y494911D01*
X473052Y494429D01*
X472570Y493800D01*
X472266Y493069D01*
X472163Y492283D01*
X472266Y491498D01*
X472570Y490767D01*
X473052Y490138D01*
X473680Y489656D01*
X474412Y489353D01*
X475197Y489250D01*
X475982Y489353D01*
X476714Y489656D01*
X477342Y490138D01*
X477498Y490342D01*
X477998Y490172D01*
Y487248D01*
X475967Y485216D01*
X475197Y485317D01*
X474412Y485214D01*
X473680Y484911D01*
X473052Y484429D01*
X472570Y483800D01*
X472266Y483069D01*
X472163Y482283D01*
X472266Y481498D01*
X472570Y480767D01*
X473052Y480138D01*
X473680Y479656D01*
X474373Y479369D01*
X474540Y479022D01*
X474589Y478877D01*
X474115Y478404D01*
X473784Y477908D01*
X473667Y477323D01*
Y474901D01*
X473052Y474429D01*
X472570Y473800D01*
X472266Y473069D01*
X472163Y472284D01*
X472266Y471498D01*
X472570Y470767D01*
X473052Y470138D01*
X473680Y469656D01*
X474412Y469353D01*
X475197Y469250D01*
X475982Y469353D01*
X476714Y469656D01*
X477342Y470138D01*
X477824Y470767D01*
X478127Y471498D01*
X478231Y472284D01*
X478127Y473069D01*
X477824Y473800D01*
X477342Y474429D01*
X476726Y474901D01*
Y476689D01*
X481782Y481744D01*
X482255Y481584D01*
X482266Y481498D01*
X482570Y480767D01*
X483052Y480138D01*
X483680Y479656D01*
X484412Y479353D01*
X484497Y479342D01*
X484658Y478868D01*
X479234Y473444D01*
X478902Y472948D01*
X478786Y472363D01*
Y468035D01*
X475967Y465216D01*
X475197Y465317D01*
X474412Y465214D01*
X473680Y464911D01*
X473052Y464429D01*
X472570Y463800D01*
X472266Y463069D01*
X472163Y462284D01*
X472266Y461498D01*
X472570Y460767D01*
X473052Y460138D01*
X473680Y459656D01*
X474412Y459353D01*
X475197Y459250D01*
X475982Y459353D01*
X476714Y459656D01*
X477342Y460138D01*
X477824Y460767D01*
X478127Y461498D01*
X478231Y462284D01*
X478129Y463053D01*
X481396Y466320D01*
X481728Y466816D01*
X481844Y467402D01*
Y471211D01*
X482344Y471310D01*
X482570Y470767D01*
X483052Y470138D01*
X483680Y469656D01*
X484412Y469353D01*
X485197Y469250D01*
X485982Y469353D01*
X486714Y469656D01*
X487342Y470138D01*
X487824Y470767D01*
X488127Y471498D01*
X488231Y472284D01*
X488127Y473069D01*
X487824Y473800D01*
X487342Y474429D01*
X486714Y474911D01*
X486021Y475198D01*
X485854Y475545D01*
X485805Y475690D01*
X520397Y510282D01*
X543307D01*
X543892Y510398D01*
X544388Y510730D01*
X549113Y515454D01*
X549266Y515683D01*
X549766Y515531D01*
Y463740D01*
X500941Y414915D01*
X497901D01*
X497777Y415100D01*
X496991Y415626D01*
X496063Y415810D01*
X495135Y415626D01*
X494349Y415100D01*
X493823Y414314D01*
X493639Y413386D01*
X493823Y412458D01*
X494349Y411671D01*
X495135Y411146D01*
X496063Y410961D01*
X496991Y411146D01*
X497777Y411671D01*
X497901Y411856D01*
X501575D01*
X502160Y411973D01*
X502656Y412304D01*
X552377Y462025D01*
X552708Y462521D01*
X552825Y463106D01*
Y514625D01*
X553325Y514996D01*
X553780Y514906D01*
X554554Y515060D01*
X555210Y515499D01*
X555649Y516155D01*
X555803Y516929D01*
X555649Y517703D01*
X555210Y518360D01*
X554554Y518798D01*
X553780Y518952D01*
X553491Y518895D01*
X553104Y519212D01*
Y567453D01*
X553289Y567577D01*
X553815Y568364D01*
X553999Y569291D01*
X553815Y570219D01*
X553289Y571006D01*
X552503Y571531D01*
X551575Y571716D01*
X550647Y571531D01*
X549860Y571006D01*
X549335Y570219D01*
X549150Y569291D01*
X549335Y568364D01*
X549860Y567577D01*
X550045Y567453D01*
Y522176D01*
X549545Y521927D01*
X548959Y522319D01*
X548032Y522503D01*
X547104Y522319D01*
X546317Y521793D01*
X545791Y521007D01*
X545607Y520079D01*
X545791Y519151D01*
X546317Y518364D01*
X546502Y518241D01*
Y517364D01*
X546237Y517159D01*
X545718Y517352D01*
X545649Y517703D01*
X545210Y518360D01*
X544554Y518798D01*
X543780Y518952D01*
X543005Y518798D01*
X542349Y518360D01*
X541910Y517703D01*
X541756Y516929D01*
X541910Y516155D01*
X542349Y515499D01*
X543005Y515060D01*
X543573Y514947D01*
X543765Y514432D01*
X542674Y513340D01*
X519764D01*
X519178Y513224D01*
X518682Y512892D01*
X488612Y482822D01*
X488139Y482983D01*
X488127Y483069D01*
X487824Y483800D01*
X487342Y484429D01*
X486714Y484911D01*
X485982Y485214D01*
X485197Y485317D01*
X484412Y485214D01*
X483680Y484911D01*
X483505Y484777D01*
X483057Y484998D01*
Y489569D01*
X483505Y489790D01*
X483680Y489656D01*
X484412Y489353D01*
X485197Y489250D01*
X485982Y489353D01*
X486714Y489656D01*
X487342Y490138D01*
X487824Y490767D01*
X488127Y491498D01*
X488231Y492283D01*
X488127Y493069D01*
X487824Y493800D01*
X487342Y494429D01*
X486714Y494911D01*
X485982Y495214D01*
X485197Y495317D01*
X484412Y495214D01*
X483952Y495023D01*
X483424Y495275D01*
X483397Y495313D01*
X483384Y495394D01*
X536635Y548646D01*
X536967Y549142D01*
X537083Y549727D01*
Y580481D01*
X537583Y580748D01*
X538049Y580437D01*
X538476Y580352D01*
Y582677D01*
Y585002D01*
X538049Y584917D01*
X537583Y584606D01*
X537083Y584874D01*
Y590763D01*
X537148Y590805D01*
X537673Y591592D01*
X537778Y592119D01*
X538320Y592283D01*
X595814Y534790D01*
X596470Y534351D01*
X597244Y534197D01*
X640086D01*
X640411Y533981D01*
X641339Y533796D01*
X642266Y533981D01*
X643053Y534506D01*
X643579Y535293D01*
X643763Y536221D01*
X643579Y537148D01*
X643053Y537935D01*
X642266Y538460D01*
X641339Y538645D01*
X640411Y538460D01*
X640086Y538244D01*
X598082D01*
X529875Y606451D01*
X529799Y606833D01*
X529274Y607620D01*
X528487Y608146D01*
X527559Y608330D01*
D02*
G37*
G36*
X539476Y585002D02*
Y583177D01*
X541301D01*
X541216Y583605D01*
X540691Y584392D01*
X539904Y584917D01*
X539476Y585002D01*
D02*
G37*
G36*
X541301Y582177D02*
X539476D01*
Y580352D01*
X539904Y580437D01*
X540691Y580963D01*
X541216Y581749D01*
X541301Y582177D01*
D02*
G37*
G36*
X671969Y544573D02*
X670469Y544376D01*
X669072Y543797D01*
X667872Y542876D01*
X666951Y541676D01*
X666372Y540279D01*
X666175Y538779D01*
X666372Y537280D01*
X666951Y535883D01*
X667872Y534683D01*
X669072Y533762D01*
X670469Y533183D01*
X671969Y532986D01*
X673468Y533183D01*
X674865Y533762D01*
X676065Y534683D01*
X676986Y535883D01*
X677565Y537280D01*
X677762Y538779D01*
X677565Y540279D01*
X676986Y541676D01*
X676065Y542876D01*
X674865Y543797D01*
X673468Y544376D01*
X671969Y544573D01*
D02*
G37*
G36*
X117795Y543786D02*
X116296Y543588D01*
X114899Y543010D01*
X113698Y542089D01*
X112778Y540889D01*
X112199Y539492D01*
X112002Y537992D01*
X112199Y536493D01*
X112778Y535095D01*
X113698Y533895D01*
X114899Y532975D01*
X116296Y532396D01*
X117795Y532198D01*
X119295Y532396D01*
X120692Y532975D01*
X121892Y533895D01*
X122813Y535095D01*
X123391Y536493D01*
X123589Y537992D01*
X123391Y539492D01*
X122813Y540889D01*
X121892Y542089D01*
X120692Y543010D01*
X119295Y543588D01*
X117795Y543786D01*
D02*
G37*
G36*
X275590Y598488D02*
X274663Y598303D01*
X273876Y597777D01*
X273351Y596991D01*
X273166Y596063D01*
X273351Y595135D01*
X273876Y594349D01*
X274663Y593823D01*
X275590Y593639D01*
X276518Y593823D01*
X277305Y594349D01*
X277486Y594366D01*
X326030Y545823D01*
Y532277D01*
X325530Y532126D01*
X325491Y532184D01*
X264192Y593482D01*
X264236Y593701D01*
X264051Y594629D01*
X263525Y595415D01*
X262739Y595941D01*
X261811Y596125D01*
X260883Y595941D01*
X260097Y595415D01*
X259571Y594629D01*
X259386Y593701D01*
X259571Y592773D01*
X260097Y591986D01*
X260883Y591461D01*
X261811Y591276D01*
X262029Y591320D01*
X322880Y530469D01*
Y508925D01*
X322695Y508801D01*
X322169Y508014D01*
X321985Y507087D01*
X322169Y506159D01*
X322695Y505372D01*
X323482Y504847D01*
X324410Y504662D01*
X325248Y504829D01*
X325589Y504651D01*
X325753Y504523D01*
X325766Y504353D01*
X325319Y503684D01*
X325134Y502756D01*
X325319Y501828D01*
X325845Y501042D01*
X326631Y500516D01*
X327559Y500331D01*
X328487Y500516D01*
X329274Y501042D01*
X329799Y501828D01*
X329984Y502756D01*
X329799Y503684D01*
X329274Y504470D01*
X329088Y504594D01*
Y546457D01*
X328972Y547042D01*
X328641Y547538D01*
X279034Y597144D01*
X278538Y597476D01*
X277953Y597592D01*
X277429D01*
X277305Y597777D01*
X276518Y598303D01*
X275590Y598488D01*
D02*
G37*
G36*
X398819Y600456D02*
X397891Y600272D01*
X397105Y599746D01*
X396579Y598959D01*
X396394Y598032D01*
X396579Y597104D01*
X397105Y596317D01*
X397405Y596116D01*
Y595616D01*
X397105Y595415D01*
X396579Y594629D01*
X396394Y593701D01*
X396579Y592773D01*
X397105Y591986D01*
X397289Y591863D01*
Y518504D01*
X396790Y518353D01*
X396785Y518360D01*
X396129Y518798D01*
X395354Y518952D01*
X394580Y518798D01*
X393924Y518360D01*
X393485Y517703D01*
X393331Y516929D01*
X393485Y516155D01*
X393924Y515499D01*
X394580Y515060D01*
X395354Y514906D01*
X396129Y515060D01*
X396785Y515499D01*
X396790Y515506D01*
X397289Y515354D01*
Y511578D01*
X366015Y480303D01*
X365805Y480408D01*
X365602Y480598D01*
X365703Y481102D01*
Y483595D01*
X365888Y483719D01*
X366413Y484505D01*
X366598Y485433D01*
X366413Y486361D01*
X365888Y487148D01*
X365101Y487673D01*
X364173Y487858D01*
X363245Y487673D01*
X363041Y487536D01*
X362591Y487837D01*
X362661Y488189D01*
X362476Y489117D01*
X361951Y489903D01*
X361164Y490429D01*
X360236Y490614D01*
X359308Y490429D01*
X359104Y490292D01*
X358654Y490593D01*
X358724Y490945D01*
X358539Y491873D01*
X358014Y492659D01*
X357227Y493185D01*
X356299Y493369D01*
X355753Y493261D01*
X351081Y497932D01*
X350585Y498263D01*
X350000Y498380D01*
X197090D01*
X195294Y500176D01*
X195338Y500394D01*
X195153Y501322D01*
X194628Y502108D01*
X193841Y502634D01*
X192913Y502818D01*
X191986Y502634D01*
X191199Y502108D01*
X190673Y501322D01*
X190489Y500394D01*
X190673Y499466D01*
X191199Y498679D01*
X191986Y498154D01*
X192913Y497969D01*
X193047Y497996D01*
X193276Y497744D01*
X193024Y497284D01*
X192913Y497306D01*
X191986Y497122D01*
X191199Y496596D01*
X190673Y495810D01*
X190489Y494882D01*
X190673Y493954D01*
X191199Y493167D01*
X191384Y493044D01*
Y488189D01*
X191500Y487604D01*
X191832Y487108D01*
X252856Y426084D01*
X253352Y425752D01*
X253937Y425636D01*
X303425D01*
X303607Y425407D01*
X303620Y425315D01*
X303530Y424795D01*
X303052Y424429D01*
X302570Y423800D01*
X302266Y423069D01*
X302163Y422284D01*
X302266Y421498D01*
X302570Y420767D01*
X303052Y420138D01*
X303680Y419656D01*
X304412Y419353D01*
X305197Y419250D01*
X305982Y419353D01*
X306714Y419656D01*
X307342Y420138D01*
X307815Y420754D01*
X310079D01*
X310664Y420870D01*
X311160Y421202D01*
X311772Y421814D01*
X312246Y421654D01*
X312266Y421498D01*
X312569Y420767D01*
X313052Y420138D01*
X313680Y419656D01*
X314412Y419353D01*
X314850Y419295D01*
X315030Y418767D01*
X314115Y417853D01*
X313784Y417357D01*
X313667Y416772D01*
Y414901D01*
X313052Y414429D01*
X312569Y413800D01*
X312266Y413069D01*
X312163Y412284D01*
X312266Y411498D01*
X312569Y410767D01*
X313052Y410138D01*
X313680Y409656D01*
X314412Y409353D01*
X315197Y409250D01*
X315982Y409353D01*
X316714Y409656D01*
X317342Y410138D01*
X317824Y410767D01*
X318127Y411498D01*
X318231Y412284D01*
X318127Y413069D01*
X317824Y413800D01*
X317342Y414429D01*
X316726Y414901D01*
Y416138D01*
X402778Y502190D01*
X403110Y502686D01*
X403226Y503272D01*
Y515642D01*
X403726Y515794D01*
X403924Y515499D01*
X404580Y515060D01*
X405354Y514906D01*
X406129Y515060D01*
X406785Y515499D01*
X407224Y516155D01*
X407377Y516929D01*
X407224Y517703D01*
X406785Y518360D01*
X406129Y518798D01*
X405354Y518952D01*
X404580Y518798D01*
X403924Y518360D01*
X403726Y518064D01*
X403226Y518216D01*
Y594893D01*
X403110Y595478D01*
X402778Y595974D01*
X401157Y597596D01*
X401243Y598032D01*
X401059Y598959D01*
X400533Y599746D01*
X399747Y600272D01*
X398819Y600456D01*
D02*
G37*
G36*
X533779Y518952D02*
X533005Y518798D01*
X532349Y518360D01*
X531910Y517703D01*
X531756Y516929D01*
X531910Y516155D01*
X532349Y515499D01*
X533005Y515060D01*
X533779Y514906D01*
X534554Y515060D01*
X535210Y515499D01*
X535649Y516155D01*
X535803Y516929D01*
X535649Y517703D01*
X535210Y518360D01*
X534554Y518798D01*
X533779Y518952D01*
D02*
G37*
G36*
X523779D02*
X523005Y518798D01*
X522349Y518360D01*
X521910Y517703D01*
X521756Y516929D01*
X521910Y516155D01*
X522349Y515499D01*
X523005Y515060D01*
X523779Y514906D01*
X524554Y515060D01*
X525210Y515499D01*
X525649Y516155D01*
X525803Y516929D01*
X525649Y517703D01*
X525210Y518360D01*
X524554Y518798D01*
X523779Y518952D01*
D02*
G37*
G36*
X513779D02*
X513005Y518798D01*
X512349Y518360D01*
X511910Y517703D01*
X511756Y516929D01*
X511910Y516155D01*
X512349Y515499D01*
X513005Y515060D01*
X513779Y514906D01*
X514554Y515060D01*
X515210Y515499D01*
X515649Y516155D01*
X515803Y516929D01*
X515649Y517703D01*
X515210Y518360D01*
X514554Y518798D01*
X513779Y518952D01*
D02*
G37*
G36*
X385354D02*
X384580Y518798D01*
X383924Y518360D01*
X383485Y517703D01*
X383331Y516929D01*
X383485Y516155D01*
X383924Y515499D01*
X384580Y515060D01*
X385354Y514906D01*
X386128Y515060D01*
X386785Y515499D01*
X387224Y516155D01*
X387377Y516929D01*
X387224Y517703D01*
X386785Y518360D01*
X386128Y518798D01*
X385354Y518952D01*
D02*
G37*
G36*
X375354D02*
X374580Y518798D01*
X373924Y518360D01*
X373485Y517703D01*
X373331Y516929D01*
X373485Y516155D01*
X373924Y515499D01*
X374580Y515060D01*
X375354Y514906D01*
X376129Y515060D01*
X376785Y515499D01*
X377223Y516155D01*
X377377Y516929D01*
X377223Y517703D01*
X376785Y518360D01*
X376129Y518798D01*
X375354Y518952D01*
D02*
G37*
G36*
X276378D02*
X275604Y518798D01*
X274947Y518360D01*
X274509Y517703D01*
X274355Y516929D01*
X274509Y516155D01*
X274947Y515499D01*
X275604Y515060D01*
X276378Y514906D01*
X277152Y515060D01*
X277808Y515499D01*
X278247Y516155D01*
X278401Y516929D01*
X278247Y517703D01*
X277808Y518360D01*
X277152Y518798D01*
X276378Y518952D01*
D02*
G37*
G36*
X266378D02*
X265604Y518798D01*
X264947Y518360D01*
X264509Y517703D01*
X264355Y516929D01*
X264509Y516155D01*
X264947Y515499D01*
X265604Y515060D01*
X266378Y514906D01*
X267152Y515060D01*
X267809Y515499D01*
X268247Y516155D01*
X268401Y516929D01*
X268247Y517703D01*
X267809Y518360D01*
X267152Y518798D01*
X266378Y518952D01*
D02*
G37*
G36*
X256378D02*
X255604Y518798D01*
X254947Y518360D01*
X254509Y517703D01*
X254355Y516929D01*
X254509Y516155D01*
X254947Y515499D01*
X255604Y515060D01*
X256378Y514906D01*
X257152Y515060D01*
X257808Y515499D01*
X258247Y516155D01*
X258401Y516929D01*
X258247Y517703D01*
X257808Y518360D01*
X257152Y518798D01*
X256378Y518952D01*
D02*
G37*
G36*
X246378D02*
X245604Y518798D01*
X244947Y518360D01*
X244509Y517703D01*
X244355Y516929D01*
X244509Y516155D01*
X244947Y515499D01*
X245604Y515060D01*
X246378Y514906D01*
X247152Y515060D01*
X247809Y515499D01*
X248247Y516155D01*
X248401Y516929D01*
X248247Y517703D01*
X247809Y518360D01*
X247152Y518798D01*
X246378Y518952D01*
D02*
G37*
G36*
X189763Y510691D02*
X188836Y510507D01*
X188049Y509981D01*
X187925Y509796D01*
X162204D01*
X161618Y509680D01*
X161122Y509348D01*
X148250Y496476D01*
X148031Y496519D01*
X147104Y496335D01*
X146317Y495809D01*
X145791Y495022D01*
X145607Y494095D01*
X145791Y493167D01*
X146317Y492380D01*
X147104Y491854D01*
X148031Y491670D01*
X148959Y491854D01*
X149746Y492380D01*
X150271Y493167D01*
X150456Y494095D01*
X150413Y494313D01*
X162837Y506737D01*
X179537D01*
X179773Y506296D01*
X179650Y506112D01*
X179465Y505185D01*
X179509Y504966D01*
X164261Y489718D01*
X159318D01*
X159195Y489903D01*
X158408Y490429D01*
X157480Y490614D01*
X156553Y490429D01*
X155766Y489903D01*
X155240Y489117D01*
X155056Y488189D01*
X155240Y487261D01*
X155766Y486475D01*
X156553Y485949D01*
X157480Y485764D01*
X158408Y485949D01*
X159195Y486475D01*
X159318Y486660D01*
X164894D01*
X165479Y486776D01*
X165975Y487108D01*
X181672Y502804D01*
X181890Y502760D01*
X182818Y502945D01*
X183604Y503470D01*
X184130Y504257D01*
X184314Y505185D01*
X184130Y506112D01*
X184007Y506296D01*
X184243Y506737D01*
X187925D01*
X188049Y506552D01*
X188836Y506027D01*
X189763Y505842D01*
X190691Y506027D01*
X191478Y506552D01*
X192003Y507339D01*
X192188Y508267D01*
X192003Y509195D01*
X191478Y509981D01*
X190691Y510507D01*
X189763Y510691D01*
D02*
G37*
G36*
X641732Y508724D02*
X640804Y508539D01*
X640018Y508014D01*
X639492Y507227D01*
X639308Y506299D01*
X639351Y506081D01*
X637556Y504285D01*
X612862D01*
X612738Y504470D01*
X611951Y504996D01*
X611024Y505181D01*
X610096Y504996D01*
X609309Y504470D01*
X608784Y503684D01*
X608599Y502756D01*
X608784Y501828D01*
X609309Y501042D01*
X610096Y500516D01*
X611024Y500331D01*
X611951Y500516D01*
X612738Y501042D01*
X612862Y501227D01*
X638189D01*
X638774Y501343D01*
X639270Y501675D01*
X641514Y503918D01*
X641732Y503875D01*
X642660Y504059D01*
X643447Y504585D01*
X643972Y505371D01*
X644157Y506299D01*
X643972Y507227D01*
X643447Y508014D01*
X642660Y508539D01*
X641732Y508724D01*
D02*
G37*
G36*
X641339Y496913D02*
X640411Y496728D01*
X639624Y496203D01*
X639501Y496018D01*
X602625D01*
X602502Y496203D01*
X601715Y496728D01*
X600787Y496913D01*
X599860Y496728D01*
X599073Y496203D01*
X598547Y495416D01*
X598363Y494488D01*
X598547Y493560D01*
X599073Y492774D01*
X599860Y492248D01*
X600787Y492064D01*
X601715Y492248D01*
X602502Y492774D01*
X602625Y492959D01*
X639501D01*
X639624Y492774D01*
X640411Y492248D01*
X641339Y492064D01*
X642266Y492248D01*
X643053Y492774D01*
X643579Y493560D01*
X643763Y494488D01*
X643579Y495416D01*
X643053Y496203D01*
X642266Y496728D01*
X641339Y496913D01*
D02*
G37*
G36*
X671969Y480400D02*
X670469Y480202D01*
X669072Y479624D01*
X667872Y478703D01*
X666951Y477503D01*
X666372Y476106D01*
X666175Y474606D01*
X666372Y473107D01*
X666951Y471709D01*
X667872Y470510D01*
X669072Y469589D01*
X670469Y469010D01*
X671969Y468813D01*
X673468Y469010D01*
X674865Y469589D01*
X676065Y470510D01*
X676986Y471709D01*
X677565Y473107D01*
X677762Y474606D01*
X677565Y476106D01*
X676986Y477503D01*
X676065Y478703D01*
X674865Y479624D01*
X673468Y480202D01*
X671969Y480400D01*
D02*
G37*
G36*
X117795Y479613D02*
X116296Y479415D01*
X114899Y478836D01*
X113698Y477916D01*
X112778Y476716D01*
X112199Y475318D01*
X112002Y473819D01*
X112199Y472319D01*
X112778Y470922D01*
X113698Y469722D01*
X114899Y468801D01*
X116296Y468223D01*
X117795Y468025D01*
X119295Y468223D01*
X120692Y468801D01*
X121892Y469722D01*
X122813Y470922D01*
X123391Y472319D01*
X123589Y473819D01*
X123391Y475318D01*
X122813Y476716D01*
X121892Y477916D01*
X120692Y478836D01*
X119295Y479415D01*
X117795Y479613D01*
D02*
G37*
G36*
X485197Y465317D02*
X484412Y465214D01*
X483680Y464911D01*
X483052Y464429D01*
X482570Y463800D01*
X482266Y463069D01*
X482163Y462284D01*
X482266Y461498D01*
X482570Y460767D01*
X483052Y460138D01*
X483680Y459656D01*
X484412Y459353D01*
X485197Y459250D01*
X485982Y459353D01*
X486714Y459656D01*
X487342Y460138D01*
X487824Y460767D01*
X488127Y461498D01*
X488231Y462284D01*
X488127Y463069D01*
X487824Y463800D01*
X487342Y464429D01*
X486714Y464911D01*
X485982Y465214D01*
X485197Y465317D01*
D02*
G37*
G36*
X475197Y455317D02*
X474412Y455214D01*
X473680Y454911D01*
X473052Y454429D01*
X472570Y453800D01*
X472266Y453069D01*
X472163Y452283D01*
X472266Y451498D01*
X472570Y450767D01*
X473052Y450138D01*
X473680Y449656D01*
X474412Y449353D01*
X475197Y449250D01*
X475982Y449353D01*
X476714Y449656D01*
X477342Y450138D01*
X477824Y450767D01*
X478127Y451498D01*
X478231Y452283D01*
X478127Y453069D01*
X477824Y453800D01*
X477342Y454429D01*
X476714Y454911D01*
X475982Y455214D01*
X475197Y455317D01*
D02*
G37*
G36*
X628740Y416773D02*
X627991Y416674D01*
X627293Y416385D01*
X626693Y415925D01*
X626233Y415325D01*
X625944Y414627D01*
X625845Y413878D01*
X625944Y413129D01*
X626233Y412430D01*
X626693Y411831D01*
X627293Y411371D01*
X627991Y411082D01*
X628740Y410983D01*
X629489Y411082D01*
X630188Y411371D01*
X630787Y411831D01*
X631247Y412430D01*
X631536Y413129D01*
X631635Y413878D01*
X631536Y414627D01*
X631247Y415325D01*
X630787Y415925D01*
X630188Y416385D01*
X629489Y416674D01*
X628740Y416773D01*
D02*
G37*
G36*
X601968D02*
X601219Y416674D01*
X600521Y416385D01*
X599922Y415925D01*
X599462Y415325D01*
X599172Y414627D01*
X599074Y413878D01*
X599172Y413129D01*
X599462Y412430D01*
X599922Y411831D01*
X600521Y411371D01*
X601219Y411082D01*
X601968Y410983D01*
X602718Y411082D01*
X603416Y411371D01*
X604015Y411831D01*
X604475Y412430D01*
X604765Y413129D01*
X604863Y413878D01*
X604765Y414627D01*
X604475Y415325D01*
X604015Y415925D01*
X603416Y416385D01*
X602718Y416674D01*
X601968Y416773D01*
D02*
G37*
G36*
X478165Y411783D02*
X475697D01*
Y409315D01*
X475982Y409353D01*
X476714Y409656D01*
X477342Y410138D01*
X477824Y410767D01*
X478127Y411498D01*
X478165Y411783D01*
D02*
G37*
G36*
X474697D02*
X472229D01*
X472266Y411498D01*
X472570Y410767D01*
X473052Y410138D01*
X473680Y409656D01*
X474412Y409353D01*
X474697Y409315D01*
Y411783D01*
D02*
G37*
G36*
X650606Y417929D02*
X644276D01*
Y406480D01*
X650606D01*
Y417929D01*
D02*
G37*
G36*
X587024D02*
X580693D01*
Y406480D01*
X587024D01*
Y417929D01*
D02*
G37*
G36*
X315697Y405252D02*
Y402783D01*
X318165D01*
X318127Y403069D01*
X317824Y403800D01*
X317342Y404429D01*
X316714Y404911D01*
X315982Y405214D01*
X315697Y405252D01*
D02*
G37*
G36*
X475197Y405317D02*
X474412Y405214D01*
X473680Y404911D01*
X473052Y404429D01*
X472570Y403800D01*
X472266Y403069D01*
X472163Y402283D01*
X472266Y401498D01*
X472570Y400767D01*
X473052Y400138D01*
X473680Y399656D01*
X474412Y399353D01*
X475197Y399250D01*
X475982Y399353D01*
X476714Y399656D01*
X477342Y400138D01*
X477824Y400767D01*
X478127Y401498D01*
X478231Y402283D01*
X478127Y403069D01*
X477824Y403800D01*
X477342Y404429D01*
X476714Y404911D01*
X475982Y405214D01*
X475197Y405317D01*
D02*
G37*
G36*
X222547Y390120D02*
Y388295D01*
X224372D01*
X224287Y388723D01*
X223762Y389510D01*
X222975Y390035D01*
X222547Y390120D01*
D02*
G37*
G36*
X221547D02*
X221119Y390035D01*
X220333Y389510D01*
X219807Y388723D01*
X219722Y388295D01*
X221547D01*
Y390120D01*
D02*
G37*
G36*
X224372Y387295D02*
X222547D01*
Y385470D01*
X222975Y385555D01*
X223762Y386081D01*
X224287Y386867D01*
X224372Y387295D01*
D02*
G37*
G36*
X221547D02*
X219722D01*
X219807Y386867D01*
X220333Y386081D01*
X221119Y385555D01*
X221547Y385470D01*
Y387295D01*
D02*
G37*
G36*
X268610Y386971D02*
Y385146D01*
X270435D01*
X270350Y385574D01*
X269825Y386360D01*
X269038Y386886D01*
X268610Y386971D01*
D02*
G37*
G36*
X267610D02*
X267182Y386886D01*
X266396Y386360D01*
X265870Y385574D01*
X265785Y385146D01*
X267610D01*
Y386971D01*
D02*
G37*
G36*
X270435Y384146D02*
X268610D01*
Y382321D01*
X269038Y382406D01*
X269825Y382931D01*
X270350Y383718D01*
X270435Y384146D01*
D02*
G37*
G36*
X267610D02*
X265785D01*
X265870Y383718D01*
X266396Y382931D01*
X267182Y382406D01*
X267610Y382321D01*
Y384146D01*
D02*
G37*
G36*
X587024Y382496D02*
X580693D01*
Y371047D01*
X587024D01*
Y382496D01*
D02*
G37*
G36*
X673910Y337614D02*
X672399Y337496D01*
X670438Y337025D01*
X668575Y336253D01*
X666856Y335199D01*
X665323Y333890D01*
X664013Y332357D01*
X662959Y330637D01*
X662188Y328774D01*
X661717Y326813D01*
X661598Y325303D01*
X673910D01*
Y337614D01*
D02*
G37*
G36*
X115854D02*
Y325303D01*
X128166D01*
X128047Y326813D01*
X127576Y328774D01*
X126804Y330637D01*
X125751Y332357D01*
X124441Y333890D01*
X122908Y335199D01*
X121188Y336253D01*
X119325Y337025D01*
X117365Y337496D01*
X115854Y337614D01*
D02*
G37*
G36*
X427106Y333057D02*
X425607Y332860D01*
X424209Y332281D01*
X423010Y331361D01*
X422089Y330161D01*
X421510Y328763D01*
X421313Y327264D01*
X421510Y325764D01*
X422089Y324367D01*
X423010Y323167D01*
X424209Y322246D01*
X425607Y321668D01*
X427106Y321470D01*
X428606Y321668D01*
X430003Y322246D01*
X431203Y323167D01*
X432124Y324367D01*
X432702Y325764D01*
X432900Y327264D01*
X432702Y328763D01*
X432124Y330161D01*
X431203Y331361D01*
X430003Y332281D01*
X428606Y332860D01*
X427106Y333057D01*
D02*
G37*
G36*
X362933D02*
X361434Y332860D01*
X360036Y332281D01*
X358836Y331361D01*
X357916Y330161D01*
X357337Y328763D01*
X357139Y327264D01*
X357337Y325764D01*
X357916Y324367D01*
X358836Y323167D01*
X360036Y322246D01*
X361434Y321668D01*
X362933Y321470D01*
X364433Y321668D01*
X365830Y322246D01*
X367030Y323167D01*
X367951Y324367D01*
X368529Y325764D01*
X368727Y327264D01*
X368529Y328763D01*
X367951Y330161D01*
X367030Y331361D01*
X365830Y332281D01*
X364433Y332860D01*
X362933Y333057D01*
D02*
G37*
%LPD*%
G36*
X631837Y378205D02*
Y372654D01*
X629535D01*
Y368898D01*
X628535D01*
Y372654D01*
X621903D01*
Y377264D01*
X621787Y377849D01*
X621455Y378345D01*
X619083Y380717D01*
X619275Y381179D01*
X628863D01*
X631837Y378205D01*
D02*
G37*
%LPC*%
G36*
X626878Y379884D02*
Y378059D01*
X628703D01*
X628618Y378487D01*
X628092Y379274D01*
X627306Y379799D01*
X626878Y379884D01*
D02*
G37*
G36*
X625878D02*
X625450Y379799D01*
X624663Y379274D01*
X624138Y378487D01*
X624053Y378059D01*
X625878D01*
Y379884D01*
D02*
G37*
G36*
X628703Y377059D02*
X626878D01*
Y375234D01*
X627306Y375319D01*
X628092Y375845D01*
X628618Y376631D01*
X628703Y377059D01*
D02*
G37*
G36*
X625878D02*
X624053D01*
X624138Y376631D01*
X624663Y375845D01*
X625450Y375319D01*
X625878Y375234D01*
Y377059D01*
D02*
G37*
%LPD*%
D10*
X633366Y368898D02*
Y378839D01*
X629496Y382709D02*
X633366Y378839D01*
X594923Y382709D02*
X629496D01*
X624182Y363779D02*
X640945D01*
X622576Y362173D02*
X624182Y363779D01*
X640945D02*
X642028Y364862D01*
X490976Y362173D02*
X622576D01*
X459449Y393701D02*
X490976Y362173D01*
X638189Y502756D02*
X641732Y506299D01*
X611024Y502756D02*
X638189D01*
X600787Y494488D02*
X641339D01*
X327839Y455791D02*
X360236Y488189D01*
X313744Y455791D02*
X327839D01*
X310236Y452283D02*
X313744Y455791D01*
X305197Y452283D02*
X310236D01*
X364173Y481102D02*
Y485433D01*
X321260Y438189D02*
X364173Y481102D01*
X311102Y438189D02*
X321260D01*
X316650Y428776D02*
X398819Y510945D01*
X316571Y428776D02*
X316650D01*
X398819Y510945D02*
Y593701D01*
X401697Y503272D02*
Y594893D01*
X398819Y597771D02*
Y598032D01*
X315197Y416772D02*
X401697Y503272D01*
X398819Y597771D02*
X401697Y594893D01*
X305197Y432283D02*
X311102Y438189D01*
X350000Y496850D02*
X355906Y490945D01*
X196457Y496850D02*
X350000D01*
X355906Y490945D02*
X356299D01*
X310079Y422284D02*
X316571Y428776D01*
X305197Y422284D02*
X310079D01*
X192913Y500394D02*
X196457Y496850D01*
X496063Y413386D02*
X501575D01*
X493162Y354331D02*
X616142D01*
X455449Y392044D02*
X493162Y354331D01*
X455449Y392044D02*
Y416205D01*
X450000Y421654D02*
X455449Y416205D01*
X459449Y393701D02*
Y425197D01*
X461449Y417615D02*
X463779Y419946D01*
X461449Y394850D02*
Y417615D01*
Y394850D02*
X492126Y364173D01*
X457449Y392872D02*
Y420110D01*
Y392872D02*
X491660Y358661D01*
X454724Y422835D02*
Y423228D01*
X491660Y358661D02*
X611811D01*
X454724Y422835D02*
X457449Y420110D01*
X463779Y419946D02*
Y427165D01*
X492126Y364173D02*
X621747D01*
X305197Y412284D02*
X310236Y407244D01*
Y401181D02*
Y407244D01*
Y401181D02*
X347244Y364173D01*
X476378D01*
X305197Y402283D02*
X347638Y359842D01*
X476378D01*
X485197Y402283D02*
X572520D01*
X621747Y364173D02*
X624705Y367131D01*
X501575Y413386D02*
X551295Y463106D01*
X468110Y401181D02*
Y412132D01*
X468110Y412132D02*
X468110Y412132D01*
X464961Y397244D02*
Y411811D01*
X472120Y416142D02*
X488976D01*
X468110Y412132D02*
X472120Y416142D01*
X471654Y418504D02*
X486614D01*
X464961Y411811D02*
X471654Y418504D01*
X486614D02*
X490158Y422047D01*
X488976Y416142D02*
X494095Y421260D01*
X485197Y442283D02*
X490158Y437323D01*
Y422047D02*
Y437323D01*
X472441Y427165D02*
X480315D01*
X405512Y494095D02*
X472441Y427165D01*
X480315D02*
X485197Y422284D01*
Y452283D02*
X494095Y443386D01*
Y421260D02*
Y443386D01*
X642028Y364862D02*
Y368898D01*
X624705Y367131D02*
Y368898D01*
X616043Y368898D02*
Y375590D01*
X573348Y404284D02*
X594923Y382709D01*
X550441Y404284D02*
X573348D01*
X531496Y423228D02*
X550441Y404284D01*
X327559Y502756D02*
Y546457D01*
X548032Y516535D02*
Y520079D01*
X543307Y511811D02*
X548032Y516535D01*
X519764Y511811D02*
X543307D01*
X480315Y472363D02*
X519764Y511811D01*
X480315Y467402D02*
Y472363D01*
X475197Y462284D02*
X480315Y467402D01*
X616043Y368898D02*
X616043Y368898D01*
X611713Y368898D02*
Y375590D01*
Y368898D02*
X611713Y368898D01*
X148031Y494095D02*
X162204Y508267D01*
X189763D01*
X164894Y488189D02*
X181890Y505185D01*
X157480Y488189D02*
X164894D01*
X324410Y507087D02*
Y531102D01*
X192913Y488189D02*
X253937Y427165D01*
X192913Y488189D02*
Y494882D01*
X315197Y412284D02*
Y416772D01*
X420079Y497402D02*
Y521260D01*
X417839Y493185D02*
Y517958D01*
X416264Y519533D02*
X417839Y517958D01*
Y493185D02*
X474409Y436614D01*
X420079Y497402D02*
X475197Y442283D01*
X551295Y463106D02*
Y517958D01*
X411024Y494095D02*
X472535Y432583D01*
X405512Y494095D02*
Y510600D01*
X474409Y436614D02*
X476772D01*
X411024Y494095D02*
Y510236D01*
X472535Y432583D02*
X474897D01*
X253937Y427165D02*
X305512D01*
X532676Y549999D02*
Y582676D01*
X479528Y496850D02*
X532676Y549999D01*
X535554Y549727D02*
Y592399D01*
X481528Y495701D02*
X535554Y549727D01*
X535433Y592520D02*
X535554Y592399D01*
X481528Y483653D02*
Y495701D01*
X475197Y477323D02*
X481528Y483653D01*
X475197Y472284D02*
Y477323D01*
X479528Y486614D02*
Y496850D01*
X475197Y482283D02*
X479528Y486614D01*
X551575Y518238D02*
Y569291D01*
X551295Y517958D02*
X551575Y518238D01*
X405512Y510600D02*
X413386Y518474D01*
Y597638D01*
X416264Y519533D02*
Y599484D01*
X413386Y602362D02*
X416264Y599484D01*
X275590Y596063D02*
X277953D01*
X327559Y546457D01*
X261811Y593701D02*
X324410Y531102D01*
X474897Y432583D02*
X475197Y432283D01*
X481102D02*
X485197D01*
X476772Y436614D02*
X481102Y432283D01*
X572520Y402283D02*
X594095Y380709D01*
X616929D01*
X620374Y377264D01*
Y368898D02*
Y377264D01*
D13*
X645079Y417618D02*
Y429528D01*
X586221Y417618D02*
Y429528D01*
X645079D01*
Y382087D02*
Y406890D01*
X586221Y382185D02*
Y406791D01*
X99606Y702756D02*
X690158D01*
Y309055D02*
Y702756D01*
X99606Y309055D02*
X690158D01*
X99606D02*
Y702756D01*
X225984Y393307D02*
G03*
X225984Y393307I-1969J0D01*
G01*
X540354Y603346D02*
G03*
X540354Y603346I-1969J0D01*
G01*
X402559D02*
G03*
X402559Y603346I-1969J0D01*
G01*
X264764D02*
G03*
X264764Y603346I-1969J0D01*
G01*
X243701Y656791D02*
Y665256D01*
X249213Y656791D02*
Y665256D01*
X243701D02*
X249213D01*
X243701Y656791D02*
X249213D01*
X227559Y377165D02*
Y396850D01*
X211811Y377165D02*
Y396850D01*
X227559D01*
X211811Y377165D02*
X227559D01*
X524213Y586811D02*
X541929D01*
X524213Y606890D02*
X541929D01*
X524213Y586811D02*
Y606890D01*
X541929Y586811D02*
Y606890D01*
X386417Y586811D02*
X404134D01*
X386417Y606890D02*
X404134D01*
X386417Y586811D02*
Y606890D01*
X404134Y586811D02*
Y606890D01*
X248622Y586811D02*
X266339D01*
X248622Y606890D02*
X266339D01*
X248622Y586811D02*
Y606890D01*
X266339Y586811D02*
Y606890D01*
X161614Y384055D02*
Y390748D01*
X165157Y384055D02*
Y390748D01*
X161614D02*
X165157D01*
X161614Y384055D02*
X165157D01*
X171260Y383465D02*
Y390551D01*
X175197Y383465D02*
Y390551D01*
X171260D02*
X175197D01*
X171260Y383465D02*
X175197D01*
X245079Y396260D02*
X251772D01*
X245079Y392717D02*
X251772D01*
Y396260D01*
X245079Y392717D02*
Y396260D01*
X195866Y394291D02*
Y400984D01*
X199409Y394291D02*
Y400984D01*
X195866D02*
X199409D01*
X195866Y394291D02*
X199409D01*
X540945Y656398D02*
X546457D01*
X540945Y664862D02*
X546457D01*
Y656398D02*
Y664862D01*
X540945Y656398D02*
Y664862D01*
X550787Y656398D02*
X556299D01*
X550787Y664862D02*
X556299D01*
Y656398D02*
Y664862D01*
X550787Y656398D02*
Y664862D01*
X540945Y540846D02*
X546457D01*
X540945Y532382D02*
X546457D01*
X540945D02*
Y540846D01*
X546457Y532382D02*
Y540846D01*
X531102D02*
X536614D01*
X531102Y532382D02*
X536614D01*
X531102D02*
Y540846D01*
X536614Y532382D02*
Y540846D01*
X520866D02*
X526378D01*
X520866Y532382D02*
X526378D01*
X520866D02*
Y540846D01*
X526378Y532382D02*
Y540846D01*
X511024Y656398D02*
X516535D01*
X511024Y664862D02*
X516535D01*
Y656398D02*
Y664862D01*
X511024Y656398D02*
Y664862D01*
X520866Y656398D02*
X526378D01*
X520866Y664862D02*
X526378D01*
Y656398D02*
Y664862D01*
X520866Y656398D02*
Y664862D01*
X402362Y657185D02*
X407874D01*
X402362Y665650D02*
X407874D01*
Y657185D02*
Y665650D01*
X402362Y657185D02*
Y665650D01*
X263386Y656791D02*
X268898D01*
X263386Y665256D02*
X268898D01*
Y656791D02*
Y665256D01*
X263386Y656791D02*
Y665256D01*
X412598Y657185D02*
X418110D01*
X412598Y665650D02*
X418110D01*
Y657185D02*
Y665650D01*
X412598Y657185D02*
Y665650D01*
X273622Y656791D02*
X279134D01*
X273622Y665256D02*
X279134D01*
Y656791D02*
Y665256D01*
X273622Y656791D02*
Y665256D01*
X402362Y538878D02*
X407874D01*
X402362Y530413D02*
X407874D01*
X402362D02*
Y538878D01*
X407874Y530413D02*
Y538878D01*
X263779Y539272D02*
X269291D01*
X263779Y530807D02*
X269291D01*
X263779D02*
Y539272D01*
X269291Y530807D02*
Y539272D01*
X392913Y538878D02*
X398425D01*
X392913Y530413D02*
X398425D01*
X392913D02*
Y538878D01*
X398425Y530413D02*
Y538878D01*
X253543Y539272D02*
X259055D01*
X253543Y530807D02*
X259055D01*
X253543D02*
Y539272D01*
X259055Y530807D02*
Y539272D01*
X382677Y538878D02*
X388189D01*
X382677Y530413D02*
X388189D01*
X382677D02*
Y538878D01*
X388189Y530413D02*
Y538878D01*
X243701Y539272D02*
X249213D01*
X243701Y530807D02*
X249213D01*
X243701D02*
Y539272D01*
X249213Y530807D02*
Y539272D01*
X372441Y656791D02*
X377953D01*
X372441Y665256D02*
X377953D01*
Y656791D02*
Y665256D01*
X372441Y656791D02*
Y665256D01*
X233465Y656791D02*
X238976D01*
X233465Y665256D02*
X238976D01*
Y656791D02*
Y665256D01*
X233465Y656791D02*
Y665256D01*
X382677Y657185D02*
X388189D01*
X382677Y665650D02*
X388189D01*
Y657185D02*
Y665650D01*
X382677Y657185D02*
Y665650D01*
X251476Y382776D02*
Y386516D01*
X244587Y382776D02*
Y386516D01*
X251476D01*
X244587Y382776D02*
X251476D01*
X244488Y661024D02*
X248425D01*
X246457Y659055D02*
Y662992D01*
X217717Y387008D02*
X221654D01*
X219685Y385039D02*
Y388976D01*
X533071Y594882D02*
Y598819D01*
X531102Y596850D02*
X535039D01*
X395276Y594882D02*
Y598819D01*
X393307Y596850D02*
X397244D01*
X257480Y594882D02*
Y598819D01*
X255512Y596850D02*
X259449D01*
X161614Y387402D02*
X165157D01*
X163386Y385630D02*
Y389173D01*
X171260Y387008D02*
X175197D01*
X173228Y385039D02*
Y388976D01*
X248425Y392717D02*
Y396260D01*
X246654Y394488D02*
X250197D01*
X195866Y397638D02*
X199409D01*
X197638Y395866D02*
Y399409D01*
X543701Y658661D02*
Y662598D01*
X541732Y660630D02*
X545669D01*
X553543Y658661D02*
Y662598D01*
X551575Y660630D02*
X555512D01*
X543701Y534646D02*
Y538583D01*
X541732Y536614D02*
X545669D01*
X533858Y534646D02*
Y538583D01*
X531890Y536614D02*
X535827D01*
X523622Y534646D02*
Y538583D01*
X521654Y536614D02*
X525591D01*
X513779Y658661D02*
Y662598D01*
X511811Y660630D02*
X515748D01*
X523622Y658661D02*
Y662598D01*
X521654Y660630D02*
X525591D01*
X405118Y659449D02*
Y663386D01*
X403150Y661417D02*
X407087D01*
X266142Y659055D02*
Y662992D01*
X264173Y661024D02*
X268110D01*
X415354Y659449D02*
Y663386D01*
X413386Y661417D02*
X417323D01*
X276378Y659055D02*
Y662992D01*
X274410Y661024D02*
X278346D01*
X405118Y532677D02*
Y536614D01*
X403150Y534646D02*
X407087D01*
X266535Y533071D02*
Y537008D01*
X264567Y535039D02*
X268504D01*
X395669Y532677D02*
Y536614D01*
X393701Y534646D02*
X397638D01*
X256299Y533071D02*
Y537008D01*
X254331Y535039D02*
X258268D01*
X385433Y532677D02*
Y536614D01*
X383465Y534646D02*
X387402D01*
X246457Y533071D02*
Y537008D01*
X244488Y535039D02*
X248425D01*
X375197Y659055D02*
Y662992D01*
X373228Y661024D02*
X377165D01*
X236221Y659055D02*
Y662992D01*
X234252Y661024D02*
X238189D01*
X385433Y659449D02*
Y663386D01*
X383465Y661417D02*
X387402D01*
X246161Y384646D02*
X249902D01*
X248031Y382776D02*
Y386516D01*
D14*
X624902Y390650D02*
D03*
D15*
X242717Y654331D02*
Y667717D01*
X250197Y654331D02*
Y667717D01*
X242717D02*
X250197D01*
X242717Y654331D02*
X250197D01*
X234252Y376181D02*
Y397835D01*
X205118Y376181D02*
Y397835D01*
X234252D01*
X205118Y376181D02*
X234252D01*
X517717Y585827D02*
X548425D01*
X517717Y607874D02*
X548425D01*
X517717Y585827D02*
Y607874D01*
X548425Y585827D02*
Y607874D01*
X379921Y585827D02*
X410630D01*
X379921Y607874D02*
X410630D01*
X379921Y585827D02*
Y607874D01*
X410630Y585827D02*
Y607874D01*
X242126Y585827D02*
X272835D01*
X242126Y607874D02*
X272835D01*
X242126Y585827D02*
Y607874D01*
X272835Y585827D02*
Y607874D01*
X160630Y381693D02*
Y393110D01*
X166142Y381693D02*
Y393110D01*
X160630D02*
X166142D01*
X160630Y381693D02*
X166142D01*
X170276Y381102D02*
Y392913D01*
X176181Y381102D02*
Y392913D01*
X170276D02*
X176181D01*
X170276Y381102D02*
X176181D01*
X242717Y397244D02*
X254134D01*
X242717Y391732D02*
X254134D01*
Y397244D01*
X242717Y391732D02*
Y397244D01*
X194882Y391929D02*
Y403346D01*
X200394Y391929D02*
Y403346D01*
X194882D02*
X200394D01*
X194882Y391929D02*
X200394D01*
X539961Y653937D02*
X547441D01*
X539961Y667323D02*
X547441D01*
Y653937D02*
Y667323D01*
X539961Y653937D02*
Y667323D01*
X549803Y653937D02*
X557283D01*
X549803Y667323D02*
X557283D01*
Y653937D02*
Y667323D01*
X549803Y653937D02*
Y667323D01*
X539961Y543307D02*
X547441D01*
X539961Y529921D02*
X547441D01*
X539961D02*
Y543307D01*
X547441Y529921D02*
Y543307D01*
X530118D02*
X537598D01*
X530118Y529921D02*
X537598D01*
X530118D02*
Y543307D01*
X537598Y529921D02*
Y543307D01*
X519882D02*
X527362D01*
X519882Y529921D02*
X527362D01*
X519882D02*
Y543307D01*
X527362Y529921D02*
Y543307D01*
X510039Y653937D02*
X517520D01*
X510039Y667323D02*
X517520D01*
Y653937D02*
Y667323D01*
X510039Y653937D02*
Y667323D01*
X519882Y653937D02*
X527362D01*
X519882Y667323D02*
X527362D01*
Y653937D02*
Y667323D01*
X519882Y653937D02*
Y667323D01*
X401378Y654724D02*
X408858D01*
X401378Y668110D02*
X408858D01*
Y654724D02*
Y668110D01*
X401378Y654724D02*
Y668110D01*
X262402Y654331D02*
X269882D01*
X262402Y667717D02*
X269882D01*
Y654331D02*
Y667717D01*
X262402Y654331D02*
Y667717D01*
X411614Y654724D02*
X419095D01*
X411614Y668110D02*
X419095D01*
Y654724D02*
Y668110D01*
X411614Y654724D02*
Y668110D01*
X272638Y654331D02*
X280118D01*
X272638Y667717D02*
X280118D01*
Y654331D02*
Y667717D01*
X272638Y654331D02*
Y667717D01*
X401378Y541339D02*
X408858D01*
X401378Y527953D02*
X408858D01*
X401378D02*
Y541339D01*
X408858Y527953D02*
Y541339D01*
X262795Y541732D02*
X270276D01*
X262795Y528346D02*
X270276D01*
X262795D02*
Y541732D01*
X270276Y528346D02*
Y541732D01*
X391929Y541339D02*
X399409D01*
X391929Y527953D02*
X399409D01*
X391929D02*
Y541339D01*
X399409Y527953D02*
Y541339D01*
X252559Y541732D02*
X260039D01*
X252559Y528346D02*
X260039D01*
X252559D02*
Y541732D01*
X260039Y528346D02*
Y541732D01*
X381693Y541339D02*
X389173D01*
X381693Y527953D02*
X389173D01*
X381693D02*
Y541339D01*
X389173Y527953D02*
Y541339D01*
X242717Y541732D02*
X250197D01*
X242717Y528346D02*
X250197D01*
X242717D02*
Y541732D01*
X250197Y528346D02*
Y541732D01*
X371457Y654331D02*
X378937D01*
X371457Y667717D02*
X378937D01*
Y654331D02*
Y667717D01*
X371457Y654331D02*
Y667717D01*
X232480Y654331D02*
X239961D01*
X232480Y667717D02*
X239961D01*
Y654331D02*
Y667717D01*
X232480Y654331D02*
Y667717D01*
X381693Y654724D02*
X389173D01*
X381693Y668110D02*
X389173D01*
Y654724D02*
Y668110D01*
X381693Y654724D02*
Y668110D01*
X253937Y381693D02*
Y387598D01*
X242126Y381693D02*
Y387598D01*
X253937D01*
X242126Y381693D02*
X253937D01*
D16*
X642028Y368898D02*
D03*
X637697D02*
D03*
X633366D02*
D03*
X629035D02*
D03*
X620374D02*
D03*
X611713D02*
D03*
X616043D02*
D03*
X624705D02*
D03*
X607382D02*
D03*
D17*
X647441Y376772D02*
D03*
X583858D02*
D03*
Y412205D02*
D03*
X647441D02*
D03*
D26*
X248031Y393307D02*
X251575Y389764D01*
X222047Y393307D02*
X248031D01*
X138976Y476378D02*
X222047Y393307D01*
X368232Y357358D02*
X377165Y348425D01*
X346609Y357358D02*
X368232D01*
X314203Y389764D02*
X346609Y357358D01*
X251575Y389764D02*
X314203D01*
X138976Y492913D02*
X162992Y516929D01*
X138976Y476378D02*
Y492913D01*
X162992Y516929D02*
X236378D01*
Y589528D01*
X252756Y605905D01*
X527559D02*
X597244Y536221D01*
X252756Y605905D02*
X389764D01*
X527559D01*
X597244Y536221D02*
X641339D01*
D27*
X315197Y492283D02*
D03*
Y482283D02*
D03*
Y472284D02*
D03*
Y462284D02*
D03*
Y452283D02*
D03*
Y442283D02*
D03*
Y432283D02*
D03*
Y422284D02*
D03*
Y412284D02*
D03*
Y402283D02*
D03*
X305197Y492283D02*
D03*
Y482283D02*
D03*
Y472284D02*
D03*
Y462284D02*
D03*
Y452283D02*
D03*
Y442283D02*
D03*
Y432283D02*
D03*
Y422284D02*
D03*
Y412284D02*
D03*
Y402283D02*
D03*
X475197Y492283D02*
D03*
Y482283D02*
D03*
Y472284D02*
D03*
Y462284D02*
D03*
Y452283D02*
D03*
Y442283D02*
D03*
Y432283D02*
D03*
Y422284D02*
D03*
Y412284D02*
D03*
Y402283D02*
D03*
X485197Y492283D02*
D03*
Y482283D02*
D03*
Y472284D02*
D03*
Y462284D02*
D03*
Y452283D02*
D03*
Y442283D02*
D03*
Y432283D02*
D03*
Y422284D02*
D03*
Y412284D02*
D03*
Y402283D02*
D03*
D28*
X553780Y676929D02*
D03*
Y516929D02*
D03*
X513779Y676929D02*
D03*
Y516929D02*
D03*
X543780Y676929D02*
D03*
Y516929D02*
D03*
X533779Y676929D02*
D03*
Y516929D02*
D03*
X523779Y676929D02*
D03*
Y516929D02*
D03*
X385354D02*
D03*
Y676929D02*
D03*
X395354Y516929D02*
D03*
Y676929D02*
D03*
X405354Y516929D02*
D03*
Y676929D02*
D03*
X375354Y516929D02*
D03*
Y676929D02*
D03*
X415354Y516929D02*
D03*
Y676929D02*
D03*
X246378Y516929D02*
D03*
Y676929D02*
D03*
X256378Y516929D02*
D03*
Y676929D02*
D03*
X266378Y516929D02*
D03*
Y676929D02*
D03*
X236378Y516929D02*
D03*
Y676929D02*
D03*
X276378Y516929D02*
D03*
Y676929D02*
D03*
D29*
X268110Y384646D02*
D03*
X538976Y582677D02*
D03*
X222047Y387795D02*
D03*
X626378Y377559D02*
D03*
X600787Y494488D02*
D03*
X360236Y488189D02*
D03*
X611024Y502756D02*
D03*
X641732Y506299D02*
D03*
X641339Y494488D02*
D03*
X364173Y485433D02*
D03*
X496063Y413386D02*
D03*
X377165Y348425D02*
D03*
X251575Y389764D02*
D03*
X616142Y354331D02*
D03*
X454724Y423228D02*
D03*
X459449Y425197D02*
D03*
X463779Y427165D02*
D03*
X450000Y421654D02*
D03*
X611811Y358661D02*
D03*
X476378Y364173D02*
D03*
Y359842D02*
D03*
X468110Y401181D02*
D03*
X464961Y397244D02*
D03*
X616043Y375590D02*
D03*
X327559Y502756D02*
D03*
X531496Y423228D02*
D03*
X611713Y375590D02*
D03*
X148031Y494095D02*
D03*
X181890Y505185D02*
D03*
X189763Y508267D02*
D03*
X324410Y507087D02*
D03*
X157480Y488189D02*
D03*
X138976Y476378D02*
D03*
X356299Y490945D02*
D03*
X548032Y520079D02*
D03*
X192913Y494882D02*
D03*
Y500394D02*
D03*
X305512Y427165D02*
D03*
X535433Y592520D02*
D03*
X532676Y582676D02*
D03*
X551575Y569291D02*
D03*
X411024Y510236D02*
D03*
X420079Y521260D02*
D03*
X413386Y602362D02*
D03*
Y597638D02*
D03*
X641339Y536221D02*
D03*
X527559Y605905D02*
D03*
X389764D02*
D03*
X275590Y596063D02*
D03*
X252756Y605905D02*
D03*
X261811Y593701D02*
D03*
X398819D02*
D03*
Y598032D02*
D03*
D30*
X117795Y473819D02*
D03*
Y537992D02*
D03*
X671969Y538779D02*
D03*
Y474606D02*
D03*
X427106Y327264D02*
D03*
X362933D02*
D03*
D31*
X674409Y324803D02*
D03*
Y687008D02*
D03*
X115354D02*
D03*
Y324803D02*
D03*
D32*
X628740Y413878D02*
D03*
X601968D02*
D03*
M02*
