G04*
G04 #@! TF.GenerationSoftware,Altium Limited,Altium Designer,18.1.11 (251)*
G04*
G04 Layer_Physical_Order=2*
G04 Layer_Color=16711680*
%FSLAX25Y25*%
%MOIN*%
G70*
G01*
G75*
%ADD10C,0.01000*%
%ADD11C,0.01181*%
%ADD13C,0.00394*%
%ADD14R,0.15945X0.40158*%
%ADD15C,0.00197*%
%ADD27C,0.01968*%
%ADD28C,0.06299*%
%ADD29C,0.05906*%
%ADD30C,0.01968*%
%ADD31C,0.02756*%
%ADD32C,0.09488*%
%ADD33C,0.03740*%
%ADD34C,0.23622*%
%ADD35R,0.03937X0.04134*%
%ADD36R,0.03740X0.03347*%
%ADD37R,0.03543X0.03347*%
%ADD38R,0.11496X0.05000*%
%ADD39R,0.05000X0.11496*%
%ADD40R,0.05512X0.04331*%
%ADD41O,0.05709X0.02362*%
%ADD42O,0.05512X0.01772*%
%ADD43R,0.03347X0.03543*%
%ADD44R,0.04134X0.03937*%
%ADD45C,0.03937*%
G36*
X619291Y702756D02*
X619291Y702756D01*
X620324Y702756D01*
X622370Y702487D01*
X624364Y701952D01*
X626271Y701162D01*
X628059Y700130D01*
X629697Y698873D01*
X631157Y697414D01*
X632413Y695776D01*
X633446Y693988D01*
X634236Y692081D01*
X634770Y690087D01*
X635039Y688040D01*
X635039Y687008D01*
X635039Y324803D01*
X635039Y324803D01*
Y323771D01*
X634770Y321724D01*
X634236Y319730D01*
X633446Y317823D01*
X632413Y316035D01*
X631157Y314397D01*
X629697Y312938D01*
X628059Y311681D01*
X626271Y310649D01*
X624364Y309859D01*
X622370Y309325D01*
X620324Y309055D01*
X170866D01*
X169834Y309055D01*
X167787Y309325D01*
X165793Y309859D01*
X163886Y310649D01*
X162098Y311681D01*
X160460Y312938D01*
X159001Y314398D01*
X157744Y316035D01*
X156712Y317823D01*
X155922Y319730D01*
X155388Y321724D01*
X155118Y323771D01*
X155118Y324803D01*
X155118Y686143D01*
X155118Y686614D01*
X155118Y686614D01*
X155118Y686614D01*
X155118Y687672D01*
X155394Y689770D01*
X155942Y691814D01*
X156752Y693769D01*
X157810Y695601D01*
X159098Y697280D01*
X160594Y698776D01*
X162273Y700064D01*
X164105Y701122D01*
X166060Y701932D01*
X168104Y702480D01*
X170202Y702756D01*
X171260Y702756D01*
X619291Y702756D01*
X619291Y702756D01*
D02*
G37*
%LPC*%
G36*
X619791Y699819D02*
Y687508D01*
X632103D01*
X631984Y689018D01*
X631513Y690979D01*
X630741Y692842D01*
X629688Y694561D01*
X628378Y696095D01*
X626845Y697404D01*
X625125Y698458D01*
X623262Y699230D01*
X621302Y699700D01*
X619791Y699819D01*
D02*
G37*
G36*
X618791D02*
X617281Y699700D01*
X615320Y699230D01*
X613457Y698458D01*
X611738Y697404D01*
X610205Y696095D01*
X608895Y694561D01*
X607841Y692842D01*
X607070Y690979D01*
X606599Y689018D01*
X606480Y687508D01*
X618791D01*
Y699819D01*
D02*
G37*
G36*
X171366D02*
Y687508D01*
X183677D01*
X183559Y689018D01*
X183088Y690979D01*
X182316Y692842D01*
X181263Y694561D01*
X179953Y696095D01*
X178420Y697404D01*
X176700Y698458D01*
X174837Y699230D01*
X172876Y699700D01*
X171366Y699819D01*
D02*
G37*
G36*
X170366D02*
X168856Y699700D01*
X166895Y699230D01*
X165032Y698458D01*
X163313Y697404D01*
X161779Y696095D01*
X160470Y694561D01*
X159416Y692842D01*
X158644Y690979D01*
X158174Y689018D01*
X158055Y687508D01*
X170366D01*
Y699819D01*
D02*
G37*
G36*
X467528Y679392D02*
Y677567D01*
X469353D01*
X469268Y677995D01*
X468742Y678781D01*
X467955Y679307D01*
X467528Y679392D01*
D02*
G37*
G36*
X466528D02*
X466100Y679307D01*
X465313Y678781D01*
X464788Y677995D01*
X464703Y677567D01*
X466528D01*
Y679392D01*
D02*
G37*
G36*
X327075D02*
Y677567D01*
X328900D01*
X328815Y677995D01*
X328289Y678781D01*
X327503Y679307D01*
X327075Y679392D01*
D02*
G37*
G36*
X326075D02*
X325647Y679307D01*
X324860Y678781D01*
X324335Y677995D01*
X324250Y677567D01*
X326075D01*
Y679392D01*
D02*
G37*
G36*
X469353Y676567D02*
X467528D01*
Y674742D01*
X467955Y674827D01*
X468742Y675352D01*
X469268Y676139D01*
X469353Y676567D01*
D02*
G37*
G36*
X466528D02*
X464703D01*
X464788Y676139D01*
X465313Y675352D01*
X466100Y674827D01*
X466528Y674742D01*
Y676567D01*
D02*
G37*
G36*
X328900D02*
X327075D01*
Y674742D01*
X327503Y674827D01*
X328289Y675352D01*
X328815Y676139D01*
X328900Y676567D01*
D02*
G37*
G36*
X326075D02*
X324250D01*
X324335Y676139D01*
X324860Y675352D01*
X325647Y674827D01*
X326075Y674742D01*
Y676567D01*
D02*
G37*
G36*
X533543Y679590D02*
X532616Y679405D01*
X531829Y678880D01*
X531303Y678093D01*
X531119Y677165D01*
X531303Y676237D01*
X531829Y675451D01*
X532616Y674925D01*
X533543Y674741D01*
X534471Y674925D01*
X535258Y675451D01*
X535783Y676237D01*
X535968Y677165D01*
X535783Y678093D01*
X535258Y678880D01*
X534471Y679405D01*
X533543Y679590D01*
D02*
G37*
G36*
X395354Y679354D02*
X394426Y679169D01*
X393640Y678644D01*
X393114Y677857D01*
X392930Y676929D01*
X393114Y676001D01*
X393640Y675215D01*
X394426Y674689D01*
X395354Y674505D01*
X396282Y674689D01*
X397069Y675215D01*
X397594Y676001D01*
X397779Y676929D01*
X397594Y677857D01*
X397069Y678644D01*
X396282Y679169D01*
X395354Y679354D01*
D02*
G37*
G36*
X256378D02*
X255450Y679169D01*
X254663Y678644D01*
X254138Y677857D01*
X253953Y676929D01*
X254138Y676001D01*
X254663Y675215D01*
X255450Y674689D01*
X256378Y674505D01*
X257306Y674689D01*
X258092Y675215D01*
X258618Y676001D01*
X258803Y676929D01*
X258618Y677857D01*
X258092Y678644D01*
X257306Y679169D01*
X256378Y679354D01*
D02*
G37*
G36*
X632103Y686508D02*
X619791D01*
Y674197D01*
X621302Y674315D01*
X623262Y674786D01*
X625125Y675558D01*
X626845Y676612D01*
X628378Y677921D01*
X629688Y679455D01*
X630741Y681174D01*
X631513Y683037D01*
X631984Y684998D01*
X632103Y686508D01*
D02*
G37*
G36*
X618791D02*
X606480D01*
X606599Y684998D01*
X607070Y683037D01*
X607841Y681174D01*
X608895Y679455D01*
X610205Y677921D01*
X611738Y676612D01*
X613457Y675558D01*
X615320Y674786D01*
X617281Y674315D01*
X618791Y674197D01*
Y686508D01*
D02*
G37*
G36*
X183677D02*
X171366D01*
Y674197D01*
X172876Y674315D01*
X174837Y674786D01*
X176700Y675558D01*
X178420Y676612D01*
X179953Y677921D01*
X181263Y679455D01*
X182316Y681174D01*
X183088Y683037D01*
X183559Y684998D01*
X183677Y686508D01*
D02*
G37*
G36*
X170366D02*
X158055D01*
X158174Y684998D01*
X158644Y683037D01*
X159416Y681174D01*
X160470Y679455D01*
X161779Y677921D01*
X163313Y676612D01*
X165032Y675558D01*
X166895Y674786D01*
X168856Y674315D01*
X170366Y674197D01*
Y686508D01*
D02*
G37*
G36*
X385354Y679354D02*
X384426Y679169D01*
X383640Y678644D01*
X383114Y677857D01*
X382930Y676929D01*
X383114Y676001D01*
X383640Y675215D01*
X383825Y675091D01*
Y668027D01*
X381677D01*
Y661697D01*
X389189D01*
Y668027D01*
X386884D01*
Y675091D01*
X387069Y675215D01*
X387594Y676001D01*
X387779Y676929D01*
X387594Y677857D01*
X387069Y678644D01*
X386282Y679169D01*
X385354Y679354D01*
D02*
G37*
G36*
X375354D02*
X374427Y679169D01*
X373640Y678644D01*
X373114Y677857D01*
X372930Y676929D01*
X373114Y676001D01*
X373640Y675215D01*
X373825Y675091D01*
Y667634D01*
X371441D01*
Y661303D01*
X378953D01*
Y667634D01*
X376884D01*
Y675091D01*
X377069Y675215D01*
X377594Y676001D01*
X377779Y676929D01*
X377594Y677857D01*
X377069Y678644D01*
X376282Y679169D01*
X375354Y679354D01*
D02*
G37*
G36*
X246378D02*
X245450Y679169D01*
X244664Y678644D01*
X244138Y677857D01*
X243953Y676929D01*
X244138Y676001D01*
X244664Y675215D01*
X244849Y675091D01*
Y667634D01*
X242701D01*
Y661303D01*
X250213D01*
Y667634D01*
X247907D01*
Y675091D01*
X248092Y675215D01*
X248618Y676001D01*
X248802Y676929D01*
X248618Y677857D01*
X248092Y678644D01*
X247306Y679169D01*
X246378Y679354D01*
D02*
G37*
G36*
X236378D02*
X235450Y679169D01*
X234664Y678644D01*
X234138Y677857D01*
X233953Y676929D01*
X234138Y676001D01*
X234664Y675215D01*
X234849Y675091D01*
Y667634D01*
X232465D01*
Y661303D01*
X239976D01*
Y667634D01*
X237907D01*
Y675091D01*
X238092Y675215D01*
X238618Y676001D01*
X238803Y676929D01*
X238618Y677857D01*
X238092Y678644D01*
X237306Y679169D01*
X236378Y679354D01*
D02*
G37*
G36*
X523543Y679590D02*
X522615Y679405D01*
X521829Y678880D01*
X521303Y678093D01*
X521119Y677165D01*
X521303Y676237D01*
X521829Y675451D01*
X522014Y675327D01*
Y667240D01*
X519866D01*
Y660910D01*
X527378D01*
Y667240D01*
X525073D01*
Y675327D01*
X525258Y675451D01*
X525783Y676237D01*
X525968Y677165D01*
X525783Y678093D01*
X525258Y678880D01*
X524471Y679405D01*
X523543Y679590D01*
D02*
G37*
G36*
X513543D02*
X512615Y679405D01*
X511829Y678880D01*
X511303Y678093D01*
X511119Y677165D01*
X511303Y676237D01*
X511829Y675451D01*
X512014Y675327D01*
Y667240D01*
X510024D01*
Y660910D01*
X517535D01*
Y667240D01*
X515073D01*
Y675327D01*
X515258Y675451D01*
X515783Y676237D01*
X515968Y677165D01*
X515783Y678093D01*
X515258Y678880D01*
X514471Y679405D01*
X513543Y679590D01*
D02*
G37*
G36*
X406546Y681336D02*
X404162D01*
X403577Y681220D01*
X403081Y680889D01*
X399706Y677514D01*
X399374Y677017D01*
X399258Y676432D01*
Y625682D01*
X392194Y618618D01*
X391863Y618122D01*
X391746Y617537D01*
Y608042D01*
X391246Y607775D01*
X390692Y608146D01*
X389764Y608330D01*
X388836Y608146D01*
X388049Y607620D01*
X387860Y607337D01*
X386637D01*
X386267Y607584D01*
X385531Y607730D01*
X381791D01*
X381055Y607584D01*
X380432Y607167D01*
X380015Y606543D01*
X379869Y605807D01*
X379940Y605451D01*
X379540Y604951D01*
X378726D01*
Y649693D01*
X383840Y654807D01*
X389189D01*
Y661138D01*
X381677D01*
Y656970D01*
X379453Y654746D01*
X378953Y654953D01*
Y660744D01*
X371441D01*
Y654413D01*
X373668D01*
Y603471D01*
X373784Y602885D01*
X374115Y602389D01*
X376724Y599781D01*
X377220Y599449D01*
X377805Y599333D01*
X377814D01*
X378021Y598833D01*
X374052Y594864D01*
X373721Y594368D01*
X373604Y593783D01*
Y585351D01*
X373721Y584766D01*
X374052Y584270D01*
X376519Y581803D01*
X376540Y581698D01*
X376871Y581202D01*
X383904Y574170D01*
Y541256D01*
X381677D01*
Y534925D01*
X389189D01*
Y541256D01*
X386963D01*
Y573535D01*
X387424Y573726D01*
X394140Y567010D01*
Y541256D01*
X391913D01*
Y534925D01*
X399425D01*
Y541256D01*
X397199D01*
Y566127D01*
X397661Y566318D01*
X403589Y560390D01*
Y541256D01*
X401362D01*
Y534925D01*
X408675D01*
Y534366D01*
X401362D01*
Y528035D01*
X403825D01*
Y518767D01*
X403640Y518644D01*
X403114Y517857D01*
X402930Y516929D01*
X403114Y516001D01*
X403640Y515215D01*
X404426Y514689D01*
X405354Y514505D01*
X406282Y514689D01*
X407069Y515215D01*
X407594Y516001D01*
X407779Y516929D01*
X407594Y517857D01*
X407069Y518644D01*
X406884Y518767D01*
Y528035D01*
X408675D01*
Y526149D01*
X408792Y525563D01*
X409123Y525067D01*
X414545Y519645D01*
X414359Y519124D01*
X413640Y518644D01*
X413114Y517857D01*
X412930Y516929D01*
X413114Y516001D01*
X413640Y515215D01*
X414427Y514689D01*
X415354Y514505D01*
X416282Y514689D01*
X417069Y515215D01*
X417549Y515934D01*
X418070Y516120D01*
X435107Y499084D01*
X434788Y498695D01*
X434786Y498697D01*
X433858Y498881D01*
X432930Y498697D01*
X432144Y498171D01*
X431618Y497385D01*
X431434Y496457D01*
X431618Y495529D01*
X432144Y494742D01*
X432329Y494619D01*
Y485433D01*
X432445Y484848D01*
X432777Y484352D01*
X455493Y461636D01*
X455449Y461417D01*
X455634Y460490D01*
X456160Y459703D01*
X456946Y459177D01*
X457874Y458993D01*
X458802Y459177D01*
X459588Y459703D01*
X460114Y460490D01*
X460299Y461417D01*
X460114Y462345D01*
X459588Y463132D01*
X458802Y463657D01*
X457874Y463842D01*
X457656Y463798D01*
X435388Y486067D01*
Y494619D01*
X435573Y494742D01*
X436098Y495529D01*
X436283Y496457D01*
X436098Y497385D01*
X436097Y497387D01*
X436485Y497706D01*
X438431Y495759D01*
Y494095D01*
X438548Y493509D01*
X438879Y493013D01*
X471320Y460572D01*
X471816Y460241D01*
X472402Y460124D01*
X472614D01*
X472784Y459624D01*
X472535Y459433D01*
X471902Y458608D01*
X471503Y457646D01*
X471368Y456614D01*
X470876Y456564D01*
X470744Y457227D01*
X470218Y458014D01*
X469432Y458539D01*
X468504Y458724D01*
X467576Y458539D01*
X466789Y458014D01*
X466264Y457227D01*
X466079Y456299D01*
X466264Y455371D01*
X466789Y454585D01*
X467576Y454059D01*
X468504Y453875D01*
X468722Y453918D01*
X471753Y450887D01*
X472249Y450556D01*
X472835Y450439D01*
X473025D01*
X473194Y449939D01*
X472535Y449433D01*
X471902Y448608D01*
X471503Y447646D01*
X471368Y446614D01*
X471503Y445582D01*
X471902Y444621D01*
X472535Y443795D01*
X473361Y443161D01*
X474323Y442763D01*
X475354Y442627D01*
X476386Y442763D01*
X477348Y443161D01*
X478173Y443795D01*
X478679Y444454D01*
X479179Y444284D01*
Y438944D01*
X478679Y438774D01*
X478173Y439433D01*
X477348Y440067D01*
X476386Y440465D01*
X475354Y440601D01*
X474323Y440465D01*
X473361Y440067D01*
X472535Y439433D01*
X471902Y438608D01*
X471503Y437646D01*
X471368Y436614D01*
X471503Y435582D01*
X471902Y434621D01*
X472535Y433795D01*
X473361Y433161D01*
X474323Y432763D01*
X475354Y432627D01*
X476386Y432763D01*
X477348Y433161D01*
X478173Y433795D01*
X478679Y434454D01*
X479179Y434284D01*
Y431260D01*
X479296Y430675D01*
X479627Y430178D01*
X481696Y428110D01*
X481503Y427646D01*
X481367Y426614D01*
X481503Y425582D01*
X481902Y424621D01*
X482319Y424077D01*
X482072Y423577D01*
X478636D01*
X478390Y424077D01*
X478807Y424621D01*
X479205Y425582D01*
X479341Y426614D01*
X479205Y427646D01*
X478807Y428608D01*
X478173Y429433D01*
X477348Y430067D01*
X476386Y430465D01*
X475354Y430601D01*
X474323Y430465D01*
X473361Y430067D01*
X472535Y429433D01*
X471902Y428608D01*
X471503Y427646D01*
X471368Y426614D01*
X471402Y426350D01*
X470929Y426116D01*
X462238Y434807D01*
Y454776D01*
X462423Y454900D01*
X462949Y455686D01*
X463133Y456614D01*
X462949Y457542D01*
X462423Y458329D01*
X461636Y458854D01*
X460709Y459039D01*
X459781Y458854D01*
X458994Y458329D01*
X458469Y457542D01*
X458284Y456614D01*
X458469Y455686D01*
X458994Y454900D01*
X459179Y454776D01*
Y434173D01*
X459296Y433588D01*
X459627Y433092D01*
X471753Y420966D01*
X472249Y420634D01*
X472835Y420518D01*
X473159D01*
X473279Y420248D01*
X473297Y420018D01*
X472535Y419433D01*
X471902Y418608D01*
X471503Y417646D01*
X471368Y416614D01*
X471503Y415582D01*
X471902Y414621D01*
X472535Y413795D01*
X473361Y413161D01*
X474323Y412763D01*
X475354Y412627D01*
X476386Y412763D01*
X477348Y413161D01*
X478173Y413795D01*
X478807Y414621D01*
X479205Y415582D01*
X479341Y416614D01*
X479205Y417646D01*
X478807Y418608D01*
X478173Y419433D01*
X477412Y420018D01*
X477429Y420248D01*
X477550Y420518D01*
X483159D01*
X483280Y420248D01*
X483297Y420018D01*
X482535Y419433D01*
X481902Y418608D01*
X481503Y417646D01*
X481367Y416614D01*
X481503Y415582D01*
X481696Y415118D01*
X478726Y412148D01*
X478394Y411652D01*
X478278Y411067D01*
Y409984D01*
X477778Y409737D01*
X477348Y410067D01*
X476386Y410465D01*
X475354Y410601D01*
X474323Y410465D01*
X473361Y410067D01*
X472535Y409433D01*
X471902Y408608D01*
X471709Y408144D01*
X471353D01*
X470768Y408027D01*
X470272Y407696D01*
X465413Y402836D01*
X465194Y402880D01*
X464267Y402695D01*
X463480Y402170D01*
X462954Y401383D01*
X462770Y400455D01*
X462954Y399527D01*
X463480Y398741D01*
X464267Y398215D01*
X465194Y398031D01*
X466122Y398215D01*
X466909Y398741D01*
X467434Y399527D01*
X467619Y400455D01*
X467576Y400673D01*
X471444Y404542D01*
X472044Y404435D01*
X472535Y403795D01*
X472649Y403708D01*
X472603Y403113D01*
X465159Y395668D01*
X464827Y395172D01*
X464711Y394587D01*
Y361188D01*
X464526Y361065D01*
X464000Y360278D01*
X463816Y359350D01*
X464000Y358423D01*
X464526Y357636D01*
X465312Y357110D01*
X466240Y356926D01*
X467168Y357110D01*
X467955Y357636D01*
X468480Y358423D01*
X468665Y359350D01*
X468480Y360278D01*
X467955Y361065D01*
X467769Y361188D01*
Y393953D01*
X470929Y397112D01*
X471402Y396879D01*
X471368Y396614D01*
X471503Y395582D01*
X471902Y394621D01*
X472535Y393795D01*
X473361Y393162D01*
X474323Y392763D01*
X475354Y392627D01*
X476386Y392763D01*
X477348Y393162D01*
X478173Y393795D01*
X478807Y394621D01*
X479205Y395582D01*
X479341Y396614D01*
X479205Y397646D01*
X478807Y398608D01*
X478173Y399433D01*
X477348Y400067D01*
X477328Y400160D01*
X477702Y400732D01*
X477784Y400748D01*
X478280Y401080D01*
X480889Y403688D01*
X481220Y404184D01*
X481236Y404267D01*
X481809Y404640D01*
X481902Y404621D01*
X482535Y403795D01*
X483361Y403161D01*
X484323Y402763D01*
X485354Y402627D01*
X486386Y402763D01*
X487348Y403161D01*
X488173Y403795D01*
X488807Y404621D01*
X489205Y405582D01*
X489341Y406614D01*
X489205Y407646D01*
X488807Y408608D01*
X488173Y409433D01*
X487348Y410067D01*
X486386Y410465D01*
X485354Y410601D01*
X484323Y410465D01*
X483361Y410067D01*
X482535Y409433D01*
X481902Y408608D01*
X481837Y408450D01*
X481336Y408550D01*
Y410433D01*
X483858Y412955D01*
X484323Y412763D01*
X485354Y412627D01*
X486386Y412763D01*
X487348Y413161D01*
X488173Y413795D01*
X488807Y414621D01*
X489205Y415582D01*
X489341Y416614D01*
X489307Y416870D01*
X489756Y417091D01*
X492958Y413889D01*
Y405774D01*
X492773Y405651D01*
X492247Y404864D01*
X492063Y403936D01*
X492247Y403008D01*
X492773Y402222D01*
X493559Y401696D01*
X494487Y401512D01*
X495415Y401696D01*
X495603Y401822D01*
X496044Y401585D01*
X495874Y369648D01*
X493143Y366946D01*
X492913Y366991D01*
X491986Y366807D01*
X491199Y366281D01*
X490673Y365495D01*
X490489Y364567D01*
X490673Y363639D01*
X491199Y362853D01*
X491986Y362327D01*
X492913Y362142D01*
X493841Y362327D01*
X494628Y362853D01*
X495153Y363639D01*
X495338Y364567D01*
X495297Y364774D01*
X498476Y367919D01*
X498666Y368200D01*
X499166Y368047D01*
Y342721D01*
X499073Y342659D01*
X498547Y341873D01*
X498363Y340945D01*
X498547Y340017D01*
X499013Y339321D01*
X498854Y338821D01*
X379193D01*
X374661Y343352D01*
Y355173D01*
X367661D01*
Y343939D01*
X170925Y343939D01*
X165199Y349665D01*
Y466476D01*
X176437Y477714D01*
X187734D01*
Y477209D01*
X201230D01*
Y484209D01*
X187734D01*
Y483703D01*
X176398D01*
X176273Y483985D01*
X176259Y484203D01*
X177398Y485077D01*
X178318Y486276D01*
X178897Y487674D01*
X179094Y489173D01*
X178897Y490673D01*
X178318Y492070D01*
X177398Y493270D01*
X176198Y494191D01*
X174800Y494769D01*
X173301Y494967D01*
X171801Y494769D01*
X170404Y494191D01*
X169204Y493270D01*
X168283Y492070D01*
X167704Y490673D01*
X167507Y489173D01*
X167704Y487674D01*
X168283Y486276D01*
X169204Y485077D01*
X170404Y484156D01*
X171801Y483577D01*
X173027Y483416D01*
X173167Y482893D01*
X173080Y482826D01*
X160088Y469834D01*
X159612Y469214D01*
X159313Y468492D01*
X159211Y467717D01*
Y348425D01*
X159313Y347650D01*
X159612Y346928D01*
X160088Y346308D01*
X167568Y338828D01*
X168188Y338352D01*
X168910Y338053D01*
X169154Y338021D01*
X169141Y337518D01*
X168856Y337496D01*
X166895Y337025D01*
X165032Y336253D01*
X163313Y335199D01*
X161779Y333890D01*
X160470Y332357D01*
X159416Y330637D01*
X158644Y328774D01*
X158174Y326813D01*
X158055Y325303D01*
X183677D01*
X183559Y326813D01*
X183088Y328774D01*
X182316Y330637D01*
X181263Y332357D01*
X179953Y333890D01*
X178420Y335199D01*
X176700Y336253D01*
X174837Y337025D01*
X173063Y337451D01*
X173122Y337951D01*
X371161Y337951D01*
X371544Y338001D01*
X375836Y333710D01*
X376456Y333234D01*
X376755Y333110D01*
X377178Y332935D01*
X377953Y332833D01*
X424259D01*
X424357Y332342D01*
X424209Y332281D01*
X423010Y331361D01*
X422089Y330161D01*
X421510Y328763D01*
X421313Y327264D01*
X421510Y325764D01*
X422089Y324367D01*
X423010Y323167D01*
X424209Y322246D01*
X425607Y321668D01*
X427106Y321470D01*
X428606Y321668D01*
X430003Y322246D01*
X431203Y323167D01*
X432124Y324367D01*
X432702Y325764D01*
X432900Y327264D01*
X432702Y328763D01*
X432124Y330161D01*
X431203Y331361D01*
X430003Y332281D01*
X429856Y332342D01*
X429953Y332833D01*
X516929D01*
X517704Y332935D01*
X518426Y333234D01*
X519046Y333710D01*
X597905Y412568D01*
X598380Y413188D01*
X598679Y413910D01*
X598781Y414685D01*
Y431146D01*
X602535D01*
Y438146D01*
X596349D01*
X596299Y438646D01*
X596597Y438705D01*
X597384Y439230D01*
X597507Y439416D01*
X600645D01*
X601230Y439532D01*
X601726Y439863D01*
X604117Y442254D01*
X604448Y442750D01*
X604565Y443335D01*
Y465862D01*
X604448Y466447D01*
X604117Y466944D01*
X602535Y468525D01*
Y473579D01*
X589039D01*
Y466579D01*
X600156D01*
X601506Y465229D01*
Y461768D01*
X589039D01*
Y454768D01*
X594258D01*
Y454279D01*
X593955Y454077D01*
X593429Y453290D01*
X593245Y452362D01*
X593429Y451434D01*
X593955Y450648D01*
X594241Y450457D01*
X594089Y449957D01*
X589039D01*
Y445139D01*
X587463Y443562D01*
X586963Y443770D01*
Y465256D01*
X586846Y465841D01*
X586515Y466337D01*
X584307Y468545D01*
Y473579D01*
X570811D01*
Y466579D01*
X575979D01*
X576131Y466079D01*
X575845Y465888D01*
X575319Y465101D01*
X575135Y464173D01*
X575319Y463245D01*
X575845Y462459D01*
X576030Y462335D01*
Y461768D01*
X570811D01*
Y454768D01*
X575458D01*
X575709Y454268D01*
X575319Y453684D01*
X575135Y452756D01*
X575319Y451828D01*
X575845Y451042D01*
X576030Y450918D01*
Y449957D01*
X570811D01*
Y442957D01*
X583904D01*
Y438146D01*
X570811D01*
Y431146D01*
X574277D01*
X574528Y430646D01*
X574138Y430062D01*
X573953Y429134D01*
X574138Y428206D01*
X574663Y427419D01*
X575450Y426894D01*
X576378Y426709D01*
X577306Y426894D01*
X578092Y427419D01*
X578618Y428206D01*
X578802Y429134D01*
X578707Y429615D01*
X578972Y430012D01*
X579088Y430598D01*
Y431146D01*
X583904D01*
Y415224D01*
X583719Y415100D01*
X583193Y414314D01*
X583008Y413386D01*
X583193Y412458D01*
X583719Y411671D01*
X584505Y411146D01*
X585433Y410961D01*
X586361Y411146D01*
X587148Y411671D01*
X587673Y412458D01*
X587858Y413386D01*
X587673Y414314D01*
X587148Y415100D01*
X586963Y415224D01*
Y422766D01*
X587418Y422955D01*
X587770Y422627D01*
X587733Y422441D01*
X587918Y421513D01*
X588443Y420726D01*
X589230Y420201D01*
X590158Y420016D01*
X591085Y420201D01*
X591872Y420726D01*
X592293Y421357D01*
X592793Y421206D01*
Y415925D01*
X515689Y338821D01*
X502720D01*
X502562Y339321D01*
X503027Y340017D01*
X503212Y340945D01*
X503027Y341873D01*
X502502Y342659D01*
X502409Y342721D01*
Y369407D01*
X503040Y370038D01*
X503150Y370016D01*
X504077Y370201D01*
X504864Y370726D01*
X505390Y371513D01*
X505574Y372441D01*
X505390Y373369D01*
X504894Y374111D01*
Y484944D01*
X505390Y485686D01*
X505574Y486614D01*
X505390Y487542D01*
X504864Y488329D01*
X504077Y488854D01*
X503150Y489039D01*
X502222Y488854D01*
X501435Y488329D01*
X500954Y487609D01*
X500433Y487423D01*
X491687Y496170D01*
Y498949D01*
X491872Y499073D01*
X492397Y499860D01*
X492582Y500787D01*
X492397Y501715D01*
X491872Y502502D01*
X491085Y503027D01*
X490158Y503212D01*
X489230Y503027D01*
X488443Y502502D01*
X487918Y501715D01*
X487733Y500787D01*
X487918Y499860D01*
X488443Y499073D01*
X488628Y498949D01*
Y495536D01*
X488744Y494951D01*
X489076Y494455D01*
X498864Y484666D01*
Y435974D01*
X498364Y435767D01*
X489013Y445118D01*
X489205Y445582D01*
X489341Y446614D01*
X489205Y447646D01*
X488807Y448608D01*
X488173Y449433D01*
X487348Y450067D01*
X486386Y450465D01*
X485354Y450601D01*
X484323Y450465D01*
X483361Y450067D01*
X482535Y449433D01*
X482202Y448999D01*
X482167Y448975D01*
X481545Y448964D01*
X477704Y452805D01*
X477715Y453427D01*
X477740Y453462D01*
X478173Y453795D01*
X478807Y454621D01*
X479205Y455582D01*
X479341Y456614D01*
X479205Y457646D01*
X478807Y458608D01*
X478173Y459433D01*
X477925Y459624D01*
X478094Y460124D01*
X479681D01*
X481696Y458110D01*
X481503Y457646D01*
X481367Y456614D01*
X481503Y455582D01*
X481902Y454621D01*
X482535Y453795D01*
X483361Y453161D01*
X484323Y452763D01*
X485354Y452627D01*
X486386Y452763D01*
X487348Y453161D01*
X488173Y453795D01*
X488807Y454621D01*
X489205Y455582D01*
X489341Y456614D01*
X489205Y457646D01*
X488807Y458608D01*
X488173Y459433D01*
X487348Y460067D01*
X486386Y460465D01*
X485354Y460601D01*
X484323Y460465D01*
X483858Y460273D01*
X481396Y462735D01*
X480900Y463066D01*
X480315Y463183D01*
X478154D01*
X477993Y463656D01*
X478173Y463795D01*
X478807Y464621D01*
X479205Y465582D01*
X479341Y466614D01*
X479205Y467646D01*
X478807Y468608D01*
X478173Y469433D01*
X477925Y469624D01*
X478094Y470124D01*
X479681D01*
X481696Y468110D01*
X481503Y467646D01*
X481367Y466614D01*
X481503Y465582D01*
X481902Y464621D01*
X482535Y463795D01*
X483361Y463161D01*
X484323Y462763D01*
X485354Y462627D01*
X486386Y462763D01*
X487348Y463161D01*
X488173Y463795D01*
X488807Y464621D01*
X489205Y465582D01*
X489341Y466614D01*
X489205Y467646D01*
X488807Y468608D01*
X488173Y469433D01*
X487348Y470067D01*
X486386Y470465D01*
X485354Y470601D01*
X484323Y470465D01*
X483858Y470273D01*
X481396Y472735D01*
X480900Y473067D01*
X480315Y473183D01*
X478154D01*
X477993Y473656D01*
X478173Y473795D01*
X478807Y474621D01*
X479205Y475582D01*
X479275Y476114D01*
X475354D01*
X471433D01*
X471503Y475582D01*
X471902Y474621D01*
X472535Y473795D01*
X472716Y473656D01*
X472555Y473183D01*
X468842D01*
X459448Y482578D01*
X413734Y528291D01*
Y559701D01*
X417694Y563661D01*
X418156Y563469D01*
Y529134D01*
X418272Y528549D01*
X418604Y528052D01*
X436718Y509938D01*
X436985Y509538D01*
X438542Y507981D01*
X438520Y507874D01*
X438705Y506946D01*
X439230Y506160D01*
X440017Y505634D01*
X440945Y505449D01*
X441873Y505634D01*
X442659Y506160D01*
X443185Y506946D01*
X443369Y507874D01*
X443185Y508802D01*
X442659Y509588D01*
X441873Y510114D01*
X441353Y510217D01*
Y510727D01*
X441479Y510752D01*
X442266Y511278D01*
X442791Y512064D01*
X442976Y512992D01*
X442791Y513920D01*
X442266Y514707D01*
X441479Y515232D01*
X440551Y515417D01*
X440333Y515373D01*
X424758Y530948D01*
Y590739D01*
X424641Y591325D01*
X424310Y591821D01*
X412338Y603792D01*
X412336Y603821D01*
X412517Y604320D01*
X412888Y604394D01*
X413385Y604726D01*
X418486Y609827D01*
X422358D01*
Y615961D01*
X416421D01*
Y612088D01*
X411670Y607337D01*
X409865D01*
X409496Y607584D01*
X408760Y607730D01*
X405020D01*
X404284Y607584D01*
X403660Y607167D01*
X403243Y606543D01*
X403097Y605807D01*
X403243Y605071D01*
X403607Y604528D01*
X403243Y603984D01*
X403097Y603248D01*
X403243Y602512D01*
X403319Y602399D01*
X403329Y602361D01*
X403160Y601737D01*
X402950Y601597D01*
X399706Y598353D01*
X399374Y597857D01*
X399258Y597272D01*
Y569700D01*
X398796Y569509D01*
X382796Y585509D01*
X382987Y585971D01*
X385531D01*
X386267Y586117D01*
X386891Y586534D01*
X386893Y586538D01*
X393579D01*
X394164Y586654D01*
X394660Y586985D01*
X396357Y588682D01*
X396689Y589179D01*
X396805Y589764D01*
Y616075D01*
X406200Y625470D01*
X406531Y625966D01*
X406647Y626551D01*
Y654807D01*
X408874D01*
Y660662D01*
X408874Y660992D01*
X409330Y661242D01*
X409347Y661226D01*
X411598Y658975D01*
Y654807D01*
X419110D01*
Y661138D01*
X414165D01*
X414126Y661197D01*
X414393Y661697D01*
X419110D01*
Y668027D01*
X416884D01*
Y675091D01*
X417069Y675215D01*
X417594Y676001D01*
X417779Y676929D01*
X417594Y677857D01*
X417069Y678644D01*
X416282Y679169D01*
X415354Y679354D01*
X414427Y679169D01*
X413640Y678644D01*
X413114Y677857D01*
X412930Y676929D01*
X413114Y676001D01*
X413640Y675215D01*
X413825Y675091D01*
Y668027D01*
X411598D01*
Y664419D01*
X411098Y664156D01*
X410978Y664238D01*
Y676905D01*
X410862Y677490D01*
X410530Y677986D01*
X407628Y680889D01*
X407132Y681220D01*
X406546Y681336D01*
D02*
G37*
G36*
X268898Y681844D02*
X264567D01*
X263982Y681728D01*
X263486Y681396D01*
X260730Y678641D01*
X260398Y678144D01*
X260282Y677559D01*
Y623320D01*
X255611Y618650D01*
X255280Y618154D01*
X255164Y617569D01*
Y607482D01*
X254663Y607331D01*
X254470Y607620D01*
X253684Y608146D01*
X252756Y608330D01*
X251828Y608146D01*
X251042Y607620D01*
X250852Y607337D01*
X248842D01*
X248472Y607584D01*
X247736Y607730D01*
X243996D01*
X243260Y607584D01*
X242636Y607167D01*
X242220Y606543D01*
X242073Y605807D01*
X242150Y605419D01*
X241828Y604971D01*
X241419Y604936D01*
X239750Y606606D01*
Y649300D01*
X244864Y654413D01*
X250213D01*
Y660744D01*
X242701D01*
Y656576D01*
X240450Y654325D01*
X240429Y654310D01*
X239976Y654559D01*
X239976Y654853D01*
Y660744D01*
X232465D01*
Y654413D01*
X234691D01*
Y604823D01*
X234807Y604238D01*
X235139Y603741D01*
X239273Y599608D01*
X239572Y599408D01*
X239666Y598866D01*
X239649Y598800D01*
X236257Y595408D01*
X235926Y594912D01*
X235809Y594327D01*
Y578658D01*
X235926Y578073D01*
X236257Y577577D01*
X244927Y568906D01*
Y541650D01*
X242701D01*
Y535319D01*
X250213D01*
Y541650D01*
X247986D01*
Y568023D01*
X248448Y568214D01*
X254770Y561892D01*
Y541650D01*
X252543D01*
Y535319D01*
X260055D01*
Y541650D01*
X257829D01*
Y561009D01*
X258291Y561200D01*
X265006Y554485D01*
Y541650D01*
X262779D01*
Y535319D01*
X270291D01*
Y541650D01*
X268065D01*
Y555118D01*
X267948Y555703D01*
X267617Y556200D01*
X242868Y580948D01*
Y585824D01*
X243368Y586096D01*
X243996Y585971D01*
X247736D01*
X248472Y586117D01*
X249096Y586534D01*
X249098Y586538D01*
X254281D01*
X254866Y586654D01*
X255363Y586985D01*
X259774Y591397D01*
X260106Y591893D01*
X260222Y592479D01*
Y616107D01*
X267223Y623107D01*
X267555Y623604D01*
X267671Y624189D01*
Y654413D01*
X269898D01*
Y660284D01*
X269898Y660498D01*
X270314Y660801D01*
X270420Y660783D01*
X272622Y658581D01*
Y654413D01*
X280134D01*
Y660744D01*
X275189D01*
X275149Y660803D01*
X275417Y661303D01*
X280134D01*
Y667634D01*
X277907D01*
Y675091D01*
X278092Y675215D01*
X278618Y676001D01*
X278802Y676929D01*
X278618Y677857D01*
X278092Y678644D01*
X277306Y679169D01*
X276378Y679354D01*
X275450Y679169D01*
X274663Y678644D01*
X274138Y677857D01*
X273953Y676929D01*
X274138Y676001D01*
X274663Y675215D01*
X274849Y675091D01*
Y667634D01*
X272789D01*
Y677953D01*
X272673Y678538D01*
X272341Y679034D01*
X269979Y681396D01*
X269483Y681728D01*
X268898Y681844D01*
D02*
G37*
G36*
X327075Y637758D02*
Y635933D01*
X328900D01*
X328815Y636361D01*
X328289Y637148D01*
X327503Y637673D01*
X327075Y637758D01*
D02*
G37*
G36*
X326075D02*
X325647Y637673D01*
X324860Y637148D01*
X324335Y636361D01*
X324250Y635933D01*
X326075D01*
Y637758D01*
D02*
G37*
G36*
X467528Y637660D02*
Y635835D01*
X469353D01*
X469268Y636263D01*
X468742Y637049D01*
X467955Y637575D01*
X467528Y637660D01*
D02*
G37*
G36*
X466528D02*
X466100Y637575D01*
X465313Y637049D01*
X464788Y636263D01*
X464703Y635835D01*
X466528D01*
Y637660D01*
D02*
G37*
G36*
X328900Y634933D02*
X327075D01*
Y633108D01*
X327503Y633193D01*
X328289Y633719D01*
X328815Y634505D01*
X328900Y634933D01*
D02*
G37*
G36*
X326075D02*
X324250D01*
X324335Y634505D01*
X324860Y633719D01*
X325647Y633193D01*
X326075Y633108D01*
Y634933D01*
D02*
G37*
G36*
X469353Y634835D02*
X467528D01*
Y633010D01*
X467955Y633095D01*
X468742Y633620D01*
X469268Y634407D01*
X469353Y634835D01*
D02*
G37*
G36*
X466528D02*
X464703D01*
X464788Y634407D01*
X465313Y633620D01*
X466100Y633095D01*
X466528Y633010D01*
Y634835D01*
D02*
G37*
G36*
X197547Y620731D02*
Y618905D01*
X199372D01*
X199287Y619333D01*
X198762Y620120D01*
X197975Y620646D01*
X197547Y620731D01*
D02*
G37*
G36*
X196547D02*
X196119Y620646D01*
X195333Y620120D01*
X194807Y619333D01*
X194722Y618905D01*
X196547D01*
Y620731D01*
D02*
G37*
G36*
X199372Y617906D02*
X197547D01*
Y616080D01*
X197975Y616165D01*
X198762Y616691D01*
X199287Y617478D01*
X199372Y617906D01*
D02*
G37*
G36*
X196547D02*
X194722D01*
X194807Y617478D01*
X195333Y616691D01*
X196119Y616165D01*
X196547Y616080D01*
Y617906D01*
D02*
G37*
G36*
X597055Y616892D02*
Y615067D01*
X598880D01*
X598795Y615495D01*
X598270Y616281D01*
X597483Y616807D01*
X597055Y616892D01*
D02*
G37*
G36*
X596055D02*
X595627Y616807D01*
X594841Y616281D01*
X594315Y615495D01*
X594230Y615067D01*
X596055D01*
Y616892D01*
D02*
G37*
G36*
X598880Y614067D02*
X597055D01*
Y612242D01*
X597483Y612327D01*
X598270Y612852D01*
X598795Y613639D01*
X598880Y614067D01*
D02*
G37*
G36*
X596055D02*
X594230D01*
X594315Y613639D01*
X594841Y612852D01*
X595627Y612327D01*
X596055Y612242D01*
Y614067D01*
D02*
G37*
G36*
X544972Y681573D02*
X541461D01*
X540875Y681456D01*
X540379Y681125D01*
X538289Y679034D01*
X537957Y678538D01*
X537841Y677953D01*
Y627257D01*
X529474Y618890D01*
X529142Y618394D01*
X529026Y617809D01*
Y608316D01*
X528585Y608080D01*
X528487Y608146D01*
X527559Y608330D01*
X526631Y608146D01*
X525845Y607620D01*
X525655Y607337D01*
X524432D01*
X524063Y607584D01*
X523327Y607730D01*
X519587D01*
X518851Y607584D01*
X518227Y607167D01*
X517810Y606543D01*
X517809Y606536D01*
X517309Y606586D01*
Y649300D01*
X522029Y654020D01*
X527378D01*
Y660350D01*
X519866D01*
Y656183D01*
X518035Y654352D01*
X517535Y654559D01*
Y660350D01*
X510024D01*
Y654020D01*
X512250D01*
Y603543D01*
X512367Y602958D01*
X512698Y602462D01*
X515379Y599781D01*
X515682Y599579D01*
X515745Y599202D01*
X515741Y599034D01*
X515727Y598993D01*
X512119Y595385D01*
X511788Y594888D01*
X511671Y594303D01*
Y583505D01*
X511788Y582919D01*
X512119Y582423D01*
X522093Y572450D01*
Y543224D01*
X519866D01*
Y536894D01*
X527378D01*
Y543224D01*
X525151D01*
Y571566D01*
X525613Y571758D01*
X532329Y565042D01*
Y543224D01*
X530102D01*
Y536894D01*
X537614D01*
Y543224D01*
X535388D01*
Y564158D01*
X535850Y564350D01*
X542171Y558028D01*
Y543224D01*
X539945D01*
Y536894D01*
X547457D01*
Y543224D01*
X545230D01*
Y558661D01*
X545114Y559247D01*
X544782Y559743D01*
X518934Y585591D01*
X519156Y586005D01*
X519230Y586042D01*
X519587Y585971D01*
X523327D01*
X524063Y586117D01*
X524686Y586534D01*
X524689Y586538D01*
X527903D01*
X528488Y586654D01*
X528985Y586985D01*
X533637Y591637D01*
X533968Y592134D01*
X534085Y592719D01*
Y616347D01*
X544782Y627044D01*
X545114Y627541D01*
X545230Y628126D01*
Y654020D01*
X547457D01*
Y659811D01*
X547957Y660018D01*
X549787Y658187D01*
Y654020D01*
X557299D01*
Y660350D01*
X552354D01*
X552315Y660409D01*
X552582Y660910D01*
X557299D01*
Y667240D01*
X555073D01*
Y675327D01*
X555258Y675451D01*
X555783Y676237D01*
X555968Y677165D01*
X555783Y678093D01*
X555258Y678880D01*
X554471Y679405D01*
X553543Y679590D01*
X552615Y679405D01*
X551829Y678880D01*
X551303Y678093D01*
X551119Y677165D01*
X551303Y676237D01*
X551829Y675451D01*
X552014Y675327D01*
Y667240D01*
X550348D01*
Y676196D01*
X550232Y676781D01*
X549900Y677278D01*
X546053Y681125D01*
X545557Y681456D01*
X544972Y681573D01*
D02*
G37*
G36*
X564287Y616354D02*
X558350D01*
Y612580D01*
X553107Y607337D01*
X547661D01*
X547291Y607584D01*
X546555Y607730D01*
X542815D01*
X542079Y607584D01*
X541455Y607167D01*
X541039Y606543D01*
X540892Y605807D01*
X541039Y605071D01*
X541402Y604528D01*
X541039Y603984D01*
X540892Y603248D01*
X541039Y602512D01*
X541402Y601968D01*
X541039Y601425D01*
X540892Y600689D01*
X541039Y599953D01*
X541402Y599409D01*
X541039Y598866D01*
X540892Y598130D01*
X541039Y597394D01*
X541402Y596850D01*
X541039Y596307D01*
X540892Y595571D01*
X541039Y594835D01*
X541402Y594291D01*
X541039Y593748D01*
X540892Y593012D01*
X541039Y592276D01*
X541402Y591732D01*
X541039Y591189D01*
X540992Y590953D01*
X544685D01*
Y589953D01*
X540992D01*
X541039Y589717D01*
X541402Y589173D01*
X541039Y588629D01*
X540992Y588394D01*
X544685D01*
X548378D01*
X548331Y588629D01*
X547968Y589173D01*
X548331Y589717D01*
X548478Y590453D01*
X548446Y590613D01*
X548907Y590860D01*
X550242Y589524D01*
Y584858D01*
X548803D01*
Y578724D01*
X554740D01*
X555162Y578537D01*
Y519474D01*
X554721Y519238D01*
X554471Y519405D01*
X553543Y519590D01*
X552615Y519405D01*
X551829Y518880D01*
X551303Y518093D01*
X551119Y517165D01*
X551303Y516237D01*
X551829Y515451D01*
X552615Y514925D01*
X553543Y514741D01*
X554471Y514925D01*
X554721Y515093D01*
X555162Y514857D01*
Y503412D01*
X554977Y503288D01*
X554452Y502502D01*
X554267Y501574D01*
X554452Y500646D01*
X554977Y499859D01*
X555764Y499334D01*
X556692Y499149D01*
X557620Y499334D01*
X557872Y499503D01*
X558313Y499267D01*
Y423468D01*
X532437Y397592D01*
X520736Y397592D01*
X520612Y397777D01*
X519825Y398303D01*
X518898Y398487D01*
X517970Y398303D01*
X517183Y397777D01*
X516658Y396991D01*
X516473Y396063D01*
X516658Y395135D01*
X517183Y394349D01*
X517970Y393823D01*
X518898Y393638D01*
X519825Y393823D01*
X520612Y394349D01*
X520736Y394534D01*
X533071Y394534D01*
X533656Y394650D01*
X534152Y394982D01*
X560924Y421753D01*
X561256Y422249D01*
X561372Y422835D01*
Y439883D01*
X561872Y439932D01*
X561933Y439623D01*
X562459Y438837D01*
X563245Y438311D01*
X564173Y438127D01*
X565101Y438311D01*
X565888Y438837D01*
X566413Y439623D01*
X566475Y439932D01*
X566975Y439883D01*
X566975Y427035D01*
X566789Y426911D01*
X566264Y426125D01*
X566079Y425197D01*
X566264Y424269D01*
X566789Y423482D01*
X567576Y422957D01*
X568504Y422772D01*
X569432Y422957D01*
X570218Y423482D01*
X570744Y424269D01*
X570928Y425197D01*
X570744Y426125D01*
X570218Y426911D01*
X570033Y427035D01*
X570033Y587500D01*
X569917Y588085D01*
X569585Y588582D01*
X554257Y603910D01*
X554418Y604456D01*
X554822Y604726D01*
X560316Y610220D01*
X564287D01*
Y616354D01*
D02*
G37*
G36*
X285941Y614386D02*
X280004D01*
Y610513D01*
X276827Y607337D01*
X272070D01*
X271700Y607584D01*
X270965Y607730D01*
X267224D01*
X266489Y607584D01*
X265865Y607167D01*
X265448Y606543D01*
X265302Y605807D01*
X265448Y605071D01*
X265811Y604528D01*
X265448Y603984D01*
X265302Y603248D01*
X265448Y602512D01*
X265811Y601968D01*
X265448Y601425D01*
X265302Y600689D01*
X265448Y599953D01*
X265811Y599409D01*
X265448Y598866D01*
X265302Y598130D01*
X265448Y597394D01*
X265811Y596850D01*
X265448Y596307D01*
X265302Y595571D01*
X265448Y594835D01*
X265811Y594291D01*
X265448Y593748D01*
X265302Y593012D01*
X265448Y592276D01*
X265811Y591732D01*
X265448Y591189D01*
X265401Y590953D01*
X269094D01*
Y589953D01*
X265401D01*
X265448Y589717D01*
X265811Y589173D01*
X265448Y588629D01*
X265401Y588394D01*
X269094D01*
Y587894D01*
X269595D01*
Y585971D01*
X270965D01*
X271700Y586117D01*
X272324Y586534D01*
X272741Y587158D01*
X272774Y587323D01*
X273274Y587274D01*
Y583677D01*
X271835D01*
Y577543D01*
X277727D01*
Y519422D01*
X277226Y519185D01*
X276378Y519354D01*
X275450Y519169D01*
X274663Y518644D01*
X274138Y517857D01*
X273953Y516929D01*
X274138Y516001D01*
X274663Y515215D01*
X275450Y514689D01*
X276378Y514505D01*
X277226Y514673D01*
X277727Y514436D01*
Y494459D01*
X277481Y494295D01*
X276955Y493509D01*
X276770Y492581D01*
X276955Y491653D01*
X277481Y490866D01*
X278267Y490341D01*
X279195Y490156D01*
X280123Y490341D01*
X280909Y490866D01*
X281435Y491653D01*
X281435Y491654D01*
X281935Y491605D01*
X281935Y464830D01*
X281750Y464707D01*
X281225Y463920D01*
X281040Y462992D01*
X281225Y462064D01*
X281750Y461278D01*
X282537Y460752D01*
X283465Y460568D01*
X284392Y460752D01*
X285179Y461278D01*
X285705Y462064D01*
X285889Y462992D01*
X285705Y463920D01*
X285179Y464707D01*
X284994Y464830D01*
X284994Y496455D01*
X285494Y496606D01*
X285687Y496317D01*
X286474Y495791D01*
X287402Y495607D01*
X288329Y495791D01*
X289116Y496317D01*
X289309Y496606D01*
X289809Y496455D01*
Y457350D01*
X289624Y457226D01*
X289099Y456440D01*
X288914Y455512D01*
X289099Y454584D01*
X289624Y453797D01*
X289913Y453604D01*
X289762Y453104D01*
X230715D01*
X219352Y464467D01*
X218856Y464799D01*
X218359Y464898D01*
X218408Y465398D01*
X219458D01*
Y470051D01*
X249059Y499652D01*
X271390D01*
X271514Y499467D01*
X272301Y498941D01*
X273228Y498757D01*
X274156Y498941D01*
X274943Y499467D01*
X275468Y500253D01*
X275653Y501181D01*
X275468Y502109D01*
X274943Y502895D01*
X274156Y503421D01*
X273228Y503606D01*
X272301Y503421D01*
X271514Y502895D01*
X271390Y502710D01*
X248425D01*
X247840Y502594D01*
X247344Y502262D01*
X217479Y472398D01*
X205962D01*
Y465415D01*
X205962Y465398D01*
X205920Y464915D01*
X204177D01*
X201230Y467862D01*
Y472398D01*
X187734D01*
Y465398D01*
X199369D01*
X202462Y462304D01*
X202958Y461973D01*
X203543Y461856D01*
X217637D01*
X218445Y461049D01*
X218254Y460587D01*
X205962D01*
Y453587D01*
X217479D01*
X223798Y447267D01*
X223607Y446805D01*
X219458D01*
Y448776D01*
X205962D01*
X205962Y441776D01*
X205499Y441687D01*
X203783D01*
X201230Y444240D01*
Y448776D01*
X187734D01*
Y441776D01*
X199369D01*
X202068Y439076D01*
X202564Y438744D01*
X203150Y438628D01*
X241493D01*
X281915Y398206D01*
X295785Y384336D01*
X295593Y383874D01*
X294079D01*
Y378331D01*
X296662D01*
X299652Y375341D01*
X300308Y374903D01*
X301083Y374748D01*
X356642D01*
X379571Y351820D01*
Y341677D01*
X386571D01*
Y347352D01*
X387071Y347401D01*
X387130Y347104D01*
X387656Y346317D01*
X388442Y345792D01*
X389370Y345607D01*
X390298Y345792D01*
X390622Y346008D01*
X391382D01*
Y341677D01*
X398382D01*
Y347352D01*
X398882Y347401D01*
X398941Y347104D01*
X399467Y346317D01*
X400253Y345792D01*
X401181Y345607D01*
X402109Y345792D01*
X402433Y346008D01*
X403291D01*
Y341677D01*
X410291D01*
Y355173D01*
X403291D01*
Y350055D01*
X402433D01*
X402109Y350272D01*
X401181Y350456D01*
X400253Y350272D01*
X399467Y349746D01*
X398941Y348959D01*
X398882Y348662D01*
X398382Y348711D01*
Y355173D01*
X391382D01*
Y350055D01*
X390622D01*
X390298Y350272D01*
X389370Y350456D01*
X388442Y350272D01*
X387656Y349746D01*
X387130Y348959D01*
X387071Y348662D01*
X386571Y348711D01*
Y355173D01*
X385094D01*
Y492126D01*
X384940Y492900D01*
X384501Y493556D01*
X377377Y500680D01*
Y515677D01*
X377594Y516001D01*
X377779Y516929D01*
X377594Y517857D01*
X377069Y518644D01*
X376282Y519169D01*
X375354Y519354D01*
X374427Y519169D01*
X373640Y518644D01*
X373114Y517857D01*
X372930Y516929D01*
X373114Y516001D01*
X373331Y515677D01*
Y499843D01*
X373485Y499068D01*
X373924Y498412D01*
X381048Y491288D01*
Y356719D01*
X380586Y356527D01*
X358911Y378202D01*
X358255Y378641D01*
X357480Y378795D01*
X301921D01*
X299425Y381290D01*
Y383036D01*
X350998D01*
X351122Y382851D01*
X351909Y382325D01*
X352836Y382140D01*
X353764Y382325D01*
X354551Y382851D01*
X355077Y383637D01*
X355261Y384565D01*
X355077Y385493D01*
X354551Y386279D01*
X353764Y386805D01*
X352836Y386990D01*
X351909Y386805D01*
X351122Y386279D01*
X350998Y386094D01*
X298352D01*
X284078Y400369D01*
X284078Y400369D01*
X243207Y441239D01*
X242711Y441570D01*
X242126Y441687D01*
X219921D01*
X219458Y441776D01*
X219458Y442187D01*
Y443746D01*
X296059D01*
X301695Y438110D01*
X301503Y437646D01*
X301367Y436614D01*
X301503Y435582D01*
X301902Y434621D01*
X302535Y433795D01*
X303361Y433161D01*
X304322Y432763D01*
X305354Y432627D01*
X306386Y432763D01*
X307348Y433161D01*
X308173Y433795D01*
X308233Y433873D01*
X308707Y433712D01*
Y432130D01*
X306850Y430273D01*
X306386Y430465D01*
X305354Y430601D01*
X304322Y430465D01*
X303361Y430067D01*
X302535Y429433D01*
X301902Y428608D01*
X301503Y427646D01*
X301367Y426614D01*
X301503Y425582D01*
X301902Y424621D01*
X302535Y423795D01*
X302706Y423664D01*
X302562Y423144D01*
X302171Y423067D01*
X301674Y422735D01*
X297344Y418404D01*
X297012Y417908D01*
X296896Y417323D01*
Y396282D01*
X296711Y396159D01*
X296185Y395372D01*
X296001Y394444D01*
X296185Y393516D01*
X296711Y392730D01*
X297497Y392204D01*
X298425Y392020D01*
X299353Y392204D01*
X300140Y392730D01*
X300665Y393516D01*
X300850Y394444D01*
X300665Y395372D01*
X300140Y396159D01*
X299955Y396282D01*
Y416689D01*
X301041Y417776D01*
X301082Y417765D01*
X301486Y417514D01*
X301367Y416614D01*
X301503Y415582D01*
X301902Y414621D01*
X302535Y413795D01*
X303361Y413161D01*
X304322Y412763D01*
X305354Y412627D01*
X306386Y412763D01*
X306850Y412955D01*
X309470Y410336D01*
X309966Y410004D01*
X310551Y409888D01*
X312381D01*
X312425Y409757D01*
X312500Y409388D01*
X311902Y408608D01*
X311503Y407646D01*
X311368Y406614D01*
X311503Y405582D01*
X311902Y404621D01*
X312535Y403795D01*
X313361Y403161D01*
X314322Y402763D01*
X315354Y402627D01*
X316386Y402763D01*
X317348Y403161D01*
X318174Y403795D01*
X318807Y404621D01*
X319205Y405582D01*
X319341Y406614D01*
X319294Y406969D01*
X319768Y407203D01*
X321937Y405034D01*
X321908Y404470D01*
X321382Y403684D01*
X321198Y402756D01*
X321382Y401828D01*
X321908Y401042D01*
X322694Y400516D01*
X323622Y400331D01*
X324550Y400516D01*
X325337Y401042D01*
X325862Y401828D01*
X326047Y402756D01*
X325862Y403684D01*
X325337Y404470D01*
X325151Y404594D01*
Y405512D01*
X325035Y406097D01*
X324704Y406593D01*
X318798Y412499D01*
X318302Y412830D01*
X317854Y412919D01*
X317718Y413280D01*
X317719Y413446D01*
X318174Y413795D01*
X318807Y414621D01*
X319205Y415582D01*
X319341Y416614D01*
X319205Y417646D01*
X318807Y418608D01*
X318174Y419433D01*
X317925Y419624D01*
X318094Y420124D01*
X318110D01*
X318695Y420241D01*
X319192Y420572D01*
X322735Y424115D01*
X323066Y424612D01*
X323183Y425197D01*
Y429264D01*
X323368Y429388D01*
X323893Y430174D01*
X324078Y431102D01*
X323893Y432030D01*
X323368Y432817D01*
X322581Y433342D01*
X321654Y433527D01*
X320726Y433342D01*
X319939Y432817D01*
X319414Y432030D01*
X319229Y431102D01*
X319414Y430174D01*
X319939Y429388D01*
X320124Y429264D01*
Y425830D01*
X319760Y425467D01*
X319248Y425585D01*
X319211Y425624D01*
X319341Y426614D01*
X319205Y427646D01*
X318807Y428608D01*
X318174Y429433D01*
X317348Y430067D01*
X316386Y430465D01*
X315354Y430601D01*
X314322Y430465D01*
X313361Y430067D01*
X312535Y429433D01*
X311902Y428608D01*
X311503Y427646D01*
X311368Y426614D01*
X311503Y425582D01*
X311902Y424621D01*
X312535Y423795D01*
X312716Y423656D01*
X312555Y423183D01*
X308154D01*
X307993Y423656D01*
X308173Y423795D01*
X308807Y424621D01*
X309205Y425582D01*
X309341Y426614D01*
X309205Y427646D01*
X309013Y428110D01*
X311318Y430415D01*
X311649Y430911D01*
X311766Y431496D01*
Y433977D01*
X312266Y434146D01*
X312535Y433795D01*
X313361Y433161D01*
X314322Y432763D01*
X315354Y432627D01*
X316386Y432763D01*
X317348Y433161D01*
X318174Y433795D01*
X318807Y434621D01*
X319205Y435582D01*
X319341Y436614D01*
X319205Y437646D01*
X318807Y438608D01*
X318174Y439433D01*
X317348Y440067D01*
X316386Y440465D01*
X315354Y440601D01*
X314322Y440465D01*
X313361Y440067D01*
X312535Y439433D01*
X312076Y438835D01*
X311489Y438854D01*
X311318Y439111D01*
X308280Y442148D01*
X307784Y442480D01*
X307702Y442496D01*
X307328Y443069D01*
X307348Y443161D01*
X308173Y443795D01*
X308807Y444621D01*
X309205Y445582D01*
X309341Y446614D01*
X309205Y447646D01*
X308807Y448608D01*
X308173Y449433D01*
X307993Y449572D01*
X308154Y450045D01*
X309760D01*
X311696Y448110D01*
X311503Y447646D01*
X311368Y446614D01*
X311503Y445582D01*
X311902Y444621D01*
X312535Y443795D01*
X313361Y443161D01*
X314322Y442763D01*
X315354Y442627D01*
X316386Y442763D01*
X317348Y443161D01*
X318174Y443795D01*
X318807Y444621D01*
X319205Y445582D01*
X319341Y446614D01*
X319205Y447646D01*
X318807Y448608D01*
X318174Y449433D01*
X317348Y450067D01*
X316386Y450465D01*
X315354Y450601D01*
X314322Y450465D01*
X313858Y450273D01*
X311475Y452656D01*
X310979Y452988D01*
X310394Y453104D01*
X308095D01*
X307925Y453604D01*
X308173Y453795D01*
X308807Y454621D01*
X309205Y455582D01*
X309341Y456614D01*
X309205Y457646D01*
X308807Y458608D01*
X308173Y459433D01*
X307348Y460067D01*
X306386Y460465D01*
X305354Y460601D01*
X304322Y460465D01*
X303361Y460067D01*
X302535Y459433D01*
X301902Y458608D01*
X301503Y457646D01*
X301367Y456614D01*
X301503Y455582D01*
X301902Y454621D01*
X302535Y453795D01*
X302784Y453604D01*
X302614Y453104D01*
X292916D01*
X292764Y453604D01*
X293053Y453797D01*
X293579Y454584D01*
X293763Y455512D01*
X293579Y456440D01*
X293053Y457226D01*
X292868Y457350D01*
X292868Y588091D01*
X292752Y588676D01*
X292420Y589172D01*
X277764Y603828D01*
X277928Y604371D01*
X278046Y604394D01*
X278542Y604726D01*
X282068Y608252D01*
X285941D01*
Y614386D01*
D02*
G37*
G36*
X548378Y587394D02*
X545185D01*
Y585971D01*
X546555D01*
X547291Y586117D01*
X547915Y586534D01*
X548331Y587158D01*
X548378Y587394D01*
D02*
G37*
G36*
X544185D02*
X540992D01*
X541039Y587158D01*
X541455Y586534D01*
X542079Y586117D01*
X542815Y585971D01*
X544185D01*
Y587394D01*
D02*
G37*
G36*
X268595D02*
X265401D01*
X265448Y587158D01*
X265865Y586534D01*
X266489Y586117D01*
X267224Y585971D01*
X268595D01*
Y587394D01*
D02*
G37*
G36*
X262114Y587660D02*
Y585835D01*
X263939D01*
X263854Y586263D01*
X263329Y587049D01*
X262542Y587575D01*
X262114Y587660D01*
D02*
G37*
G36*
X261114D02*
X260686Y587575D01*
X259900Y587049D01*
X259374Y586263D01*
X259289Y585835D01*
X261114D01*
Y587660D01*
D02*
G37*
G36*
X538689Y586774D02*
Y584949D01*
X540514D01*
X540429Y585377D01*
X539903Y586163D01*
X539117Y586689D01*
X538689Y586774D01*
D02*
G37*
G36*
X537689D02*
X537261Y586689D01*
X536475Y586163D01*
X535949Y585377D01*
X535864Y584949D01*
X537689D01*
Y586774D01*
D02*
G37*
G36*
X263939Y584835D02*
X262114D01*
Y583010D01*
X262542Y583095D01*
X263329Y583620D01*
X263854Y584407D01*
X263939Y584835D01*
D02*
G37*
G36*
X261114D02*
X259289D01*
X259374Y584407D01*
X259900Y583620D01*
X260686Y583095D01*
X261114Y583010D01*
Y584835D01*
D02*
G37*
G36*
X540514Y583949D02*
X538689D01*
Y582124D01*
X539117Y582209D01*
X539903Y582734D01*
X540429Y583521D01*
X540514Y583949D01*
D02*
G37*
G36*
X537689D02*
X535864D01*
X535949Y583521D01*
X536475Y582734D01*
X537261Y582209D01*
X537689Y582124D01*
Y583949D01*
D02*
G37*
G36*
X197547Y554097D02*
Y552272D01*
X199372D01*
X199287Y552700D01*
X198762Y553486D01*
X197975Y554012D01*
X197547Y554097D01*
D02*
G37*
G36*
X196547D02*
X196119Y554012D01*
X195333Y553486D01*
X194807Y552700D01*
X194722Y552272D01*
X196547D01*
Y554097D01*
D02*
G37*
G36*
X199372Y551272D02*
X197547D01*
Y549447D01*
X197975Y549532D01*
X198762Y550057D01*
X199287Y550844D01*
X199372Y551272D01*
D02*
G37*
G36*
X196547D02*
X194722D01*
X194807Y550844D01*
X195333Y550057D01*
X196119Y549532D01*
X196547Y549447D01*
Y551272D01*
D02*
G37*
G36*
X547457Y536335D02*
X539945D01*
Y530004D01*
X542171D01*
Y519109D01*
X541829Y518880D01*
X541303Y518093D01*
X541119Y517165D01*
X541303Y516237D01*
X541829Y515451D01*
X542616Y514925D01*
X543543Y514741D01*
X544471Y514925D01*
X545258Y515451D01*
X545783Y516237D01*
X545968Y517165D01*
X545783Y518093D01*
X545258Y518880D01*
X545230Y518898D01*
Y530004D01*
X547457D01*
Y536335D01*
D02*
G37*
G36*
X537614D02*
X530102D01*
Y530004D01*
X532250D01*
Y519161D01*
X531829Y518880D01*
X531303Y518093D01*
X531119Y517165D01*
X531303Y516237D01*
X531829Y515451D01*
X532616Y514925D01*
X533543Y514741D01*
X534471Y514925D01*
X535258Y515451D01*
X535783Y516237D01*
X535968Y517165D01*
X535783Y518093D01*
X535309Y518803D01*
Y530004D01*
X537614D01*
Y536335D01*
D02*
G37*
G36*
X527378D02*
X519866D01*
Y530004D01*
X522093D01*
Y519056D01*
X521829Y518880D01*
X521303Y518093D01*
X521119Y517165D01*
X521303Y516237D01*
X521829Y515451D01*
X522615Y514925D01*
X523543Y514741D01*
X524471Y514925D01*
X525258Y515451D01*
X525783Y516237D01*
X525968Y517165D01*
X525783Y518093D01*
X525258Y518880D01*
X525151Y518951D01*
Y530004D01*
X527378D01*
Y536335D01*
D02*
G37*
G36*
X513543Y519590D02*
X512615Y519405D01*
X511829Y518880D01*
X511303Y518093D01*
X511119Y517165D01*
X511303Y516237D01*
X511829Y515451D01*
X512615Y514925D01*
X513543Y514741D01*
X514471Y514925D01*
X515258Y515451D01*
X515783Y516237D01*
X515968Y517165D01*
X515783Y518093D01*
X515258Y518880D01*
X514471Y519405D01*
X513543Y519590D01*
D02*
G37*
G36*
X399425Y534366D02*
X391913D01*
Y528035D01*
X393825D01*
Y518767D01*
X393640Y518644D01*
X393114Y517857D01*
X392930Y516929D01*
X393114Y516001D01*
X393640Y515215D01*
X394426Y514689D01*
X395354Y514505D01*
X396282Y514689D01*
X397069Y515215D01*
X397594Y516001D01*
X397779Y516929D01*
X397594Y517857D01*
X397069Y518644D01*
X396884Y518767D01*
Y528035D01*
X399425D01*
Y534366D01*
D02*
G37*
G36*
X389189D02*
X381677D01*
Y528035D01*
X383825D01*
Y518767D01*
X383640Y518644D01*
X383114Y517857D01*
X382930Y516929D01*
X383114Y516001D01*
X383640Y515215D01*
X384426Y514689D01*
X385354Y514505D01*
X386282Y514689D01*
X387069Y515215D01*
X387594Y516001D01*
X387779Y516929D01*
X387594Y517857D01*
X387069Y518644D01*
X386884Y518767D01*
Y528035D01*
X389189D01*
Y534366D01*
D02*
G37*
G36*
X270291Y534760D02*
X262779D01*
Y528429D01*
X264849D01*
Y518767D01*
X264664Y518644D01*
X264138Y517857D01*
X263953Y516929D01*
X264138Y516001D01*
X264664Y515215D01*
X265450Y514689D01*
X266378Y514505D01*
X267306Y514689D01*
X268092Y515215D01*
X268618Y516001D01*
X268802Y516929D01*
X268618Y517857D01*
X268092Y518644D01*
X267907Y518767D01*
Y528429D01*
X270291D01*
Y534760D01*
D02*
G37*
G36*
X260055D02*
X252543D01*
Y528429D01*
X254849D01*
Y518767D01*
X254663Y518644D01*
X254138Y517857D01*
X253953Y516929D01*
X254138Y516001D01*
X254663Y515215D01*
X255450Y514689D01*
X256378Y514505D01*
X257306Y514689D01*
X258092Y515215D01*
X258618Y516001D01*
X258803Y516929D01*
X258618Y517857D01*
X258092Y518644D01*
X257907Y518767D01*
Y528429D01*
X260055D01*
Y534760D01*
D02*
G37*
G36*
X250213D02*
X242701D01*
Y528429D01*
X244849D01*
Y518767D01*
X244664Y518644D01*
X244138Y517857D01*
X243953Y516929D01*
X244138Y516001D01*
X244664Y515215D01*
X245450Y514689D01*
X246378Y514505D01*
X247306Y514689D01*
X248092Y515215D01*
X248618Y516001D01*
X248802Y516929D01*
X248618Y517857D01*
X248092Y518644D01*
X247907Y518767D01*
Y528429D01*
X250213D01*
Y534760D01*
D02*
G37*
G36*
X236378Y519354D02*
X235450Y519169D01*
X234664Y518644D01*
X234138Y517857D01*
X233953Y516929D01*
X234138Y516001D01*
X234664Y515215D01*
X235450Y514689D01*
X236378Y514505D01*
X237306Y514689D01*
X238092Y515215D01*
X238618Y516001D01*
X238803Y516929D01*
X238618Y517857D01*
X238092Y518644D01*
X237306Y519169D01*
X236378Y519354D01*
D02*
G37*
G36*
X356614Y510299D02*
X355686Y510114D01*
X354900Y509588D01*
X354374Y508802D01*
X354190Y507874D01*
X354233Y507656D01*
X316850Y470273D01*
X316386Y470465D01*
X315354Y470601D01*
X314322Y470465D01*
X313361Y470067D01*
X312535Y469433D01*
X311902Y468608D01*
X311503Y467646D01*
X311368Y466614D01*
X311503Y465582D01*
X311902Y464621D01*
X312535Y463795D01*
X313361Y463161D01*
X314322Y462763D01*
X315354Y462627D01*
X316386Y462763D01*
X317348Y463161D01*
X318174Y463795D01*
X318807Y464621D01*
X319205Y465582D01*
X319341Y466614D01*
X319205Y467646D01*
X319013Y468110D01*
X356396Y505493D01*
X356614Y505449D01*
X357542Y505634D01*
X358329Y506160D01*
X358854Y506946D01*
X359039Y507874D01*
X358854Y508802D01*
X358329Y509588D01*
X357542Y510114D01*
X356614Y510299D01*
D02*
G37*
G36*
X345276Y513448D02*
X344348Y513264D01*
X343561Y512738D01*
X343438Y512553D01*
X333467D01*
X332881Y512437D01*
X332385Y512105D01*
X309199Y488919D01*
X308535Y488962D01*
X308173Y489433D01*
X307348Y490067D01*
X306386Y490465D01*
X305854Y490535D01*
Y486614D01*
Y482693D01*
X306386Y482763D01*
X307348Y483161D01*
X307813Y483519D01*
X308313Y483272D01*
Y481736D01*
X306850Y480273D01*
X306386Y480465D01*
X305354Y480601D01*
X304322Y480465D01*
X303361Y480067D01*
X302535Y479433D01*
X301902Y478608D01*
X301503Y477646D01*
X301367Y476614D01*
X301503Y475582D01*
X301902Y474621D01*
X302535Y473795D01*
X303361Y473161D01*
X304322Y472763D01*
X305354Y472627D01*
X306386Y472763D01*
X307348Y473161D01*
X308173Y473795D01*
X308807Y474621D01*
X309205Y475582D01*
X309341Y476614D01*
X309205Y477646D01*
X309013Y478110D01*
X310924Y480021D01*
X311256Y480517D01*
X311372Y481102D01*
Y484593D01*
X311872Y484692D01*
X311902Y484621D01*
X312535Y483795D01*
X313361Y483161D01*
X314322Y482763D01*
X315354Y482627D01*
X316386Y482763D01*
X317348Y483161D01*
X318174Y483795D01*
X318807Y484621D01*
X319205Y485582D01*
X319341Y486614D01*
X319205Y487646D01*
X319013Y488110D01*
X330161Y499258D01*
X330839D01*
X330963Y499073D01*
X331749Y498547D01*
X332677Y498363D01*
X333605Y498547D01*
X334392Y499073D01*
X334917Y499860D01*
X335102Y500787D01*
X334917Y501715D01*
X334392Y502502D01*
X333605Y503027D01*
X332677Y503212D01*
X331749Y503027D01*
X330963Y502502D01*
X330839Y502317D01*
X329528D01*
X328942Y502200D01*
X328446Y501869D01*
X316850Y490273D01*
X316386Y490465D01*
X315849Y490536D01*
X315670Y491064D01*
X334100Y509494D01*
X343438D01*
X343561Y509309D01*
X343951Y509049D01*
X343953Y508814D01*
X343884Y508492D01*
X343167Y508014D01*
X342642Y507227D01*
X342457Y506299D01*
X342527Y505950D01*
X316850Y480273D01*
X316386Y480465D01*
X315354Y480601D01*
X314322Y480465D01*
X313361Y480067D01*
X312535Y479433D01*
X311902Y478608D01*
X311503Y477646D01*
X311368Y476614D01*
X311503Y475582D01*
X311902Y474621D01*
X312535Y473795D01*
X313361Y473161D01*
X314322Y472763D01*
X315354Y472627D01*
X316386Y472763D01*
X317348Y473161D01*
X318174Y473795D01*
X318807Y474621D01*
X319205Y475582D01*
X319341Y476614D01*
X319205Y477646D01*
X319013Y478110D01*
X344795Y503892D01*
X344882Y503875D01*
X345810Y504059D01*
X346596Y504585D01*
X347122Y505371D01*
X347306Y506299D01*
X347122Y507227D01*
X346596Y508014D01*
X346206Y508274D01*
X346205Y508508D01*
X346274Y508831D01*
X346990Y509309D01*
X347516Y510096D01*
X347700Y511024D01*
X347516Y511951D01*
X346990Y512738D01*
X346203Y513264D01*
X345276Y513448D01*
D02*
G37*
G36*
X404240Y493959D02*
Y492134D01*
X406065D01*
X405980Y492562D01*
X405455Y493348D01*
X404668Y493874D01*
X404240Y493959D01*
D02*
G37*
G36*
X403240D02*
X402812Y493874D01*
X402026Y493348D01*
X401500Y492562D01*
X401415Y492134D01*
X403240D01*
Y493959D01*
D02*
G37*
G36*
X406065Y491134D02*
X404240D01*
Y489309D01*
X404668Y489394D01*
X405455Y489919D01*
X405980Y490706D01*
X406065Y491134D01*
D02*
G37*
G36*
X403240D02*
X401415D01*
X401500Y490706D01*
X402026Y489919D01*
X402812Y489394D01*
X403240Y489309D01*
Y491134D01*
D02*
G37*
G36*
X304854Y490535D02*
X304322Y490465D01*
X303361Y490067D01*
X302535Y489433D01*
X301902Y488608D01*
X301503Y487646D01*
X301433Y487114D01*
X304854D01*
Y490535D01*
D02*
G37*
G36*
X616968Y496148D02*
X615469Y495951D01*
X614072Y495372D01*
X612872Y494451D01*
X611951Y493251D01*
X611372Y491854D01*
X611175Y490354D01*
X611372Y488855D01*
X611951Y487458D01*
X612872Y486258D01*
X614072Y485337D01*
X615469Y484758D01*
X616968Y484561D01*
X618468Y484758D01*
X619865Y485337D01*
X621065Y486258D01*
X621986Y487458D01*
X622565Y488855D01*
X622762Y490354D01*
X622565Y491854D01*
X621986Y493251D01*
X621065Y494451D01*
X619865Y495372D01*
X618468Y495951D01*
X616968Y496148D01*
D02*
G37*
G36*
X304854Y486114D02*
X301433D01*
X301503Y485582D01*
X301902Y484621D01*
X302535Y483795D01*
X303361Y483161D01*
X304322Y482763D01*
X304854Y482693D01*
Y486114D01*
D02*
G37*
G36*
X485354Y490601D02*
X484323Y490465D01*
X483361Y490067D01*
X482535Y489433D01*
X481902Y488608D01*
X481503Y487646D01*
X481367Y486614D01*
X481503Y485582D01*
X481902Y484621D01*
X482535Y483795D01*
X483361Y483161D01*
X484323Y482763D01*
X485354Y482627D01*
X486386Y482763D01*
X487348Y483161D01*
X488173Y483795D01*
X488807Y484621D01*
X489205Y485582D01*
X489341Y486614D01*
X489205Y487646D01*
X488807Y488608D01*
X488173Y489433D01*
X487348Y490067D01*
X486386Y490465D01*
X485354Y490601D01*
D02*
G37*
G36*
X475197Y519354D02*
X474269Y519169D01*
X473482Y518644D01*
X472957Y517857D01*
X472772Y516929D01*
X472957Y516001D01*
X473174Y515677D01*
Y489923D01*
X472535Y489433D01*
X471902Y488608D01*
X471503Y487646D01*
X471368Y486614D01*
X471503Y485582D01*
X471902Y484621D01*
X472535Y483795D01*
X473361Y483161D01*
X474323Y482763D01*
X475354Y482627D01*
X476386Y482763D01*
X477348Y483161D01*
X478173Y483795D01*
X478807Y484621D01*
X479205Y485582D01*
X479341Y486614D01*
X479205Y487646D01*
X478807Y488608D01*
X478173Y489433D01*
X477348Y490067D01*
X477220Y490120D01*
Y515677D01*
X477437Y516001D01*
X477621Y516929D01*
X477437Y517857D01*
X476911Y518644D01*
X476125Y519169D01*
X475197Y519354D01*
D02*
G37*
G36*
X584307Y485390D02*
X578059D01*
Y482390D01*
X584307D01*
Y485390D01*
D02*
G37*
G36*
X577059D02*
X570811D01*
Y482390D01*
X577059D01*
Y485390D01*
D02*
G37*
G36*
X469004Y480672D02*
Y478847D01*
X470829D01*
X470744Y479274D01*
X470218Y480061D01*
X469432Y480586D01*
X469004Y480672D01*
D02*
G37*
G36*
X468004D02*
X467576Y480586D01*
X466789Y480061D01*
X466264Y479274D01*
X466179Y478847D01*
X468004D01*
Y480672D01*
D02*
G37*
G36*
X529043Y480278D02*
Y478453D01*
X530868D01*
X530783Y478881D01*
X530258Y479667D01*
X529471Y480193D01*
X529043Y480278D01*
D02*
G37*
G36*
X528043D02*
X527615Y480193D01*
X526829Y479667D01*
X526303Y478881D01*
X526218Y478453D01*
X528043D01*
Y480278D01*
D02*
G37*
G36*
X595669Y493369D02*
X594741Y493185D01*
X593955Y492659D01*
X593429Y491873D01*
X593245Y490945D01*
X593429Y490017D01*
X593764Y489516D01*
Y485390D01*
X589039D01*
Y478390D01*
X602535D01*
Y485390D01*
X597811D01*
Y489869D01*
X597909Y490017D01*
X598094Y490945D01*
X597909Y491873D01*
X597384Y492659D01*
X596597Y493185D01*
X595669Y493369D01*
D02*
G37*
G36*
X584307Y481390D02*
X578059D01*
Y478390D01*
X584307D01*
Y481390D01*
D02*
G37*
G36*
X577059D02*
X570811D01*
Y478390D01*
X577059D01*
Y481390D01*
D02*
G37*
G36*
X212598Y489039D02*
X211671Y488854D01*
X210884Y488329D01*
X210358Y487542D01*
X210174Y486614D01*
X210358Y485686D01*
X210884Y484900D01*
X211187Y484697D01*
Y484209D01*
X205962D01*
Y477209D01*
X219458D01*
Y484209D01*
X214246D01*
Y484855D01*
X214313Y484900D01*
X214838Y485686D01*
X215023Y486614D01*
X214838Y487542D01*
X214313Y488329D01*
X213526Y488854D01*
X212598Y489039D01*
D02*
G37*
G36*
X475854Y480535D02*
Y477114D01*
X479275D01*
X479205Y477646D01*
X478807Y478608D01*
X478173Y479433D01*
X477348Y480067D01*
X476386Y480465D01*
X475854Y480535D01*
D02*
G37*
G36*
X474854Y480535D02*
X474323Y480465D01*
X473361Y480067D01*
X472535Y479433D01*
X471902Y478608D01*
X471503Y477646D01*
X471433Y477114D01*
X474854D01*
Y480535D01*
D02*
G37*
G36*
X470829Y477846D02*
X469004D01*
Y476021D01*
X469432Y476107D01*
X470218Y476632D01*
X470744Y477419D01*
X470829Y477846D01*
D02*
G37*
G36*
X468004D02*
X466179D01*
X466264Y477419D01*
X466789Y476632D01*
X467576Y476107D01*
X468004Y476021D01*
Y477846D01*
D02*
G37*
G36*
X530868Y477453D02*
X529043D01*
Y475628D01*
X529471Y475713D01*
X530258Y476238D01*
X530783Y477025D01*
X530868Y477453D01*
D02*
G37*
G36*
X528043D02*
X526218D01*
X526303Y477025D01*
X526829Y476238D01*
X527615Y475713D01*
X528043Y475628D01*
Y477453D01*
D02*
G37*
G36*
X253059Y474668D02*
Y472843D01*
X254884D01*
X254799Y473270D01*
X254274Y474057D01*
X253487Y474582D01*
X253059Y474668D01*
D02*
G37*
G36*
X252059D02*
X251631Y474582D01*
X250845Y474057D01*
X250319Y473270D01*
X250234Y472843D01*
X252059D01*
Y474668D01*
D02*
G37*
G36*
X485354Y480601D02*
X484323Y480465D01*
X483361Y480067D01*
X482535Y479433D01*
X481902Y478608D01*
X481503Y477646D01*
X481367Y476614D01*
X481503Y475582D01*
X481902Y474621D01*
X482535Y473795D01*
X483361Y473161D01*
X484323Y472763D01*
X485354Y472627D01*
X486386Y472763D01*
X487348Y473161D01*
X488173Y473795D01*
X488807Y474621D01*
X489205Y475582D01*
X489341Y476614D01*
X489205Y477646D01*
X488807Y478608D01*
X488173Y479433D01*
X487348Y480067D01*
X486386Y480465D01*
X485354Y480601D01*
D02*
G37*
G36*
X254884Y471842D02*
X253059D01*
Y470017D01*
X253487Y470103D01*
X254274Y470628D01*
X254799Y471415D01*
X254884Y471842D01*
D02*
G37*
G36*
X252059D02*
X250234D01*
X250319Y471415D01*
X250845Y470628D01*
X251631Y470103D01*
X252059Y470017D01*
Y471842D01*
D02*
G37*
G36*
X305354Y470601D02*
X304322Y470465D01*
X303361Y470067D01*
X302535Y469433D01*
X301902Y468608D01*
X301503Y467646D01*
X301367Y466614D01*
X301503Y465582D01*
X301902Y464621D01*
X302535Y463795D01*
X303361Y463161D01*
X304322Y462763D01*
X305354Y462627D01*
X306386Y462763D01*
X307348Y463161D01*
X308173Y463795D01*
X308807Y464621D01*
X309205Y465582D01*
X309341Y466614D01*
X309205Y467646D01*
X308807Y468608D01*
X308173Y469433D01*
X307348Y470067D01*
X306386Y470465D01*
X305354Y470601D01*
D02*
G37*
G36*
X315354Y460601D02*
X314322Y460465D01*
X313361Y460067D01*
X312535Y459433D01*
X311902Y458608D01*
X311503Y457646D01*
X311368Y456614D01*
X311503Y455582D01*
X311902Y454621D01*
X312535Y453795D01*
X313361Y453161D01*
X314322Y452763D01*
X315354Y452627D01*
X316386Y452763D01*
X317348Y453161D01*
X318174Y453795D01*
X318807Y454621D01*
X319205Y455582D01*
X319341Y456614D01*
X319205Y457646D01*
X318807Y458608D01*
X318174Y459433D01*
X317348Y460067D01*
X316386Y460465D01*
X315354Y460601D01*
D02*
G37*
G36*
X212210Y436965D02*
X205962D01*
Y435152D01*
X205462Y434912D01*
X204865Y435311D01*
X203937Y435495D01*
X203614Y435431D01*
X203330Y435488D01*
X201230D01*
Y436965D01*
X187734D01*
Y429965D01*
X201230D01*
Y431441D01*
X202166D01*
X202223Y431356D01*
X203009Y430831D01*
X203937Y430646D01*
X204865Y430831D01*
X205462Y431230D01*
X205962Y430990D01*
Y429965D01*
X212210D01*
Y433465D01*
Y436965D01*
D02*
G37*
G36*
X219458D02*
X213210D01*
Y433965D01*
X219458D01*
Y436965D01*
D02*
G37*
G36*
Y432965D02*
X213210D01*
Y429965D01*
X219458D01*
Y432965D01*
D02*
G37*
G36*
X616968Y431975D02*
X615469Y431777D01*
X614072Y431199D01*
X612872Y430278D01*
X611951Y429078D01*
X611372Y427681D01*
X611175Y426181D01*
X611372Y424682D01*
X611951Y423284D01*
X612872Y422084D01*
X614072Y421164D01*
X615469Y420585D01*
X616968Y420387D01*
X618468Y420585D01*
X619865Y421164D01*
X621065Y422084D01*
X621986Y423284D01*
X622565Y424682D01*
X622762Y426181D01*
X622565Y427681D01*
X621986Y429078D01*
X621065Y430278D01*
X619865Y431199D01*
X618468Y431777D01*
X616968Y431975D01*
D02*
G37*
G36*
X201230Y460587D02*
X187734D01*
Y455645D01*
X182777Y450688D01*
X182445Y450192D01*
X182329Y449606D01*
Y423885D01*
X182144Y423762D01*
X181618Y422975D01*
X181434Y422047D01*
X181618Y421119D01*
X182144Y420333D01*
X182930Y419807D01*
X183858Y419623D01*
X184786Y419807D01*
X185573Y420333D01*
X186098Y421119D01*
X186283Y422047D01*
X186098Y422975D01*
X185573Y423762D01*
X185388Y423885D01*
Y448973D01*
X190001Y453587D01*
X201230D01*
Y460587D01*
D02*
G37*
G36*
X173301Y430794D02*
X171801Y430596D01*
X170404Y430018D01*
X169204Y429097D01*
X168283Y427897D01*
X167704Y426500D01*
X167507Y425000D01*
X167704Y423500D01*
X168283Y422103D01*
X169204Y420903D01*
X170404Y419982D01*
X171801Y419404D01*
X173301Y419206D01*
X174800Y419404D01*
X176198Y419982D01*
X177398Y420903D01*
X178318Y422103D01*
X178897Y423500D01*
X179094Y425000D01*
X178897Y426500D01*
X178318Y427897D01*
X177398Y429097D01*
X176198Y430018D01*
X174800Y430596D01*
X173301Y430794D01*
D02*
G37*
G36*
X213779Y406548D02*
X212696Y406405D01*
X211687Y405987D01*
X210820Y405322D01*
X210155Y404455D01*
X210126Y404385D01*
X182394D01*
X182365Y404455D01*
X181700Y405322D01*
X180833Y405987D01*
X179823Y406405D01*
X178740Y406548D01*
X177657Y406405D01*
X176647Y405987D01*
X175781Y405322D01*
X175116Y404455D01*
X174697Y403445D01*
X174555Y402362D01*
X174697Y401279D01*
X174726Y401209D01*
X171404Y397887D01*
X170966Y397231D01*
X170811Y396457D01*
Y364961D01*
X170966Y364186D01*
X171404Y363530D01*
X174726Y360208D01*
X174697Y360138D01*
X174555Y359055D01*
X174697Y357972D01*
X175116Y356962D01*
X175781Y356096D01*
X176647Y355431D01*
X177657Y355012D01*
X178740Y354870D01*
X179823Y355012D01*
X180833Y355431D01*
X181700Y356096D01*
X182365Y356962D01*
X182783Y357972D01*
X182926Y359055D01*
X182783Y360138D01*
X182365Y361148D01*
X181700Y362015D01*
X180833Y362680D01*
X179823Y363098D01*
X178740Y363241D01*
X177657Y363098D01*
X177587Y363069D01*
X174858Y365799D01*
Y366477D01*
X175358Y366647D01*
X175781Y366096D01*
X176647Y365430D01*
X177657Y365012D01*
X178240Y364935D01*
Y369055D01*
Y373175D01*
X177657Y373098D01*
X176647Y372680D01*
X175781Y372015D01*
X175358Y371464D01*
X174858Y371633D01*
Y389784D01*
X175358Y389954D01*
X175781Y389403D01*
X176647Y388738D01*
X177657Y388319D01*
X178740Y388177D01*
X179823Y388319D01*
X180387Y388553D01*
X188820Y380119D01*
X189316Y379788D01*
X189902Y379671D01*
X193095D01*
Y378134D01*
Y372425D01*
X194040D01*
Y367216D01*
X179893Y353069D01*
X179823Y353098D01*
X178740Y353240D01*
X177657Y353098D01*
X176647Y352680D01*
X175781Y352015D01*
X175116Y351148D01*
X174697Y350138D01*
X174555Y349055D01*
X174697Y347972D01*
X175116Y346962D01*
X175781Y346096D01*
X176647Y345430D01*
X177657Y345012D01*
X178740Y344870D01*
X179823Y345012D01*
X180833Y345430D01*
X181700Y346096D01*
X182365Y346962D01*
X182783Y347972D01*
X182926Y349055D01*
X182783Y350138D01*
X182754Y350208D01*
X197494Y364947D01*
X197932Y365604D01*
X198086Y366378D01*
Y372425D01*
X199031D01*
Y373469D01*
X210910D01*
Y372819D01*
X216650D01*
Y373469D01*
X247836D01*
X250373Y370932D01*
X250504Y370271D01*
X250987Y369549D01*
X251708Y369068D01*
X252559Y368898D01*
X255906D01*
X256756Y369068D01*
X256804Y369099D01*
X257961D01*
X269237Y357823D01*
Y356764D01*
X269020Y356440D01*
X268835Y355512D01*
X269020Y354584D01*
X269545Y353797D01*
X270332Y353272D01*
X271260Y353087D01*
X272188Y353272D01*
X272974Y353797D01*
X273114Y354006D01*
X273645Y353901D01*
X273744Y353402D01*
X274269Y352616D01*
X275056Y352090D01*
X275984Y351905D01*
X276911Y352090D01*
X277698Y352616D01*
X278224Y353402D01*
X278408Y354330D01*
X278224Y355258D01*
X278007Y355582D01*
Y359056D01*
X277853Y359830D01*
X277414Y360486D01*
X274502Y363398D01*
X274709Y363898D01*
X277135D01*
X277548Y363486D01*
X278044Y363154D01*
X278629Y363037D01*
X350131D01*
X350254Y362853D01*
X351041Y362327D01*
X351969Y362142D01*
X352896Y362327D01*
X353683Y362853D01*
X354208Y363639D01*
X354393Y364567D01*
X354208Y365495D01*
X353683Y366281D01*
X352896Y366807D01*
X351969Y366991D01*
X351041Y366807D01*
X350254Y366281D01*
X350131Y366096D01*
X279607D01*
X279586Y366122D01*
X279417Y366973D01*
X278935Y367694D01*
X278213Y368177D01*
X277362Y368346D01*
X274016D01*
X273165Y368177D01*
X272443Y367694D01*
X271961Y366973D01*
X271907Y366701D01*
X271364Y366536D01*
X260348Y377553D01*
X259692Y377991D01*
X258917Y378145D01*
X256804D01*
X256756Y378177D01*
X255906Y378346D01*
X253346D01*
X253311Y378398D01*
X253579Y378898D01*
X255906D01*
X256756Y379067D01*
X257478Y379550D01*
X257960Y380271D01*
X258129Y381122D01*
X257960Y381973D01*
X257478Y382695D01*
X256756Y383177D01*
X255906Y383346D01*
X252559D01*
X251708Y383177D01*
X250987Y382695D01*
X250958Y382651D01*
X248744D01*
X244110Y387285D01*
Y390567D01*
X238567D01*
Y385221D01*
X241849D01*
X246124Y380946D01*
X245932Y380484D01*
X238125D01*
X217678Y400931D01*
X217822Y401279D01*
X217965Y402362D01*
X217822Y403445D01*
X217404Y404455D01*
X216739Y405322D01*
X215872Y405987D01*
X214863Y406405D01*
X213779Y406548D01*
D02*
G37*
G36*
X305354Y410601D02*
X304322Y410465D01*
X303361Y410067D01*
X302535Y409433D01*
X301902Y408608D01*
X301503Y407646D01*
X301367Y406614D01*
X301503Y405582D01*
X301902Y404621D01*
X302535Y403795D01*
X303361Y403161D01*
X304322Y402763D01*
X305354Y402627D01*
X306386Y402763D01*
X307348Y403161D01*
X308173Y403795D01*
X308807Y404621D01*
X309205Y405582D01*
X309341Y406614D01*
X309205Y407646D01*
X308807Y408608D01*
X308173Y409433D01*
X307348Y410067D01*
X306386Y410465D01*
X305354Y410601D01*
D02*
G37*
G36*
X244110Y396669D02*
X241839D01*
Y394496D01*
X244110D01*
Y396669D01*
D02*
G37*
G36*
X240839D02*
X238567D01*
Y394496D01*
X240839D01*
Y396669D01*
D02*
G37*
G36*
X315354Y400601D02*
X314322Y400465D01*
X313361Y400067D01*
X312535Y399433D01*
X311902Y398608D01*
X311503Y397646D01*
X311368Y396614D01*
X311503Y395582D01*
X311902Y394621D01*
X312535Y393795D01*
X313361Y393162D01*
X314322Y392763D01*
X315354Y392627D01*
X316386Y392763D01*
X317348Y393162D01*
X318174Y393795D01*
X318807Y394621D01*
X319205Y395582D01*
X319341Y396614D01*
X319205Y397646D01*
X318807Y398608D01*
X318174Y399433D01*
X317348Y400067D01*
X316386Y400465D01*
X315354Y400601D01*
D02*
G37*
G36*
X305354D02*
X304322Y400465D01*
X303361Y400067D01*
X302535Y399433D01*
X301902Y398608D01*
X301503Y397646D01*
X301367Y396614D01*
X301503Y395582D01*
X301902Y394621D01*
X302535Y393795D01*
X303361Y393162D01*
X304322Y392763D01*
X305354Y392627D01*
X306386Y392763D01*
X307348Y393162D01*
X308173Y393795D01*
X308807Y394621D01*
X309205Y395582D01*
X309341Y396614D01*
X309205Y397646D01*
X308807Y398608D01*
X308173Y399433D01*
X307348Y400067D01*
X306386Y400465D01*
X305354Y400601D01*
D02*
G37*
G36*
X244110Y393496D02*
X241839D01*
Y391323D01*
X244110D01*
Y393496D01*
D02*
G37*
G36*
X240839D02*
X238567D01*
Y391323D01*
X240839D01*
Y393496D01*
D02*
G37*
G36*
X609154Y393643D02*
X608404Y393544D01*
X607706Y393255D01*
X607107Y392795D01*
X606646Y392196D01*
X606357Y391497D01*
X606259Y390748D01*
X606357Y389999D01*
X606646Y389301D01*
X607107Y388701D01*
X607706Y388241D01*
X608404Y387952D01*
X609154Y387853D01*
X609903Y387952D01*
X610601Y388241D01*
X611201Y388701D01*
X611660Y389301D01*
X611950Y389999D01*
X612048Y390748D01*
X611950Y391497D01*
X611660Y392196D01*
X611201Y392795D01*
X610601Y393255D01*
X609903Y393544D01*
X609154Y393643D01*
D02*
G37*
G36*
X485354Y400601D02*
X484323Y400465D01*
X483361Y400067D01*
X482535Y399433D01*
X481902Y398608D01*
X481503Y397646D01*
X481367Y396614D01*
X481503Y395582D01*
X481902Y394621D01*
X482535Y393795D01*
X483361Y393162D01*
X483825Y392969D01*
Y386405D01*
X483640Y386281D01*
X483114Y385495D01*
X482930Y384567D01*
X483114Y383639D01*
X483640Y382853D01*
X484426Y382327D01*
X485354Y382142D01*
X486282Y382327D01*
X487069Y382853D01*
X487594Y383639D01*
X487779Y384567D01*
X487594Y385495D01*
X487069Y386281D01*
X486884Y386405D01*
Y392969D01*
X487348Y393162D01*
X488173Y393795D01*
X488807Y394621D01*
X489205Y395582D01*
X489341Y396614D01*
X489205Y397646D01*
X488807Y398608D01*
X488173Y399433D01*
X487348Y400067D01*
X486386Y400465D01*
X485354Y400601D01*
D02*
G37*
G36*
X293323Y383874D02*
X287976D01*
Y381429D01*
X287476Y381380D01*
X287343Y382050D01*
X286818Y382837D01*
X286031Y383362D01*
X285103Y383547D01*
X284175Y383362D01*
X283389Y382837D01*
X283265Y382651D01*
X278963D01*
X278935Y382695D01*
X278213Y383177D01*
X277362Y383346D01*
X274016D01*
X273165Y383177D01*
X272443Y382695D01*
X271961Y381973D01*
X271792Y381122D01*
X271961Y380271D01*
X272443Y379550D01*
X273165Y379067D01*
X274016Y378898D01*
X277362D01*
X278213Y379067D01*
X278935Y379550D01*
X278963Y379593D01*
X283265D01*
X283389Y379408D01*
X284175Y378882D01*
X285103Y378697D01*
X286031Y378882D01*
X286818Y379408D01*
X287343Y380194D01*
X287476Y380864D01*
X287976Y380815D01*
Y378331D01*
X288627D01*
Y374228D01*
X287287D01*
Y373145D01*
X278260D01*
X278213Y373177D01*
X277362Y373346D01*
X274016D01*
X273165Y373177D01*
X272443Y372694D01*
X271961Y371973D01*
X271792Y371122D01*
X271961Y370271D01*
X272443Y369549D01*
X273165Y369068D01*
X274016Y368898D01*
X277362D01*
X278213Y369068D01*
X278260Y369099D01*
X287287D01*
Y368291D01*
X295760D01*
Y371260D01*
Y374228D01*
X292673D01*
Y378331D01*
X293323D01*
Y383874D01*
D02*
G37*
G36*
X277362Y378346D02*
X276189D01*
Y376622D01*
X279487D01*
X279417Y376973D01*
X278935Y377695D01*
X278213Y378177D01*
X277362Y378346D01*
D02*
G37*
G36*
X275189D02*
X274016D01*
X273165Y378177D01*
X272443Y377695D01*
X271961Y376973D01*
X271891Y376622D01*
X275189D01*
Y378346D01*
D02*
G37*
G36*
X279487Y375622D02*
X276189D01*
Y373898D01*
X277362D01*
X278213Y374067D01*
X278935Y374550D01*
X279417Y375271D01*
X279487Y375622D01*
D02*
G37*
G36*
X275189D02*
X271891D01*
X271961Y375271D01*
X272443Y374550D01*
X273165Y374067D01*
X274016Y373898D01*
X275189D01*
Y375622D01*
D02*
G37*
G36*
X299327Y374228D02*
X296760D01*
Y371760D01*
X299327D01*
Y374228D01*
D02*
G37*
G36*
X179240Y373175D02*
Y369555D01*
X182860D01*
X182783Y370138D01*
X182365Y371148D01*
X181700Y372015D01*
X180833Y372680D01*
X179823Y373098D01*
X179240Y373175D01*
D02*
G37*
G36*
X299327Y370760D02*
X296760D01*
Y368291D01*
X299327D01*
Y370760D01*
D02*
G37*
G36*
X182860Y368555D02*
X179240D01*
Y364935D01*
X179823Y365012D01*
X180833Y365430D01*
X181700Y366096D01*
X182365Y366962D01*
X182783Y367972D01*
X182860Y368555D01*
D02*
G37*
G36*
X557587Y365711D02*
Y363886D01*
X559412D01*
X559327Y364314D01*
X558801Y365100D01*
X558014Y365626D01*
X557587Y365711D01*
D02*
G37*
G36*
X556587D02*
X556159Y365626D01*
X555372Y365100D01*
X554847Y364314D01*
X554762Y363886D01*
X556587D01*
Y365711D01*
D02*
G37*
G36*
X609154Y366871D02*
X608404Y366773D01*
X607706Y366483D01*
X607107Y366023D01*
X606646Y365424D01*
X606357Y364726D01*
X606259Y363976D01*
X606357Y363227D01*
X606646Y362529D01*
X607107Y361929D01*
X607706Y361469D01*
X608404Y361180D01*
X609154Y361082D01*
X609903Y361180D01*
X610601Y361469D01*
X611201Y361929D01*
X611660Y362529D01*
X611950Y363227D01*
X612048Y363976D01*
X611950Y364726D01*
X611660Y365424D01*
X611201Y366023D01*
X610601Y366483D01*
X609903Y366773D01*
X609154Y366871D01*
D02*
G37*
G36*
X559412Y362886D02*
X557587D01*
Y361061D01*
X558014Y361146D01*
X558801Y361671D01*
X559327Y362458D01*
X559412Y362886D01*
D02*
G37*
G36*
X556587D02*
X554762D01*
X554847Y362458D01*
X555372Y361671D01*
X556159Y361146D01*
X556587Y361061D01*
Y362886D01*
D02*
G37*
G36*
X255906Y368346D02*
X252559D01*
X251708Y368177D01*
X250987Y367694D01*
X250504Y366973D01*
X250335Y366122D01*
X250504Y365271D01*
X250987Y364549D01*
X251708Y364068D01*
X252559Y363898D01*
X252611D01*
Y356206D01*
X252518Y356143D01*
X251992Y355357D01*
X251808Y354429D01*
X251992Y353501D01*
X252518Y352715D01*
X253305Y352189D01*
X254232Y352005D01*
X255160Y352189D01*
X255947Y352715D01*
X256472Y353501D01*
X256657Y354429D01*
X256472Y355357D01*
X255947Y356143D01*
X255854Y356206D01*
Y363898D01*
X255906D01*
X256756Y364068D01*
X257478Y364549D01*
X257960Y365271D01*
X258129Y366122D01*
X257960Y366973D01*
X257478Y367694D01*
X256756Y368177D01*
X255906Y368346D01*
D02*
G37*
G36*
X422102Y355173D02*
X419102D01*
Y348925D01*
X422102D01*
Y355173D01*
D02*
G37*
G36*
X418102D02*
X415102D01*
Y348925D01*
X418102D01*
Y355173D01*
D02*
G37*
G36*
X426878Y350357D02*
Y348532D01*
X428703D01*
X428618Y348959D01*
X428092Y349746D01*
X427306Y350272D01*
X426878Y350357D01*
D02*
G37*
G36*
X425878D02*
X425450Y350272D01*
X424663Y349746D01*
X424138Y348959D01*
X424053Y348532D01*
X425878D01*
Y350357D01*
D02*
G37*
G36*
X428703Y347532D02*
X426878D01*
Y345706D01*
X427306Y345792D01*
X428092Y346317D01*
X428618Y347104D01*
X428703Y347532D01*
D02*
G37*
G36*
X425878D02*
X424053D01*
X424138Y347104D01*
X424663Y346317D01*
X425450Y345792D01*
X425878Y345706D01*
Y347532D01*
D02*
G37*
G36*
X422102Y347925D02*
X419102D01*
Y341677D01*
X422102D01*
Y347925D01*
D02*
G37*
G36*
X418102D02*
X415102D01*
Y341677D01*
X418102D01*
Y347925D01*
D02*
G37*
G36*
X619791Y337614D02*
Y325303D01*
X632103D01*
X631984Y326813D01*
X631513Y328774D01*
X630741Y330637D01*
X629688Y332357D01*
X628378Y333890D01*
X626845Y335199D01*
X625125Y336253D01*
X623262Y337025D01*
X621302Y337496D01*
X619791Y337614D01*
D02*
G37*
G36*
X618791D02*
X617281Y337496D01*
X615320Y337025D01*
X613457Y336253D01*
X611738Y335199D01*
X610205Y333890D01*
X608895Y332357D01*
X607841Y330637D01*
X607070Y328774D01*
X606599Y326813D01*
X606480Y325303D01*
X618791D01*
Y337614D01*
D02*
G37*
G36*
X481602Y324668D02*
Y322843D01*
X483427D01*
X483342Y323270D01*
X482817Y324057D01*
X482030Y324583D01*
X481602Y324668D01*
D02*
G37*
G36*
X480602D02*
X480174Y324583D01*
X479388Y324057D01*
X478862Y323270D01*
X478777Y322843D01*
X480602D01*
Y324668D01*
D02*
G37*
G36*
X293807D02*
Y322843D01*
X295632D01*
X295547Y323270D01*
X295022Y324057D01*
X294235Y324583D01*
X293807Y324668D01*
D02*
G37*
G36*
X292807D02*
X292379Y324583D01*
X291593Y324057D01*
X291067Y323270D01*
X290982Y322843D01*
X292807D01*
Y324668D01*
D02*
G37*
G36*
X362933Y333057D02*
X361434Y332860D01*
X360036Y332281D01*
X358836Y331361D01*
X357916Y330161D01*
X357337Y328763D01*
X357139Y327264D01*
X357337Y325764D01*
X357916Y324367D01*
X358836Y323167D01*
X360036Y322246D01*
X361434Y321668D01*
X362933Y321470D01*
X364433Y321668D01*
X365830Y322246D01*
X367030Y323167D01*
X367951Y324367D01*
X368529Y325764D01*
X368727Y327264D01*
X368529Y328763D01*
X367951Y330161D01*
X367030Y331361D01*
X365830Y332281D01*
X364433Y332860D01*
X362933Y333057D01*
D02*
G37*
G36*
X483427Y321843D02*
X481602D01*
Y320017D01*
X482030Y320103D01*
X482817Y320628D01*
X483342Y321415D01*
X483427Y321843D01*
D02*
G37*
G36*
X480602D02*
X478777D01*
X478862Y321415D01*
X479388Y320628D01*
X480174Y320103D01*
X480602Y320017D01*
Y321843D01*
D02*
G37*
G36*
X295632D02*
X293807D01*
Y320017D01*
X294235Y320103D01*
X295022Y320628D01*
X295547Y321415D01*
X295632Y321843D01*
D02*
G37*
G36*
X292807D02*
X290982D01*
X291067Y321415D01*
X291593Y320628D01*
X292379Y320103D01*
X292807Y320017D01*
Y321843D01*
D02*
G37*
G36*
X632103Y324303D02*
X619791D01*
Y311992D01*
X621302Y312111D01*
X623262Y312581D01*
X625125Y313353D01*
X626845Y314407D01*
X628378Y315716D01*
X629688Y317250D01*
X630741Y318969D01*
X631513Y320832D01*
X631984Y322793D01*
X632103Y324303D01*
D02*
G37*
G36*
X618791D02*
X606480D01*
X606599Y322793D01*
X607070Y320832D01*
X607841Y318969D01*
X608895Y317250D01*
X610205Y315716D01*
X611738Y314407D01*
X613457Y313353D01*
X615320Y312581D01*
X617281Y312111D01*
X618791Y311992D01*
Y324303D01*
D02*
G37*
G36*
X183677D02*
X171366D01*
Y311992D01*
X172876Y312111D01*
X174837Y312581D01*
X176700Y313353D01*
X178420Y314407D01*
X179953Y315716D01*
X181263Y317250D01*
X182316Y318969D01*
X183088Y320832D01*
X183559Y322793D01*
X183677Y324303D01*
D02*
G37*
G36*
X170366D02*
X158055D01*
X158174Y322793D01*
X158644Y320832D01*
X159416Y318969D01*
X160470Y317250D01*
X161779Y315716D01*
X163313Y314407D01*
X165032Y313353D01*
X166895Y312581D01*
X168856Y312111D01*
X170366Y311992D01*
Y324303D01*
D02*
G37*
%LPD*%
G36*
X403245Y596958D02*
X403428Y596583D01*
X403243Y596307D01*
X403097Y595571D01*
X403243Y594835D01*
X403607Y594291D01*
X403243Y593748D01*
X403097Y593012D01*
X403243Y592276D01*
X403607Y591732D01*
X403243Y591189D01*
X403196Y590953D01*
X406890D01*
Y589953D01*
X403196D01*
X403243Y589717D01*
X403607Y589173D01*
X403243Y588629D01*
X403196Y588394D01*
X406890D01*
X410583D01*
X410536Y588629D01*
X410173Y589173D01*
X410536Y589717D01*
X410565Y589861D01*
X411083Y590038D01*
X411364Y589812D01*
Y583185D01*
X409925D01*
Y577051D01*
X415862D01*
X416156Y576673D01*
Y566448D01*
X411123Y561416D01*
X410843Y560997D01*
X410303Y560830D01*
X402317Y568816D01*
Y596638D01*
X402716Y597037D01*
X403245Y596958D01*
D02*
G37*
%LPC*%
G36*
X410583Y587394D02*
X406890D01*
X403196D01*
X403243Y587158D01*
X403660Y586534D01*
X404284Y586117D01*
X405020Y585971D01*
X406321D01*
X406370Y585471D01*
X406060Y585409D01*
X405274Y584884D01*
X404748Y584097D01*
X404663Y583669D01*
X409313D01*
X409228Y584097D01*
X408703Y584884D01*
X407916Y585409D01*
X407606Y585471D01*
X407655Y585971D01*
X408760D01*
X409496Y586117D01*
X410119Y586534D01*
X410536Y587158D01*
X410583Y587394D01*
D02*
G37*
G36*
X409313Y582669D02*
X407488D01*
Y580844D01*
X407916Y580929D01*
X408703Y581455D01*
X409228Y582241D01*
X409313Y582669D01*
D02*
G37*
G36*
X406488D02*
X404663D01*
X404748Y582241D01*
X405274Y581455D01*
X406060Y580929D01*
X406488Y580844D01*
Y582669D01*
D02*
G37*
%LPD*%
D10*
X551772Y581791D02*
Y590158D01*
X548917Y593012D02*
X551772Y590158D01*
X544685Y593012D02*
X548917D01*
X551354Y600516D02*
X564173Y587697D01*
X544858Y600516D02*
X551354D01*
X559842Y422835D02*
Y588878D01*
X550738Y597982D02*
X559842Y588878D01*
X544833Y597982D02*
X550738D01*
X556692Y501574D02*
Y588682D01*
X549900Y595474D02*
X556692Y588682D01*
X544781Y595474D02*
X549900D01*
X544685Y603248D02*
X552756D01*
X553740Y605807D02*
X562205Y614272D01*
X544685Y605807D02*
X553740D01*
X412894Y580118D02*
Y590650D01*
X410532Y593012D02*
X412894Y590650D01*
X406890Y593012D02*
X410532D01*
X412303Y605807D02*
X419390Y612894D01*
X406890Y605807D02*
X412303D01*
X277461D02*
X282972Y611319D01*
X269094Y605807D02*
X277461D01*
X274803Y580610D02*
Y590748D01*
X272539Y593012D02*
X274803Y590748D01*
X269094Y593012D02*
X272539D01*
X564173Y440551D02*
Y587697D01*
X568504Y587500D02*
X568504Y425197D01*
X552756Y603248D02*
X568504Y587500D01*
X279256Y492642D02*
Y589642D01*
X273500Y595398D02*
X279256Y589642D01*
X271683Y595398D02*
X273500D01*
X287402Y498032D02*
Y588484D01*
X275370Y600516D02*
X287402Y588484D01*
X271683Y600516D02*
X275370D01*
X291339Y455512D02*
X291339Y588091D01*
X276354Y603075D02*
X291339Y588091D01*
X271683Y603075D02*
X276354D01*
X274339Y597957D02*
X283465Y588831D01*
X271683Y597957D02*
X274339D01*
X240354Y600689D02*
X245866D01*
X236221Y604823D02*
X240354Y600689D01*
X236221Y604823D02*
Y657579D01*
X240945Y603248D02*
X245866D01*
X238221Y605972D02*
X240945Y603248D01*
X238221Y605972D02*
Y649933D01*
X240968Y597957D02*
X243277D01*
X237339Y594327D02*
X240968Y597957D01*
X237339Y578658D02*
Y594327D01*
X241657Y595398D02*
X243277D01*
X239339Y593079D02*
X241657Y595398D01*
X239339Y579487D02*
Y593079D01*
X212717Y480709D02*
Y486496D01*
X480709Y431260D02*
Y447638D01*
X476378Y451968D02*
X480709Y447638D01*
X472835Y451968D02*
X476378D01*
X410205Y526149D02*
X439961Y496393D01*
Y494095D02*
Y496393D01*
Y494095D02*
X472402Y461654D01*
X412205Y527658D02*
X458366Y481496D01*
X412205Y527658D02*
Y560335D01*
X410205Y526149D02*
Y558765D01*
X400787Y568183D02*
X410205Y558765D01*
X412205Y560335D02*
X417685Y565815D01*
X468209Y471654D02*
X480315D01*
X458366Y481496D02*
X468209Y471654D01*
X472402Y461654D02*
X480315D01*
X417685Y565815D02*
Y589329D01*
X585433Y413386D02*
Y465256D01*
X580610Y470079D02*
X585433Y465256D01*
X577559Y470079D02*
X580610D01*
X479807Y411067D02*
X485354Y416614D01*
X479807Y404770D02*
Y411067D01*
X345276Y510630D02*
X346063Y511417D01*
X423228Y530315D02*
X440551Y512992D01*
X423228Y530315D02*
Y590739D01*
X248425Y501181D02*
X273228D01*
X216142Y468898D02*
X248425Y501181D01*
X279195Y492581D02*
X279256Y492642D01*
X465194Y400455D02*
X471353Y406614D01*
X475354D01*
X503364Y372656D02*
Y486399D01*
X518898Y396063D02*
X533071Y396063D01*
X485354Y384567D02*
Y396614D01*
X466240Y359350D02*
Y394587D01*
X473815Y402161D01*
X477199D01*
X544685Y595571D02*
X544781Y595474D01*
X490158Y495536D02*
Y500787D01*
X433858Y485433D02*
Y496457D01*
Y485433D02*
X457874Y461417D01*
X439886Y508933D02*
X440945Y507874D01*
X460709Y434173D02*
Y456614D01*
X533071Y396063D02*
X559842Y422835D01*
X588189Y424409D02*
X590158Y422441D01*
X588189Y424409D02*
Y442126D01*
X590520Y444457D01*
X593787D01*
X595787Y446457D01*
X486963Y422047D02*
X494487Y414523D01*
Y403936D02*
Y414523D01*
X500394Y407160D02*
Y485300D01*
Y407160D02*
X500486Y407067D01*
X503150Y486614D02*
X503364Y486399D01*
X503150Y372441D02*
X503364Y372656D01*
X485354Y446614D02*
X497746Y434222D01*
X497400Y369006D02*
X497746Y434222D01*
X492913Y364567D02*
X497400Y369006D01*
X490158Y495536D02*
X500394Y485300D01*
X472835Y422047D02*
X486963D01*
X460709Y434173D02*
X472835Y422047D01*
X468504Y456299D02*
X472835Y451968D01*
X329528Y500787D02*
X332677D01*
X315354Y486614D02*
X329528Y500787D01*
X576378Y429134D02*
Y429417D01*
X577559Y430598D01*
Y434646D01*
X248110Y381122D02*
X254232D01*
X242610Y386622D02*
X248110Y381122D01*
X242610Y386622D02*
Y386720D01*
X241437Y387894D02*
X242610Y386720D01*
X241339Y387894D02*
X241437D01*
X178740Y392362D02*
X189902Y381201D01*
X196063D01*
X213779Y380413D02*
Y392362D01*
X278629Y364567D02*
X351969D01*
X277074Y366122D02*
X278629Y364567D01*
X275689Y366122D02*
X277074D01*
X212598Y486614D02*
X212717Y486496D01*
X480709Y431260D02*
X485354Y426614D01*
X333467Y511024D02*
X345276D01*
X309842Y487399D02*
X333467Y511024D01*
X283465Y462992D02*
X283465Y588831D01*
X411617Y595398D02*
X417685Y589329D01*
X409479Y595398D02*
X411617D01*
X419685Y529134D02*
Y590158D01*
X411886Y597957D02*
X419685Y590158D01*
X409479Y597957D02*
X411886D01*
X302756Y421654D02*
X318110D01*
X298425Y417323D02*
X302756Y421654D01*
X298425Y394444D02*
Y417323D01*
X297718Y384565D02*
X352836D01*
X282996Y399287D02*
X297718Y384565D01*
X242126Y440158D02*
X282996Y399287D01*
X203150Y440158D02*
X242126D01*
X275689Y381122D02*
X285103D01*
X317717Y411417D02*
X323622Y405512D01*
X310551Y411417D02*
X317717D01*
X305354Y416614D02*
X310551Y411417D01*
X323622Y402756D02*
Y405512D01*
X318110Y421654D02*
X321654Y425197D01*
Y431102D01*
X477199Y402161D02*
X479807Y404770D01*
X577559Y458268D02*
Y464173D01*
X310236Y431496D02*
Y438029D01*
X307199Y441067D02*
X310236Y438029D01*
X230082Y451575D02*
X310394D01*
X303730Y441067D02*
X307199D01*
X297521Y447276D02*
X303730Y441067D01*
X296693Y445276D02*
X305354Y436614D01*
X310394Y451575D02*
X315354Y446614D01*
X225953Y447276D02*
X297521D01*
X212717Y445276D02*
X296693D01*
X315354Y466614D02*
X356614Y507874D01*
X191339Y457087D02*
X194488D01*
X183858Y449606D02*
X191339Y457087D01*
X183858Y422047D02*
Y449606D01*
X480315Y471654D02*
X485354Y466614D01*
X480315Y461654D02*
X485354Y456614D01*
X577559Y446457D02*
Y452756D01*
X344882Y506142D02*
Y506299D01*
X315354Y476614D02*
X344882Y506142D01*
X212717Y468898D02*
X216142D01*
X309842Y481102D02*
Y487399D01*
X305354Y476614D02*
X309842Y481102D01*
X600645Y440945D02*
X603035Y443335D01*
X595669Y440945D02*
X600645D01*
X598819Y470079D02*
X603035Y465862D01*
Y443335D02*
Y465862D01*
X595787Y470079D02*
X598819D01*
X595669Y452362D02*
X595787Y452480D01*
Y458268D01*
X198031Y445276D02*
X203150Y440158D01*
X194488Y445276D02*
X198031D01*
X216142Y457087D02*
X225953Y447276D01*
X212717Y457087D02*
X216142D01*
X305354Y426614D02*
X310236Y431496D01*
X218271Y463386D02*
X230082Y451575D01*
X194488Y468898D02*
X198031D01*
X203543Y463386D01*
X218271D01*
X439753Y508933D02*
X439886D01*
X438067Y510619D02*
X439753Y508933D01*
X438067Y510619D02*
Y510752D01*
X419685Y529134D02*
X438067Y510752D01*
X517201Y585161D02*
X543701Y558661D01*
X533858Y540059D02*
Y565675D01*
X523622Y540059D02*
Y573083D01*
X400787Y568183D02*
Y597272D01*
X404031Y600516D01*
X404301D01*
X404326Y600541D01*
X406742D01*
X406890Y600689D01*
X544685D02*
X544858Y600516D01*
X544685Y598130D02*
X544833Y597982D01*
X271658Y603100D02*
X271683Y603075D01*
X269242Y603100D02*
X271658D01*
X269094Y603248D02*
X269242Y603100D01*
X271658Y600541D02*
X271683Y600516D01*
X269242Y600541D02*
X271658D01*
X269094Y600689D02*
X269242Y600541D01*
X271658Y597982D02*
X271683Y597957D01*
X269242Y597982D02*
X271658D01*
X269094Y598130D02*
X269242Y597982D01*
X271658Y595423D02*
X271683Y595398D01*
X269242Y595423D02*
X271658D01*
X269094Y595571D02*
X269242Y595423D01*
X410893Y603075D02*
X423228Y590739D01*
X409479Y603075D02*
X410893D01*
X409453Y603100D02*
X409479Y603075D01*
X407037Y603100D02*
X409453D01*
X406890Y603248D02*
X407037Y603100D01*
X409453Y597982D02*
X409479Y597957D01*
X407037Y597982D02*
X409453D01*
X406890Y598130D02*
X407037Y597982D01*
X409453Y595423D02*
X409479Y595398D01*
X407037Y595423D02*
X409453D01*
X406890Y595571D02*
X407037Y595423D01*
X523543Y664153D02*
X523622Y664075D01*
X523543Y664153D02*
Y677165D01*
X513543Y664311D02*
X513779Y664075D01*
X513543Y664311D02*
Y677165D01*
X543543Y664232D02*
X543701Y664075D01*
X543543Y664232D02*
Y677165D01*
X541461Y680043D02*
X544972D01*
X539370Y677953D02*
X541461Y680043D01*
X539370Y626624D02*
Y677953D01*
X553543Y676929D02*
X553780Y677165D01*
X553543Y664075D02*
Y676929D01*
X548819Y661319D02*
Y676196D01*
X544972Y680043D02*
X548819Y676196D01*
X409449Y663287D02*
Y676905D01*
X406546Y679807D02*
X409449Y676905D01*
X400787Y676432D02*
X404162Y679807D01*
X400787Y625049D02*
Y676432D01*
X404162Y679807D02*
X406546D01*
X409449Y663287D02*
X414764Y657972D01*
X268898Y680315D02*
X271260Y677953D01*
Y662106D02*
Y677953D01*
Y662106D02*
X275787Y657579D01*
X264567Y680315D02*
X268898D01*
X261811Y677559D02*
X264567Y680315D01*
X261811Y622687D02*
Y677559D01*
X543701Y517717D02*
Y533169D01*
X533779Y517717D02*
Y533090D01*
X523622Y517717D02*
Y533169D01*
X415354Y664862D02*
Y676929D01*
X405118Y664862D02*
X405354Y665098D01*
Y676929D01*
X414764Y657972D02*
X415354D01*
X530555Y617809D02*
X539370Y626624D01*
X532555Y616980D02*
X543701Y628126D01*
X532555Y592719D02*
Y616980D01*
X530555Y593547D02*
Y617809D01*
X527461Y590453D02*
X530555Y593547D01*
X527903Y588067D02*
X532555Y592719D01*
X524046Y588067D02*
X527903D01*
X524020Y588041D02*
X524046Y588067D01*
X521604Y588041D02*
X524020D01*
X521457Y590453D02*
X527461D01*
X405354Y516929D02*
Y530965D01*
X395354Y516929D02*
Y530886D01*
X395669Y531201D01*
X527461Y605807D02*
X527559Y605905D01*
X521457Y605807D02*
X527461D01*
X389665D02*
X389764Y605905D01*
X383661Y605807D02*
X389665D01*
X393276Y591701D02*
Y617537D01*
X395276Y589764D02*
Y616709D01*
X405118Y626551D01*
X393276Y617537D02*
X400787Y625049D01*
X252658Y605807D02*
X252756Y605905D01*
X245866Y605807D02*
X252658D01*
X379134Y587008D02*
Y592126D01*
Y587008D02*
X405118Y561024D01*
X375134Y585351D02*
Y593783D01*
Y585351D02*
X377953Y582532D01*
Y582283D02*
Y582532D01*
Y582283D02*
X385433Y574803D01*
X393579Y588067D02*
X395276Y589764D01*
X386250Y588067D02*
X393579D01*
X383661Y590453D02*
X392028D01*
X393276Y591701D01*
X238221Y649933D02*
X245866Y657579D01*
X246457D01*
Y538484D02*
Y569540D01*
X237339Y578658D02*
X246457Y569540D01*
X243277Y597957D02*
X243303Y597982D01*
X245719D01*
X245866Y598130D01*
X256299Y538484D02*
Y562526D01*
X239339Y579487D02*
X256299Y562526D01*
X243277Y595398D02*
X243303Y595423D01*
X245719D01*
X245866Y595571D01*
X241339Y592126D02*
X242224Y593012D01*
X241339Y580315D02*
Y592126D01*
Y580315D02*
X266535Y555118D01*
X242224Y593012D02*
X245866D01*
X266535Y538484D02*
Y555118D01*
X254281Y588067D02*
X258693Y592479D01*
Y616740D02*
X266142Y624189D01*
X258693Y592479D02*
Y616740D01*
X248455Y588067D02*
X254281D01*
X256693Y617569D02*
X261811Y622687D01*
X256693Y593307D02*
Y617569D01*
X253839Y590453D02*
X256693Y593307D01*
X245866Y590453D02*
X253839D01*
X275787Y657579D02*
X276378D01*
X266142Y624189D02*
Y657579D01*
X248429Y588041D02*
X248455Y588067D01*
X246014Y588041D02*
X248429D01*
X245866Y587894D02*
X246014Y588041D01*
X246378Y531516D02*
X246457Y531595D01*
X246378Y516929D02*
Y531516D01*
X256299Y531595D02*
X256378Y531516D01*
Y516929D02*
Y531516D01*
X266378Y531437D02*
X266535Y531595D01*
X266378Y516929D02*
Y531437D01*
X276378Y664468D02*
Y676929D01*
X266142Y664468D02*
X266378Y664705D01*
Y676929D01*
X246378Y664547D02*
X246457Y664468D01*
X246378Y664547D02*
Y676929D01*
X236221Y664468D02*
X236378Y664626D01*
Y676929D01*
X516730Y603421D02*
X518868D01*
X515779Y604372D02*
X516730Y603421D01*
X515779Y604372D02*
Y649933D01*
X523032Y657185D01*
X523622D01*
X518868Y603421D02*
X518893Y603396D01*
X521309D01*
X521457Y603248D01*
X516461Y600862D02*
X518868D01*
X513779Y603543D02*
X516461Y600862D01*
X513779Y603543D02*
Y657185D01*
X518868Y600862D02*
X518893Y600837D01*
X521309D01*
X521457Y600689D01*
X517642Y592839D02*
X518868D01*
X517201Y592398D02*
X517642Y592839D01*
X517201Y585161D02*
Y592398D01*
X517124Y595398D02*
X518868D01*
X515201Y593475D02*
X517124Y595398D01*
X515201Y584333D02*
Y593475D01*
X516854Y597957D02*
X518868D01*
X513201Y594303D02*
X516854Y597957D01*
X513201Y583505D02*
Y594303D01*
Y583505D02*
X523622Y573083D01*
X515201Y584333D02*
X533858Y565675D01*
X518868Y597957D02*
X518893Y597982D01*
X521309D01*
X521457Y598130D01*
X543701Y540059D02*
Y558661D01*
X518868Y595398D02*
X518893Y595423D01*
X521309D01*
X521457Y595571D01*
X518868Y592839D02*
X518893Y592864D01*
X521309D01*
X521457Y593012D01*
X548819Y661319D02*
X552953Y657185D01*
X553543D01*
X543701Y628126D02*
Y657185D01*
X521457Y587894D02*
X521604Y588041D01*
X385433Y538091D02*
Y574803D01*
X375134Y593783D02*
X379308Y597957D01*
X381072D01*
X381098Y597982D01*
X383514D01*
X383661Y598130D01*
X395669Y538091D02*
Y567644D01*
X377134Y586179D02*
X395669Y567644D01*
X377134Y586179D02*
Y592954D01*
X379577Y595398D01*
X381072D01*
X381098Y595423D01*
X383514D01*
X383661Y595571D01*
X405118Y538091D02*
Y561024D01*
X385354Y531122D02*
X385433Y531201D01*
X385354Y516929D02*
Y531122D01*
X405118Y531201D02*
X405354Y530965D01*
X533779Y533090D02*
X533858Y533169D01*
X377197Y650327D02*
X384842Y657972D01*
X377197Y604299D02*
Y650327D01*
Y604299D02*
X378075Y603421D01*
X377805Y600862D02*
X381072D01*
X375197Y603471D02*
X377805Y600862D01*
X375197Y603471D02*
Y657579D01*
X378075Y603421D02*
X381072D01*
X384842Y657972D02*
X385433D01*
X381072Y603421D02*
X381098Y603396D01*
X383514D01*
X383661Y603248D01*
X381098Y600837D02*
X383514D01*
X383661Y600689D01*
X381072Y600862D02*
X381098Y600837D01*
Y592864D02*
X383514D01*
X381072Y592839D02*
X381098Y592864D01*
X379847Y592839D02*
X381072D01*
X379134Y592126D02*
X379847Y592839D01*
X383514Y592864D02*
X383661Y593012D01*
X386225Y588041D02*
X386250Y588067D01*
X383809Y588041D02*
X386225D01*
X405118Y626551D02*
Y657972D01*
X383661Y587894D02*
X383809Y588041D01*
X375354Y664626D02*
Y676929D01*
X385354Y664941D02*
Y676929D01*
X241339Y387894D02*
X241417Y387815D01*
D11*
X500787Y370079D02*
X503150Y372441D01*
X500787Y340945D02*
Y370079D01*
X254232Y354429D02*
Y366122D01*
D13*
X577461Y406496D02*
X602067D01*
X577362Y347638D02*
X602165D01*
X624803D02*
Y406496D01*
X612894D02*
X624803D01*
X612894Y347638D02*
X624803D01*
X155118Y324803D02*
G03*
X170866Y309055I15748J0D01*
G01*
X619291D02*
G03*
X635039Y324803I0J15748D01*
G01*
Y687008D02*
G03*
X619291Y702756I-15748J0D01*
G01*
X170866D02*
G03*
X155118Y687008I0J-15748D01*
G01*
X170866Y309055D02*
X619291Y309055D01*
X170866Y702756D02*
X619291Y702756D01*
X155118Y324803D02*
X155118Y687008D01*
X635039Y324803D02*
X635039Y687008D01*
X271260Y379921D02*
G03*
X271260Y379921I-1969J0D01*
G01*
X540354Y603346D02*
G03*
X540354Y603346I-1969J0D01*
G01*
X402559D02*
G03*
X402559Y603346I-1969J0D01*
G01*
X264764D02*
G03*
X264764Y603346I-1969J0D01*
G01*
X211910Y374606D02*
Y381299D01*
X215650Y374606D02*
Y381299D01*
X211910D02*
X215650D01*
X211910Y374606D02*
X215650D01*
X194095Y374803D02*
Y381890D01*
X198031Y374803D02*
Y381890D01*
X194095D02*
X198031D01*
X194095Y374803D02*
X198031D01*
X239567Y387598D02*
X243110D01*
X239567Y394291D02*
X243110D01*
Y387598D02*
Y394291D01*
X239567Y387598D02*
Y394291D01*
X243701Y656791D02*
Y665256D01*
X249213Y656791D02*
Y665256D01*
X243701D02*
X249213D01*
X243701Y656791D02*
X249213D01*
X272835Y363779D02*
Y383465D01*
X257087Y363779D02*
Y383465D01*
X272835D01*
X257087Y363779D02*
X272835D01*
X524213Y586811D02*
X541929D01*
X524213Y606890D02*
X541929D01*
X524213Y586811D02*
Y606890D01*
X541929Y586811D02*
Y606890D01*
X386417Y586811D02*
X404134D01*
X386417Y606890D02*
X404134D01*
X386417Y586811D02*
Y606890D01*
X404134Y586811D02*
Y606890D01*
X248622Y586811D02*
X266339D01*
X248622Y606890D02*
X266339D01*
X248622Y586811D02*
Y606890D01*
X266339Y586811D02*
Y606890D01*
X290354Y382874D02*
X297047D01*
X290354Y379331D02*
X297047D01*
Y382874D01*
X290354Y379331D02*
Y382874D01*
X540945Y656398D02*
X546457D01*
X540945Y664862D02*
X546457D01*
Y656398D02*
Y664862D01*
X540945Y656398D02*
Y664862D01*
X550787Y656398D02*
X556299D01*
X550787Y664862D02*
X556299D01*
Y656398D02*
Y664862D01*
X550787Y656398D02*
Y664862D01*
X540945Y540846D02*
X546457D01*
X540945Y532382D02*
X546457D01*
X540945D02*
Y540846D01*
X546457Y532382D02*
Y540846D01*
X531102D02*
X536614D01*
X531102Y532382D02*
X536614D01*
X531102D02*
Y540846D01*
X536614Y532382D02*
Y540846D01*
X520866D02*
X526378D01*
X520866Y532382D02*
X526378D01*
X520866D02*
Y540846D01*
X526378Y532382D02*
Y540846D01*
X511024Y656398D02*
X516535D01*
X511024Y664862D02*
X516535D01*
Y656398D02*
Y664862D01*
X511024Y656398D02*
Y664862D01*
X520866Y656398D02*
X526378D01*
X520866Y664862D02*
X526378D01*
Y656398D02*
Y664862D01*
X520866Y656398D02*
Y664862D01*
X402362Y657185D02*
X407874D01*
X402362Y665650D02*
X407874D01*
Y657185D02*
Y665650D01*
X402362Y657185D02*
Y665650D01*
X263386Y656791D02*
X268898D01*
X263386Y665256D02*
X268898D01*
Y656791D02*
Y665256D01*
X263386Y656791D02*
Y665256D01*
X412598Y657185D02*
X418110D01*
X412598Y665650D02*
X418110D01*
Y657185D02*
Y665650D01*
X412598Y657185D02*
Y665650D01*
X273622Y656791D02*
X279134D01*
X273622Y665256D02*
X279134D01*
Y656791D02*
Y665256D01*
X273622Y656791D02*
Y665256D01*
X402362Y538878D02*
X407874D01*
X402362Y530413D02*
X407874D01*
X402362D02*
Y538878D01*
X407874Y530413D02*
Y538878D01*
X263779Y539272D02*
X269291D01*
X263779Y530807D02*
X269291D01*
X263779D02*
Y539272D01*
X269291Y530807D02*
Y539272D01*
X392913Y538878D02*
X398425D01*
X392913Y530413D02*
X398425D01*
X392913D02*
Y538878D01*
X398425Y530413D02*
Y538878D01*
X253543Y539272D02*
X259055D01*
X253543Y530807D02*
X259055D01*
X253543D02*
Y539272D01*
X259055Y530807D02*
Y539272D01*
X382677Y538878D02*
X388189D01*
X382677Y530413D02*
X388189D01*
X382677D02*
Y538878D01*
X388189Y530413D02*
Y538878D01*
X243701Y539272D02*
X249213D01*
X243701Y530807D02*
X249213D01*
X243701D02*
Y539272D01*
X249213Y530807D02*
Y539272D01*
X372441Y656791D02*
X377953D01*
X372441Y665256D02*
X377953D01*
Y656791D02*
Y665256D01*
X372441Y656791D02*
Y665256D01*
X233465Y656791D02*
X238976D01*
X233465Y665256D02*
X238976D01*
Y656791D02*
Y665256D01*
X233465Y656791D02*
Y665256D01*
X382677Y657185D02*
X388189D01*
X382677Y665650D02*
X388189D01*
Y657185D02*
Y665650D01*
X382677Y657185D02*
Y665650D01*
X296752Y369390D02*
Y373130D01*
X289862Y369390D02*
Y373130D01*
X296752D01*
X289862Y369390D02*
X296752D01*
X211910Y377953D02*
X215650D01*
X213779Y376083D02*
Y379823D01*
X194095Y378346D02*
X198031D01*
X196063Y376378D02*
Y380315D01*
X241339Y389173D02*
Y392717D01*
X239567Y390945D02*
X243110D01*
X244488Y661024D02*
X248425D01*
X246457Y659055D02*
Y662992D01*
X262992Y373622D02*
X266929D01*
X264961Y371654D02*
Y375590D01*
X533071Y594882D02*
Y598819D01*
X531102Y596850D02*
X535039D01*
X395276Y594882D02*
Y598819D01*
X393307Y596850D02*
X397244D01*
X257480Y594882D02*
Y598819D01*
X255512Y596850D02*
X259449D01*
X293701Y379331D02*
Y382874D01*
X291929Y381102D02*
X295472D01*
X543701Y658661D02*
Y662598D01*
X541732Y660630D02*
X545669D01*
X553543Y658661D02*
Y662598D01*
X551575Y660630D02*
X555512D01*
X543701Y534646D02*
Y538583D01*
X541732Y536614D02*
X545669D01*
X533858Y534646D02*
Y538583D01*
X531890Y536614D02*
X535827D01*
X523622Y534646D02*
Y538583D01*
X521654Y536614D02*
X525591D01*
X513779Y658661D02*
Y662598D01*
X511811Y660630D02*
X515748D01*
X523622Y658661D02*
Y662598D01*
X521654Y660630D02*
X525591D01*
X405118Y659449D02*
Y663386D01*
X403150Y661417D02*
X407087D01*
X266142Y659055D02*
Y662992D01*
X264173Y661024D02*
X268110D01*
X415354Y659449D02*
Y663386D01*
X413386Y661417D02*
X417323D01*
X276378Y659055D02*
Y662992D01*
X274410Y661024D02*
X278346D01*
X405118Y532677D02*
Y536614D01*
X403150Y534646D02*
X407087D01*
X266535Y533071D02*
Y537008D01*
X264567Y535039D02*
X268504D01*
X395669Y532677D02*
Y536614D01*
X393701Y534646D02*
X397638D01*
X256299Y533071D02*
Y537008D01*
X254331Y535039D02*
X258268D01*
X385433Y532677D02*
Y536614D01*
X383465Y534646D02*
X387402D01*
X246457Y533071D02*
Y537008D01*
X244488Y535039D02*
X248425D01*
X375197Y659055D02*
Y662992D01*
X373228Y661024D02*
X377165D01*
X236221Y659055D02*
Y662992D01*
X234252Y661024D02*
X238189D01*
X385433Y659449D02*
Y663386D01*
X383465Y661417D02*
X387402D01*
X291437Y371260D02*
X295177D01*
X293307Y369390D02*
Y373130D01*
D14*
X585925Y367814D02*
D03*
D15*
X210827Y372835D02*
Y383071D01*
X216732Y372835D02*
Y383071D01*
X210827D02*
X216732D01*
X210827Y372835D02*
X216732D01*
X193110Y372441D02*
Y384252D01*
X199016Y372441D02*
Y384252D01*
X193110D02*
X199016D01*
X193110Y372441D02*
X199016D01*
X238583Y385236D02*
X244094D01*
X238583Y396654D02*
X244094D01*
Y385236D02*
Y396654D01*
X238583Y385236D02*
Y396654D01*
X242717Y654331D02*
Y667717D01*
X250197Y654331D02*
Y667717D01*
X242717D02*
X250197D01*
X242717Y654331D02*
X250197D01*
X279528Y362795D02*
Y384449D01*
X250394Y362795D02*
Y384449D01*
X279528D01*
X250394Y362795D02*
X279528D01*
X517717Y585827D02*
X548425D01*
X517717Y607874D02*
X548425D01*
X517717Y585827D02*
Y607874D01*
X548425Y585827D02*
Y607874D01*
X379921Y585827D02*
X410630D01*
X379921Y607874D02*
X410630D01*
X379921Y585827D02*
Y607874D01*
X410630Y585827D02*
Y607874D01*
X242126Y585827D02*
X272835D01*
X242126Y607874D02*
X272835D01*
X242126Y585827D02*
Y607874D01*
X272835Y585827D02*
Y607874D01*
X287992Y383858D02*
X299410D01*
X287992Y378346D02*
X299410D01*
Y383858D01*
X287992Y378346D02*
Y383858D01*
X539961Y653937D02*
X547441D01*
X539961Y667323D02*
X547441D01*
Y653937D02*
Y667323D01*
X539961Y653937D02*
Y667323D01*
X549803Y653937D02*
X557283D01*
X549803Y667323D02*
X557283D01*
Y653937D02*
Y667323D01*
X549803Y653937D02*
Y667323D01*
X539961Y543307D02*
X547441D01*
X539961Y529921D02*
X547441D01*
X539961D02*
Y543307D01*
X547441Y529921D02*
Y543307D01*
X530118D02*
X537598D01*
X530118Y529921D02*
X537598D01*
X530118D02*
Y543307D01*
X537598Y529921D02*
Y543307D01*
X519882D02*
X527362D01*
X519882Y529921D02*
X527362D01*
X519882D02*
Y543307D01*
X527362Y529921D02*
Y543307D01*
X510039Y653937D02*
X517520D01*
X510039Y667323D02*
X517520D01*
Y653937D02*
Y667323D01*
X510039Y653937D02*
Y667323D01*
X519882Y653937D02*
X527362D01*
X519882Y667323D02*
X527362D01*
Y653937D02*
Y667323D01*
X519882Y653937D02*
Y667323D01*
X401378Y654724D02*
X408858D01*
X401378Y668110D02*
X408858D01*
Y654724D02*
Y668110D01*
X401378Y654724D02*
Y668110D01*
X262402Y654331D02*
X269882D01*
X262402Y667717D02*
X269882D01*
Y654331D02*
Y667717D01*
X262402Y654331D02*
Y667717D01*
X411614Y654724D02*
X419095D01*
X411614Y668110D02*
X419095D01*
Y654724D02*
Y668110D01*
X411614Y654724D02*
Y668110D01*
X272638Y654331D02*
X280118D01*
X272638Y667717D02*
X280118D01*
Y654331D02*
Y667717D01*
X272638Y654331D02*
Y667717D01*
X401378Y541339D02*
X408858D01*
X401378Y527953D02*
X408858D01*
X401378D02*
Y541339D01*
X408858Y527953D02*
Y541339D01*
X262795Y541732D02*
X270276D01*
X262795Y528346D02*
X270276D01*
X262795D02*
Y541732D01*
X270276Y528346D02*
Y541732D01*
X391929Y541339D02*
X399409D01*
X391929Y527953D02*
X399409D01*
X391929D02*
Y541339D01*
X399409Y527953D02*
Y541339D01*
X252559Y541732D02*
X260039D01*
X252559Y528346D02*
X260039D01*
X252559D02*
Y541732D01*
X260039Y528346D02*
Y541732D01*
X381693Y541339D02*
X389173D01*
X381693Y527953D02*
X389173D01*
X381693D02*
Y541339D01*
X389173Y527953D02*
Y541339D01*
X242717Y541732D02*
X250197D01*
X242717Y528346D02*
X250197D01*
X242717D02*
Y541732D01*
X250197Y528346D02*
Y541732D01*
X371457Y654331D02*
X378937D01*
X371457Y667717D02*
X378937D01*
Y654331D02*
Y667717D01*
X371457Y654331D02*
Y667717D01*
X232480Y654331D02*
X239961D01*
X232480Y667717D02*
X239961D01*
Y654331D02*
Y667717D01*
X232480Y654331D02*
Y667717D01*
X381693Y654724D02*
X389173D01*
X381693Y668110D02*
X389173D01*
Y654724D02*
Y668110D01*
X381693Y654724D02*
Y668110D01*
X299213Y368307D02*
Y374213D01*
X287402Y368307D02*
Y374213D01*
X299213D01*
X287402Y368307D02*
X299213D01*
D27*
X213386Y402362D02*
X237287Y378461D01*
X258917Y376122D02*
X275984Y359056D01*
Y354330D02*
Y359056D01*
X172835Y364961D02*
X178740Y359055D01*
X172835Y364961D02*
Y396457D01*
X178740Y402362D01*
Y349055D02*
X196063Y366378D01*
Y375492D01*
X203724Y433071D02*
X203937D01*
X203330Y433465D02*
X203724Y433071D01*
X194488Y433465D02*
X203330D01*
X237287Y378461D02*
X249903D01*
X252167Y376197D01*
X213779Y375492D02*
X248674D01*
X252484Y371682D01*
X252167Y376197D02*
X254157D01*
X254232Y376122D01*
X252484Y371304D02*
Y371682D01*
Y371304D02*
X252666Y371122D01*
X254232D01*
X196063Y375492D02*
X213779D01*
X178740Y402362D02*
X213386D01*
X357480Y376772D02*
X383071Y351181D01*
X301083Y376772D02*
X357480D01*
X297539Y380315D02*
X301083Y376772D01*
X383071Y351181D02*
Y492126D01*
Y348425D02*
Y351181D01*
X296752Y381004D02*
Y381102D01*
Y381004D02*
X297441Y380315D01*
X297539D01*
X389370Y348031D02*
X394488D01*
X271260Y355512D02*
Y358661D01*
X258799Y371122D02*
X271260Y358661D01*
X254232Y371122D02*
X258799D01*
X254232Y376122D02*
X258917D01*
X375354Y499843D02*
Y516929D01*
Y499843D02*
X383071Y492126D01*
X394488Y348031D02*
X394882Y348425D01*
X406398Y348031D02*
X406791Y348425D01*
X401181Y348031D02*
X406398D01*
X595669Y490945D02*
X595787Y490827D01*
Y481890D02*
Y490827D01*
X475197Y486772D02*
Y516929D01*
Y486772D02*
X475354Y486614D01*
X275689Y371122D02*
X290216D01*
X290650Y371555D02*
Y381102D01*
X290354Y371260D02*
X290650Y371555D01*
X290216Y371122D02*
X290354Y371260D01*
X375197Y664468D02*
X375354Y664626D01*
X385354Y664941D02*
X385433Y664862D01*
D28*
X213779Y402362D02*
D03*
Y392362D02*
D03*
X178740Y402362D02*
D03*
Y392362D02*
D03*
Y369055D02*
D03*
Y359055D02*
D03*
Y349055D02*
D03*
D29*
X485354Y486614D02*
D03*
Y476614D02*
D03*
Y466614D02*
D03*
Y456614D02*
D03*
Y446614D02*
D03*
Y436614D02*
D03*
Y426614D02*
D03*
Y416614D02*
D03*
Y406614D02*
D03*
Y396614D02*
D03*
X475354Y486614D02*
D03*
Y476614D02*
D03*
Y466614D02*
D03*
Y456614D02*
D03*
Y446614D02*
D03*
Y436614D02*
D03*
Y426614D02*
D03*
Y416614D02*
D03*
Y406614D02*
D03*
Y396614D02*
D03*
X315354Y486614D02*
D03*
Y476614D02*
D03*
Y466614D02*
D03*
Y456614D02*
D03*
Y446614D02*
D03*
Y436614D02*
D03*
Y426614D02*
D03*
Y416614D02*
D03*
Y406614D02*
D03*
Y396614D02*
D03*
X305354Y486614D02*
D03*
Y476614D02*
D03*
Y466614D02*
D03*
Y456614D02*
D03*
Y446614D02*
D03*
Y436614D02*
D03*
Y426614D02*
D03*
Y416614D02*
D03*
Y406614D02*
D03*
Y396614D02*
D03*
D30*
X523543Y517165D02*
D03*
Y677165D02*
D03*
X533543Y517165D02*
D03*
Y677165D02*
D03*
X543543Y517165D02*
D03*
Y677165D02*
D03*
X513543Y517165D02*
D03*
Y677165D02*
D03*
X553543Y517165D02*
D03*
Y677165D02*
D03*
X385354Y516929D02*
D03*
Y676929D02*
D03*
X395354Y516929D02*
D03*
Y676929D02*
D03*
X405354Y516929D02*
D03*
Y676929D02*
D03*
X375354Y516929D02*
D03*
Y676929D02*
D03*
X415354Y516929D02*
D03*
Y676929D02*
D03*
X246378Y516929D02*
D03*
Y676929D02*
D03*
X256378Y516929D02*
D03*
Y676929D02*
D03*
X266378Y516929D02*
D03*
Y676929D02*
D03*
X236378Y516929D02*
D03*
Y676929D02*
D03*
X276378Y516929D02*
D03*
Y676929D02*
D03*
D31*
X481102Y322342D02*
D03*
X293307D02*
D03*
X596555Y614567D02*
D03*
X197047Y618405D02*
D03*
Y551772D02*
D03*
X252559Y472342D02*
D03*
X528543Y477953D02*
D03*
X403740Y491634D02*
D03*
X467028Y635335D02*
D03*
Y677067D02*
D03*
X326575Y635433D02*
D03*
Y677067D02*
D03*
X440551Y512992D02*
D03*
X273228Y501181D02*
D03*
X287402Y498032D02*
D03*
X279195Y492581D02*
D03*
X203937Y433071D02*
D03*
X465194Y400455D02*
D03*
X518898Y396063D02*
D03*
X485354Y384567D02*
D03*
X556692Y501574D02*
D03*
X433858Y496457D02*
D03*
X490158Y500787D02*
D03*
X457874Y461417D02*
D03*
X440945Y507874D02*
D03*
X460709Y456614D02*
D03*
X590158Y422441D02*
D03*
X585433Y413386D02*
D03*
X494487Y403936D02*
D03*
X500486Y407067D02*
D03*
X468504Y456299D02*
D03*
X332677Y500787D02*
D03*
X503150Y486614D02*
D03*
X576378Y429134D02*
D03*
X351969Y364567D02*
D03*
X275984Y354330D02*
D03*
X500787Y340945D02*
D03*
X254232Y354429D02*
D03*
X212598Y486614D02*
D03*
X389370Y348031D02*
D03*
X271260Y355512D02*
D03*
X345276Y511024D02*
D03*
X356614Y507874D02*
D03*
X401181Y348031D02*
D03*
X261614Y585335D02*
D03*
X538189Y584449D02*
D03*
X285103Y381122D02*
D03*
X298425Y394444D02*
D03*
X321654Y431102D02*
D03*
X568504Y425197D02*
D03*
X283465Y462992D02*
D03*
X577559Y464173D02*
D03*
X291339Y455512D02*
D03*
X564173Y440551D02*
D03*
X557087Y363386D02*
D03*
X183858Y422047D02*
D03*
X352836Y384565D02*
D03*
X492913Y364567D02*
D03*
X466240Y359350D02*
D03*
X595669Y490945D02*
D03*
X323622Y402756D02*
D03*
X503150Y372441D02*
D03*
X577559Y452756D02*
D03*
X344882Y506299D02*
D03*
X595669Y440945D02*
D03*
Y452362D02*
D03*
X475197Y516929D02*
D03*
X468504Y478346D02*
D03*
X406988Y583169D02*
D03*
X426378Y348031D02*
D03*
X527559Y605905D02*
D03*
X389764D02*
D03*
X252756D02*
D03*
D32*
X616968Y426181D02*
D03*
Y490354D02*
D03*
X173301Y425000D02*
D03*
Y489173D02*
D03*
X427106Y327264D02*
D03*
X362933D02*
D03*
D33*
X609154Y390748D02*
D03*
Y363976D02*
D03*
D34*
X619291Y324803D02*
D03*
Y687008D02*
D03*
X170866D02*
D03*
Y324803D02*
D03*
D35*
X561319Y613287D02*
D03*
X551772Y581791D02*
D03*
X419390Y612894D02*
D03*
X412894Y580118D02*
D03*
X274803Y580610D02*
D03*
X282972Y611319D02*
D03*
X196063Y381201D02*
D03*
Y375492D02*
D03*
D36*
X213779Y380413D02*
D03*
Y375492D02*
D03*
D37*
X241339Y387894D02*
D03*
Y393996D02*
D03*
D38*
X595787Y470079D02*
D03*
X577559D02*
D03*
X595787Y446457D02*
D03*
X577559D02*
D03*
X595787Y481890D02*
D03*
X577559D02*
D03*
X595787Y458268D02*
D03*
Y434646D02*
D03*
X577559D02*
D03*
Y458268D02*
D03*
X212710Y457087D02*
D03*
Y480709D02*
D03*
X194482D02*
D03*
Y457087D02*
D03*
X212710Y433465D02*
D03*
X194482D02*
D03*
X212710Y468898D02*
D03*
X194482D02*
D03*
X212710Y445276D02*
D03*
X194482D02*
D03*
D39*
X394882Y348425D02*
D03*
X371161D02*
D03*
X418602D02*
D03*
X383071D02*
D03*
X406791D02*
D03*
D40*
X246457Y664468D02*
D03*
Y657579D02*
D03*
X543701Y657185D02*
D03*
Y664075D02*
D03*
X553543Y657185D02*
D03*
Y664075D02*
D03*
X543701Y540059D02*
D03*
Y533169D02*
D03*
X533858Y540059D02*
D03*
Y533169D02*
D03*
X523622Y540059D02*
D03*
Y533169D02*
D03*
X513779Y657185D02*
D03*
Y664075D02*
D03*
X523622Y657185D02*
D03*
Y664075D02*
D03*
X405118Y657972D02*
D03*
Y664862D02*
D03*
X266142Y657579D02*
D03*
Y664468D02*
D03*
X415354Y657972D02*
D03*
Y664862D02*
D03*
X276378Y657579D02*
D03*
Y664468D02*
D03*
X405118Y538091D02*
D03*
Y531201D02*
D03*
X266535Y538484D02*
D03*
Y531595D02*
D03*
X395669Y538091D02*
D03*
Y531201D02*
D03*
X256299Y538484D02*
D03*
Y531595D02*
D03*
X385433Y538091D02*
D03*
Y531201D02*
D03*
X246457Y538484D02*
D03*
Y531595D02*
D03*
X375197Y657579D02*
D03*
Y664468D02*
D03*
X236221Y657579D02*
D03*
Y664468D02*
D03*
X385433Y657972D02*
D03*
Y664862D02*
D03*
D41*
X275689Y381122D02*
D03*
Y376122D02*
D03*
Y371122D02*
D03*
Y366122D02*
D03*
X254232Y381122D02*
D03*
Y376122D02*
D03*
Y371122D02*
D03*
Y366122D02*
D03*
D42*
X521457Y587894D02*
D03*
Y590453D02*
D03*
Y593012D02*
D03*
Y595571D02*
D03*
Y598130D02*
D03*
Y600689D02*
D03*
Y603248D02*
D03*
Y605807D02*
D03*
X544685Y587894D02*
D03*
Y590453D02*
D03*
Y593012D02*
D03*
Y595571D02*
D03*
Y598130D02*
D03*
Y600689D02*
D03*
Y603248D02*
D03*
Y605807D02*
D03*
X383661Y587894D02*
D03*
Y590453D02*
D03*
Y593012D02*
D03*
Y595571D02*
D03*
Y598130D02*
D03*
Y600689D02*
D03*
Y603248D02*
D03*
Y605807D02*
D03*
X406890Y587894D02*
D03*
Y590453D02*
D03*
Y593012D02*
D03*
Y595571D02*
D03*
Y598130D02*
D03*
Y600689D02*
D03*
Y603248D02*
D03*
Y605807D02*
D03*
X245866Y587894D02*
D03*
Y590453D02*
D03*
Y593012D02*
D03*
Y595571D02*
D03*
Y598130D02*
D03*
Y600689D02*
D03*
Y603248D02*
D03*
Y605807D02*
D03*
X269094Y587894D02*
D03*
Y590453D02*
D03*
Y593012D02*
D03*
Y595571D02*
D03*
Y598130D02*
D03*
Y600689D02*
D03*
Y603248D02*
D03*
Y605807D02*
D03*
D43*
X296752Y381102D02*
D03*
X290650D02*
D03*
D44*
X296260Y371260D02*
D03*
X290354D02*
D03*
D45*
X169685Y340945D02*
X371161Y340945D01*
X377953Y335827D02*
X516929D01*
X371161Y342618D02*
X377953Y335827D01*
X371161Y340945D02*
Y342618D01*
X194482Y480709D02*
X194488D01*
X175197D02*
X194482D01*
X516929Y335827D02*
X595787Y414685D01*
Y434646D01*
X162205Y348425D02*
X169685Y340945D01*
X162205Y348425D02*
Y467717D01*
X175197Y480709D01*
M02*
