G04*
G04 #@! TF.GenerationSoftware,Altium Limited,Altium Designer,19.1.8 (144)*
G04*
G04 Layer_Physical_Order=2*
G04 Layer_Color=16711680*
%FSLAX25Y25*%
%MOIN*%
G70*
G01*
G75*
%ADD11C,0.01000*%
%ADD12C,0.00394*%
%ADD13R,0.40158X0.15945*%
%ADD14C,0.00197*%
%ADD26C,0.01968*%
%ADD27C,0.03937*%
%ADD28C,0.02756*%
%ADD29C,0.09488*%
%ADD30C,0.03740*%
%ADD31C,0.23622*%
%ADD32R,0.11496X0.05000*%
%ADD33C,0.04331*%
%ADD34R,0.05000X0.11496*%
%ADD35R,0.05512X0.04331*%
%ADD36O,0.01772X0.05512*%
%ADD37R,0.03937X0.04134*%
%ADD38R,0.03543X0.03347*%
%ADD39R,0.03543X0.03740*%
%ADD40O,0.05709X0.02362*%
G36*
X359396Y773855D02*
X358659Y773290D01*
X357738Y772090D01*
X357160Y770692D01*
X356962Y769193D01*
X357160Y767693D01*
X357738Y766296D01*
X358659Y765096D01*
X359652Y764334D01*
X359483Y763834D01*
X129134Y763834D01*
X128360Y763680D01*
X128095Y763504D01*
X127777Y763892D01*
X138240Y774355D01*
X359226D01*
X359396Y773855D01*
D02*
G37*
G36*
X403291Y752607D02*
Y741284D01*
X407824D01*
X413924Y735184D01*
X414580Y734745D01*
X415354Y734591D01*
X717371D01*
X727878Y724084D01*
X727686Y723622D01*
X260630D01*
X288583Y695669D01*
Y695016D01*
X289045Y695207D01*
X345276Y638976D01*
X365762D01*
Y634067D01*
X333171Y601475D01*
X332839Y600979D01*
X332723Y600394D01*
Y545276D01*
X317073D01*
X289045Y517247D01*
X288583Y517439D01*
Y516785D01*
X243913Y472115D01*
X243451Y472307D01*
Y478823D01*
X245882D01*
Y485153D01*
X238370D01*
Y478823D01*
X240392D01*
Y469720D01*
X239258Y468586D01*
X239140Y468541D01*
X238957Y468528D01*
X238616Y468567D01*
X226197Y480986D01*
Y485153D01*
X218685D01*
Y478823D01*
X224034D01*
X225243Y477613D01*
X225052Y477151D01*
X210346D01*
X206512Y480986D01*
Y485153D01*
X202232D01*
X201965Y485653D01*
X202005Y485713D01*
X206512D01*
Y492043D01*
X199000D01*
Y487438D01*
X189470Y477907D01*
X178193D01*
X177777Y478323D01*
X177984Y478823D01*
X184858D01*
Y480360D01*
X187138D01*
X187262Y480175D01*
X188049Y479650D01*
X188976Y479465D01*
X189904Y479650D01*
X190691Y480175D01*
X191216Y480962D01*
X191401Y481890D01*
X191216Y482818D01*
X190691Y483604D01*
X189904Y484130D01*
X188976Y484314D01*
X188049Y484130D01*
X187262Y483604D01*
X187138Y483419D01*
X184858D01*
Y485153D01*
X177815D01*
X177654Y485433D01*
X177815Y485713D01*
X184858D01*
Y490471D01*
X186514Y492127D01*
X186846Y492623D01*
X186962Y493209D01*
Y515091D01*
X187147Y515215D01*
X187673Y516001D01*
X187858Y516929D01*
X187673Y517857D01*
X187505Y518108D01*
X187741Y518549D01*
X191886D01*
X193288Y517147D01*
X193245Y516929D01*
X193429Y516001D01*
X193955Y515215D01*
X194741Y514689D01*
X195669Y514505D01*
X196597Y514689D01*
X197384Y515215D01*
X197909Y516001D01*
X198094Y516929D01*
X197909Y517857D01*
X197384Y518644D01*
X196597Y519169D01*
X195669Y519354D01*
X195451Y519310D01*
X193601Y521160D01*
X193105Y521492D01*
X192520Y521608D01*
X170079D01*
X169493Y521492D01*
X168997Y521160D01*
X166635Y518798D01*
X166304Y518302D01*
X166187Y517717D01*
Y496401D01*
X161829Y492043D01*
X156480D01*
Y485713D01*
X163992D01*
Y489880D01*
X168798Y494686D01*
X169130Y495182D01*
X169246Y495768D01*
Y517083D01*
X170712Y518549D01*
X173283D01*
X173519Y518108D01*
X173351Y517857D01*
X173166Y516929D01*
X173351Y516001D01*
X173876Y515215D01*
X174061Y515091D01*
Y479864D01*
X173599Y479672D01*
X170202Y483070D01*
X169706Y483401D01*
X169120Y483518D01*
X163992D01*
Y485153D01*
X156480D01*
Y481518D01*
X156018Y481326D01*
X154275Y483070D01*
X153779Y483401D01*
X153194Y483518D01*
X143913D01*
Y485153D01*
X136402D01*
Y481518D01*
X135940Y481326D01*
X135862Y481404D01*
X135365Y481736D01*
X134780Y481852D01*
X123835D01*
Y485153D01*
X116323D01*
Y478823D01*
X122187D01*
X122335Y478793D01*
X134147D01*
X135699Y477241D01*
X136195Y476910D01*
X136780Y476793D01*
X143535D01*
X144120Y476910D01*
X144616Y477241D01*
X145834Y478459D01*
X151732D01*
X154949Y475241D01*
X155445Y474910D01*
X156031Y474793D01*
X168495D01*
X176748Y466541D01*
X177244Y466209D01*
X177830Y466093D01*
X222622D01*
X223372Y465343D01*
Y451575D01*
Y434668D01*
X223125Y434299D01*
X222979Y433563D01*
Y429823D01*
X223125Y429087D01*
X223542Y428463D01*
X224166Y428046D01*
X224902Y427900D01*
X225637Y428046D01*
X226181Y428410D01*
X226725Y428046D01*
X227461Y427900D01*
X228196Y428046D01*
X228740Y428410D01*
X229284Y428046D01*
X230020Y427900D01*
X230755Y428046D01*
X231299Y428410D01*
X231843Y428046D01*
X232579Y427900D01*
X233315Y428046D01*
X233858Y428410D01*
X234402Y428046D01*
X235138Y427900D01*
X235874Y428046D01*
X236417Y428410D01*
X236961Y428046D01*
X237697Y427900D01*
X238433Y428046D01*
X238976Y428410D01*
X239520Y428046D01*
X240256Y427900D01*
X240992Y428046D01*
X241535Y428410D01*
X242079Y428046D01*
X242815Y427900D01*
X243551Y428046D01*
X244175Y428463D01*
X244591Y429087D01*
X244707Y429670D01*
X246997D01*
X247895Y428771D01*
Y422512D01*
X247679Y422188D01*
X247494Y421260D01*
X247679Y420332D01*
X248204Y419545D01*
X248991Y419020D01*
X249919Y418835D01*
X250846Y419020D01*
X251633Y419545D01*
X252158Y420332D01*
X252343Y421260D01*
X252158Y422188D01*
X251942Y422512D01*
Y426145D01*
X252404Y426336D01*
X326378Y352362D01*
X355512D01*
X355512Y352362D01*
X355512Y352362D01*
X355512Y352824D01*
Y418504D01*
X381572Y444564D01*
X382034Y444372D01*
Y432700D01*
X381787Y432330D01*
X381640Y431595D01*
Y427854D01*
X381787Y427118D01*
X382203Y426495D01*
X382827Y426078D01*
X383563Y425932D01*
X384299Y426078D01*
X384842Y426441D01*
X385386Y426078D01*
X386122Y425932D01*
X386858Y426078D01*
X387402Y426441D01*
X387945Y426078D01*
X388681Y425932D01*
X389417Y426078D01*
X389961Y426441D01*
X390504Y426078D01*
X391240Y425932D01*
X391976Y426078D01*
X392520Y426441D01*
X393063Y426078D01*
X393799Y425932D01*
X394535Y426078D01*
X395079Y426441D01*
X395622Y426078D01*
X396358Y425932D01*
X397094Y426078D01*
X397638Y426441D01*
X398182Y426078D01*
X398917Y425932D01*
X399653Y426078D01*
X400197Y426441D01*
X400741Y426078D01*
X401476Y425932D01*
X402212Y426078D01*
X402836Y426495D01*
X403253Y427118D01*
X403369Y427701D01*
X405264D01*
X407426Y425540D01*
Y418575D01*
X407209Y418251D01*
X407024Y417323D01*
X407209Y416395D01*
X407734Y415608D01*
X408521Y415083D01*
X409449Y414898D01*
X410377Y415083D01*
X411163Y415608D01*
X411689Y416395D01*
X411873Y417323D01*
X411689Y418251D01*
X411472Y418575D01*
Y426378D01*
X411318Y427152D01*
X410879Y427809D01*
X407533Y431155D01*
X406877Y431594D01*
X406102Y431747D01*
X403369D01*
X403253Y432330D01*
X402836Y432954D01*
X402212Y433371D01*
X401476Y433517D01*
X401120Y433446D01*
X400620Y433846D01*
Y452362D01*
X577660D01*
X577853Y452169D01*
Y426763D01*
X576431Y425340D01*
X569132D01*
X568897Y425781D01*
X569001Y425937D01*
X569117Y426520D01*
X569882D01*
X570656Y426674D01*
X571312Y427113D01*
X573084Y428884D01*
X573523Y429541D01*
X573677Y430315D01*
Y435433D01*
X573523Y436207D01*
X573084Y436864D01*
X569541Y440407D01*
X568885Y440845D01*
X568110Y441000D01*
X566213D01*
X565889Y441216D01*
X564961Y441401D01*
X564033Y441216D01*
X563246Y440691D01*
X562721Y439904D01*
X562536Y438976D01*
X562721Y438049D01*
X563246Y437262D01*
X564033Y436736D01*
X564961Y436552D01*
X565889Y436736D01*
X566213Y436953D01*
X567272D01*
X569630Y434595D01*
Y431476D01*
X569417Y431309D01*
X568810Y431435D01*
X568584Y431773D01*
X567960Y432190D01*
X567224Y432336D01*
X566489Y432190D01*
X565945Y431826D01*
X565401Y432190D01*
X564665Y432336D01*
X563930Y432190D01*
X563386Y431826D01*
X562842Y432190D01*
X562106Y432336D01*
X561371Y432190D01*
X560827Y431826D01*
X560283Y432190D01*
X559547Y432336D01*
X558811Y432190D01*
X558268Y431826D01*
X557724Y432190D01*
X556988Y432336D01*
X556252Y432190D01*
X555709Y431826D01*
X555165Y432190D01*
X554429Y432336D01*
X553693Y432190D01*
X553150Y431826D01*
X552606Y432190D01*
X551870Y432336D01*
X551134Y432190D01*
X550591Y431826D01*
X550047Y432190D01*
X549311Y432336D01*
X548575Y432190D01*
X547951Y431773D01*
X547535Y431149D01*
X547388Y430413D01*
Y426673D01*
X547535Y425937D01*
X547951Y425314D01*
X547955Y425311D01*
Y422957D01*
X548071Y422371D01*
X548403Y421875D01*
X558444Y411834D01*
X558253Y411372D01*
X541339D01*
X540753Y411256D01*
X540257Y410924D01*
X451675Y322341D01*
X451343Y321845D01*
X451227Y321260D01*
Y268767D01*
X451042Y268643D01*
X450516Y267857D01*
X450331Y266929D01*
X450516Y266001D01*
X451042Y265215D01*
X451828Y264689D01*
X452756Y264505D01*
X453684Y264689D01*
X454470Y265215D01*
X454996Y266001D01*
X455181Y266929D01*
X454996Y267857D01*
X454470Y268643D01*
X454285Y268767D01*
Y320626D01*
X541972Y408313D01*
X547241D01*
X547513Y407813D01*
X547388Y407185D01*
Y405815D01*
X549311D01*
Y405315D01*
X549811D01*
Y401622D01*
X550047Y401669D01*
X550591Y402032D01*
X551134Y401669D01*
X551370Y401622D01*
Y405315D01*
X552370D01*
Y401622D01*
X552606Y401669D01*
X553150Y402032D01*
X553693Y401669D01*
X554429Y401522D01*
X554959Y401627D01*
X555459Y401309D01*
Y372582D01*
X457580Y274704D01*
X457248Y274207D01*
X457132Y273622D01*
Y268767D01*
X456947Y268643D01*
X456421Y267857D01*
X456237Y266929D01*
X456421Y266001D01*
X456947Y265215D01*
X457734Y264689D01*
X458661Y264505D01*
X459589Y264689D01*
X460376Y265215D01*
X460901Y266001D01*
X461086Y266929D01*
X460901Y267857D01*
X460376Y268643D01*
X460191Y268767D01*
Y272989D01*
X557556Y370354D01*
X558018Y370162D01*
Y368842D01*
X465179Y276003D01*
X464961Y276047D01*
X464033Y275862D01*
X463246Y275337D01*
X462721Y274550D01*
X462536Y273622D01*
X462721Y272694D01*
X463246Y271908D01*
X464033Y271382D01*
X464961Y271198D01*
X465889Y271382D01*
X466675Y271908D01*
X467201Y272694D01*
X467385Y273622D01*
X467359Y273756D01*
X467610Y273985D01*
X468070Y273733D01*
X468048Y273622D01*
X468232Y272694D01*
X468758Y271908D01*
X469545Y271382D01*
X470472Y271198D01*
X471235Y271349D01*
X471482Y270888D01*
X464785Y264192D01*
X464567Y264236D01*
X463639Y264051D01*
X462852Y263525D01*
X462327Y262739D01*
X462142Y261811D01*
X462327Y260883D01*
X462852Y260097D01*
X463142Y259903D01*
X462990Y259403D01*
X425242D01*
X400447Y284199D01*
Y402490D01*
X400947Y402809D01*
X401476Y402703D01*
X402212Y402850D01*
X402836Y403266D01*
X403253Y403890D01*
X403399Y404626D01*
Y408366D01*
X403253Y409102D01*
X402836Y409726D01*
X402212Y410143D01*
X401476Y410289D01*
X400741Y410143D01*
X400197Y409779D01*
X399653Y410143D01*
X398917Y410289D01*
X398182Y410143D01*
X397638Y409779D01*
X397094Y410143D01*
X396358Y410289D01*
X395622Y410143D01*
X395079Y409779D01*
X394535Y410143D01*
X393799Y410289D01*
X393063Y410143D01*
X392520Y409779D01*
X391976Y410143D01*
X391240Y410289D01*
X390504Y410143D01*
X389961Y409779D01*
X389417Y410143D01*
X388681Y410289D01*
X387945Y410143D01*
X387402Y409779D01*
X386858Y410143D01*
X386622Y410189D01*
Y406496D01*
Y402803D01*
X386858Y402850D01*
X387402Y403213D01*
X387945Y402850D01*
X388681Y402703D01*
X389211Y402809D01*
X389711Y402490D01*
Y300485D01*
D01*
Y287699D01*
X389311Y287399D01*
X328301Y304930D01*
Y315354D01*
X328185Y315940D01*
X327853Y316436D01*
X325916Y318373D01*
X325916Y318373D01*
X241785Y402504D01*
Y404459D01*
X242285Y404777D01*
X242815Y404672D01*
X243551Y404818D01*
X244175Y405235D01*
X244591Y405859D01*
X244738Y406595D01*
Y410335D01*
X244591Y411070D01*
X244175Y411694D01*
X243551Y412111D01*
X242815Y412257D01*
X242079Y412111D01*
X241535Y411748D01*
X240992Y412111D01*
X240256Y412257D01*
X239520Y412111D01*
X238976Y411748D01*
X238433Y412111D01*
X237697Y412257D01*
X236961Y412111D01*
X236417Y411748D01*
X235874Y412111D01*
X235138Y412257D01*
X234402Y412111D01*
X233858Y411748D01*
X233315Y412111D01*
X232579Y412257D01*
X231843Y412111D01*
X231299Y411748D01*
X230755Y412111D01*
X230020Y412257D01*
X229284Y412111D01*
X228740Y411748D01*
X228196Y412111D01*
X227961Y412158D01*
Y408465D01*
Y404771D01*
X228196Y404818D01*
X228740Y405181D01*
X229284Y404818D01*
X230020Y404672D01*
X230549Y404777D01*
X231049Y404459D01*
Y400492D01*
X231166Y399907D01*
X231497Y399411D01*
X318880Y312028D01*
Y265460D01*
X318380Y265290D01*
X318338Y265346D01*
X317718Y265821D01*
X316995Y266120D01*
X316634Y266168D01*
X314190Y268612D01*
X313534Y269050D01*
X312760Y269204D01*
X304583D01*
X303809Y269050D01*
X303153Y268612D01*
X299792Y265251D01*
X240201D01*
X239999Y265752D01*
X240429Y266395D01*
X240614Y267323D01*
X240429Y268251D01*
X240104Y268737D01*
X240371Y269237D01*
X241661D01*
X241986Y269020D01*
X242913Y268835D01*
X243841Y269020D01*
X244628Y269545D01*
X245153Y270332D01*
X245338Y271260D01*
X245153Y272188D01*
X244628Y272974D01*
X243841Y273500D01*
X242913Y273684D01*
X241986Y273500D01*
X241661Y273283D01*
X231153D01*
X230958Y273478D01*
X230958Y273478D01*
X62257Y442179D01*
X71653Y451575D01*
Y670655D01*
X59199Y683110D01*
X99712Y723622D01*
X100365D01*
X100173Y724084D01*
X132728Y756638D01*
X374724Y756638D01*
X379571Y751792D01*
Y741284D01*
X386571D01*
Y754779D01*
X382305D01*
X377759Y759326D01*
X377950Y759788D01*
X383484D01*
X391480Y751792D01*
Y741284D01*
X398480D01*
Y754779D01*
X394215D01*
X385753Y763242D01*
X385096Y763680D01*
X384322Y763834D01*
X366029D01*
X365860Y764334D01*
X366853Y765096D01*
X367773Y766296D01*
X368352Y767693D01*
X368550Y769193D01*
X368352Y770692D01*
X367773Y772090D01*
X366853Y773290D01*
X366116Y773855D01*
X366286Y774355D01*
X381544D01*
X403291Y752607D01*
D02*
G37*
G36*
X763793Y782270D02*
X763773Y781771D01*
X762567Y780740D01*
X761257Y779207D01*
X760204Y777488D01*
X759432Y775625D01*
X758961Y773664D01*
X758842Y772154D01*
X771654D01*
Y771654D01*
X772154D01*
Y758842D01*
X773664Y758961D01*
X775625Y759432D01*
X777488Y760204D01*
X779207Y761257D01*
X780740Y762567D01*
X781771Y763773D01*
X782270Y763793D01*
X785433Y760630D01*
X785433Y748032D01*
X761024Y723622D01*
X750105D01*
X724265Y749462D01*
X723609Y749901D01*
X722835Y750055D01*
X422201D01*
Y754779D01*
X418160D01*
X391588Y781352D01*
X390932Y781790D01*
X390158Y781944D01*
X135433D01*
X134659Y781790D01*
X134002Y781352D01*
X76273Y723622D01*
X75619D01*
X75811Y723160D01*
X47480Y694829D01*
X19149Y723160D01*
X19340Y723622D01*
X18687D01*
X3543Y738982D01*
X3543Y759055D01*
X6874Y762385D01*
X8195Y761257D01*
X9914Y760204D01*
X11777Y759432D01*
X13738Y758961D01*
X15248Y758842D01*
Y771654D01*
X15748D01*
Y772154D01*
X28559D01*
X28440Y773664D01*
X27970Y775625D01*
X27198Y777488D01*
X26144Y779207D01*
X25016Y780528D01*
X30315Y785827D01*
X760236D01*
X763793Y782270D01*
D02*
G37*
G36*
X415201Y752017D02*
Y741284D01*
X422201D01*
Y746008D01*
X721997D01*
X743921Y724084D01*
X743730Y723622D01*
X734062D01*
X719639Y738045D01*
X718983Y738483D01*
X718209Y738637D01*
X416192D01*
X410291Y744538D01*
Y754779D01*
X406841D01*
X384223Y777398D01*
X384430Y777898D01*
X389319D01*
X415201Y752017D01*
D02*
G37*
G36*
X752904Y715101D02*
X747743Y709941D01*
X735543Y722141D01*
X735735Y722603D01*
X743730D01*
X744120Y722680D01*
X744451Y722901D01*
X745073Y722932D01*
X752904Y715101D01*
D02*
G37*
G36*
X367762Y631087D02*
Y545276D01*
X335781D01*
Y599760D01*
X367300Y631279D01*
X367762Y631087D01*
D02*
G37*
G36*
X433510Y617004D02*
Y545276D01*
X370821Y545276D01*
Y638976D01*
X411538D01*
X433510Y617004D01*
D02*
G37*
G36*
X455163Y605351D02*
Y545276D01*
X436569Y545276D01*
Y617638D01*
X436452Y618223D01*
X436121Y618719D01*
X416326Y638514D01*
X416517Y638976D01*
X421538D01*
X455163Y605351D01*
D02*
G37*
G36*
X491528Y695016D02*
X491528Y517439D01*
X491066Y517247D01*
X463038Y545276D01*
X458222D01*
Y605984D01*
X458106Y606569D01*
X457774Y607066D01*
X426326Y638514D01*
X426517Y638976D01*
X434835D01*
X491066Y695207D01*
X491528Y695016D01*
D02*
G37*
G36*
X183361Y518108D02*
X183193Y517857D01*
X183009Y516929D01*
X183193Y516001D01*
X183719Y515215D01*
X183904Y515091D01*
Y493842D01*
X182105Y492043D01*
X177347D01*
X177120Y492450D01*
Y515091D01*
X177305Y515215D01*
X177831Y516001D01*
X178015Y516929D01*
X177831Y517857D01*
X177663Y518108D01*
X177898Y518549D01*
X183125D01*
X183361Y518108D01*
D02*
G37*
G36*
X199000Y482459D02*
Y478823D01*
X204349D01*
X207558Y475613D01*
X207367Y475151D01*
X200033D01*
X199666Y475577D01*
X199669Y475591D01*
X199484Y476518D01*
X198959Y477305D01*
X198172Y477831D01*
X197244Y478015D01*
X196316Y477831D01*
X195530Y477305D01*
X195004Y476518D01*
X194864Y475812D01*
X194387Y475907D01*
X192449D01*
X192257Y476369D01*
X198538Y482650D01*
X199000Y482459D01*
D02*
G37*
G36*
X194988Y471613D02*
X194797Y471151D01*
X179292D01*
X178056Y472387D01*
X178248Y472849D01*
X193753D01*
X194988Y471613D01*
D02*
G37*
G36*
X744882Y707080D02*
X708457Y670655D01*
Y453382D01*
X644879D01*
X644688Y453844D01*
X670060Y479216D01*
X675409D01*
Y485547D01*
X667898D01*
Y481379D01*
X639570Y453052D01*
X638948Y453083D01*
X638617Y453304D01*
X638227Y453382D01*
X623619D01*
X623428Y453844D01*
X648801Y479216D01*
X654150D01*
Y485547D01*
X646638D01*
Y481379D01*
X632700Y467442D01*
X632238Y467633D01*
Y479216D01*
X634465D01*
Y485547D01*
X626953D01*
Y479216D01*
X629179D01*
Y466775D01*
X613979Y451575D01*
X612947D01*
Y479216D01*
X615173D01*
Y485547D01*
X607661D01*
Y479216D01*
X609888D01*
Y453382D01*
X592474D01*
Y479216D01*
X594701D01*
Y485547D01*
X587189D01*
Y479216D01*
X589416D01*
Y453382D01*
X583704D01*
Y472058D01*
X583588Y472643D01*
X583256Y473139D01*
X575016Y481379D01*
Y485547D01*
X567504D01*
Y479216D01*
X572853D01*
X580645Y471424D01*
Y454410D01*
X580145Y454203D01*
X553362Y480986D01*
Y485153D01*
X545850D01*
Y478823D01*
X551199D01*
X576178Y453844D01*
X575987Y453382D01*
X554932D01*
X491528Y516785D01*
Y695669D01*
X518462Y722603D01*
X727686D01*
X728077Y722680D01*
X728407Y722901D01*
X729030Y722932D01*
X744882Y707080D01*
D02*
G37*
G36*
X609888Y450312D02*
X592936Y433361D01*
X592474Y433552D01*
Y452362D01*
X609888D01*
Y450312D01*
D02*
G37*
G36*
X589416Y432668D02*
X584166Y427419D01*
X583704Y427610D01*
Y452362D01*
X589416D01*
Y432668D01*
D02*
G37*
G36*
X746008Y429188D02*
Y420823D01*
X744637D01*
X741686Y423773D01*
X741610Y424156D01*
X741084Y424943D01*
X740298Y425468D01*
X739370Y425653D01*
X738442Y425468D01*
X737656Y424943D01*
X737130Y424156D01*
X736945Y423228D01*
X737130Y422300D01*
X737656Y421514D01*
X738442Y420988D01*
X738825Y420912D01*
X741284Y418454D01*
Y413823D01*
X754779D01*
Y419764D01*
X755241Y419955D01*
X757032Y418165D01*
Y372492D01*
X756642Y372102D01*
X754779D01*
Y373579D01*
X749612D01*
X749460Y374079D01*
X749746Y374270D01*
X750272Y375056D01*
X750456Y375984D01*
X750272Y376912D01*
X749746Y377699D01*
X749561Y377822D01*
Y378390D01*
X754779D01*
Y385390D01*
X749612D01*
X749460Y385890D01*
X749746Y386081D01*
X750272Y386867D01*
X750456Y387795D01*
X750272Y388723D01*
X749746Y389510D01*
X749561Y389633D01*
Y390201D01*
X754779D01*
Y397201D01*
X749612D01*
X749460Y397701D01*
X749746Y397892D01*
X750272Y398678D01*
X750456Y399606D01*
X750272Y400534D01*
X749746Y401321D01*
X749561Y401444D01*
Y402012D01*
X754779D01*
Y409012D01*
X741284D01*
Y402012D01*
X746502D01*
Y401444D01*
X746317Y401321D01*
X745791Y400534D01*
X745607Y399606D01*
X745791Y398678D01*
X746317Y397892D01*
X746603Y397701D01*
X746451Y397201D01*
X741284D01*
Y390201D01*
X746502D01*
Y389633D01*
X746317Y389510D01*
X745791Y388723D01*
X745607Y387795D01*
X745791Y386867D01*
X746317Y386081D01*
X746603Y385890D01*
X746451Y385390D01*
X741284D01*
Y378390D01*
X746502D01*
Y377822D01*
X746317Y377699D01*
X745791Y376912D01*
X745607Y375984D01*
X745791Y375056D01*
X746317Y374270D01*
X746603Y374079D01*
X746451Y373579D01*
X741284D01*
Y366579D01*
X754779D01*
Y368056D01*
X757480D01*
X758254Y368210D01*
X758911Y368648D01*
X759842Y369579D01*
X760304Y369388D01*
Y358834D01*
X649107Y247638D01*
X648454D01*
X648645Y247176D01*
X601524Y200055D01*
X487622D01*
X487523Y200555D01*
X487717Y200635D01*
X488338Y201111D01*
X488813Y201731D01*
X489113Y202453D01*
X489215Y203228D01*
X489113Y204003D01*
X488813Y204725D01*
X488338Y205346D01*
X487717Y205821D01*
X486995Y206120D01*
X486221Y206223D01*
X485486Y206126D01*
X483664Y207948D01*
X483737Y208582D01*
X485486Y210331D01*
X486221Y210234D01*
X486995Y210336D01*
X487717Y210635D01*
X488338Y211111D01*
X488813Y211731D01*
X489113Y212453D01*
X489215Y213228D01*
X489113Y214003D01*
X488813Y214725D01*
X488338Y215346D01*
X487717Y215821D01*
X486995Y216120D01*
X486221Y216223D01*
X485445Y216120D01*
X484723Y215821D01*
X484103Y215346D01*
X483628Y214725D01*
X483328Y214003D01*
X483226Y213228D01*
X483323Y212494D01*
X481845Y211016D01*
X478895D01*
X478648Y211516D01*
X478814Y211731D01*
X479113Y212453D01*
X479215Y213228D01*
X479118Y213963D01*
X481790Y216635D01*
X482122Y217131D01*
X482238Y217717D01*
Y223382D01*
X482819Y223963D01*
X483292Y223729D01*
X483226Y223228D01*
X483328Y222453D01*
X483628Y221731D01*
X484103Y221111D01*
X484723Y220635D01*
X485445Y220336D01*
X486221Y220234D01*
X486995Y220336D01*
X487717Y220635D01*
X488338Y221111D01*
X488813Y221731D01*
X489113Y222453D01*
X489215Y223228D01*
X489113Y224003D01*
X488813Y224725D01*
X488498Y225136D01*
X488745Y225636D01*
X624213D01*
X624798Y225752D01*
X625294Y226084D01*
X646848Y247638D01*
X647502D01*
X647310Y248100D01*
X757065Y357854D01*
X757283Y357811D01*
X758211Y357996D01*
X758997Y358521D01*
X759523Y359308D01*
X759708Y360236D01*
X759523Y361163D01*
X758997Y361950D01*
X758211Y362475D01*
X757283Y362660D01*
X756355Y362475D01*
X755569Y361950D01*
X755043Y361163D01*
X754858Y360236D01*
X754902Y360017D01*
X642522Y247638D01*
X641869D01*
X642061Y247176D01*
X623579Y228695D01*
X619845D01*
X619654Y229157D01*
X638135Y247638D01*
X638788D01*
X638597Y248100D01*
X742133Y351636D01*
X742464Y352132D01*
X742581Y352717D01*
Y353650D01*
X742581Y353650D01*
Y355378D01*
X747813Y360611D01*
X748032Y360568D01*
X748959Y360752D01*
X749746Y361278D01*
X750272Y362064D01*
X750456Y362992D01*
X750272Y363920D01*
X749746Y364706D01*
X748959Y365232D01*
X748032Y365417D01*
X747104Y365232D01*
X746317Y364706D01*
X745791Y363920D01*
X745607Y362992D01*
X745650Y362774D01*
X741043Y358166D01*
X740581Y358357D01*
Y387720D01*
X740464Y388306D01*
X740133Y388802D01*
X736551Y392383D01*
Y397201D01*
X723055D01*
Y390201D01*
X734408D01*
X737522Y387087D01*
Y380255D01*
X737060Y380064D01*
X736551Y380572D01*
Y385390D01*
X723055D01*
Y378390D01*
X734408D01*
X735522Y377276D01*
Y373579D01*
X723055D01*
Y371608D01*
X583228D01*
X582643Y371492D01*
X582147Y371160D01*
X477074Y266088D01*
X476995Y266120D01*
X476221Y266223D01*
X475446Y266120D01*
X474723Y265821D01*
X474103Y265346D01*
X473628Y264725D01*
X473328Y264003D01*
X473226Y263228D01*
X473328Y262453D01*
X473628Y261731D01*
X474103Y261111D01*
X474723Y260635D01*
X475446Y260336D01*
X476221Y260234D01*
X476995Y260336D01*
X477717Y260635D01*
X478338Y261111D01*
X478814Y261731D01*
X479113Y262453D01*
X479215Y263228D01*
X479136Y263824D01*
X583862Y368549D01*
X723055D01*
Y366579D01*
X735522D01*
Y355008D01*
X635272Y254758D01*
X494961D01*
X494375Y254641D01*
X493879Y254310D01*
X490311Y250742D01*
X488622D01*
X488438Y251242D01*
X488813Y251731D01*
X489113Y252453D01*
X489215Y253228D01*
X489113Y254003D01*
X488813Y254725D01*
X488338Y255346D01*
X487717Y255821D01*
X486995Y256120D01*
X486221Y256223D01*
X485625Y256144D01*
X482814Y258956D01*
X482318Y259287D01*
X481732Y259403D01*
X466144D01*
X465992Y259903D01*
X466281Y260097D01*
X466807Y260883D01*
X466992Y261811D01*
X466948Y262029D01*
X608901Y403982D01*
X723055D01*
Y402012D01*
X736551D01*
Y409012D01*
X723055D01*
Y407041D01*
X608268D01*
X607682Y406925D01*
X607186Y406593D01*
X473206Y272613D01*
X472745Y272859D01*
X472897Y273622D01*
X472854Y273840D01*
X563188Y364175D01*
X563519Y364671D01*
X563636Y365256D01*
Y401309D01*
X564136Y401627D01*
X564665Y401522D01*
X565401Y401669D01*
X565945Y402032D01*
X566489Y401669D01*
X567224Y401522D01*
X567960Y401669D01*
X568584Y402085D01*
X569001Y402709D01*
X569147Y403445D01*
Y407185D01*
X569001Y407921D01*
X568584Y408545D01*
X567960Y408961D01*
X567224Y409108D01*
X566522Y408968D01*
X566412Y408971D01*
X566021Y409180D01*
Y409225D01*
X565911Y409782D01*
X565910Y409869D01*
X566166Y410282D01*
X600492D01*
X601077Y410398D01*
X601574Y410730D01*
X643206Y452362D01*
X722835D01*
X746008Y429188D01*
D02*
G37*
G36*
X638418Y451900D02*
X599859Y413340D01*
X583578D01*
X583387Y413802D01*
X621946Y452362D01*
X638227D01*
X638418Y451900D01*
D02*
G37*
G36*
X32622Y403768D02*
Y400139D01*
X27188Y394705D01*
X26726Y394897D01*
Y398579D01*
X32122Y403975D01*
X32622Y403768D01*
D02*
G37*
G36*
X208289Y252147D02*
X208785Y251815D01*
X209370Y251699D01*
X235934D01*
X236170Y251258D01*
X235949Y250928D01*
X235764Y250000D01*
X235949Y249072D01*
X236166Y248748D01*
Y232728D01*
X232371Y228933D01*
X232000D01*
X231953Y228964D01*
X231102Y229133D01*
X227756D01*
X226905Y228964D01*
X226183Y228482D01*
X226155Y228439D01*
X214275D01*
X206599Y236115D01*
X206627Y236182D01*
X206736Y237008D01*
X206627Y237834D01*
X206308Y238604D01*
X205801Y239265D01*
X205140Y239773D01*
X204370Y240092D01*
X203543Y240200D01*
X202717Y240092D01*
X201947Y239773D01*
X201286Y239265D01*
X200778Y238604D01*
X200751Y238537D01*
X176808D01*
X176781Y238604D01*
X176273Y239265D01*
X175612Y239773D01*
X174842Y240092D01*
X174016Y240200D01*
X173189Y240092D01*
X172419Y239773D01*
X171758Y239265D01*
X171251Y238604D01*
X171223Y238537D01*
X162441D01*
X161856Y238421D01*
X161360Y238089D01*
X153816Y230546D01*
X153582Y230643D01*
X152756Y230752D01*
X151930Y230643D01*
X151160Y230324D01*
X150498Y229817D01*
X149991Y229155D01*
X149672Y228385D01*
X149563Y227559D01*
X149672Y226733D01*
X149991Y225963D01*
X150498Y225302D01*
X151160Y224794D01*
X151930Y224475D01*
X152756Y224366D01*
X153582Y224475D01*
X154352Y224794D01*
X155014Y225302D01*
X155521Y225963D01*
X155840Y226733D01*
X155949Y227559D01*
X155856Y228260D01*
X163074Y235478D01*
X171223D01*
X171251Y235412D01*
X171758Y234750D01*
X172419Y234243D01*
X173189Y233924D01*
X174016Y233815D01*
X174842Y233924D01*
X175612Y234243D01*
X176273Y234750D01*
X176781Y235412D01*
X176808Y235478D01*
X200751D01*
X200778Y235412D01*
X201286Y234750D01*
X201947Y234243D01*
X202717Y233924D01*
X203543Y233815D01*
X204370Y233924D01*
X204437Y233952D01*
X212560Y225828D01*
X213056Y225497D01*
X213642Y225380D01*
X226155D01*
X226183Y225337D01*
X226905Y224855D01*
X227756Y224686D01*
X231102D01*
X231953Y224855D01*
X232000Y224886D01*
X232873D01*
X233080Y224386D01*
X232627Y223933D01*
X232000D01*
X231953Y223964D01*
X231102Y224133D01*
X227756D01*
X226905Y223964D01*
X226183Y223482D01*
X226155Y223439D01*
X204453D01*
X204370Y223924D01*
X205140Y224243D01*
X205801Y224750D01*
X206308Y225412D01*
X206627Y226182D01*
X206736Y227008D01*
X206627Y227834D01*
X206308Y228604D01*
X205801Y229265D01*
X205140Y229773D01*
X204370Y230092D01*
X203543Y230201D01*
X202717Y230092D01*
X201947Y229773D01*
X201286Y229265D01*
X200778Y228604D01*
X200751Y228537D01*
X196669D01*
Y230331D01*
X190732D01*
Y224197D01*
Y223084D01*
X186630D01*
Y224787D01*
Y230528D01*
X181087D01*
Y228537D01*
X176808D01*
X176781Y228604D01*
X176273Y229265D01*
X175612Y229773D01*
X174842Y230092D01*
X174016Y230201D01*
X173189Y230092D01*
X172419Y229773D01*
X171758Y229265D01*
X171251Y228604D01*
X170932Y227834D01*
X170823Y227008D01*
X170932Y226182D01*
X171251Y225412D01*
X171758Y224750D01*
X172419Y224243D01*
X173058Y223978D01*
X172959Y223478D01*
X157382D01*
X156797Y223362D01*
X156300Y223030D01*
X153816Y220546D01*
X153582Y220643D01*
X152756Y220752D01*
X151930Y220643D01*
X151160Y220324D01*
X150498Y219817D01*
X149991Y219155D01*
X149672Y218385D01*
X149563Y217559D01*
X149672Y216733D01*
X149991Y215963D01*
X150498Y215301D01*
X151160Y214794D01*
X151930Y214475D01*
X152756Y214366D01*
X153582Y214475D01*
X154352Y214794D01*
X155014Y215301D01*
X155521Y215963D01*
X155840Y216733D01*
X155949Y217559D01*
X155856Y218260D01*
X158015Y220419D01*
X181087D01*
Y219079D01*
X186630D01*
Y220026D01*
X190732D01*
Y218488D01*
X196669D01*
Y220380D01*
X226155D01*
X226183Y220337D01*
X226905Y219855D01*
X227756Y219686D01*
X231102D01*
X231953Y219855D01*
X232000Y219886D01*
X233465D01*
X234239Y220040D01*
X234895Y220479D01*
X244034Y229617D01*
X244534Y229410D01*
Y225428D01*
X244650Y224842D01*
X244982Y224346D01*
X247060Y222268D01*
X246989Y221909D01*
X247158Y221058D01*
X247640Y220337D01*
X248362Y219855D01*
X249213Y219686D01*
X252559D01*
X253410Y219855D01*
X254132Y220337D01*
X254614Y221058D01*
X254783Y221909D01*
X254614Y222761D01*
X254132Y223482D01*
X253410Y223964D01*
X252559Y224133D01*
X249987D01*
X249953Y224186D01*
X250220Y224686D01*
X250386D01*
Y226909D01*
Y229133D01*
X249213D01*
X248362Y228964D01*
X248092Y228784D01*
X247592Y229051D01*
Y229767D01*
X248092Y230035D01*
X248362Y229855D01*
X249213Y229686D01*
X252559D01*
X253410Y229855D01*
X254132Y230337D01*
X254160Y230380D01*
X290292D01*
X294588Y226084D01*
X295084Y225752D01*
X295669Y225636D01*
X303696D01*
X303942Y225136D01*
X303627Y224725D01*
X303328Y224003D01*
X303226Y223228D01*
X303328Y222453D01*
X303361Y222374D01*
X299426Y218439D01*
X254160D01*
X254132Y218482D01*
X253410Y218964D01*
X252559Y219133D01*
X249213D01*
X248362Y218964D01*
X247640Y218482D01*
X247158Y217760D01*
X246989Y216910D01*
X247158Y216058D01*
X247640Y215337D01*
X248362Y214855D01*
X249213Y214686D01*
X252559D01*
X253410Y214855D01*
X254132Y215337D01*
X254160Y215380D01*
X300059D01*
X300644Y215496D01*
X301140Y215828D01*
X305625Y220313D01*
X306221Y220234D01*
X306995Y220336D01*
X307717Y220635D01*
X308207Y221011D01*
X308707Y220827D01*
Y217720D01*
X307074Y216088D01*
X306995Y216120D01*
X306221Y216223D01*
X305446Y216120D01*
X304723Y215821D01*
X304103Y215346D01*
X303627Y214725D01*
X303328Y214003D01*
X303226Y213228D01*
X303328Y212453D01*
X303627Y211731D01*
X304103Y211111D01*
X304723Y210635D01*
X305446Y210336D01*
X306221Y210234D01*
X306995Y210336D01*
X307717Y210635D01*
X308338Y211111D01*
X308814Y211731D01*
X309113Y212453D01*
X309215Y213228D01*
X309136Y213824D01*
X311318Y216005D01*
X311649Y216501D01*
X311766Y217087D01*
Y218095D01*
X312228Y218287D01*
X314370Y216144D01*
Y215550D01*
X314103Y215346D01*
X313628Y214725D01*
X313328Y214003D01*
X313226Y213228D01*
X313328Y212453D01*
X313628Y211731D01*
X314103Y211111D01*
X314723Y210635D01*
X315445Y210336D01*
X316220Y210234D01*
X316995Y210336D01*
X317718Y210635D01*
X318338Y211111D01*
X318813Y211731D01*
X319113Y212453D01*
X319215Y213228D01*
X319113Y214003D01*
X318813Y214725D01*
X318338Y215346D01*
X317718Y215821D01*
X317429Y215941D01*
Y216778D01*
X317313Y217363D01*
X316981Y217859D01*
X314762Y220078D01*
X315045Y220502D01*
X315445Y220336D01*
X316220Y220234D01*
X316995Y220336D01*
X317718Y220635D01*
X318338Y221111D01*
X318813Y221731D01*
X319113Y222453D01*
X319215Y223228D01*
X319136Y223824D01*
X327853Y232541D01*
X328185Y233037D01*
X328301Y233622D01*
Y250787D01*
X386554D01*
X386745Y250325D01*
X381650Y245230D01*
X334515D01*
X334392Y245415D01*
X333605Y245941D01*
X332677Y246125D01*
X331749Y245941D01*
X330963Y245415D01*
X330437Y244629D01*
X330253Y243701D01*
X330437Y242773D01*
X330963Y241986D01*
X331749Y241461D01*
X332677Y241276D01*
X333605Y241461D01*
X334392Y241986D01*
X334515Y242171D01*
X382283D01*
X382869Y242288D01*
X382999Y242375D01*
X383555Y242145D01*
X383587Y241986D01*
X384112Y241199D01*
X384899Y240673D01*
X385092Y240635D01*
X385238Y240156D01*
X384012Y238931D01*
X337008D01*
X336423Y238814D01*
X335926Y238483D01*
X332895Y235452D01*
X332677Y235495D01*
X331749Y235311D01*
X330963Y234785D01*
X330437Y233999D01*
X330253Y233071D01*
X330437Y232143D01*
X330963Y231357D01*
X331749Y230831D01*
X332677Y230646D01*
X333605Y230831D01*
X334392Y231357D01*
X334917Y232143D01*
X335102Y233071D01*
X335058Y233289D01*
X337641Y235872D01*
X383916D01*
X384107Y235410D01*
X336886Y188189D01*
X314128D01*
Y190462D01*
X314218Y190545D01*
X314590Y190738D01*
X314723Y190635D01*
X315445Y190336D01*
X316220Y190234D01*
X316995Y190336D01*
X317718Y190635D01*
X318338Y191111D01*
X318813Y191731D01*
X318833Y191778D01*
X330839D01*
X330963Y191593D01*
X331749Y191067D01*
X332677Y190883D01*
X333605Y191067D01*
X334392Y191593D01*
X334917Y192379D01*
X335102Y193307D01*
X334917Y194235D01*
X334392Y195021D01*
X333605Y195547D01*
X332677Y195732D01*
X331749Y195547D01*
X330963Y195021D01*
X330839Y194836D01*
X318728D01*
X318338Y195345D01*
X317718Y195821D01*
X316995Y196121D01*
X316220Y196222D01*
X315445Y196121D01*
X314723Y195821D01*
X314103Y195345D01*
X313628Y194725D01*
X313328Y194003D01*
X313226Y193228D01*
X313300Y192667D01*
X312827Y192434D01*
X310950Y194310D01*
X310454Y194641D01*
X309869Y194758D01*
X308789D01*
X308338Y195345D01*
X307717Y195821D01*
X306995Y196121D01*
X306221Y196222D01*
X305446Y196121D01*
X304723Y195821D01*
X304103Y195345D01*
X303627Y194725D01*
X303328Y194003D01*
X303226Y193228D01*
X303328Y192453D01*
X303627Y191731D01*
X304103Y191111D01*
X304723Y190635D01*
X305446Y190336D01*
X306221Y190234D01*
X306995Y190336D01*
X307717Y190635D01*
X308338Y191111D01*
X308754Y191654D01*
X309260Y191674D01*
X311069Y189865D01*
Y188189D01*
X288189D01*
X282283Y194095D01*
X276378Y188189D01*
X214701D01*
X214892Y187727D01*
X205073Y177907D01*
X182917D01*
X173097Y187727D01*
X173289Y188189D01*
X172635D01*
X33419Y327405D01*
Y362642D01*
X37347D01*
Y361417D01*
X37501Y360643D01*
X37940Y359987D01*
X41483Y356444D01*
X42139Y356005D01*
X42913Y355851D01*
X50322D01*
X50647Y355634D01*
X51575Y355450D01*
X52503Y355634D01*
X53289Y356160D01*
X53815Y356946D01*
X53999Y357874D01*
X53815Y358802D01*
X53289Y359588D01*
X52503Y360114D01*
X51575Y360299D01*
X50647Y360114D01*
X50322Y359897D01*
X43751D01*
X41507Y362142D01*
X41667Y362642D01*
X46118D01*
Y369642D01*
X33419D01*
Y372989D01*
X34883Y374453D01*
X46118D01*
Y381453D01*
X32622D01*
Y376517D01*
X31598Y375493D01*
X31136Y375684D01*
Y382516D01*
X34883Y386264D01*
X45715D01*
Y385039D01*
X45831Y384454D01*
X46163Y383958D01*
X50850Y379270D01*
Y374453D01*
X64346D01*
Y381453D01*
X52994D01*
X48774Y385673D01*
Y392505D01*
X49235Y392696D01*
X50850Y391081D01*
Y386264D01*
X64346D01*
Y393264D01*
X52994D01*
X50774Y395484D01*
Y397607D01*
X50850Y398075D01*
X62361D01*
X208289Y252147D01*
D02*
G37*
G36*
X45715Y393264D02*
X32622D01*
Y388328D01*
X29550Y385257D01*
X29089Y385448D01*
Y392280D01*
X34883Y398075D01*
X45715D01*
Y393264D01*
D02*
G37*
G36*
X772835Y402362D02*
X772835Y366640D01*
X772386Y366419D01*
X772109Y366632D01*
X770712Y367210D01*
X769213Y367408D01*
X767713Y367210D01*
X766316Y366632D01*
X765116Y365711D01*
X764823Y365330D01*
X764350Y365491D01*
Y393378D01*
X768261Y397290D01*
X768644Y397366D01*
X769431Y397892D01*
X769956Y398678D01*
X770141Y399606D01*
X769956Y400534D01*
X769431Y401321D01*
X768644Y401846D01*
X767717Y402031D01*
X766789Y401846D01*
X766002Y401321D01*
X765477Y400534D01*
X765400Y400151D01*
X761540Y396291D01*
X761078Y396482D01*
Y413465D01*
X761540Y413657D01*
X772835Y402362D01*
D02*
G37*
G36*
X23667Y398410D02*
Y360666D01*
X23508Y360634D01*
X23167Y360625D01*
X22286Y361774D01*
X21086Y362695D01*
X19689Y363273D01*
X18189Y363471D01*
X16690Y363273D01*
X15292Y362695D01*
X14092Y361774D01*
X13447Y360933D01*
X12947Y361102D01*
Y388343D01*
X23205Y398602D01*
X23667Y398410D01*
D02*
G37*
G36*
X23508Y354720D02*
X23667Y354689D01*
Y323228D01*
X23784Y322643D01*
X24115Y322147D01*
X157611Y188651D01*
X157420Y188189D01*
X158073D01*
X186714Y159548D01*
X183419Y156254D01*
X181342D01*
X149869Y187727D01*
X150060Y188189D01*
X149407D01*
X12947Y324649D01*
Y354252D01*
X13447Y354422D01*
X14092Y353580D01*
X15292Y352660D01*
X16690Y352081D01*
X18189Y351884D01*
X19689Y352081D01*
X21086Y352660D01*
X22286Y353580D01*
X23167Y354730D01*
X23508Y354720D01*
D02*
G37*
G36*
X560577Y366422D02*
Y365889D01*
X470691Y276003D01*
X470472Y276047D01*
X470201Y275993D01*
X469955Y276453D01*
X560115Y366614D01*
X560577Y366422D01*
D02*
G37*
G36*
X228097Y270617D02*
X228868Y269846D01*
X228864Y269774D01*
X228708Y269346D01*
X228003D01*
X58714Y438635D01*
X59396Y439318D01*
X228097Y270617D01*
D02*
G37*
G36*
X225203Y261798D02*
X225860Y261359D01*
X226634Y261205D01*
X300630D01*
X301405Y261359D01*
X302061Y261798D01*
X302866Y262603D01*
X303356Y262386D01*
X303627Y261731D01*
X304103Y261111D01*
X304723Y260635D01*
X305446Y260336D01*
X306221Y260234D01*
X306995Y260336D01*
X307717Y260635D01*
X308338Y261111D01*
X308814Y261731D01*
X309113Y262453D01*
X309215Y263228D01*
X309113Y264003D01*
X308841Y264658D01*
X309034Y265158D01*
X311922D01*
X313299Y263781D01*
X313226Y263228D01*
X313242Y263111D01*
X309987Y259856D01*
X309548Y259199D01*
X309394Y258425D01*
Y254630D01*
X308894Y254531D01*
X308814Y254725D01*
X308338Y255346D01*
X307717Y255821D01*
X306995Y256120D01*
X306221Y256223D01*
X305446Y256120D01*
X304723Y255821D01*
X304103Y255346D01*
X303652Y254758D01*
X210004D01*
X64346Y400415D01*
Y405075D01*
X50850D01*
X50657Y405484D01*
X50326Y405980D01*
X47350Y408955D01*
X46854Y409287D01*
X46269Y409403D01*
X46161D01*
X46118Y409886D01*
X46118D01*
Y416886D01*
X41787D01*
Y421708D01*
X53540Y433461D01*
X225203Y261798D01*
D02*
G37*
G36*
X316721Y250300D02*
X316995Y250336D01*
X317262Y250447D01*
X317545Y250023D01*
X315297Y247774D01*
X314965Y247278D01*
X314849Y246693D01*
Y245873D01*
X314723Y245821D01*
X314103Y245345D01*
X313628Y244725D01*
X313328Y244003D01*
X313226Y243228D01*
X313328Y242453D01*
X313628Y241731D01*
X314103Y241111D01*
X314723Y240635D01*
X315445Y240336D01*
X316220Y240234D01*
X316995Y240336D01*
X317718Y240635D01*
X318338Y241111D01*
X318813Y241731D01*
X319113Y242453D01*
X319215Y243228D01*
X319113Y244003D01*
X318813Y244725D01*
X318338Y245345D01*
X318006Y245600D01*
X317982Y246134D01*
X320418Y248570D01*
X320880Y248379D01*
Y242728D01*
X317477Y239325D01*
X315354D01*
X314769Y239208D01*
X314273Y238877D01*
X311517Y236121D01*
X311186Y235625D01*
X311069Y235039D01*
Y227574D01*
X310607Y227382D01*
X309743Y228247D01*
X309247Y228578D01*
X308661Y228695D01*
X296303D01*
X292007Y232991D01*
X291511Y233322D01*
X290925Y233439D01*
X254160D01*
X254132Y233482D01*
X253410Y233964D01*
X252559Y234133D01*
X249213D01*
X248362Y233964D01*
X248092Y233784D01*
X247592Y234051D01*
Y234691D01*
X268307D01*
X268892Y234807D01*
X269389Y235139D01*
X274293Y240043D01*
X278165D01*
Y241581D01*
X281874D01*
Y240339D01*
X287417D01*
Y245685D01*
X281874D01*
Y244640D01*
X278165D01*
Y245949D01*
Y248516D01*
X275197D01*
X272228D01*
Y245949D01*
Y242305D01*
X267674Y237750D01*
X246649D01*
X246063Y237633D01*
X245567Y237302D01*
X245437Y237171D01*
X244936Y237378D01*
Y248748D01*
X245153Y249072D01*
X245338Y250000D01*
X245153Y250928D01*
X244933Y251258D01*
X245168Y251699D01*
X272228D01*
Y249516D01*
X275197D01*
X278165D01*
Y250787D01*
Y251699D01*
X281874D01*
Y250787D01*
Y246441D01*
X287417D01*
Y247091D01*
X308563D01*
X309337Y247245D01*
X309994Y247684D01*
X312848Y250538D01*
X313286Y251194D01*
X313312Y251321D01*
X313846Y251446D01*
X314103Y251111D01*
X314723Y250635D01*
X315445Y250336D01*
X315721Y250300D01*
Y253228D01*
X316721D01*
Y250300D01*
D02*
G37*
G36*
X474780Y255845D02*
X474723Y255821D01*
X474103Y255346D01*
X473628Y254725D01*
X473328Y254003D01*
X473226Y253228D01*
X473328Y252453D01*
X473628Y251731D01*
X474103Y251111D01*
X474723Y250635D01*
X475446Y250336D01*
X476221Y250234D01*
X476995Y250336D01*
X477074Y250369D01*
X479306Y248138D01*
X479305Y248109D01*
X479151Y247638D01*
X492188D01*
X492033Y248109D01*
X492033Y248138D01*
X495594Y251699D01*
X634388D01*
X634580Y251237D01*
X630980Y247638D01*
X630327D01*
X630519Y247176D01*
X618101Y234758D01*
X488789D01*
X488338Y235346D01*
X487717Y235821D01*
X486995Y236120D01*
X486221Y236223D01*
X485445Y236120D01*
X484723Y235821D01*
X484103Y235346D01*
X483628Y234725D01*
X483328Y234003D01*
X483226Y233228D01*
X483328Y232453D01*
X483603Y231789D01*
X483438Y231346D01*
X483410Y231289D01*
X480323D01*
X479118Y232494D01*
X479215Y233228D01*
X479113Y234003D01*
X478814Y234725D01*
X478338Y235346D01*
X477717Y235821D01*
X476995Y236120D01*
X476221Y236223D01*
X475446Y236120D01*
X474723Y235821D01*
X474103Y235346D01*
X473628Y234725D01*
X473328Y234003D01*
X473226Y233228D01*
X473328Y232453D01*
X473628Y231731D01*
X474103Y231111D01*
X474723Y230635D01*
X475446Y230336D01*
X476221Y230234D01*
X476955Y230331D01*
X478608Y228678D01*
X479104Y228347D01*
X479689Y228231D01*
X482107D01*
X482299Y227768D01*
X479627Y225097D01*
X479364Y224703D01*
X478982Y224677D01*
X478817Y224716D01*
X478814Y224725D01*
X478338Y225345D01*
X477717Y225821D01*
X476995Y226120D01*
X476221Y226222D01*
X475446Y226120D01*
X474723Y225821D01*
X474103Y225345D01*
X473652Y224758D01*
X457132D01*
X440653Y241237D01*
X440844Y241699D01*
X473652D01*
X474103Y241111D01*
X474723Y240635D01*
X475446Y240336D01*
X476221Y240234D01*
X476995Y240336D01*
X477717Y240635D01*
X478338Y241111D01*
X478814Y241731D01*
X479113Y242453D01*
X479215Y243228D01*
X479113Y244003D01*
X478814Y244725D01*
X478338Y245345D01*
X477717Y245821D01*
X476995Y246120D01*
X476221Y246222D01*
X475446Y246120D01*
X474723Y245821D01*
X474103Y245345D01*
X473652Y244758D01*
X437132D01*
X437008Y244882D01*
Y247638D01*
X428763Y255883D01*
X428954Y256345D01*
X474680D01*
X474780Y255845D01*
D02*
G37*
G36*
X398054Y246041D02*
X397849Y245538D01*
X397104Y245390D01*
X396317Y244864D01*
X395792Y244077D01*
X395607Y243150D01*
X395792Y242222D01*
X396317Y241435D01*
X397104Y240910D01*
X398031Y240725D01*
X398959Y240910D01*
X399746Y241435D01*
X399922Y241699D01*
X402395D01*
X418875Y225220D01*
X418683Y224758D01*
X406299D01*
X405714Y224641D01*
X405218Y224310D01*
X369097Y188189D01*
X341865D01*
X341674Y188651D01*
X389289Y236266D01*
X395800D01*
X395923Y236081D01*
X396710Y235555D01*
X397638Y235371D01*
X398566Y235555D01*
X399352Y236081D01*
X399878Y236867D01*
X400062Y237795D01*
X399878Y238723D01*
X399352Y239510D01*
X398566Y240035D01*
X397638Y240220D01*
X396710Y240035D01*
X395923Y239510D01*
X395800Y239325D01*
X389385D01*
X389194Y239787D01*
X396751Y247344D01*
X398054Y246041D01*
D02*
G37*
G36*
X325242Y235812D02*
Y234256D01*
X317074Y226088D01*
X316995Y226120D01*
X316220Y226222D01*
X315445Y226120D01*
X314723Y225821D01*
X314576Y225708D01*
X314128Y225930D01*
Y230527D01*
X314576Y230748D01*
X314723Y230635D01*
X315445Y230336D01*
X316220Y230234D01*
X316995Y230336D01*
X317718Y230635D01*
X318338Y231111D01*
X318789Y231699D01*
X319843D01*
X320428Y231815D01*
X320924Y232147D01*
X324780Y236003D01*
X325242Y235812D01*
D02*
G37*
G36*
X474103Y221111D02*
X474723Y220635D01*
X475446Y220336D01*
X476221Y220234D01*
X476995Y220336D01*
X477717Y220635D01*
X478338Y221111D01*
X478679Y221556D01*
X479179Y221387D01*
Y218350D01*
X476955Y216126D01*
X476221Y216223D01*
X475446Y216120D01*
X474723Y215821D01*
X474103Y215346D01*
X473628Y214725D01*
X473328Y214003D01*
X473226Y213228D01*
X473328Y212453D01*
X473628Y211731D01*
X473793Y211516D01*
X473546Y211016D01*
X470874D01*
X460653Y221237D01*
X460844Y221699D01*
X473652D01*
X474103Y221111D01*
D02*
G37*
G36*
X422441Y221654D02*
Y211016D01*
X410309D01*
X410259Y211516D01*
X410377Y211540D01*
X411163Y212065D01*
X411689Y212852D01*
X411774Y213280D01*
X407124D01*
X407209Y212852D01*
X407734Y212065D01*
X408521Y211540D01*
X408638Y211516D01*
X408589Y211016D01*
X396957D01*
X396834Y211179D01*
X396728Y211494D01*
X406933Y221699D01*
X422396D01*
X422441Y221654D01*
D02*
G37*
G36*
Y188189D02*
X383131D01*
X382940Y188651D01*
X400240Y205951D01*
X422441D01*
Y188189D01*
D02*
G37*
G36*
X201552Y174387D02*
X196411Y169246D01*
X187933D01*
X182792Y174387D01*
X182984Y174849D01*
X201361D01*
X201552Y174387D01*
D02*
G37*
G36*
X765116Y357517D02*
X766316Y356597D01*
X767713Y356018D01*
X769213Y355820D01*
X770712Y356018D01*
X772109Y356597D01*
X772386Y356809D01*
X772835Y356588D01*
Y347244D01*
X673228Y247638D01*
X672835D01*
Y247244D01*
X673228Y247638D01*
X776772Y144095D01*
Y27945D01*
X776356Y27667D01*
X775625Y27970D01*
X773664Y28440D01*
X772154Y28559D01*
Y15748D01*
X771654D01*
Y15248D01*
X758842D01*
X758961Y13738D01*
X759432Y11777D01*
X760003Y10397D01*
X754724Y5118D01*
X659032Y100810D01*
Y105951D01*
X665748D01*
X666333Y106067D01*
X666829Y106399D01*
X673129Y112698D01*
X673460Y113194D01*
X673577Y113779D01*
Y115091D01*
X673762Y115215D01*
X674287Y116001D01*
X674472Y116929D01*
X674287Y117857D01*
X673762Y118643D01*
X672975Y119169D01*
X672047Y119354D01*
X671119Y119169D01*
X670333Y118643D01*
X669807Y117857D01*
X669623Y116929D01*
X669807Y116001D01*
X670333Y115215D01*
X670518Y115091D01*
Y114413D01*
X665114Y109010D01*
X662613D01*
X662422Y109472D01*
X663168Y110217D01*
X663386Y110174D01*
X664314Y110358D01*
X665100Y110884D01*
X665626Y111671D01*
X665810Y112598D01*
X665729Y113010D01*
X665626Y113526D01*
X665100Y114313D01*
X664314Y114838D01*
X663386Y115023D01*
X662458Y114838D01*
X661671Y114313D01*
X661146Y113526D01*
X660961Y112598D01*
X661005Y112380D01*
X659634Y111010D01*
X654893D01*
X654625Y111510D01*
X654996Y112064D01*
X655181Y112992D01*
X654996Y113920D01*
X654470Y114707D01*
X653684Y115232D01*
X652756Y115417D01*
X651828Y115232D01*
X651042Y114707D01*
X650516Y113920D01*
X650335Y113010D01*
X568880D01*
X500653Y181237D01*
X500844Y181699D01*
X614170Y181699D01*
X629716Y166153D01*
X629386Y165776D01*
X629105Y165991D01*
X628407Y166280D01*
X627658Y166379D01*
X626908Y166280D01*
X626210Y165991D01*
X625610Y165531D01*
X625150Y164932D01*
X624861Y164234D01*
X624763Y163484D01*
X624861Y162735D01*
X625150Y162037D01*
X625610Y161437D01*
X626210Y160977D01*
X626908Y160688D01*
X627658Y160589D01*
X628407Y160688D01*
X629105Y160977D01*
X629704Y161437D01*
X630164Y162037D01*
X630454Y162735D01*
X630552Y163484D01*
X630454Y164234D01*
X630164Y164932D01*
X629949Y165213D01*
X630326Y165543D01*
X635872Y159996D01*
Y127035D01*
X635687Y126911D01*
X635162Y126125D01*
X634977Y125197D01*
X635162Y124269D01*
X635687Y123482D01*
X636474Y122957D01*
X637402Y122772D01*
X638329Y122957D01*
X639116Y123482D01*
X639317Y123783D01*
X639817D01*
X640018Y123482D01*
X640804Y122957D01*
X641732Y122772D01*
X642660Y122957D01*
X643447Y123482D01*
X643972Y124269D01*
X644157Y125197D01*
X643972Y126125D01*
X643447Y126911D01*
X643262Y127035D01*
Y159128D01*
X643145Y159713D01*
X642814Y160209D01*
X616713Y186310D01*
X616217Y186641D01*
X615632Y186758D01*
X495132D01*
X489150Y192739D01*
X489215Y193228D01*
X489113Y194003D01*
X488813Y194725D01*
X488338Y195345D01*
X488125Y195508D01*
X488295Y196008D01*
X602362D01*
X603136Y196162D01*
X603793Y196601D01*
X654830Y247638D01*
X655483D01*
X655292Y248100D01*
X763757Y356565D01*
X764196Y357222D01*
X764302Y357756D01*
X764837Y357881D01*
X765116Y357517D01*
D02*
G37*
G36*
X640203Y158494D02*
Y127035D01*
X640018Y126911D01*
X639817Y126611D01*
X639317D01*
X639116Y126911D01*
X638931Y127035D01*
Y159113D01*
X639393Y159304D01*
X640203Y158494D01*
D02*
G37*
G36*
X659032Y105489D02*
X656693Y103150D01*
X578740D01*
X576401Y105489D01*
X576592Y105951D01*
X658841D01*
X659032Y105489D01*
D02*
G37*
G36*
X144619Y188651D02*
X144428Y188189D01*
X145081D01*
X179627Y153643D01*
X179911Y153453D01*
X180025Y152860D01*
X33071Y5906D01*
X27744Y11232D01*
X27970Y11777D01*
X28440Y13738D01*
X28559Y15248D01*
X15748D01*
Y15748D01*
X15248D01*
Y28559D01*
X13738Y28440D01*
X11777Y27970D01*
X11232Y27744D01*
X8268Y30709D01*
Y142520D01*
X53937Y188189D01*
X11811Y230315D01*
Y320806D01*
X12273Y320997D01*
X144619Y188651D01*
D02*
G37*
%LPC*%
G36*
X374760Y754779D02*
X371760D01*
Y748531D01*
X374760D01*
Y754779D01*
D02*
G37*
G36*
X370760D02*
X367760D01*
Y748531D01*
X370760D01*
Y754779D01*
D02*
G37*
G36*
X363492Y750357D02*
Y748531D01*
X365317D01*
X365232Y748959D01*
X364706Y749746D01*
X363920Y750272D01*
X363492Y750357D01*
D02*
G37*
G36*
X362492D02*
X362064Y750272D01*
X361278Y749746D01*
X360752Y748959D01*
X360667Y748531D01*
X362492D01*
Y750357D01*
D02*
G37*
G36*
X365317Y747532D02*
X363492D01*
Y745706D01*
X363920Y745791D01*
X364706Y746317D01*
X365232Y747104D01*
X365317Y747532D01*
D02*
G37*
G36*
X362492D02*
X360667D01*
X360752Y747104D01*
X361278Y746317D01*
X362064Y745791D01*
X362492Y745706D01*
Y747532D01*
D02*
G37*
G36*
X374760Y747532D02*
X371760D01*
Y741284D01*
X374760D01*
Y747532D01*
D02*
G37*
G36*
X370760D02*
X367760D01*
Y741284D01*
X370760D01*
Y747532D01*
D02*
G37*
G36*
X125303Y716892D02*
Y715067D01*
X127128D01*
X127043Y715495D01*
X126518Y716281D01*
X125731Y716807D01*
X125303Y716892D01*
D02*
G37*
G36*
X124303D02*
X123875Y716807D01*
X123089Y716281D01*
X122563Y715495D01*
X122478Y715067D01*
X124303D01*
Y716892D01*
D02*
G37*
G36*
X127128Y714067D02*
X125303D01*
Y712242D01*
X125731Y712327D01*
X126518Y712852D01*
X127043Y713639D01*
X127128Y714067D01*
D02*
G37*
G36*
X124303D02*
X122478D01*
X122563Y713639D01*
X123089Y712852D01*
X123875Y712327D01*
X124303Y712242D01*
Y714067D01*
D02*
G37*
G36*
X202403Y685419D02*
X177512D01*
X177433Y685403D01*
X172850D01*
X172265Y685287D01*
X171769Y684956D01*
X165966Y679153D01*
X165748Y679196D01*
X164820Y679012D01*
X164034Y678486D01*
X163508Y677700D01*
X163323Y676772D01*
X163508Y675844D01*
X163676Y675592D01*
X163440Y675151D01*
X160082D01*
X158680Y676553D01*
X158724Y676772D01*
X158539Y677700D01*
X158014Y678486D01*
X157227Y679012D01*
X156299Y679196D01*
X155371Y679012D01*
X154585Y678486D01*
X154059Y677700D01*
X153875Y676772D01*
X154059Y675844D01*
X154585Y675057D01*
X155371Y674532D01*
X156299Y674347D01*
X156518Y674391D01*
X158367Y672541D01*
X158863Y672209D01*
X159449Y672093D01*
X171260D01*
X171845Y672209D01*
X172341Y672541D01*
X180161Y680360D01*
X200941D01*
X220912Y660390D01*
Y492043D01*
X218685D01*
Y485713D01*
X226197D01*
Y492043D01*
X223970D01*
Y659507D01*
X224432Y659698D01*
X240597Y643534D01*
Y492043D01*
X238370D01*
Y485713D01*
X245882D01*
Y492043D01*
X243655D01*
Y644167D01*
X243539Y644752D01*
X243207Y645248D01*
X203485Y684971D01*
X202989Y685303D01*
X202403Y685419D01*
D02*
G37*
G36*
X195669Y679196D02*
X194741Y679012D01*
X193955Y678486D01*
X193429Y677700D01*
X193245Y676772D01*
X193429Y675844D01*
X193955Y675057D01*
X194140Y674934D01*
Y672681D01*
X139076Y617617D01*
X138744Y617121D01*
X138628Y616535D01*
Y492043D01*
X136402D01*
Y485713D01*
X143913D01*
Y492043D01*
X141687D01*
Y615902D01*
X196751Y670966D01*
X197082Y671462D01*
X197199Y672047D01*
Y674934D01*
X197384Y675057D01*
X197909Y675844D01*
X198094Y676772D01*
X197909Y677700D01*
X197384Y678486D01*
X196597Y679012D01*
X195669Y679196D01*
D02*
G37*
G36*
X185433D02*
X184505Y679012D01*
X183719Y678486D01*
X183193Y677700D01*
X183009Y676772D01*
X183193Y675844D01*
X183719Y675057D01*
X183904Y674934D01*
Y672444D01*
X118997Y607538D01*
X118666Y607042D01*
X118549Y606457D01*
Y492043D01*
X116323D01*
Y485713D01*
X123835D01*
Y492043D01*
X121608D01*
Y605823D01*
X186514Y670730D01*
X186846Y671226D01*
X186962Y671811D01*
Y674934D01*
X187147Y675057D01*
X187673Y675844D01*
X187858Y676772D01*
X187673Y677700D01*
X187147Y678486D01*
X186361Y679012D01*
X185433Y679196D01*
D02*
G37*
G36*
X226961Y412158D02*
X226725Y412111D01*
X226181Y411748D01*
X225637Y412111D01*
X225402Y412158D01*
Y408465D01*
Y404771D01*
X225637Y404818D01*
X226181Y405181D01*
X226725Y404818D01*
X226961Y404771D01*
Y408465D01*
Y412158D01*
D02*
G37*
G36*
X385622Y410189D02*
X385386Y410143D01*
X384842Y409779D01*
X384299Y410143D01*
X384063Y410189D01*
Y406496D01*
Y402803D01*
X384299Y402850D01*
X384842Y403213D01*
X385386Y402850D01*
X385622Y402803D01*
Y406496D01*
Y410189D01*
D02*
G37*
G36*
X218610Y410987D02*
Y409161D01*
X220435D01*
X220350Y409589D01*
X219825Y410376D01*
X219038Y410901D01*
X218610Y410987D01*
D02*
G37*
G36*
X217610D02*
X217182Y410901D01*
X216396Y410376D01*
X215870Y409589D01*
X215785Y409161D01*
X217610D01*
Y410987D01*
D02*
G37*
G36*
X224402Y412158D02*
X224166Y412111D01*
X223542Y411694D01*
X223125Y411070D01*
X222979Y410335D01*
Y408965D01*
X224402D01*
Y412158D01*
D02*
G37*
G36*
X383063Y410189D02*
X382827Y410143D01*
X382203Y409726D01*
X381787Y409102D01*
X381640Y408366D01*
Y406996D01*
X383063D01*
Y410189D01*
D02*
G37*
G36*
X220435Y408161D02*
X218610D01*
Y406336D01*
X219038Y406421D01*
X219825Y406947D01*
X220350Y407734D01*
X220435Y408161D01*
D02*
G37*
G36*
X217610D02*
X215785D01*
X215870Y407734D01*
X216396Y406947D01*
X217182Y406421D01*
X217610Y406336D01*
Y408161D01*
D02*
G37*
G36*
X224402Y407965D02*
X222979D01*
Y406595D01*
X223125Y405859D01*
X223542Y405235D01*
X224166Y404818D01*
X224402Y404771D01*
Y407965D01*
D02*
G37*
G36*
X383063Y405996D02*
X381640D01*
Y404626D01*
X381787Y403890D01*
X382203Y403266D01*
X382827Y402850D01*
X383063Y402803D01*
Y405996D01*
D02*
G37*
G36*
X548811Y404815D02*
X547388D01*
Y403445D01*
X547535Y402709D01*
X547951Y402085D01*
X548575Y401669D01*
X548811Y401622D01*
Y404815D01*
D02*
G37*
G36*
X218610Y296813D02*
Y294988D01*
X220435D01*
X220350Y295416D01*
X219825Y296203D01*
X219038Y296728D01*
X218610Y296813D01*
D02*
G37*
G36*
X217610D02*
X217182Y296728D01*
X216396Y296203D01*
X215870Y295416D01*
X215785Y294988D01*
X217610D01*
Y296813D01*
D02*
G37*
G36*
X220435Y293988D02*
X218610D01*
Y292163D01*
X219038Y292248D01*
X219825Y292774D01*
X220350Y293560D01*
X220435Y293988D01*
D02*
G37*
G36*
X217610D02*
X215785D01*
X215870Y293560D01*
X216396Y292774D01*
X217182Y292248D01*
X217610Y292163D01*
Y293988D01*
D02*
G37*
%LPD*%
G36*
X177320Y681845D02*
X170626Y675151D01*
X168056D01*
X167820Y675592D01*
X167988Y675844D01*
X168173Y676772D01*
X168129Y676990D01*
X173484Y682345D01*
X177112D01*
X177320Y681845D01*
D02*
G37*
%LPC*%
G36*
X119791Y779490D02*
Y777665D01*
X121616D01*
X121531Y778093D01*
X121006Y778880D01*
X120219Y779405D01*
X119791Y779490D01*
D02*
G37*
G36*
X118791D02*
X118363Y779405D01*
X117577Y778880D01*
X117051Y778093D01*
X116966Y777665D01*
X118791D01*
Y779490D01*
D02*
G37*
G36*
X121616Y776665D02*
X119791D01*
Y774840D01*
X120219Y774925D01*
X121006Y775451D01*
X121531Y776237D01*
X121616Y776665D01*
D02*
G37*
G36*
X118791D02*
X116966D01*
X117051Y776237D01*
X117577Y775451D01*
X118363Y774925D01*
X118791Y774840D01*
Y776665D01*
D02*
G37*
G36*
X426929Y774987D02*
X425430Y774789D01*
X424032Y774210D01*
X422832Y773290D01*
X421912Y772090D01*
X421333Y770692D01*
X421136Y769193D01*
X421333Y767693D01*
X421912Y766296D01*
X422832Y765096D01*
X424032Y764176D01*
X425430Y763597D01*
X426929Y763399D01*
X428429Y763597D01*
X429826Y764176D01*
X431026Y765096D01*
X431947Y766296D01*
X432525Y767693D01*
X432723Y769193D01*
X432525Y770692D01*
X431947Y772090D01*
X431026Y773290D01*
X429826Y774210D01*
X428429Y774789D01*
X426929Y774987D01*
D02*
G37*
G36*
X771153Y771153D02*
X758842D01*
X758961Y769643D01*
X759432Y767683D01*
X760204Y765820D01*
X761257Y764100D01*
X762567Y762567D01*
X764100Y761257D01*
X765820Y760204D01*
X767683Y759432D01*
X769643Y758961D01*
X771153Y758842D01*
Y771153D01*
D02*
G37*
G36*
X28559D02*
X16248D01*
Y758842D01*
X17758Y758961D01*
X19719Y759432D01*
X21582Y760204D01*
X23301Y761257D01*
X24835Y762567D01*
X26144Y764100D01*
X27198Y765820D01*
X27970Y767683D01*
X28440Y769643D01*
X28559Y771153D01*
D02*
G37*
G36*
X633465Y682238D02*
X618504D01*
X617919Y682122D01*
X617422Y681790D01*
X615179Y679546D01*
X614961Y679590D01*
X614033Y679405D01*
X613246Y678880D01*
X612721Y678093D01*
X612536Y677165D01*
X612721Y676237D01*
X613246Y675451D01*
X614033Y674925D01*
X614961Y674741D01*
X615889Y674925D01*
X616675Y675451D01*
X617201Y676237D01*
X617385Y677165D01*
X617342Y677384D01*
X619137Y679179D01*
X623493D01*
X623742Y678679D01*
X623351Y678093D01*
X623166Y677165D01*
X623351Y676237D01*
X623876Y675451D01*
X624061Y675327D01*
Y666929D01*
X624178Y666344D01*
X624509Y665848D01*
X648864Y641493D01*
X648864Y492437D01*
X646638D01*
Y486106D01*
X654150D01*
Y492437D01*
X651923D01*
X651923Y642126D01*
X651807Y642711D01*
X651475Y643207D01*
X627120Y667563D01*
Y675327D01*
X627305Y675451D01*
X627831Y676237D01*
X628015Y677165D01*
X627831Y678093D01*
X627439Y678679D01*
X627688Y679179D01*
X632831D01*
X670518Y641493D01*
Y492437D01*
X667898D01*
Y486106D01*
X675409D01*
Y492437D01*
X673577D01*
Y642126D01*
X673460Y642711D01*
X673129Y643207D01*
X634546Y681790D01*
X634050Y682122D01*
X633465Y682238D01*
D02*
G37*
G36*
X615748Y519747D02*
X614820Y519563D01*
X614034Y519037D01*
X613508Y518251D01*
X613323Y517323D01*
X613508Y516395D01*
X614034Y515608D01*
X614219Y515485D01*
Y503051D01*
X614335Y502466D01*
X614667Y501970D01*
X626953Y489684D01*
Y486106D01*
X634465D01*
Y492437D01*
X628525D01*
X617277Y503685D01*
Y515485D01*
X617462Y515608D01*
X617988Y516395D01*
X618173Y517323D01*
X617988Y518251D01*
X617462Y519037D01*
X616676Y519563D01*
X615748Y519747D01*
D02*
G37*
G36*
X605512D02*
X604584Y519563D01*
X603797Y519037D01*
X603272Y518251D01*
X603087Y517323D01*
X603272Y516395D01*
X603797Y515608D01*
X603982Y515485D01*
Y495177D01*
X604099Y494592D01*
X604430Y494096D01*
X607661Y490865D01*
Y486106D01*
X615173D01*
Y492437D01*
X610415D01*
X607041Y495811D01*
Y515485D01*
X607226Y515608D01*
X607752Y516395D01*
X607936Y517323D01*
X607752Y518251D01*
X607226Y519037D01*
X606440Y519563D01*
X605512Y519747D01*
D02*
G37*
G36*
X595276D02*
X594348Y519563D01*
X593561Y519037D01*
X593036Y518251D01*
X592851Y517323D01*
X593036Y516395D01*
X593561Y515608D01*
X593746Y515485D01*
Y493448D01*
X592735Y492437D01*
X587189D01*
Y486106D01*
X594701D01*
Y490077D01*
X596357Y491734D01*
X596689Y492230D01*
X596805Y492815D01*
Y515485D01*
X596990Y515608D01*
X597516Y516395D01*
X597700Y517323D01*
X597516Y518251D01*
X596990Y519037D01*
X596203Y519563D01*
X595276Y519747D01*
D02*
G37*
G36*
X606299Y679590D02*
X605371Y679405D01*
X604585Y678880D01*
X604059Y678093D01*
X603875Y677165D01*
X604059Y676237D01*
X604585Y675451D01*
X604614Y674887D01*
X570178Y640451D01*
X569847Y639955D01*
X569731Y639370D01*
Y492437D01*
X567504D01*
Y486106D01*
X575016D01*
Y492437D01*
X572789D01*
Y638737D01*
X607381Y673328D01*
X607712Y673824D01*
X607829Y674409D01*
Y675327D01*
X608014Y675451D01*
X608539Y676237D01*
X608724Y677165D01*
X608539Y678093D01*
X608014Y678880D01*
X607227Y679405D01*
X606299Y679590D01*
D02*
G37*
G36*
X595669D02*
X594741Y679405D01*
X593955Y678880D01*
X593429Y678093D01*
X593245Y677165D01*
X593429Y676237D01*
X593955Y675451D01*
X594140Y675327D01*
Y672917D01*
X548525Y627302D01*
X548193Y626806D01*
X548077Y626221D01*
Y492043D01*
X545850D01*
Y485713D01*
X553362D01*
Y492043D01*
X551136D01*
Y625587D01*
X596751Y671202D01*
X597082Y671698D01*
X597199Y672284D01*
Y675327D01*
X597384Y675451D01*
X597909Y676237D01*
X598094Y677165D01*
X597909Y678093D01*
X597384Y678880D01*
X596597Y679405D01*
X595669Y679590D01*
D02*
G37*
G36*
X736551Y420823D02*
X730303D01*
Y417823D01*
X736551D01*
Y420823D01*
D02*
G37*
G36*
X729303D02*
X723055D01*
Y417823D01*
X729303D01*
Y420823D01*
D02*
G37*
G36*
X736551Y416823D02*
X730303D01*
Y413823D01*
X736551D01*
Y416823D01*
D02*
G37*
G36*
X729303D02*
X723055D01*
Y413823D01*
X729303D01*
Y416823D01*
D02*
G37*
G36*
X486721Y266157D02*
Y263728D01*
X489149D01*
X489113Y264003D01*
X488813Y264725D01*
X488338Y265346D01*
X487717Y265821D01*
X486995Y266120D01*
X486721Y266157D01*
D02*
G37*
G36*
X485720Y266157D02*
X485445Y266120D01*
X484723Y265821D01*
X484103Y265346D01*
X483628Y264725D01*
X483328Y264003D01*
X483292Y263728D01*
X485720D01*
Y266157D01*
D02*
G37*
G36*
X489149Y262728D02*
X486721D01*
Y260300D01*
X486995Y260336D01*
X487717Y260635D01*
X488338Y261111D01*
X488813Y261731D01*
X489113Y262453D01*
X489149Y262728D01*
D02*
G37*
G36*
X485720D02*
X483292D01*
X483328Y262453D01*
X483628Y261731D01*
X484103Y261111D01*
X484723Y260635D01*
X485445Y260336D01*
X485720Y260300D01*
Y262728D01*
D02*
G37*
G36*
X64346Y369642D02*
X58098D01*
Y366642D01*
X64346D01*
Y369642D01*
D02*
G37*
G36*
X57098D02*
X50850D01*
Y366642D01*
X57098D01*
Y369642D01*
D02*
G37*
G36*
X64346Y365642D02*
X58098D01*
Y362642D01*
X64346D01*
Y365642D01*
D02*
G37*
G36*
X57098D02*
X50850D01*
Y362642D01*
X57098D01*
Y365642D01*
D02*
G37*
G36*
X218610Y250750D02*
Y248925D01*
X220435D01*
X220350Y249353D01*
X219825Y250140D01*
X219038Y250665D01*
X218610Y250750D01*
D02*
G37*
G36*
X217610D02*
X217182Y250665D01*
X216396Y250140D01*
X215870Y249353D01*
X215785Y248925D01*
X217610D01*
Y250750D01*
D02*
G37*
G36*
X220435Y247925D02*
X218610D01*
Y246100D01*
X219038Y246185D01*
X219825Y246711D01*
X220350Y247497D01*
X220435Y247925D01*
D02*
G37*
G36*
X217610D02*
X215785D01*
X215870Y247497D01*
X216396Y246711D01*
X217182Y246185D01*
X217610Y246100D01*
Y247925D01*
D02*
G37*
G36*
X220882Y240764D02*
X218610D01*
Y238591D01*
X220882D01*
Y240764D01*
D02*
G37*
G36*
X217610D02*
X215339D01*
Y238591D01*
X217610D01*
Y240764D01*
D02*
G37*
G36*
X153256Y240686D02*
Y238059D01*
X155883D01*
X155840Y238385D01*
X155521Y239155D01*
X155014Y239817D01*
X154352Y240324D01*
X153582Y240643D01*
X153256Y240686D01*
D02*
G37*
G36*
X152256D02*
X151930Y240643D01*
X151160Y240324D01*
X150498Y239817D01*
X149991Y239155D01*
X149672Y238385D01*
X149629Y238059D01*
X152256D01*
Y240686D01*
D02*
G37*
G36*
X220882Y237591D02*
X218610D01*
Y235417D01*
X220882D01*
Y237591D01*
D02*
G37*
G36*
X217610D02*
X215339D01*
Y235417D01*
X217610D01*
Y237591D01*
D02*
G37*
G36*
X155883Y237059D02*
X153256D01*
Y234432D01*
X153582Y234475D01*
X154352Y234794D01*
X155014Y235301D01*
X155521Y235963D01*
X155840Y236733D01*
X155883Y237059D01*
D02*
G37*
G36*
X152256D02*
X149629D01*
X149672Y236733D01*
X149991Y235963D01*
X150498Y235301D01*
X151160Y234794D01*
X151930Y234475D01*
X152256Y234432D01*
Y237059D01*
D02*
G37*
G36*
X220882Y234661D02*
X215339D01*
Y229315D01*
X220882D01*
Y230380D01*
X226155D01*
X226183Y230337D01*
X226905Y229855D01*
X227756Y229686D01*
X231102D01*
X231953Y229855D01*
X232675Y230337D01*
X233157Y231058D01*
X233326Y231909D01*
X233157Y232761D01*
X232675Y233482D01*
X231953Y233964D01*
X231102Y234133D01*
X227756D01*
X226905Y233964D01*
X226183Y233482D01*
X226155Y233439D01*
X220882D01*
Y234661D01*
D02*
G37*
G36*
X252559Y229133D02*
X251386D01*
Y227409D01*
X254683D01*
X254614Y227761D01*
X254132Y228482D01*
X253410Y228964D01*
X252559Y229133D01*
D02*
G37*
G36*
X263886Y226734D02*
Y224909D01*
X265711D01*
X265626Y225337D01*
X265100Y226124D01*
X264314Y226649D01*
X263886Y226734D01*
D02*
G37*
G36*
X262886D02*
X262458Y226649D01*
X261671Y226124D01*
X261146Y225337D01*
X261061Y224909D01*
X262886D01*
Y226734D01*
D02*
G37*
G36*
X254683Y226409D02*
X251386D01*
Y224686D01*
X252559D01*
X253410Y224855D01*
X254132Y225337D01*
X254614Y226058D01*
X254683Y226409D01*
D02*
G37*
G36*
X265711Y223909D02*
X263886D01*
Y222084D01*
X264314Y222169D01*
X265100Y222695D01*
X265626Y223482D01*
X265711Y223909D01*
D02*
G37*
G36*
X262886D02*
X261061D01*
X261146Y223482D01*
X261671Y222695D01*
X262458Y222169D01*
X262886Y222084D01*
Y223909D01*
D02*
G37*
G36*
X352862Y217286D02*
Y215461D01*
X354687D01*
X354602Y215889D01*
X354077Y216675D01*
X353290Y217201D01*
X352862Y217286D01*
D02*
G37*
G36*
X351862D02*
X351434Y217201D01*
X350648Y216675D01*
X350122Y215889D01*
X350037Y215461D01*
X351862D01*
Y217286D01*
D02*
G37*
G36*
X231102Y219133D02*
X227756D01*
X226905Y218964D01*
X226183Y218482D01*
X225701Y217760D01*
X225532Y216910D01*
X225701Y216058D01*
X226183Y215337D01*
X226905Y214855D01*
X227756Y214686D01*
X231102D01*
X231953Y214855D01*
X232675Y215337D01*
X233157Y216058D01*
X233326Y216910D01*
X233157Y217760D01*
X232675Y218482D01*
X231953Y218964D01*
X231102Y219133D01*
D02*
G37*
G36*
X354687Y214461D02*
X352862D01*
Y212636D01*
X353290Y212721D01*
X354077Y213246D01*
X354602Y214033D01*
X354687Y214461D01*
D02*
G37*
G36*
X351862D02*
X350037D01*
X350122Y214033D01*
X350648Y213246D01*
X351434Y212721D01*
X351862Y212636D01*
Y214461D01*
D02*
G37*
G36*
X316220Y206223D02*
X315445Y206120D01*
X314723Y205821D01*
X314103Y205346D01*
X313628Y204725D01*
X313328Y204003D01*
X313226Y203228D01*
X313328Y202453D01*
X313628Y201731D01*
X314103Y201111D01*
X314723Y200635D01*
X315445Y200336D01*
X316220Y200234D01*
X316995Y200336D01*
X317718Y200635D01*
X318338Y201111D01*
X318758Y201660D01*
X332388D01*
X332538Y201435D01*
X333324Y200910D01*
X334252Y200725D01*
X335180Y200910D01*
X335966Y201435D01*
X336492Y202222D01*
X336677Y203150D01*
X336492Y204077D01*
X335966Y204864D01*
X335180Y205390D01*
X334252Y205574D01*
X333324Y205390D01*
X332538Y204864D01*
X332440Y204718D01*
X318816D01*
X318813Y204725D01*
X318338Y205346D01*
X317718Y205821D01*
X316995Y206120D01*
X316220Y206223D01*
D02*
G37*
G36*
X301181Y211086D02*
X300253Y210901D01*
X299467Y210376D01*
X298941Y209589D01*
X298757Y208661D01*
X298941Y207734D01*
X299467Y206947D01*
X300253Y206421D01*
X301016Y206270D01*
X303323Y203963D01*
X303226Y203228D01*
X303328Y202453D01*
X303627Y201731D01*
X304103Y201111D01*
X304723Y200635D01*
X305446Y200336D01*
X306221Y200234D01*
X306995Y200336D01*
X307717Y200635D01*
X308338Y201111D01*
X308814Y201731D01*
X309113Y202453D01*
X309215Y203228D01*
X309113Y204003D01*
X308814Y204725D01*
X308338Y205346D01*
X307717Y205821D01*
X306995Y206120D01*
X306221Y206223D01*
X305486Y206126D01*
X303497Y208115D01*
X303606Y208661D01*
X303421Y209589D01*
X302895Y210376D01*
X302109Y210901D01*
X301181Y211086D01*
D02*
G37*
G36*
X64346Y416886D02*
X50850D01*
Y409886D01*
X62361D01*
X212983Y259264D01*
X213098Y258688D01*
X213429Y258192D01*
X214828Y256793D01*
X215324Y256461D01*
X215910Y256345D01*
X299343D01*
X299467Y256160D01*
X300253Y255634D01*
X301181Y255450D01*
X302109Y255634D01*
X302895Y256160D01*
X303421Y256946D01*
X303606Y257874D01*
X303421Y258802D01*
X302895Y259588D01*
X302109Y260114D01*
X301181Y260299D01*
X300253Y260114D01*
X299467Y259588D01*
X299343Y259403D01*
X216543D01*
X216351Y259596D01*
X216236Y260171D01*
X215905Y260667D01*
X64346Y412226D01*
Y416886D01*
D02*
G37*
G36*
X259555Y247601D02*
Y245776D01*
X261380D01*
X261295Y246203D01*
X260770Y246990D01*
X259983Y247516D01*
X259555Y247601D01*
D02*
G37*
G36*
X258555D02*
X258127Y247516D01*
X257341Y246990D01*
X256815Y246203D01*
X256730Y245776D01*
X258555D01*
Y247601D01*
D02*
G37*
G36*
X261380Y244776D02*
X259555D01*
Y242951D01*
X259983Y243036D01*
X260770Y243561D01*
X261295Y244348D01*
X261380Y244776D01*
D02*
G37*
G36*
X258555D02*
X256730D01*
X256815Y244348D01*
X257341Y243561D01*
X258127Y243036D01*
X258555Y242951D01*
Y244776D01*
D02*
G37*
G36*
X306221Y246222D02*
X305446Y246120D01*
X304723Y245821D01*
X304103Y245345D01*
X303627Y244725D01*
X303328Y244003D01*
X303226Y243228D01*
X303328Y242453D01*
X303627Y241731D01*
X304103Y241111D01*
X304723Y240635D01*
X305446Y240336D01*
X306221Y240234D01*
X306995Y240336D01*
X307717Y240635D01*
X308338Y241111D01*
X308814Y241731D01*
X309113Y242453D01*
X309215Y243228D01*
X309113Y244003D01*
X308814Y244725D01*
X308338Y245345D01*
X307717Y245821D01*
X306995Y246120D01*
X306221Y246222D01*
D02*
G37*
G36*
Y236223D02*
X305446Y236120D01*
X304723Y235821D01*
X304103Y235346D01*
X303627Y234725D01*
X303608Y234679D01*
X300998D01*
X300927Y234785D01*
X300140Y235311D01*
X299213Y235495D01*
X298285Y235311D01*
X297498Y234785D01*
X296973Y233999D01*
X296788Y233071D01*
X296973Y232143D01*
X297498Y231357D01*
X298285Y230831D01*
X299213Y230646D01*
X300140Y230831D01*
X300927Y231357D01*
X301103Y231620D01*
X303713D01*
X304103Y231111D01*
X304723Y230635D01*
X305446Y230336D01*
X306221Y230234D01*
X306995Y230336D01*
X307717Y230635D01*
X308338Y231111D01*
X308814Y231731D01*
X309113Y232453D01*
X309215Y233228D01*
X309113Y234003D01*
X308814Y234725D01*
X308338Y235346D01*
X307717Y235821D01*
X306995Y236120D01*
X306221Y236223D01*
D02*
G37*
G36*
X486221Y246222D02*
X485445Y246120D01*
X484723Y245821D01*
X484103Y245345D01*
X483628Y244725D01*
X483328Y244003D01*
X483226Y243228D01*
X483328Y242453D01*
X483628Y241731D01*
X484103Y241111D01*
X484723Y240635D01*
X485445Y240336D01*
X486221Y240234D01*
X486995Y240336D01*
X487717Y240635D01*
X488338Y241111D01*
X488547Y241384D01*
X493438D01*
X493561Y241199D01*
X494348Y240673D01*
X495276Y240489D01*
X496203Y240673D01*
X496990Y241199D01*
X497516Y241986D01*
X497700Y242913D01*
X497516Y243841D01*
X496990Y244628D01*
X496203Y245153D01*
X495276Y245338D01*
X494348Y245153D01*
X493561Y244628D01*
X493438Y244443D01*
X488931D01*
X488813Y244725D01*
X488338Y245345D01*
X487717Y245821D01*
X486995Y246120D01*
X486221Y246222D01*
D02*
G37*
G36*
X409949Y216105D02*
Y214280D01*
X411774D01*
X411689Y214707D01*
X411163Y215494D01*
X410377Y216020D01*
X409949Y216105D01*
D02*
G37*
G36*
X408949D02*
X408521Y216020D01*
X407734Y215494D01*
X407209Y214707D01*
X407124Y214280D01*
X408949D01*
Y216105D01*
D02*
G37*
G36*
X522154Y193270D02*
Y191445D01*
X523979D01*
X523893Y191873D01*
X523368Y192659D01*
X522581Y193185D01*
X522154Y193270D01*
D02*
G37*
G36*
X521153D02*
X520726Y193185D01*
X519939Y192659D01*
X519414Y191873D01*
X519328Y191445D01*
X521153D01*
Y193270D01*
D02*
G37*
G36*
X523979Y190445D02*
X522154D01*
Y188620D01*
X522581Y188705D01*
X523368Y189231D01*
X523893Y190017D01*
X523979Y190445D01*
D02*
G37*
G36*
X521153D02*
X519328D01*
X519414Y190017D01*
X519939Y189231D01*
X520726Y188705D01*
X521153Y188620D01*
Y190445D01*
D02*
G37*
G36*
X654429Y166379D02*
X653680Y166280D01*
X652982Y165991D01*
X652382Y165531D01*
X651922Y164932D01*
X651633Y164234D01*
X651534Y163484D01*
X651633Y162735D01*
X651922Y162037D01*
X652382Y161437D01*
X652982Y160977D01*
X653680Y160688D01*
X654429Y160589D01*
X655178Y160688D01*
X655877Y160977D01*
X656476Y161437D01*
X656936Y162037D01*
X657225Y162735D01*
X657324Y163484D01*
X657225Y164234D01*
X656936Y164932D01*
X656476Y165531D01*
X655877Y165991D01*
X655178Y166280D01*
X654429Y166379D01*
D02*
G37*
G36*
X650894Y130672D02*
Y128847D01*
X652719D01*
X652634Y129274D01*
X652108Y130061D01*
X651322Y130586D01*
X650894Y130672D01*
D02*
G37*
G36*
X649894D02*
X649466Y130586D01*
X648679Y130061D01*
X648154Y129274D01*
X648069Y128847D01*
X649894D01*
Y130672D01*
D02*
G37*
G36*
X652719Y127847D02*
X650894D01*
Y126021D01*
X651322Y126107D01*
X652108Y126632D01*
X652634Y127419D01*
X652719Y127847D01*
D02*
G37*
G36*
X649894D02*
X648069D01*
X648154Y127419D01*
X648679Y126632D01*
X649466Y126107D01*
X649894Y126021D01*
Y127847D01*
D02*
G37*
G36*
X771153Y28559D02*
X769643Y28440D01*
X767683Y27970D01*
X765820Y27198D01*
X764100Y26144D01*
X762567Y24835D01*
X761257Y23301D01*
X760204Y21582D01*
X759432Y19719D01*
X758961Y17758D01*
X758842Y16248D01*
X771153D01*
Y28559D01*
D02*
G37*
G36*
X174122Y155081D02*
Y153256D01*
X175947D01*
X175862Y153684D01*
X175337Y154470D01*
X174550Y154996D01*
X174122Y155081D01*
D02*
G37*
G36*
X173122D02*
X172694Y154996D01*
X171908Y154470D01*
X171382Y153684D01*
X171297Y153256D01*
X173122D01*
Y155081D01*
D02*
G37*
G36*
X175947Y152256D02*
X174122D01*
Y150431D01*
X174550Y150516D01*
X175337Y151041D01*
X175862Y151828D01*
X175947Y152256D01*
D02*
G37*
G36*
X173122D02*
X171297D01*
X171382Y151828D01*
X171908Y151041D01*
X172694Y150516D01*
X173122Y150431D01*
Y152256D01*
D02*
G37*
G36*
X16248Y28559D02*
Y16248D01*
X28559D01*
X28440Y17758D01*
X27970Y19719D01*
X27198Y21582D01*
X26144Y23301D01*
X24835Y24835D01*
X23301Y26144D01*
X21582Y27198D01*
X19719Y27970D01*
X17758Y28440D01*
X16248Y28559D01*
D02*
G37*
%LPD*%
D11*
X637402Y125197D02*
Y160630D01*
X641732Y125197D02*
Y159128D01*
X651244Y111480D02*
X652756Y112992D01*
X548126Y111480D02*
X651244D01*
X486378Y173228D02*
X548126Y111480D01*
X660268Y109480D02*
X663386Y112598D01*
X541440Y109480D02*
X660268D01*
X540562Y110358D02*
X541440Y109480D01*
X538178Y110358D02*
X540562D01*
X537268Y109449D02*
X538178Y110358D01*
X371260Y109449D02*
X537268D01*
X312598Y168110D02*
X371260Y109449D01*
X672047Y113779D02*
Y116929D01*
X665748Y107480D02*
X672047Y113779D01*
X539370Y107480D02*
X665748D01*
X649213Y488484D02*
X650394Y489665D01*
X625591Y666929D02*
Y677165D01*
Y666929D02*
X650394Y642126D01*
X650394Y489665D01*
X672047Y488878D02*
Y642126D01*
X614961Y677165D02*
X618504Y680709D01*
X606299Y674409D02*
Y677165D01*
X595669Y672284D02*
Y677165D01*
X571260Y639370D02*
X606299Y674409D01*
X185433Y493209D02*
Y516929D01*
X181102Y488878D02*
X185433Y493209D01*
X369291Y503445D02*
Y681698D01*
X356980Y491134D02*
X369291Y503445D01*
X615748Y503051D02*
X630315Y488484D01*
X615748Y503051D02*
Y517323D01*
X605512Y495177D02*
Y517323D01*
Y495177D02*
X611417Y489272D01*
X590551Y488091D02*
X595276Y492815D01*
Y517323D01*
X418898Y675591D02*
Y678346D01*
X412961Y684283D02*
X418898Y678346D01*
X369049Y684283D02*
X412961D01*
X416929Y673622D02*
X418898Y675591D01*
X403543Y673622D02*
X416929D01*
X400000Y677165D02*
X403543Y673622D01*
X405512Y682283D02*
X410630Y677165D01*
X390158Y672520D02*
Y677165D01*
X380315Y672362D02*
Y677165D01*
X380709Y517323D02*
X385858Y522472D01*
X400394Y494390D02*
Y517323D01*
X394882Y488878D02*
X400394Y494390D01*
X375098Y488583D02*
X392882Y506366D01*
X406693Y520472D02*
X409842Y517323D01*
X394488Y520472D02*
X406693D01*
X414567Y488878D02*
Y517717D01*
X409811Y522472D02*
X414567Y517717D01*
X385858Y522472D02*
X409811D01*
X156299Y676772D02*
X159449Y673622D01*
X171260D01*
X177496Y683874D02*
X177512Y683890D01*
X177480Y683858D02*
X177496Y683874D01*
X172850D02*
X177496D01*
X177512Y683890D02*
X202403D01*
X165748Y676772D02*
X172850Y683874D01*
X185433Y671811D02*
Y676772D01*
X195669Y672047D02*
Y676772D01*
X175591Y478346D02*
Y516929D01*
Y478346D02*
X177559Y476378D01*
X192520Y520079D02*
X195669Y516929D01*
X170079Y520079D02*
X192520D01*
X172047Y237008D02*
X174016D01*
X299291Y233149D02*
X306141D01*
X299213Y233071D02*
X299291Y233149D01*
X215910Y257874D02*
X301181D01*
X61024Y413386D02*
X214823Y259586D01*
X57598Y413386D02*
X61024D01*
X559801Y409811D02*
X563906D01*
X559770Y409842D02*
X559801Y409811D01*
X541339Y409842D02*
X559770D01*
X560630Y411811D02*
X600492D01*
X549484Y422957D02*
X560630Y411811D01*
X561458Y413811D02*
X581232D01*
X552018Y423252D02*
X561458Y413811D01*
X562287Y415811D02*
X580378D01*
X554602Y423495D02*
X562287Y415811D01*
X563259Y417811D02*
X579550D01*
X557161Y423909D02*
X563259Y417811D01*
X564087Y419811D02*
X578721D01*
X559721Y424178D02*
X564087Y419811D01*
X564916Y421811D02*
X577893D01*
X562280Y424447D02*
X564916Y421811D01*
X562280Y424447D02*
Y425954D01*
X564813Y425980D02*
Y428396D01*
Y425980D02*
X564839Y425954D01*
Y424717D02*
Y425954D01*
Y424717D02*
X565744Y423811D01*
X577064D01*
X624213Y227165D02*
X757283Y360236D01*
X483858Y227165D02*
X624213D01*
X480709Y224016D02*
X483858Y227165D01*
X480709Y217717D02*
Y224016D01*
X476221Y213228D02*
X480709Y217717D01*
X214510Y259273D02*
X214823Y259586D01*
X306141Y233149D02*
X306221Y233228D01*
X301181Y208268D02*
Y208661D01*
Y208268D02*
X306221Y203228D01*
X214510Y259273D02*
X215910Y257874D01*
X47244Y385039D02*
X54331Y377953D01*
X47244Y385039D02*
Y404070D01*
X45440Y405874D02*
X47244Y404070D01*
X31858Y405874D02*
X45440D01*
X31890Y326772D02*
Y373622D01*
X29606Y325410D02*
Y383150D01*
X27606Y324581D02*
Y375150D01*
X25197Y323228D02*
Y399213D01*
X49244Y394850D02*
X55905Y388189D01*
X49244Y394850D02*
Y404899D01*
X242126Y488878D02*
Y644167D01*
X202403Y683890D02*
X242126Y644167D01*
X171260Y673622D02*
X179527Y681890D01*
X201575D01*
X222441Y488878D02*
Y661024D01*
X201575Y681890D02*
X222441Y661024D01*
X120079Y606457D02*
X185433Y671811D01*
X120079Y488878D02*
Y606457D01*
X140157Y616535D02*
X195669Y672047D01*
X140157Y488878D02*
Y616535D01*
X316220Y193228D02*
X316299Y193307D01*
X332677D01*
X334213Y203189D02*
X334252Y203228D01*
X316260Y203189D02*
X334213D01*
X388655Y237795D02*
X397638D01*
X324088Y173228D02*
X388655Y237795D01*
X316220Y173228D02*
X324088D01*
X398031Y243150D02*
X398110Y243228D01*
X476221D01*
X476378D01*
X452756Y266929D02*
Y321260D01*
X458661Y266929D02*
Y273622D01*
X452756Y321260D02*
X541339Y409842D01*
X400787Y257874D02*
X481732D01*
X486378Y253228D01*
X398917Y259744D02*
Y406496D01*
Y259744D02*
X400787Y257874D01*
X563906Y409811D02*
X564492Y409225D01*
Y407904D02*
Y409225D01*
Y407904D02*
X564518Y407878D01*
Y405463D02*
Y407878D01*
Y405463D02*
X564665Y405315D01*
X316220Y203228D02*
X316260Y203189D01*
X326614Y183228D02*
X326772Y183071D01*
X316220Y183228D02*
X326614D01*
X470472Y273622D02*
X562106Y365256D01*
Y405315D01*
X458661Y273622D02*
X556988Y371949D01*
Y405315D01*
X464961Y273622D02*
X559547Y368209D01*
Y405315D01*
X310236Y217087D02*
Y225590D01*
X308661Y227165D02*
X310236Y225590D01*
X295669Y227165D02*
X308661D01*
X348425Y156299D02*
X399606Y207480D01*
X330315Y156299D02*
X348425D01*
X30315Y407874D02*
X46269D01*
X11417Y388976D02*
X30315Y407874D01*
X46269D02*
X49244Y404899D01*
X56024Y388189D02*
X57598Y389764D01*
X180709Y154724D02*
X318898D01*
X11417Y324016D02*
X180709Y154724D01*
X11417Y324016D02*
Y388976D01*
X187300Y167717D02*
X307480D01*
X29606Y325410D02*
X187300Y167717D01*
X312598Y168110D02*
Y190499D01*
X307480Y167717D02*
X310236Y170472D01*
X27606Y324581D02*
X187227Y164961D01*
X182283Y176378D02*
X303071D01*
X187227Y164961D02*
X310630D01*
X310236Y170472D02*
Y179213D01*
X188976Y159449D02*
X314961Y159449D01*
X25197Y323228D02*
X188976Y159449D01*
X25197Y399213D02*
X31858Y405874D01*
X54331Y377953D02*
X57598D01*
X55905Y388189D02*
X56024D01*
X36220Y401575D02*
X39370D01*
X31890Y373622D02*
X36220Y377953D01*
X27559Y375197D02*
X27606Y375150D01*
X36220Y377953D02*
X39370D01*
X306221Y183228D02*
X310236Y179213D01*
X309869Y193228D02*
X312598Y190499D01*
X152756Y217323D02*
X157382Y221949D01*
X183858D01*
X122335Y480323D02*
X134780D01*
X235138Y400762D02*
X322410Y313490D01*
Y242094D02*
Y313490D01*
X324410Y237795D02*
Y314567D01*
X237697Y401279D02*
X324410Y314567D01*
X326772Y233622D02*
Y315354D01*
X240256Y401870D02*
X326772Y315354D01*
X241921Y469087D02*
Y481988D01*
X348031Y160630D02*
X396888Y209487D01*
X325984Y160630D02*
X348031D01*
X322835Y164961D02*
X348031D01*
X61024Y401575D02*
X209370Y253228D01*
X57598Y401575D02*
X61024D01*
X209370Y253228D02*
X306221D01*
X481968Y207480D02*
X486221Y203228D01*
X399606Y207480D02*
X481968Y207480D01*
X396888Y209487D02*
X482479Y209487D01*
X486221Y213228D01*
X27559Y392913D02*
X36220Y401575D01*
X27559Y375197D02*
Y392913D01*
X348031Y164961D02*
X406299Y223228D01*
X312598Y220079D02*
X315900Y216778D01*
Y213549D02*
Y216778D01*
Y213549D02*
X316220Y213228D01*
X312598Y220079D02*
Y235039D01*
X396358Y249114D02*
Y406496D01*
X384646Y237402D02*
X396358Y249114D01*
X337008Y237402D02*
X384646D01*
X332677Y233071D02*
X337008Y237402D01*
X406299Y223228D02*
X476221D01*
X608268Y405512D02*
X729803D01*
X464567Y261811D02*
X608268Y405512D01*
X479689Y229760D02*
X618094D01*
X476221Y233228D02*
X479689Y229760D01*
X618094D02*
X741051Y352717D01*
X741051Y356012D02*
X748032Y362992D01*
X741051Y353650D02*
Y356012D01*
X741051Y353650D02*
X741051Y353650D01*
X741051Y352717D02*
Y353650D01*
X748032Y399606D02*
Y405512D01*
Y387795D02*
Y393701D01*
X737051Y354374D02*
Y377909D01*
X635906Y253228D02*
X737051Y354374D01*
X494961Y253228D02*
X635906D01*
X739051Y353546D02*
Y387720D01*
X733071Y381890D02*
X737051Y377909D01*
X733071Y393701D02*
X739051Y387720D01*
X618734Y233228D02*
X739051Y353546D01*
X748032Y375984D02*
Y381890D01*
X729803D02*
X733071D01*
X615632Y185228D02*
X641732Y159128D01*
X494378Y185228D02*
X615632D01*
X486378Y193228D02*
X494378Y185228D01*
X320409Y250724D02*
Y312661D01*
X318110Y237795D02*
X322410Y242094D01*
X316378Y246693D02*
X320409Y250724D01*
X319843Y233228D02*
X324410Y237795D01*
X232579Y400492D02*
X320409Y312661D01*
X316378Y223228D02*
X326772Y233622D01*
X316378Y243228D02*
Y246693D01*
X240256Y401870D02*
Y408465D01*
X237697Y401279D02*
Y408465D01*
X232579Y400492D02*
Y408465D01*
X315354Y237795D02*
X318110D01*
X312598Y235039D02*
X315354Y237795D01*
X316220Y233228D02*
X319843D01*
X306378Y213228D02*
X310236Y217087D01*
X300059Y216910D02*
X306378Y223228D01*
X235138Y400762D02*
Y408465D01*
X579383Y426129D02*
Y452803D01*
X550197Y481988D02*
X579383Y452803D01*
X549606Y481988D02*
X550197D01*
X577064Y423811D02*
X579383Y426129D01*
X564665Y428543D02*
X564813Y428396D01*
X577893Y421811D02*
X582175Y426093D01*
X578721Y419811D02*
X590945Y432035D01*
X579550Y417811D02*
X611417Y449679D01*
X580378Y415811D02*
X630709Y466142D01*
X581232Y413811D02*
X649803Y482382D01*
X600492Y411811D02*
X671063Y482382D01*
X582175Y426093D02*
Y472058D01*
X571850Y482382D02*
X582175Y472058D01*
X571260Y482382D02*
X571850D01*
X562254Y425980D02*
X562280Y425954D01*
X562254Y425980D02*
Y428396D01*
X562106Y428543D02*
X562254Y428396D01*
X590945Y432035D02*
Y482382D01*
X559721Y424178D02*
Y425954D01*
X559695Y425980D02*
X559721Y425954D01*
X559695Y425980D02*
Y428396D01*
X559547Y428543D02*
X559695Y428396D01*
X557136Y425980D02*
Y428396D01*
Y425980D02*
X557161Y425954D01*
Y423909D02*
Y425954D01*
X36220Y389764D02*
X39370D01*
X29606Y383150D02*
X36220Y389764D01*
X303071Y176378D02*
X306221Y173228D01*
X31890Y326772D02*
X182283Y176378D01*
X729803Y393701D02*
X733071D01*
X486221Y233228D02*
X618734D01*
X486535Y242913D02*
X495276D01*
X486221Y243228D02*
X486535Y242913D01*
X476299Y263150D02*
X583228Y370079D01*
X306221Y193228D02*
X309869D01*
X486221Y183228D02*
X614803Y183228D01*
X637402Y160630D01*
X391240Y252658D02*
Y406496D01*
X382283Y243701D02*
X391240Y252658D01*
X332677Y243701D02*
X382283D01*
X385827Y242913D02*
X393799Y250886D01*
Y406496D01*
X480394Y249213D02*
X490945D01*
X476378Y253228D02*
X480394Y249213D01*
X490945D02*
X494961Y253228D01*
X583228Y370079D02*
X729803D01*
X268307Y236221D02*
X273630Y241543D01*
X273728D01*
X275197Y243012D01*
X246649Y236221D02*
X268307D01*
X290925Y231909D02*
X295669Y227165D01*
X250886Y231909D02*
X290925D01*
X611417Y449679D02*
Y482382D01*
X556988Y428543D02*
X557136Y428396D01*
X554602Y423495D02*
Y425954D01*
X552018Y423252D02*
Y428396D01*
X549484Y422957D02*
Y428370D01*
X549311Y428543D02*
X549484Y428370D01*
X630709Y466142D02*
Y482382D01*
X554429Y428543D02*
X554577Y428396D01*
Y425980D02*
Y428396D01*
Y425980D02*
X554602Y425954D01*
X649803Y482382D02*
X650394D01*
X551870Y428543D02*
X552018Y428396D01*
X671063Y482382D02*
X671654D01*
X390158Y672520D02*
X456693Y605984D01*
Y488878D02*
Y605984D01*
X610630Y488484D02*
X611417Y489272D01*
X380315Y672362D02*
X435039Y617638D01*
Y488976D02*
Y617638D01*
X374803Y488878D02*
X375098Y488583D01*
X392882Y506366D02*
Y518866D01*
X394488Y520472D01*
X369877Y682283D02*
X405512D01*
X369291Y681698D02*
X369877Y682283D01*
X356980Y490543D02*
Y491134D01*
X355315Y488878D02*
X356980Y490543D01*
X354724Y488878D02*
X355315D01*
X367291Y682526D02*
X369049Y684283D01*
X367291Y633433D02*
Y682526D01*
X334252Y600394D02*
X367291Y633433D01*
X334252Y488878D02*
Y600394D01*
X633465Y680709D02*
X672047Y642126D01*
X618504Y680709D02*
X633465D01*
X571260Y489272D02*
Y639370D01*
X549606Y626221D02*
X595669Y672284D01*
X549606Y488878D02*
Y626221D01*
X455610Y481988D02*
X456693D01*
X448000Y474378D02*
X455610Y481988D01*
X407128Y474378D02*
X448000D01*
X391240Y478937D02*
X394291Y481988D01*
X391240Y429724D02*
Y478937D01*
X388681Y429724D02*
Y468701D01*
X375394Y481988D02*
X388681Y468701D01*
X410728Y478740D02*
X413976Y481988D01*
X405118Y478740D02*
X410728D01*
X393799Y467421D02*
X405118Y478740D01*
X393799Y429724D02*
Y467421D01*
X396358Y466437D02*
X406299Y476378D01*
X396358Y429724D02*
Y466437D01*
X399091Y466341D02*
X407128Y474378D01*
X399091Y432313D02*
Y466341D01*
X399065Y429872D02*
Y432288D01*
X398917Y429724D02*
X399065Y429872D01*
Y432288D02*
X399091Y432313D01*
X378305Y472409D02*
X383563Y467152D01*
Y429724D02*
Y467152D01*
X344913Y472409D02*
X378305D01*
X335335Y481988D02*
X344913Y472409D01*
X334252Y481988D02*
X335335D01*
X428740Y476378D02*
X434449Y482087D01*
X406299Y476378D02*
X428740D01*
X386122Y429724D02*
Y467421D01*
X379134Y474409D02*
X386122Y467421D01*
X362894Y474409D02*
X379134D01*
X355315Y481988D02*
X362894Y474409D01*
X354724Y481988D02*
X355315D01*
X374803D02*
X375394D01*
X394291D02*
X394882D01*
X413976D02*
X414567D01*
X434449Y482087D02*
X435039D01*
X143535Y478323D02*
X145200Y479988D01*
X134780Y480323D02*
X136780Y478323D01*
X145200Y479988D02*
X152365D01*
X156031Y476323D01*
X136780Y478323D02*
X143535D01*
X224902Y431693D02*
Y465976D01*
X223255Y467622D02*
X224902Y465976D01*
X177830Y467622D02*
X223255D01*
X169129Y476323D02*
X177830Y467622D01*
X156031Y476323D02*
X169129D01*
X120669Y481988D02*
X122335Y480323D01*
X120079Y481988D02*
X120669D01*
X140157D02*
X153194D01*
X156859Y478323D01*
X169957D01*
X178658Y469622D01*
X224084D01*
X227287Y466419D01*
Y434282D02*
Y466419D01*
Y434282D02*
X227313Y434256D01*
Y431841D02*
Y434256D01*
Y431841D02*
X227461Y431693D01*
X240256Y467421D02*
X241921Y469087D01*
X240256Y431693D02*
Y467421D01*
X237697Y431693D02*
Y467323D01*
X223031Y481988D02*
X237697Y467323D01*
X222441Y481988D02*
X223031D01*
X160236D02*
X169120D01*
X176731Y474378D01*
X194387D01*
X197143Y471622D01*
X224912D01*
X229847Y466688D01*
Y434282D02*
Y466688D01*
Y434282D02*
X229872Y434256D01*
Y431841D02*
Y434256D01*
Y431841D02*
X230020Y431693D01*
X235138D02*
Y467054D01*
X226569Y475622D02*
X235138Y467054D01*
X209713Y475622D02*
X226569D01*
X203346Y481988D02*
X209713Y475622D01*
X202756Y481988D02*
X203346D01*
X225741Y473622D02*
X232579Y466784D01*
X199213Y473622D02*
X225741D01*
X197244Y475591D02*
X199213Y473622D01*
X197244Y475591D02*
Y476378D01*
X181102Y481988D02*
X181201Y481890D01*
X188976D01*
X232579Y431693D02*
Y466784D01*
X167717Y495768D02*
Y517717D01*
X160827Y488878D02*
X167717Y495768D01*
Y517717D02*
X170079Y520079D01*
X160236Y488878D02*
X160827D01*
X177559Y476378D02*
X190103D01*
X200500Y486775D01*
Y487213D01*
X202165Y488878D01*
X202756D01*
X535433Y114173D02*
X539370D01*
X476378Y173228D02*
X535433Y114173D01*
X152756Y227323D02*
X162441Y237008D01*
X246063Y225428D02*
X249581Y221909D01*
X246063Y225428D02*
Y235635D01*
X246649Y236221D01*
X275197Y243012D02*
Y243110D01*
X249581Y221909D02*
X250886D01*
X284547Y243110D02*
X284646Y243012D01*
X275197Y243110D02*
X284547D01*
X162441Y237008D02*
X172047D01*
X183858Y221949D02*
X184252Y221555D01*
X193701D01*
X194055Y221909D01*
X229429D01*
X183209Y227008D02*
X183858Y227658D01*
X174016Y227008D02*
X183209D01*
X250886Y216910D02*
X300059D01*
X193701Y227264D02*
X193957Y227008D01*
X203543D01*
X218110Y231988D02*
X218189Y231909D01*
X229429D01*
X174016Y237008D02*
X203543D01*
X213642Y226909D01*
X229429D01*
D12*
X611909Y131791D02*
Y156398D01*
X670768Y131693D02*
Y156496D01*
X611909Y179134D02*
X670768D01*
X611909Y167224D02*
Y179134D01*
X670768Y167224D02*
Y179134D01*
X566732Y411614D02*
G03*
X566732Y411614I-1969J0D01*
G01*
X400984Y412795D02*
G03*
X400984Y412795I-1969J0D01*
G01*
X242323Y414764D02*
G03*
X242323Y414764I-1969J0D01*
G01*
X246457Y230709D02*
G03*
X246457Y230709I-1969J0D01*
G01*
X647638Y481595D02*
Y490059D01*
X653150Y481595D02*
Y490059D01*
X647638D02*
X653150D01*
X647638Y481595D02*
X653150D01*
X627953D02*
Y490059D01*
X633465Y481595D02*
Y490059D01*
X627953D02*
X633465D01*
X627953Y481595D02*
X633465D01*
X608661D02*
Y490059D01*
X614173Y481595D02*
Y490059D01*
X608661D02*
X614173D01*
X608661Y481595D02*
X614173D01*
X588189D02*
Y490059D01*
X593701Y481595D02*
Y490059D01*
X588189D02*
X593701D01*
X588189Y481595D02*
X593701D01*
X568504D02*
Y490059D01*
X574016Y481595D02*
Y490059D01*
X568504D02*
X574016D01*
X568504Y481595D02*
X574016D01*
X546850Y481201D02*
Y489665D01*
X552362Y481201D02*
Y489665D01*
X546850D02*
X552362D01*
X546850Y481201D02*
X552362D01*
X668898Y481595D02*
Y490059D01*
X674409Y481595D02*
Y490059D01*
X668898D02*
X674409D01*
X668898Y481595D02*
X674409D01*
X548228Y408071D02*
X568307D01*
X548228Y425787D02*
X568307D01*
Y408071D02*
Y425787D01*
X548228Y408071D02*
Y425787D01*
X372047Y481201D02*
Y489665D01*
X377559Y481201D02*
Y489665D01*
X372047D02*
X377559D01*
X372047Y481201D02*
X377559D01*
X392126D02*
Y489665D01*
X397638Y481201D02*
Y489665D01*
X392126D02*
X397638D01*
X392126Y481201D02*
X397638D01*
X411811D02*
Y489665D01*
X417323Y481201D02*
Y489665D01*
X411811D02*
X417323D01*
X411811Y481201D02*
X417323D01*
X351969D02*
Y489665D01*
X357480Y481201D02*
Y489665D01*
X351969D02*
X357480D01*
X351969Y481201D02*
X357480D01*
X331496D02*
Y489665D01*
X337008Y481201D02*
Y489665D01*
X331496D02*
X337008D01*
X331496Y481201D02*
X337008D01*
X432283Y481299D02*
Y489764D01*
X437795Y481299D02*
Y489764D01*
X432283D02*
X437795D01*
X432283Y481299D02*
X437795D01*
X453937Y481201D02*
Y489665D01*
X459449Y481201D02*
Y489665D01*
X453937D02*
X459449D01*
X453937Y481201D02*
X459449D01*
X382480Y409252D02*
X402559D01*
X382480Y426968D02*
X402559D01*
Y409252D02*
Y426968D01*
X382480Y409252D02*
Y426968D01*
X223819Y411221D02*
X243898D01*
X223819Y428937D02*
X243898D01*
Y411221D02*
Y428937D01*
X223819Y411221D02*
Y428937D01*
X117323Y481201D02*
Y489665D01*
X122835Y481201D02*
Y489665D01*
X117323D02*
X122835D01*
X117323Y481201D02*
X122835D01*
X137402D02*
Y489665D01*
X142913Y481201D02*
Y489665D01*
X137402D02*
X142913D01*
X137402Y481201D02*
X142913D01*
X157480D02*
Y489665D01*
X162992Y481201D02*
Y489665D01*
X157480D02*
X162992D01*
X157480Y481201D02*
X162992D01*
X178347D02*
Y489665D01*
X183858Y481201D02*
Y489665D01*
X178347D02*
X183858D01*
X178347Y481201D02*
X183858D01*
X200000D02*
Y489665D01*
X205512Y481201D02*
Y489665D01*
X200000D02*
X205512D01*
X200000Y481201D02*
X205512D01*
X219685D02*
Y489665D01*
X225197Y481201D02*
Y489665D01*
X219685D02*
X225197D01*
X219685Y481201D02*
X225197D01*
X239370D02*
X244882D01*
X239370Y489665D02*
X244882D01*
Y481201D02*
Y489665D01*
X239370Y481201D02*
Y489665D01*
X277067Y242618D02*
Y249508D01*
X273327Y242618D02*
Y249508D01*
Y242618D02*
X277067D01*
X273327Y249508D02*
X277067D01*
X282874Y242717D02*
X286417D01*
X282874Y249410D02*
X286417D01*
Y242717D02*
Y249410D01*
X282874Y242717D02*
Y249410D01*
X182087Y221457D02*
X185630D01*
X182087Y228150D02*
X185630D01*
Y221457D02*
Y228150D01*
X182087Y221457D02*
Y228150D01*
X216339Y231693D02*
X219882D01*
X216339Y238386D02*
X219882D01*
Y231693D02*
Y238386D01*
X216339Y231693D02*
Y238386D01*
X191732Y220866D02*
X195669D01*
X191732Y227953D02*
X195669D01*
Y220866D02*
Y227953D01*
X191732Y220866D02*
Y227953D01*
X232283Y214567D02*
X248031D01*
X232283Y234252D02*
X248031D01*
X232283Y214567D02*
Y234252D01*
X248031Y214567D02*
Y234252D01*
X648425Y485827D02*
X652362D01*
X650394Y483858D02*
Y487795D01*
X628740Y485827D02*
X632677D01*
X630709Y483858D02*
Y487795D01*
X609449Y485827D02*
X613386D01*
X611417Y483858D02*
Y487795D01*
X588976Y485827D02*
X592913D01*
X590945Y483858D02*
Y487795D01*
X569291Y485827D02*
X573228D01*
X571260Y483858D02*
Y487795D01*
X547638Y485433D02*
X551575D01*
X549606Y483465D02*
Y487402D01*
X669685Y485827D02*
X673622D01*
X671654Y483858D02*
Y487795D01*
X558268Y414961D02*
Y418898D01*
X556299Y416929D02*
X560236D01*
X372835Y485433D02*
X376772D01*
X374803Y483465D02*
Y487402D01*
X392913Y485433D02*
X396850D01*
X394882Y483465D02*
Y487402D01*
X412598Y485433D02*
X416535D01*
X414567Y483465D02*
Y487402D01*
X352756Y485433D02*
X356693D01*
X354724Y483465D02*
Y487402D01*
X332283Y485433D02*
X336221D01*
X334252Y483465D02*
Y487402D01*
X433071Y485532D02*
X437008D01*
X435039Y483563D02*
Y487500D01*
X454724Y485433D02*
X458661D01*
X456693Y483465D02*
Y487402D01*
X392520Y416142D02*
Y420079D01*
X390551Y418110D02*
X394488D01*
X233858D02*
Y422047D01*
X231890Y420079D02*
X235827D01*
X118110Y485433D02*
X122047D01*
X120079Y483465D02*
Y487402D01*
X138189Y485433D02*
X142126D01*
X140157Y483465D02*
Y487402D01*
X158268Y485433D02*
X162205D01*
X160236Y483465D02*
Y487402D01*
X179134Y485433D02*
X183071D01*
X181102Y483465D02*
Y487402D01*
X200787Y485433D02*
X204724D01*
X202756Y483465D02*
Y487402D01*
X220472Y485433D02*
X224410D01*
X222441Y483465D02*
Y487402D01*
X242126Y483465D02*
Y487402D01*
X240158Y485433D02*
X244094D01*
X273327Y246063D02*
X277067D01*
X275197Y244193D02*
Y247933D01*
X284646Y244291D02*
Y247835D01*
X282874Y246063D02*
X286417D01*
X183858Y223031D02*
Y226575D01*
X182087Y224803D02*
X185630D01*
X218110Y233268D02*
Y236811D01*
X216339Y235039D02*
X219882D01*
X193701Y222441D02*
Y226378D01*
X191732Y224410D02*
X195669D01*
X240158Y222441D02*
Y226378D01*
X238189Y224410D02*
X242126D01*
D13*
X650591Y140256D02*
D03*
D14*
X646654Y479134D02*
Y492520D01*
X654134Y479134D02*
Y492520D01*
X646654D02*
X654134D01*
X646654Y479134D02*
X654134D01*
X626968D02*
Y492520D01*
X634449Y479134D02*
Y492520D01*
X626968D02*
X634449D01*
X626968Y479134D02*
X634449D01*
X607677D02*
Y492520D01*
X615158Y479134D02*
Y492520D01*
X607677D02*
X615158D01*
X607677Y479134D02*
X615158D01*
X587205D02*
Y492520D01*
X594685Y479134D02*
Y492520D01*
X587205D02*
X594685D01*
X587205Y479134D02*
X594685D01*
X567520D02*
Y492520D01*
X575000Y479134D02*
Y492520D01*
X567520D02*
X575000D01*
X567520Y479134D02*
X575000D01*
X545866Y478740D02*
Y492126D01*
X553346Y478740D02*
Y492126D01*
X545866D02*
X553346D01*
X545866Y478740D02*
X553346D01*
X667913Y479134D02*
Y492520D01*
X675394Y479134D02*
Y492520D01*
X667913D02*
X675394D01*
X667913Y479134D02*
X675394D01*
X547244Y401575D02*
X569291D01*
X547244Y432283D02*
X569291D01*
Y401575D02*
Y432283D01*
X547244Y401575D02*
Y432283D01*
X371063Y478740D02*
Y492126D01*
X378543Y478740D02*
Y492126D01*
X371063D02*
X378543D01*
X371063Y478740D02*
X378543D01*
X391142D02*
Y492126D01*
X398622Y478740D02*
Y492126D01*
X391142D02*
X398622D01*
X391142Y478740D02*
X398622D01*
X410827D02*
Y492126D01*
X418307Y478740D02*
Y492126D01*
X410827D02*
X418307D01*
X410827Y478740D02*
X418307D01*
X350984D02*
Y492126D01*
X358465Y478740D02*
Y492126D01*
X350984D02*
X358465D01*
X350984Y478740D02*
X358465D01*
X330512D02*
Y492126D01*
X337992Y478740D02*
Y492126D01*
X330512D02*
X337992D01*
X330512Y478740D02*
X337992D01*
X431299Y478839D02*
Y492224D01*
X438779Y478839D02*
Y492224D01*
X431299D02*
X438779D01*
X431299Y478839D02*
X438779D01*
X452953Y478740D02*
Y492126D01*
X460433Y478740D02*
Y492126D01*
X452953D02*
X460433D01*
X452953Y478740D02*
X460433D01*
X381496Y402756D02*
X403543D01*
X381496Y433465D02*
X403543D01*
Y402756D02*
Y433465D01*
X381496Y402756D02*
Y433465D01*
X222835Y404724D02*
X244882D01*
X222835Y435433D02*
X244882D01*
Y404724D02*
Y435433D01*
X222835Y404724D02*
Y435433D01*
X116339Y478740D02*
Y492126D01*
X123819Y478740D02*
Y492126D01*
X116339D02*
X123819D01*
X116339Y478740D02*
X123819D01*
X136417D02*
Y492126D01*
X143898Y478740D02*
Y492126D01*
X136417D02*
X143898D01*
X136417Y478740D02*
X143898D01*
X156496D02*
Y492126D01*
X163976Y478740D02*
Y492126D01*
X156496D02*
X163976D01*
X156496Y478740D02*
X163976D01*
X177362D02*
Y492126D01*
X184843Y478740D02*
Y492126D01*
X177362D02*
X184843D01*
X177362Y478740D02*
X184843D01*
X199016D02*
Y492126D01*
X206496Y478740D02*
Y492126D01*
X199016D02*
X206496D01*
X199016Y478740D02*
X206496D01*
X218701D02*
Y492126D01*
X226181Y478740D02*
Y492126D01*
X218701D02*
X226181D01*
X218701Y478740D02*
X226181D01*
X238386D02*
X245866D01*
X238386Y492126D02*
X245866D01*
Y478740D02*
Y492126D01*
X238386Y478740D02*
Y492126D01*
X278150Y240158D02*
Y251969D01*
X272244Y240158D02*
Y251969D01*
Y240158D02*
X278150D01*
X272244Y251969D02*
X278150D01*
X281890Y240354D02*
X287402D01*
X281890Y251772D02*
X287402D01*
Y240354D02*
Y251772D01*
X281890Y240354D02*
Y251772D01*
X181102Y219094D02*
X186614D01*
X181102Y230512D02*
X186614D01*
Y219094D02*
Y230512D01*
X181102Y219094D02*
Y230512D01*
X215354Y229331D02*
X220866D01*
X215354Y240748D02*
X220866D01*
Y229331D02*
Y240748D01*
X215354Y229331D02*
Y240748D01*
X190748Y218504D02*
X196653D01*
X190748Y230315D02*
X196653D01*
Y218504D02*
Y230315D01*
X190748Y218504D02*
Y230315D01*
X225590Y213583D02*
X254724D01*
X225590Y235236D02*
X254724D01*
X225590Y213583D02*
Y235236D01*
X254724Y213583D02*
Y235236D01*
D26*
X407185Y744783D02*
Y751575D01*
X42913Y357874D02*
X51575D01*
X39370Y361417D02*
X42913Y357874D01*
X39370Y361417D02*
Y366142D01*
X316220Y263228D02*
Y263720D01*
X748032Y417323D02*
X748032Y417323D01*
X739370Y423228D02*
X745276Y417323D01*
X748032D01*
X46850Y447638D02*
X227165Y267323D01*
X46850Y447638D02*
X46850Y679528D01*
X227165Y267323D02*
X238189D01*
X568110Y438976D02*
X571654Y435433D01*
Y430315D02*
Y435433D01*
X569882Y428543D02*
X571654Y430315D01*
X564961Y438976D02*
X568110D01*
X567535Y428543D02*
X569882D01*
X39764Y414406D02*
X40784Y413386D01*
X759055Y711811D02*
X759055Y419291D01*
X722835Y748032D02*
X759055Y711811D01*
X762327Y394216D02*
X767717Y399606D01*
X762327Y357996D02*
Y394216D01*
X759055Y371654D02*
Y419291D01*
X757480Y370079D02*
X759055Y371654D01*
X409449Y417323D02*
Y426378D01*
X406102Y429724D02*
X409449Y426378D01*
X401787Y429724D02*
X406102D01*
X249919Y421260D02*
Y429609D01*
X247835Y431693D02*
X249919Y429609D01*
X243126Y431693D02*
X247835D01*
X230315Y271260D02*
X242913D01*
X229528Y272047D02*
X230315Y271260D01*
X50000Y451575D02*
X229528Y272047D01*
X50000Y451575D02*
X50000Y676772D01*
X131890Y758661D01*
X238189Y231890D02*
Y250000D01*
X233209Y226909D02*
X238189Y231890D01*
X229429Y226909D02*
X233209D01*
X242913Y231358D02*
Y250000D01*
X233465Y221909D02*
X242913Y231358D01*
X229429Y221909D02*
X233465D01*
X46850Y679528D02*
X129134Y761811D01*
X226634Y263228D02*
X300630D01*
X43307Y446555D02*
X226634Y263228D01*
X43307Y682283D02*
X43307Y446555D01*
X375562Y758661D02*
X383465Y750759D01*
X131890Y758661D02*
X375562Y758661D01*
X383465Y748032D02*
Y750759D01*
X384322Y761811D02*
X395374Y750759D01*
X129134Y761811D02*
X384322Y761811D01*
X395374Y748032D02*
Y750759D01*
X43307Y682283D02*
X137402Y776378D01*
X382382D01*
X407185Y751575D01*
X390158Y779921D02*
X419095Y750984D01*
X135433Y779921D02*
X390158D01*
X39764Y684252D02*
X135433Y779921D01*
X308563Y249114D02*
X311417Y251969D01*
X284646Y249114D02*
X308563D01*
X311417Y251969D02*
Y258425D01*
X316220Y263228D01*
X304583Y267181D02*
X312760D01*
X316220Y263720D01*
X300630Y263228D02*
X304583Y267181D01*
X39764Y414406D02*
Y684252D01*
X407185Y744783D02*
X415354Y736614D01*
X718209D01*
X419095Y748032D02*
Y750984D01*
X39370Y413386D02*
X40784D01*
X602362Y198031D02*
X762327Y357996D01*
X481417Y198031D02*
X602362D01*
X476221Y203228D02*
X481417Y198031D01*
X718209Y736614D02*
X748032Y706791D01*
X748032Y417323D01*
X419095Y748032D02*
X722835D01*
X748032Y370079D02*
X757480D01*
D27*
X306221Y263228D02*
D03*
Y253228D02*
D03*
Y243228D02*
D03*
Y233228D02*
D03*
Y223228D02*
D03*
Y213228D02*
D03*
Y203228D02*
D03*
Y193228D02*
D03*
Y183228D02*
D03*
Y173228D02*
D03*
X316220Y263228D02*
D03*
Y253228D02*
D03*
Y243228D02*
D03*
Y233228D02*
D03*
Y223228D02*
D03*
Y213228D02*
D03*
Y203228D02*
D03*
Y193228D02*
D03*
Y183228D02*
D03*
Y173228D02*
D03*
X476221Y263228D02*
D03*
Y253228D02*
D03*
Y243228D02*
D03*
Y233228D02*
D03*
Y223228D02*
D03*
Y213228D02*
D03*
Y203228D02*
D03*
Y193228D02*
D03*
Y183228D02*
D03*
Y173228D02*
D03*
X486221Y263228D02*
D03*
Y253228D02*
D03*
Y243228D02*
D03*
Y233228D02*
D03*
Y223228D02*
D03*
Y213228D02*
D03*
Y203228D02*
D03*
Y193228D02*
D03*
Y183228D02*
D03*
Y173228D02*
D03*
D28*
X218110Y294488D02*
D03*
X352362Y214961D02*
D03*
X409449Y213779D02*
D03*
X124803Y714567D02*
D03*
X650394Y128347D02*
D03*
X521654Y190945D02*
D03*
X218110Y248425D02*
D03*
X173622Y152756D02*
D03*
X218110Y408661D02*
D03*
X119291Y777165D02*
D03*
X362992Y748032D02*
D03*
X263386Y224410D02*
D03*
X259055Y245276D02*
D03*
X51575Y357874D02*
D03*
X652756Y112992D02*
D03*
X641732Y125197D02*
D03*
X637402D02*
D03*
X672047Y116929D02*
D03*
X663386Y112598D02*
D03*
X739370Y423228D02*
D03*
X606299Y677165D02*
D03*
X595669D02*
D03*
X614961D02*
D03*
X625591D02*
D03*
X595276Y517323D02*
D03*
X605512D02*
D03*
X615748D02*
D03*
X380315Y677165D02*
D03*
X390158D02*
D03*
X400000D02*
D03*
X410630D02*
D03*
X409842Y517323D02*
D03*
X380709D02*
D03*
X400394D02*
D03*
X156299Y676772D02*
D03*
X165748D02*
D03*
X185433D02*
D03*
X195669D02*
D03*
X175591Y516929D02*
D03*
X185433D02*
D03*
X195669D02*
D03*
X249919Y421260D02*
D03*
X299213Y233071D02*
D03*
X757283Y360236D02*
D03*
X564961Y438976D02*
D03*
X409449Y417323D02*
D03*
X301181Y208661D02*
D03*
Y257874D02*
D03*
X242913Y271260D02*
D03*
X238189Y267323D02*
D03*
Y250000D02*
D03*
X242913D02*
D03*
X332677Y193307D02*
D03*
X334252Y203150D02*
D03*
X397638Y237795D02*
D03*
X398031Y243150D02*
D03*
X452756Y266929D02*
D03*
X458661D02*
D03*
X326772Y183071D02*
D03*
X470472Y273622D02*
D03*
X464961D02*
D03*
X310630Y164961D02*
D03*
X318898Y154724D02*
D03*
X314961Y159449D02*
D03*
X330315Y156299D02*
D03*
X322835Y164961D02*
D03*
X325984Y160630D02*
D03*
X464567Y261811D02*
D03*
X767717Y399606D02*
D03*
X748032D02*
D03*
Y387795D02*
D03*
Y362992D02*
D03*
Y375984D02*
D03*
X495276Y242913D02*
D03*
X385827D02*
D03*
X332677Y233071D02*
D03*
Y243701D02*
D03*
X197244Y475591D02*
D03*
X188976Y481890D02*
D03*
X539370Y107480D02*
D03*
Y114173D02*
D03*
D29*
X18189Y357677D02*
D03*
Y421850D02*
D03*
X769213Y425787D02*
D03*
Y361614D02*
D03*
X426929Y769193D02*
D03*
X362756D02*
D03*
D30*
X627658Y163484D02*
D03*
X654429D02*
D03*
D31*
X771654Y15748D02*
D03*
Y771654D02*
D03*
X15748D02*
D03*
Y15748D02*
D03*
D32*
X57598Y389764D02*
D03*
Y413386D02*
D03*
X39370D02*
D03*
Y389764D02*
D03*
X57598Y366142D02*
D03*
X39370D02*
D03*
X57598Y401575D02*
D03*
X39370D02*
D03*
X57598Y377953D02*
D03*
X39370D02*
D03*
X729803Y393701D02*
D03*
Y370079D02*
D03*
X748032D02*
D03*
Y393701D02*
D03*
X729803Y417323D02*
D03*
X748032D02*
D03*
X729803Y381890D02*
D03*
X748032D02*
D03*
X729803Y405512D02*
D03*
X748032D02*
D03*
D33*
X203543Y237008D02*
D03*
Y227008D02*
D03*
X174016Y237008D02*
D03*
Y227008D02*
D03*
X152756Y237559D02*
D03*
Y227559D02*
D03*
Y217559D02*
D03*
D34*
X383071Y748032D02*
D03*
X406791D02*
D03*
X371260D02*
D03*
X418701D02*
D03*
X394980D02*
D03*
D35*
X650394Y489272D02*
D03*
Y482382D02*
D03*
X630709Y489272D02*
D03*
Y482382D02*
D03*
X611417Y489272D02*
D03*
Y482382D02*
D03*
X590945Y489272D02*
D03*
Y482382D02*
D03*
X571260Y489272D02*
D03*
Y482382D02*
D03*
X549606Y488878D02*
D03*
Y481988D02*
D03*
X671654Y489272D02*
D03*
Y482382D02*
D03*
X374803Y488878D02*
D03*
Y481988D02*
D03*
X394882Y488878D02*
D03*
Y481988D02*
D03*
X414567Y488878D02*
D03*
Y481988D02*
D03*
X354724Y488878D02*
D03*
Y481988D02*
D03*
X334252Y488878D02*
D03*
Y481988D02*
D03*
X435039Y488976D02*
D03*
Y482087D02*
D03*
X456693Y488878D02*
D03*
Y481988D02*
D03*
X120079Y488878D02*
D03*
Y481988D02*
D03*
X140157Y488878D02*
D03*
Y481988D02*
D03*
X160236Y488878D02*
D03*
Y481988D02*
D03*
X181102Y488878D02*
D03*
Y481988D02*
D03*
X202756Y488878D02*
D03*
Y481988D02*
D03*
X222441Y488878D02*
D03*
Y481988D02*
D03*
X242126D02*
D03*
Y488878D02*
D03*
D36*
X567224Y405315D02*
D03*
X564665D02*
D03*
X562106D02*
D03*
X559547D02*
D03*
X556988D02*
D03*
X554429D02*
D03*
X551870D02*
D03*
X549311D02*
D03*
X567224Y428543D02*
D03*
X564665D02*
D03*
X562106D02*
D03*
X559547D02*
D03*
X556988D02*
D03*
X554429D02*
D03*
X551870D02*
D03*
X549311D02*
D03*
X401476Y406496D02*
D03*
X398917D02*
D03*
X396358D02*
D03*
X393799D02*
D03*
X391240D02*
D03*
X388681D02*
D03*
X386122D02*
D03*
X383563D02*
D03*
X401476Y429724D02*
D03*
X398917D02*
D03*
X396358D02*
D03*
X393799D02*
D03*
X391240D02*
D03*
X388681D02*
D03*
X386122D02*
D03*
X383563D02*
D03*
X242815Y408465D02*
D03*
X240256D02*
D03*
X237697D02*
D03*
X235138D02*
D03*
X232579D02*
D03*
X230020D02*
D03*
X227461D02*
D03*
X224902D02*
D03*
X242815Y431693D02*
D03*
X240256D02*
D03*
X237697D02*
D03*
X235138D02*
D03*
X232579D02*
D03*
X230020D02*
D03*
X227461D02*
D03*
X224902D02*
D03*
D37*
X275197Y243110D02*
D03*
Y249016D02*
D03*
X193701Y221555D02*
D03*
Y227264D02*
D03*
D38*
X284646Y243012D02*
D03*
Y249114D02*
D03*
X218110Y231988D02*
D03*
Y238090D02*
D03*
D39*
X183858Y221949D02*
D03*
Y227658D02*
D03*
D40*
X229429Y216910D02*
D03*
Y221909D02*
D03*
Y226909D02*
D03*
Y231909D02*
D03*
X250886Y216910D02*
D03*
Y221909D02*
D03*
Y226909D02*
D03*
Y231909D02*
D03*
M02*
