M48
;Layer_Color=9474304
;FILE_FORMAT=2:5
INCH,LZ
;TYPE=PLATED
T1F00S00C0.01968
T2F00S00C0.01968
T3F00S00C0.02756
T4F00S00C0.03740
T5F00S00C0.04016
T6F00S00C0.04331
T7F00S00C0.09488
T8F00S00C0.15748
%
T01
X0183858Y0422047
X0203937Y0433071
X0283465Y0462992
X0291339Y0455512
X0298425Y0394444
X0285103Y0381122
X0275984Y035433
X027126Y0355512
X0254232Y0354429
X0351969Y0364567
X0352836Y0384565
X0323622Y0402756
X0321654Y0431102
X038937Y0348031
X0401181
X0426378
X046624Y035935
X0465194Y0400455
X0468504Y0456299
X0460709Y0456614
X0457874Y0461417
X0494487Y0403936
X0500486Y0407067
X0518898Y0396063
X050315Y0372441
X0492913Y0364567
X0485354Y0384567
X0500787Y0340945
X0557087Y0363386
X0568504Y0425197
X0576378Y0429134
X0590158Y0422441
X0585433Y0413386
X0595669Y0440945
Y0452362
X0577559Y0452756
Y0464173
X0564173Y0440551
X0556692Y0501574
X0595669Y0490945
X050315Y0486614
X0490158Y0500787
X0475197Y0516929
X0538189Y0584449
X0527559Y0605905
X0389764
X0406988Y0583169
X0440551Y0512992
X0440945Y0507874
X0433858Y0496457
X0468504Y0478346
X0356614Y0507874
X0344882Y0506299
X0345276Y0511024
X0332677Y0500787
X0287402Y0498032
X0279195Y0492581
X0273228Y0501181
X0212598Y0486614
X0261614Y0585335
X0252756Y0605905
T02
X0293307Y0322342
X0481102
X0528543Y0477953
X0596555Y0614567
X040374Y0491634
X0252559Y0472342
X0197047Y0551772
Y0618405
X0326575Y0635433
Y0677067
X0467028
Y0635335
T03
X0513543Y0517165
X0523543
X0533543
X0543543
X0553543
X0415354Y0516929
X0405354
X0395354
X0385354
X0375354
X0276378
X0266378
X0256378
X0246378
X0236378
Y0676929
X0246378
X0256378
X0266378
X0276378
X0375354
X0385354
X0395354
X0405354
X0415354
X0513543Y0677165
X0523543
X0533543
X0543543
X0553543
T04
X0609154Y0363976
Y0390748
T05
X0305354Y0396614
Y0406614
Y0416614
Y0426614
Y0436614
Y0446614
Y0456614
Y0466614
X0315354
Y0456614
Y0446614
Y0436614
Y0426614
Y0416614
Y0406614
Y0396614
X0475354
X0485354
Y0406614
Y0416614
Y0426614
Y0436614
Y0446614
Y0456614
Y0466614
X0475354
Y0456614
Y0446614
Y0436614
Y0426614
Y0416614
Y0406614
Y0476614
X0485354
Y0486614
X0475354
X0315354
Y0476614
X0305354
Y0486614
T06
X017874Y0349055
Y0359055
Y0369055
Y0392362
Y0402362
X0213779
Y0392362
T07
X0173301Y0425
X0362933Y0327264
X0427106
X0616968Y0426181
Y0490354
X0173301Y0489173
T08
X0170866Y0324803
X0619291
X0170866Y0687008
X0619291
M30
