G04*
G04 #@! TF.GenerationSoftware,Altium Limited,Altium Designer,19.1.8 (144)*
G04*
G04 Layer_Color=16711935*
%FSLAX25Y25*%
%MOIN*%
G70*
G01*
G75*
%ADD12C,0.00394*%
%ADD13R,0.40158X0.15945*%
%ADD14C,0.00197*%
%ADD21C,0.04737*%
%ADD22C,0.03556*%
%ADD23C,0.10288*%
%ADD24C,0.04540*%
%ADD25C,0.24422*%
%ADD41R,0.12296X0.05800*%
%ADD42C,0.05131*%
%ADD43R,0.05800X0.12296*%
%ADD44R,0.06312X0.05131*%
%ADD45O,0.02572X0.06312*%
%ADD46R,0.04737X0.04934*%
%ADD47R,0.04343X0.04147*%
%ADD48R,0.04343X0.04540*%
%ADD49O,0.06509X0.03162*%
D12*
X611909Y131791D02*
Y156398D01*
X670768Y131693D02*
Y156496D01*
X611909Y179134D02*
X670768D01*
X611909Y167224D02*
Y179134D01*
X670768Y167224D02*
Y179134D01*
X566732Y411614D02*
G03*
X566732Y411614I-1969J0D01*
G01*
X400984Y412795D02*
G03*
X400984Y412795I-1969J0D01*
G01*
X242323Y414764D02*
G03*
X242323Y414764I-1969J0D01*
G01*
X246457Y230709D02*
G03*
X246457Y230709I-1969J0D01*
G01*
X647638Y481595D02*
Y490059D01*
X653150Y481595D02*
Y490059D01*
X647638D02*
X653150D01*
X647638Y481595D02*
X653150D01*
X627953D02*
Y490059D01*
X633465Y481595D02*
Y490059D01*
X627953D02*
X633465D01*
X627953Y481595D02*
X633465D01*
X608661D02*
Y490059D01*
X614173Y481595D02*
Y490059D01*
X608661D02*
X614173D01*
X608661Y481595D02*
X614173D01*
X588189D02*
Y490059D01*
X593701Y481595D02*
Y490059D01*
X588189D02*
X593701D01*
X588189Y481595D02*
X593701D01*
X568504D02*
Y490059D01*
X574016Y481595D02*
Y490059D01*
X568504D02*
X574016D01*
X568504Y481595D02*
X574016D01*
X546850Y481201D02*
Y489665D01*
X552362Y481201D02*
Y489665D01*
X546850D02*
X552362D01*
X546850Y481201D02*
X552362D01*
X668898Y481595D02*
Y490059D01*
X674409Y481595D02*
Y490059D01*
X668898D02*
X674409D01*
X668898Y481595D02*
X674409D01*
X548228Y408071D02*
X568307D01*
X548228Y425787D02*
X568307D01*
Y408071D02*
Y425787D01*
X548228Y408071D02*
Y425787D01*
X372047Y481201D02*
Y489665D01*
X377559Y481201D02*
Y489665D01*
X372047D02*
X377559D01*
X372047Y481201D02*
X377559D01*
X392126D02*
Y489665D01*
X397638Y481201D02*
Y489665D01*
X392126D02*
X397638D01*
X392126Y481201D02*
X397638D01*
X411811D02*
Y489665D01*
X417323Y481201D02*
Y489665D01*
X411811D02*
X417323D01*
X411811Y481201D02*
X417323D01*
X351969D02*
Y489665D01*
X357480Y481201D02*
Y489665D01*
X351969D02*
X357480D01*
X351969Y481201D02*
X357480D01*
X331496D02*
Y489665D01*
X337008Y481201D02*
Y489665D01*
X331496D02*
X337008D01*
X331496Y481201D02*
X337008D01*
X432283Y481299D02*
Y489764D01*
X437795Y481299D02*
Y489764D01*
X432283D02*
X437795D01*
X432283Y481299D02*
X437795D01*
X453937Y481201D02*
Y489665D01*
X459449Y481201D02*
Y489665D01*
X453937D02*
X459449D01*
X453937Y481201D02*
X459449D01*
X382480Y409252D02*
X402559D01*
X382480Y426968D02*
X402559D01*
Y409252D02*
Y426968D01*
X382480Y409252D02*
Y426968D01*
X223819Y411221D02*
X243898D01*
X223819Y428937D02*
X243898D01*
Y411221D02*
Y428937D01*
X223819Y411221D02*
Y428937D01*
X117323Y481201D02*
Y489665D01*
X122835Y481201D02*
Y489665D01*
X117323D02*
X122835D01*
X117323Y481201D02*
X122835D01*
X137402D02*
Y489665D01*
X142913Y481201D02*
Y489665D01*
X137402D02*
X142913D01*
X137402Y481201D02*
X142913D01*
X157480D02*
Y489665D01*
X162992Y481201D02*
Y489665D01*
X157480D02*
X162992D01*
X157480Y481201D02*
X162992D01*
X178347D02*
Y489665D01*
X183858Y481201D02*
Y489665D01*
X178347D02*
X183858D01*
X178347Y481201D02*
X183858D01*
X200000D02*
Y489665D01*
X205512Y481201D02*
Y489665D01*
X200000D02*
X205512D01*
X200000Y481201D02*
X205512D01*
X219685D02*
Y489665D01*
X225197Y481201D02*
Y489665D01*
X219685D02*
X225197D01*
X219685Y481201D02*
X225197D01*
X239370D02*
X244882D01*
X239370Y489665D02*
X244882D01*
Y481201D02*
Y489665D01*
X239370Y481201D02*
Y489665D01*
X277067Y242618D02*
Y249508D01*
X273327Y242618D02*
Y249508D01*
Y242618D02*
X277067D01*
X273327Y249508D02*
X277067D01*
X282874Y242717D02*
X286417D01*
X282874Y249410D02*
X286417D01*
Y242717D02*
Y249410D01*
X282874Y242717D02*
Y249410D01*
X182087Y221457D02*
X185630D01*
X182087Y228150D02*
X185630D01*
Y221457D02*
Y228150D01*
X182087Y221457D02*
Y228150D01*
X216339Y231693D02*
X219882D01*
X216339Y238386D02*
X219882D01*
Y231693D02*
Y238386D01*
X216339Y231693D02*
Y238386D01*
X191732Y220866D02*
X195669D01*
X191732Y227953D02*
X195669D01*
Y220866D02*
Y227953D01*
X191732Y220866D02*
Y227953D01*
X232283Y214567D02*
X248031D01*
X232283Y234252D02*
X248031D01*
X232283Y214567D02*
Y234252D01*
X248031Y214567D02*
Y234252D01*
X648425Y485827D02*
X652362D01*
X650394Y483858D02*
Y487795D01*
X628740Y485827D02*
X632677D01*
X630709Y483858D02*
Y487795D01*
X609449Y485827D02*
X613386D01*
X611417Y483858D02*
Y487795D01*
X588976Y485827D02*
X592913D01*
X590945Y483858D02*
Y487795D01*
X569291Y485827D02*
X573228D01*
X571260Y483858D02*
Y487795D01*
X547638Y485433D02*
X551575D01*
X549606Y483465D02*
Y487402D01*
X669685Y485827D02*
X673622D01*
X671654Y483858D02*
Y487795D01*
X558268Y414961D02*
Y418898D01*
X556299Y416929D02*
X560236D01*
X372835Y485433D02*
X376772D01*
X374803Y483465D02*
Y487402D01*
X392913Y485433D02*
X396850D01*
X394882Y483465D02*
Y487402D01*
X412598Y485433D02*
X416535D01*
X414567Y483465D02*
Y487402D01*
X352756Y485433D02*
X356693D01*
X354724Y483465D02*
Y487402D01*
X332283Y485433D02*
X336221D01*
X334252Y483465D02*
Y487402D01*
X433071Y485532D02*
X437008D01*
X435039Y483563D02*
Y487500D01*
X454724Y485433D02*
X458661D01*
X456693Y483465D02*
Y487402D01*
X392520Y416142D02*
Y420079D01*
X390551Y418110D02*
X394488D01*
X233858D02*
Y422047D01*
X231890Y420079D02*
X235827D01*
X118110Y485433D02*
X122047D01*
X120079Y483465D02*
Y487402D01*
X138189Y485433D02*
X142126D01*
X140157Y483465D02*
Y487402D01*
X158268Y485433D02*
X162205D01*
X160236Y483465D02*
Y487402D01*
X179134Y485433D02*
X183071D01*
X181102Y483465D02*
Y487402D01*
X200787Y485433D02*
X204724D01*
X202756Y483465D02*
Y487402D01*
X220472Y485433D02*
X224410D01*
X222441Y483465D02*
Y487402D01*
X242126Y483465D02*
Y487402D01*
X240158Y485433D02*
X244094D01*
X273327Y246063D02*
X277067D01*
X275197Y244193D02*
Y247933D01*
X284646Y244291D02*
Y247835D01*
X282874Y246063D02*
X286417D01*
X183858Y223031D02*
Y226575D01*
X182087Y224803D02*
X185630D01*
X218110Y233268D02*
Y236811D01*
X216339Y235039D02*
X219882D01*
X193701Y222441D02*
Y226378D01*
X191732Y224410D02*
X195669D01*
X240158Y222441D02*
Y226378D01*
X238189Y224410D02*
X242126D01*
D13*
X650591Y140256D02*
D03*
D14*
X646654Y479134D02*
Y492520D01*
X654134Y479134D02*
Y492520D01*
X646654D02*
X654134D01*
X646654Y479134D02*
X654134D01*
X626968D02*
Y492520D01*
X634449Y479134D02*
Y492520D01*
X626968D02*
X634449D01*
X626968Y479134D02*
X634449D01*
X607677D02*
Y492520D01*
X615158Y479134D02*
Y492520D01*
X607677D02*
X615158D01*
X607677Y479134D02*
X615158D01*
X587205D02*
Y492520D01*
X594685Y479134D02*
Y492520D01*
X587205D02*
X594685D01*
X587205Y479134D02*
X594685D01*
X567520D02*
Y492520D01*
X575000Y479134D02*
Y492520D01*
X567520D02*
X575000D01*
X567520Y479134D02*
X575000D01*
X545866Y478740D02*
Y492126D01*
X553346Y478740D02*
Y492126D01*
X545866D02*
X553346D01*
X545866Y478740D02*
X553346D01*
X667913Y479134D02*
Y492520D01*
X675394Y479134D02*
Y492520D01*
X667913D02*
X675394D01*
X667913Y479134D02*
X675394D01*
X547244Y401575D02*
X569291D01*
X547244Y432283D02*
X569291D01*
Y401575D02*
Y432283D01*
X547244Y401575D02*
Y432283D01*
X371063Y478740D02*
Y492126D01*
X378543Y478740D02*
Y492126D01*
X371063D02*
X378543D01*
X371063Y478740D02*
X378543D01*
X391142D02*
Y492126D01*
X398622Y478740D02*
Y492126D01*
X391142D02*
X398622D01*
X391142Y478740D02*
X398622D01*
X410827D02*
Y492126D01*
X418307Y478740D02*
Y492126D01*
X410827D02*
X418307D01*
X410827Y478740D02*
X418307D01*
X350984D02*
Y492126D01*
X358465Y478740D02*
Y492126D01*
X350984D02*
X358465D01*
X350984Y478740D02*
X358465D01*
X330512D02*
Y492126D01*
X337992Y478740D02*
Y492126D01*
X330512D02*
X337992D01*
X330512Y478740D02*
X337992D01*
X431299Y478839D02*
Y492224D01*
X438779Y478839D02*
Y492224D01*
X431299D02*
X438779D01*
X431299Y478839D02*
X438779D01*
X452953Y478740D02*
Y492126D01*
X460433Y478740D02*
Y492126D01*
X452953D02*
X460433D01*
X452953Y478740D02*
X460433D01*
X381496Y402756D02*
X403543D01*
X381496Y433465D02*
X403543D01*
Y402756D02*
Y433465D01*
X381496Y402756D02*
Y433465D01*
X222835Y404724D02*
X244882D01*
X222835Y435433D02*
X244882D01*
Y404724D02*
Y435433D01*
X222835Y404724D02*
Y435433D01*
X116339Y478740D02*
Y492126D01*
X123819Y478740D02*
Y492126D01*
X116339D02*
X123819D01*
X116339Y478740D02*
X123819D01*
X136417D02*
Y492126D01*
X143898Y478740D02*
Y492126D01*
X136417D02*
X143898D01*
X136417Y478740D02*
X143898D01*
X156496D02*
Y492126D01*
X163976Y478740D02*
Y492126D01*
X156496D02*
X163976D01*
X156496Y478740D02*
X163976D01*
X177362D02*
Y492126D01*
X184843Y478740D02*
Y492126D01*
X177362D02*
X184843D01*
X177362Y478740D02*
X184843D01*
X199016D02*
Y492126D01*
X206496Y478740D02*
Y492126D01*
X199016D02*
X206496D01*
X199016Y478740D02*
X206496D01*
X218701D02*
Y492126D01*
X226181Y478740D02*
Y492126D01*
X218701D02*
X226181D01*
X218701Y478740D02*
X226181D01*
X238386D02*
X245866D01*
X238386Y492126D02*
X245866D01*
Y478740D02*
Y492126D01*
X238386Y478740D02*
Y492126D01*
X278150Y240158D02*
Y251969D01*
X272244Y240158D02*
Y251969D01*
Y240158D02*
X278150D01*
X272244Y251969D02*
X278150D01*
X281890Y240354D02*
X287402D01*
X281890Y251772D02*
X287402D01*
Y240354D02*
Y251772D01*
X281890Y240354D02*
Y251772D01*
X181102Y219094D02*
X186614D01*
X181102Y230512D02*
X186614D01*
Y219094D02*
Y230512D01*
X181102Y219094D02*
Y230512D01*
X215354Y229331D02*
X220866D01*
X215354Y240748D02*
X220866D01*
Y229331D02*
Y240748D01*
X215354Y229331D02*
Y240748D01*
X190748Y218504D02*
X196653D01*
X190748Y230315D02*
X196653D01*
Y218504D02*
Y230315D01*
X190748Y218504D02*
Y230315D01*
X225590Y213583D02*
X254724D01*
X225590Y235236D02*
X254724D01*
X225590Y213583D02*
Y235236D01*
X254724Y213583D02*
Y235236D01*
D21*
X306221Y263228D02*
D03*
Y253228D02*
D03*
Y243228D02*
D03*
Y233228D02*
D03*
Y223228D02*
D03*
Y213228D02*
D03*
Y203228D02*
D03*
Y193228D02*
D03*
Y183228D02*
D03*
Y173228D02*
D03*
X316220Y263228D02*
D03*
Y253228D02*
D03*
Y243228D02*
D03*
Y233228D02*
D03*
Y223228D02*
D03*
Y213228D02*
D03*
Y203228D02*
D03*
Y193228D02*
D03*
Y183228D02*
D03*
Y173228D02*
D03*
X476221Y263228D02*
D03*
Y253228D02*
D03*
Y243228D02*
D03*
Y233228D02*
D03*
Y223228D02*
D03*
Y213228D02*
D03*
Y203228D02*
D03*
Y193228D02*
D03*
Y183228D02*
D03*
Y173228D02*
D03*
X486221Y263228D02*
D03*
Y253228D02*
D03*
Y243228D02*
D03*
Y233228D02*
D03*
Y223228D02*
D03*
Y213228D02*
D03*
Y203228D02*
D03*
Y193228D02*
D03*
Y183228D02*
D03*
Y173228D02*
D03*
D22*
X218110Y294488D02*
D03*
X352362Y214961D02*
D03*
X409449Y213779D02*
D03*
X124803Y714567D02*
D03*
X650394Y128347D02*
D03*
X521654Y190945D02*
D03*
X218110Y248425D02*
D03*
X173622Y152756D02*
D03*
X218110Y408661D02*
D03*
X119291Y777165D02*
D03*
X362992Y748032D02*
D03*
X263386Y224410D02*
D03*
X259055Y245276D02*
D03*
X51575Y357874D02*
D03*
X652756Y112992D02*
D03*
X641732Y125197D02*
D03*
X637402D02*
D03*
X672047Y116929D02*
D03*
X663386Y112598D02*
D03*
X739370Y423228D02*
D03*
X606299Y677165D02*
D03*
X595669D02*
D03*
X614961D02*
D03*
X625591D02*
D03*
X595276Y517323D02*
D03*
X605512D02*
D03*
X615748D02*
D03*
X380315Y677165D02*
D03*
X390158D02*
D03*
X400000D02*
D03*
X410630D02*
D03*
X409842Y517323D02*
D03*
X380709D02*
D03*
X400394D02*
D03*
X156299Y676772D02*
D03*
X165748D02*
D03*
X185433D02*
D03*
X195669D02*
D03*
X175591Y516929D02*
D03*
X185433D02*
D03*
X195669D02*
D03*
X249919Y421260D02*
D03*
X299213Y233071D02*
D03*
X757283Y360236D02*
D03*
X564961Y438976D02*
D03*
X409449Y417323D02*
D03*
X301181Y208661D02*
D03*
Y257874D02*
D03*
X242913Y271260D02*
D03*
X238189Y267323D02*
D03*
Y250000D02*
D03*
X242913D02*
D03*
X332677Y193307D02*
D03*
X334252Y203150D02*
D03*
X397638Y237795D02*
D03*
X398031Y243150D02*
D03*
X452756Y266929D02*
D03*
X458661D02*
D03*
X326772Y183071D02*
D03*
X470472Y273622D02*
D03*
X464961D02*
D03*
X310630Y164961D02*
D03*
X318898Y154724D02*
D03*
X314961Y159449D02*
D03*
X330315Y156299D02*
D03*
X322835Y164961D02*
D03*
X325984Y160630D02*
D03*
X464567Y261811D02*
D03*
X767717Y399606D02*
D03*
X748032D02*
D03*
Y387795D02*
D03*
Y362992D02*
D03*
Y375984D02*
D03*
X495276Y242913D02*
D03*
X385827D02*
D03*
X332677Y233071D02*
D03*
Y243701D02*
D03*
X197244Y475591D02*
D03*
X188976Y481890D02*
D03*
X539370Y107480D02*
D03*
Y114173D02*
D03*
D23*
X18189Y357677D02*
D03*
Y421850D02*
D03*
X769213Y425787D02*
D03*
Y361614D02*
D03*
X426929Y769193D02*
D03*
X362756D02*
D03*
D24*
X627658Y163484D02*
D03*
X654429D02*
D03*
D25*
X771654Y15748D02*
D03*
Y771654D02*
D03*
X15748D02*
D03*
Y15748D02*
D03*
D41*
X57598Y389764D02*
D03*
Y413386D02*
D03*
X39370D02*
D03*
Y389764D02*
D03*
X57598Y366142D02*
D03*
X39370D02*
D03*
X57598Y401575D02*
D03*
X39370D02*
D03*
X57598Y377953D02*
D03*
X39370D02*
D03*
X729803Y393701D02*
D03*
Y370079D02*
D03*
X748032D02*
D03*
Y393701D02*
D03*
X729803Y417323D02*
D03*
X748032D02*
D03*
X729803Y381890D02*
D03*
X748032D02*
D03*
X729803Y405512D02*
D03*
X748032D02*
D03*
D42*
X203543Y237008D02*
D03*
Y227008D02*
D03*
X174016Y237008D02*
D03*
Y227008D02*
D03*
X152756Y237559D02*
D03*
Y227559D02*
D03*
Y217559D02*
D03*
D43*
X383071Y748032D02*
D03*
X406791D02*
D03*
X371260D02*
D03*
X418701D02*
D03*
X394980D02*
D03*
D44*
X650394Y489272D02*
D03*
Y482382D02*
D03*
X630709Y489272D02*
D03*
Y482382D02*
D03*
X611417Y489272D02*
D03*
Y482382D02*
D03*
X590945Y489272D02*
D03*
Y482382D02*
D03*
X571260Y489272D02*
D03*
Y482382D02*
D03*
X549606Y488878D02*
D03*
Y481988D02*
D03*
X671654Y489272D02*
D03*
Y482382D02*
D03*
X374803Y488878D02*
D03*
Y481988D02*
D03*
X394882Y488878D02*
D03*
Y481988D02*
D03*
X414567Y488878D02*
D03*
Y481988D02*
D03*
X354724Y488878D02*
D03*
Y481988D02*
D03*
X334252Y488878D02*
D03*
Y481988D02*
D03*
X435039Y488976D02*
D03*
Y482087D02*
D03*
X456693Y488878D02*
D03*
Y481988D02*
D03*
X120079Y488878D02*
D03*
Y481988D02*
D03*
X140157Y488878D02*
D03*
Y481988D02*
D03*
X160236Y488878D02*
D03*
Y481988D02*
D03*
X181102Y488878D02*
D03*
Y481988D02*
D03*
X202756Y488878D02*
D03*
Y481988D02*
D03*
X222441Y488878D02*
D03*
Y481988D02*
D03*
X242126D02*
D03*
Y488878D02*
D03*
D45*
X567224Y405315D02*
D03*
X564665D02*
D03*
X562106D02*
D03*
X559547D02*
D03*
X556988D02*
D03*
X554429D02*
D03*
X551870D02*
D03*
X549311D02*
D03*
X567224Y428543D02*
D03*
X564665D02*
D03*
X562106D02*
D03*
X559547D02*
D03*
X556988D02*
D03*
X554429D02*
D03*
X551870D02*
D03*
X549311D02*
D03*
X401476Y406496D02*
D03*
X398917D02*
D03*
X396358D02*
D03*
X393799D02*
D03*
X391240D02*
D03*
X388681D02*
D03*
X386122D02*
D03*
X383563D02*
D03*
X401476Y429724D02*
D03*
X398917D02*
D03*
X396358D02*
D03*
X393799D02*
D03*
X391240D02*
D03*
X388681D02*
D03*
X386122D02*
D03*
X383563D02*
D03*
X242815Y408465D02*
D03*
X240256D02*
D03*
X237697D02*
D03*
X235138D02*
D03*
X232579D02*
D03*
X230020D02*
D03*
X227461D02*
D03*
X224902D02*
D03*
X242815Y431693D02*
D03*
X240256D02*
D03*
X237697D02*
D03*
X235138D02*
D03*
X232579D02*
D03*
X230020D02*
D03*
X227461D02*
D03*
X224902D02*
D03*
D46*
X275197Y243110D02*
D03*
Y249016D02*
D03*
X193701Y221555D02*
D03*
Y227264D02*
D03*
D47*
X284646Y243012D02*
D03*
Y249114D02*
D03*
X218110Y231988D02*
D03*
Y238090D02*
D03*
D48*
X183858Y221949D02*
D03*
Y227658D02*
D03*
D49*
X229429Y216910D02*
D03*
Y221909D02*
D03*
Y226909D02*
D03*
Y231909D02*
D03*
X250886Y216910D02*
D03*
Y221909D02*
D03*
Y226909D02*
D03*
Y231909D02*
D03*
M02*
