G04*
G04 #@! TF.GenerationSoftware,Altium Limited,Altium Designer,18.1.11 (251)*
G04*
G04 Layer_Color=16711935*
%FSLAX25Y25*%
%MOIN*%
G70*
G01*
G75*
%ADD45C,0.00394*%
D45*
X261417Y90571D02*
G03*
X261417Y90571I-1969J0D01*
G01*
X182888Y43701D02*
G03*
X182888Y43701I-1969J0D01*
G01*
X56024Y90177D02*
G03*
X56024Y90177I-1969J0D01*
G01*
X159055Y90571D02*
G03*
X159055Y90571I-1969J0D01*
G01*
X277244Y87028D02*
Y118287D01*
X241653D02*
X277244D01*
X241653Y82697D02*
Y118287D01*
Y82697D02*
X272913D01*
X277244Y87028D01*
X241653D02*
X277244D01*
X171865Y34646D02*
Y47244D01*
X184463Y34646D02*
Y47244D01*
X171865Y34646D02*
X184463D01*
X171865Y47244D02*
X184463D01*
X154030Y29035D02*
X162298D01*
X154030Y23720D02*
X162298D01*
X154030D02*
Y29035D01*
X162298Y23720D02*
Y29035D01*
X190354Y45866D02*
Y52559D01*
X193898Y45866D02*
Y52559D01*
X190354Y45866D02*
X193898D01*
X190354Y52559D02*
X193898D01*
X158071Y55709D02*
Y59252D01*
X164764Y55709D02*
Y59252D01*
X158071D02*
X164764D01*
X158071Y55709D02*
X164764D01*
X190748Y67126D02*
Y70669D01*
X184055Y67126D02*
Y70669D01*
Y67126D02*
X190748D01*
X184055Y70669D02*
X190748D01*
X230512Y5709D02*
X234055D01*
X230512Y12402D02*
X234055D01*
X230512Y5709D02*
Y12402D01*
X234055Y5709D02*
Y12402D01*
X236811Y5709D02*
X240354D01*
X236811Y12402D02*
X240354D01*
X236811Y5709D02*
Y12402D01*
X240354Y5709D02*
Y12402D01*
X154134Y35728D02*
X162402D01*
X154134Y30413D02*
X162402D01*
X154134D02*
Y35728D01*
X162402Y30413D02*
Y35728D01*
X156496Y47736D02*
X164764D01*
X156496Y53051D02*
X164764D01*
Y47736D02*
Y53051D01*
X156496Y47736D02*
Y53051D01*
X184055Y64468D02*
X192323D01*
X184055Y59153D02*
X192323D01*
X184055D02*
Y64468D01*
X192323Y59153D02*
Y64468D01*
X30807Y41142D02*
X36122D01*
X30807Y49409D02*
X36122D01*
X30807Y41142D02*
Y49409D01*
X36122Y41142D02*
Y49409D01*
X54823Y41142D02*
X60138D01*
X54823Y49409D02*
X60138D01*
X54823Y41142D02*
Y49409D01*
X60138Y41142D02*
Y49409D01*
X84705Y41142D02*
Y49409D01*
X79390Y41142D02*
Y49409D01*
X84705D01*
X79390Y41142D02*
X84705D01*
X286713Y99409D02*
X292028D01*
X286713Y91142D02*
X292028D01*
Y99409D01*
X286713Y91142D02*
Y99409D01*
Y111614D02*
X292028D01*
X286713Y103347D02*
X292028D01*
Y111614D01*
X286713Y103347D02*
Y111614D01*
X294980Y103347D02*
X300295D01*
X294980Y111614D02*
X300295D01*
X294980Y103347D02*
Y111614D01*
X300295Y103347D02*
Y111614D01*
X202988Y68307D02*
Y76575D01*
X197673Y68307D02*
Y76575D01*
X202988D01*
X197673Y68307D02*
X202988D01*
X195571Y86811D02*
Y95079D01*
X190256Y86811D02*
Y95079D01*
X195571D01*
X190256Y86811D02*
X195571D01*
X185138Y112008D02*
X190453D01*
X185138Y103740D02*
X190453D01*
Y112008D01*
X185138Y103740D02*
Y112008D01*
X80807Y103740D02*
Y112008D01*
X86122Y103740D02*
Y112008D01*
X80807Y103740D02*
X86122D01*
X80807Y112008D02*
X86122D01*
X95965Y103740D02*
Y112008D01*
X90650Y103740D02*
Y112008D01*
X95965D01*
X90650Y103740D02*
X95965D01*
X36260Y86634D02*
X71850D01*
X67520Y82303D02*
X71850Y86634D01*
X36260Y82303D02*
X67520D01*
X36260D02*
Y117894D01*
X71850D01*
Y86634D02*
Y117894D01*
X174882Y87028D02*
Y118287D01*
X139291D02*
X174882D01*
X139291Y82697D02*
Y118287D01*
Y82697D02*
X170551D01*
X174882Y87028D01*
X139291D02*
X174882D01*
M02*
