G04*
G04 #@! TF.GenerationSoftware,Altium Limited,Altium Designer,19.1.8 (144)*
G04*
G04 Layer_Physical_Order=2*
G04 Layer_Color=16711680*
%FSLAX25Y25*%
%MOIN*%
G70*
G01*
G75*
%ADD10C,0.01000*%
%ADD13C,0.00394*%
%ADD14R,0.40158X0.15945*%
%ADD15C,0.00197*%
%ADD26C,0.01968*%
%ADD27C,0.04016*%
%ADD28C,0.01968*%
%ADD29C,0.02756*%
%ADD30C,0.09488*%
%ADD31C,0.23622*%
%ADD32C,0.03740*%
%ADD33R,0.11496X0.05000*%
%ADD34C,0.04331*%
%ADD35R,0.05000X0.11496*%
%ADD36R,0.05512X0.04331*%
%ADD37O,0.05709X0.02362*%
%ADD38O,0.05512X0.01772*%
%ADD39R,0.03543X0.03740*%
%ADD40R,0.03937X0.04134*%
%ADD41R,0.03347X0.03543*%
%ADD42R,0.03543X0.03347*%
%ADD43R,0.04134X0.03937*%
G36*
X677565Y702480D02*
X679609Y701932D01*
X681564Y701122D01*
X683397Y700064D01*
X685075Y698776D01*
X686572Y697280D01*
X687860Y695601D01*
X688918Y693769D01*
X689727Y691814D01*
X690275Y689770D01*
X690551Y687672D01*
X690551Y686614D01*
X690551D01*
X690551Y686614D01*
X690551Y325197D01*
X690551Y324139D01*
X690275Y322041D01*
X689727Y319997D01*
X688918Y318042D01*
X687860Y316210D01*
X686572Y314531D01*
X685075Y313035D01*
X683397Y311747D01*
X681564Y310689D01*
X679609Y309879D01*
X677565Y309331D01*
X675467Y309055D01*
X674409Y309055D01*
X115354Y309055D01*
X114322Y309055D01*
X112275Y309325D01*
X110281Y309859D01*
X108374Y310649D01*
X106586Y311681D01*
X104949Y312938D01*
X103489Y314397D01*
X102232Y316035D01*
X101200Y317823D01*
X100410Y319730D01*
X99876Y321724D01*
X99606Y323771D01*
X99606Y324803D01*
Y687008D01*
X99606Y688040D01*
X99876Y690087D01*
X100410Y692081D01*
X101200Y693988D01*
X102232Y695776D01*
X103489Y697413D01*
X104949Y698873D01*
X106586Y700130D01*
X108374Y701162D01*
X110281Y701952D01*
X112275Y702486D01*
X114322Y702756D01*
X115354Y702756D01*
X115354Y702756D01*
X674410Y702756D01*
X675468Y702756D01*
X677565Y702480D01*
D02*
G37*
%LPC*%
G36*
X533543Y679590D02*
X532616Y679405D01*
X531829Y678880D01*
X531303Y678093D01*
X531119Y677165D01*
X531303Y676237D01*
X531829Y675451D01*
X532616Y674925D01*
X533543Y674741D01*
X534471Y674925D01*
X535258Y675451D01*
X535783Y676237D01*
X535968Y677165D01*
X535783Y678093D01*
X535258Y678880D01*
X534471Y679405D01*
X533543Y679590D01*
D02*
G37*
G36*
X395354Y679354D02*
X394426Y679169D01*
X393640Y678644D01*
X393114Y677857D01*
X392930Y676929D01*
X393114Y676001D01*
X393640Y675215D01*
X394426Y674689D01*
X395354Y674505D01*
X396282Y674689D01*
X397069Y675215D01*
X397594Y676001D01*
X397779Y676929D01*
X397594Y677857D01*
X397069Y678644D01*
X396282Y679169D01*
X395354Y679354D01*
D02*
G37*
G36*
X256378D02*
X255450Y679169D01*
X254663Y678644D01*
X254138Y677857D01*
X253953Y676929D01*
X254138Y676001D01*
X254663Y675215D01*
X255450Y674689D01*
X256378Y674505D01*
X257306Y674689D01*
X258092Y675215D01*
X258618Y676001D01*
X258803Y676929D01*
X258618Y677857D01*
X258092Y678644D01*
X257306Y679169D01*
X256378Y679354D01*
D02*
G37*
G36*
X674409Y699859D02*
X672399Y699700D01*
X670438Y699230D01*
X668575Y698458D01*
X666856Y697404D01*
X665323Y696095D01*
X664013Y694561D01*
X662959Y692842D01*
X662188Y690979D01*
X661717Y689018D01*
X661559Y687008D01*
X661717Y684998D01*
X662188Y683037D01*
X662959Y681174D01*
X664013Y679455D01*
X665323Y677921D01*
X666856Y676612D01*
X668575Y675558D01*
X670438Y674786D01*
X672399Y674315D01*
X674409Y674157D01*
X676420Y674315D01*
X678380Y674786D01*
X680243Y675558D01*
X681963Y676612D01*
X683496Y677921D01*
X684806Y679455D01*
X685859Y681174D01*
X686631Y683037D01*
X687102Y684998D01*
X687260Y687008D01*
X687102Y689018D01*
X686631Y690979D01*
X685859Y692842D01*
X684806Y694561D01*
X683496Y696095D01*
X681963Y697404D01*
X680243Y698458D01*
X678380Y699230D01*
X676420Y699700D01*
X674409Y699859D01*
D02*
G37*
G36*
X115354D02*
X113344Y699700D01*
X111383Y699230D01*
X109520Y698458D01*
X107801Y697404D01*
X106268Y696095D01*
X104958Y694561D01*
X103904Y692842D01*
X103133Y690979D01*
X102662Y689018D01*
X102504Y687008D01*
X102662Y684998D01*
X103133Y683037D01*
X103904Y681174D01*
X104958Y679455D01*
X106268Y677921D01*
X107801Y676612D01*
X109520Y675558D01*
X111383Y674786D01*
X113344Y674315D01*
X115354Y674157D01*
X117365Y674315D01*
X119325Y674786D01*
X121188Y675558D01*
X122908Y676612D01*
X124441Y677921D01*
X125751Y679455D01*
X126804Y681174D01*
X127576Y683037D01*
X128047Y684998D01*
X128205Y687008D01*
X128047Y689018D01*
X127576Y690979D01*
X126804Y692842D01*
X125751Y694561D01*
X124441Y696095D01*
X122908Y697404D01*
X121188Y698458D01*
X119325Y699230D01*
X117365Y699700D01*
X115354Y699859D01*
D02*
G37*
G36*
X385354Y679354D02*
X384426Y679169D01*
X383640Y678644D01*
X383114Y677857D01*
X382930Y676929D01*
X383114Y676001D01*
X383640Y675215D01*
X383825Y675091D01*
Y668027D01*
X381677D01*
Y661697D01*
X389189D01*
Y668027D01*
X386884D01*
Y675091D01*
X387069Y675215D01*
X387594Y676001D01*
X387779Y676929D01*
X387594Y677857D01*
X387069Y678644D01*
X386282Y679169D01*
X385354Y679354D01*
D02*
G37*
G36*
X375354D02*
X374427Y679169D01*
X373640Y678644D01*
X373114Y677857D01*
X372930Y676929D01*
X373114Y676001D01*
X373640Y675215D01*
X373825Y675091D01*
Y667634D01*
X371441D01*
Y661303D01*
X378953D01*
Y667634D01*
X376884D01*
Y675091D01*
X377069Y675215D01*
X377594Y676001D01*
X377779Y676929D01*
X377594Y677857D01*
X377069Y678644D01*
X376282Y679169D01*
X375354Y679354D01*
D02*
G37*
G36*
X246378D02*
X245450Y679169D01*
X244664Y678644D01*
X244138Y677857D01*
X243953Y676929D01*
X244138Y676001D01*
X244664Y675215D01*
X244849Y675091D01*
Y667634D01*
X242701D01*
Y661303D01*
X250213D01*
Y667634D01*
X247907D01*
Y675091D01*
X248092Y675215D01*
X248618Y676001D01*
X248802Y676929D01*
X248618Y677857D01*
X248092Y678644D01*
X247306Y679169D01*
X246378Y679354D01*
D02*
G37*
G36*
X236378D02*
X235450Y679169D01*
X234664Y678644D01*
X234138Y677857D01*
X233953Y676929D01*
X234138Y676001D01*
X234664Y675215D01*
X234849Y675091D01*
Y667634D01*
X232465D01*
Y661303D01*
X239976D01*
Y667634D01*
X237907D01*
Y675091D01*
X238092Y675215D01*
X238618Y676001D01*
X238803Y676929D01*
X238618Y677857D01*
X238092Y678644D01*
X237306Y679169D01*
X236378Y679354D01*
D02*
G37*
G36*
X523543Y679590D02*
X522615Y679405D01*
X521829Y678880D01*
X521303Y678093D01*
X521119Y677165D01*
X521303Y676237D01*
X521829Y675451D01*
X522014Y675327D01*
Y667240D01*
X519866D01*
Y660910D01*
X527378D01*
Y667240D01*
X525073D01*
Y675327D01*
X525258Y675451D01*
X525783Y676237D01*
X525968Y677165D01*
X525783Y678093D01*
X525258Y678880D01*
X524471Y679405D01*
X523543Y679590D01*
D02*
G37*
G36*
X513543D02*
X512615Y679405D01*
X511829Y678880D01*
X511303Y678093D01*
X511119Y677165D01*
X511303Y676237D01*
X511829Y675451D01*
X512014Y675327D01*
Y667240D01*
X510024D01*
Y660910D01*
X517535D01*
Y667240D01*
X515073D01*
Y675327D01*
X515258Y675451D01*
X515783Y676237D01*
X515968Y677165D01*
X515783Y678093D01*
X515258Y678880D01*
X514471Y679405D01*
X513543Y679590D01*
D02*
G37*
G36*
X406546Y681336D02*
X404162D01*
X403577Y681220D01*
X403081Y680889D01*
X399706Y677514D01*
X399374Y677017D01*
X399258Y676432D01*
Y625682D01*
X392194Y618618D01*
X391863Y618122D01*
X391746Y617537D01*
Y608042D01*
X391246Y607775D01*
X390692Y608146D01*
X389764Y608330D01*
X388836Y608146D01*
X388049Y607620D01*
X387860Y607337D01*
X386637D01*
X386267Y607584D01*
X385531Y607730D01*
X381791D01*
X381055Y607584D01*
X380432Y607167D01*
X380015Y606543D01*
X379869Y605807D01*
X379940Y605451D01*
X379540Y604951D01*
X378726D01*
Y649693D01*
X383840Y654807D01*
X389189D01*
Y661138D01*
X381677D01*
Y656970D01*
X379453Y654746D01*
X378953Y654953D01*
Y660744D01*
X371441D01*
Y654413D01*
X373668D01*
Y603471D01*
X373784Y602885D01*
X374115Y602389D01*
X376724Y599781D01*
X377220Y599449D01*
X377805Y599333D01*
X377814D01*
X378021Y598833D01*
X374052Y594864D01*
X373721Y594368D01*
X373604Y593783D01*
Y585351D01*
X373721Y584766D01*
X374052Y584270D01*
X376519Y581803D01*
X376540Y581698D01*
X376871Y581202D01*
X383904Y574170D01*
Y541256D01*
X381677D01*
Y534925D01*
X389189D01*
Y541256D01*
X386963D01*
Y573535D01*
X387424Y573726D01*
X394140Y567010D01*
Y541256D01*
X391913D01*
Y534925D01*
X399425D01*
Y541256D01*
X397199D01*
Y566127D01*
X397661Y566318D01*
X403589Y560390D01*
Y541256D01*
X401362D01*
Y534925D01*
X407888D01*
Y534366D01*
X401362D01*
Y528035D01*
X403825D01*
Y518767D01*
X403640Y518644D01*
X403114Y517857D01*
X402930Y516929D01*
X403114Y516001D01*
X403282Y515750D01*
X403047Y515309D01*
X397662D01*
X397426Y515750D01*
X397594Y516001D01*
X397779Y516929D01*
X397594Y517857D01*
X397069Y518644D01*
X396884Y518767D01*
Y528035D01*
X399425D01*
Y534366D01*
X391913D01*
Y528035D01*
X393825D01*
Y518767D01*
X393640Y518644D01*
X393114Y517857D01*
X392930Y516929D01*
X393114Y516001D01*
X393282Y515750D01*
X393047Y515309D01*
X387662D01*
X387426Y515750D01*
X387594Y516001D01*
X387779Y516929D01*
X387594Y517857D01*
X387069Y518644D01*
X386884Y518767D01*
Y528035D01*
X389189D01*
Y534366D01*
X381677D01*
Y528035D01*
X383825D01*
Y518767D01*
X383640Y518644D01*
X383114Y517857D01*
X382930Y516929D01*
X383114Y516001D01*
X383282Y515750D01*
X383047Y515309D01*
X377662D01*
X377426Y515750D01*
X377594Y516001D01*
X377779Y516929D01*
X377594Y517857D01*
X377069Y518644D01*
X376282Y519169D01*
X375354Y519354D01*
X374427Y519169D01*
X373640Y518644D01*
X373114Y517857D01*
X372930Y516929D01*
X373114Y516001D01*
X373282Y515750D01*
X373047Y515309D01*
X327953D01*
X327367Y515193D01*
X326871Y514861D01*
X308450Y496440D01*
X308119Y495943D01*
X308002Y495358D01*
Y488122D01*
X307502Y487952D01*
X307185Y488366D01*
X306556Y488848D01*
X305825Y489151D01*
X305039Y489254D01*
X304254Y489151D01*
X303522Y488848D01*
X302894Y488366D01*
X302412Y487737D01*
X302109Y487006D01*
X302006Y486221D01*
X302109Y485435D01*
X302412Y484704D01*
X302894Y484075D01*
X303522Y483593D01*
X304254Y483290D01*
X305039Y483187D01*
X305825Y483290D01*
X306556Y483593D01*
X307185Y484075D01*
X307502Y484489D01*
X308002Y484319D01*
Y478122D01*
X307502Y477952D01*
X307185Y478366D01*
X306556Y478848D01*
X305825Y479151D01*
X305039Y479254D01*
X304254Y479151D01*
X303522Y478848D01*
X302894Y478366D01*
X302412Y477737D01*
X302109Y477006D01*
X302006Y476221D01*
X302109Y475435D01*
X302412Y474704D01*
X302894Y474075D01*
X303522Y473593D01*
X304254Y473290D01*
X304340Y473279D01*
X304500Y472805D01*
X300450Y468755D01*
X300118Y468259D01*
X300002Y467673D01*
Y459728D01*
X300118Y459143D01*
X300450Y458647D01*
X302107Y456990D01*
X302006Y456220D01*
X302109Y455435D01*
X302412Y454704D01*
X302894Y454075D01*
X303522Y453593D01*
X304254Y453290D01*
X305039Y453187D01*
X305825Y453290D01*
X306556Y453593D01*
X307185Y454075D01*
X307667Y454704D01*
X307970Y455435D01*
X308073Y456220D01*
X307970Y457006D01*
X307667Y457737D01*
X307185Y458366D01*
X306556Y458848D01*
X305825Y459151D01*
X305039Y459254D01*
X304270Y459153D01*
X303061Y460362D01*
Y463382D01*
X303198Y463449D01*
X303561Y463577D01*
X304254Y463290D01*
X305039Y463187D01*
X305825Y463290D01*
X306556Y463593D01*
X307185Y464075D01*
X307667Y464704D01*
X307970Y465435D01*
X308073Y466221D01*
X307972Y466990D01*
X312613Y471631D01*
X312945Y472127D01*
X313061Y472713D01*
Y473382D01*
X313198Y473450D01*
X313561Y473577D01*
X314254Y473290D01*
X315039Y473187D01*
X315825Y473290D01*
X316556Y473593D01*
X317185Y474075D01*
X317667Y474704D01*
X317970Y475435D01*
X318073Y476221D01*
X317970Y477006D01*
X317667Y477737D01*
X317185Y478366D01*
X316556Y478848D01*
X316322Y478945D01*
X316267Y479509D01*
X316675Y479782D01*
X316799Y479967D01*
X317477D01*
X352343Y445100D01*
X352300Y444882D01*
X352484Y443954D01*
X352876Y443368D01*
X352627Y442868D01*
X316112D01*
X316013Y443368D01*
X316556Y443593D01*
X317185Y444075D01*
X317667Y444704D01*
X317970Y445435D01*
X318073Y446220D01*
X317970Y447006D01*
X317667Y447737D01*
X317185Y448366D01*
X316556Y448848D01*
X315825Y449151D01*
X315039Y449254D01*
X314254Y449151D01*
X313523Y448848D01*
X312894Y448366D01*
X312412Y447737D01*
X312109Y447006D01*
X312005Y446220D01*
X312109Y445435D01*
X312412Y444704D01*
X312894Y444075D01*
X313523Y443593D01*
X314066Y443368D01*
X313966Y442868D01*
X306112D01*
X306013Y443368D01*
X306556Y443593D01*
X307185Y444075D01*
X307667Y444704D01*
X307970Y445435D01*
X308073Y446220D01*
X307970Y447006D01*
X307667Y447737D01*
X307185Y448366D01*
X306556Y448848D01*
X305825Y449151D01*
X305039Y449254D01*
X304254Y449151D01*
X303522Y448848D01*
X302894Y448366D01*
X302412Y447737D01*
X302109Y447006D01*
X302006Y446220D01*
X302109Y445435D01*
X302412Y444704D01*
X302894Y444075D01*
X303522Y443593D01*
X304066Y443368D01*
X303966Y442868D01*
X264807D01*
X173066Y534609D01*
X172570Y534940D01*
X171984Y535057D01*
X150063D01*
X149478Y534940D01*
X148981Y534609D01*
X146875Y532503D01*
X146544Y532007D01*
X146427Y531421D01*
Y524181D01*
X143492Y521246D01*
X142391D01*
X142243Y521216D01*
X132228D01*
Y514217D01*
X145724D01*
Y519152D01*
X147965Y521393D01*
X148427Y521202D01*
Y514595D01*
X148471Y514377D01*
Y509244D01*
X148427Y509027D01*
Y502421D01*
X147947Y502267D01*
X147927Y502267D01*
X145724Y504470D01*
Y509406D01*
X132228D01*
Y502406D01*
X143463D01*
X145321Y500548D01*
Y497594D01*
X132228D01*
Y490594D01*
X143758D01*
X145124Y489229D01*
Y485783D01*
X132228D01*
Y478784D01*
X136953D01*
Y477630D01*
X136736Y477306D01*
X136552Y476378D01*
X136736Y475450D01*
X137262Y474663D01*
X138049Y474138D01*
X138976Y473953D01*
X139904Y474138D01*
X140691Y474663D01*
X141216Y475450D01*
X141401Y476378D01*
X141216Y477306D01*
X140999Y477630D01*
Y478784D01*
X145724D01*
Y479609D01*
X146186Y479800D01*
X148785Y477202D01*
X149281Y476870D01*
X149866Y476754D01*
X174430D01*
X253462Y397722D01*
X253270Y397260D01*
X248803D01*
Y391717D01*
X249552D01*
Y391016D01*
X249335Y390692D01*
X249150Y389764D01*
X249335Y388836D01*
X249817Y388114D01*
X249680Y387614D01*
X247397D01*
Y391717D01*
X248047D01*
Y397260D01*
X242701D01*
Y391717D01*
X243351D01*
Y387614D01*
X242012D01*
Y386531D01*
X232985D01*
X232938Y386562D01*
X232087Y386732D01*
X228740D01*
X227889Y386562D01*
X227168Y386080D01*
X226686Y385359D01*
X226516Y384508D01*
X226686Y383657D01*
X227168Y382935D01*
X227889Y382453D01*
X228740Y382284D01*
X232087D01*
X232938Y382453D01*
X232985Y382485D01*
X242012D01*
Y381677D01*
X254051D01*
Y387614D01*
X253469D01*
X253332Y388114D01*
X253815Y388836D01*
X253999Y389764D01*
X253815Y390692D01*
X253598Y391016D01*
Y391717D01*
X254150D01*
Y396381D01*
X254611Y396572D01*
X256045Y395139D01*
X256541Y394808D01*
X257126Y394691D01*
X302422D01*
X302894Y394075D01*
X303522Y393593D01*
X304254Y393290D01*
X305039Y393187D01*
X305825Y393290D01*
X306556Y393593D01*
X307185Y394075D01*
X307667Y394704D01*
X307970Y395435D01*
X308073Y396220D01*
X307970Y397006D01*
X307667Y397737D01*
X307185Y398366D01*
X306556Y398848D01*
X305825Y399151D01*
X305039Y399254D01*
X304254Y399151D01*
X303522Y398848D01*
X302894Y398366D01*
X302422Y397750D01*
X257759D01*
X251280Y404229D01*
X251471Y404691D01*
X302422D01*
X302894Y404075D01*
X303522Y403593D01*
X304254Y403290D01*
X305039Y403187D01*
X305825Y403290D01*
X306556Y403593D01*
X307185Y404075D01*
X307667Y404704D01*
X307970Y405435D01*
X308073Y406220D01*
X307970Y407006D01*
X307667Y407737D01*
X307185Y408366D01*
X306556Y408848D01*
X306492Y408874D01*
X306437Y409439D01*
X306833Y409703D01*
X307396Y409732D01*
X308707Y408422D01*
Y394728D01*
X295016Y381037D01*
X233688D01*
X233659Y381080D01*
X232938Y381562D01*
X232087Y381732D01*
X228740D01*
X227889Y381562D01*
X227168Y381080D01*
X226686Y380359D01*
X226516Y379508D01*
X226540Y379391D01*
X226079Y379145D01*
X214285Y390938D01*
X213629Y391377D01*
X212854Y391531D01*
X211528D01*
X211481Y391562D01*
X210630Y391732D01*
X207283D01*
X206433Y391562D01*
X205711Y391080D01*
X205682Y391037D01*
X193803D01*
X186127Y398713D01*
X186155Y398780D01*
X186264Y399606D01*
X186155Y400433D01*
X185836Y401203D01*
X185328Y401864D01*
X184667Y402371D01*
X183897Y402690D01*
X183071Y402799D01*
X182245Y402690D01*
X181474Y402371D01*
X180813Y401864D01*
X180306Y401203D01*
X180278Y401136D01*
X156336D01*
X156308Y401203D01*
X155801Y401864D01*
X155140Y402371D01*
X154370Y402690D01*
X153543Y402799D01*
X152717Y402690D01*
X151947Y402371D01*
X151286Y401864D01*
X150778Y401203D01*
X150751Y401136D01*
X141969D01*
X141383Y401019D01*
X140887Y400688D01*
X133344Y393144D01*
X133110Y393241D01*
X132283Y393350D01*
X131457Y393241D01*
X130687Y392922D01*
X130026Y392415D01*
X129519Y391754D01*
X129200Y390984D01*
X129091Y390158D01*
X129200Y389331D01*
X129519Y388561D01*
X130026Y387900D01*
X130687Y387393D01*
X131457Y387074D01*
X132283Y386965D01*
X133110Y387074D01*
X133880Y387393D01*
X134541Y387900D01*
X135048Y388561D01*
X135367Y389331D01*
X135476Y390158D01*
X135384Y390859D01*
X142602Y398077D01*
X150751D01*
X150778Y398010D01*
X151286Y397349D01*
X151947Y396841D01*
X152717Y396522D01*
X153543Y396414D01*
X154370Y396522D01*
X155140Y396841D01*
X155801Y397349D01*
X156308Y398010D01*
X156336Y398077D01*
X180278D01*
X180306Y398010D01*
X180813Y397349D01*
X181474Y396841D01*
X182245Y396522D01*
X183071Y396414D01*
X183897Y396522D01*
X183964Y396550D01*
X192088Y388426D01*
X192584Y388095D01*
X193169Y387979D01*
X205682D01*
X205711Y387935D01*
X206433Y387453D01*
X207283Y387284D01*
X210630D01*
X211481Y387453D01*
X211528Y387485D01*
X212016D01*
X212508Y386993D01*
X212317Y386531D01*
X211528D01*
X211481Y386562D01*
X210630Y386732D01*
X207283D01*
X206433Y386562D01*
X205711Y386080D01*
X205682Y386037D01*
X183981D01*
X183897Y386522D01*
X184667Y386841D01*
X185328Y387349D01*
X185836Y388010D01*
X186155Y388780D01*
X186264Y389606D01*
X186155Y390433D01*
X185836Y391203D01*
X185328Y391864D01*
X184667Y392371D01*
X183897Y392690D01*
X183071Y392799D01*
X182245Y392690D01*
X181474Y392371D01*
X180813Y391864D01*
X180306Y391203D01*
X180278Y391136D01*
X176197D01*
Y392929D01*
X170260D01*
Y386795D01*
Y385683D01*
X166157D01*
Y387386D01*
Y393126D01*
X160614D01*
Y391136D01*
X156336D01*
X156308Y391203D01*
X155801Y391864D01*
X155140Y392371D01*
X154370Y392690D01*
X153543Y392799D01*
X152717Y392690D01*
X151947Y392371D01*
X151286Y391864D01*
X150778Y391203D01*
X150459Y390433D01*
X150351Y389606D01*
X150459Y388780D01*
X150778Y388010D01*
X151286Y387349D01*
X151947Y386841D01*
X152586Y386577D01*
X152487Y386077D01*
X136909D01*
X136324Y385960D01*
X135828Y385629D01*
X133344Y383144D01*
X133110Y383241D01*
X132283Y383350D01*
X131457Y383241D01*
X130687Y382922D01*
X130026Y382415D01*
X129519Y381754D01*
X129200Y380984D01*
X129091Y380157D01*
X129200Y379331D01*
X129519Y378561D01*
X130026Y377900D01*
X130687Y377393D01*
X131457Y377074D01*
X132283Y376965D01*
X133110Y377074D01*
X133880Y377393D01*
X134541Y377900D01*
X135048Y378561D01*
X135367Y379331D01*
X135476Y380157D01*
X135384Y380859D01*
X137543Y383018D01*
X160614D01*
Y381677D01*
X166157D01*
Y382624D01*
X170260D01*
Y381087D01*
X176197D01*
Y382979D01*
X205682D01*
X205711Y382935D01*
X206433Y382453D01*
X207283Y382284D01*
X210630D01*
X211481Y382453D01*
X211528Y382485D01*
X212686D01*
X232821Y362349D01*
X233478Y361910D01*
X234252Y361756D01*
X381446D01*
X386953Y356249D01*
Y355457D01*
X386571Y355173D01*
X386453Y355173D01*
X379571D01*
Y350448D01*
X378418D01*
X378093Y350665D01*
X377165Y350850D01*
X376238Y350665D01*
X375451Y350140D01*
X375161Y349706D01*
X374661Y349858D01*
Y355173D01*
X367661D01*
Y350448D01*
X123673Y350448D01*
X105960Y368161D01*
X105960Y497193D01*
X134794Y526028D01*
X145724D01*
Y533028D01*
X132228D01*
Y529184D01*
X102506Y499462D01*
X102068Y498806D01*
X101914Y498032D01*
X101914Y367323D01*
X102068Y366549D01*
X102506Y365892D01*
X121404Y346995D01*
X122060Y346556D01*
X122835Y346402D01*
X367661Y346402D01*
Y341677D01*
X369138D01*
Y338681D01*
X369292Y337907D01*
X369731Y337250D01*
X388333Y318648D01*
X388990Y318210D01*
X389764Y318056D01*
X622047D01*
X622822Y318210D01*
X623478Y318648D01*
X652218Y347388D01*
X652657Y348045D01*
X652810Y348819D01*
X652810Y479571D01*
X657535D01*
Y486571D01*
X656710D01*
X656519Y487033D01*
X659743Y490257D01*
X660074Y490753D01*
X660191Y491339D01*
Y513779D01*
X660074Y514365D01*
X659743Y514861D01*
X657535Y517068D01*
Y522004D01*
X644039D01*
Y515004D01*
X655274D01*
X657132Y513146D01*
Y510193D01*
X644039D01*
Y503193D01*
X648687D01*
X648938Y502693D01*
X648547Y502109D01*
X648363Y501181D01*
X648547Y500253D01*
X649073Y499467D01*
X649860Y498941D01*
X650157Y498882D01*
X650108Y498382D01*
X644039D01*
Y496788D01*
X643959Y496714D01*
X643447Y496596D01*
X642660Y497122D01*
X641732Y497306D01*
X640804Y497122D01*
X640018Y496596D01*
X639807Y496281D01*
X639307Y496432D01*
Y498382D01*
X633356D01*
X633307Y498882D01*
X633605Y498941D01*
X634392Y499467D01*
X634917Y500253D01*
X635102Y501181D01*
X634917Y502109D01*
X634527Y502693D01*
X634778Y503193D01*
X639307D01*
Y510193D01*
X634110D01*
X633958Y510693D01*
X634392Y510982D01*
X634917Y511769D01*
X635102Y512697D01*
X634917Y513625D01*
X634392Y514411D01*
X634509Y514924D01*
X634584Y515004D01*
X639307D01*
Y522004D01*
X625811D01*
Y515004D01*
X630771D01*
X630845Y514924D01*
X630963Y514411D01*
X630437Y513625D01*
X630253Y512697D01*
X630437Y511769D01*
X630963Y510982D01*
X631396Y510693D01*
X631244Y510193D01*
X625811D01*
Y503193D01*
X630576D01*
X630827Y502693D01*
X630437Y502109D01*
X630253Y501181D01*
X630437Y500253D01*
X630963Y499467D01*
X631749Y498941D01*
X632047Y498882D01*
X631998Y498382D01*
X625811D01*
Y491382D01*
X637164D01*
X638278Y490268D01*
Y486571D01*
X625811D01*
Y481911D01*
X625158Y481258D01*
X482165D01*
X477972Y485451D01*
X478073Y486221D01*
X477970Y487006D01*
X477667Y487737D01*
X477185Y488366D01*
X476556Y488848D01*
X475825Y489151D01*
X475039Y489254D01*
X474254Y489151D01*
X473523Y488848D01*
X472894Y488366D01*
X472412Y487737D01*
X472109Y487006D01*
X472006Y486221D01*
X472109Y485435D01*
X472412Y484704D01*
X472894Y484075D01*
X473523Y483593D01*
X474254Y483290D01*
X475039Y483187D01*
X475809Y483288D01*
X477184Y481913D01*
X476993Y481451D01*
X474649D01*
X424758Y531342D01*
Y590739D01*
X424641Y591325D01*
X424310Y591821D01*
X411974Y604156D01*
X411478Y604488D01*
X410893Y604604D01*
X410754D01*
X410546Y604995D01*
X410543Y605104D01*
X410683Y605807D01*
X410536Y606543D01*
X410119Y607167D01*
X409496Y607584D01*
X408760Y607730D01*
X405020D01*
X404284Y607584D01*
X403660Y607167D01*
X403243Y606543D01*
X403097Y605807D01*
X403243Y605071D01*
X403607Y604528D01*
X403243Y603984D01*
X403097Y603248D01*
X403243Y602512D01*
X403319Y602399D01*
X403329Y602361D01*
X403160Y601737D01*
X402950Y601597D01*
X399706Y598353D01*
X399374Y597857D01*
X399258Y597272D01*
Y569700D01*
X398796Y569509D01*
X382796Y585509D01*
X382987Y585971D01*
X385531D01*
X386267Y586117D01*
X386891Y586534D01*
X386893Y586538D01*
X393579D01*
X394164Y586654D01*
X394660Y586985D01*
X396357Y588682D01*
X396689Y589179D01*
X396805Y589764D01*
Y616075D01*
X406200Y625470D01*
X406531Y625966D01*
X406647Y626551D01*
Y654807D01*
X408874D01*
Y660662D01*
X408874Y660992D01*
X409330Y661242D01*
X409347Y661226D01*
X411598Y658975D01*
Y654807D01*
X419110D01*
Y661138D01*
X414165D01*
X414126Y661197D01*
X414393Y661697D01*
X419110D01*
Y668027D01*
X416884D01*
Y675091D01*
X417069Y675215D01*
X417594Y676001D01*
X417779Y676929D01*
X417594Y677857D01*
X417069Y678644D01*
X416282Y679169D01*
X415354Y679354D01*
X414427Y679169D01*
X413640Y678644D01*
X413114Y677857D01*
X412930Y676929D01*
X413114Y676001D01*
X413640Y675215D01*
X413825Y675091D01*
Y668027D01*
X411598D01*
Y664419D01*
X411098Y664156D01*
X410978Y664238D01*
Y676905D01*
X410862Y677490D01*
X410530Y677986D01*
X407628Y680889D01*
X407132Y681220D01*
X406546Y681336D01*
D02*
G37*
G36*
X268898Y681844D02*
X264567D01*
X263982Y681728D01*
X263486Y681396D01*
X260730Y678641D01*
X260398Y678144D01*
X260282Y677559D01*
Y623320D01*
X255611Y618650D01*
X255280Y618154D01*
X255164Y617569D01*
Y607482D01*
X254663Y607331D01*
X254470Y607620D01*
X253684Y608146D01*
X252756Y608330D01*
X251828Y608146D01*
X251042Y607620D01*
X250852Y607337D01*
X248842D01*
X248472Y607584D01*
X247736Y607730D01*
X243996D01*
X243260Y607584D01*
X242636Y607167D01*
X242220Y606543D01*
X242073Y605807D01*
X242179Y605277D01*
X241860Y604777D01*
X240299D01*
X239750Y605326D01*
Y649300D01*
X244864Y654413D01*
X250213D01*
Y660744D01*
X242701D01*
Y656576D01*
X240450Y654325D01*
X240429Y654310D01*
X239976Y654559D01*
X239976Y654853D01*
Y660744D01*
X232465D01*
Y654413D01*
X234691D01*
Y603543D01*
X234807Y602958D01*
X235139Y602462D01*
X237993Y599608D01*
X238490Y599276D01*
X239075Y599160D01*
X239845D01*
X240053Y598660D01*
X236257Y594864D01*
X235926Y594368D01*
X235809Y593783D01*
Y578658D01*
X235926Y578073D01*
X236257Y577577D01*
X244927Y568906D01*
Y541650D01*
X242701D01*
Y535319D01*
X250213D01*
Y541650D01*
X247986D01*
Y568023D01*
X248448Y568214D01*
X254770Y561892D01*
Y541650D01*
X252543D01*
Y535319D01*
X260055D01*
Y541650D01*
X257829D01*
Y561009D01*
X258291Y561200D01*
X265006Y554485D01*
Y541650D01*
X262779D01*
Y535319D01*
X270291D01*
Y541650D01*
X268065D01*
Y555118D01*
X267948Y555703D01*
X267617Y556200D01*
X242868Y580948D01*
Y585824D01*
X243368Y586096D01*
X243996Y585971D01*
X247736D01*
X248472Y586117D01*
X249096Y586534D01*
X249098Y586538D01*
X254281D01*
X254866Y586654D01*
X255363Y586985D01*
X259774Y591397D01*
X260106Y591893D01*
X260222Y592479D01*
Y616107D01*
X267223Y623107D01*
X267555Y623604D01*
X267671Y624189D01*
Y654413D01*
X269898D01*
Y660284D01*
X269898Y660498D01*
X270314Y660801D01*
X270420Y660783D01*
X272622Y658581D01*
Y654413D01*
X280134D01*
Y660744D01*
X275189D01*
X275149Y660803D01*
X275417Y661303D01*
X280134D01*
Y667634D01*
X277907D01*
Y675091D01*
X278092Y675215D01*
X278618Y676001D01*
X278802Y676929D01*
X278618Y677857D01*
X278092Y678644D01*
X277306Y679169D01*
X276378Y679354D01*
X275450Y679169D01*
X274663Y678644D01*
X274138Y677857D01*
X273953Y676929D01*
X274138Y676001D01*
X274663Y675215D01*
X274849Y675091D01*
Y667634D01*
X272789D01*
Y677953D01*
X272673Y678538D01*
X272341Y679034D01*
X269979Y681396D01*
X269483Y681728D01*
X268898Y681844D01*
D02*
G37*
G36*
X544972Y681573D02*
X541461D01*
X540875Y681456D01*
X540379Y681125D01*
X538289Y679034D01*
X537957Y678538D01*
X537841Y677953D01*
Y627257D01*
X529474Y618890D01*
X529142Y618394D01*
X529026Y617809D01*
Y608316D01*
X528585Y608080D01*
X528487Y608146D01*
X527559Y608330D01*
X526631Y608146D01*
X525845Y607620D01*
X525655Y607337D01*
X524432D01*
X524063Y607584D01*
X523327Y607730D01*
X519587D01*
X518851Y607584D01*
X518227Y607167D01*
X517810Y606543D01*
X517809Y606536D01*
X517309Y606586D01*
Y649300D01*
X522029Y654020D01*
X527378D01*
Y660350D01*
X519866D01*
Y656183D01*
X518035Y654352D01*
X517535Y654559D01*
Y660350D01*
X510024D01*
Y654020D01*
X512250D01*
Y603543D01*
X512367Y602958D01*
X512698Y602462D01*
X515379Y599781D01*
X515682Y599579D01*
X515745Y599202D01*
X515741Y599034D01*
X515727Y598993D01*
X512119Y595385D01*
X511788Y594888D01*
X511671Y594303D01*
Y583505D01*
X511788Y582919D01*
X512119Y582423D01*
X522093Y572450D01*
Y543224D01*
X519866D01*
Y536894D01*
X527378D01*
Y543224D01*
X525151D01*
Y571566D01*
X525613Y571758D01*
X532329Y565042D01*
Y543224D01*
X530102D01*
Y536894D01*
X537614D01*
Y543224D01*
X535388D01*
Y564158D01*
X535850Y564350D01*
X542171Y558028D01*
Y543224D01*
X539945D01*
Y536894D01*
X547457D01*
Y543224D01*
X545230D01*
Y558661D01*
X545114Y559247D01*
X544782Y559743D01*
X518934Y585591D01*
X519156Y586005D01*
X519230Y586042D01*
X519587Y585971D01*
X523327D01*
X524063Y586117D01*
X524686Y586534D01*
X524689Y586538D01*
X527903D01*
X528488Y586654D01*
X528985Y586985D01*
X533637Y591637D01*
X533968Y592134D01*
X534085Y592719D01*
Y616347D01*
X544782Y627044D01*
X545114Y627541D01*
X545230Y628126D01*
Y654020D01*
X547457D01*
Y659811D01*
X547957Y660018D01*
X549787Y658187D01*
Y654020D01*
X557299D01*
Y660350D01*
X552354D01*
X552315Y660409D01*
X552582Y660910D01*
X557299D01*
Y667240D01*
X555073D01*
Y675327D01*
X555258Y675451D01*
X555783Y676237D01*
X555968Y677165D01*
X555783Y678093D01*
X555258Y678880D01*
X554471Y679405D01*
X553543Y679590D01*
X552615Y679405D01*
X551829Y678880D01*
X551303Y678093D01*
X551119Y677165D01*
X551303Y676237D01*
X551829Y675451D01*
X552014Y675327D01*
Y667240D01*
X550348D01*
Y676196D01*
X550232Y676781D01*
X549900Y677278D01*
X546053Y681125D01*
X545557Y681456D01*
X544972Y681573D01*
D02*
G37*
G36*
X671969Y544573D02*
X670469Y544376D01*
X669072Y543797D01*
X667872Y542876D01*
X666951Y541676D01*
X666372Y540279D01*
X666175Y538779D01*
X666372Y537280D01*
X666951Y535883D01*
X667872Y534683D01*
X669072Y533762D01*
X670469Y533183D01*
X671969Y532986D01*
X673468Y533183D01*
X674865Y533762D01*
X676065Y534683D01*
X676986Y535883D01*
X677565Y537280D01*
X677762Y538779D01*
X677565Y540279D01*
X676986Y541676D01*
X676065Y542876D01*
X674865Y543797D01*
X673468Y544376D01*
X671969Y544573D01*
D02*
G37*
G36*
X117795Y543786D02*
X116296Y543588D01*
X114899Y543010D01*
X113698Y542089D01*
X112778Y540889D01*
X112199Y539492D01*
X112002Y537992D01*
X112199Y536493D01*
X112778Y535095D01*
X113698Y533895D01*
X114899Y532975D01*
X116296Y532396D01*
X117795Y532198D01*
X119295Y532396D01*
X120692Y532975D01*
X121892Y533895D01*
X122813Y535095D01*
X123391Y536493D01*
X123589Y537992D01*
X123391Y539492D01*
X122813Y540889D01*
X121892Y542089D01*
X120692Y543010D01*
X119295Y543588D01*
X117795Y543786D01*
D02*
G37*
G36*
X639307Y533815D02*
X625811D01*
Y526815D01*
X639307D01*
Y533815D01*
D02*
G37*
G36*
X641339Y538645D02*
X640411Y538460D01*
X639624Y537935D01*
X639099Y537148D01*
X638914Y536221D01*
X639099Y535293D01*
X639624Y534506D01*
X640411Y533981D01*
X640794Y533904D01*
X644039Y530659D01*
Y529971D01*
X640794Y526726D01*
X640411Y526649D01*
X639624Y526124D01*
X639099Y525337D01*
X638914Y524409D01*
X639099Y523482D01*
X639624Y522695D01*
X640411Y522169D01*
X641339Y521985D01*
X642266Y522169D01*
X643053Y522695D01*
X643579Y523482D01*
X643655Y523865D01*
X646605Y526815D01*
X657535D01*
Y533815D01*
X649467D01*
X649272Y533854D01*
X646566D01*
X643655Y536765D01*
X643579Y537148D01*
X643053Y537935D01*
X642266Y538460D01*
X641339Y538645D01*
D02*
G37*
G36*
X270965Y607730D02*
X267224D01*
X266489Y607584D01*
X265865Y607167D01*
X265448Y606543D01*
X265302Y605807D01*
X265448Y605071D01*
X265811Y604528D01*
X265448Y603984D01*
X265302Y603248D01*
X265448Y602512D01*
X265811Y601968D01*
X265448Y601425D01*
X265302Y600689D01*
X265448Y599953D01*
X265811Y599409D01*
X265448Y598866D01*
X265302Y598130D01*
X265448Y597394D01*
X265811Y596850D01*
X265448Y596307D01*
X265302Y595571D01*
X265448Y594835D01*
X265811Y594291D01*
X265448Y593748D01*
X265302Y593012D01*
X265448Y592276D01*
X265811Y591732D01*
X265448Y591189D01*
X265302Y590453D01*
X265448Y589717D01*
X265811Y589173D01*
X265448Y588629D01*
X265302Y587894D01*
X265448Y587158D01*
X265865Y586534D01*
X266489Y586117D01*
X267224Y585971D01*
X270965D01*
X271700Y586117D01*
X272324Y586534D01*
X272741Y587158D01*
X272887Y587894D01*
X272741Y588629D01*
X272378Y589173D01*
X272741Y589717D01*
X272887Y590453D01*
X272741Y591189D01*
X272556Y591465D01*
X272739Y591840D01*
X273268Y591919D01*
X277998Y587189D01*
Y519237D01*
X277557Y519001D01*
X277306Y519169D01*
X276378Y519354D01*
X275450Y519169D01*
X274663Y518644D01*
X274138Y517857D01*
X273953Y516929D01*
X274138Y516001D01*
X274663Y515215D01*
X275450Y514689D01*
X276378Y514505D01*
X277306Y514689D01*
X277557Y514857D01*
X277998Y514621D01*
Y475230D01*
X277573Y474863D01*
X277559Y474865D01*
X276631Y474681D01*
X275845Y474155D01*
X275319Y473369D01*
X275134Y472441D01*
X275319Y471513D01*
X275845Y470726D01*
X276631Y470201D01*
X277559Y470016D01*
X277612Y470027D01*
X277998Y469710D01*
Y462074D01*
X277813Y461951D01*
X277288Y461164D01*
X277103Y460236D01*
X277288Y459308D01*
X277813Y458522D01*
X278600Y457996D01*
X279528Y457812D01*
X280455Y457996D01*
X281242Y458522D01*
X281768Y459308D01*
X281952Y460236D01*
X281768Y461164D01*
X281242Y461951D01*
X281057Y462074D01*
Y469706D01*
X282261Y470910D01*
X282723Y470718D01*
Y469968D01*
X282839Y469382D01*
X283104Y468985D01*
X283009Y468504D01*
X283193Y467576D01*
X283719Y466789D01*
X284505Y466264D01*
X285433Y466079D01*
X285576Y466108D01*
X285686Y465626D01*
X284900Y465100D01*
X284374Y464314D01*
X284190Y463386D01*
X284374Y462458D01*
X284900Y461671D01*
X285686Y461146D01*
X286614Y460961D01*
X287542Y461146D01*
X288329Y461671D01*
X288854Y462458D01*
X289039Y463386D01*
X288916Y464000D01*
X289392Y464476D01*
X289724Y464973D01*
X289840Y465558D01*
Y471138D01*
X289724Y471723D01*
X289392Y472219D01*
X288144Y473468D01*
Y521654D01*
X288144Y590097D01*
X288027Y590682D01*
X287696Y591178D01*
X274718Y604156D01*
X274222Y604488D01*
X273636Y604604D01*
X272959D01*
X272750Y604995D01*
X272747Y605104D01*
X272887Y605807D01*
X272741Y606543D01*
X272324Y607167D01*
X271700Y607584D01*
X270965Y607730D01*
D02*
G37*
G36*
X547457Y536335D02*
X539945D01*
Y530004D01*
X542171D01*
Y519109D01*
X541829Y518880D01*
X541303Y518093D01*
X541119Y517165D01*
X541303Y516237D01*
X541829Y515451D01*
X542616Y514925D01*
X543543Y514741D01*
X544471Y514925D01*
X545258Y515451D01*
X545783Y516237D01*
X545968Y517165D01*
X545783Y518093D01*
X545258Y518880D01*
X545230Y518898D01*
Y530004D01*
X547457D01*
Y536335D01*
D02*
G37*
G36*
X537614D02*
X530102D01*
Y530004D01*
X532250D01*
Y519161D01*
X531829Y518880D01*
X531303Y518093D01*
X531119Y517165D01*
X531303Y516237D01*
X531829Y515451D01*
X532616Y514925D01*
X533543Y514741D01*
X534471Y514925D01*
X535258Y515451D01*
X535783Y516237D01*
X535968Y517165D01*
X535783Y518093D01*
X535309Y518803D01*
Y530004D01*
X537614D01*
Y536335D01*
D02*
G37*
G36*
X527378D02*
X519866D01*
Y530004D01*
X522093D01*
Y519056D01*
X521829Y518880D01*
X521303Y518093D01*
X521119Y517165D01*
X521303Y516237D01*
X521829Y515451D01*
X522615Y514925D01*
X523543Y514741D01*
X524471Y514925D01*
X525258Y515451D01*
X525783Y516237D01*
X525968Y517165D01*
X525783Y518093D01*
X525258Y518880D01*
X525151Y518951D01*
Y530004D01*
X527378D01*
Y536335D01*
D02*
G37*
G36*
X513543Y519590D02*
X512615Y519405D01*
X511829Y518880D01*
X511303Y518093D01*
X511119Y517165D01*
X511303Y516237D01*
X511829Y515451D01*
X512615Y514925D01*
X513543Y514741D01*
X514471Y514925D01*
X515258Y515451D01*
X515783Y516237D01*
X515968Y517165D01*
X515783Y518093D01*
X515258Y518880D01*
X514471Y519405D01*
X513543Y519590D01*
D02*
G37*
G36*
X270291Y534760D02*
X262779D01*
Y528429D01*
X264849D01*
Y518767D01*
X264664Y518644D01*
X264138Y517857D01*
X263953Y516929D01*
X264138Y516001D01*
X264664Y515215D01*
X265450Y514689D01*
X266378Y514505D01*
X267306Y514689D01*
X268092Y515215D01*
X268618Y516001D01*
X268802Y516929D01*
X268618Y517857D01*
X268092Y518644D01*
X267907Y518767D01*
Y528429D01*
X270291D01*
Y534760D01*
D02*
G37*
G36*
X260055D02*
X252543D01*
Y528429D01*
X254849D01*
Y518767D01*
X254663Y518644D01*
X254138Y517857D01*
X253953Y516929D01*
X254138Y516001D01*
X254663Y515215D01*
X255450Y514689D01*
X256378Y514505D01*
X257306Y514689D01*
X258092Y515215D01*
X258618Y516001D01*
X258803Y516929D01*
X258618Y517857D01*
X258092Y518644D01*
X257907Y518767D01*
Y528429D01*
X260055D01*
Y534760D01*
D02*
G37*
G36*
X250213D02*
X242701D01*
Y528429D01*
X244849D01*
Y518767D01*
X244664Y518644D01*
X244138Y517857D01*
X243953Y516929D01*
X244138Y516001D01*
X244664Y515215D01*
X245450Y514689D01*
X246378Y514505D01*
X247306Y514689D01*
X248092Y515215D01*
X248618Y516001D01*
X248802Y516929D01*
X248618Y517857D01*
X248092Y518644D01*
X247907Y518767D01*
Y528429D01*
X250213D01*
Y534760D01*
D02*
G37*
G36*
X236378Y519354D02*
X235450Y519169D01*
X234664Y518644D01*
X234138Y517857D01*
X233953Y516929D01*
X234138Y516001D01*
X234664Y515215D01*
X235450Y514689D01*
X236378Y514505D01*
X237306Y514689D01*
X238092Y515215D01*
X238618Y516001D01*
X238803Y516929D01*
X238618Y517857D01*
X238092Y518644D01*
X237306Y519169D01*
X236378Y519354D01*
D02*
G37*
G36*
X546555Y607730D02*
X542815D01*
X542079Y607584D01*
X541455Y607167D01*
X541039Y606543D01*
X540892Y605807D01*
X541039Y605071D01*
X541402Y604528D01*
X541039Y603984D01*
X540892Y603248D01*
X541039Y602512D01*
X541402Y601968D01*
X541039Y601425D01*
X540892Y600689D01*
X541039Y599953D01*
X541402Y599409D01*
X541039Y598866D01*
X540892Y598130D01*
X541039Y597394D01*
X541402Y596850D01*
X541039Y596307D01*
X540892Y595571D01*
X541039Y594835D01*
X541402Y594291D01*
X541039Y593748D01*
X540892Y593012D01*
X541039Y592276D01*
X541402Y591732D01*
X541039Y591189D01*
X540892Y590453D01*
X541039Y589717D01*
X541402Y589173D01*
X541039Y588629D01*
X540892Y587894D01*
X541039Y587158D01*
X541455Y586534D01*
X542079Y586117D01*
X542815Y585971D01*
X546555D01*
X547291Y586117D01*
X547577Y586308D01*
X548077Y586041D01*
Y510236D01*
X548193Y509651D01*
X548525Y509155D01*
X548800Y508880D01*
X548757Y508661D01*
X548941Y507734D01*
X549467Y506947D01*
X550253Y506421D01*
X551181Y506237D01*
X552109Y506421D01*
X552895Y506947D01*
X553421Y507734D01*
X553606Y508661D01*
X553421Y509589D01*
X552895Y510376D01*
X552109Y510901D01*
X551181Y511086D01*
X551136Y511123D01*
Y515588D01*
X551636Y515740D01*
X551829Y515451D01*
X552615Y514925D01*
X553543Y514741D01*
X554471Y514925D01*
X555258Y515451D01*
X555451Y515740D01*
X555951Y515588D01*
Y501421D01*
X554666Y500136D01*
X554522Y500232D01*
X553937Y500348D01*
X499869D01*
X499746Y500533D01*
X498959Y501059D01*
X498032Y501243D01*
X497104Y501059D01*
X496317Y500533D01*
X495791Y499747D01*
X495607Y498819D01*
X495791Y497891D01*
X496317Y497105D01*
X496618Y496904D01*
Y496404D01*
X496317Y496203D01*
X495791Y495416D01*
X495607Y494488D01*
X495791Y493560D01*
X496317Y492774D01*
X496618Y492573D01*
Y492073D01*
X496317Y491872D01*
X495791Y491085D01*
X495607Y490158D01*
X495791Y489230D01*
X496317Y488443D01*
X497104Y487918D01*
X498032Y487733D01*
X498959Y487918D01*
X499746Y488443D01*
X499869Y488628D01*
X552828D01*
X553414Y488744D01*
X553910Y489076D01*
X563318Y498484D01*
X563649Y498980D01*
X563766Y499565D01*
Y589732D01*
X563649Y590318D01*
X563318Y590814D01*
X549802Y604329D01*
X549306Y604661D01*
X548721Y604777D01*
X548691D01*
X548373Y605277D01*
X548478Y605807D01*
X548331Y606543D01*
X547915Y607167D01*
X547291Y607584D01*
X546555Y607730D01*
D02*
G37*
G36*
X485039Y489254D02*
X484254Y489151D01*
X483523Y488848D01*
X482894Y488366D01*
X482412Y487737D01*
X482109Y487006D01*
X482006Y486221D01*
X482109Y485435D01*
X482412Y484704D01*
X482894Y484075D01*
X483523Y483593D01*
X484254Y483290D01*
X485039Y483187D01*
X485825Y483290D01*
X486556Y483593D01*
X487185Y484075D01*
X487667Y484704D01*
X487970Y485435D01*
X488073Y486221D01*
X487970Y487006D01*
X487667Y487737D01*
X487185Y488366D01*
X486556Y488848D01*
X485825Y489151D01*
X485039Y489254D01*
D02*
G37*
G36*
X671969Y480400D02*
X670469Y480202D01*
X669072Y479624D01*
X667872Y478703D01*
X666951Y477503D01*
X666372Y476106D01*
X666175Y474606D01*
X666372Y473107D01*
X666951Y471709D01*
X667872Y470510D01*
X669072Y469589D01*
X670469Y469010D01*
X671969Y468813D01*
X673468Y469010D01*
X674865Y469589D01*
X676065Y470510D01*
X676986Y471709D01*
X677565Y473107D01*
X677762Y474606D01*
X677565Y476106D01*
X676986Y477503D01*
X676065Y478703D01*
X674865Y479624D01*
X673468Y480202D01*
X671969Y480400D01*
D02*
G37*
G36*
X117795Y479613D02*
X116296Y479415D01*
X114899Y478836D01*
X113698Y477916D01*
X112778Y476716D01*
X112199Y475318D01*
X112002Y473819D01*
X112199Y472319D01*
X112778Y470922D01*
X113698Y469722D01*
X114899Y468801D01*
X116296Y468223D01*
X117795Y468025D01*
X119295Y468223D01*
X120692Y468801D01*
X121892Y469722D01*
X122813Y470922D01*
X123391Y472319D01*
X123589Y473819D01*
X123391Y475318D01*
X122813Y476716D01*
X121892Y477916D01*
X120692Y478836D01*
X119295Y479415D01*
X117795Y479613D01*
D02*
G37*
G36*
X315039Y469254D02*
X314254Y469151D01*
X313523Y468848D01*
X312894Y468366D01*
X312412Y467737D01*
X312109Y467006D01*
X312005Y466221D01*
X312109Y465435D01*
X312412Y464704D01*
X312894Y464075D01*
X313523Y463593D01*
X314254Y463290D01*
X315039Y463187D01*
X315825Y463290D01*
X316556Y463593D01*
X317185Y464075D01*
X317667Y464704D01*
X317970Y465435D01*
X318073Y466221D01*
X317970Y467006D01*
X317667Y467737D01*
X317185Y468366D01*
X316556Y468848D01*
X315825Y469151D01*
X315039Y469254D01*
D02*
G37*
G36*
Y459254D02*
X314254Y459151D01*
X313523Y458848D01*
X312894Y458366D01*
X312412Y457737D01*
X312109Y457006D01*
X312005Y456220D01*
X312109Y455435D01*
X312412Y454704D01*
X312894Y454075D01*
X313523Y453593D01*
X314254Y453290D01*
X315039Y453187D01*
X315825Y453290D01*
X316556Y453593D01*
X317185Y454075D01*
X317667Y454704D01*
X317970Y455435D01*
X318073Y456220D01*
X317970Y457006D01*
X317667Y457737D01*
X317185Y458366D01*
X316556Y458848D01*
X315825Y459151D01*
X315039Y459254D01*
D02*
G37*
G36*
X242126Y403999D02*
X241198Y403815D01*
X240412Y403289D01*
X239886Y402503D01*
X239701Y401575D01*
X239745Y401357D01*
X234426Y396037D01*
X233688D01*
X233659Y396080D01*
X232938Y396562D01*
X232087Y396732D01*
X228740D01*
X227889Y396562D01*
X227168Y396080D01*
X226686Y395359D01*
X226516Y394508D01*
X226686Y393657D01*
X227168Y392935D01*
X227889Y392453D01*
X228740Y392284D01*
X232087D01*
X232938Y392453D01*
X233659Y392935D01*
X233688Y392979D01*
X235059D01*
X235644Y393095D01*
X236140Y393426D01*
X241908Y399194D01*
X242126Y399150D01*
X243054Y399335D01*
X243840Y399860D01*
X244366Y400647D01*
X244550Y401575D01*
X244366Y402503D01*
X243840Y403289D01*
X243054Y403815D01*
X242126Y403999D01*
D02*
G37*
G36*
X200409Y403362D02*
X194866D01*
Y398016D01*
X200409D01*
Y403362D01*
D02*
G37*
G36*
X132283Y403350D02*
X131457Y403241D01*
X130687Y402922D01*
X130026Y402415D01*
X129519Y401754D01*
X129200Y400984D01*
X129091Y400157D01*
X129200Y399331D01*
X129519Y398561D01*
X130026Y397900D01*
X130687Y397393D01*
X131457Y397074D01*
X132283Y396965D01*
X133110Y397074D01*
X133880Y397393D01*
X134541Y397900D01*
X135048Y398561D01*
X135367Y399331D01*
X135476Y400157D01*
X135367Y400984D01*
X135048Y401754D01*
X134541Y402415D01*
X133880Y402922D01*
X133110Y403241D01*
X132283Y403350D01*
D02*
G37*
G36*
X200409Y397260D02*
X194866D01*
Y391913D01*
X200409D01*
Y392979D01*
X205682D01*
X205711Y392935D01*
X206433Y392453D01*
X207283Y392284D01*
X210630D01*
X211481Y392453D01*
X212202Y392935D01*
X212684Y393657D01*
X212854Y394508D01*
X212684Y395359D01*
X212202Y396080D01*
X211481Y396562D01*
X210630Y396732D01*
X207283D01*
X206433Y396562D01*
X205711Y396080D01*
X205682Y396037D01*
X200409D01*
Y397260D01*
D02*
G37*
G36*
X232087Y391732D02*
X228740D01*
X227889Y391562D01*
X227168Y391080D01*
X226686Y390359D01*
X226516Y389508D01*
X226686Y388657D01*
X227168Y387935D01*
X227889Y387453D01*
X228740Y387284D01*
X232087D01*
X232938Y387453D01*
X233659Y387935D01*
X234141Y388657D01*
X234310Y389508D01*
X234141Y390359D01*
X233659Y391080D01*
X232938Y391562D01*
X232087Y391732D01*
D02*
G37*
G36*
X210630Y381732D02*
X207283D01*
X206433Y381562D01*
X205711Y381080D01*
X205229Y380359D01*
X205060Y379508D01*
X205229Y378657D01*
X205711Y377935D01*
X206433Y377453D01*
X207283Y377284D01*
X210630D01*
X211481Y377453D01*
X212202Y377935D01*
X212684Y378657D01*
X212854Y379508D01*
X212684Y380359D01*
X212202Y381080D01*
X211481Y381562D01*
X210630Y381732D01*
D02*
G37*
G36*
X362933Y333057D02*
X361434Y332860D01*
X360036Y332281D01*
X358836Y331361D01*
X357916Y330161D01*
X357337Y328763D01*
X357139Y327264D01*
X357337Y325764D01*
X357916Y324367D01*
X358836Y323167D01*
X360036Y322246D01*
X361434Y321668D01*
X362933Y321470D01*
X364433Y321668D01*
X365830Y322246D01*
X367030Y323167D01*
X367951Y324367D01*
X368529Y325764D01*
X368727Y327264D01*
X368529Y328763D01*
X367951Y330161D01*
X367030Y331361D01*
X365830Y332281D01*
X364433Y332860D01*
X362933Y333057D01*
D02*
G37*
G36*
X674409Y337654D02*
X672399Y337496D01*
X670438Y337025D01*
X668575Y336253D01*
X666856Y335199D01*
X665323Y333890D01*
X664013Y332357D01*
X662959Y330637D01*
X662188Y328774D01*
X661717Y326813D01*
X661559Y324803D01*
X661717Y322793D01*
X662188Y320832D01*
X662959Y318969D01*
X664013Y317250D01*
X665323Y315716D01*
X666856Y314407D01*
X668575Y313353D01*
X670438Y312581D01*
X672399Y312111D01*
X674409Y311952D01*
X676420Y312111D01*
X678380Y312581D01*
X680243Y313353D01*
X681963Y314407D01*
X683496Y315716D01*
X684806Y317250D01*
X685859Y318969D01*
X686631Y320832D01*
X687102Y322793D01*
X687260Y324803D01*
X687102Y326813D01*
X686631Y328774D01*
X685859Y330637D01*
X684806Y332357D01*
X683496Y333890D01*
X681963Y335199D01*
X680243Y336253D01*
X678380Y337025D01*
X676420Y337496D01*
X674409Y337654D01*
D02*
G37*
G36*
X115354D02*
X113344Y337496D01*
X111383Y337025D01*
X109520Y336253D01*
X107801Y335199D01*
X106268Y333890D01*
X104958Y332357D01*
X103904Y330637D01*
X103133Y328774D01*
X102662Y326813D01*
X102504Y324803D01*
X102662Y322793D01*
X103133Y320832D01*
X103904Y318969D01*
X104958Y317250D01*
X106268Y315716D01*
X107801Y314407D01*
X109520Y313353D01*
X111383Y312581D01*
X113344Y312111D01*
X115354Y311952D01*
X117365Y312111D01*
X119325Y312581D01*
X121188Y313353D01*
X122908Y314407D01*
X124441Y315716D01*
X125751Y317250D01*
X126804Y318969D01*
X127576Y320832D01*
X128047Y322793D01*
X128205Y324803D01*
X128047Y326813D01*
X127576Y328774D01*
X126804Y330637D01*
X125751Y332357D01*
X124441Y333890D01*
X122908Y335199D01*
X121188Y336253D01*
X119325Y337025D01*
X117365Y337496D01*
X115354Y337654D01*
D02*
G37*
%LPD*%
G36*
X403589Y627185D02*
X402779Y626375D01*
X402317Y626566D01*
Y654807D01*
X403589D01*
Y627185D01*
D02*
G37*
G36*
X388836Y603665D02*
X389764Y603481D01*
X390692Y603665D01*
X391246Y604036D01*
X391746Y603769D01*
Y592334D01*
X391394Y591982D01*
X387667D01*
X387349Y592482D01*
X387454Y593012D01*
X387308Y593748D01*
X386945Y594291D01*
X387308Y594835D01*
X387454Y595571D01*
X387308Y596307D01*
X386945Y596850D01*
X387308Y597394D01*
X387454Y598130D01*
X387308Y598866D01*
X386945Y599409D01*
X387308Y599953D01*
X387454Y600689D01*
X387308Y601425D01*
X386945Y601968D01*
X387308Y602512D01*
X387454Y603248D01*
X387370Y603670D01*
X387585Y604011D01*
X387675Y604121D01*
X388113Y604148D01*
X388836Y603665D01*
D02*
G37*
G36*
X403245Y596958D02*
X403428Y596583D01*
X403243Y596307D01*
X403097Y595571D01*
X403243Y594835D01*
X403607Y594291D01*
X403243Y593748D01*
X403097Y593012D01*
X403243Y592276D01*
X403607Y591732D01*
X403243Y591189D01*
X403097Y590453D01*
X403243Y589717D01*
X403607Y589173D01*
X403243Y588629D01*
X403097Y587894D01*
X403243Y587158D01*
X403660Y586534D01*
X404284Y586117D01*
X405020Y585971D01*
X408760D01*
X409496Y586117D01*
X410079Y586507D01*
X410314Y586472D01*
X410615Y586376D01*
X410752Y585686D01*
X411278Y584900D01*
X412064Y584374D01*
X412992Y584190D01*
X413920Y584374D01*
X414707Y584900D01*
X415232Y585686D01*
X415417Y586614D01*
X415356Y586920D01*
X415817Y587166D01*
X416156Y586827D01*
Y563200D01*
X411409Y558453D01*
X410947Y558645D01*
Y559553D01*
X410830Y560138D01*
X410499Y560634D01*
X402317Y568816D01*
Y596638D01*
X402716Y597037D01*
X403245Y596958D01*
D02*
G37*
G36*
X418156Y560221D02*
Y521575D01*
X418272Y520990D01*
X418604Y520493D01*
X472107Y466990D01*
X472006Y466221D01*
X472109Y465435D01*
X472412Y464704D01*
X472894Y464075D01*
X473523Y463593D01*
X474254Y463290D01*
X475039Y463187D01*
X475825Y463290D01*
X476556Y463593D01*
X477185Y464075D01*
X477667Y464704D01*
X477970Y465435D01*
X478073Y466221D01*
X477970Y467006D01*
X477667Y467737D01*
X477185Y468366D01*
X476556Y468848D01*
X475825Y469151D01*
X475039Y469254D01*
X474270Y469153D01*
X421214Y522208D01*
Y530582D01*
X421714Y530631D01*
X421815Y530123D01*
X422147Y529627D01*
X472828Y478946D01*
X472881Y478484D01*
X472843Y478299D01*
X472412Y477737D01*
X472109Y477006D01*
X472006Y476221D01*
X472109Y475435D01*
X472412Y474704D01*
X472894Y474075D01*
X473523Y473593D01*
X474254Y473290D01*
X475039Y473187D01*
X475825Y473290D01*
X476556Y473593D01*
X477185Y474075D01*
X477657Y474691D01*
X478749D01*
X481809Y471631D01*
X482305Y471300D01*
X482890Y471183D01*
X632949D01*
X633534Y471300D01*
X634030Y471631D01*
X640889Y478489D01*
X641220Y478986D01*
X641336Y479571D01*
Y490902D01*
X641220Y491487D01*
X640889Y491983D01*
X640723Y492148D01*
X640970Y492609D01*
X641732Y492457D01*
X642660Y492642D01*
X643447Y493167D01*
X643959Y493050D01*
X644039Y492976D01*
Y491382D01*
X655889D01*
X656080Y490920D01*
X654091Y488931D01*
X644749D01*
X644164Y488814D01*
X643667Y488483D01*
X642422Y487238D01*
X642091Y486742D01*
X641974Y486157D01*
Y470909D01*
X592674Y421608D01*
X488651D01*
X488444Y422108D01*
X489664Y423328D01*
X489996Y423824D01*
X490112Y424409D01*
Y432677D01*
X489996Y433262D01*
X489664Y433759D01*
X487972Y435451D01*
X488073Y436221D01*
X487970Y437006D01*
X487667Y437737D01*
X487185Y438366D01*
X486556Y438848D01*
X485825Y439151D01*
X485039Y439254D01*
X484254Y439151D01*
X483523Y438848D01*
X482894Y438366D01*
X482412Y437737D01*
X482109Y437006D01*
X482006Y436221D01*
X482109Y435435D01*
X482412Y434704D01*
X482894Y434075D01*
X483523Y433593D01*
X484254Y433290D01*
X485039Y433187D01*
X485809Y433288D01*
X487053Y432044D01*
Y429032D01*
X486605Y428811D01*
X486556Y428848D01*
X485825Y429151D01*
X485039Y429254D01*
X484270Y429153D01*
X480058Y433365D01*
X479562Y433696D01*
X478976Y433813D01*
X477613D01*
X477367Y434313D01*
X477667Y434704D01*
X477970Y435435D01*
X478073Y436221D01*
X477970Y437006D01*
X477667Y437737D01*
X477185Y438366D01*
X476556Y438848D01*
X475825Y439151D01*
X475039Y439254D01*
X474254Y439151D01*
X473523Y438848D01*
X472894Y438366D01*
X472412Y437737D01*
X472109Y437006D01*
X472006Y436221D01*
X472109Y435435D01*
X472412Y434704D01*
X472712Y434313D01*
X472465Y433813D01*
X317614D01*
X317367Y434313D01*
X317667Y434704D01*
X317970Y435435D01*
X318073Y436221D01*
X317970Y437006D01*
X317667Y437737D01*
X317185Y438366D01*
X316556Y438848D01*
X315825Y439151D01*
X315039Y439254D01*
X314254Y439151D01*
X313523Y438848D01*
X312894Y438366D01*
X312412Y437737D01*
X312109Y437006D01*
X312005Y436221D01*
X312109Y435435D01*
X312412Y434704D01*
X312712Y434313D01*
X312465Y433813D01*
X307613D01*
X307367Y434313D01*
X307667Y434704D01*
X307970Y435435D01*
X308073Y436221D01*
X307970Y437006D01*
X307667Y437737D01*
X307185Y438366D01*
X306556Y438848D01*
X305825Y439151D01*
X305039Y439254D01*
X304254Y439151D01*
X303522Y438848D01*
X302894Y438366D01*
X302422Y437750D01*
X297114D01*
X296990Y437935D01*
X296203Y438460D01*
X295276Y438645D01*
X294348Y438460D01*
X293561Y437935D01*
X293036Y437148D01*
X292851Y436221D01*
X293036Y435293D01*
X293561Y434506D01*
X293850Y434313D01*
X293699Y433813D01*
X234886D01*
X163953Y504746D01*
Y509406D01*
X151529D01*
Y514217D01*
X161770D01*
X163957Y512029D01*
X163914Y511811D01*
X164099Y510883D01*
X164624Y510097D01*
X165411Y509571D01*
X166339Y509386D01*
X167266Y509571D01*
X168053Y510097D01*
X168579Y510883D01*
X168763Y511811D01*
X168579Y512739D01*
X168053Y513525D01*
X167266Y514051D01*
X166339Y514236D01*
X166120Y514192D01*
X163953Y516360D01*
Y521216D01*
X151486D01*
Y524914D01*
X152570Y525998D01*
X155205D01*
X155352Y526028D01*
X163953D01*
Y531998D01*
X171351D01*
X263092Y440257D01*
X263588Y439926D01*
X264173Y439809D01*
X470157D01*
X470743Y439926D01*
X471239Y440257D01*
X474270Y443288D01*
X475039Y443187D01*
X475825Y443290D01*
X476556Y443593D01*
X477185Y444075D01*
X477667Y444704D01*
X477970Y445435D01*
X478073Y446220D01*
X477970Y447006D01*
X477667Y447737D01*
X477185Y448366D01*
X476556Y448848D01*
X475825Y449151D01*
X475039Y449254D01*
X474254Y449151D01*
X473523Y448848D01*
X472894Y448366D01*
X472412Y447737D01*
X472109Y447006D01*
X472006Y446220D01*
X472107Y445451D01*
X469524Y442868D01*
X356822D01*
X356573Y443368D01*
X356964Y443954D01*
X357149Y444882D01*
X356964Y445810D01*
X356439Y446596D01*
X355652Y447122D01*
X354724Y447306D01*
X354506Y447263D01*
X319192Y482578D01*
X318695Y482909D01*
X318110Y483026D01*
X317083D01*
X316869Y483302D01*
X316950Y483895D01*
X317185Y484075D01*
X317667Y484704D01*
X317970Y485435D01*
X318073Y486221D01*
X317970Y487006D01*
X317667Y487737D01*
X317185Y488366D01*
X316556Y488848D01*
X315825Y489151D01*
X315039Y489254D01*
X314254Y489151D01*
X313561Y488864D01*
X313198Y488991D01*
X313061Y489059D01*
Y493896D01*
X329415Y510250D01*
X407915D01*
X408500Y510367D01*
X408996Y510698D01*
X412499Y514200D01*
X412830Y514697D01*
X412947Y515282D01*
Y515352D01*
X413447Y515504D01*
X413640Y515215D01*
X414427Y514689D01*
X415354Y514505D01*
X416282Y514689D01*
X417069Y515215D01*
X417594Y516001D01*
X417779Y516929D01*
X417594Y517857D01*
X417069Y518644D01*
X416282Y519169D01*
X415354Y519354D01*
X414427Y519169D01*
X413640Y518644D01*
X413447Y518354D01*
X412947Y518506D01*
Y555666D01*
X417694Y560413D01*
X418156Y560221D01*
D02*
G37*
G36*
X150100Y487108D02*
X150596Y486776D01*
X151181Y486660D01*
X167352D01*
X168964Y485048D01*
X168718Y484587D01*
X168110Y484708D01*
X167182Y484523D01*
X166396Y483998D01*
X165870Y483211D01*
X165686Y482283D01*
X165870Y481356D01*
X166396Y480569D01*
X166779Y480313D01*
X166628Y479813D01*
X163953D01*
Y485783D01*
X150457D01*
Y480509D01*
X149995Y480318D01*
X148183Y482130D01*
Y488371D01*
X148645Y488562D01*
X150100Y487108D01*
D02*
G37*
G36*
X637182Y479109D02*
X632315Y474242D01*
X487878D01*
X487810Y474379D01*
X487683Y474742D01*
X487970Y475435D01*
X488073Y476221D01*
X487970Y477006D01*
X487683Y477699D01*
X487810Y478062D01*
X487878Y478199D01*
X625791D01*
X626377Y478315D01*
X626873Y478647D01*
X627797Y479571D01*
X636991D01*
X637182Y479109D01*
D02*
G37*
G36*
X323405Y430292D02*
X318442Y425329D01*
X317989Y425584D01*
X318073Y426221D01*
X317970Y427006D01*
X317667Y427737D01*
X317185Y428366D01*
X316556Y428848D01*
X315825Y429151D01*
X315039Y429254D01*
X314254Y429151D01*
X313523Y428848D01*
X312894Y428366D01*
X312412Y427737D01*
X312109Y427006D01*
X312005Y426221D01*
X312109Y425435D01*
X312412Y424704D01*
X312591Y424470D01*
X312344Y423970D01*
X307734D01*
X307488Y424470D01*
X307667Y424704D01*
X307970Y425435D01*
X308073Y426221D01*
X307970Y427006D01*
X307667Y427737D01*
X307185Y428366D01*
X306556Y428848D01*
X305825Y429151D01*
X305039Y429254D01*
X304254Y429151D01*
X303522Y428848D01*
X302894Y428366D01*
X302422Y427750D01*
X237799D01*
X235257Y430292D01*
X235448Y430754D01*
X323214D01*
X323405Y430292D01*
D02*
G37*
G36*
X302288Y424470D02*
X302019Y423970D01*
X238171Y423970D01*
X237999Y424191D01*
X238243Y424691D01*
X302142D01*
X302288Y424470D01*
D02*
G37*
G36*
X645419Y469654D02*
Y451519D01*
X604485Y410584D01*
X602772D01*
X602718Y411082D01*
X603416Y411371D01*
X604015Y411831D01*
X604475Y412430D01*
X604765Y413129D01*
X604863Y413878D01*
X604765Y414627D01*
X604475Y415325D01*
X604015Y415925D01*
X603416Y416385D01*
X602718Y416674D01*
X601968Y416773D01*
X601219Y416674D01*
X600521Y416385D01*
X599922Y415925D01*
X599462Y415325D01*
X599172Y414627D01*
X599074Y413878D01*
X599172Y413129D01*
X599462Y412430D01*
X599922Y411831D01*
X600521Y411371D01*
X601219Y411082D01*
X601165Y410584D01*
X487799D01*
X487574Y410810D01*
X487078Y411141D01*
X486492Y411258D01*
X483586D01*
X483001Y411141D01*
X482505Y410810D01*
X482280Y410584D01*
X477799D01*
X477574Y410810D01*
X477078Y411141D01*
X476492Y411258D01*
X473586D01*
X473001Y411141D01*
X472505Y410810D01*
X459445Y397750D01*
X317657D01*
X317185Y398366D01*
X316556Y398848D01*
X315825Y399151D01*
X315039Y399254D01*
X314254Y399151D01*
X313523Y398848D01*
X312894Y398366D01*
X312412Y397737D01*
X312266Y397384D01*
X311766Y397483D01*
Y404957D01*
X312266Y405057D01*
X312412Y404704D01*
X312894Y404075D01*
X313523Y403593D01*
X314254Y403290D01*
X315039Y403187D01*
X315825Y403290D01*
X316556Y403593D01*
X317185Y404075D01*
X317667Y404704D01*
X317970Y405435D01*
X318073Y406220D01*
X317970Y407006D01*
X317667Y407737D01*
X317185Y408366D01*
X316556Y408848D01*
X315825Y409151D01*
X315039Y409254D01*
X314254Y409151D01*
X313523Y408848D01*
X312894Y408366D01*
X312412Y407737D01*
X312266Y407384D01*
X311766Y407483D01*
Y409055D01*
X311649Y409640D01*
X311318Y410137D01*
X308956Y412499D01*
X308459Y412830D01*
X307874Y412947D01*
X307177D01*
X306839Y413304D01*
X306871Y413835D01*
X307185Y414075D01*
X307667Y414704D01*
X307970Y415435D01*
X308073Y416221D01*
X307970Y417006D01*
X307667Y417737D01*
X307185Y418366D01*
X306556Y418848D01*
X305825Y419151D01*
X305039Y419254D01*
X304254Y419151D01*
X303522Y418848D01*
X302894Y418366D01*
X302412Y417737D01*
X302109Y417006D01*
X302006Y416221D01*
X302109Y415435D01*
X302412Y414704D01*
X302894Y414075D01*
X303370Y413710D01*
X303417Y413175D01*
X303388Y413108D01*
X302878Y412345D01*
X302694Y411417D01*
X302878Y410490D01*
X303404Y409703D01*
X303739Y409479D01*
X303684Y408915D01*
X303522Y408848D01*
X302894Y408366D01*
X302422Y407750D01*
X250588D01*
X237888Y420450D01*
X238080Y420912D01*
X317717Y420912D01*
X318302Y421028D01*
X318798Y421359D01*
X325830Y428392D01*
X472284Y428392D01*
X472531Y427892D01*
X472412Y427737D01*
X472109Y427006D01*
X472006Y426221D01*
X472109Y425435D01*
X472412Y424704D01*
X472894Y424075D01*
X473523Y423593D01*
X474254Y423290D01*
X475039Y423187D01*
X475809Y423288D01*
X480100Y418997D01*
X480596Y418666D01*
X481181Y418549D01*
X482405D01*
X482651Y418049D01*
X482412Y417737D01*
X482109Y417006D01*
X482006Y416221D01*
X482109Y415435D01*
X482412Y414704D01*
X482894Y414075D01*
X483523Y413593D01*
X484254Y413290D01*
X485039Y413187D01*
X485825Y413290D01*
X486556Y413593D01*
X487185Y414075D01*
X487667Y414704D01*
X487970Y415435D01*
X488073Y416221D01*
X487970Y417006D01*
X487667Y417737D01*
X487427Y418049D01*
X487674Y418549D01*
X593307D01*
X593892Y418666D01*
X594388Y418997D01*
X644585Y469194D01*
X644917Y469690D01*
X644919Y469703D01*
X645419Y469654D01*
D02*
G37*
G36*
X648764Y450003D02*
X648764Y349657D01*
X621209Y322102D01*
X430636D01*
X430467Y322602D01*
X431203Y323167D01*
X432124Y324367D01*
X432702Y325764D01*
X432900Y327264D01*
X432702Y328763D01*
X432124Y330161D01*
X431203Y331361D01*
X430003Y332281D01*
X428606Y332860D01*
X427106Y333057D01*
X425607Y332860D01*
X424209Y332281D01*
X423010Y331361D01*
X422089Y330161D01*
X421510Y328763D01*
X421313Y327264D01*
X421510Y325764D01*
X422089Y324367D01*
X423010Y323167D01*
X423746Y322602D01*
X423576Y322102D01*
X390602D01*
X373184Y339519D01*
Y341677D01*
X374661D01*
Y346992D01*
X375161Y347144D01*
X375451Y346711D01*
X376238Y346185D01*
X377165Y346001D01*
X378093Y346185D01*
X378418Y346402D01*
X379571D01*
Y341677D01*
X386533D01*
X386571Y341677D01*
X387052Y341631D01*
X387107Y341352D01*
X387546Y340695D01*
X390695Y337546D01*
X391352Y337107D01*
X392126Y336953D01*
X400394D01*
X401168Y337107D01*
X401824Y337546D01*
X405956Y341677D01*
X410291D01*
Y346698D01*
X410791Y346849D01*
X410884Y346711D01*
X411671Y346185D01*
X412598Y346001D01*
X413526Y346185D01*
X414313Y346711D01*
X414602Y347144D01*
X415102Y346992D01*
Y341677D01*
X422102D01*
Y355173D01*
X415102D01*
Y349858D01*
X414602Y349706D01*
X414313Y350140D01*
X413526Y350665D01*
X412598Y350850D01*
X411671Y350665D01*
X410884Y350140D01*
X410791Y350001D01*
X410291Y350153D01*
Y355173D01*
X403291D01*
Y344735D01*
X399556Y341000D01*
X393186D01*
X393052Y341177D01*
X393301Y341677D01*
X398382D01*
Y355173D01*
X396905D01*
Y358268D01*
X396751Y359042D01*
X396312Y359698D01*
X380564Y375446D01*
X379908Y375885D01*
X379134Y376039D01*
X229185D01*
X228377Y376847D01*
X228623Y377307D01*
X228740Y377284D01*
X232087D01*
X232938Y377453D01*
X233659Y377935D01*
X233688Y377978D01*
X295650D01*
X296235Y378095D01*
X296731Y378426D01*
X311318Y393013D01*
X311649Y393509D01*
X311766Y394094D01*
Y394957D01*
X312266Y395057D01*
X312412Y394704D01*
X312894Y394075D01*
X313523Y393593D01*
X314254Y393290D01*
X315039Y393187D01*
X315825Y393290D01*
X316556Y393593D01*
X317185Y394075D01*
X317657Y394691D01*
X460078D01*
X460664Y394808D01*
X461160Y395139D01*
X471633Y405612D01*
X471778Y405563D01*
X472125Y405397D01*
X472412Y404704D01*
X472894Y404075D01*
X473523Y403593D01*
X474254Y403290D01*
X475039Y403187D01*
X475825Y403290D01*
X476556Y403593D01*
X477185Y404075D01*
X477667Y404704D01*
X477970Y405435D01*
X478073Y406220D01*
X477970Y407006D01*
X477927Y407110D01*
X478204Y407526D01*
X481874D01*
X482152Y407110D01*
X482109Y407006D01*
X482006Y406220D01*
X482109Y405435D01*
X482412Y404704D01*
X482894Y404075D01*
X483523Y403593D01*
X484254Y403290D01*
X485039Y403187D01*
X485825Y403290D01*
X486556Y403593D01*
X487185Y404075D01*
X487667Y404704D01*
X487970Y405435D01*
X488073Y406220D01*
X487970Y407006D01*
X487927Y407110D01*
X488204Y407526D01*
X605118D01*
X605703Y407642D01*
X606200Y407974D01*
X648030Y449804D01*
X648264Y450155D01*
X648764Y450003D01*
D02*
G37*
G36*
X392859Y357430D02*
Y355173D01*
X391382D01*
X391000Y355457D01*
Y357087D01*
X390845Y357861D01*
X390407Y358517D01*
X383714Y365210D01*
X383058Y365649D01*
X382283Y365803D01*
X235090D01*
X229362Y371531D01*
X229553Y371993D01*
X378296D01*
X392859Y357430D01*
D02*
G37*
%LPC*%
G36*
X485039Y469254D02*
X484254Y469151D01*
X483523Y468848D01*
X482894Y468366D01*
X482412Y467737D01*
X482109Y467006D01*
X482006Y466221D01*
X482109Y465435D01*
X482412Y464704D01*
X482894Y464075D01*
X483523Y463593D01*
X484254Y463290D01*
X485039Y463187D01*
X485825Y463290D01*
X486556Y463593D01*
X487185Y464075D01*
X487667Y464704D01*
X487970Y465435D01*
X488073Y466221D01*
X487970Y467006D01*
X487667Y467737D01*
X487185Y468366D01*
X486556Y468848D01*
X485825Y469151D01*
X485039Y469254D01*
D02*
G37*
G36*
Y459254D02*
X484254Y459151D01*
X483523Y458848D01*
X482894Y458366D01*
X482412Y457737D01*
X482109Y457006D01*
X482006Y456220D01*
X482109Y455435D01*
X482412Y454704D01*
X482894Y454075D01*
X483523Y453593D01*
X484254Y453290D01*
X485039Y453187D01*
X485825Y453290D01*
X486556Y453593D01*
X487185Y454075D01*
X487667Y454704D01*
X487970Y455435D01*
X488073Y456220D01*
X487970Y457006D01*
X487667Y457737D01*
X487185Y458366D01*
X486556Y458848D01*
X485825Y459151D01*
X485039Y459254D01*
D02*
G37*
G36*
X475039D02*
X474254Y459151D01*
X473523Y458848D01*
X472894Y458366D01*
X472412Y457737D01*
X472109Y457006D01*
X472006Y456220D01*
X472109Y455435D01*
X472412Y454704D01*
X472894Y454075D01*
X473523Y453593D01*
X474254Y453290D01*
X475039Y453187D01*
X475825Y453290D01*
X476556Y453593D01*
X477185Y454075D01*
X477667Y454704D01*
X477970Y455435D01*
X478073Y456220D01*
X477970Y457006D01*
X477667Y457737D01*
X477185Y458366D01*
X476556Y458848D01*
X475825Y459151D01*
X475039Y459254D01*
D02*
G37*
G36*
X485039Y449254D02*
X484254Y449151D01*
X483523Y448848D01*
X482894Y448366D01*
X482412Y447737D01*
X482109Y447006D01*
X482006Y446220D01*
X482109Y445435D01*
X482412Y444704D01*
X482894Y444075D01*
X483523Y443593D01*
X484254Y443290D01*
X485039Y443187D01*
X485825Y443290D01*
X486556Y443593D01*
X487185Y444075D01*
X487667Y444704D01*
X487970Y445435D01*
X488073Y446220D01*
X487970Y447006D01*
X487667Y447737D01*
X487185Y448366D01*
X486556Y448848D01*
X485825Y449151D01*
X485039Y449254D01*
D02*
G37*
G36*
X475039Y419254D02*
X474254Y419151D01*
X473523Y418848D01*
X472894Y418366D01*
X472412Y417737D01*
X472109Y417006D01*
X472006Y416221D01*
X472109Y415435D01*
X472412Y414704D01*
X472894Y414075D01*
X473523Y413593D01*
X474254Y413290D01*
X475039Y413187D01*
X475825Y413290D01*
X476556Y413593D01*
X477185Y414075D01*
X477667Y414704D01*
X477970Y415435D01*
X478073Y416221D01*
X477970Y417006D01*
X477667Y417737D01*
X477185Y418366D01*
X476556Y418848D01*
X475825Y419151D01*
X475039Y419254D01*
D02*
G37*
G36*
X315039D02*
X314254Y419151D01*
X313523Y418848D01*
X312894Y418366D01*
X312412Y417737D01*
X312109Y417006D01*
X312005Y416221D01*
X312109Y415435D01*
X312412Y414704D01*
X312894Y414075D01*
X313523Y413593D01*
X314254Y413290D01*
X315039Y413187D01*
X315825Y413290D01*
X316556Y413593D01*
X317185Y414075D01*
X317667Y414704D01*
X317970Y415435D01*
X318073Y416221D01*
X317970Y417006D01*
X317667Y417737D01*
X317185Y418366D01*
X316556Y418848D01*
X315825Y419151D01*
X315039Y419254D01*
D02*
G37*
G36*
X628740Y416773D02*
X627991Y416674D01*
X627293Y416385D01*
X626693Y415925D01*
X626233Y415325D01*
X625944Y414627D01*
X625845Y413878D01*
X625944Y413129D01*
X626233Y412430D01*
X626693Y411831D01*
X627293Y411371D01*
X627991Y411082D01*
X628740Y410983D01*
X629489Y411082D01*
X630188Y411371D01*
X630787Y411831D01*
X631247Y412430D01*
X631536Y413129D01*
X631635Y413878D01*
X631536Y414627D01*
X631247Y415325D01*
X630787Y415925D01*
X630188Y416385D01*
X629489Y416674D01*
X628740Y416773D01*
D02*
G37*
G36*
X485039Y399254D02*
X484254Y399151D01*
X483523Y398848D01*
X482894Y398366D01*
X482412Y397737D01*
X482109Y397006D01*
X482006Y396220D01*
X482109Y395435D01*
X482412Y394704D01*
X482894Y394075D01*
X483523Y393593D01*
X484254Y393290D01*
X485039Y393187D01*
X485825Y393290D01*
X486556Y393593D01*
X487185Y394075D01*
X487667Y394704D01*
X487970Y395435D01*
X488073Y396220D01*
X487970Y397006D01*
X487667Y397737D01*
X487185Y398366D01*
X486556Y398848D01*
X485825Y399151D01*
X485039Y399254D01*
D02*
G37*
G36*
X475039D02*
X474254Y399151D01*
X473523Y398848D01*
X472894Y398366D01*
X472412Y397737D01*
X472109Y397006D01*
X472006Y396220D01*
X472109Y395435D01*
X472412Y394704D01*
X472894Y394075D01*
X473523Y393593D01*
X474254Y393290D01*
X475039Y393187D01*
X475825Y393290D01*
X476556Y393593D01*
X477185Y394075D01*
X477667Y394704D01*
X477970Y395435D01*
X478073Y396220D01*
X477970Y397006D01*
X477667Y397737D01*
X477185Y398366D01*
X476556Y398848D01*
X475825Y399151D01*
X475039Y399254D01*
D02*
G37*
%LPD*%
G36*
X264612Y624823D02*
X263802Y624013D01*
X263340Y624204D01*
Y654413D01*
X264612D01*
Y624823D01*
D02*
G37*
G36*
X255164Y604329D02*
Y593941D01*
X253205Y591982D01*
X249872D01*
X249554Y592482D01*
X249659Y593012D01*
X249513Y593748D01*
X249149Y594291D01*
X249513Y594835D01*
X249659Y595571D01*
X249513Y596307D01*
X249149Y596850D01*
X249513Y597394D01*
X249659Y598130D01*
X249513Y598866D01*
X249149Y599409D01*
X249513Y599953D01*
X249659Y600689D01*
X249513Y601425D01*
X249149Y601968D01*
X249513Y602512D01*
X249659Y603248D01*
X249554Y603778D01*
X249872Y604278D01*
X250984D01*
X251042Y604191D01*
X251828Y603665D01*
X252756Y603481D01*
X253684Y603665D01*
X254470Y604191D01*
X254663Y604480D01*
X255164Y604329D01*
D02*
G37*
G36*
X542171Y628759D02*
X541361Y627949D01*
X540900Y628141D01*
Y654020D01*
X542171D01*
Y628759D01*
D02*
G37*
G36*
X526631Y603665D02*
X527559Y603481D01*
X528487Y603665D01*
X528585Y603731D01*
X529026Y603495D01*
Y594181D01*
X526827Y591982D01*
X525462D01*
X525144Y592482D01*
X525249Y593012D01*
X525103Y593748D01*
X524740Y594291D01*
X525103Y594835D01*
X525249Y595571D01*
X525103Y596307D01*
X524740Y596850D01*
X525103Y597394D01*
X525249Y598130D01*
X525103Y598866D01*
X524740Y599409D01*
X525103Y599953D01*
X525249Y600689D01*
X525103Y601425D01*
X524740Y601968D01*
X525103Y602512D01*
X525249Y603248D01*
X525166Y603670D01*
X525380Y604011D01*
X525470Y604121D01*
X525909Y604148D01*
X526631Y603665D01*
D02*
G37*
G36*
X555951Y588022D02*
Y518742D01*
X555451Y518591D01*
X555258Y518880D01*
X554471Y519405D01*
X553543Y519590D01*
X552615Y519405D01*
X551829Y518880D01*
X551636Y518591D01*
X551136Y518742D01*
Y592184D01*
X551598Y592375D01*
X555951Y588022D01*
D02*
G37*
G36*
X553643Y496950D02*
X553734Y496889D01*
X553810Y496367D01*
X553750Y496288D01*
X553452Y496018D01*
X499869D01*
X499746Y496203D01*
X499445Y496404D01*
Y496904D01*
X499746Y497105D01*
X499869Y497290D01*
X553303D01*
X553643Y496950D01*
D02*
G37*
G36*
X552983Y492491D02*
X552984Y492476D01*
X552195Y491687D01*
X499869D01*
X499746Y491872D01*
X499445Y492073D01*
Y492573D01*
X499746Y492774D01*
X499869Y492959D01*
X552760D01*
X552983Y492491D01*
D02*
G37*
D10*
X417685Y562567D02*
Y587461D01*
X411417Y556299D02*
X417685Y562567D01*
X411417Y515282D02*
Y556299D01*
X409748Y595398D02*
X417685Y587461D01*
X498032Y494488D02*
X553543D01*
X553937Y494095D01*
Y498819D02*
X554724Y498032D01*
X498032Y498819D02*
X553937D01*
X235059Y394508D02*
X242126Y401575D01*
X230413Y394508D02*
X235059D01*
X295276Y436221D02*
X305039D01*
X305118Y411417D02*
X307874D01*
X310236Y394094D02*
Y409055D01*
X307874Y411417D02*
X310236Y409055D01*
X234252Y432283D02*
X478976D01*
X317717Y422441D02*
X325197Y429921D01*
X295650Y379508D02*
X310236Y394094D01*
X230413Y379508D02*
X295650D01*
X318110Y481496D02*
X354724Y444882D01*
X314961Y481496D02*
X318110D01*
X311531Y472713D02*
Y494530D01*
X309531Y475673D02*
Y495358D01*
X301532Y467673D02*
X309531Y475673D01*
X301532Y459728D02*
Y467673D01*
X305039Y466221D02*
X311531Y472713D01*
Y494530D02*
X328781Y511779D01*
X309531Y495358D02*
X327953Y513779D01*
X171984Y533528D02*
X264173Y441339D01*
X147957Y531421D02*
X150063Y533528D01*
X171984D01*
X147957Y523547D02*
Y531421D01*
X144126Y519717D02*
X147957Y523547D01*
X149957Y525547D02*
X151937Y527528D01*
X149957Y501224D02*
X151575Y499606D01*
X149957Y514595D02*
Y525547D01*
Y501224D02*
Y509027D01*
X150000Y509070D02*
Y514552D01*
X149957Y509027D02*
X150000Y509070D01*
X149957Y514595D02*
X150000Y514552D01*
X142391Y519717D02*
X144126D01*
X470157Y441339D02*
X475039Y446220D01*
X264173Y441339D02*
X470157D01*
X478976Y432283D02*
X485039Y426221D01*
X160630Y505905D02*
X234252Y432283D01*
X140391Y517717D02*
X142391Y519717D01*
X138976Y517717D02*
X140391D01*
X485039Y436221D02*
X488583Y432677D01*
Y424409D02*
Y432677D01*
X486886Y422713D02*
X488583Y424409D01*
X483586Y422713D02*
X486886D01*
X476378Y429921D02*
X483586Y422713D01*
X325197Y429921D02*
X476378Y429921D01*
X167986Y488189D02*
X249954Y406220D01*
X151181Y488189D02*
X167986D01*
X175063Y478284D02*
X257126Y396220D01*
X149866Y478284D02*
X175063D01*
X257126Y396220D02*
X305039D01*
X165748Y494095D02*
X237402Y422441D01*
X157205Y494095D02*
X165748D01*
X237402Y422441D02*
X317717Y422441D01*
X163779Y499606D02*
X237165Y426221D01*
X151575Y499606D02*
X163779D01*
X237165Y426221D02*
X305039D01*
X249954Y406220D02*
X305039D01*
X157205Y505905D02*
X160630D01*
X146850Y492520D02*
Y501181D01*
X144224Y503807D02*
X146850Y501181D01*
X142224Y505905D02*
X144224Y503905D01*
Y503807D02*
Y503905D01*
X301532Y459728D02*
X305039Y456220D01*
X593307Y420079D02*
X643504Y470276D01*
X481181Y420079D02*
X593307D01*
X475039Y426221D02*
X481181Y420079D01*
X407915Y511779D02*
X411417Y515282D01*
X328781Y511779D02*
X407915D01*
X327953Y513779D02*
X407087D01*
X409417Y516110D01*
Y559553D01*
X562236Y499565D02*
Y589732D01*
X548721Y603248D02*
X562236Y589732D01*
X544685Y603248D02*
X548721D01*
X559480Y499638D02*
Y589484D01*
X553937Y494095D02*
X559480Y499638D01*
X548448Y600516D02*
X559480Y589484D01*
X552828Y490158D02*
X562236Y499565D01*
X498032Y490158D02*
X552828D01*
X557480Y500787D02*
Y588655D01*
X554724Y498032D02*
X557480Y500787D01*
X548153Y597982D02*
X557480Y588655D01*
X549606Y510236D02*
Y593701D01*
X517201Y585161D02*
X543701Y558661D01*
X533858Y540059D02*
Y565675D01*
X523622Y540059D02*
Y573083D01*
X481531Y479728D02*
X625791D01*
X549606Y510236D02*
X551181Y508661D01*
X632559Y518504D02*
X632677Y518386D01*
Y512697D02*
Y518386D01*
X605118Y409055D02*
X646949Y450886D01*
Y475984D01*
X643504Y470276D02*
Y486157D01*
X644749Y487402D01*
X460078Y396220D02*
X473586Y409728D01*
X477166Y409055D02*
X482913D01*
X476492Y409728D02*
X477166Y409055D01*
X473586Y409728D02*
X476492D01*
X487166Y409055D02*
X605118D01*
X486492Y409728D02*
X487166Y409055D01*
X483586Y409728D02*
X486492D01*
X482913Y409055D02*
X483586Y409728D01*
X315039Y396220D02*
X460078D01*
X654724Y487402D02*
X658661Y491339D01*
X644749Y487402D02*
X654724D01*
X639807Y479571D02*
Y490902D01*
X632949Y472713D02*
X639807Y479571D01*
X632559Y506693D02*
X632677Y506575D01*
Y501181D02*
Y506575D01*
X650394Y506299D02*
X650787Y505905D01*
Y501181D02*
Y505905D01*
X641732Y494882D02*
X641732Y494882D01*
X650787D01*
X635827D02*
X639807Y490902D01*
X632559Y494882D02*
X635827D01*
X482890Y472713D02*
X632949D01*
X658661Y491339D02*
Y513779D01*
X653937Y518504D02*
X658661Y513779D01*
X650787Y518504D02*
X653937D01*
X281890Y472702D02*
Y589164D01*
X279528Y470339D02*
X281890Y472702D01*
X284252Y469968D02*
X285433Y468787D01*
X284252Y469968D02*
Y589631D01*
X285433Y468504D02*
Y468787D01*
X410017Y597957D02*
X419685Y588289D01*
X400787Y568183D02*
X409417Y559553D01*
X400787Y568183D02*
Y597272D01*
X404031Y600516D01*
X404301D01*
X404326Y600541D01*
X406742D01*
X406890Y600689D01*
X419685Y521575D02*
Y588289D01*
Y521575D02*
X475039Y466221D01*
X547833Y595474D02*
X549606Y593701D01*
X479383Y476221D02*
X482890Y472713D01*
X475039Y476221D02*
X479383D01*
X625791Y479728D02*
X629134Y483071D01*
X474016Y479921D02*
X478510D01*
X475039Y486221D02*
X481531Y479728D01*
X629134Y483071D02*
X632559D01*
X484520Y476740D02*
X485039Y476221D01*
X481691Y476740D02*
X484520D01*
X478510Y479921D02*
X481691Y476740D01*
X423228Y530709D02*
X474016Y479921D01*
X423228Y530709D02*
Y590739D01*
X544858Y600516D02*
X548448D01*
X544685Y600689D02*
X544858Y600516D01*
X544685Y598130D02*
X544833Y597982D01*
X548153D01*
X146850Y492520D02*
X151181Y488189D01*
X146653Y481496D02*
Y489862D01*
X142421Y494095D02*
X146653Y489862D01*
X138976Y494095D02*
X142421D01*
X151937Y527528D02*
X155205D01*
X157205Y529528D01*
X162453Y515697D02*
X166339Y511811D01*
X162453Y515697D02*
Y515717D01*
X160453Y517717D02*
X162453Y515717D01*
X157205Y517717D02*
X160453D01*
X138976Y505905D02*
X142224D01*
X146653Y481496D02*
X149866Y478284D01*
X286614Y472835D02*
X288311Y471138D01*
X286614Y463861D02*
X288311Y465558D01*
Y471138D01*
X286614Y472835D02*
Y521654D01*
X286614Y463386D02*
Y463861D01*
X279528Y460236D02*
Y470339D01*
X277559Y472441D02*
X279528Y474409D01*
X286614Y521654D02*
X286614Y590097D01*
X273636Y603075D02*
X286614Y590097D01*
X273367Y600516D02*
X284252Y589631D01*
X273098Y597957D02*
X281890Y589164D01*
X271953Y595398D02*
X279528Y587823D01*
Y474409D02*
Y587823D01*
X271683Y603075D02*
X273636D01*
X271658Y603100D02*
X271683Y603075D01*
X269242Y603100D02*
X271658D01*
X269094Y603248D02*
X269242Y603100D01*
X271683Y600516D02*
X273367D01*
X271658Y600541D02*
X271683Y600516D01*
X269242Y600541D02*
X271658D01*
X269094Y600689D02*
X269242Y600541D01*
X271683Y597957D02*
X273098D01*
X271658Y597982D02*
X271683Y597957D01*
X269242Y597982D02*
X271658D01*
X269094Y598130D02*
X269242Y597982D01*
X271683Y595398D02*
X271953D01*
X271658Y595423D02*
X271683Y595398D01*
X269242Y595423D02*
X271658D01*
X269094Y595571D02*
X269242Y595423D01*
X410893Y603075D02*
X423228Y590739D01*
X409479Y603075D02*
X410893D01*
X409453Y603100D02*
X409479Y603075D01*
X407037Y603100D02*
X409453D01*
X406890Y603248D02*
X407037Y603100D01*
X409453Y597982D02*
X409479Y597957D01*
X407037Y597982D02*
X409453D01*
X409479Y597957D02*
X410017D01*
X406890Y598130D02*
X407037Y597982D01*
X409479Y595398D02*
X409748D01*
X409453Y595423D02*
X409479Y595398D01*
X407037Y595423D02*
X409453D01*
X406890Y595571D02*
X407037Y595423D01*
X544781Y595474D02*
X547833D01*
X544685Y595571D02*
X544781Y595474D01*
X523543Y664153D02*
X523622Y664075D01*
X523543Y664153D02*
Y677165D01*
X513543Y664311D02*
X513779Y664075D01*
X513543Y664311D02*
Y677165D01*
X543543Y664232D02*
X543701Y664075D01*
X543543Y664232D02*
Y677165D01*
X541461Y680043D02*
X544972D01*
X539370Y677953D02*
X541461Y680043D01*
X539370Y626624D02*
Y677953D01*
X553543Y676929D02*
X553780Y677165D01*
X553543Y664075D02*
Y676929D01*
X548819Y661319D02*
Y676196D01*
X544972Y680043D02*
X548819Y676196D01*
X409449Y663287D02*
Y676905D01*
X406546Y679807D02*
X409449Y676905D01*
X400787Y676432D02*
X404162Y679807D01*
X400787Y625049D02*
Y676432D01*
X404162Y679807D02*
X406546D01*
X409449Y663287D02*
X414764Y657972D01*
X268898Y680315D02*
X271260Y677953D01*
Y662106D02*
Y677953D01*
Y662106D02*
X275787Y657579D01*
X264567Y680315D02*
X268898D01*
X261811Y677559D02*
X264567Y680315D01*
X261811Y622687D02*
Y677559D01*
X543701Y517717D02*
Y533169D01*
X533779Y517717D02*
Y533090D01*
X523622Y517717D02*
Y533169D01*
X415354Y664862D02*
Y676929D01*
X405118Y664862D02*
X405354Y665098D01*
Y676929D01*
X414764Y657972D02*
X415354D01*
X132283Y389921D02*
X141969Y399606D01*
X132283Y379921D02*
X136909Y384547D01*
X530555Y617809D02*
X539370Y626624D01*
X532555Y616980D02*
X543701Y628126D01*
X532555Y592719D02*
Y616980D01*
X530555Y593547D02*
Y617809D01*
X527461Y590453D02*
X530555Y593547D01*
X527903Y588067D02*
X532555Y592719D01*
X524046Y588067D02*
X527903D01*
X524020Y588041D02*
X524046Y588067D01*
X521604Y588041D02*
X524020D01*
X521457Y590453D02*
X527461D01*
X405354Y516929D02*
Y530965D01*
X395354Y516929D02*
Y530886D01*
X395669Y531201D01*
X527461Y605807D02*
X527559Y605905D01*
X521457Y605807D02*
X527461D01*
X389665D02*
X389764Y605905D01*
X383661Y605807D02*
X389665D01*
X393276Y591701D02*
Y617537D01*
X395276Y589764D02*
Y616709D01*
X405118Y626551D01*
X393276Y617537D02*
X400787Y625049D01*
X252658Y605807D02*
X252756Y605905D01*
X245866Y605807D02*
X252658D01*
X379134Y587008D02*
Y592126D01*
Y587008D02*
X405118Y561024D01*
X375134Y585351D02*
Y593783D01*
Y585351D02*
X377953Y582532D01*
Y582283D02*
Y582532D01*
Y582283D02*
X385433Y574803D01*
X393579Y588067D02*
X395276Y589764D01*
X386250Y588067D02*
X393579D01*
X383661Y590453D02*
X392028D01*
X393276Y591701D01*
X239665Y603248D02*
X245866D01*
X238221Y604693D02*
X239665Y603248D01*
X238221Y604693D02*
Y649933D01*
X245866Y657579D01*
X246457D01*
X239075Y600689D02*
X245866D01*
X236221Y603543D02*
X239075Y600689D01*
X236221Y603543D02*
Y657579D01*
X246457Y538484D02*
Y569540D01*
X237339Y578658D02*
X246457Y569540D01*
X237339Y578658D02*
Y593783D01*
X241512Y597957D01*
X243277D01*
X243303Y597982D01*
X245719D01*
X245866Y598130D01*
X256299Y538484D02*
Y562526D01*
X239339Y579487D02*
X256299Y562526D01*
X239339Y579487D02*
Y592954D01*
X241782Y595398D01*
X243277D01*
X243303Y595423D01*
X245719D01*
X245866Y595571D01*
X241339Y592126D02*
X242224Y593012D01*
X241339Y580315D02*
Y592126D01*
Y580315D02*
X266535Y555118D01*
X242224Y593012D02*
X245866D01*
X266535Y538484D02*
Y555118D01*
X254281Y588067D02*
X258693Y592479D01*
Y616740D02*
X266142Y624189D01*
X258693Y592479D02*
Y616740D01*
X248455Y588067D02*
X254281D01*
X256693Y617569D02*
X261811Y622687D01*
X256693Y593307D02*
Y617569D01*
X253839Y590453D02*
X256693Y593307D01*
X245866Y590453D02*
X253839D01*
X275787Y657579D02*
X276378D01*
X266142Y624189D02*
Y657579D01*
X248429Y588041D02*
X248455Y588067D01*
X246014Y588041D02*
X248429D01*
X245866Y587894D02*
X246014Y588041D01*
X246378Y531516D02*
X246457Y531595D01*
X246378Y516929D02*
Y531516D01*
X256299Y531595D02*
X256378Y531516D01*
Y516929D02*
Y531516D01*
X266378Y531437D02*
X266535Y531595D01*
X266378Y516929D02*
Y531437D01*
X276378Y664468D02*
Y676929D01*
X266142Y664468D02*
X266378Y664705D01*
Y676929D01*
X246378Y664547D02*
X246457Y664468D01*
X246378Y664547D02*
Y676929D01*
X236221Y664468D02*
X236378Y664626D01*
Y676929D01*
X516730Y603421D02*
X518868D01*
X515779Y604372D02*
X516730Y603421D01*
X515779Y604372D02*
Y649933D01*
X523032Y657185D01*
X523622D01*
X518868Y603421D02*
X518893Y603396D01*
X521309D01*
X521457Y603248D01*
X516461Y600862D02*
X518868D01*
X513779Y603543D02*
X516461Y600862D01*
X513779Y603543D02*
Y657185D01*
X518868Y600862D02*
X518893Y600837D01*
X521309D01*
X521457Y600689D01*
X517642Y592839D02*
X518868D01*
X517201Y592398D02*
X517642Y592839D01*
X517201Y585161D02*
Y592398D01*
X517124Y595398D02*
X518868D01*
X515201Y593475D02*
X517124Y595398D01*
X515201Y584333D02*
Y593475D01*
X516854Y597957D02*
X518868D01*
X513201Y594303D02*
X516854Y597957D01*
X513201Y583505D02*
Y594303D01*
Y583505D02*
X523622Y573083D01*
X515201Y584333D02*
X533858Y565675D01*
X518868Y597957D02*
X518893Y597982D01*
X521309D01*
X521457Y598130D01*
X543701Y540059D02*
Y558661D01*
X518868Y595398D02*
X518893Y595423D01*
X521309D01*
X521457Y595571D01*
X518868Y592839D02*
X518893Y592864D01*
X521309D01*
X521457Y593012D01*
X548819Y661319D02*
X552953Y657185D01*
X553543D01*
X543701Y628126D02*
Y657185D01*
X521457Y587894D02*
X521604Y588041D01*
X385433Y538091D02*
Y574803D01*
X375134Y593783D02*
X379308Y597957D01*
X381072D01*
X381098Y597982D01*
X383514D01*
X383661Y598130D01*
X395669Y538091D02*
Y567644D01*
X377134Y586179D02*
X395669Y567644D01*
X377134Y586179D02*
Y592954D01*
X379577Y595398D01*
X381072D01*
X381098Y595423D01*
X383514D01*
X383661Y595571D01*
X405118Y538091D02*
Y561024D01*
X385354Y531122D02*
X385433Y531201D01*
X385354Y516929D02*
Y531122D01*
X405118Y531201D02*
X405354Y530965D01*
X533779Y533090D02*
X533858Y533169D01*
X377197Y650327D02*
X384842Y657972D01*
X377197Y604299D02*
Y650327D01*
Y604299D02*
X378075Y603421D01*
X377805Y600862D02*
X381072D01*
X375197Y603471D02*
X377805Y600862D01*
X375197Y603471D02*
Y657579D01*
X378075Y603421D02*
X381072D01*
X384842Y657972D02*
X385433D01*
X381072Y603421D02*
X381098Y603396D01*
X383514D01*
X383661Y603248D01*
X381098Y600837D02*
X383514D01*
X383661Y600689D01*
X381072Y600862D02*
X381098Y600837D01*
Y592864D02*
X383514D01*
X381072Y592839D02*
X381098Y592864D01*
X379847Y592839D02*
X381072D01*
X379134Y592126D02*
X379847Y592839D01*
X383514Y592864D02*
X383661Y593012D01*
X386225Y588041D02*
X386250Y588067D01*
X383809Y588041D02*
X386225D01*
X405118Y626551D02*
Y657972D01*
X383661Y587894D02*
X383809Y588041D01*
X375354Y664626D02*
Y676929D01*
X385354Y664941D02*
Y676929D01*
X136909Y384547D02*
X163386D01*
X141969Y399606D02*
X153543D01*
X163386Y384547D02*
X163779Y384154D01*
X173228D01*
X173583Y384508D01*
X208957D01*
X162736Y389606D02*
X163386Y390256D01*
X153543Y389606D02*
X162736D01*
X173228Y389862D02*
X173484Y389606D01*
X183071D01*
X197638Y394587D02*
X197716Y394508D01*
X208957D01*
X153543Y399606D02*
X183071D01*
X193169Y389508D01*
X208957D01*
D13*
X645079Y417618D02*
Y429528D01*
X586221Y417618D02*
Y429528D01*
X645079D01*
Y382087D02*
Y406890D01*
X586221Y382185D02*
Y406791D01*
X99606Y324803D02*
G03*
X115354Y309055I15748J0D01*
G01*
X674409D02*
G03*
X690158Y324803I0J15748D01*
G01*
Y687008D02*
G03*
X674409Y702756I-15748J0D01*
G01*
X115354D02*
G03*
X99606Y687008I0J-15748D01*
G01*
X115354Y309055D02*
X674409Y309055D01*
X115354Y702756D02*
X674409Y702756D01*
X99606Y324803D02*
X99606Y687008D01*
X690157Y324803D02*
X690158Y687008D01*
X225984Y393307D02*
G03*
X225984Y393307I-1969J0D01*
G01*
X540354Y603346D02*
G03*
X540354Y603346I-1969J0D01*
G01*
X402559D02*
G03*
X402559Y603346I-1969J0D01*
G01*
X264764D02*
G03*
X264764Y603346I-1969J0D01*
G01*
X243701Y656791D02*
Y665256D01*
X249213Y656791D02*
Y665256D01*
X243701D02*
X249213D01*
X243701Y656791D02*
X249213D01*
X227559Y377165D02*
Y396850D01*
X211811Y377165D02*
Y396850D01*
X227559D01*
X211811Y377165D02*
X227559D01*
X524213Y586811D02*
X541929D01*
X524213Y606890D02*
X541929D01*
X524213Y586811D02*
Y606890D01*
X541929Y586811D02*
Y606890D01*
X386417Y586811D02*
X404134D01*
X386417Y606890D02*
X404134D01*
X386417Y586811D02*
Y606890D01*
X404134Y586811D02*
Y606890D01*
X248622Y586811D02*
X266339D01*
X248622Y606890D02*
X266339D01*
X248622Y586811D02*
Y606890D01*
X266339Y586811D02*
Y606890D01*
X161614Y384055D02*
Y390748D01*
X165157Y384055D02*
Y390748D01*
X161614D02*
X165157D01*
X161614Y384055D02*
X165157D01*
X171260Y383465D02*
Y390551D01*
X175197Y383465D02*
Y390551D01*
X171260D02*
X175197D01*
X171260Y383465D02*
X175197D01*
X245079Y396260D02*
X251772D01*
X245079Y392717D02*
X251772D01*
Y396260D01*
X245079Y392717D02*
Y396260D01*
X195866Y394291D02*
Y400984D01*
X199409Y394291D02*
Y400984D01*
X195866D02*
X199409D01*
X195866Y394291D02*
X199409D01*
X540945Y656398D02*
X546457D01*
X540945Y664862D02*
X546457D01*
Y656398D02*
Y664862D01*
X540945Y656398D02*
Y664862D01*
X550787Y656398D02*
X556299D01*
X550787Y664862D02*
X556299D01*
Y656398D02*
Y664862D01*
X550787Y656398D02*
Y664862D01*
X540945Y540846D02*
X546457D01*
X540945Y532382D02*
X546457D01*
X540945D02*
Y540846D01*
X546457Y532382D02*
Y540846D01*
X531102D02*
X536614D01*
X531102Y532382D02*
X536614D01*
X531102D02*
Y540846D01*
X536614Y532382D02*
Y540846D01*
X520866D02*
X526378D01*
X520866Y532382D02*
X526378D01*
X520866D02*
Y540846D01*
X526378Y532382D02*
Y540846D01*
X511024Y656398D02*
X516535D01*
X511024Y664862D02*
X516535D01*
Y656398D02*
Y664862D01*
X511024Y656398D02*
Y664862D01*
X520866Y656398D02*
X526378D01*
X520866Y664862D02*
X526378D01*
Y656398D02*
Y664862D01*
X520866Y656398D02*
Y664862D01*
X402362Y657185D02*
X407874D01*
X402362Y665650D02*
X407874D01*
Y657185D02*
Y665650D01*
X402362Y657185D02*
Y665650D01*
X263386Y656791D02*
X268898D01*
X263386Y665256D02*
X268898D01*
Y656791D02*
Y665256D01*
X263386Y656791D02*
Y665256D01*
X412598Y657185D02*
X418110D01*
X412598Y665650D02*
X418110D01*
Y657185D02*
Y665650D01*
X412598Y657185D02*
Y665650D01*
X273622Y656791D02*
X279134D01*
X273622Y665256D02*
X279134D01*
Y656791D02*
Y665256D01*
X273622Y656791D02*
Y665256D01*
X402362Y538878D02*
X407874D01*
X402362Y530413D02*
X407874D01*
X402362D02*
Y538878D01*
X407874Y530413D02*
Y538878D01*
X263779Y539272D02*
X269291D01*
X263779Y530807D02*
X269291D01*
X263779D02*
Y539272D01*
X269291Y530807D02*
Y539272D01*
X392913Y538878D02*
X398425D01*
X392913Y530413D02*
X398425D01*
X392913D02*
Y538878D01*
X398425Y530413D02*
Y538878D01*
X253543Y539272D02*
X259055D01*
X253543Y530807D02*
X259055D01*
X253543D02*
Y539272D01*
X259055Y530807D02*
Y539272D01*
X382677Y538878D02*
X388189D01*
X382677Y530413D02*
X388189D01*
X382677D02*
Y538878D01*
X388189Y530413D02*
Y538878D01*
X243701Y539272D02*
X249213D01*
X243701Y530807D02*
X249213D01*
X243701D02*
Y539272D01*
X249213Y530807D02*
Y539272D01*
X372441Y656791D02*
X377953D01*
X372441Y665256D02*
X377953D01*
Y656791D02*
Y665256D01*
X372441Y656791D02*
Y665256D01*
X233465Y656791D02*
X238976D01*
X233465Y665256D02*
X238976D01*
Y656791D02*
Y665256D01*
X233465Y656791D02*
Y665256D01*
X382677Y657185D02*
X388189D01*
X382677Y665650D02*
X388189D01*
Y657185D02*
Y665650D01*
X382677Y657185D02*
Y665650D01*
X251476Y382776D02*
Y386516D01*
X244587Y382776D02*
Y386516D01*
X251476D01*
X244587Y382776D02*
X251476D01*
X244488Y661024D02*
X248425D01*
X246457Y659055D02*
Y662992D01*
X217717Y387008D02*
X221654D01*
X219685Y385039D02*
Y388976D01*
X533071Y594882D02*
Y598819D01*
X531102Y596850D02*
X535039D01*
X395276Y594882D02*
Y598819D01*
X393307Y596850D02*
X397244D01*
X257480Y594882D02*
Y598819D01*
X255512Y596850D02*
X259449D01*
X161614Y387402D02*
X165157D01*
X163386Y385630D02*
Y389173D01*
X171260Y387008D02*
X175197D01*
X173228Y385039D02*
Y388976D01*
X248425Y392717D02*
Y396260D01*
X246654Y394488D02*
X250197D01*
X195866Y397638D02*
X199409D01*
X197638Y395866D02*
Y399409D01*
X543701Y658661D02*
Y662598D01*
X541732Y660630D02*
X545669D01*
X553543Y658661D02*
Y662598D01*
X551575Y660630D02*
X555512D01*
X543701Y534646D02*
Y538583D01*
X541732Y536614D02*
X545669D01*
X533858Y534646D02*
Y538583D01*
X531890Y536614D02*
X535827D01*
X523622Y534646D02*
Y538583D01*
X521654Y536614D02*
X525591D01*
X513779Y658661D02*
Y662598D01*
X511811Y660630D02*
X515748D01*
X523622Y658661D02*
Y662598D01*
X521654Y660630D02*
X525591D01*
X405118Y659449D02*
Y663386D01*
X403150Y661417D02*
X407087D01*
X266142Y659055D02*
Y662992D01*
X264173Y661024D02*
X268110D01*
X415354Y659449D02*
Y663386D01*
X413386Y661417D02*
X417323D01*
X276378Y659055D02*
Y662992D01*
X274410Y661024D02*
X278346D01*
X405118Y532677D02*
Y536614D01*
X403150Y534646D02*
X407087D01*
X266535Y533071D02*
Y537008D01*
X264567Y535039D02*
X268504D01*
X395669Y532677D02*
Y536614D01*
X393701Y534646D02*
X397638D01*
X256299Y533071D02*
Y537008D01*
X254331Y535039D02*
X258268D01*
X385433Y532677D02*
Y536614D01*
X383465Y534646D02*
X387402D01*
X246457Y533071D02*
Y537008D01*
X244488Y535039D02*
X248425D01*
X375197Y659055D02*
Y662992D01*
X373228Y661024D02*
X377165D01*
X236221Y659055D02*
Y662992D01*
X234252Y661024D02*
X238189D01*
X385433Y659449D02*
Y663386D01*
X383465Y661417D02*
X387402D01*
X246161Y384646D02*
X249902D01*
X248031Y382776D02*
Y386516D01*
D14*
X624902Y390650D02*
D03*
D15*
X242717Y654331D02*
Y667717D01*
X250197Y654331D02*
Y667717D01*
X242717D02*
X250197D01*
X242717Y654331D02*
X250197D01*
X234252Y376181D02*
Y397835D01*
X205118Y376181D02*
Y397835D01*
X234252D01*
X205118Y376181D02*
X234252D01*
X517717Y585827D02*
X548425D01*
X517717Y607874D02*
X548425D01*
X517717Y585827D02*
Y607874D01*
X548425Y585827D02*
Y607874D01*
X379921Y585827D02*
X410630D01*
X379921Y607874D02*
X410630D01*
X379921Y585827D02*
Y607874D01*
X410630Y585827D02*
Y607874D01*
X242126Y585827D02*
X272835D01*
X242126Y607874D02*
X272835D01*
X242126Y585827D02*
Y607874D01*
X272835Y585827D02*
Y607874D01*
X160630Y381693D02*
Y393110D01*
X166142Y381693D02*
Y393110D01*
X160630D02*
X166142D01*
X160630Y381693D02*
X166142D01*
X170276Y381102D02*
Y392913D01*
X176181Y381102D02*
Y392913D01*
X170276D02*
X176181D01*
X170276Y381102D02*
X176181D01*
X242717Y397244D02*
X254134D01*
X242717Y391732D02*
X254134D01*
Y397244D01*
X242717Y391732D02*
Y397244D01*
X194882Y391929D02*
Y403346D01*
X200394Y391929D02*
Y403346D01*
X194882D02*
X200394D01*
X194882Y391929D02*
X200394D01*
X539961Y653937D02*
X547441D01*
X539961Y667323D02*
X547441D01*
Y653937D02*
Y667323D01*
X539961Y653937D02*
Y667323D01*
X549803Y653937D02*
X557283D01*
X549803Y667323D02*
X557283D01*
Y653937D02*
Y667323D01*
X549803Y653937D02*
Y667323D01*
X539961Y543307D02*
X547441D01*
X539961Y529921D02*
X547441D01*
X539961D02*
Y543307D01*
X547441Y529921D02*
Y543307D01*
X530118D02*
X537598D01*
X530118Y529921D02*
X537598D01*
X530118D02*
Y543307D01*
X537598Y529921D02*
Y543307D01*
X519882D02*
X527362D01*
X519882Y529921D02*
X527362D01*
X519882D02*
Y543307D01*
X527362Y529921D02*
Y543307D01*
X510039Y653937D02*
X517520D01*
X510039Y667323D02*
X517520D01*
Y653937D02*
Y667323D01*
X510039Y653937D02*
Y667323D01*
X519882Y653937D02*
X527362D01*
X519882Y667323D02*
X527362D01*
Y653937D02*
Y667323D01*
X519882Y653937D02*
Y667323D01*
X401378Y654724D02*
X408858D01*
X401378Y668110D02*
X408858D01*
Y654724D02*
Y668110D01*
X401378Y654724D02*
Y668110D01*
X262402Y654331D02*
X269882D01*
X262402Y667717D02*
X269882D01*
Y654331D02*
Y667717D01*
X262402Y654331D02*
Y667717D01*
X411614Y654724D02*
X419095D01*
X411614Y668110D02*
X419095D01*
Y654724D02*
Y668110D01*
X411614Y654724D02*
Y668110D01*
X272638Y654331D02*
X280118D01*
X272638Y667717D02*
X280118D01*
Y654331D02*
Y667717D01*
X272638Y654331D02*
Y667717D01*
X401378Y541339D02*
X408858D01*
X401378Y527953D02*
X408858D01*
X401378D02*
Y541339D01*
X408858Y527953D02*
Y541339D01*
X262795Y541732D02*
X270276D01*
X262795Y528346D02*
X270276D01*
X262795D02*
Y541732D01*
X270276Y528346D02*
Y541732D01*
X391929Y541339D02*
X399409D01*
X391929Y527953D02*
X399409D01*
X391929D02*
Y541339D01*
X399409Y527953D02*
Y541339D01*
X252559Y541732D02*
X260039D01*
X252559Y528346D02*
X260039D01*
X252559D02*
Y541732D01*
X260039Y528346D02*
Y541732D01*
X381693Y541339D02*
X389173D01*
X381693Y527953D02*
X389173D01*
X381693D02*
Y541339D01*
X389173Y527953D02*
Y541339D01*
X242717Y541732D02*
X250197D01*
X242717Y528346D02*
X250197D01*
X242717D02*
Y541732D01*
X250197Y528346D02*
Y541732D01*
X371457Y654331D02*
X378937D01*
X371457Y667717D02*
X378937D01*
Y654331D02*
Y667717D01*
X371457Y654331D02*
Y667717D01*
X232480Y654331D02*
X239961D01*
X232480Y667717D02*
X239961D01*
Y654331D02*
Y667717D01*
X232480Y654331D02*
Y667717D01*
X381693Y654724D02*
X389173D01*
X381693Y668110D02*
X389173D01*
Y654724D02*
Y668110D01*
X381693Y654724D02*
Y668110D01*
X253937Y381693D02*
Y387598D01*
X242126Y381693D02*
Y387598D01*
X253937D01*
X242126Y381693D02*
X253937D01*
D26*
X212854Y389508D02*
X228346Y374016D01*
X213524Y384508D02*
X234252Y363779D01*
X208957Y384508D02*
X213524D01*
X234252Y363779D02*
X382283D01*
X228346Y374016D02*
X379134D01*
X208957Y389508D02*
X212854D01*
X230413Y384508D02*
X244941D01*
X251575Y389764D02*
Y394390D01*
X377165Y348425D02*
X383071D01*
X245374Y384941D02*
Y394488D01*
X245079Y384646D02*
X245374Y384941D01*
X251476Y394488D02*
X251575Y394390D01*
X622047Y320079D02*
X650787Y348819D01*
X650787Y483071D02*
X650787Y348819D01*
X389764Y320079D02*
X622047D01*
X138976Y476378D02*
Y482283D01*
X244941Y384508D02*
X245079Y384646D01*
X392126Y338976D02*
X400394D01*
X388976Y342126D02*
X392126Y338976D01*
X388976Y342126D02*
Y357087D01*
X400394Y338976D02*
X406791Y345374D01*
X371161Y338681D02*
X389764Y320079D01*
X406791Y345374D02*
Y348425D01*
X382283Y363779D02*
X388976Y357087D01*
X379134Y374016D02*
X394882Y358268D01*
Y348425D02*
Y358268D01*
X135433Y529528D02*
X138976D01*
X103937Y498032D02*
X135433Y529528D01*
X122835Y348425D02*
X371161Y348425D01*
X103937Y367323D02*
X122835Y348425D01*
X103937Y367323D02*
X103937Y498032D01*
X641339Y536221D02*
X645728Y531831D01*
X649272D01*
X650787Y530315D01*
X371161Y338681D02*
Y348425D01*
X646871Y529942D02*
X650414D01*
X641339Y524409D02*
X646871Y529942D01*
X375197Y664468D02*
X375354Y664626D01*
X385354Y664941D02*
X385433Y664862D01*
D27*
X485039Y396220D02*
D03*
Y406220D02*
D03*
Y416221D02*
D03*
Y426221D02*
D03*
Y436221D02*
D03*
Y446220D02*
D03*
Y456220D02*
D03*
Y466221D02*
D03*
Y476221D02*
D03*
Y486221D02*
D03*
X475039Y396220D02*
D03*
Y406220D02*
D03*
Y416221D02*
D03*
Y426221D02*
D03*
Y436221D02*
D03*
Y446220D02*
D03*
Y456220D02*
D03*
Y466221D02*
D03*
Y476221D02*
D03*
Y486221D02*
D03*
X315039Y396220D02*
D03*
Y406220D02*
D03*
Y416221D02*
D03*
Y426221D02*
D03*
Y436221D02*
D03*
Y446220D02*
D03*
Y456220D02*
D03*
Y466221D02*
D03*
Y476221D02*
D03*
Y486221D02*
D03*
X305039Y396220D02*
D03*
Y406220D02*
D03*
Y416221D02*
D03*
Y426221D02*
D03*
Y436221D02*
D03*
Y446220D02*
D03*
Y456220D02*
D03*
Y466221D02*
D03*
Y476221D02*
D03*
Y486221D02*
D03*
D28*
X415354Y676929D02*
D03*
Y516929D02*
D03*
X375354Y676929D02*
D03*
Y516929D02*
D03*
X405354Y676929D02*
D03*
Y516929D02*
D03*
X395354Y676929D02*
D03*
Y516929D02*
D03*
X385354Y676929D02*
D03*
Y516929D02*
D03*
X276378Y676929D02*
D03*
Y516929D02*
D03*
X236378Y676929D02*
D03*
Y516929D02*
D03*
X266378Y676929D02*
D03*
Y516929D02*
D03*
X256378Y676929D02*
D03*
Y516929D02*
D03*
X246378Y676929D02*
D03*
Y516929D02*
D03*
X553543Y677165D02*
D03*
Y517165D02*
D03*
X513543Y677165D02*
D03*
Y517165D02*
D03*
X543543Y677165D02*
D03*
Y517165D02*
D03*
X533543Y677165D02*
D03*
Y517165D02*
D03*
X523543Y677165D02*
D03*
Y517165D02*
D03*
D29*
X412992Y586614D02*
D03*
X412598Y348425D02*
D03*
X168110Y482283D02*
D03*
X498032Y494488D02*
D03*
Y498819D02*
D03*
X295276Y436221D02*
D03*
X242126Y401575D02*
D03*
X305118Y411417D02*
D03*
X314961Y481496D02*
D03*
X354724Y444882D02*
D03*
X498032Y490158D02*
D03*
X632677Y512697D02*
D03*
X646949Y475984D02*
D03*
X632677Y501181D02*
D03*
X650787D02*
D03*
X641732Y494882D02*
D03*
X551181Y508661D02*
D03*
X166339Y511811D02*
D03*
X285433Y468504D02*
D03*
X279528Y460236D02*
D03*
X277559Y472441D02*
D03*
X286614Y463386D02*
D03*
X641339Y524409D02*
D03*
X251575Y389764D02*
D03*
X377165Y348425D02*
D03*
X138976Y476378D02*
D03*
X641339Y536221D02*
D03*
X527559Y605905D02*
D03*
X389764D02*
D03*
X252756D02*
D03*
D30*
X117795Y473819D02*
D03*
Y537992D02*
D03*
X671969Y538779D02*
D03*
Y474606D02*
D03*
X427106Y327264D02*
D03*
X362933D02*
D03*
D31*
X674409Y324803D02*
D03*
Y687008D02*
D03*
X115354D02*
D03*
Y324803D02*
D03*
D32*
X628740Y413878D02*
D03*
X601968D02*
D03*
D33*
X157205Y505905D02*
D03*
Y529528D02*
D03*
X138976D02*
D03*
Y505905D02*
D03*
X157205Y482283D02*
D03*
X138976D02*
D03*
X157205Y517717D02*
D03*
X138976D02*
D03*
X157205Y494095D02*
D03*
X138976D02*
D03*
X632559Y506693D02*
D03*
Y483071D02*
D03*
X650787D02*
D03*
Y506693D02*
D03*
X632559Y530315D02*
D03*
X650787D02*
D03*
X632559Y494882D02*
D03*
X650787D02*
D03*
X632559Y518504D02*
D03*
X650787D02*
D03*
D34*
X153543Y389606D02*
D03*
Y399606D02*
D03*
X183071Y389606D02*
D03*
Y399606D02*
D03*
X132283Y380157D02*
D03*
Y390158D02*
D03*
Y400157D02*
D03*
D35*
X394882Y348425D02*
D03*
X371161D02*
D03*
X418602D02*
D03*
X383071D02*
D03*
X406791D02*
D03*
D36*
X246457Y664468D02*
D03*
Y657579D02*
D03*
X543701Y657185D02*
D03*
Y664075D02*
D03*
X553543Y657185D02*
D03*
Y664075D02*
D03*
X543701Y540059D02*
D03*
Y533169D02*
D03*
X533858Y540059D02*
D03*
Y533169D02*
D03*
X523622Y540059D02*
D03*
Y533169D02*
D03*
X513779Y657185D02*
D03*
Y664075D02*
D03*
X523622Y657185D02*
D03*
Y664075D02*
D03*
X405118Y657972D02*
D03*
Y664862D02*
D03*
X266142Y657579D02*
D03*
Y664468D02*
D03*
X415354Y657972D02*
D03*
Y664862D02*
D03*
X276378Y657579D02*
D03*
Y664468D02*
D03*
X405118Y538091D02*
D03*
Y531201D02*
D03*
X266535Y538484D02*
D03*
Y531595D02*
D03*
X395669Y538091D02*
D03*
Y531201D02*
D03*
X256299Y538484D02*
D03*
Y531595D02*
D03*
X385433Y538091D02*
D03*
Y531201D02*
D03*
X246457Y538484D02*
D03*
Y531595D02*
D03*
X375197Y657579D02*
D03*
Y664468D02*
D03*
X236221Y657579D02*
D03*
Y664468D02*
D03*
X385433Y657972D02*
D03*
Y664862D02*
D03*
D37*
X230413Y394508D02*
D03*
Y389508D02*
D03*
Y384508D02*
D03*
Y379508D02*
D03*
X208957Y394508D02*
D03*
Y389508D02*
D03*
Y384508D02*
D03*
Y379508D02*
D03*
D38*
X521457Y587894D02*
D03*
Y590453D02*
D03*
Y593012D02*
D03*
Y595571D02*
D03*
Y598130D02*
D03*
Y600689D02*
D03*
Y603248D02*
D03*
Y605807D02*
D03*
X544685Y587894D02*
D03*
Y590453D02*
D03*
Y593012D02*
D03*
Y595571D02*
D03*
Y598130D02*
D03*
Y600689D02*
D03*
Y603248D02*
D03*
Y605807D02*
D03*
X383661Y587894D02*
D03*
Y590453D02*
D03*
Y593012D02*
D03*
Y595571D02*
D03*
Y598130D02*
D03*
Y600689D02*
D03*
Y603248D02*
D03*
Y605807D02*
D03*
X406890Y587894D02*
D03*
Y590453D02*
D03*
Y593012D02*
D03*
Y595571D02*
D03*
Y598130D02*
D03*
Y600689D02*
D03*
Y603248D02*
D03*
Y605807D02*
D03*
X245866Y587894D02*
D03*
Y590453D02*
D03*
Y593012D02*
D03*
Y595571D02*
D03*
Y598130D02*
D03*
Y600689D02*
D03*
Y603248D02*
D03*
Y605807D02*
D03*
X269094Y587894D02*
D03*
Y590453D02*
D03*
Y593012D02*
D03*
Y595571D02*
D03*
Y598130D02*
D03*
Y600689D02*
D03*
Y603248D02*
D03*
Y605807D02*
D03*
D39*
X163386Y390256D02*
D03*
Y384547D02*
D03*
D40*
X173228Y389862D02*
D03*
Y384154D02*
D03*
D41*
X251476Y394488D02*
D03*
X245374D02*
D03*
D42*
X197638Y400689D02*
D03*
Y394587D02*
D03*
D43*
X250984Y384646D02*
D03*
X245079D02*
D03*
M02*
