G04*
G04 #@! TF.GenerationSoftware,Altium Limited,Altium Designer,18.1.11 (251)*
G04*
G04 Layer_Color=16711935*
%FSLAX25Y25*%
%MOIN*%
G70*
G01*
G75*
%ADD20C,0.06706*%
%ADD21C,0.24422*%
%ADD22C,0.07493*%
%ADD23C,0.07099*%
%ADD24C,0.18123*%
%ADD25C,0.03556*%
%ADD49R,0.04540X0.03359*%
%ADD50R,0.04343X0.04147*%
%ADD51R,0.04737X0.04934*%
%ADD52R,0.03674X0.01981*%
%ADD53R,0.01981X0.03674*%
%ADD54R,0.10642X0.10642*%
%ADD55R,0.09068X0.22847*%
%ADD56O,0.06509X0.03162*%
%ADD57R,0.04147X0.04343*%
%ADD58R,0.06509X0.05918*%
%ADD59O,0.01981X0.06115*%
%ADD60R,0.05918X0.06509*%
%ADD61O,0.10642X0.03359*%
%ADD62O,0.03359X0.10642*%
D20*
X198587Y300588D02*
D03*
X196508Y290806D02*
D03*
X194429Y281025D02*
D03*
X192350Y271243D02*
D03*
X190270Y261462D02*
D03*
X188191Y251680D02*
D03*
X186112Y241899D02*
D03*
X184033Y232117D02*
D03*
X181954Y222336D02*
D03*
X179875Y212554D02*
D03*
X177796Y202773D02*
D03*
X175716Y192991D02*
D03*
X173637Y183210D02*
D03*
X171558Y173428D02*
D03*
X169479Y163647D02*
D03*
X167400Y153866D02*
D03*
X165321Y144084D02*
D03*
X163242Y134302D02*
D03*
X161163Y124521D02*
D03*
X208368Y298509D02*
D03*
X206289Y288727D02*
D03*
X204210Y278946D02*
D03*
X202131Y269164D02*
D03*
X200052Y259383D02*
D03*
X197973Y249601D02*
D03*
X195894Y239820D02*
D03*
X193815Y230038D02*
D03*
X191735Y220257D02*
D03*
X189656Y210475D02*
D03*
X187577Y200694D02*
D03*
X185498Y190912D02*
D03*
X183419Y181131D02*
D03*
X181340Y171349D02*
D03*
X179261Y161568D02*
D03*
X177181Y151786D02*
D03*
X175102Y142005D02*
D03*
X173023Y132223D02*
D03*
X170944Y122442D02*
D03*
X168865Y112661D02*
D03*
X159084Y114740D02*
D03*
D21*
X159988Y94946D02*
D03*
X71416Y113772D02*
D03*
X207464Y318302D02*
D03*
D22*
X-88150Y97244D02*
D03*
X-78150D02*
D03*
X-188277Y91199D02*
D03*
X-190356Y100981D02*
D03*
X-192435Y110762D02*
D03*
X-194514Y120544D02*
D03*
X-196593Y130325D02*
D03*
X-198672Y140106D02*
D03*
X-200751Y149888D02*
D03*
X-202830Y159669D02*
D03*
X-204910Y169451D02*
D03*
X-206989Y179232D02*
D03*
X145118Y372047D02*
D03*
X135118D02*
D03*
X125118D02*
D03*
X115118D02*
D03*
X105118D02*
D03*
X95118D02*
D03*
X85118D02*
D03*
X75118D02*
D03*
X65118D02*
D03*
X55118D02*
D03*
Y401575D02*
D03*
X65118D02*
D03*
X75118D02*
D03*
X85118D02*
D03*
X95118D02*
D03*
X105118D02*
D03*
X115118D02*
D03*
X125118D02*
D03*
X135118D02*
D03*
X145118D02*
D03*
X45000Y372047D02*
D03*
X35000D02*
D03*
X25000D02*
D03*
X15000D02*
D03*
X5000D02*
D03*
X-5000D02*
D03*
X-15000D02*
D03*
X-25000D02*
D03*
X-35000D02*
D03*
X-45000D02*
D03*
Y401575D02*
D03*
X-35000D02*
D03*
X-25000D02*
D03*
X-15000D02*
D03*
X-5000D02*
D03*
X5000D02*
D03*
X15000D02*
D03*
X25000D02*
D03*
X35000D02*
D03*
X45000D02*
D03*
X-55118Y372047D02*
D03*
X-65118D02*
D03*
X-75118D02*
D03*
X-85118D02*
D03*
X-95118D02*
D03*
X-105118D02*
D03*
X-115118D02*
D03*
X-125118D02*
D03*
X-135118D02*
D03*
X-145118D02*
D03*
Y401575D02*
D03*
X-135118D02*
D03*
X-125118D02*
D03*
X-115118D02*
D03*
X-105118D02*
D03*
X-95118D02*
D03*
X-85118D02*
D03*
X-75118D02*
D03*
X-65118D02*
D03*
X-55118D02*
D03*
X-29921Y153543D02*
D03*
X29921D02*
D03*
D23*
X30630Y315906D02*
D03*
X40630D02*
D03*
X50630D02*
D03*
X60630D02*
D03*
X70630D02*
D03*
Y255906D02*
D03*
X60630D02*
D03*
X50630D02*
D03*
X40630D02*
D03*
X30630D02*
D03*
X-20000Y315905D02*
D03*
X-10000D02*
D03*
X0D02*
D03*
X10000D02*
D03*
X20000D02*
D03*
Y255906D02*
D03*
X10000D02*
D03*
X0D02*
D03*
X-10000D02*
D03*
X-20000D02*
D03*
X-70630Y315906D02*
D03*
X-60630D02*
D03*
X-50630D02*
D03*
X-40630D02*
D03*
X-30630D02*
D03*
Y255906D02*
D03*
X-40630D02*
D03*
X-50630D02*
D03*
X-60630D02*
D03*
X-70630D02*
D03*
D24*
X110393Y459265D02*
D03*
X59055Y17740D02*
D03*
X-213541Y208935D02*
D03*
X-110393Y459265D02*
D03*
X-59055Y17740D02*
D03*
X213541Y208935D02*
D03*
D25*
X-38583Y182874D02*
D03*
X-25820D02*
D03*
X-13058D02*
D03*
X-295D02*
D03*
X12467D02*
D03*
X25230D02*
D03*
X37992D02*
D03*
X-41831Y459265D02*
D03*
X-29068D02*
D03*
X-16306D02*
D03*
X-3543D02*
D03*
X9219D02*
D03*
X21982D02*
D03*
X34744D02*
D03*
X37303Y17740D02*
D03*
X24541D02*
D03*
X11778D02*
D03*
X-984D02*
D03*
X-13747D02*
D03*
X-26509D02*
D03*
X-39272D02*
D03*
X-23524Y100098D02*
D03*
X-22441Y90453D02*
D03*
X-28997Y86201D02*
D03*
X-50454D02*
D03*
X-42854Y91201D02*
D03*
X103115Y212303D02*
D03*
X114235Y220866D02*
D03*
X103115Y216535D02*
D03*
X132578Y188808D02*
D03*
X132554Y202547D02*
D03*
X138337Y216249D02*
D03*
X108563Y287796D02*
D03*
Y292796D02*
D03*
X100223Y302796D02*
D03*
X102579Y341610D02*
D03*
X-2500Y335630D02*
D03*
X-34408Y345079D02*
D03*
X59469D02*
D03*
X129644Y332479D02*
D03*
X29566Y332440D02*
D03*
X-70552Y332480D02*
D03*
X-134507Y345079D02*
D03*
X-20000Y263385D02*
D03*
X126772Y203847D02*
D03*
X132554Y217610D02*
D03*
X138337Y231288D02*
D03*
X144119Y245051D02*
D03*
X149902Y258802D02*
D03*
X163582Y256300D02*
D03*
X157800Y242562D02*
D03*
X152017Y228824D02*
D03*
X146235Y215085D02*
D03*
X140453Y201347D02*
D03*
X-118110Y191968D02*
D03*
Y172107D02*
D03*
X-96653Y275611D02*
D03*
X-109015Y299212D02*
D03*
X106791Y171811D02*
D03*
Y191968D02*
D03*
X4725Y119428D02*
D03*
X4725Y74272D02*
D03*
X-15157Y55610D02*
D03*
X-7185Y58858D02*
D03*
X-18307Y62106D02*
D03*
Y82874D02*
D03*
X-11122Y52362D02*
D03*
X-15157Y79232D02*
D03*
X-7185Y79232D02*
D03*
X-11122D02*
D03*
X2500Y341610D02*
D03*
X-97618D02*
D03*
X117480Y328248D02*
D03*
X-102618Y335630D02*
D03*
X17402Y328209D02*
D03*
X108563Y267796D02*
D03*
Y282796D02*
D03*
X50551Y283760D02*
D03*
X-79Y283760D02*
D03*
X-50709Y283760D02*
D03*
X30630Y304331D02*
D03*
X40630Y307480D02*
D03*
X60630Y298819D02*
D03*
X70630Y293701D02*
D03*
X60630Y272047D02*
D03*
X40630Y266929D02*
D03*
X30630Y263386D02*
D03*
X-20000Y304331D02*
D03*
X-10000Y307480D02*
D03*
X10000Y298819D02*
D03*
X20000Y293701D02*
D03*
X10000Y272047D02*
D03*
X-10000Y266929D02*
D03*
X-70630Y304331D02*
D03*
X-60630Y307481D02*
D03*
X-40630Y298819D02*
D03*
X-30630Y293701D02*
D03*
X-40630Y272047D02*
D03*
X-60630Y266929D02*
D03*
X-70630Y263386D02*
D03*
D49*
X155708Y248230D02*
D03*
X164960Y244628D02*
D03*
Y251832D02*
D03*
X149925Y234492D02*
D03*
X159177Y230889D02*
D03*
Y238094D02*
D03*
X144143Y220753D02*
D03*
X153395Y217151D02*
D03*
Y224356D02*
D03*
X138361Y207015D02*
D03*
X147613Y203412D02*
D03*
Y210617D02*
D03*
X132578Y193276D02*
D03*
X141830Y189674D02*
D03*
Y196879D02*
D03*
X45060Y283760D02*
D03*
X35808Y287362D02*
D03*
Y280157D02*
D03*
X-5570Y283759D02*
D03*
X-14822Y287362D02*
D03*
Y280157D02*
D03*
X-56200Y283760D02*
D03*
X-65452Y287362D02*
D03*
Y280157D02*
D03*
D50*
X149902Y248232D02*
D03*
Y254334D02*
D03*
X170768Y245180D02*
D03*
Y251283D02*
D03*
X144119Y234480D02*
D03*
Y240583D02*
D03*
X164985Y231453D02*
D03*
Y237556D02*
D03*
X138337Y220717D02*
D03*
Y226819D02*
D03*
X159203Y217684D02*
D03*
Y223786D02*
D03*
X132554Y207040D02*
D03*
Y213142D02*
D03*
X153420Y203988D02*
D03*
Y210091D02*
D03*
X147639Y190262D02*
D03*
Y196364D02*
D03*
X126772Y193277D02*
D03*
Y199379D02*
D03*
X-118110Y178839D02*
D03*
Y184941D02*
D03*
X106791Y178937D02*
D03*
Y185039D02*
D03*
X30020Y286811D02*
D03*
Y280709D02*
D03*
X-20609Y286810D02*
D03*
Y280708D02*
D03*
X-71239Y286811D02*
D03*
Y280708D02*
D03*
X-127854Y331102D02*
D03*
Y325000D02*
D03*
X-27735Y331062D02*
D03*
Y324960D02*
D03*
X72343Y342913D02*
D03*
Y336810D02*
D03*
X72343Y331102D02*
D03*
Y324999D02*
D03*
D51*
X4725Y87106D02*
D03*
Y81201D02*
D03*
X4725Y106594D02*
D03*
Y112500D02*
D03*
D52*
X-1417Y93897D02*
D03*
X-16890Y91929D02*
D03*
Y93897D02*
D03*
Y97834D02*
D03*
Y89960D02*
D03*
Y95866D02*
D03*
X-1417Y97834D02*
D03*
Y95866D02*
D03*
Y91929D02*
D03*
Y89960D02*
D03*
D53*
X-11122Y101634D02*
D03*
X-13091D02*
D03*
X-7185D02*
D03*
X-9154D02*
D03*
X-5217D02*
D03*
Y86161D02*
D03*
X-7185D02*
D03*
X-9154D02*
D03*
X-11122D02*
D03*
X-13091D02*
D03*
D54*
X-9154Y93897D02*
D03*
D55*
X16930Y78149D02*
D03*
Y115551D02*
D03*
D56*
X-35926Y101201D02*
D03*
Y96201D02*
D03*
Y91201D02*
D03*
Y86201D02*
D03*
X-57382Y101201D02*
D03*
Y96201D02*
D03*
Y91201D02*
D03*
Y86201D02*
D03*
X115121Y302796D02*
D03*
Y297796D02*
D03*
Y292796D02*
D03*
Y287796D02*
D03*
Y282796D02*
D03*
Y277796D02*
D03*
Y272796D02*
D03*
Y267796D02*
D03*
X93665Y302796D02*
D03*
Y297796D02*
D03*
Y292796D02*
D03*
Y287796D02*
D03*
Y282796D02*
D03*
Y277796D02*
D03*
Y272796D02*
D03*
Y267796D02*
D03*
D57*
X-82047Y88741D02*
D03*
X-88150D02*
D03*
X84862Y274567D02*
D03*
X78760D02*
D03*
X84862Y268956D02*
D03*
X78760D02*
D03*
X84862Y263346D02*
D03*
X78760D02*
D03*
X84862Y291141D02*
D03*
X78760D02*
D03*
X84862Y296653D02*
D03*
X78760D02*
D03*
X84862Y302165D02*
D03*
X78760D02*
D03*
X84862Y307677D02*
D03*
X78760D02*
D03*
X-91516Y318405D02*
D03*
X-97618D02*
D03*
D58*
X-129035Y344508D02*
D03*
Y338209D02*
D03*
X-76005Y332479D02*
D03*
Y338778D02*
D03*
X-28916Y344489D02*
D03*
Y338190D02*
D03*
X24074Y332440D02*
D03*
Y338739D02*
D03*
X64961Y342834D02*
D03*
Y336535D02*
D03*
X124153Y332479D02*
D03*
Y338778D02*
D03*
D59*
X-95650Y281693D02*
D03*
X-97618D02*
D03*
X-99587D02*
D03*
X-101555D02*
D03*
X-103524D02*
D03*
X-95650Y299212D02*
D03*
X-97618D02*
D03*
X-99587D02*
D03*
X-101555D02*
D03*
X-103524D02*
D03*
D60*
X-96752Y310138D02*
D03*
X-90452D02*
D03*
D61*
X-86378Y334488D02*
D03*
Y339488D02*
D03*
Y344488D02*
D03*
Y349488D02*
D03*
Y354488D02*
D03*
X-118858D02*
D03*
Y349488D02*
D03*
Y344488D02*
D03*
Y339488D02*
D03*
Y334488D02*
D03*
X13740Y334449D02*
D03*
Y339449D02*
D03*
Y344449D02*
D03*
Y349449D02*
D03*
Y354449D02*
D03*
X-18740D02*
D03*
Y349449D02*
D03*
Y344449D02*
D03*
Y339449D02*
D03*
Y334449D02*
D03*
X113819Y334488D02*
D03*
Y339488D02*
D03*
Y344488D02*
D03*
Y349488D02*
D03*
Y354488D02*
D03*
X81339D02*
D03*
Y349488D02*
D03*
Y344488D02*
D03*
Y339488D02*
D03*
Y334488D02*
D03*
D62*
X-92618Y360728D02*
D03*
X-97618D02*
D03*
X-102618D02*
D03*
X-107618D02*
D03*
X-112618D02*
D03*
Y328248D02*
D03*
X-107618D02*
D03*
X-102618D02*
D03*
X-97618D02*
D03*
X-92618D02*
D03*
X7500Y360689D02*
D03*
X2500D02*
D03*
X-2500D02*
D03*
X-7500D02*
D03*
X-12500D02*
D03*
Y328209D02*
D03*
X-7500D02*
D03*
X-2500D02*
D03*
X2500D02*
D03*
X7500D02*
D03*
X107579Y360728D02*
D03*
X102579D02*
D03*
X97579D02*
D03*
X92579D02*
D03*
X87579D02*
D03*
Y328248D02*
D03*
X92579D02*
D03*
X97579D02*
D03*
X102579D02*
D03*
X107579D02*
D03*
M02*
