G04*
G04 #@! TF.GenerationSoftware,Altium Limited,Altium Designer,18.1.11 (251)*
G04*
G04 Layer_Physical_Order=2*
G04 Layer_Color=16711680*
%FSLAX25Y25*%
%MOIN*%
G70*
G01*
G75*
%ADD10C,0.00787*%
%ADD13C,0.01575*%
%ADD15C,0.01000*%
%ADD28C,0.05906*%
%ADD29C,0.23622*%
%ADD30C,0.06693*%
%ADD31C,0.06299*%
%ADD32C,0.17323*%
%ADD33C,0.02756*%
%ADD34R,0.03740X0.02559*%
%ADD35R,0.03543X0.03347*%
%ADD36R,0.03937X0.04134*%
%ADD37R,0.02874X0.01181*%
%ADD38R,0.01181X0.02874*%
%ADD39R,0.09843X0.09843*%
%ADD40R,0.08268X0.22047*%
%ADD41O,0.05709X0.02362*%
%ADD42R,0.03347X0.03543*%
%ADD43R,0.05709X0.05118*%
%ADD44O,0.01181X0.05315*%
%ADD45R,0.05118X0.05709*%
%ADD46O,0.09843X0.02559*%
%ADD47O,0.02559X0.09843*%
%ADD48C,0.01500*%
G36*
X11516Y476026D02*
X31004Y475825D01*
X53839Y475313D01*
X75295Y474522D01*
X95768Y473549D01*
X118124Y472244D01*
X138779Y470817D01*
X159153Y469138D01*
X178467Y467323D01*
X196161Y465517D01*
X217467Y463118D01*
X217898Y462567D01*
X215087Y441437D01*
X213279Y427850D01*
Y427850D01*
X213155Y426700D01*
X213075Y424388D01*
X213223Y422079D01*
X213597Y419796D01*
X214193Y417560D01*
X215004Y415394D01*
X216024Y413318D01*
X217243Y411351D01*
X218649Y409514D01*
X220228Y407823D01*
X221965Y406295D01*
X223844Y404945D01*
X225845Y403786D01*
X227951Y402828D01*
X230141Y402081D01*
X232393Y401552D01*
X233536Y401371D01*
X238484Y400667D01*
X271109Y396326D01*
X271398Y395918D01*
X201431Y66750D01*
X152342D01*
X152342Y66750D01*
X151183Y66721D01*
X148876Y66494D01*
X146602Y66042D01*
X144384Y65369D01*
X142243Y64482D01*
X140198Y63389D01*
X138271Y62101D01*
X136479Y60631D01*
X134840Y58991D01*
X133369Y57199D01*
X132081Y55272D01*
X130988Y53228D01*
X130101Y51086D01*
X129428Y48868D01*
X128976Y46594D01*
X128749Y44287D01*
X128720Y43128D01*
Y23D01*
X-128720D01*
Y43128D01*
X-128720Y43128D01*
X-128721Y43128D01*
X-128749Y44287D01*
X-128976Y46594D01*
X-129429Y48867D01*
X-130101Y51086D01*
X-130989Y53228D01*
X-132081Y55272D01*
X-133369Y57199D01*
X-134840Y58991D01*
X-136479Y60631D01*
X-138271Y62101D01*
X-140198Y63389D01*
X-142243Y64482D01*
X-144385Y65369D01*
X-146603Y66042D01*
X-148876Y66494D01*
X-151183Y66721D01*
X-152342Y66750D01*
X-201431Y66750D01*
X-271398Y395918D01*
X-271109Y396326D01*
X-247146Y399514D01*
X-234062Y401255D01*
X-233579Y401319D01*
X-233579Y401319D01*
X-233579Y401319D01*
X-232434Y401500D01*
X-230177Y402030D01*
X-227983Y402778D01*
X-225873Y403737D01*
X-223867Y404899D01*
X-221984Y406252D01*
X-220244Y407783D01*
X-218661Y409477D01*
X-217252Y411318D01*
X-216031Y413288D01*
X-215009Y415369D01*
X-214195Y417540D01*
X-213598Y419780D01*
X-213224Y422067D01*
X-213075Y424381D01*
X-213154Y426698D01*
X-213279Y427850D01*
X-213502Y429528D01*
X-217898Y462567D01*
X-217467Y463118D01*
X-199606Y465129D01*
X-167028Y468438D01*
X-142960Y470472D01*
X-118209Y472238D01*
X-92618Y473714D01*
X-72047Y474644D01*
X-49114Y475419D01*
X-30020Y475847D01*
X-6988Y476060D01*
X11516Y476026D01*
D02*
G37*
%LPC*%
G36*
X35244Y461590D02*
Y459765D01*
X37069D01*
X36984Y460193D01*
X36459Y460979D01*
X35672Y461505D01*
X35244Y461590D01*
D02*
G37*
G36*
X34244D02*
X33816Y461505D01*
X33030Y460979D01*
X32504Y460193D01*
X32419Y459765D01*
X34244D01*
Y461590D01*
D02*
G37*
G36*
X22482D02*
Y459765D01*
X24307D01*
X24222Y460193D01*
X23696Y460979D01*
X22909Y461505D01*
X22482Y461590D01*
D02*
G37*
G36*
X21482D02*
X21054Y461505D01*
X20267Y460979D01*
X19742Y460193D01*
X19657Y459765D01*
X21482D01*
Y461590D01*
D02*
G37*
G36*
X9719D02*
Y459765D01*
X11544D01*
X11459Y460193D01*
X10933Y460979D01*
X10147Y461505D01*
X9719Y461590D01*
D02*
G37*
G36*
X8719D02*
X8291Y461505D01*
X7505Y460979D01*
X6979Y460193D01*
X6894Y459765D01*
X8719D01*
Y461590D01*
D02*
G37*
G36*
X-3043D02*
Y459765D01*
X-1218D01*
X-1303Y460193D01*
X-1829Y460979D01*
X-2616Y461505D01*
X-3043Y461590D01*
D02*
G37*
G36*
X-4043D02*
X-4471Y461505D01*
X-5258Y460979D01*
X-5783Y460193D01*
X-5868Y459765D01*
X-4043D01*
Y461590D01*
D02*
G37*
G36*
X-15806D02*
Y459765D01*
X-13981D01*
X-14066Y460193D01*
X-14591Y460979D01*
X-15378Y461505D01*
X-15806Y461590D01*
D02*
G37*
G36*
X-16806D02*
X-17234Y461505D01*
X-18020Y460979D01*
X-18546Y460193D01*
X-18631Y459765D01*
X-16806D01*
Y461590D01*
D02*
G37*
G36*
X-28568D02*
Y459765D01*
X-26743D01*
X-26828Y460193D01*
X-27354Y460979D01*
X-28140Y461505D01*
X-28568Y461590D01*
D02*
G37*
G36*
X-29568D02*
X-29996Y461505D01*
X-30783Y460979D01*
X-31308Y460193D01*
X-31393Y459765D01*
X-29568D01*
Y461590D01*
D02*
G37*
G36*
X-41331D02*
Y459765D01*
X-39506D01*
X-39591Y460193D01*
X-40116Y460979D01*
X-40903Y461505D01*
X-41331Y461590D01*
D02*
G37*
G36*
X-42331D02*
X-42759Y461505D01*
X-43545Y460979D01*
X-44071Y460193D01*
X-44156Y459765D01*
X-42331D01*
Y461590D01*
D02*
G37*
G36*
X37069Y458765D02*
X35244D01*
Y456940D01*
X35672Y457025D01*
X36459Y457551D01*
X36984Y458337D01*
X37069Y458765D01*
D02*
G37*
G36*
X34244D02*
X32419D01*
X32504Y458337D01*
X33030Y457551D01*
X33816Y457025D01*
X34244Y456940D01*
Y458765D01*
D02*
G37*
G36*
X24307D02*
X22482D01*
Y456940D01*
X22909Y457025D01*
X23696Y457551D01*
X24222Y458337D01*
X24307Y458765D01*
D02*
G37*
G36*
X21482D02*
X19657D01*
X19742Y458337D01*
X20267Y457551D01*
X21054Y457025D01*
X21482Y456940D01*
Y458765D01*
D02*
G37*
G36*
X11544D02*
X9719D01*
Y456940D01*
X10147Y457025D01*
X10933Y457551D01*
X11459Y458337D01*
X11544Y458765D01*
D02*
G37*
G36*
X8719D02*
X6894D01*
X6979Y458337D01*
X7505Y457551D01*
X8291Y457025D01*
X8719Y456940D01*
Y458765D01*
D02*
G37*
G36*
X-1218D02*
X-3043D01*
Y456940D01*
X-2616Y457025D01*
X-1829Y457551D01*
X-1303Y458337D01*
X-1218Y458765D01*
D02*
G37*
G36*
X-4043D02*
X-5868D01*
X-5783Y458337D01*
X-5258Y457551D01*
X-4471Y457025D01*
X-4043Y456940D01*
Y458765D01*
D02*
G37*
G36*
X-13981D02*
X-15806D01*
Y456940D01*
X-15378Y457025D01*
X-14591Y457551D01*
X-14066Y458337D01*
X-13981Y458765D01*
D02*
G37*
G36*
X-16806D02*
X-18631D01*
X-18546Y458337D01*
X-18020Y457551D01*
X-17234Y457025D01*
X-16806Y456940D01*
Y458765D01*
D02*
G37*
G36*
X-26743D02*
X-28568D01*
Y456940D01*
X-28140Y457025D01*
X-27354Y457551D01*
X-26828Y458337D01*
X-26743Y458765D01*
D02*
G37*
G36*
X-29568D02*
X-31393D01*
X-31308Y458337D01*
X-30783Y457551D01*
X-29996Y457025D01*
X-29568Y456940D01*
Y458765D01*
D02*
G37*
G36*
X-39506D02*
X-41331D01*
Y456940D01*
X-40903Y457025D01*
X-40116Y457551D01*
X-39591Y458337D01*
X-39506Y458765D01*
D02*
G37*
G36*
X-42331D02*
X-44156D01*
X-44071Y458337D01*
X-43545Y457551D01*
X-42759Y457025D01*
X-42331Y456940D01*
Y458765D01*
D02*
G37*
G36*
X110393Y468973D02*
X108499Y468787D01*
X106678Y468234D01*
X104999Y467337D01*
X103528Y466130D01*
X102321Y464659D01*
X101424Y462980D01*
X100871Y461159D01*
X100685Y459265D01*
X100871Y457371D01*
X101424Y455550D01*
X102321Y453871D01*
X103528Y452400D01*
X104999Y451193D01*
X106678Y450296D01*
X108499Y449743D01*
X110393Y449557D01*
X112287Y449743D01*
X114108Y450296D01*
X115787Y451193D01*
X117258Y452400D01*
X118465Y453871D01*
X119362Y455550D01*
X119915Y457371D01*
X120101Y459265D01*
X119915Y461159D01*
X119362Y462980D01*
X118465Y464659D01*
X117258Y466130D01*
X115787Y467337D01*
X114108Y468234D01*
X112287Y468787D01*
X110393Y468973D01*
D02*
G37*
G36*
X-110393D02*
X-112287Y468787D01*
X-114108Y468234D01*
X-115787Y467337D01*
X-117258Y466130D01*
X-118465Y464659D01*
X-119362Y462980D01*
X-119915Y461159D01*
X-120101Y459265D01*
X-119915Y457371D01*
X-119362Y455550D01*
X-118465Y453871D01*
X-117258Y452400D01*
X-115787Y451193D01*
X-114108Y450296D01*
X-112287Y449743D01*
X-110393Y449557D01*
X-108499Y449743D01*
X-106678Y450296D01*
X-104999Y451193D01*
X-103528Y452400D01*
X-102321Y453871D01*
X-101424Y455550D01*
X-100872Y457371D01*
X-100685Y459265D01*
X-100872Y461159D01*
X-101424Y462980D01*
X-102321Y464659D01*
X-103528Y466130D01*
X-104999Y467337D01*
X-106678Y468234D01*
X-108499Y468787D01*
X-110393Y468973D01*
D02*
G37*
G36*
X45000Y405959D02*
X43865Y405809D01*
X42808Y405371D01*
X41900Y404675D01*
X41203Y403767D01*
X40765Y402709D01*
X40616Y401575D01*
X40765Y400440D01*
X41203Y399383D01*
X41900Y398475D01*
X42808Y397778D01*
X43865Y397340D01*
X45000Y397191D01*
X46135Y397340D01*
X47192Y397778D01*
X48100Y398475D01*
X48797Y399383D01*
X49235Y400440D01*
X49384Y401575D01*
X49235Y402709D01*
X48797Y403767D01*
X48100Y404675D01*
X47192Y405371D01*
X46135Y405809D01*
X45000Y405959D01*
D02*
G37*
G36*
X35000D02*
X33865Y405809D01*
X32808Y405371D01*
X31900Y404675D01*
X31203Y403767D01*
X30765Y402709D01*
X30616Y401575D01*
X30765Y400440D01*
X31203Y399383D01*
X31900Y398475D01*
X32808Y397778D01*
X33865Y397340D01*
X35000Y397191D01*
X36135Y397340D01*
X37192Y397778D01*
X38100Y398475D01*
X38797Y399383D01*
X39235Y400440D01*
X39384Y401575D01*
X39235Y402709D01*
X38797Y403767D01*
X38100Y404675D01*
X37192Y405371D01*
X36135Y405809D01*
X35000Y405959D01*
D02*
G37*
G36*
X25000D02*
X23865Y405809D01*
X22808Y405371D01*
X21900Y404675D01*
X21203Y403767D01*
X20765Y402709D01*
X20616Y401575D01*
X20765Y400440D01*
X21203Y399383D01*
X21900Y398475D01*
X22808Y397778D01*
X23865Y397340D01*
X25000Y397191D01*
X26135Y397340D01*
X27192Y397778D01*
X28100Y398475D01*
X28797Y399383D01*
X29235Y400440D01*
X29384Y401575D01*
X29235Y402709D01*
X28797Y403767D01*
X28100Y404675D01*
X27192Y405371D01*
X26135Y405809D01*
X25000Y405959D01*
D02*
G37*
G36*
X15000D02*
X13865Y405809D01*
X12808Y405371D01*
X11900Y404675D01*
X11203Y403767D01*
X10765Y402709D01*
X10616Y401575D01*
X10765Y400440D01*
X11203Y399383D01*
X11900Y398475D01*
X12808Y397778D01*
X13865Y397340D01*
X15000Y397191D01*
X16135Y397340D01*
X17192Y397778D01*
X18100Y398475D01*
X18797Y399383D01*
X19235Y400440D01*
X19384Y401575D01*
X19235Y402709D01*
X18797Y403767D01*
X18100Y404675D01*
X17192Y405371D01*
X16135Y405809D01*
X15000Y405959D01*
D02*
G37*
G36*
X5000D02*
X3865Y405809D01*
X2808Y405371D01*
X1900Y404675D01*
X1203Y403767D01*
X765Y402709D01*
X616Y401575D01*
X765Y400440D01*
X1203Y399383D01*
X1900Y398475D01*
X2808Y397778D01*
X3865Y397340D01*
X5000Y397191D01*
X6135Y397340D01*
X7192Y397778D01*
X8100Y398475D01*
X8797Y399383D01*
X9235Y400440D01*
X9384Y401575D01*
X9235Y402709D01*
X8797Y403767D01*
X8100Y404675D01*
X7192Y405371D01*
X6135Y405809D01*
X5000Y405959D01*
D02*
G37*
G36*
X-5000D02*
X-6135Y405809D01*
X-7192Y405371D01*
X-8100Y404675D01*
X-8797Y403767D01*
X-9235Y402709D01*
X-9384Y401575D01*
X-9235Y400440D01*
X-8797Y399383D01*
X-8100Y398475D01*
X-7192Y397778D01*
X-6135Y397340D01*
X-5000Y397191D01*
X-3865Y397340D01*
X-2808Y397778D01*
X-1900Y398475D01*
X-1203Y399383D01*
X-765Y400440D01*
X-616Y401575D01*
X-765Y402709D01*
X-1203Y403767D01*
X-1900Y404675D01*
X-2808Y405371D01*
X-3865Y405809D01*
X-5000Y405959D01*
D02*
G37*
G36*
X-15000D02*
X-16135Y405809D01*
X-17192Y405371D01*
X-18100Y404675D01*
X-18797Y403767D01*
X-19235Y402709D01*
X-19384Y401575D01*
X-19235Y400440D01*
X-18797Y399383D01*
X-18100Y398475D01*
X-17192Y397778D01*
X-16135Y397340D01*
X-15000Y397191D01*
X-13865Y397340D01*
X-12808Y397778D01*
X-11900Y398475D01*
X-11203Y399383D01*
X-10765Y400440D01*
X-10616Y401575D01*
X-10765Y402709D01*
X-11203Y403767D01*
X-11900Y404675D01*
X-12808Y405371D01*
X-13865Y405809D01*
X-15000Y405959D01*
D02*
G37*
G36*
X-25000D02*
X-26135Y405809D01*
X-27192Y405371D01*
X-28100Y404675D01*
X-28797Y403767D01*
X-29235Y402709D01*
X-29384Y401575D01*
X-29235Y400440D01*
X-28797Y399383D01*
X-28100Y398475D01*
X-27192Y397778D01*
X-26135Y397340D01*
X-25000Y397191D01*
X-23865Y397340D01*
X-22808Y397778D01*
X-21900Y398475D01*
X-21203Y399383D01*
X-20765Y400440D01*
X-20616Y401575D01*
X-20765Y402709D01*
X-21203Y403767D01*
X-21900Y404675D01*
X-22808Y405371D01*
X-23865Y405809D01*
X-25000Y405959D01*
D02*
G37*
G36*
X-35000D02*
X-36135Y405809D01*
X-37192Y405371D01*
X-38100Y404675D01*
X-38797Y403767D01*
X-39235Y402709D01*
X-39384Y401575D01*
X-39235Y400440D01*
X-38797Y399383D01*
X-38100Y398475D01*
X-37192Y397778D01*
X-36135Y397340D01*
X-35000Y397191D01*
X-33865Y397340D01*
X-32808Y397778D01*
X-31900Y398475D01*
X-31203Y399383D01*
X-30765Y400440D01*
X-30616Y401575D01*
X-30765Y402709D01*
X-31203Y403767D01*
X-31900Y404675D01*
X-32808Y405371D01*
X-33865Y405809D01*
X-35000Y405959D01*
D02*
G37*
G36*
X-45000D02*
X-46135Y405809D01*
X-47192Y405371D01*
X-48100Y404675D01*
X-48797Y403767D01*
X-49235Y402709D01*
X-49384Y401575D01*
X-49235Y400440D01*
X-48797Y399383D01*
X-48100Y398475D01*
X-47192Y397778D01*
X-46135Y397340D01*
X-45000Y397191D01*
X-43865Y397340D01*
X-42808Y397778D01*
X-41900Y398475D01*
X-41203Y399383D01*
X-40765Y400440D01*
X-40616Y401575D01*
X-40765Y402709D01*
X-41203Y403767D01*
X-41900Y404675D01*
X-42808Y405371D01*
X-43865Y405809D01*
X-45000Y405959D01*
D02*
G37*
G36*
X-55118D02*
X-56253Y405809D01*
X-57310Y405371D01*
X-58218Y404675D01*
X-58915Y403767D01*
X-59353Y402709D01*
X-59502Y401575D01*
X-59353Y400440D01*
X-58915Y399383D01*
X-58218Y398475D01*
X-57310Y397778D01*
X-56253Y397340D01*
X-55118Y397191D01*
X-53983Y397340D01*
X-52926Y397778D01*
X-52018Y398475D01*
X-51322Y399383D01*
X-50884Y400440D01*
X-50734Y401575D01*
X-50884Y402709D01*
X-51322Y403767D01*
X-52018Y404675D01*
X-52926Y405371D01*
X-53983Y405809D01*
X-55118Y405959D01*
D02*
G37*
G36*
X-65118D02*
X-66253Y405809D01*
X-67310Y405371D01*
X-68218Y404675D01*
X-68915Y403767D01*
X-69353Y402709D01*
X-69502Y401575D01*
X-69353Y400440D01*
X-68915Y399383D01*
X-68218Y398475D01*
X-67310Y397778D01*
X-66253Y397340D01*
X-65118Y397191D01*
X-63984Y397340D01*
X-62926Y397778D01*
X-62018Y398475D01*
X-61322Y399383D01*
X-60883Y400440D01*
X-60734Y401575D01*
X-60883Y402709D01*
X-61322Y403767D01*
X-62018Y404675D01*
X-62926Y405371D01*
X-63984Y405809D01*
X-65118Y405959D01*
D02*
G37*
G36*
X-75118D02*
X-76253Y405809D01*
X-77310Y405371D01*
X-78218Y404675D01*
X-78915Y403767D01*
X-79353Y402709D01*
X-79502Y401575D01*
X-79353Y400440D01*
X-78915Y399383D01*
X-78218Y398475D01*
X-77310Y397778D01*
X-76253Y397340D01*
X-75118Y397191D01*
X-73984Y397340D01*
X-72926Y397778D01*
X-72018Y398475D01*
X-71321Y399383D01*
X-70884Y400440D01*
X-70734Y401575D01*
X-70884Y402709D01*
X-71321Y403767D01*
X-72018Y404675D01*
X-72926Y405371D01*
X-73984Y405809D01*
X-75118Y405959D01*
D02*
G37*
G36*
X-85118D02*
X-86253Y405809D01*
X-87310Y405371D01*
X-88218Y404675D01*
X-88915Y403767D01*
X-89353Y402709D01*
X-89502Y401575D01*
X-89353Y400440D01*
X-88915Y399383D01*
X-88218Y398475D01*
X-87310Y397778D01*
X-86253Y397340D01*
X-85118Y397191D01*
X-83983Y397340D01*
X-82926Y397778D01*
X-82018Y398475D01*
X-81322Y399383D01*
X-80884Y400440D01*
X-80734Y401575D01*
X-80884Y402709D01*
X-81322Y403767D01*
X-82018Y404675D01*
X-82926Y405371D01*
X-83983Y405809D01*
X-85118Y405959D01*
D02*
G37*
G36*
X-95118D02*
X-96253Y405809D01*
X-97310Y405371D01*
X-98218Y404675D01*
X-98915Y403767D01*
X-99353Y402709D01*
X-99502Y401575D01*
X-99353Y400440D01*
X-98915Y399383D01*
X-98218Y398475D01*
X-97310Y397778D01*
X-96253Y397340D01*
X-95118Y397191D01*
X-93984Y397340D01*
X-92926Y397778D01*
X-92018Y398475D01*
X-91321Y399383D01*
X-90883Y400440D01*
X-90734Y401575D01*
X-90883Y402709D01*
X-91321Y403767D01*
X-92018Y404675D01*
X-92926Y405371D01*
X-93984Y405809D01*
X-95118Y405959D01*
D02*
G37*
G36*
X-105118D02*
X-106253Y405809D01*
X-107310Y405371D01*
X-108218Y404675D01*
X-108915Y403767D01*
X-109353Y402709D01*
X-109502Y401575D01*
X-109353Y400440D01*
X-108915Y399383D01*
X-108218Y398475D01*
X-107310Y397778D01*
X-106253Y397340D01*
X-105118Y397191D01*
X-103983Y397340D01*
X-102926Y397778D01*
X-102018Y398475D01*
X-101321Y399383D01*
X-100883Y400440D01*
X-100734Y401575D01*
X-100883Y402709D01*
X-101321Y403767D01*
X-102018Y404675D01*
X-102926Y405371D01*
X-103983Y405809D01*
X-105118Y405959D01*
D02*
G37*
G36*
X-115118D02*
X-116253Y405809D01*
X-117310Y405371D01*
X-118218Y404675D01*
X-118915Y403767D01*
X-119353Y402709D01*
X-119502Y401575D01*
X-119353Y400440D01*
X-118915Y399383D01*
X-118218Y398475D01*
X-117310Y397778D01*
X-116253Y397340D01*
X-115118Y397191D01*
X-113984Y397340D01*
X-112926Y397778D01*
X-112018Y398475D01*
X-111321Y399383D01*
X-110883Y400440D01*
X-110734Y401575D01*
X-110883Y402709D01*
X-111321Y403767D01*
X-112018Y404675D01*
X-112926Y405371D01*
X-113984Y405809D01*
X-115118Y405959D01*
D02*
G37*
G36*
X-125118D02*
X-126253Y405809D01*
X-127310Y405371D01*
X-128218Y404675D01*
X-128915Y403767D01*
X-129353Y402709D01*
X-129502Y401575D01*
X-129353Y400440D01*
X-128915Y399383D01*
X-128218Y398475D01*
X-127310Y397778D01*
X-126253Y397340D01*
X-125118Y397191D01*
X-123984Y397340D01*
X-122926Y397778D01*
X-122018Y398475D01*
X-121321Y399383D01*
X-120884Y400440D01*
X-120734Y401575D01*
X-120884Y402709D01*
X-121321Y403767D01*
X-122018Y404675D01*
X-122926Y405371D01*
X-123984Y405809D01*
X-125118Y405959D01*
D02*
G37*
G36*
X-135118D02*
X-136253Y405809D01*
X-137310Y405371D01*
X-138218Y404675D01*
X-138915Y403767D01*
X-139353Y402709D01*
X-139502Y401575D01*
X-139353Y400440D01*
X-138915Y399383D01*
X-138218Y398475D01*
X-137310Y397778D01*
X-136253Y397340D01*
X-135118Y397191D01*
X-133984Y397340D01*
X-132926Y397778D01*
X-132018Y398475D01*
X-131322Y399383D01*
X-130884Y400440D01*
X-130734Y401575D01*
X-130884Y402709D01*
X-131322Y403767D01*
X-132018Y404675D01*
X-132926Y405371D01*
X-133984Y405809D01*
X-135118Y405959D01*
D02*
G37*
G36*
X-145118D02*
X-146253Y405809D01*
X-147310Y405371D01*
X-148218Y404675D01*
X-148915Y403767D01*
X-149353Y402709D01*
X-149502Y401575D01*
X-149353Y400440D01*
X-148915Y399383D01*
X-148218Y398475D01*
X-147310Y397778D01*
X-146253Y397340D01*
X-145118Y397191D01*
X-143983Y397340D01*
X-142926Y397778D01*
X-142018Y398475D01*
X-141322Y399383D01*
X-140884Y400440D01*
X-140734Y401575D01*
X-140884Y402709D01*
X-141322Y403767D01*
X-142018Y404675D01*
X-142926Y405371D01*
X-143983Y405809D01*
X-145118Y405959D01*
D02*
G37*
G36*
X145118Y405959D02*
X143983Y405809D01*
X142926Y405371D01*
X142018Y404675D01*
X141322Y403767D01*
X140884Y402709D01*
X140734Y401575D01*
X140884Y400440D01*
X141322Y399383D01*
X142018Y398475D01*
X142926Y397778D01*
X143983Y397340D01*
X145118Y397191D01*
X146253Y397340D01*
X147310Y397778D01*
X148218Y398475D01*
X148915Y399383D01*
X149353Y400440D01*
X149502Y401575D01*
X149353Y402709D01*
X148915Y403767D01*
X148218Y404675D01*
X147310Y405371D01*
X146253Y405809D01*
X145118Y405959D01*
D02*
G37*
G36*
X135118D02*
X133984Y405809D01*
X132926Y405371D01*
X132018Y404675D01*
X131322Y403767D01*
X130884Y402709D01*
X130734Y401575D01*
X130884Y400440D01*
X131322Y399383D01*
X132018Y398475D01*
X132926Y397778D01*
X133984Y397340D01*
X135118Y397191D01*
X136253Y397340D01*
X137310Y397778D01*
X138218Y398475D01*
X138915Y399383D01*
X139353Y400440D01*
X139502Y401575D01*
X139353Y402709D01*
X138915Y403767D01*
X138218Y404675D01*
X137310Y405371D01*
X136253Y405809D01*
X135118Y405959D01*
D02*
G37*
G36*
X125118D02*
X123984Y405809D01*
X122926Y405371D01*
X122018Y404675D01*
X121321Y403767D01*
X120884Y402709D01*
X120734Y401575D01*
X120884Y400440D01*
X121321Y399383D01*
X122018Y398475D01*
X122926Y397778D01*
X123984Y397340D01*
X125118Y397191D01*
X126253Y397340D01*
X127310Y397778D01*
X128218Y398475D01*
X128915Y399383D01*
X129353Y400440D01*
X129502Y401575D01*
X129353Y402709D01*
X128915Y403767D01*
X128218Y404675D01*
X127310Y405371D01*
X126253Y405809D01*
X125118Y405959D01*
D02*
G37*
G36*
X115118D02*
X113984Y405809D01*
X112926Y405371D01*
X112018Y404675D01*
X111321Y403767D01*
X110883Y402709D01*
X110734Y401575D01*
X110883Y400440D01*
X111321Y399383D01*
X112018Y398475D01*
X112926Y397778D01*
X113984Y397340D01*
X115118Y397191D01*
X116253Y397340D01*
X117310Y397778D01*
X118218Y398475D01*
X118915Y399383D01*
X119353Y400440D01*
X119502Y401575D01*
X119353Y402709D01*
X118915Y403767D01*
X118218Y404675D01*
X117310Y405371D01*
X116253Y405809D01*
X115118Y405959D01*
D02*
G37*
G36*
X105118D02*
X103983Y405809D01*
X102926Y405371D01*
X102018Y404675D01*
X101321Y403767D01*
X100883Y402709D01*
X100734Y401575D01*
X100883Y400440D01*
X101321Y399383D01*
X102018Y398475D01*
X102926Y397778D01*
X103983Y397340D01*
X105118Y397191D01*
X106253Y397340D01*
X107310Y397778D01*
X108218Y398475D01*
X108915Y399383D01*
X109353Y400440D01*
X109502Y401575D01*
X109353Y402709D01*
X108915Y403767D01*
X108218Y404675D01*
X107310Y405371D01*
X106253Y405809D01*
X105118Y405959D01*
D02*
G37*
G36*
X95118D02*
X93984Y405809D01*
X92926Y405371D01*
X92018Y404675D01*
X91321Y403767D01*
X90883Y402709D01*
X90734Y401575D01*
X90883Y400440D01*
X91321Y399383D01*
X92018Y398475D01*
X92926Y397778D01*
X93984Y397340D01*
X95118Y397191D01*
X96253Y397340D01*
X97310Y397778D01*
X98218Y398475D01*
X98915Y399383D01*
X99353Y400440D01*
X99502Y401575D01*
X99353Y402709D01*
X98915Y403767D01*
X98218Y404675D01*
X97310Y405371D01*
X96253Y405809D01*
X95118Y405959D01*
D02*
G37*
G36*
X85118D02*
X83983Y405809D01*
X82926Y405371D01*
X82018Y404675D01*
X81322Y403767D01*
X80884Y402709D01*
X80734Y401575D01*
X80884Y400440D01*
X81322Y399383D01*
X82018Y398475D01*
X82926Y397778D01*
X83983Y397340D01*
X85118Y397191D01*
X86253Y397340D01*
X87310Y397778D01*
X88218Y398475D01*
X88915Y399383D01*
X89353Y400440D01*
X89502Y401575D01*
X89353Y402709D01*
X88915Y403767D01*
X88218Y404675D01*
X87310Y405371D01*
X86253Y405809D01*
X85118Y405959D01*
D02*
G37*
G36*
X75118D02*
X73984Y405809D01*
X72926Y405371D01*
X72018Y404675D01*
X71321Y403767D01*
X70884Y402709D01*
X70734Y401575D01*
X70884Y400440D01*
X71321Y399383D01*
X72018Y398475D01*
X72926Y397778D01*
X73984Y397340D01*
X75118Y397191D01*
X76253Y397340D01*
X77310Y397778D01*
X78218Y398475D01*
X78915Y399383D01*
X79353Y400440D01*
X79502Y401575D01*
X79353Y402709D01*
X78915Y403767D01*
X78218Y404675D01*
X77310Y405371D01*
X76253Y405809D01*
X75118Y405959D01*
D02*
G37*
G36*
X65118D02*
X63984Y405809D01*
X62926Y405371D01*
X62018Y404675D01*
X61322Y403767D01*
X60883Y402709D01*
X60734Y401575D01*
X60883Y400440D01*
X61322Y399383D01*
X62018Y398475D01*
X62926Y397778D01*
X63984Y397340D01*
X65118Y397191D01*
X66253Y397340D01*
X67310Y397778D01*
X68218Y398475D01*
X68915Y399383D01*
X69353Y400440D01*
X69502Y401575D01*
X69353Y402709D01*
X68915Y403767D01*
X68218Y404675D01*
X67310Y405371D01*
X66253Y405809D01*
X65118Y405959D01*
D02*
G37*
G36*
X55118D02*
X53983Y405809D01*
X52926Y405371D01*
X52018Y404675D01*
X51322Y403767D01*
X50884Y402709D01*
X50734Y401575D01*
X50884Y400440D01*
X51322Y399383D01*
X52018Y398475D01*
X52926Y397778D01*
X53983Y397340D01*
X55118Y397191D01*
X56253Y397340D01*
X57310Y397778D01*
X58218Y398475D01*
X58915Y399383D01*
X59353Y400440D01*
X59502Y401575D01*
X59353Y402709D01*
X58915Y403767D01*
X58218Y404675D01*
X57310Y405371D01*
X56253Y405809D01*
X55118Y405959D01*
D02*
G37*
G36*
X45000Y376431D02*
X43865Y376282D01*
X42808Y375844D01*
X41900Y375147D01*
X41203Y374239D01*
X40765Y373182D01*
X40616Y372047D01*
X40765Y370913D01*
X41203Y369855D01*
X41900Y368947D01*
X42808Y368251D01*
X43471Y367976D01*
Y358212D01*
X31276Y346018D01*
X19075D01*
X19025Y346092D01*
X18271Y346596D01*
X17779Y346694D01*
Y347204D01*
X18271Y347302D01*
X19025Y347805D01*
X19128Y347959D01*
X27165D01*
X27751Y348075D01*
X28247Y348407D01*
X36081Y356241D01*
X36413Y356738D01*
X36529Y357323D01*
Y367976D01*
X37192Y368251D01*
X38100Y368947D01*
X38797Y369855D01*
X39235Y370913D01*
X39384Y372047D01*
X39235Y373182D01*
X38797Y374239D01*
X38100Y375147D01*
X37192Y375844D01*
X36135Y376282D01*
X35000Y376431D01*
X33865Y376282D01*
X32808Y375844D01*
X31900Y375147D01*
X31203Y374239D01*
X30765Y373182D01*
X30616Y372047D01*
X30765Y370913D01*
X31203Y369855D01*
X31900Y368947D01*
X32808Y368251D01*
X33471Y367976D01*
Y357956D01*
X26532Y351018D01*
X19075D01*
X19025Y351092D01*
X18271Y351596D01*
X17779Y351694D01*
Y352204D01*
X18271Y352302D01*
X19025Y352805D01*
X19128Y352959D01*
X22028D01*
X22613Y353075D01*
X23109Y353407D01*
X26081Y356379D01*
X26413Y356875D01*
X26529Y357461D01*
Y367976D01*
X27192Y368251D01*
X28100Y368947D01*
X28797Y369855D01*
X29235Y370913D01*
X29384Y372047D01*
X29235Y373182D01*
X28797Y374239D01*
X28100Y375147D01*
X27192Y375844D01*
X26135Y376282D01*
X25000Y376431D01*
X23865Y376282D01*
X22808Y375844D01*
X21900Y375147D01*
X21203Y374239D01*
X20765Y373182D01*
X20616Y372047D01*
X20765Y370913D01*
X21203Y369855D01*
X21900Y368947D01*
X22808Y368251D01*
X23471Y367976D01*
Y358094D01*
X21394Y356018D01*
X19075D01*
X19025Y356092D01*
X18271Y356596D01*
X17382Y356773D01*
X10279D01*
X9995Y356944D01*
X9824Y357228D01*
Y364331D01*
X9762Y364646D01*
X13203Y368087D01*
X13865Y367813D01*
X15000Y367663D01*
X16135Y367813D01*
X17192Y368251D01*
X18100Y368947D01*
X18797Y369855D01*
X19235Y370913D01*
X19384Y372047D01*
X19235Y373182D01*
X18797Y374239D01*
X18100Y375147D01*
X17192Y375844D01*
X16135Y376282D01*
X15000Y376431D01*
X13865Y376282D01*
X12808Y375844D01*
X11900Y375147D01*
X11203Y374239D01*
X10765Y373182D01*
X10616Y372047D01*
X10765Y370913D01*
X11040Y370250D01*
X7431Y366641D01*
X6611Y366478D01*
X5857Y365974D01*
X5353Y365220D01*
X5255Y364728D01*
X4745D01*
X4647Y365220D01*
X4143Y365974D01*
X4029Y366050D01*
Y367412D01*
X4405Y367742D01*
X5000Y367663D01*
X6135Y367813D01*
X7192Y368251D01*
X8100Y368947D01*
X8797Y369855D01*
X9235Y370913D01*
X9384Y372047D01*
X9235Y373182D01*
X8797Y374239D01*
X8100Y375147D01*
X7192Y375844D01*
X6135Y376282D01*
X5000Y376431D01*
X3865Y376282D01*
X2808Y375844D01*
X1900Y375147D01*
X1203Y374239D01*
X765Y373182D01*
X616Y372047D01*
X765Y370913D01*
X1088Y370134D01*
X1087Y370132D01*
X971Y369547D01*
Y366050D01*
X857Y365974D01*
X353Y365220D01*
X255Y364728D01*
X-255D01*
X-353Y365220D01*
X-857Y365974D01*
X-971Y366050D01*
Y369547D01*
X-1087Y370132D01*
X-1088Y370134D01*
X-765Y370913D01*
X-616Y372047D01*
X-765Y373182D01*
X-1203Y374239D01*
X-1900Y375147D01*
X-2808Y375844D01*
X-3865Y376282D01*
X-5000Y376431D01*
X-6135Y376282D01*
X-7192Y375844D01*
X-8100Y375147D01*
X-8797Y374239D01*
X-9235Y373182D01*
X-9384Y372047D01*
X-9235Y370913D01*
X-8797Y369855D01*
X-8100Y368947D01*
X-7192Y368251D01*
X-6135Y367813D01*
X-5000Y367663D01*
X-4405Y367742D01*
X-4029Y367412D01*
Y366050D01*
X-4143Y365974D01*
X-4647Y365220D01*
X-4745Y364728D01*
X-5255D01*
X-5353Y365220D01*
X-5857Y365974D01*
X-6611Y366478D01*
X-7431Y366641D01*
X-11040Y370250D01*
X-10765Y370913D01*
X-10616Y372047D01*
X-10765Y373182D01*
X-11203Y374239D01*
X-11900Y375147D01*
X-12808Y375844D01*
X-13865Y376282D01*
X-15000Y376431D01*
X-16135Y376282D01*
X-17192Y375844D01*
X-18100Y375147D01*
X-18797Y374239D01*
X-19235Y373182D01*
X-19384Y372047D01*
X-19235Y370913D01*
X-18797Y369855D01*
X-18100Y368947D01*
X-17192Y368251D01*
X-16135Y367813D01*
X-15000Y367663D01*
X-13865Y367813D01*
X-13203Y368087D01*
X-12226Y367110D01*
X-12472Y366649D01*
X-12500Y366655D01*
X-13389Y366478D01*
X-14143Y365974D01*
X-14647Y365220D01*
X-14824Y364331D01*
Y362258D01*
X-21985D01*
X-23471Y363744D01*
Y367976D01*
X-22808Y368251D01*
X-21900Y368947D01*
X-21203Y369855D01*
X-20765Y370913D01*
X-20616Y372047D01*
X-20765Y373182D01*
X-21203Y374239D01*
X-21900Y375147D01*
X-22808Y375844D01*
X-23865Y376282D01*
X-25000Y376431D01*
X-26135Y376282D01*
X-27192Y375844D01*
X-28100Y375147D01*
X-28797Y374239D01*
X-29235Y373182D01*
X-29384Y372047D01*
X-29235Y370913D01*
X-28797Y369855D01*
X-28100Y368947D01*
X-27192Y368251D01*
X-26529Y367976D01*
Y363110D01*
X-26413Y362525D01*
X-26081Y362029D01*
X-23699Y359647D01*
X-23203Y359315D01*
X-22618Y359199D01*
X-14824D01*
Y357228D01*
X-14995Y356944D01*
X-15279Y356773D01*
X-22382D01*
X-23271Y356596D01*
X-24025Y356092D01*
X-24075Y356018D01*
X-31296D01*
X-33471Y358192D01*
Y367976D01*
X-32808Y368251D01*
X-31900Y368947D01*
X-31203Y369855D01*
X-30765Y370913D01*
X-30616Y372047D01*
X-30765Y373182D01*
X-31203Y374239D01*
X-31900Y375147D01*
X-32808Y375844D01*
X-33865Y376282D01*
X-35000Y376431D01*
X-36135Y376282D01*
X-37192Y375844D01*
X-38100Y375147D01*
X-38797Y374239D01*
X-39235Y373182D01*
X-39384Y372047D01*
X-39235Y370913D01*
X-38797Y369855D01*
X-38100Y368947D01*
X-37192Y368251D01*
X-36529Y367976D01*
Y357559D01*
X-36413Y356974D01*
X-36081Y356478D01*
X-33011Y353407D01*
X-32514Y353075D01*
X-31929Y352959D01*
X-24128D01*
X-24025Y352805D01*
X-23271Y352302D01*
X-22780Y352204D01*
Y351694D01*
X-23271Y351596D01*
X-24025Y351092D01*
X-24075Y351018D01*
X-36433D01*
X-43471Y358055D01*
Y367976D01*
X-42808Y368251D01*
X-41900Y368947D01*
X-41203Y369855D01*
X-40765Y370913D01*
X-40616Y372047D01*
X-40765Y373182D01*
X-41203Y374239D01*
X-41900Y375147D01*
X-42808Y375844D01*
X-43865Y376282D01*
X-45000Y376431D01*
X-46135Y376282D01*
X-47192Y375844D01*
X-48100Y375147D01*
X-48797Y374239D01*
X-49235Y373182D01*
X-49384Y372047D01*
X-49235Y370913D01*
X-48797Y369855D01*
X-48100Y368947D01*
X-47192Y368251D01*
X-46529Y367976D01*
Y357421D01*
X-46413Y356836D01*
X-46081Y356340D01*
X-38148Y348407D01*
X-37652Y348075D01*
X-37067Y347959D01*
X-35068D01*
X-34659Y347739D01*
X-34659Y347739D01*
X-34659D01*
X-34632Y347459D01*
X-34665Y347452D01*
X-35336Y347319D01*
X-36123Y346793D01*
X-36648Y346007D01*
X-36833Y345079D01*
X-36648Y344151D01*
X-36123Y343364D01*
X-35336Y342839D01*
X-34408Y342654D01*
X-33480Y342839D01*
X-33212Y343018D01*
X-32771Y342783D01*
Y340930D01*
Y338689D01*
X-28916D01*
Y338190D01*
X-28416D01*
Y334630D01*
X-25180D01*
X-24947Y334541D01*
X-24898Y334503D01*
X-24890Y334359D01*
X-24886Y334149D01*
X-25204Y333796D01*
X-25297Y333735D01*
X-27235D01*
Y331562D01*
X-24963D01*
Y333281D01*
X-24963Y333286D01*
X-24963Y333286D01*
X-24963Y333375D01*
X-24664Y333427D01*
Y333427D01*
X-24664D01*
X-24270Y333172D01*
X-24025Y332805D01*
X-23271Y332301D01*
X-22382Y332125D01*
X-15279D01*
X-14995Y331954D01*
X-14824Y331669D01*
Y326490D01*
X-24963D01*
Y327633D01*
X-30507D01*
Y322287D01*
X-24963D01*
Y323431D01*
X-14482D01*
X-14143Y322923D01*
X-13389Y322420D01*
X-12500Y322243D01*
X-11611Y322420D01*
X-10857Y322923D01*
X-10353Y323677D01*
X-10255Y324169D01*
X-9745D01*
X-9647Y323677D01*
X-9143Y322923D01*
X-8389Y322420D01*
X-7500Y322243D01*
X-6611Y322420D01*
X-5857Y322923D01*
X-5353Y323677D01*
X-5255Y324169D01*
X-4745D01*
X-4647Y323677D01*
X-4143Y322923D01*
X-3389Y322420D01*
X-2500Y322243D01*
X-1611Y322420D01*
X-857Y322923D01*
X-353Y323677D01*
X-255Y324169D01*
X255D01*
X353Y323677D01*
X857Y322923D01*
X1611Y322420D01*
X2500Y322243D01*
X3389Y322420D01*
X4143Y322923D01*
X4647Y323677D01*
X4745Y324169D01*
X5255D01*
X5353Y323677D01*
X5857Y322923D01*
X6611Y322420D01*
X7500Y322243D01*
X8389Y322420D01*
X9143Y322923D01*
X9647Y323677D01*
X9824Y324567D01*
Y326679D01*
X15563D01*
X15687Y326494D01*
X16474Y325969D01*
X17402Y325784D01*
X18329Y325969D01*
X19116Y326494D01*
X19642Y327281D01*
X19826Y328209D01*
X19642Y329136D01*
X19116Y329923D01*
X18329Y330449D01*
X17402Y330633D01*
X16474Y330449D01*
X15687Y329923D01*
X15563Y329738D01*
X9824D01*
Y331669D01*
X9995Y331954D01*
X10279Y332125D01*
X17382D01*
X18271Y332301D01*
X19025Y332805D01*
X19102Y332919D01*
X20220D01*
Y328881D01*
X27928D01*
Y330143D01*
X28369Y330379D01*
X28638Y330200D01*
X29566Y330015D01*
X30493Y330200D01*
X31280Y330726D01*
X31806Y331512D01*
X31990Y332440D01*
X31806Y333368D01*
X31280Y334154D01*
X30493Y334680D01*
X29566Y334864D01*
X28638Y334680D01*
X28369Y334501D01*
X27928Y334736D01*
Y338239D01*
X24074D01*
X20220D01*
Y335978D01*
X19102D01*
X19025Y336092D01*
X18271Y336596D01*
X17779Y336694D01*
Y337204D01*
X18271Y337301D01*
X19025Y337805D01*
X19529Y338559D01*
X19607Y338949D01*
X13740D01*
X7874D01*
X7951Y338559D01*
X8455Y337805D01*
X9209Y337301D01*
X9701Y337204D01*
Y336694D01*
X9209Y336596D01*
X8455Y336092D01*
X7951Y335338D01*
X7809Y334623D01*
X7500Y334175D01*
X6611Y333998D01*
X5857Y333494D01*
X5353Y332740D01*
X5255Y332248D01*
X4745D01*
X4647Y332740D01*
X4143Y333494D01*
X4029Y333570D01*
Y339772D01*
X4214Y339896D01*
X4740Y340682D01*
X4924Y341610D01*
X4740Y342538D01*
X4214Y343325D01*
X3428Y343850D01*
X2500Y344035D01*
X1572Y343850D01*
X786Y343325D01*
X260Y342538D01*
X75Y341610D01*
X260Y340682D01*
X786Y339896D01*
X971Y339772D01*
Y333570D01*
X857Y333494D01*
X353Y332740D01*
X255Y332248D01*
X-255D01*
X-353Y332740D01*
X-768Y333361D01*
X-786Y333915D01*
X-260Y334702D01*
X-75Y335630D01*
X-260Y336558D01*
X-786Y337344D01*
X-1572Y337870D01*
X-2500Y338054D01*
X-3428Y337870D01*
X-4214Y337344D01*
X-4740Y336558D01*
X-4924Y335630D01*
X-4740Y334702D01*
X-4214Y333915D01*
X-4232Y333361D01*
X-4647Y332740D01*
X-4745Y332248D01*
X-5255D01*
X-5353Y332740D01*
X-5857Y333494D01*
X-6611Y333998D01*
X-7500Y334175D01*
X-8389Y333998D01*
X-9143Y333494D01*
X-9647Y332740D01*
X-9745Y332248D01*
X-10255D01*
X-10353Y332740D01*
X-10857Y333494D01*
X-11611Y333998D01*
X-12500Y334175D01*
X-12774Y334449D01*
X-12951Y335338D01*
X-13455Y336092D01*
X-14209Y336596D01*
X-14701Y336694D01*
Y337204D01*
X-14209Y337301D01*
X-13455Y337805D01*
X-12951Y338559D01*
X-12874Y338949D01*
X-18740D01*
Y339949D01*
X-12874D01*
X-12951Y340338D01*
X-13455Y341092D01*
X-14209Y341596D01*
X-14701Y341694D01*
Y342204D01*
X-14209Y342302D01*
X-13455Y342805D01*
X-12951Y343559D01*
X-12774Y344449D01*
X-12951Y345338D01*
X-13455Y346092D01*
X-14209Y346596D01*
X-14701Y346694D01*
Y347204D01*
X-14209Y347302D01*
X-13455Y347805D01*
X-12951Y348559D01*
X-12774Y349449D01*
X-12951Y350338D01*
X-13455Y351092D01*
X-14209Y351596D01*
X-14701Y351694D01*
Y352204D01*
X-14209Y352302D01*
X-13455Y352805D01*
X-12951Y353559D01*
X-12774Y354449D01*
X-12500Y354723D01*
X-11611Y354900D01*
X-10857Y355404D01*
X-10353Y356158D01*
X-10255Y356650D01*
X-9745D01*
X-9647Y356158D01*
X-9143Y355404D01*
X-8389Y354900D01*
X-7500Y354723D01*
X-6611Y354900D01*
X-5857Y355404D01*
X-5353Y356158D01*
X-5255Y356650D01*
X-4745D01*
X-4647Y356158D01*
X-4143Y355404D01*
X-3389Y354900D01*
X-2500Y354723D01*
X-1611Y354900D01*
X-857Y355404D01*
X-353Y356158D01*
X-255Y356650D01*
X255D01*
X353Y356158D01*
X857Y355404D01*
X1611Y354900D01*
X2500Y354723D01*
X3389Y354900D01*
X4143Y355404D01*
X4647Y356158D01*
X4745Y356650D01*
X5255D01*
X5353Y356158D01*
X5857Y355404D01*
X6611Y354900D01*
X7500Y354723D01*
X7774Y354449D01*
X7951Y353559D01*
X8455Y352805D01*
X9209Y352302D01*
X9701Y352204D01*
Y351694D01*
X9209Y351596D01*
X8455Y351092D01*
X7951Y350338D01*
X7774Y349449D01*
X7951Y348559D01*
X8455Y347805D01*
X9209Y347302D01*
X9701Y347204D01*
Y346694D01*
X9209Y346596D01*
X8455Y346092D01*
X7951Y345338D01*
X7774Y344449D01*
X7951Y343559D01*
X8455Y342805D01*
X9209Y342302D01*
X9701Y342204D01*
Y341694D01*
X9209Y341596D01*
X8455Y341092D01*
X7951Y340338D01*
X7874Y339949D01*
X13740D01*
X19607D01*
X19529Y340338D01*
X19025Y341092D01*
X18271Y341596D01*
X17779Y341694D01*
Y342204D01*
X18271Y342302D01*
X19025Y342805D01*
X19128Y342959D01*
X31909D01*
X32495Y343075D01*
X32991Y343407D01*
X46081Y356497D01*
X46413Y356994D01*
X46529Y357579D01*
Y367976D01*
X47192Y368251D01*
X48100Y368947D01*
X48797Y369855D01*
X49235Y370913D01*
X49384Y372047D01*
X49235Y373182D01*
X48797Y374239D01*
X48100Y375147D01*
X47192Y375844D01*
X46135Y376282D01*
X45000Y376431D01*
D02*
G37*
G36*
X-55118D02*
X-56253Y376282D01*
X-57310Y375844D01*
X-58218Y375147D01*
X-58915Y374239D01*
X-59353Y373182D01*
X-59502Y372047D01*
X-59353Y370913D01*
X-58915Y369855D01*
X-58218Y368947D01*
X-57310Y368251D01*
X-56647Y367976D01*
Y358212D01*
X-68842Y346018D01*
X-81017D01*
X-81093Y346132D01*
X-81847Y346636D01*
X-82339Y346733D01*
Y347243D01*
X-81847Y347341D01*
X-81093Y347845D01*
X-81017Y347959D01*
X-72953D01*
X-72368Y348075D01*
X-71871Y348407D01*
X-64037Y356241D01*
X-63705Y356738D01*
X-63589Y357323D01*
Y367976D01*
X-62926Y368251D01*
X-62018Y368947D01*
X-61322Y369855D01*
X-60883Y370913D01*
X-60734Y372047D01*
X-60883Y373182D01*
X-61322Y374239D01*
X-62018Y375147D01*
X-62926Y375844D01*
X-63984Y376282D01*
X-65118Y376431D01*
X-66253Y376282D01*
X-67310Y375844D01*
X-68218Y375147D01*
X-68915Y374239D01*
X-69353Y373182D01*
X-69502Y372047D01*
X-69353Y370913D01*
X-68915Y369855D01*
X-68218Y368947D01*
X-67310Y368251D01*
X-66647Y367976D01*
Y357956D01*
X-73586Y351018D01*
X-81017D01*
X-81093Y351132D01*
X-81847Y351636D01*
X-82339Y351733D01*
Y352243D01*
X-81847Y352341D01*
X-81093Y352845D01*
X-81017Y352959D01*
X-78091D01*
X-77505Y353075D01*
X-77009Y353407D01*
X-74037Y356379D01*
X-73705Y356875D01*
X-73589Y357461D01*
Y367976D01*
X-72926Y368251D01*
X-72018Y368947D01*
X-71321Y369855D01*
X-70884Y370913D01*
X-70734Y372047D01*
X-70884Y373182D01*
X-71321Y374239D01*
X-72018Y375147D01*
X-72926Y375844D01*
X-73984Y376282D01*
X-75118Y376431D01*
X-76253Y376282D01*
X-77310Y375844D01*
X-78218Y375147D01*
X-78915Y374239D01*
X-79353Y373182D01*
X-79502Y372047D01*
X-79353Y370913D01*
X-78915Y369855D01*
X-78218Y368947D01*
X-77310Y368251D01*
X-76648Y367976D01*
Y358094D01*
X-78724Y356018D01*
X-81017D01*
X-81093Y356132D01*
X-81847Y356635D01*
X-82736Y356812D01*
X-89839D01*
X-90123Y356983D01*
X-90294Y357268D01*
Y364370D01*
X-90350Y364652D01*
X-86915Y368087D01*
X-86253Y367813D01*
X-85118Y367663D01*
X-83983Y367813D01*
X-82926Y368251D01*
X-82018Y368947D01*
X-81322Y369855D01*
X-80884Y370913D01*
X-80734Y372047D01*
X-80884Y373182D01*
X-81322Y374239D01*
X-82018Y375147D01*
X-82926Y375844D01*
X-83983Y376282D01*
X-85118Y376431D01*
X-86253Y376282D01*
X-87310Y375844D01*
X-88218Y375147D01*
X-88915Y374239D01*
X-89353Y373182D01*
X-89502Y372047D01*
X-89353Y370913D01*
X-89078Y370250D01*
X-92638Y366690D01*
X-93507Y366517D01*
X-94262Y366014D01*
X-94765Y365260D01*
X-94863Y364768D01*
X-95373D01*
X-95471Y365260D01*
X-95975Y366014D01*
X-96089Y366090D01*
Y367412D01*
X-95713Y367742D01*
X-95118Y367663D01*
X-93984Y367813D01*
X-92926Y368251D01*
X-92018Y368947D01*
X-91321Y369855D01*
X-90883Y370913D01*
X-90734Y372047D01*
X-90883Y373182D01*
X-91321Y374239D01*
X-92018Y375147D01*
X-92926Y375844D01*
X-93984Y376282D01*
X-95118Y376431D01*
X-96253Y376282D01*
X-97310Y375844D01*
X-98218Y375147D01*
X-98915Y374239D01*
X-99353Y373182D01*
X-99502Y372047D01*
X-99353Y370913D01*
X-99030Y370134D01*
X-99031Y370132D01*
X-99147Y369547D01*
Y366090D01*
X-99262Y366014D01*
X-99765Y365260D01*
X-99863Y364768D01*
X-100373D01*
X-100471Y365260D01*
X-100975Y366014D01*
X-101089Y366090D01*
Y369547D01*
X-101205Y370132D01*
X-101206Y370134D01*
X-100883Y370913D01*
X-100734Y372047D01*
X-100883Y373182D01*
X-101321Y374239D01*
X-102018Y375147D01*
X-102926Y375844D01*
X-103983Y376282D01*
X-105118Y376431D01*
X-106253Y376282D01*
X-107310Y375844D01*
X-108218Y375147D01*
X-108915Y374239D01*
X-109353Y373182D01*
X-109502Y372047D01*
X-109353Y370913D01*
X-108915Y369855D01*
X-108218Y368947D01*
X-107310Y368251D01*
X-106253Y367813D01*
X-105118Y367663D01*
X-104523Y367742D01*
X-104148Y367412D01*
Y366090D01*
X-104262Y366014D01*
X-104765Y365260D01*
X-104863Y364768D01*
X-105373D01*
X-105471Y365260D01*
X-105975Y366014D01*
X-106729Y366517D01*
X-107598Y366690D01*
X-111158Y370250D01*
X-110883Y370913D01*
X-110734Y372047D01*
X-110883Y373182D01*
X-111321Y374239D01*
X-112018Y375147D01*
X-112926Y375844D01*
X-113984Y376282D01*
X-115118Y376431D01*
X-116253Y376282D01*
X-117310Y375844D01*
X-118218Y375147D01*
X-118915Y374239D01*
X-119353Y373182D01*
X-119502Y372047D01*
X-119353Y370913D01*
X-118915Y369855D01*
X-118218Y368947D01*
X-117310Y368251D01*
X-116253Y367813D01*
X-115118Y367663D01*
X-113984Y367813D01*
X-113321Y368087D01*
X-112366Y367132D01*
X-112491Y366898D01*
X-112632Y366691D01*
X-113507Y366517D01*
X-114262Y366014D01*
X-114765Y365260D01*
X-114942Y364370D01*
Y362258D01*
X-122103D01*
X-123589Y363744D01*
Y367976D01*
X-122926Y368251D01*
X-122018Y368947D01*
X-121321Y369855D01*
X-120884Y370913D01*
X-120734Y372047D01*
X-120884Y373182D01*
X-121321Y374239D01*
X-122018Y375147D01*
X-122926Y375844D01*
X-123984Y376282D01*
X-125118Y376431D01*
X-126253Y376282D01*
X-127310Y375844D01*
X-128218Y375147D01*
X-128915Y374239D01*
X-129353Y373182D01*
X-129502Y372047D01*
X-129353Y370913D01*
X-128915Y369855D01*
X-128218Y368947D01*
X-127310Y368251D01*
X-126647Y367976D01*
Y363110D01*
X-126531Y362525D01*
X-126199Y362029D01*
X-123818Y359647D01*
X-123321Y359315D01*
X-122736Y359199D01*
X-114942D01*
Y357268D01*
X-115113Y356983D01*
X-115398Y356812D01*
X-122500D01*
X-123389Y356635D01*
X-124143Y356132D01*
X-124220Y356018D01*
X-131414D01*
X-133589Y358192D01*
Y367976D01*
X-132926Y368251D01*
X-132018Y368947D01*
X-131322Y369855D01*
X-130884Y370913D01*
X-130734Y372047D01*
X-130884Y373182D01*
X-131322Y374239D01*
X-132018Y375147D01*
X-132926Y375844D01*
X-133984Y376282D01*
X-135118Y376431D01*
X-136253Y376282D01*
X-137310Y375844D01*
X-138218Y375147D01*
X-138915Y374239D01*
X-139353Y373182D01*
X-139502Y372047D01*
X-139353Y370913D01*
X-138915Y369855D01*
X-138218Y368947D01*
X-137310Y368251D01*
X-136647Y367976D01*
Y357559D01*
X-136531Y356974D01*
X-136199Y356478D01*
X-133129Y353407D01*
X-132633Y353075D01*
X-132047Y352959D01*
X-124220D01*
X-124143Y352845D01*
X-123389Y352341D01*
X-122898Y352243D01*
Y351733D01*
X-123389Y351636D01*
X-124143Y351132D01*
X-124220Y351018D01*
X-136551D01*
X-143589Y358055D01*
Y367976D01*
X-142926Y368251D01*
X-142018Y368947D01*
X-141322Y369855D01*
X-140884Y370913D01*
X-140734Y372047D01*
X-140884Y373182D01*
X-141322Y374239D01*
X-142018Y375147D01*
X-142926Y375844D01*
X-143983Y376282D01*
X-145118Y376431D01*
X-146253Y376282D01*
X-147310Y375844D01*
X-148218Y375147D01*
X-148915Y374239D01*
X-149353Y373182D01*
X-149502Y372047D01*
X-149353Y370913D01*
X-148915Y369855D01*
X-148218Y368947D01*
X-147310Y368251D01*
X-146648Y367976D01*
Y357421D01*
X-146531Y356836D01*
X-146200Y356340D01*
X-138267Y348407D01*
X-137770Y348075D01*
X-137185Y347959D01*
X-135167D01*
X-134758Y347739D01*
X-134758Y347739D01*
X-134758D01*
X-134730Y347459D01*
X-134764Y347452D01*
X-135434Y347319D01*
X-136221Y346793D01*
X-136747Y346007D01*
X-136931Y345079D01*
X-136747Y344151D01*
X-136221Y343364D01*
X-135434Y342839D01*
X-134507Y342654D01*
X-133579Y342839D01*
X-133330Y343005D01*
X-132889Y342769D01*
Y340949D01*
Y338709D01*
X-129035D01*
Y338209D01*
X-128535D01*
Y334650D01*
X-125302D01*
X-125082Y334575D01*
X-125031Y334537D01*
X-125013Y334201D01*
X-125298Y333871D01*
X-125433Y333775D01*
X-127354D01*
Y331602D01*
X-125082D01*
Y333321D01*
X-125082Y333326D01*
X-125082Y333326D01*
X-125082Y333417D01*
X-124780Y333468D01*
Y333468D01*
X-124780D01*
X-124388Y333211D01*
X-124143Y332845D01*
X-123389Y332341D01*
X-122500Y332164D01*
X-115398D01*
X-115113Y331993D01*
X-114942Y331709D01*
Y326529D01*
X-125082D01*
Y327673D01*
X-130625D01*
Y322326D01*
X-125082D01*
Y323470D01*
X-114601D01*
X-114262Y322963D01*
X-113507Y322459D01*
X-112618Y322282D01*
X-111729Y322459D01*
X-110975Y322963D01*
X-110471Y323717D01*
X-110373Y324209D01*
X-109863D01*
X-109765Y323717D01*
X-109262Y322963D01*
X-108508Y322459D01*
X-107618Y322282D01*
X-106729Y322459D01*
X-105975Y322963D01*
X-105471Y323717D01*
X-105373Y324209D01*
X-104863D01*
X-104765Y323717D01*
X-104262Y322963D01*
X-103507Y322459D01*
X-102618Y322282D01*
X-101729Y322459D01*
X-100975Y322963D01*
X-100471Y323717D01*
X-100373Y324209D01*
X-99863D01*
X-99765Y323717D01*
X-99262Y322963D01*
X-99147Y322887D01*
Y321177D01*
X-100291D01*
Y315634D01*
X-99147D01*
Y313992D01*
X-100311D01*
Y306284D01*
X-99147D01*
Y304523D01*
X-99609Y304331D01*
X-99804Y304526D01*
X-100301Y304858D01*
X-100886Y304974D01*
X-102224D01*
X-102810Y304858D01*
X-103306Y304526D01*
X-104605Y303227D01*
X-104937Y302731D01*
X-105053Y302146D01*
Y301743D01*
X-105145Y301279D01*
Y300742D01*
X-107177D01*
X-107301Y300927D01*
X-108087Y301452D01*
X-109015Y301637D01*
X-109943Y301452D01*
X-110730Y300927D01*
X-111255Y300140D01*
X-111440Y299212D01*
X-111255Y298285D01*
X-110730Y297498D01*
X-109943Y296972D01*
X-109015Y296788D01*
X-108087Y296972D01*
X-107301Y297498D01*
X-107177Y297683D01*
X-105145D01*
Y297145D01*
X-105022Y296525D01*
X-104670Y295999D01*
X-104144Y295647D01*
X-103524Y295524D01*
X-103471Y295534D01*
X-103085Y295217D01*
Y293484D01*
X-102968Y292899D01*
X-102637Y292403D01*
X-96046Y285812D01*
X-96210Y285270D01*
X-96270Y285258D01*
X-96634Y285015D01*
X-96997Y285258D01*
X-97118Y285282D01*
Y281693D01*
X-97965D01*
Y283759D01*
X-98088Y284380D01*
X-98118Y284425D01*
Y285282D01*
X-98239Y285258D01*
X-98602Y285015D01*
X-98966Y285258D01*
X-99587Y285381D01*
X-100207Y285258D01*
X-100571Y285015D01*
X-100935Y285258D01*
X-101555Y285381D01*
X-102176Y285258D01*
X-102539Y285015D01*
X-102903Y285258D01*
X-103524Y285381D01*
X-104144Y285258D01*
X-104670Y284906D01*
X-105022Y284380D01*
X-105145Y283759D01*
Y279626D01*
X-105053Y279162D01*
Y237382D01*
X-104937Y236797D01*
X-104605Y236300D01*
X-79428Y211123D01*
X-78932Y210792D01*
X-78347Y210675D01*
X-77852Y210774D01*
X101277D01*
X101400Y210589D01*
X102187Y210063D01*
X103115Y209879D01*
X104042Y210063D01*
X104829Y210589D01*
X105354Y211375D01*
X105539Y212303D01*
X105354Y213231D01*
X104829Y214018D01*
X104602Y214169D01*
Y214669D01*
X104829Y214821D01*
X105354Y215608D01*
X105539Y216535D01*
X105354Y217463D01*
X104829Y218250D01*
X104042Y218775D01*
X103734Y218837D01*
X103783Y219337D01*
X112397D01*
X112520Y219152D01*
X113307Y218626D01*
X114235Y218442D01*
X115163Y218626D01*
X115949Y219152D01*
X116475Y219938D01*
X116659Y220866D01*
X116475Y221794D01*
X115949Y222581D01*
X115163Y223106D01*
X114235Y223291D01*
X113307Y223106D01*
X112520Y222581D01*
X112397Y222395D01*
X79424D01*
Y223784D01*
X79920Y224115D01*
X102507Y246702D01*
X141832D01*
X142068Y246261D01*
X141879Y245978D01*
X141695Y245051D01*
X141879Y244123D01*
X142124Y243756D01*
X141857Y243256D01*
X141348D01*
Y237909D01*
X146891D01*
Y243256D01*
X146381D01*
X146114Y243756D01*
X146359Y244123D01*
X146544Y245051D01*
X146359Y245978D01*
X146170Y246261D01*
X146406Y246702D01*
X147130D01*
Y245558D01*
X152673D01*
X152838Y245950D01*
X158578D01*
Y250510D01*
X152838D01*
X152673Y250905D01*
X147130D01*
Y249761D01*
X101873D01*
X101765Y249739D01*
X101378Y250057D01*
Y251085D01*
X102011Y251719D01*
X119291D01*
X119877Y251835D01*
X120373Y252167D01*
X129472Y261266D01*
X148409D01*
X148561Y260766D01*
X148187Y260516D01*
X147662Y259730D01*
X147477Y258802D01*
X147662Y257874D01*
X147907Y257507D01*
X147640Y257007D01*
X147130D01*
Y251661D01*
X152673D01*
Y257007D01*
X152164D01*
X151896Y257507D01*
X152142Y257874D01*
X152326Y258802D01*
X152142Y259730D01*
X151616Y260516D01*
X151243Y260766D01*
X151394Y261266D01*
X176443D01*
X184529Y253180D01*
X184292Y252509D01*
X184210Y251472D01*
X184399Y250448D01*
X184848Y249509D01*
X185523Y248717D01*
X186381Y248128D01*
X187362Y247780D01*
X188400Y247699D01*
X189423Y247888D01*
X190363Y248337D01*
X191154Y249012D01*
X191744Y249870D01*
X192091Y250851D01*
X192173Y251889D01*
X191983Y252912D01*
X191535Y253852D01*
X190859Y254643D01*
X190001Y255233D01*
X189020Y255580D01*
X187983Y255662D01*
X186959Y255472D01*
X186690Y255344D01*
X178611Y263423D01*
X178818Y263923D01*
X185646D01*
X186608Y262961D01*
X186371Y262291D01*
X186289Y261253D01*
X186479Y260230D01*
X186927Y259290D01*
X187603Y258499D01*
X188460Y257909D01*
X189441Y257562D01*
X190479Y257480D01*
X191502Y257670D01*
X192442Y258118D01*
X193233Y258794D01*
X193823Y259652D01*
X194170Y260633D01*
X194252Y261670D01*
X194062Y262694D01*
X193614Y263633D01*
X192938Y264424D01*
X192080Y265014D01*
X191099Y265361D01*
X190062Y265443D01*
X189038Y265253D01*
X188770Y265125D01*
X187361Y266534D01*
X186865Y266866D01*
X186279Y266982D01*
X127165D01*
X126883Y266926D01*
X126636Y267387D01*
X138745Y279495D01*
X190779D01*
X191085Y278853D01*
X191761Y278062D01*
X192619Y277472D01*
X193600Y277125D01*
X194637Y277043D01*
X195661Y277233D01*
X196600Y277681D01*
X197391Y278357D01*
X197981Y279215D01*
X198328Y280196D01*
X198410Y281233D01*
X198264Y282022D01*
X198727Y282265D01*
X200548Y280445D01*
X200310Y279774D01*
X200229Y278737D01*
X200418Y277714D01*
X200866Y276774D01*
X201542Y275983D01*
X202400Y275393D01*
X203381Y275046D01*
X204419Y274964D01*
X205442Y275154D01*
X206381Y275602D01*
X207173Y276278D01*
X207762Y277136D01*
X208110Y278117D01*
X208191Y279154D01*
X208002Y280178D01*
X207554Y281117D01*
X206878Y281908D01*
X206020Y282498D01*
X205039Y282845D01*
X204001Y282927D01*
X202978Y282737D01*
X202709Y282609D01*
X198497Y286822D01*
X198493Y287374D01*
X198679Y287462D01*
X199470Y288138D01*
X200060Y288996D01*
X200407Y289977D01*
X200489Y291015D01*
X200308Y291991D01*
X200342Y292032D01*
X200873Y292134D01*
X202667Y290340D01*
X202389Y289556D01*
X202308Y288518D01*
X202497Y287495D01*
X202945Y286556D01*
X203621Y285764D01*
X204479Y285175D01*
X205460Y284827D01*
X206498Y284746D01*
X207521Y284935D01*
X208461Y285383D01*
X209252Y286059D01*
X209841Y286917D01*
X210189Y287898D01*
X210271Y288936D01*
X210081Y289959D01*
X209633Y290898D01*
X208957Y291690D01*
X208099Y292279D01*
X207118Y292627D01*
X206081Y292708D01*
X205057Y292519D01*
X204685Y292341D01*
X200745Y296280D01*
X200393Y296516D01*
X200358Y296910D01*
X200395Y297071D01*
X200758Y297244D01*
X201550Y297920D01*
X202139Y298778D01*
X202318Y299283D01*
X198483Y300099D01*
X194648Y300914D01*
X194605Y300379D01*
X194795Y299356D01*
X195243Y298416D01*
X195919Y297625D01*
X196542Y297197D01*
X196387Y296697D01*
X119781D01*
X118963Y297515D01*
X119018Y297796D01*
X118849Y298647D01*
X118367Y299368D01*
X117646Y299850D01*
X116795Y300019D01*
X113448D01*
X112597Y299850D01*
X111876Y299368D01*
X111394Y298647D01*
X111224Y297796D01*
X111394Y296944D01*
X111876Y296223D01*
X112597Y295741D01*
X113448Y295572D01*
X116523D01*
X116532Y295565D01*
X116554Y295519D01*
X116242Y295019D01*
X113448D01*
X112597Y294850D01*
X111876Y294368D01*
X111847Y294325D01*
X110401D01*
X110278Y294510D01*
X109491Y295036D01*
X108563Y295220D01*
X107635Y295036D01*
X106849Y294510D01*
X106323Y293723D01*
X106139Y292796D01*
X106323Y291868D01*
X106849Y291081D01*
X107635Y290556D01*
X107661Y290550D01*
Y290041D01*
X107635Y290036D01*
X106849Y289510D01*
X106323Y288723D01*
X106139Y287796D01*
X106323Y286868D01*
X106849Y286081D01*
X107635Y285556D01*
X107661Y285550D01*
Y285041D01*
X107635Y285035D01*
X106849Y284510D01*
X106323Y283723D01*
X106238Y283296D01*
X108563D01*
Y282796D01*
X109063D01*
Y280470D01*
X109491Y280556D01*
X110278Y281081D01*
X110803Y281868D01*
X110851Y282109D01*
X111361D01*
X111394Y281944D01*
X111876Y281223D01*
X112597Y280741D01*
X113448Y280572D01*
X114621D01*
Y282796D01*
X115621D01*
Y280572D01*
X116195D01*
X116495Y280072D01*
X116468Y280019D01*
X113448D01*
X112597Y279850D01*
X111876Y279368D01*
X111394Y278647D01*
X111224Y277796D01*
X111394Y276944D01*
X111876Y276223D01*
X112597Y275741D01*
X113448Y275572D01*
X116585D01*
X116848Y275110D01*
X116850Y275090D01*
X116797Y275019D01*
X116795Y275019D01*
X113448D01*
X112597Y274850D01*
X111876Y274368D01*
X111394Y273647D01*
X111224Y272796D01*
X111394Y271944D01*
X111876Y271223D01*
X112597Y270741D01*
X113448Y270572D01*
X116795D01*
X117278Y270668D01*
X117743Y270313D01*
Y270278D01*
X117278Y269923D01*
X116795Y270019D01*
X115621D01*
Y267796D01*
Y265572D01*
X116795D01*
X117512Y265714D01*
X118012Y265430D01*
Y263088D01*
X115508Y260584D01*
X97638D01*
X97053Y260468D01*
X96556Y260137D01*
X79977Y243557D01*
X-67969D01*
X-74750Y250338D01*
Y253703D01*
X-74269Y253810D01*
X-74250Y253807D01*
X-73589Y252946D01*
X-72723Y252281D01*
X-71713Y251863D01*
X-70630Y251720D01*
X-69547Y251863D01*
X-68537Y252281D01*
X-67670Y252946D01*
X-67005Y253813D01*
X-66587Y254822D01*
X-66444Y255906D01*
X-66587Y256989D01*
X-67005Y257998D01*
X-67670Y258865D01*
X-68537Y259530D01*
X-69547Y259948D01*
X-70547Y260080D01*
X-70570Y260973D01*
X-69702Y261146D01*
X-68915Y261671D01*
X-68818Y261817D01*
X-21812D01*
X-21714Y261671D01*
X-20928Y261145D01*
X-20000Y260961D01*
X-19072Y261145D01*
X-18286Y261671D01*
X-18188Y261817D01*
X28818Y261817D01*
X28916Y261671D01*
X29702Y261146D01*
X30630Y260961D01*
X31558Y261146D01*
X32344Y261671D01*
X32442Y261817D01*
X76086D01*
Y260574D01*
X81433D01*
Y266118D01*
X81433Y266118D01*
Y266185D01*
X81433D01*
X81433Y266617D01*
Y271728D01*
X81433Y271728D01*
Y271795D01*
X81433D01*
X81433Y272228D01*
Y277338D01*
X76086D01*
Y274057D01*
X75607Y273577D01*
X62468D01*
X62344Y273762D01*
X61558Y274287D01*
X60630Y274472D01*
X59702Y274287D01*
X58916Y273762D01*
X58792Y273577D01*
X25732Y273577D01*
X25592Y273833D01*
X25551Y274077D01*
X29510Y278035D01*
X32792D01*
X32938Y277878D01*
Y277878D01*
X38678D01*
Y282437D01*
X32938D01*
X32792Y282876D01*
Y283382D01*
X27248D01*
Y280100D01*
X23776Y276628D01*
X-21874D01*
X-22065Y277090D01*
X-21120Y278035D01*
X-17838D01*
X-17692Y277878D01*
Y277878D01*
X-11952D01*
Y282437D01*
X-17692D01*
X-17838Y282876D01*
Y283381D01*
X-23381D01*
Y280099D01*
X-24687Y278793D01*
X-62582D01*
Y282437D01*
X-68322D01*
X-68468Y282877D01*
Y283382D01*
X-74011D01*
Y280100D01*
X-83562Y270549D01*
X-83893Y270053D01*
X-84010Y269467D01*
Y247146D01*
X-83893Y246560D01*
X-83562Y246064D01*
X-72341Y234844D01*
X-71845Y234512D01*
X-71260Y234396D01*
X84055D01*
Y232576D01*
X78205Y226726D01*
X-77221D01*
X-91482Y240988D01*
Y284941D01*
X-91599Y285526D01*
X-91930Y286022D01*
X-100026Y294118D01*
Y295217D01*
X-99639Y295534D01*
X-99587Y295524D01*
X-98966Y295647D01*
X-98602Y295890D01*
X-98239Y295647D01*
X-97618Y295524D01*
X-96997Y295647D01*
X-96634Y295890D01*
X-96270Y295647D01*
X-95650Y295524D01*
X-95029Y295647D01*
X-94503Y295999D01*
X-94151Y296525D01*
X-94028Y297145D01*
Y301279D01*
X-94151Y301900D01*
X-94503Y302426D01*
X-95029Y302778D01*
X-95650Y302901D01*
X-95702Y302890D01*
X-96089Y303208D01*
Y306284D01*
X-90952D01*
Y310138D01*
Y313992D01*
X-96089D01*
Y315634D01*
X-94945D01*
Y321177D01*
X-96089D01*
Y322887D01*
X-95975Y322963D01*
X-95471Y323717D01*
X-95373Y324209D01*
X-94863D01*
X-94765Y323717D01*
X-94262Y322963D01*
X-93507Y322459D01*
X-93118Y322382D01*
Y328248D01*
X-92618D01*
Y328748D01*
X-90294D01*
Y331709D01*
X-90123Y331993D01*
X-89839Y332164D01*
X-82736D01*
X-81847Y332341D01*
X-81093Y332845D01*
X-81017Y332959D01*
X-79859D01*
Y328920D01*
X-72150D01*
Y330157D01*
X-71709Y330393D01*
X-71480Y330240D01*
X-70552Y330055D01*
X-69624Y330240D01*
X-68838Y330765D01*
X-68312Y331552D01*
X-68128Y332480D01*
X-68312Y333408D01*
X-68838Y334194D01*
X-69624Y334720D01*
X-70552Y334904D01*
X-71480Y334720D01*
X-71709Y334566D01*
X-72150Y334802D01*
Y338278D01*
X-76005D01*
X-79859D01*
Y336018D01*
X-81017D01*
X-81093Y336132D01*
X-81847Y336635D01*
X-82339Y336733D01*
Y337243D01*
X-81847Y337341D01*
X-81093Y337845D01*
X-80589Y338599D01*
X-80511Y338988D01*
X-86378D01*
X-92244D01*
X-92167Y338599D01*
X-91663Y337845D01*
X-90909Y337341D01*
X-90417Y337243D01*
Y336733D01*
X-90909Y336635D01*
X-91663Y336132D01*
X-92167Y335378D01*
X-92309Y334662D01*
X-92618Y334214D01*
X-93507Y334037D01*
X-94262Y333533D01*
X-94765Y332779D01*
X-94863Y332287D01*
X-95373D01*
X-95471Y332779D01*
X-95975Y333533D01*
X-96089Y333609D01*
Y339772D01*
X-95904Y339896D01*
X-95378Y340682D01*
X-95194Y341610D01*
X-95378Y342538D01*
X-95904Y343325D01*
X-96690Y343850D01*
X-97618Y344035D01*
X-98546Y343850D01*
X-99332Y343325D01*
X-99858Y342538D01*
X-100043Y341610D01*
X-99858Y340682D01*
X-99332Y339896D01*
X-99147Y339772D01*
Y333609D01*
X-99262Y333533D01*
X-99765Y332779D01*
X-99863Y332287D01*
X-100373D01*
X-100471Y332779D01*
X-100863Y333366D01*
X-100904Y333915D01*
X-100378Y334702D01*
X-100194Y335630D01*
X-100378Y336558D01*
X-100904Y337344D01*
X-101690Y337870D01*
X-102618Y338054D01*
X-103546Y337870D01*
X-104332Y337344D01*
X-104858Y336558D01*
X-105043Y335630D01*
X-104858Y334702D01*
X-104332Y333915D01*
X-104373Y333366D01*
X-104765Y332779D01*
X-104863Y332287D01*
X-105373D01*
X-105471Y332779D01*
X-105975Y333533D01*
X-106729Y334037D01*
X-107618Y334214D01*
X-108508Y334037D01*
X-109262Y333533D01*
X-109765Y332779D01*
X-109863Y332287D01*
X-110373D01*
X-110471Y332779D01*
X-110975Y333533D01*
X-111729Y334037D01*
X-112444Y334179D01*
X-112892Y334488D01*
X-113069Y335378D01*
X-113573Y336132D01*
X-114327Y336635D01*
X-114819Y336733D01*
Y337243D01*
X-114327Y337341D01*
X-113573Y337845D01*
X-113069Y338599D01*
X-112992Y338988D01*
X-118858D01*
Y339988D01*
X-112992D01*
X-113069Y340378D01*
X-113573Y341132D01*
X-114327Y341635D01*
X-114819Y341733D01*
Y342243D01*
X-114327Y342341D01*
X-113573Y342845D01*
X-113069Y343599D01*
X-112892Y344488D01*
X-113069Y345378D01*
X-113573Y346132D01*
X-114327Y346636D01*
X-114819Y346733D01*
Y347243D01*
X-114327Y347341D01*
X-113573Y347845D01*
X-113069Y348599D01*
X-112892Y349488D01*
X-113069Y350378D01*
X-113573Y351132D01*
X-114327Y351636D01*
X-114819Y351733D01*
Y352243D01*
X-114327Y352341D01*
X-113573Y352845D01*
X-113069Y353599D01*
X-112892Y354488D01*
X-112618Y354762D01*
X-111729Y354939D01*
X-110975Y355443D01*
X-110471Y356197D01*
X-110373Y356689D01*
X-109863D01*
X-109765Y356197D01*
X-109262Y355443D01*
X-108508Y354939D01*
X-107618Y354762D01*
X-106729Y354939D01*
X-105975Y355443D01*
X-105471Y356197D01*
X-105373Y356689D01*
X-104863D01*
X-104765Y356197D01*
X-104262Y355443D01*
X-103507Y354939D01*
X-102618Y354762D01*
X-101729Y354939D01*
X-100975Y355443D01*
X-100471Y356197D01*
X-100373Y356689D01*
X-99863D01*
X-99765Y356197D01*
X-99262Y355443D01*
X-98507Y354939D01*
X-97618Y354762D01*
X-96729Y354939D01*
X-95975Y355443D01*
X-95471Y356197D01*
X-95373Y356689D01*
X-94863D01*
X-94765Y356197D01*
X-94262Y355443D01*
X-93507Y354939D01*
X-92792Y354797D01*
X-92344Y354488D01*
X-92167Y353599D01*
X-91663Y352845D01*
X-90909Y352341D01*
X-90417Y352243D01*
Y351733D01*
X-90909Y351636D01*
X-91663Y351132D01*
X-92167Y350378D01*
X-92344Y349488D01*
X-92167Y348599D01*
X-91663Y347845D01*
X-90909Y347341D01*
X-90417Y347243D01*
Y346733D01*
X-90909Y346636D01*
X-91663Y346132D01*
X-92167Y345378D01*
X-92344Y344488D01*
X-92167Y343599D01*
X-91663Y342845D01*
X-90909Y342341D01*
X-90417Y342243D01*
Y341733D01*
X-90909Y341635D01*
X-91663Y341132D01*
X-92167Y340378D01*
X-92244Y339988D01*
X-86378D01*
X-80511D01*
X-80589Y340378D01*
X-81093Y341132D01*
X-81847Y341635D01*
X-82339Y341733D01*
Y342243D01*
X-81847Y342341D01*
X-81093Y342845D01*
X-81017Y342959D01*
X-68209D01*
X-67623Y343075D01*
X-67127Y343407D01*
X-54037Y356497D01*
X-53705Y356994D01*
X-53589Y357579D01*
Y367976D01*
X-52926Y368251D01*
X-52018Y368947D01*
X-51322Y369855D01*
X-50884Y370913D01*
X-50734Y372047D01*
X-50884Y373182D01*
X-51322Y374239D01*
X-52018Y375147D01*
X-52926Y375844D01*
X-53983Y376282D01*
X-55118Y376431D01*
D02*
G37*
G36*
X145118Y376431D02*
X143983Y376282D01*
X142926Y375844D01*
X142018Y375147D01*
X141322Y374239D01*
X140884Y373182D01*
X140734Y372047D01*
X140884Y370913D01*
X141322Y369855D01*
X142018Y368947D01*
X142926Y368251D01*
X143589Y367976D01*
Y358212D01*
X131394Y346018D01*
X119180D01*
X119104Y346132D01*
X118350Y346635D01*
X117858Y346733D01*
Y347243D01*
X118350Y347341D01*
X119104Y347845D01*
X119180Y347959D01*
X127284D01*
X127869Y348075D01*
X128365Y348407D01*
X136199Y356241D01*
X136531Y356737D01*
X136647Y357323D01*
Y367976D01*
X137310Y368251D01*
X138218Y368947D01*
X138915Y369855D01*
X139353Y370913D01*
X139502Y372047D01*
X139353Y373182D01*
X138915Y374239D01*
X138218Y375147D01*
X137310Y375844D01*
X136253Y376282D01*
X135118Y376431D01*
X133984Y376282D01*
X132926Y375844D01*
X132018Y375147D01*
X131322Y374239D01*
X130884Y373182D01*
X130734Y372047D01*
X130884Y370913D01*
X131322Y369855D01*
X132018Y368947D01*
X132926Y368251D01*
X133589Y367976D01*
Y357956D01*
X126650Y351018D01*
X119180D01*
X119104Y351132D01*
X118350Y351635D01*
X117858Y351733D01*
Y352243D01*
X118350Y352341D01*
X119104Y352845D01*
X119180Y352959D01*
X122146D01*
X122731Y353075D01*
X123227Y353407D01*
X126199Y356379D01*
X126531Y356875D01*
X126647Y357461D01*
Y367976D01*
X127310Y368251D01*
X128218Y368947D01*
X128915Y369855D01*
X129353Y370913D01*
X129502Y372047D01*
X129353Y373182D01*
X128915Y374239D01*
X128218Y375147D01*
X127310Y375844D01*
X126253Y376282D01*
X125118Y376431D01*
X123984Y376282D01*
X122926Y375844D01*
X122018Y375147D01*
X121321Y374239D01*
X120884Y373182D01*
X120734Y372047D01*
X120884Y370913D01*
X121321Y369855D01*
X122018Y368947D01*
X122926Y368251D01*
X123589Y367976D01*
Y358094D01*
X121512Y356018D01*
X119180D01*
X119104Y356132D01*
X118350Y356635D01*
X117461Y356812D01*
X110358D01*
X110074Y356983D01*
X109903Y357268D01*
Y364370D01*
X109853Y364619D01*
X113321Y368087D01*
X113984Y367813D01*
X115118Y367663D01*
X116253Y367813D01*
X117310Y368251D01*
X118218Y368947D01*
X118915Y369855D01*
X119353Y370913D01*
X119502Y372047D01*
X119353Y373182D01*
X118915Y374239D01*
X118218Y375147D01*
X117310Y375844D01*
X116253Y376282D01*
X115118Y376431D01*
X113984Y376282D01*
X112926Y375844D01*
X112018Y375147D01*
X111321Y374239D01*
X110883Y373182D01*
X110734Y372047D01*
X110883Y370913D01*
X111158Y370250D01*
X107598Y366690D01*
X107579Y366694D01*
X106689Y366517D01*
X105935Y366014D01*
X105431Y365260D01*
X105334Y364768D01*
X104824D01*
X104726Y365260D01*
X104222Y366014D01*
X104148Y366063D01*
Y367412D01*
X104523Y367742D01*
X105118Y367663D01*
X106253Y367813D01*
X107310Y368251D01*
X108218Y368947D01*
X108915Y369855D01*
X109353Y370913D01*
X109502Y372047D01*
X109353Y373182D01*
X108915Y374239D01*
X108218Y375147D01*
X107310Y375844D01*
X106253Y376282D01*
X105118Y376431D01*
X103983Y376282D01*
X102926Y375844D01*
X102018Y375147D01*
X101321Y374239D01*
X100883Y373182D01*
X100734Y372047D01*
X100883Y370913D01*
X101206Y370134D01*
X101205Y370132D01*
X101089Y369547D01*
Y366116D01*
X100935Y366014D01*
X100432Y365260D01*
X100334Y364768D01*
X99824D01*
X99726Y365260D01*
X99222Y366014D01*
X99147Y366063D01*
Y369547D01*
X99031Y370132D01*
X99030Y370134D01*
X99353Y370913D01*
X99502Y372047D01*
X99353Y373182D01*
X98915Y374239D01*
X98218Y375147D01*
X97310Y375844D01*
X96253Y376282D01*
X95118Y376431D01*
X93984Y376282D01*
X92926Y375844D01*
X92018Y375147D01*
X91321Y374239D01*
X90883Y373182D01*
X90734Y372047D01*
X90883Y370913D01*
X91321Y369855D01*
X92018Y368947D01*
X92926Y368251D01*
X93984Y367813D01*
X95118Y367663D01*
X95713Y367742D01*
X96089Y367412D01*
Y366116D01*
X95935Y366014D01*
X95432Y365260D01*
X95334Y364768D01*
X94824D01*
X94726Y365260D01*
X94222Y366014D01*
X93468Y366517D01*
X92648Y366681D01*
X89078Y370250D01*
X89353Y370913D01*
X89502Y372047D01*
X89353Y373182D01*
X88915Y374239D01*
X88218Y375147D01*
X87310Y375844D01*
X86253Y376282D01*
X85118Y376431D01*
X83983Y376282D01*
X82926Y375844D01*
X82018Y375147D01*
X81322Y374239D01*
X80884Y373182D01*
X80734Y372047D01*
X80884Y370913D01*
X81322Y369855D01*
X82018Y368947D01*
X82926Y368251D01*
X83983Y367813D01*
X85118Y367663D01*
X86253Y367813D01*
X86915Y368087D01*
X87853Y367149D01*
X87607Y366689D01*
X87579Y366694D01*
X86689Y366517D01*
X85935Y366014D01*
X85431Y365260D01*
X85255Y364370D01*
Y362258D01*
X78133D01*
X76648Y363744D01*
Y367976D01*
X77310Y368251D01*
X78218Y368947D01*
X78915Y369855D01*
X79353Y370913D01*
X79502Y372047D01*
X79353Y373182D01*
X78915Y374239D01*
X78218Y375147D01*
X77310Y375844D01*
X76253Y376282D01*
X75118Y376431D01*
X73984Y376282D01*
X72926Y375844D01*
X72018Y375147D01*
X71321Y374239D01*
X70884Y373182D01*
X70734Y372047D01*
X70884Y370913D01*
X71321Y369855D01*
X72018Y368947D01*
X72926Y368251D01*
X73589Y367976D01*
Y363110D01*
X73705Y362525D01*
X74037Y362029D01*
X76419Y359647D01*
X76915Y359315D01*
X77500Y359199D01*
X85255D01*
Y357268D01*
X85083Y356983D01*
X84799Y356812D01*
X77697D01*
X76807Y356635D01*
X76053Y356132D01*
X75977Y356018D01*
X68822D01*
X66647Y358192D01*
Y367976D01*
X67310Y368251D01*
X68218Y368947D01*
X68915Y369855D01*
X69353Y370913D01*
X69502Y372047D01*
X69353Y373182D01*
X68915Y374239D01*
X68218Y375147D01*
X67310Y375844D01*
X66253Y376282D01*
X65118Y376431D01*
X63984Y376282D01*
X62926Y375844D01*
X62018Y375147D01*
X61322Y374239D01*
X60883Y373182D01*
X60734Y372047D01*
X60883Y370913D01*
X61322Y369855D01*
X62018Y368947D01*
X62926Y368251D01*
X63589Y367976D01*
Y357559D01*
X63705Y356974D01*
X64037Y356478D01*
X67107Y353407D01*
X67604Y353075D01*
X68189Y352959D01*
X75977D01*
X76053Y352845D01*
X76807Y352341D01*
X77299Y352243D01*
Y351733D01*
X76807Y351635D01*
X76053Y351132D01*
X75977Y351018D01*
X63685D01*
X56647Y358055D01*
Y367976D01*
X57310Y368251D01*
X58218Y368947D01*
X58915Y369855D01*
X59353Y370913D01*
X59502Y372047D01*
X59353Y373182D01*
X58915Y374239D01*
X58218Y375147D01*
X57310Y375844D01*
X56253Y376282D01*
X55118Y376431D01*
X53983Y376282D01*
X52926Y375844D01*
X52018Y375147D01*
X51322Y374239D01*
X50884Y373182D01*
X50734Y372047D01*
X50884Y370913D01*
X51322Y369855D01*
X52018Y368947D01*
X52926Y368251D01*
X53589Y367976D01*
Y357421D01*
X53705Y356836D01*
X54037Y356340D01*
X61970Y348407D01*
X62466Y348075D01*
X63051Y347959D01*
X67692D01*
X67844Y347459D01*
X67521Y347243D01*
X66671Y346393D01*
X63449D01*
X63301Y346492D01*
X62716Y346608D01*
X61308D01*
X61184Y346793D01*
X60397Y347319D01*
X59469Y347503D01*
X58542Y347319D01*
X57755Y346793D01*
X57230Y346007D01*
X57045Y345079D01*
X57230Y344151D01*
X57755Y343364D01*
X58542Y342839D01*
X59469Y342654D01*
X60397Y342839D01*
X60666Y343018D01*
X61107Y342782D01*
Y339275D01*
Y337035D01*
X68815D01*
Y339275D01*
Y344071D01*
X69078Y344275D01*
X69572Y344053D01*
Y343413D01*
X72343D01*
Y342913D01*
X72843D01*
Y340145D01*
X73012Y339762D01*
X72788Y339484D01*
X69572D01*
Y334137D01*
X69572D01*
X69572Y333775D01*
X69572D01*
Y328428D01*
X75115D01*
Y333415D01*
X75615Y333501D01*
X76053Y332845D01*
X76807Y332341D01*
X77697Y332164D01*
X84799D01*
X85083Y331993D01*
X85255Y331709D01*
Y326529D01*
X75115D01*
Y327673D01*
X69572D01*
Y322326D01*
X75115D01*
Y323470D01*
X85596D01*
X85935Y322963D01*
X86689Y322459D01*
X87579Y322282D01*
X88468Y322459D01*
X89222Y322963D01*
X89726Y323717D01*
X89824Y324209D01*
X90334D01*
X90431Y323717D01*
X90935Y322963D01*
X91689Y322459D01*
X92579Y322282D01*
X93468Y322459D01*
X94222Y322963D01*
X94726Y323717D01*
X94824Y324209D01*
X95334D01*
X95432Y323717D01*
X95935Y322963D01*
X96689Y322459D01*
X97579Y322282D01*
X98468Y322459D01*
X99222Y322963D01*
X99726Y323717D01*
X99824Y324209D01*
X100334D01*
X100432Y323717D01*
X100935Y322963D01*
X101689Y322459D01*
X102579Y322282D01*
X103468Y322459D01*
X104222Y322963D01*
X104726Y323717D01*
X104824Y324209D01*
X105334D01*
X105431Y323717D01*
X105935Y322963D01*
X106689Y322459D01*
X107579Y322282D01*
X108468Y322459D01*
X109222Y322963D01*
X109726Y323717D01*
X109903Y324606D01*
Y326719D01*
X115642D01*
X115766Y326534D01*
X116552Y326008D01*
X117480Y325823D01*
X118408Y326008D01*
X119195Y326534D01*
X119720Y327320D01*
X119905Y328248D01*
X119720Y329176D01*
X119195Y329962D01*
X118408Y330488D01*
X117480Y330673D01*
X116552Y330488D01*
X115766Y329962D01*
X115642Y329777D01*
X109903D01*
Y331709D01*
X110074Y331993D01*
X110358Y332164D01*
X117461D01*
X118350Y332341D01*
X119104Y332845D01*
X119180Y332959D01*
X120299D01*
Y328920D01*
X128007D01*
Y330183D01*
X128448Y330419D01*
X128717Y330239D01*
X129644Y330055D01*
X130572Y330239D01*
X131359Y330765D01*
X131884Y331552D01*
X132069Y332479D01*
X131884Y333407D01*
X131359Y334194D01*
X130572Y334719D01*
X129644Y334904D01*
X128717Y334719D01*
X128448Y334540D01*
X128007Y334776D01*
Y338279D01*
X124153D01*
Y338778D01*
D01*
Y338279D01*
X120299D01*
Y336018D01*
X119180D01*
X119104Y336132D01*
X118350Y336635D01*
X117858Y336733D01*
Y337243D01*
X118350Y337341D01*
X119104Y337845D01*
X119608Y338599D01*
X119685Y338988D01*
X113819D01*
X107952D01*
X108030Y338599D01*
X108534Y337845D01*
X109288Y337341D01*
X109780Y337243D01*
Y336733D01*
X109288Y336635D01*
X108534Y336132D01*
X108030Y335378D01*
X107888Y334662D01*
X107579Y334214D01*
X106689Y334037D01*
X105935Y333533D01*
X105431Y332779D01*
X105334Y332287D01*
X104824D01*
X104726Y332779D01*
X104222Y333533D01*
X104108Y333609D01*
Y339772D01*
X104293Y339896D01*
X104819Y340682D01*
X105003Y341610D01*
X104819Y342538D01*
X104293Y343325D01*
X103507Y343850D01*
X102579Y344035D01*
X101651Y343850D01*
X100864Y343325D01*
X100339Y342538D01*
X100154Y341610D01*
X100339Y340682D01*
X100864Y339896D01*
X101049Y339772D01*
Y333609D01*
X100935Y333533D01*
X100432Y332779D01*
X100334Y332287D01*
X99824D01*
X99726Y332779D01*
X99222Y333533D01*
X98468Y334037D01*
X97579Y334214D01*
X97576Y334213D01*
X95865Y335924D01*
X95369Y336256D01*
X94784Y336372D01*
X90453D01*
X89868Y336256D01*
X89371Y335924D01*
X87872Y334425D01*
X87363Y334527D01*
X87270Y334662D01*
X87128Y335378D01*
X86624Y336132D01*
X85870Y336635D01*
X85378Y336733D01*
Y337243D01*
X85870Y337341D01*
X86624Y337845D01*
X87128Y338599D01*
X87305Y339488D01*
X87128Y340378D01*
X86624Y341132D01*
X85870Y341635D01*
X85378Y341733D01*
Y342243D01*
X85870Y342341D01*
X86624Y342845D01*
X87128Y343599D01*
X87305Y344488D01*
X87128Y345378D01*
X86624Y346132D01*
X85870Y346635D01*
X85378Y346733D01*
Y347243D01*
X85870Y347341D01*
X86624Y347845D01*
X87128Y348599D01*
X87305Y349488D01*
X87128Y350378D01*
X86624Y351132D01*
X85870Y351635D01*
X85378Y351733D01*
Y352243D01*
X85870Y352341D01*
X86624Y352845D01*
X87128Y353599D01*
X87305Y354488D01*
X87579Y354762D01*
X88468Y354939D01*
X89222Y355443D01*
X89726Y356197D01*
X89824Y356689D01*
X90334D01*
X90431Y356197D01*
X90935Y355443D01*
X91689Y354939D01*
X92579Y354762D01*
X93468Y354939D01*
X94222Y355443D01*
X94726Y356197D01*
X94824Y356689D01*
X95334D01*
X95432Y356197D01*
X95935Y355443D01*
X96689Y354939D01*
X97579Y354762D01*
X98468Y354939D01*
X99222Y355443D01*
X99726Y356197D01*
X99824Y356689D01*
X100334D01*
X100432Y356197D01*
X100935Y355443D01*
X101689Y354939D01*
X102579Y354762D01*
X103468Y354939D01*
X104222Y355443D01*
X104726Y356197D01*
X104824Y356689D01*
X105334D01*
X105431Y356197D01*
X105935Y355443D01*
X106689Y354939D01*
X107579Y354762D01*
X107853Y354488D01*
X108030Y353599D01*
X108534Y352845D01*
X109288Y352341D01*
X109780Y352243D01*
Y351733D01*
X109288Y351635D01*
X108534Y351132D01*
X108030Y350378D01*
X107853Y349488D01*
X108030Y348599D01*
X108534Y347845D01*
X109288Y347341D01*
X109780Y347243D01*
Y346733D01*
X109288Y346635D01*
X108534Y346132D01*
X108030Y345378D01*
X107853Y344488D01*
X108030Y343599D01*
X108534Y342845D01*
X109288Y342341D01*
X109780Y342243D01*
Y341733D01*
X109288Y341635D01*
X108534Y341132D01*
X108030Y340378D01*
X107952Y339988D01*
X113819D01*
X119685D01*
X119608Y340378D01*
X119104Y341132D01*
X118350Y341635D01*
X117858Y341733D01*
Y342243D01*
X118350Y342341D01*
X119104Y342845D01*
X119180Y342959D01*
X132028D01*
X132613Y343075D01*
X133109Y343407D01*
X146200Y356497D01*
X146531Y356994D01*
X146648Y357579D01*
Y367976D01*
X147310Y368251D01*
X148218Y368947D01*
X148915Y369855D01*
X149353Y370913D01*
X149502Y372047D01*
X149353Y373182D01*
X148915Y374239D01*
X148218Y375147D01*
X147310Y375844D01*
X146253Y376282D01*
X145118Y376431D01*
D02*
G37*
G36*
X71843Y342413D02*
X69572D01*
Y340239D01*
X71843D01*
Y342413D01*
D02*
G37*
G36*
X128007Y342338D02*
X124653D01*
Y339279D01*
X128007D01*
Y342338D01*
D02*
G37*
G36*
X123653D02*
X120299D01*
Y339279D01*
X123653D01*
Y342338D01*
D02*
G37*
G36*
X-72150Y342337D02*
X-75505D01*
Y339278D01*
X-72150D01*
Y342337D01*
D02*
G37*
G36*
X-76505D02*
X-79859D01*
Y339278D01*
X-76505D01*
Y342337D01*
D02*
G37*
G36*
X27928Y342298D02*
X24574D01*
Y339239D01*
X27928D01*
Y342298D01*
D02*
G37*
G36*
X23574D02*
X20220D01*
Y339239D01*
X23574D01*
Y342298D01*
D02*
G37*
G36*
X-129535Y337709D02*
X-132889D01*
Y334650D01*
X-129535D01*
Y337709D01*
D02*
G37*
G36*
X-29416Y337689D02*
X-32771D01*
Y334630D01*
X-29416D01*
Y337689D01*
D02*
G37*
G36*
X68815Y336035D02*
X65461D01*
Y332976D01*
X68815D01*
Y336035D01*
D02*
G37*
G36*
X64461D02*
X61107D01*
Y332976D01*
X64461D01*
Y336035D01*
D02*
G37*
G36*
X-128354Y333775D02*
X-130625D01*
Y331602D01*
X-128354D01*
Y333775D01*
D02*
G37*
G36*
X-28235Y333735D02*
X-30507D01*
Y331562D01*
X-28235D01*
Y333735D01*
D02*
G37*
G36*
X-125082Y330602D02*
X-127354D01*
Y328429D01*
X-125082D01*
Y330602D01*
D02*
G37*
G36*
X-128354D02*
X-130625D01*
Y328429D01*
X-128354D01*
Y330602D01*
D02*
G37*
G36*
X-24963Y330562D02*
X-27235D01*
Y328389D01*
X-24963D01*
Y330562D01*
D02*
G37*
G36*
X-28235D02*
X-30507D01*
Y328389D01*
X-28235D01*
Y330562D01*
D02*
G37*
G36*
X-90294Y327748D02*
X-92118D01*
Y322382D01*
X-91729Y322459D01*
X-90975Y322963D01*
X-90471Y323717D01*
X-90294Y324606D01*
Y327748D01*
D02*
G37*
G36*
X-88842Y321177D02*
X-91016D01*
Y318905D01*
X-88842D01*
Y321177D01*
D02*
G37*
G36*
X-92016D02*
X-94189D01*
Y318905D01*
X-92016D01*
Y321177D01*
D02*
G37*
G36*
X-88842Y317905D02*
X-91016D01*
Y315634D01*
X-88842D01*
Y317905D01*
D02*
G37*
G36*
X-92016D02*
X-94189D01*
Y315634D01*
X-92016D01*
Y317905D01*
D02*
G37*
G36*
X-30630Y320091D02*
X-31713Y319949D01*
X-32723Y319530D01*
X-33589Y318865D01*
X-34255Y317998D01*
X-34673Y316989D01*
X-34815Y315906D01*
X-34673Y314823D01*
X-34255Y313813D01*
X-33589Y312946D01*
X-32723Y312281D01*
X-31713Y311863D01*
X-30630Y311720D01*
X-29547Y311863D01*
X-28537Y312281D01*
X-27670Y312946D01*
X-27005Y313813D01*
X-26587Y314823D01*
X-26445Y315906D01*
X-26587Y316989D01*
X-27005Y317998D01*
X-27670Y318865D01*
X-28537Y319530D01*
X-29547Y319949D01*
X-30630Y320091D01*
D02*
G37*
G36*
X-40630D02*
X-41713Y319949D01*
X-42723Y319530D01*
X-43589Y318865D01*
X-44255Y317998D01*
X-44673Y316989D01*
X-44815Y315906D01*
X-44673Y314823D01*
X-44255Y313813D01*
X-43589Y312946D01*
X-42723Y312281D01*
X-41713Y311863D01*
X-40630Y311720D01*
X-39547Y311863D01*
X-38537Y312281D01*
X-37670Y312946D01*
X-37005Y313813D01*
X-36587Y314823D01*
X-36445Y315906D01*
X-36587Y316989D01*
X-37005Y317998D01*
X-37670Y318865D01*
X-38537Y319530D01*
X-39547Y319949D01*
X-40630Y320091D01*
D02*
G37*
G36*
X-50630D02*
X-51713Y319949D01*
X-52723Y319530D01*
X-53589Y318865D01*
X-54255Y317998D01*
X-54673Y316989D01*
X-54815Y315906D01*
X-54673Y314823D01*
X-54255Y313813D01*
X-53589Y312946D01*
X-52723Y312281D01*
X-51713Y311863D01*
X-50630Y311720D01*
X-49547Y311863D01*
X-48537Y312281D01*
X-47670Y312946D01*
X-47005Y313813D01*
X-46587Y314823D01*
X-46444Y315906D01*
X-46587Y316989D01*
X-47005Y317998D01*
X-47670Y318865D01*
X-48537Y319530D01*
X-49547Y319949D01*
X-50630Y320091D01*
D02*
G37*
G36*
X-60630D02*
X-61713Y319949D01*
X-62723Y319530D01*
X-63589Y318865D01*
X-64255Y317998D01*
X-64673Y316989D01*
X-64815Y315906D01*
X-64673Y314823D01*
X-64255Y313813D01*
X-63589Y312946D01*
X-62723Y312281D01*
X-61713Y311863D01*
X-60630Y311720D01*
X-59547Y311863D01*
X-58537Y312281D01*
X-57670Y312946D01*
X-57005Y313813D01*
X-56587Y314823D01*
X-56445Y315906D01*
X-56587Y316989D01*
X-57005Y317998D01*
X-57670Y318865D01*
X-58537Y319530D01*
X-59547Y319949D01*
X-60630Y320091D01*
D02*
G37*
G36*
X-70630D02*
X-71713Y319949D01*
X-72723Y319530D01*
X-73589Y318865D01*
X-74255Y317998D01*
X-74673Y316989D01*
X-74815Y315906D01*
X-74673Y314823D01*
X-74255Y313813D01*
X-73589Y312946D01*
X-72723Y312281D01*
X-71713Y311863D01*
X-70630Y311720D01*
X-69547Y311863D01*
X-68537Y312281D01*
X-67670Y312946D01*
X-67005Y313813D01*
X-66587Y314823D01*
X-66444Y315906D01*
X-66587Y316989D01*
X-67005Y317998D01*
X-67670Y318865D01*
X-68537Y319530D01*
X-69547Y319949D01*
X-70630Y320091D01*
D02*
G37*
G36*
X70630Y320091D02*
X69547Y319949D01*
X68537Y319530D01*
X67670Y318865D01*
X67005Y317998D01*
X66587Y316989D01*
X66444Y315906D01*
X66587Y314822D01*
X67005Y313813D01*
X67670Y312946D01*
X68537Y312281D01*
X69547Y311863D01*
X70630Y311720D01*
X71713Y311863D01*
X72723Y312281D01*
X73589Y312946D01*
X74255Y313813D01*
X74673Y314822D01*
X74815Y315906D01*
X74673Y316989D01*
X74255Y317998D01*
X73589Y318865D01*
X72723Y319530D01*
X71713Y319949D01*
X70630Y320091D01*
D02*
G37*
G36*
X60630D02*
X59547Y319949D01*
X58537Y319530D01*
X57670Y318865D01*
X57005Y317998D01*
X56587Y316989D01*
X56445Y315906D01*
X56587Y314822D01*
X57005Y313813D01*
X57670Y312946D01*
X58537Y312281D01*
X59547Y311863D01*
X60630Y311720D01*
X61713Y311863D01*
X62723Y312281D01*
X63589Y312946D01*
X64255Y313813D01*
X64673Y314822D01*
X64815Y315906D01*
X64673Y316989D01*
X64255Y317998D01*
X63589Y318865D01*
X62723Y319530D01*
X61713Y319949D01*
X60630Y320091D01*
D02*
G37*
G36*
X50630D02*
X49547Y319949D01*
X48537Y319530D01*
X47670Y318865D01*
X47005Y317998D01*
X46587Y316989D01*
X46444Y315906D01*
X46587Y314822D01*
X47005Y313813D01*
X47670Y312946D01*
X48537Y312281D01*
X49547Y311863D01*
X50630Y311720D01*
X51713Y311863D01*
X52723Y312281D01*
X53589Y312946D01*
X54255Y313813D01*
X54673Y314822D01*
X54815Y315906D01*
X54673Y316989D01*
X54255Y317998D01*
X53589Y318865D01*
X52723Y319530D01*
X51713Y319949D01*
X50630Y320091D01*
D02*
G37*
G36*
X40630D02*
X39547Y319949D01*
X38537Y319530D01*
X37670Y318865D01*
X37005Y317998D01*
X36587Y316989D01*
X36445Y315906D01*
X36587Y314822D01*
X37005Y313813D01*
X37670Y312946D01*
X38537Y312281D01*
X39547Y311863D01*
X40630Y311720D01*
X41713Y311863D01*
X42723Y312281D01*
X43589Y312946D01*
X44255Y313813D01*
X44673Y314822D01*
X44815Y315906D01*
X44673Y316989D01*
X44255Y317998D01*
X43589Y318865D01*
X42723Y319530D01*
X41713Y319949D01*
X40630Y320091D01*
D02*
G37*
G36*
X30630D02*
X29547Y319949D01*
X28537Y319530D01*
X27670Y318865D01*
X27005Y317998D01*
X26587Y316989D01*
X26445Y315906D01*
X26587Y314822D01*
X27005Y313813D01*
X27670Y312946D01*
X28537Y312281D01*
X29547Y311863D01*
X30630Y311720D01*
X31713Y311863D01*
X32723Y312281D01*
X33589Y312946D01*
X34255Y313813D01*
X34673Y314822D01*
X34815Y315906D01*
X34673Y316989D01*
X34255Y317998D01*
X33589Y318865D01*
X32723Y319530D01*
X31713Y319949D01*
X30630Y320091D01*
D02*
G37*
G36*
X20000Y320091D02*
X18917Y319948D01*
X17907Y319530D01*
X17041Y318865D01*
X16375Y317998D01*
X15957Y316989D01*
X15815Y315905D01*
X15957Y314822D01*
X16375Y313813D01*
X17041Y312946D01*
X17907Y312281D01*
X18917Y311863D01*
X20000Y311720D01*
X21083Y311863D01*
X22093Y312281D01*
X22960Y312946D01*
X23625Y313813D01*
X24043Y314822D01*
X24185Y315905D01*
X24043Y316989D01*
X23625Y317998D01*
X22960Y318865D01*
X22093Y319530D01*
X21083Y319948D01*
X20000Y320091D01*
D02*
G37*
G36*
X10000D02*
X8917Y319948D01*
X7907Y319530D01*
X7040Y318865D01*
X6375Y317998D01*
X5957Y316989D01*
X5815Y315905D01*
X5957Y314822D01*
X6375Y313813D01*
X7040Y312946D01*
X7907Y312281D01*
X8917Y311863D01*
X10000Y311720D01*
X11083Y311863D01*
X12093Y312281D01*
X12959Y312946D01*
X13625Y313813D01*
X14043Y314822D01*
X14185Y315905D01*
X14043Y316989D01*
X13625Y317998D01*
X12959Y318865D01*
X12093Y319530D01*
X11083Y319948D01*
X10000Y320091D01*
D02*
G37*
G36*
X0D02*
X-1083Y319948D01*
X-2093Y319530D01*
X-2960Y318865D01*
X-3625Y317998D01*
X-4043Y316989D01*
X-4185Y315905D01*
X-4043Y314822D01*
X-3625Y313813D01*
X-2960Y312946D01*
X-2093Y312281D01*
X-1083Y311863D01*
X0Y311720D01*
X1083Y311863D01*
X2093Y312281D01*
X2960Y312946D01*
X3625Y313813D01*
X4043Y314822D01*
X4185Y315905D01*
X4043Y316989D01*
X3625Y317998D01*
X2960Y318865D01*
X2093Y319530D01*
X1083Y319948D01*
X0Y320091D01*
D02*
G37*
G36*
X-10000D02*
X-11083Y319948D01*
X-12093Y319530D01*
X-12959Y318865D01*
X-13625Y317998D01*
X-14043Y316989D01*
X-14185Y315905D01*
X-14043Y314822D01*
X-13625Y313813D01*
X-12959Y312946D01*
X-12093Y312281D01*
X-11083Y311863D01*
X-10000Y311720D01*
X-8917Y311863D01*
X-7907Y312281D01*
X-7040Y312946D01*
X-6375Y313813D01*
X-5957Y314822D01*
X-5815Y315905D01*
X-5957Y316989D01*
X-6375Y317998D01*
X-7040Y318865D01*
X-7907Y319530D01*
X-8917Y319948D01*
X-10000Y320091D01*
D02*
G37*
G36*
X-20000D02*
X-21083Y319948D01*
X-22093Y319530D01*
X-22960Y318865D01*
X-23625Y317998D01*
X-24043Y316989D01*
X-24185Y315905D01*
X-24043Y314822D01*
X-23625Y313813D01*
X-22960Y312946D01*
X-22093Y312281D01*
X-21083Y311863D01*
X-20000Y311720D01*
X-18917Y311863D01*
X-17907Y312281D01*
X-17041Y312946D01*
X-16375Y313813D01*
X-15957Y314822D01*
X-15815Y315905D01*
X-15957Y316989D01*
X-16375Y317998D01*
X-17041Y318865D01*
X-17907Y319530D01*
X-18917Y319948D01*
X-20000Y320091D01*
D02*
G37*
G36*
X-86893Y313992D02*
X-89952D01*
Y310638D01*
X-86893D01*
Y313992D01*
D02*
G37*
G36*
X81433Y310449D02*
X76086D01*
Y309207D01*
X42327D01*
X41558Y309720D01*
X40630Y309905D01*
X39702Y309720D01*
X38933Y309207D01*
X-8303Y309207D01*
X-9072Y309720D01*
X-10000Y309905D01*
X-10928Y309720D01*
X-11697Y309207D01*
X-58933D01*
X-59702Y309720D01*
X-60630Y309905D01*
X-61558Y309720D01*
X-62344Y309195D01*
X-62870Y308408D01*
X-63055Y307481D01*
X-62870Y306553D01*
X-62702Y306301D01*
X-62938Y305860D01*
X-68792D01*
X-68915Y306046D01*
X-69702Y306571D01*
X-70630Y306756D01*
X-71558Y306571D01*
X-72344Y306046D01*
X-72870Y305259D01*
X-73054Y304331D01*
X-72870Y303403D01*
X-72344Y302617D01*
X-71558Y302091D01*
X-70630Y301907D01*
X-69702Y302091D01*
X-68915Y302617D01*
X-68792Y302801D01*
X-45867D01*
X-42526Y300261D01*
X-42870Y299747D01*
X-43055Y298819D01*
X-42870Y297891D01*
X-42344Y297105D01*
X-41558Y296579D01*
X-40630Y296394D01*
X-39702Y296579D01*
X-38916Y297105D01*
X-38792Y297290D01*
X-37642D01*
X-32936Y294881D01*
X-32870Y294629D01*
X-33055Y293701D01*
X-32870Y292773D01*
X-32344Y291986D01*
X-31558Y291461D01*
X-30630Y291276D01*
X-29702Y291461D01*
X-28916Y291986D01*
X-28792Y292172D01*
X18162D01*
X18286Y291986D01*
X19072Y291461D01*
X20000Y291276D01*
X20928Y291461D01*
X21714Y291986D01*
X21838Y292172D01*
X68792Y292172D01*
X68915Y291986D01*
X69702Y291461D01*
X70630Y291276D01*
X71558Y291461D01*
X72344Y291986D01*
X72468Y292172D01*
X75513D01*
X76086Y291598D01*
Y288370D01*
X81433D01*
Y293882D01*
Y299393D01*
Y304905D01*
Y310449D01*
D02*
G37*
G36*
X-86893Y309638D02*
X-89952D01*
Y306284D01*
X-86893D01*
Y309638D01*
D02*
G37*
G36*
X208136Y331135D02*
X206121Y331083D01*
X204138Y330715D01*
X202237Y330042D01*
X200465Y329080D01*
X198865Y327852D01*
X197477Y326390D01*
X196335Y324728D01*
X195467Y322908D01*
X194894Y320974D01*
X194631Y318975D01*
X194684Y316959D01*
X195051Y314976D01*
X195724Y313075D01*
X196686Y311303D01*
X197914Y309704D01*
X199377Y308315D01*
X201039Y307173D01*
X201320Y307039D01*
X201207Y306539D01*
X119291D01*
X118748Y306431D01*
X118287Y306123D01*
X117119Y304955D01*
X116795Y305019D01*
X113448D01*
X112597Y304850D01*
X111876Y304368D01*
X111394Y303647D01*
X111224Y302796D01*
X111394Y301944D01*
X111876Y301223D01*
X112597Y300741D01*
X113448Y300572D01*
X116795D01*
X117646Y300741D01*
X118367Y301223D01*
X118849Y301944D01*
X119018Y302796D01*
X119012Y302829D01*
X119880Y303697D01*
X195456D01*
X195584Y303197D01*
X195035Y302398D01*
X194855Y301892D01*
X198691Y301077D01*
X202526Y300261D01*
X202568Y300796D01*
X202387Y301773D01*
X202421Y301813D01*
X202952Y301916D01*
X204746Y300121D01*
X204468Y299337D01*
X204387Y298300D01*
X204576Y297276D01*
X205025Y296337D01*
X205701Y295546D01*
X206558Y294956D01*
X207539Y294609D01*
X208577Y294527D01*
X209600Y294717D01*
X210540Y295165D01*
X211331Y295841D01*
X211921Y296698D01*
X212268Y297680D01*
X212350Y298717D01*
X212160Y299741D01*
X211712Y300680D01*
X211036Y301471D01*
X210178Y302061D01*
X209197Y302408D01*
X208160Y302490D01*
X207136Y302300D01*
X206764Y302123D01*
X203205Y305681D01*
X203469Y306124D01*
X204792Y305732D01*
X206791Y305469D01*
X208807Y305522D01*
X210790Y305890D01*
X212691Y306563D01*
X214463Y307525D01*
X216063Y308752D01*
X217451Y310215D01*
X218593Y311877D01*
X219461Y313697D01*
X220034Y315631D01*
X220297Y317630D01*
X220244Y319646D01*
X219877Y321628D01*
X219203Y323529D01*
X218241Y325301D01*
X217014Y326901D01*
X215551Y328289D01*
X213889Y329431D01*
X212069Y330299D01*
X210136Y330872D01*
X208136Y331135D01*
D02*
G37*
G36*
X87535Y310449D02*
X82189D01*
Y304905D01*
Y299393D01*
Y293882D01*
Y288370D01*
X85416D01*
X87707Y286079D01*
Y285232D01*
X87823Y284647D01*
X88155Y284151D01*
X89832Y282474D01*
X89937Y281944D01*
X90419Y281223D01*
X91140Y280741D01*
X91991Y280572D01*
X95338D01*
X96189Y280741D01*
X96910Y281223D01*
X97392Y281944D01*
X97562Y282796D01*
X97392Y283647D01*
X96910Y284368D01*
X96189Y284850D01*
X95338Y285019D01*
X91991D01*
X91948Y285011D01*
X91896Y285082D01*
X91921Y285212D01*
X92155Y285572D01*
X95338D01*
X96189Y285741D01*
X96910Y286223D01*
X97392Y286945D01*
X97562Y287796D01*
X97392Y288647D01*
X96910Y289368D01*
X96189Y289850D01*
X95338Y290019D01*
X91991D01*
X91832Y289988D01*
X91737Y290113D01*
X91960Y290515D01*
X92014Y290572D01*
X95338D01*
X96189Y290741D01*
X96910Y291223D01*
X97392Y291945D01*
X97562Y292796D01*
X97392Y293647D01*
X96910Y294368D01*
X96189Y294850D01*
X95338Y295019D01*
X91991D01*
X91948Y295011D01*
X91896Y295082D01*
X91921Y295212D01*
X92155Y295572D01*
X95338D01*
X96189Y295741D01*
X96910Y296223D01*
X97392Y296944D01*
X97562Y297796D01*
X97392Y298647D01*
X96910Y299368D01*
X96189Y299850D01*
X95338Y300019D01*
X92433D01*
X92401Y300072D01*
X92681Y300572D01*
X95338D01*
X96189Y300741D01*
X96910Y301223D01*
X96939Y301266D01*
X98385D01*
X98508Y301081D01*
X99295Y300556D01*
X100223Y300371D01*
X101151Y300556D01*
X101937Y301081D01*
X102463Y301868D01*
X102647Y302796D01*
X102463Y303723D01*
X101937Y304510D01*
X101151Y305035D01*
X100223Y305220D01*
X99295Y305035D01*
X98508Y304510D01*
X98385Y304325D01*
X96939D01*
X96910Y304368D01*
X96189Y304850D01*
X95338Y305019D01*
X91991D01*
X91140Y304850D01*
X90419Y304368D01*
X90341Y304360D01*
X87535Y307166D01*
Y310449D01*
D02*
G37*
G36*
X-64952Y289642D02*
Y287862D01*
X-62582D01*
Y289642D01*
X-64952D01*
D02*
G37*
G36*
X36308Y289642D02*
Y287862D01*
X38678D01*
Y289642D01*
X36308D01*
D02*
G37*
G36*
X-14322Y289641D02*
Y287862D01*
X-11952D01*
Y289641D01*
X-14322D01*
D02*
G37*
G36*
X29520Y289484D02*
X27248D01*
Y287311D01*
X29520D01*
Y289484D01*
D02*
G37*
G36*
X-71739Y289484D02*
X-74011D01*
Y287311D01*
X-71739D01*
Y289484D01*
D02*
G37*
G36*
X-21110Y289484D02*
X-23381D01*
Y287310D01*
X-21110D01*
Y289484D01*
D02*
G37*
G36*
X-50709Y286185D02*
X-51637Y286000D01*
X-52423Y285474D01*
X-52547Y285289D01*
X-53330D01*
Y286039D01*
X-59070D01*
Y281480D01*
X-53330D01*
Y282231D01*
X-52547D01*
X-52423Y282046D01*
X-51637Y281520D01*
X-50709Y281335D01*
X-49781Y281520D01*
X-48995Y282046D01*
X-48469Y282832D01*
X-48285Y283760D01*
X-48469Y284688D01*
X-48995Y285474D01*
X-49781Y286000D01*
X-50709Y286185D01*
D02*
G37*
G36*
X50551Y286185D02*
X49623Y286000D01*
X48836Y285474D01*
X48713Y285289D01*
X47930D01*
Y286039D01*
X42190D01*
Y281480D01*
X47930D01*
Y282231D01*
X48713D01*
X48836Y282046D01*
X49623Y281520D01*
X50551Y281335D01*
X51479Y281520D01*
X52265Y282046D01*
X52791Y282832D01*
X52975Y283760D01*
X52791Y284688D01*
X52265Y285474D01*
X51479Y286000D01*
X50551Y286185D01*
D02*
G37*
G36*
X-79Y286184D02*
X-1007Y286000D01*
X-1794Y285474D01*
X-1917Y285289D01*
X-2700D01*
Y286039D01*
X-8440D01*
Y281480D01*
X-2700D01*
Y282230D01*
X-1917D01*
X-1794Y282045D01*
X-1007Y281520D01*
X-79Y281335D01*
X849Y281520D01*
X1635Y282045D01*
X2161Y282832D01*
X2345Y283760D01*
X2161Y284688D01*
X1635Y285474D01*
X849Y286000D01*
X-79Y286184D01*
D02*
G37*
G36*
X-62582Y286862D02*
X-64952D01*
Y285083D01*
X-62582D01*
Y286862D01*
D02*
G37*
G36*
X38678Y286862D02*
X36308D01*
Y285083D01*
X38678D01*
Y286862D01*
D02*
G37*
G36*
X-11952Y286862D02*
X-14322D01*
Y285082D01*
X-11952D01*
Y286862D01*
D02*
G37*
G36*
X32938Y289642D02*
X32503Y289484D01*
X30520D01*
Y286811D01*
Y284138D01*
X32792D01*
Y284643D01*
X32938Y285083D01*
X33292Y285083D01*
X35308D01*
Y287362D01*
X35808D01*
D01*
X35308D01*
Y289642D01*
X33008Y289642D01*
X32938D01*
D02*
G37*
G36*
X29520Y286311D02*
X27248D01*
Y284138D01*
X29520D01*
Y286311D01*
D02*
G37*
G36*
X-68322Y289642D02*
X-68757Y289484D01*
X-70739D01*
Y286811D01*
Y284137D01*
X-68468D01*
Y284643D01*
X-68322Y285083D01*
X-67968Y285083D01*
X-65952D01*
Y287362D01*
Y289642D01*
X-68251Y289642D01*
X-68322D01*
D02*
G37*
G36*
X-71739Y286311D02*
X-74011D01*
Y284137D01*
X-71739D01*
Y286311D01*
D02*
G37*
G36*
X-17692Y289641D02*
X-18127Y289484D01*
X-20109D01*
Y286810D01*
Y284137D01*
X-17838D01*
Y284643D01*
X-17692Y285082D01*
X-17338Y285082D01*
X-15322D01*
Y287362D01*
X-14822D01*
D01*
X-15322D01*
Y289641D01*
X-17621Y289641D01*
X-17692D01*
D02*
G37*
G36*
X-21110Y286310D02*
X-23381D01*
Y284137D01*
X-21110D01*
Y286310D01*
D02*
G37*
G36*
X108063Y282296D02*
X106238D01*
X106323Y281868D01*
X106849Y281081D01*
X107635Y280556D01*
X108063Y280470D01*
Y282296D01*
D02*
G37*
G36*
X95338Y280019D02*
X91991D01*
X91140Y279850D01*
X90419Y279368D01*
X90390Y279325D01*
X88036D01*
X87451Y279208D01*
X86955Y278877D01*
X85416Y277338D01*
X82189D01*
Y271795D01*
X82189Y271795D01*
Y271728D01*
X82189D01*
X82189Y271295D01*
Y266185D01*
X82189Y266185D01*
Y266118D01*
X82189D01*
X82189Y265685D01*
Y260574D01*
X87535D01*
Y263911D01*
X89890Y266266D01*
X90390D01*
X90419Y266223D01*
X91140Y265741D01*
X91991Y265572D01*
X95338D01*
X96189Y265741D01*
X96910Y266223D01*
X97392Y266945D01*
X97562Y267796D01*
X97392Y268647D01*
X96910Y269368D01*
X96189Y269850D01*
X95338Y270019D01*
X91991D01*
X91140Y269850D01*
X90419Y269368D01*
X90390Y269325D01*
X89257D01*
X88672Y269208D01*
X88175Y268877D01*
X87997Y268698D01*
X87535Y268890D01*
Y269521D01*
X89280Y271266D01*
X90390D01*
X90419Y271223D01*
X91140Y270741D01*
X91991Y270572D01*
X95338D01*
X96189Y270741D01*
X96910Y271223D01*
X97392Y271944D01*
X97562Y272796D01*
X97392Y273647D01*
X96910Y274368D01*
X96189Y274850D01*
X95338Y275019D01*
X91991D01*
X91140Y274850D01*
X90419Y274368D01*
X90390Y274325D01*
X88647D01*
X88061Y274208D01*
X88035Y274191D01*
X87535Y274458D01*
Y275131D01*
X88670Y276266D01*
X90390D01*
X90419Y276223D01*
X91140Y275741D01*
X91991Y275572D01*
X95338D01*
X96189Y275741D01*
X96910Y276223D01*
X97392Y276944D01*
X97562Y277796D01*
X97392Y278647D01*
X96910Y279368D01*
X96189Y279850D01*
X95338Y280019D01*
D02*
G37*
G36*
X201922Y273146D02*
X200899Y272956D01*
X199960Y272508D01*
X199168Y271832D01*
X198579Y270974D01*
X198399Y270468D01*
X201746Y269757D01*
X202457Y273103D01*
X201922Y273146D01*
D02*
G37*
G36*
X203435Y272896D02*
X202724Y269549D01*
X206070Y268838D01*
X206112Y269373D01*
X205923Y270396D01*
X205475Y271336D01*
X204799Y272127D01*
X203941Y272716D01*
X203435Y272896D01*
D02*
G37*
G36*
X108063Y270121D02*
X107635Y270036D01*
X106849Y269510D01*
X106323Y268723D01*
X106238Y268296D01*
X108063D01*
Y270121D01*
D02*
G37*
G36*
X192141Y275225D02*
X191117Y275035D01*
X190178Y274587D01*
X189387Y273911D01*
X188797Y273053D01*
X188450Y272072D01*
X188368Y271035D01*
X188558Y270011D01*
X189006Y269072D01*
X189682Y268280D01*
X190540Y267691D01*
X191521Y267343D01*
X192558Y267262D01*
X193581Y267452D01*
X194521Y267899D01*
X195312Y268576D01*
X195902Y269433D01*
X196249Y270414D01*
X196331Y271452D01*
X196141Y272475D01*
X195693Y273415D01*
X195017Y274206D01*
X194159Y274796D01*
X193178Y275143D01*
X192141Y275225D01*
D02*
G37*
G36*
X109063Y270121D02*
Y267796D01*
Y265471D01*
X109491Y265556D01*
X110278Y266081D01*
X110803Y266868D01*
X110851Y267109D01*
X111361D01*
X111394Y266945D01*
X111876Y266223D01*
X112597Y265741D01*
X113448Y265572D01*
X114621D01*
Y267796D01*
Y270019D01*
X113448D01*
X112597Y269850D01*
X111876Y269368D01*
X111394Y268647D01*
X111361Y268482D01*
X110851D01*
X110803Y268723D01*
X110278Y269510D01*
X109491Y270036D01*
X109063Y270121D01*
D02*
G37*
G36*
X108063Y267296D02*
X106238D01*
X106323Y266868D01*
X106849Y266081D01*
X107635Y265556D01*
X108063Y265471D01*
Y267296D01*
D02*
G37*
G36*
X198192Y269490D02*
X198150Y268955D01*
X198339Y267932D01*
X198787Y266993D01*
X199463Y266201D01*
X200321Y265612D01*
X200827Y265433D01*
X201538Y268779D01*
X198192Y269490D01*
D02*
G37*
G36*
X202516Y268571D02*
X201805Y265225D01*
X202340Y265183D01*
X203363Y265372D01*
X204302Y265820D01*
X205094Y266496D01*
X205683Y267354D01*
X205862Y267860D01*
X202516Y268571D01*
D02*
G37*
G36*
X199843Y263364D02*
X198820Y263174D01*
X197880Y262726D01*
X197089Y262050D01*
X196500Y261193D01*
X196152Y260211D01*
X196070Y259174D01*
X196260Y258151D01*
X196708Y257211D01*
X197384Y256420D01*
X198242Y255830D01*
X199223Y255483D01*
X200260Y255401D01*
X201284Y255591D01*
X202223Y256039D01*
X203015Y256715D01*
X203604Y257573D01*
X203952Y258554D01*
X204033Y259591D01*
X203843Y260615D01*
X203396Y261554D01*
X202719Y262345D01*
X201862Y262935D01*
X200881Y263282D01*
X199843Y263364D01*
D02*
G37*
G36*
X-30630Y260091D02*
X-31713Y259948D01*
X-32723Y259530D01*
X-33589Y258865D01*
X-34255Y257998D01*
X-34673Y256989D01*
X-34815Y255906D01*
X-34673Y254822D01*
X-34255Y253813D01*
X-33589Y252946D01*
X-32723Y252281D01*
X-31713Y251863D01*
X-30630Y251720D01*
X-29547Y251863D01*
X-28537Y252281D01*
X-27670Y252946D01*
X-27005Y253813D01*
X-26587Y254822D01*
X-26445Y255906D01*
X-26587Y256989D01*
X-27005Y257998D01*
X-27670Y258865D01*
X-28537Y259530D01*
X-29547Y259948D01*
X-30630Y260091D01*
D02*
G37*
G36*
X-40630D02*
X-41713Y259948D01*
X-42723Y259530D01*
X-43589Y258865D01*
X-44255Y257998D01*
X-44673Y256989D01*
X-44815Y255906D01*
X-44673Y254822D01*
X-44255Y253813D01*
X-43589Y252946D01*
X-42723Y252281D01*
X-41713Y251863D01*
X-40630Y251720D01*
X-39547Y251863D01*
X-38537Y252281D01*
X-37670Y252946D01*
X-37005Y253813D01*
X-36587Y254822D01*
X-36445Y255906D01*
X-36587Y256989D01*
X-37005Y257998D01*
X-37670Y258865D01*
X-38537Y259530D01*
X-39547Y259948D01*
X-40630Y260091D01*
D02*
G37*
G36*
X-50630D02*
X-51713Y259948D01*
X-52723Y259530D01*
X-53589Y258865D01*
X-54255Y257998D01*
X-54673Y256989D01*
X-54815Y255906D01*
X-54673Y254822D01*
X-54255Y253813D01*
X-53589Y252946D01*
X-52723Y252281D01*
X-51713Y251863D01*
X-50630Y251720D01*
X-49547Y251863D01*
X-48537Y252281D01*
X-47670Y252946D01*
X-47005Y253813D01*
X-46587Y254822D01*
X-46444Y255906D01*
X-46587Y256989D01*
X-47005Y257998D01*
X-47670Y258865D01*
X-48537Y259530D01*
X-49547Y259948D01*
X-50630Y260091D01*
D02*
G37*
G36*
X-60630D02*
X-61713Y259948D01*
X-62723Y259530D01*
X-63589Y258865D01*
X-64255Y257998D01*
X-64673Y256989D01*
X-64815Y255906D01*
X-64673Y254822D01*
X-64255Y253813D01*
X-63589Y252946D01*
X-62723Y252281D01*
X-61713Y251863D01*
X-60630Y251720D01*
X-59547Y251863D01*
X-58537Y252281D01*
X-57670Y252946D01*
X-57005Y253813D01*
X-56587Y254822D01*
X-56445Y255906D01*
X-56587Y256989D01*
X-57005Y257998D01*
X-57670Y258865D01*
X-58537Y259530D01*
X-59547Y259948D01*
X-60630Y260091D01*
D02*
G37*
G36*
X70630Y260091D02*
X69547Y259948D01*
X68537Y259530D01*
X67670Y258865D01*
X67005Y257998D01*
X66587Y256989D01*
X66444Y255906D01*
X66587Y254822D01*
X67005Y253813D01*
X67670Y252946D01*
X68537Y252281D01*
X69547Y251863D01*
X70630Y251720D01*
X71713Y251863D01*
X72723Y252281D01*
X73589Y252946D01*
X74255Y253813D01*
X74673Y254822D01*
X74815Y255906D01*
X74673Y256989D01*
X74255Y257998D01*
X73589Y258865D01*
X72723Y259530D01*
X71713Y259948D01*
X70630Y260091D01*
D02*
G37*
G36*
X60630D02*
X59547Y259948D01*
X58537Y259530D01*
X57670Y258865D01*
X57005Y257998D01*
X56587Y256989D01*
X56445Y255906D01*
X56587Y254822D01*
X57005Y253813D01*
X57670Y252946D01*
X58537Y252281D01*
X59547Y251863D01*
X60630Y251720D01*
X61713Y251863D01*
X62723Y252281D01*
X63589Y252946D01*
X64255Y253813D01*
X64673Y254822D01*
X64815Y255906D01*
X64673Y256989D01*
X64255Y257998D01*
X63589Y258865D01*
X62723Y259530D01*
X61713Y259948D01*
X60630Y260091D01*
D02*
G37*
G36*
X50630D02*
X49547Y259948D01*
X48537Y259530D01*
X47670Y258865D01*
X47005Y257998D01*
X46587Y256989D01*
X46444Y255906D01*
X46587Y254822D01*
X47005Y253813D01*
X47670Y252946D01*
X48537Y252281D01*
X49547Y251863D01*
X50630Y251720D01*
X51713Y251863D01*
X52723Y252281D01*
X53589Y252946D01*
X54255Y253813D01*
X54673Y254822D01*
X54815Y255906D01*
X54673Y256989D01*
X54255Y257998D01*
X53589Y258865D01*
X52723Y259530D01*
X51713Y259948D01*
X50630Y260091D01*
D02*
G37*
G36*
X40630D02*
X39547Y259948D01*
X38537Y259530D01*
X37670Y258865D01*
X37005Y257998D01*
X36587Y256989D01*
X36445Y255906D01*
X36587Y254822D01*
X37005Y253813D01*
X37670Y252946D01*
X38537Y252281D01*
X39547Y251863D01*
X40630Y251720D01*
X41713Y251863D01*
X42723Y252281D01*
X43589Y252946D01*
X44255Y253813D01*
X44673Y254822D01*
X44815Y255906D01*
X44673Y256989D01*
X44255Y257998D01*
X43589Y258865D01*
X42723Y259530D01*
X41713Y259948D01*
X40630Y260091D01*
D02*
G37*
G36*
X30630D02*
X29547Y259948D01*
X28537Y259530D01*
X27670Y258865D01*
X27005Y257998D01*
X26587Y256989D01*
X26445Y255906D01*
X26587Y254822D01*
X27005Y253813D01*
X27670Y252946D01*
X28537Y252281D01*
X29547Y251863D01*
X30630Y251720D01*
X31713Y251863D01*
X32723Y252281D01*
X33589Y252946D01*
X34255Y253813D01*
X34673Y254822D01*
X34815Y255906D01*
X34673Y256989D01*
X34255Y257998D01*
X33589Y258865D01*
X32723Y259530D01*
X31713Y259948D01*
X30630Y260091D01*
D02*
G37*
G36*
X20000Y260091D02*
X18917Y259948D01*
X17907Y259530D01*
X17041Y258865D01*
X16375Y257998D01*
X15957Y256989D01*
X15815Y255906D01*
X15957Y254822D01*
X16375Y253813D01*
X17041Y252946D01*
X17907Y252281D01*
X18917Y251863D01*
X20000Y251720D01*
X21083Y251863D01*
X22093Y252281D01*
X22960Y252946D01*
X23625Y253813D01*
X24043Y254822D01*
X24185Y255906D01*
X24043Y256989D01*
X23625Y257998D01*
X22960Y258865D01*
X22093Y259530D01*
X21083Y259948D01*
X20000Y260091D01*
D02*
G37*
G36*
X10000D02*
X8917Y259948D01*
X7907Y259530D01*
X7040Y258865D01*
X6375Y257998D01*
X5957Y256989D01*
X5815Y255906D01*
X5957Y254822D01*
X6375Y253813D01*
X7040Y252946D01*
X7907Y252281D01*
X8917Y251863D01*
X10000Y251720D01*
X11083Y251863D01*
X12093Y252281D01*
X12959Y252946D01*
X13625Y253813D01*
X14043Y254822D01*
X14185Y255906D01*
X14043Y256989D01*
X13625Y257998D01*
X12959Y258865D01*
X12093Y259530D01*
X11083Y259948D01*
X10000Y260091D01*
D02*
G37*
G36*
X0D02*
X-1083Y259948D01*
X-2093Y259530D01*
X-2960Y258865D01*
X-3625Y257998D01*
X-4043Y256989D01*
X-4185Y255906D01*
X-4043Y254822D01*
X-3625Y253813D01*
X-2960Y252946D01*
X-2093Y252281D01*
X-1083Y251863D01*
X0Y251720D01*
X1083Y251863D01*
X2093Y252281D01*
X2960Y252946D01*
X3625Y253813D01*
X4043Y254822D01*
X4185Y255906D01*
X4043Y256989D01*
X3625Y257998D01*
X2960Y258865D01*
X2093Y259530D01*
X1083Y259948D01*
X0Y260091D01*
D02*
G37*
G36*
X-10000D02*
X-11083Y259948D01*
X-12093Y259530D01*
X-12959Y258865D01*
X-13625Y257998D01*
X-14043Y256989D01*
X-14185Y255906D01*
X-14043Y254822D01*
X-13625Y253813D01*
X-12959Y252946D01*
X-12093Y252281D01*
X-11083Y251863D01*
X-10000Y251720D01*
X-8917Y251863D01*
X-7907Y252281D01*
X-7040Y252946D01*
X-6375Y253813D01*
X-5957Y254822D01*
X-5815Y255906D01*
X-5957Y256989D01*
X-6375Y257998D01*
X-7040Y258865D01*
X-7907Y259530D01*
X-8917Y259948D01*
X-10000Y260091D01*
D02*
G37*
G36*
X-20000D02*
X-21083Y259948D01*
X-22093Y259530D01*
X-22960Y258865D01*
X-23625Y257998D01*
X-24043Y256989D01*
X-24185Y255906D01*
X-24043Y254822D01*
X-23625Y253813D01*
X-22960Y252946D01*
X-22093Y252281D01*
X-21083Y251863D01*
X-20000Y251720D01*
X-18917Y251863D01*
X-17907Y252281D01*
X-17041Y252946D01*
X-16375Y253813D01*
X-15957Y254822D01*
X-15815Y255906D01*
X-15957Y256989D01*
X-16375Y257998D01*
X-17041Y258865D01*
X-17907Y259530D01*
X-18917Y259948D01*
X-20000Y260091D01*
D02*
G37*
G36*
X197764Y253583D02*
X196741Y253393D01*
X195801Y252945D01*
X195010Y252269D01*
X194420Y251411D01*
X194241Y250905D01*
X197588Y250194D01*
X198299Y253540D01*
X197764Y253583D01*
D02*
G37*
G36*
X199277Y253332D02*
X198566Y249986D01*
X201912Y249275D01*
X201954Y249810D01*
X201764Y250833D01*
X201316Y251772D01*
X200640Y252564D01*
X199783Y253153D01*
X199277Y253332D01*
D02*
G37*
G36*
X163582Y258725D02*
X162654Y258540D01*
X161868Y258015D01*
X161342Y257228D01*
X161158Y256300D01*
X161342Y255373D01*
X161868Y254586D01*
X162053Y254462D01*
Y251832D01*
X162090Y251648D01*
Y249553D01*
X167830D01*
X167996Y249122D01*
Y248609D01*
X173539D01*
Y253956D01*
X167996D01*
X167830Y254112D01*
Y254112D01*
X165487D01*
X165344Y254468D01*
X165314Y254612D01*
X165822Y255373D01*
X166007Y256300D01*
X165822Y257228D01*
X165297Y258015D01*
X164510Y258540D01*
X163582Y258725D01*
D02*
G37*
G36*
X194033Y249927D02*
X193991Y249393D01*
X194181Y248369D01*
X194629Y247430D01*
X195305Y246638D01*
X196163Y246049D01*
X196668Y245870D01*
X197380Y249216D01*
X194033Y249927D01*
D02*
G37*
G36*
X198358Y249008D02*
X197646Y245662D01*
X198181Y245620D01*
X199205Y245809D01*
X200144Y246257D01*
X200936Y246933D01*
X201525Y247791D01*
X201704Y248297D01*
X198358Y249008D01*
D02*
G37*
G36*
X195685Y243801D02*
X194662Y243611D01*
X193722Y243163D01*
X192931Y242487D01*
X192341Y241630D01*
X191994Y240649D01*
X191912Y239611D01*
X192102Y238588D01*
X192550Y237648D01*
X193226Y236857D01*
X194084Y236267D01*
X195065Y235920D01*
X196102Y235838D01*
X197126Y236028D01*
X198065Y236476D01*
X198856Y237152D01*
X199446Y238010D01*
X199793Y238991D01*
X199875Y240028D01*
X199685Y241052D01*
X199237Y241991D01*
X198561Y242782D01*
X197704Y243372D01*
X196722Y243719D01*
X195685Y243801D01*
D02*
G37*
G36*
X157800Y244987D02*
X156872Y244802D01*
X156085Y244276D01*
X155560Y243490D01*
X155375Y242562D01*
X155560Y241634D01*
X156085Y240848D01*
X156270Y240724D01*
Y238094D01*
X156307Y237909D01*
Y235814D01*
X162047D01*
X162214Y235383D01*
Y234883D01*
X167757D01*
Y240229D01*
X162214D01*
X162047Y240373D01*
Y240373D01*
X159705D01*
X159562Y240729D01*
X159531Y240874D01*
X160040Y241634D01*
X160224Y242562D01*
X160040Y243490D01*
X159514Y244276D01*
X158728Y244802D01*
X157800Y244987D01*
D02*
G37*
G36*
X146891Y237153D02*
X141348D01*
Y236010D01*
X136842D01*
X136257Y235893D01*
X135761Y235562D01*
X110041Y209841D01*
X109709Y209345D01*
X109593Y208760D01*
Y192637D01*
X109093Y192587D01*
X109031Y192896D01*
X108506Y193682D01*
X107719Y194208D01*
X106791Y194393D01*
X105863Y194208D01*
X105077Y193682D01*
X104551Y192896D01*
X104367Y191968D01*
X104551Y191040D01*
X104969Y190415D01*
Y187713D01*
X104020D01*
Y182366D01*
X109240Y182366D01*
X109468Y181988D01*
X109240Y181610D01*
X104020D01*
Y178743D01*
X67159Y141882D01*
X-174998D01*
X-175696Y141743D01*
X-176287Y141348D01*
X-176287Y141348D01*
X-192999Y124636D01*
X-193159Y124713D01*
X-194284Y124922D01*
X-195425Y124832D01*
X-196504Y124450D01*
X-197447Y123802D01*
X-198191Y122931D01*
X-198683Y121898D01*
X-198892Y120773D01*
X-198802Y119632D01*
X-198420Y118553D01*
X-197772Y117610D01*
X-196902Y116867D01*
X-195869Y116374D01*
X-194743Y116166D01*
X-193603Y116255D01*
X-192524Y116637D01*
X-191580Y117286D01*
X-190837Y118156D01*
X-190345Y119189D01*
X-190136Y120314D01*
X-190226Y121455D01*
X-190435Y122045D01*
X-174244Y138237D01*
X67913D01*
X67913Y138237D01*
X68611Y138375D01*
X69202Y138770D01*
X106695Y176264D01*
X109563Y176264D01*
X109593Y175776D01*
Y172480D01*
X109093Y172431D01*
X109031Y172739D01*
X108506Y173526D01*
X107719Y174051D01*
X107291Y174137D01*
Y171811D01*
Y169486D01*
X107719Y169571D01*
X108506Y170097D01*
X109031Y170884D01*
X109093Y171192D01*
X109593Y171143D01*
Y110181D01*
X63048Y63636D01*
X-16469D01*
X-16593Y63821D01*
X-17379Y64346D01*
X-18307Y64531D01*
X-19235Y64346D01*
X-20021Y63821D01*
X-20547Y63034D01*
X-20732Y62106D01*
X-20547Y61178D01*
X-20021Y60392D01*
X-19235Y59866D01*
X-18307Y59682D01*
X-17379Y59866D01*
X-16593Y60392D01*
X-16469Y60577D01*
X-9498D01*
X-9231Y60077D01*
X-9425Y59786D01*
X-9610Y58858D01*
X-9425Y57930D01*
X-9231Y57640D01*
X-9498Y57140D01*
X-13319D01*
X-13443Y57325D01*
X-14230Y57850D01*
X-15157Y58035D01*
X-16085Y57850D01*
X-16872Y57325D01*
X-17398Y56538D01*
X-17582Y55610D01*
X-17398Y54682D01*
X-16872Y53896D01*
X-16085Y53370D01*
X-15157Y53186D01*
X-14230Y53370D01*
X-13652Y53756D01*
X-13291Y53396D01*
X-13362Y53290D01*
X-13547Y52362D01*
X-13362Y51434D01*
X-12836Y50648D01*
X-12050Y50122D01*
X-11122Y49938D01*
X-10194Y50122D01*
X-9408Y50648D01*
X-9284Y50833D01*
X69882D01*
X70467Y50949D01*
X70963Y51281D01*
X70963Y51281D01*
X127853Y108171D01*
X128185Y108667D01*
X128301Y109252D01*
Y190603D01*
X129544D01*
X129708Y190997D01*
X130673D01*
X130816Y190641D01*
X130847Y190497D01*
X130338Y189736D01*
X130154Y188808D01*
X130338Y187881D01*
X130864Y187094D01*
X131650Y186568D01*
X132578Y186384D01*
X133506Y186568D01*
X134293Y187094D01*
X134818Y187881D01*
X135003Y188808D01*
X134818Y189736D01*
X134310Y190497D01*
X134340Y190641D01*
X134483Y190997D01*
X135448D01*
Y195556D01*
X129708D01*
X129544Y195950D01*
X129429D01*
Y196706D01*
X129544D01*
Y202052D01*
X129034D01*
X128767Y202552D01*
X129012Y202919D01*
X129197Y203847D01*
X129012Y204775D01*
X128815Y205069D01*
X129051Y205510D01*
X129783D01*
Y204366D01*
X130309D01*
X130576Y203866D01*
X130314Y203475D01*
X130130Y202547D01*
X130314Y201619D01*
X130840Y200832D01*
X131626Y200307D01*
X132554Y200122D01*
X133482Y200307D01*
X134269Y200832D01*
X134794Y201619D01*
X134979Y202547D01*
X134794Y203475D01*
X134532Y203866D01*
X134800Y204366D01*
X135326D01*
X135491Y204735D01*
X141231D01*
Y209294D01*
X135491D01*
X135326Y209713D01*
X135212D01*
Y210469D01*
X135326D01*
Y215815D01*
X134816D01*
X134549Y216315D01*
X134794Y216682D01*
X134979Y217610D01*
X134794Y218538D01*
X134655Y218747D01*
X134890Y219188D01*
X135565D01*
Y218044D01*
X136075D01*
X136342Y217544D01*
X136097Y217177D01*
X135912Y216249D01*
X136097Y215321D01*
X136623Y214535D01*
X137409Y214009D01*
X138337Y213825D01*
X139265Y214009D01*
X140051Y214535D01*
X140577Y215321D01*
X140761Y216249D01*
X140577Y217177D01*
X140332Y217544D01*
X140599Y218044D01*
X141109D01*
X141273Y218474D01*
X147013D01*
Y223033D01*
X141273D01*
X141109Y223390D01*
X141013D01*
X140994Y223417D01*
Y224146D01*
X141109D01*
Y229493D01*
X140599D01*
X140332Y229993D01*
X140577Y230360D01*
X140761Y231288D01*
X140577Y232215D01*
X140380Y232510D01*
X140616Y232951D01*
X141348D01*
Y231807D01*
X146891D01*
X147055Y232212D01*
X152795D01*
Y236771D01*
X147055D01*
X146891Y237153D01*
D02*
G37*
G36*
X173539Y247854D02*
X167996D01*
Y247338D01*
X167830Y246907D01*
X162090D01*
Y242348D01*
X167830D01*
Y242348D01*
X167996Y242507D01*
X173539D01*
Y242838D01*
X174001Y243029D01*
X180808Y236222D01*
X181305Y235890D01*
X181542Y235843D01*
X181680Y235306D01*
X181070Y234785D01*
X180481Y233927D01*
X180302Y233422D01*
X184137Y232606D01*
X187972Y231791D01*
X188014Y232326D01*
X187868Y233114D01*
X188332Y233358D01*
X190152Y231538D01*
X189915Y230867D01*
X189833Y229830D01*
X190023Y228806D01*
X190471Y227867D01*
X191147Y227075D01*
X192005Y226486D01*
X192985Y226138D01*
X194023Y226057D01*
X195046Y226247D01*
X195986Y226694D01*
X196777Y227371D01*
X197367Y228228D01*
X197714Y229209D01*
X197796Y230247D01*
X197606Y231270D01*
X197158Y232210D01*
X196482Y233001D01*
X195624Y233591D01*
X194643Y233938D01*
X193606Y234020D01*
X192582Y233830D01*
X192314Y233702D01*
X188032Y237983D01*
X188117Y238476D01*
X188284Y238555D01*
X189075Y239231D01*
X189664Y240089D01*
X190012Y241070D01*
X190094Y242107D01*
X189904Y243131D01*
X189456Y244070D01*
X188780Y244862D01*
X187922Y245451D01*
X186941Y245798D01*
X185903Y245880D01*
X184880Y245690D01*
X183941Y245243D01*
X183149Y244566D01*
X182560Y243709D01*
X182212Y242728D01*
X182131Y241690D01*
X182320Y240667D01*
X182768Y239727D01*
X182986Y239473D01*
X182778Y238981D01*
X182417Y238939D01*
X175094Y246262D01*
X174598Y246593D01*
X174012Y246710D01*
X173539D01*
Y247854D01*
D02*
G37*
G36*
X167757Y234127D02*
X162214D01*
Y233600D01*
X162047Y233169D01*
X156307D01*
Y228610D01*
X162047D01*
Y228610D01*
X162214Y228780D01*
X165496D01*
X168093Y226182D01*
X168590Y225851D01*
X169175Y225734D01*
X179077D01*
X179261Y225234D01*
X178991Y225004D01*
X178402Y224146D01*
X178302Y223865D01*
X163855D01*
X163269Y223749D01*
X162773Y223417D01*
X162436Y223080D01*
X161975Y223272D01*
Y226460D01*
X156431D01*
X156265Y226635D01*
Y226635D01*
X153922D01*
X153779Y226991D01*
X153749Y227135D01*
X154257Y227896D01*
X154442Y228824D01*
X154257Y229751D01*
X153732Y230538D01*
X152945Y231064D01*
X152017Y231248D01*
X151090Y231064D01*
X150303Y230538D01*
X149777Y229751D01*
X149593Y228824D01*
X149777Y227896D01*
X150303Y227109D01*
X150488Y226986D01*
Y224356D01*
X150525Y224171D01*
Y222076D01*
X156265D01*
X156431Y221645D01*
Y221113D01*
X159661D01*
X159871Y220636D01*
X159648Y220357D01*
X156431D01*
Y219862D01*
X156265Y219430D01*
X150525D01*
Y214871D01*
X156265D01*
Y214871D01*
X156431Y215011D01*
X161975D01*
Y218293D01*
X164488Y220806D01*
X178304D01*
X178610Y220164D01*
X179286Y219373D01*
X180144Y218783D01*
X181125Y218436D01*
X182162Y218354D01*
X183186Y218544D01*
X184125Y218992D01*
X184917Y219668D01*
X185506Y220526D01*
X185854Y221507D01*
X185935Y222545D01*
X185789Y223333D01*
X186252Y223577D01*
X188073Y221756D01*
X187836Y221086D01*
X187754Y220048D01*
X187944Y219025D01*
X188392Y218085D01*
X189068Y217294D01*
X189925Y216704D01*
X190906Y216357D01*
X191944Y216275D01*
X192967Y216465D01*
X193907Y216913D01*
X194698Y217589D01*
X195288Y218447D01*
X195635Y219428D01*
X195717Y220465D01*
X195527Y221489D01*
X195079Y222428D01*
X194403Y223219D01*
X193545Y223809D01*
X192564Y224156D01*
X191527Y224238D01*
X190503Y224048D01*
X190235Y223920D01*
X186022Y228133D01*
X186101Y228725D01*
X186204Y228774D01*
X186996Y229450D01*
X187585Y230307D01*
X187764Y230813D01*
X183929Y231628D01*
X180094Y232443D01*
X180052Y231909D01*
X180241Y230885D01*
X180689Y229946D01*
X181247Y229293D01*
X181057Y228793D01*
X169808D01*
X167757Y230845D01*
Y234127D01*
D02*
G37*
G36*
X146235Y217510D02*
X145307Y217325D01*
X144521Y216800D01*
X143995Y216013D01*
X143811Y215085D01*
X143995Y214157D01*
X144521Y213371D01*
X144706Y213247D01*
Y210617D01*
X144743Y210433D01*
Y208338D01*
X150483D01*
X150649Y207907D01*
Y207417D01*
X153903D01*
X154114Y206941D01*
X153890Y206662D01*
X150649D01*
Y206123D01*
X150483Y205692D01*
X144743D01*
Y201133D01*
X150483D01*
Y201133D01*
X150649Y201315D01*
X155822D01*
X156029Y200815D01*
X150872Y195659D01*
X150410Y195850D01*
Y199038D01*
X144867D01*
X144700Y199158D01*
Y199158D01*
X142358D01*
X142215Y199514D01*
X142184Y199658D01*
X142693Y200419D01*
X142877Y201347D01*
X142693Y202275D01*
X142167Y203061D01*
X141381Y203587D01*
X140453Y203771D01*
X139525Y203587D01*
X138738Y203061D01*
X138213Y202275D01*
X138028Y201347D01*
X138213Y200419D01*
X138738Y199632D01*
X138923Y199509D01*
Y196879D01*
X138960Y196694D01*
Y194599D01*
X144700D01*
X144867Y194168D01*
Y193691D01*
X148097D01*
X148307Y193214D01*
X148083Y192935D01*
X144867D01*
Y192385D01*
X144700Y191954D01*
X138960D01*
Y187394D01*
X144700D01*
Y187394D01*
X144867Y187589D01*
X150410D01*
Y190835D01*
X155541Y195966D01*
X155614Y196075D01*
X160783Y201243D01*
X174146D01*
X174452Y200602D01*
X175128Y199810D01*
X175986Y199221D01*
X176967Y198873D01*
X178004Y198792D01*
X179028Y198981D01*
X179967Y199429D01*
X180758Y200105D01*
X181348Y200963D01*
X181695Y201944D01*
X181777Y202981D01*
X181587Y204005D01*
X181139Y204944D01*
X180463Y205736D01*
X179606Y206325D01*
X178624Y206673D01*
X177587Y206754D01*
X176564Y206565D01*
X175624Y206117D01*
X174833Y205441D01*
X174243Y204583D01*
X174144Y204302D01*
X160149D01*
X159564Y204186D01*
X159068Y203854D01*
X156692Y201479D01*
X156192Y201686D01*
Y204573D01*
X162645Y211025D01*
X176225D01*
X176531Y210383D01*
X177207Y209592D01*
X178065Y209002D01*
X179046Y208655D01*
X180083Y208573D01*
X181107Y208763D01*
X182046Y209211D01*
X182838Y209887D01*
X183427Y210744D01*
X183774Y211725D01*
X183856Y212763D01*
X183667Y213786D01*
X183218Y214726D01*
X182543Y215517D01*
X181685Y216107D01*
X180704Y216454D01*
X179666Y216536D01*
X178643Y216346D01*
X177703Y215898D01*
X176912Y215222D01*
X176322Y214364D01*
X176223Y214084D01*
X162011D01*
X161426Y213967D01*
X160930Y213636D01*
X156654Y209360D01*
X156192Y209552D01*
Y212764D01*
X150649D01*
X150483Y212897D01*
Y212897D01*
X148140D01*
X147997Y213253D01*
X147967Y213397D01*
X148475Y214157D01*
X148660Y215085D01*
X148475Y216013D01*
X147950Y216800D01*
X147163Y217325D01*
X146235Y217510D01*
D02*
G37*
G36*
X189448Y214457D02*
X188424Y214267D01*
X187485Y213819D01*
X186693Y213143D01*
X186104Y212285D01*
X185757Y211304D01*
X185675Y210267D01*
X185864Y209243D01*
X186313Y208304D01*
X186988Y207512D01*
X187846Y206923D01*
X188827Y206575D01*
X189865Y206494D01*
X190888Y206683D01*
X191828Y207132D01*
X192619Y207807D01*
X193209Y208665D01*
X193556Y209646D01*
X193638Y210684D01*
X193448Y211707D01*
X193000Y212647D01*
X192324Y213438D01*
X191466Y214028D01*
X190485Y214375D01*
X189448Y214457D01*
D02*
G37*
G36*
X187369Y204675D02*
X186345Y204486D01*
X185406Y204037D01*
X184614Y203362D01*
X184025Y202504D01*
X183846Y201998D01*
X187192Y201287D01*
X187903Y204633D01*
X187369Y204675D01*
D02*
G37*
G36*
X188881Y204425D02*
X188170Y201079D01*
X191516Y200368D01*
X191559Y200902D01*
X191369Y201926D01*
X190921Y202865D01*
X190245Y203657D01*
X189387Y204246D01*
X188881Y204425D01*
D02*
G37*
G36*
X213541Y218644D02*
X211647Y218457D01*
X209826Y217905D01*
X208148Y217007D01*
X206676Y215800D01*
X205469Y214329D01*
X204572Y212651D01*
X204019Y210829D01*
X203833Y208935D01*
X204019Y207041D01*
X204572Y205220D01*
X205469Y203542D01*
X206676Y202071D01*
X208148Y200863D01*
X209826Y199966D01*
X211647Y199414D01*
X213541Y199227D01*
X215435Y199414D01*
X217256Y199966D01*
X218935Y200863D01*
X220406Y202071D01*
X221613Y203542D01*
X222510Y205220D01*
X223063Y207041D01*
X223249Y208935D01*
X223063Y210829D01*
X222510Y212651D01*
X221613Y214329D01*
X220406Y215800D01*
X218935Y217007D01*
X217256Y217905D01*
X215435Y218457D01*
X213541Y218644D01*
D02*
G37*
G36*
X-213541D02*
X-215435Y218457D01*
X-217256Y217905D01*
X-218935Y217007D01*
X-220406Y215800D01*
X-221613Y214329D01*
X-222510Y212651D01*
X-223063Y210829D01*
X-223249Y208935D01*
X-223063Y207041D01*
X-222510Y205220D01*
X-221613Y203542D01*
X-220406Y202071D01*
X-218935Y200863D01*
X-217256Y199966D01*
X-215435Y199414D01*
X-213541Y199227D01*
X-211647Y199414D01*
X-209826Y199966D01*
X-208148Y200863D01*
X-206676Y202071D01*
X-205469Y203542D01*
X-204572Y205220D01*
X-204019Y207041D01*
X-203833Y208935D01*
X-204019Y210829D01*
X-204572Y212651D01*
X-205469Y214329D01*
X-206676Y215800D01*
X-208148Y217007D01*
X-209826Y217905D01*
X-211647Y218457D01*
X-213541Y218644D01*
D02*
G37*
G36*
X183638Y201020D02*
X183596Y200485D01*
X183785Y199462D01*
X184233Y198522D01*
X184909Y197731D01*
X185767Y197141D01*
X186273Y196962D01*
X186984Y200309D01*
X183638Y201020D01*
D02*
G37*
G36*
X187962Y200101D02*
X187251Y196754D01*
X187786Y196712D01*
X188809Y196902D01*
X189749Y197350D01*
X190540Y198026D01*
X191129Y198884D01*
X191308Y199389D01*
X187962Y200101D01*
D02*
G37*
G36*
X175508Y196973D02*
X174485Y196783D01*
X173545Y196335D01*
X172754Y195659D01*
X172164Y194801D01*
X171817Y193820D01*
X171735Y192783D01*
X171925Y191759D01*
X172373Y190820D01*
X173049Y190029D01*
X173907Y189439D01*
X174888Y189092D01*
X175925Y189010D01*
X176948Y189200D01*
X177888Y189648D01*
X178679Y190324D01*
X179269Y191181D01*
X179616Y192163D01*
X179698Y193200D01*
X179508Y194223D01*
X179060Y195163D01*
X178384Y195954D01*
X177526Y196544D01*
X176545Y196891D01*
X175508Y196973D01*
D02*
G37*
G36*
X185289Y194894D02*
X184266Y194704D01*
X183327Y194256D01*
X182535Y193580D01*
X181946Y192722D01*
X181598Y191741D01*
X181517Y190704D01*
X181706Y189680D01*
X182154Y188741D01*
X182830Y187950D01*
X183688Y187360D01*
X184669Y187013D01*
X185707Y186931D01*
X186730Y187121D01*
X187669Y187569D01*
X188461Y188245D01*
X189050Y189102D01*
X189398Y190083D01*
X189479Y191121D01*
X189290Y192144D01*
X188842Y193084D01*
X188166Y193875D01*
X187308Y194465D01*
X186327Y194812D01*
X185289Y194894D01*
D02*
G37*
G36*
X38492Y185199D02*
Y183374D01*
X40317D01*
X40232Y183802D01*
X39707Y184588D01*
X38920Y185114D01*
X38492Y185199D01*
D02*
G37*
G36*
X37492D02*
X37064Y185114D01*
X36278Y184588D01*
X35752Y183802D01*
X35667Y183374D01*
X37492D01*
Y185199D01*
D02*
G37*
G36*
X25730D02*
Y183374D01*
X27555D01*
X27470Y183802D01*
X26944Y184588D01*
X26158Y185114D01*
X25730Y185199D01*
D02*
G37*
G36*
X24730D02*
X24302Y185114D01*
X23515Y184588D01*
X22990Y183802D01*
X22905Y183374D01*
X24730D01*
Y185199D01*
D02*
G37*
G36*
X12967D02*
Y183374D01*
X14792D01*
X14707Y183802D01*
X14182Y184588D01*
X13395Y185114D01*
X12967Y185199D01*
D02*
G37*
G36*
X11967D02*
X11539Y185114D01*
X10753Y184588D01*
X10227Y183802D01*
X10142Y183374D01*
X11967D01*
Y185199D01*
D02*
G37*
G36*
X205D02*
Y183374D01*
X2030D01*
X1945Y183802D01*
X1419Y184588D01*
X632Y185114D01*
X205Y185199D01*
D02*
G37*
G36*
X-795D02*
X-1223Y185114D01*
X-2010Y184588D01*
X-2535Y183802D01*
X-2620Y183374D01*
X-795D01*
Y185199D01*
D02*
G37*
G36*
X-12558D02*
Y183374D01*
X-10733D01*
X-10818Y183802D01*
X-11343Y184588D01*
X-12130Y185114D01*
X-12558Y185199D01*
D02*
G37*
G36*
X-13558D02*
X-13986Y185114D01*
X-14772Y184588D01*
X-15298Y183802D01*
X-15383Y183374D01*
X-13558D01*
Y185199D01*
D02*
G37*
G36*
X-25320D02*
Y183374D01*
X-23495D01*
X-23580Y183802D01*
X-24106Y184588D01*
X-24892Y185114D01*
X-25320Y185199D01*
D02*
G37*
G36*
X-26320D02*
X-26748Y185114D01*
X-27535Y184588D01*
X-28060Y183802D01*
X-28145Y183374D01*
X-26320D01*
Y185199D01*
D02*
G37*
G36*
X-38083D02*
Y183374D01*
X-36258D01*
X-36343Y183802D01*
X-36868Y184588D01*
X-37655Y185114D01*
X-38083Y185199D01*
D02*
G37*
G36*
X-39083D02*
X-39511Y185114D01*
X-40297Y184588D01*
X-40823Y183802D01*
X-40908Y183374D01*
X-39083D01*
Y185199D01*
D02*
G37*
G36*
X-118110Y194393D02*
X-119038Y194208D01*
X-119825Y193682D01*
X-120350Y192896D01*
X-120535Y191968D01*
X-120350Y191040D01*
X-119933Y190415D01*
Y187614D01*
X-120882D01*
Y182268D01*
X-115339D01*
Y187614D01*
X-116288D01*
Y190415D01*
X-115870Y191040D01*
X-115686Y191968D01*
X-115870Y192896D01*
X-116396Y193682D01*
X-117182Y194208D01*
X-118110Y194393D01*
D02*
G37*
G36*
X40317Y182374D02*
X38492D01*
Y180549D01*
X38920Y180634D01*
X39707Y181160D01*
X40232Y181946D01*
X40317Y182374D01*
D02*
G37*
G36*
X37492D02*
X35667D01*
X35752Y181946D01*
X36278Y181160D01*
X37064Y180634D01*
X37492Y180549D01*
Y182374D01*
D02*
G37*
G36*
X27555D02*
X25730D01*
Y180549D01*
X26158Y180634D01*
X26944Y181160D01*
X27470Y181946D01*
X27555Y182374D01*
D02*
G37*
G36*
X24730D02*
X22905D01*
X22990Y181946D01*
X23515Y181160D01*
X24302Y180634D01*
X24730Y180549D01*
Y182374D01*
D02*
G37*
G36*
X14792D02*
X12967D01*
Y180549D01*
X13395Y180634D01*
X14182Y181160D01*
X14707Y181946D01*
X14792Y182374D01*
D02*
G37*
G36*
X11967D02*
X10142D01*
X10227Y181946D01*
X10753Y181160D01*
X11539Y180634D01*
X11967Y180549D01*
Y182374D01*
D02*
G37*
G36*
X2030D02*
X205D01*
Y180549D01*
X632Y180634D01*
X1419Y181160D01*
X1945Y181946D01*
X2030Y182374D01*
D02*
G37*
G36*
X-795D02*
X-2620D01*
X-2535Y181946D01*
X-2010Y181160D01*
X-1223Y180634D01*
X-795Y180549D01*
Y182374D01*
D02*
G37*
G36*
X-10733D02*
X-12558D01*
Y180549D01*
X-12130Y180634D01*
X-11343Y181160D01*
X-10818Y181946D01*
X-10733Y182374D01*
D02*
G37*
G36*
X-13558D02*
X-15383D01*
X-15298Y181946D01*
X-14772Y181160D01*
X-13986Y180634D01*
X-13558Y180549D01*
Y182374D01*
D02*
G37*
G36*
X-23495D02*
X-25320D01*
Y180549D01*
X-24892Y180634D01*
X-24106Y181160D01*
X-23580Y181946D01*
X-23495Y182374D01*
D02*
G37*
G36*
X-26320D02*
X-28145D01*
X-28060Y181946D01*
X-27535Y181160D01*
X-26748Y180634D01*
X-26320Y180549D01*
Y182374D01*
D02*
G37*
G36*
X-36258D02*
X-38083D01*
Y180549D01*
X-37655Y180634D01*
X-36868Y181160D01*
X-36343Y181946D01*
X-36258Y182374D01*
D02*
G37*
G36*
X-39083D02*
X-40908D01*
X-40823Y181946D01*
X-40297Y181160D01*
X-39511Y180634D01*
X-39083Y180549D01*
Y182374D01*
D02*
G37*
G36*
X173429Y187191D02*
X172405Y187002D01*
X171466Y186554D01*
X170675Y185878D01*
X170085Y185020D01*
X169738Y184039D01*
X169656Y183001D01*
X169846Y181978D01*
X170294Y181038D01*
X170970Y180247D01*
X171827Y179658D01*
X172809Y179310D01*
X173846Y179228D01*
X174869Y179418D01*
X175809Y179866D01*
X176600Y180542D01*
X177190Y181400D01*
X177537Y182381D01*
X177619Y183419D01*
X177429Y184442D01*
X176981Y185381D01*
X176305Y186173D01*
X175447Y186762D01*
X174466Y187110D01*
X173429Y187191D01*
D02*
G37*
G36*
X183210Y185112D02*
X182187Y184923D01*
X181247Y184475D01*
X180456Y183799D01*
X179867Y182941D01*
X179519Y181960D01*
X179437Y180922D01*
X179627Y179899D01*
X180075Y178959D01*
X180751Y178168D01*
X181609Y177578D01*
X182590Y177231D01*
X183627Y177149D01*
X184651Y177339D01*
X185590Y177787D01*
X186382Y178463D01*
X186971Y179321D01*
X187319Y180302D01*
X187400Y181340D01*
X187211Y182363D01*
X186763Y183302D01*
X186087Y184094D01*
X185229Y184683D01*
X184248Y185030D01*
X183210Y185112D01*
D02*
G37*
G36*
X-206759Y183610D02*
X-207900Y183521D01*
X-208979Y183139D01*
X-209922Y182490D01*
X-210665Y181620D01*
X-211158Y180587D01*
X-211367Y179462D01*
X-211277Y178321D01*
X-210895Y177242D01*
X-210247Y176299D01*
X-209376Y175556D01*
X-208343Y175063D01*
X-207218Y174854D01*
X-206077Y174944D01*
X-204998Y175326D01*
X-204055Y175975D01*
X-203312Y176845D01*
X-202819Y177878D01*
X-202611Y179003D01*
X-202700Y180144D01*
X-203082Y181223D01*
X-203731Y182166D01*
X-204601Y182909D01*
X-205634Y183402D01*
X-206759Y183610D01*
D02*
G37*
G36*
X-117610Y174432D02*
Y172607D01*
X-115785D01*
X-115870Y173035D01*
X-116396Y173821D01*
X-117182Y174347D01*
X-117610Y174432D01*
D02*
G37*
G36*
X-118610D02*
X-119038Y174347D01*
X-119825Y173821D01*
X-120350Y173035D01*
X-120435Y172607D01*
X-118610D01*
Y174432D01*
D02*
G37*
G36*
X106291Y174137D02*
X105863Y174051D01*
X105077Y173526D01*
X104551Y172739D01*
X104466Y172311D01*
X106291D01*
Y174137D01*
D02*
G37*
G36*
X181131Y175331D02*
X180108Y175141D01*
X179168Y174693D01*
X178377Y174017D01*
X177787Y173159D01*
X177608Y172654D01*
X180955Y171942D01*
X181666Y175289D01*
X181131Y175331D01*
D02*
G37*
G36*
X182644Y175081D02*
X181933Y171734D01*
X185279Y171023D01*
X185321Y171558D01*
X185132Y172581D01*
X184683Y173521D01*
X184008Y174312D01*
X183150Y174902D01*
X182644Y175081D01*
D02*
G37*
G36*
X-115785Y171607D02*
X-117610D01*
Y169782D01*
X-117182Y169867D01*
X-116396Y170392D01*
X-115870Y171179D01*
X-115785Y171607D01*
D02*
G37*
G36*
X-118610D02*
X-120435D01*
X-120350Y171179D01*
X-119825Y170392D01*
X-119038Y169867D01*
X-118610Y169782D01*
Y171607D01*
D02*
G37*
G36*
X106291Y171311D02*
X104466D01*
X104551Y170884D01*
X105077Y170097D01*
X105863Y169571D01*
X106291Y169486D01*
Y171311D01*
D02*
G37*
G36*
X171350Y177410D02*
X170326Y177220D01*
X169387Y176772D01*
X168596Y176096D01*
X168006Y175238D01*
X167658Y174257D01*
X167577Y173220D01*
X167767Y172196D01*
X168215Y171257D01*
X168891Y170466D01*
X169748Y169876D01*
X170729Y169529D01*
X171767Y169447D01*
X172790Y169637D01*
X173730Y170085D01*
X174521Y170761D01*
X175111Y171618D01*
X175458Y172599D01*
X175540Y173637D01*
X175350Y174661D01*
X174902Y175600D01*
X174226Y176391D01*
X173368Y176981D01*
X172387Y177328D01*
X171350Y177410D01*
D02*
G37*
G36*
X177401Y171676D02*
X177358Y171141D01*
X177548Y170117D01*
X177996Y169178D01*
X178672Y168386D01*
X179530Y167797D01*
X180035Y167618D01*
X180747Y170964D01*
X177401Y171676D01*
D02*
G37*
G36*
X181725Y170756D02*
X181014Y167410D01*
X181548Y167368D01*
X182572Y167558D01*
X183511Y168006D01*
X184303Y168682D01*
X184892Y169539D01*
X185071Y170045D01*
X181725Y170756D01*
D02*
G37*
G36*
X-204680Y173829D02*
X-205821Y173739D01*
X-206900Y173357D01*
X-207843Y172709D01*
X-208586Y171839D01*
X-209079Y170806D01*
X-209288Y169680D01*
X-209198Y168539D01*
X-208816Y167461D01*
X-208168Y166517D01*
X-207297Y165774D01*
X-206264Y165281D01*
X-205139Y165073D01*
X-203998Y165163D01*
X-202919Y165545D01*
X-201976Y166193D01*
X-201233Y167063D01*
X-200740Y168096D01*
X-200532Y169221D01*
X-200621Y170362D01*
X-201003Y171441D01*
X-201652Y172384D01*
X-202522Y173128D01*
X-203555Y173620D01*
X-204680Y173829D01*
D02*
G37*
G36*
X169271Y167628D02*
X168247Y167439D01*
X167308Y166991D01*
X166516Y166315D01*
X165927Y165457D01*
X165579Y164476D01*
X165498Y163438D01*
X165687Y162415D01*
X166136Y161476D01*
X166811Y160684D01*
X167669Y160095D01*
X168650Y159747D01*
X169688Y159666D01*
X170711Y159855D01*
X171651Y160303D01*
X172442Y160979D01*
X173031Y161837D01*
X173379Y162818D01*
X173461Y163856D01*
X173271Y164879D01*
X172823Y165818D01*
X172147Y166610D01*
X171289Y167199D01*
X170308Y167547D01*
X169271Y167628D01*
D02*
G37*
G36*
X179052Y165549D02*
X178029Y165360D01*
X177089Y164911D01*
X176298Y164236D01*
X175708Y163378D01*
X175361Y162397D01*
X175279Y161359D01*
X175469Y160336D01*
X175917Y159397D01*
X176593Y158605D01*
X177451Y158016D01*
X178432Y157668D01*
X179469Y157587D01*
X180493Y157776D01*
X181432Y158224D01*
X182223Y158900D01*
X182813Y159758D01*
X183160Y160739D01*
X183242Y161776D01*
X183052Y162800D01*
X182604Y163739D01*
X181928Y164531D01*
X181071Y165120D01*
X180090Y165468D01*
X179052Y165549D01*
D02*
G37*
G36*
X-202601Y164047D02*
X-203742Y163958D01*
X-204821Y163576D01*
X-205764Y162927D01*
X-206507Y162057D01*
X-207000Y161024D01*
X-207208Y159899D01*
X-207119Y158758D01*
X-206737Y157679D01*
X-206088Y156736D01*
X-205218Y155993D01*
X-204185Y155500D01*
X-203060Y155291D01*
X-201919Y155381D01*
X-200840Y155763D01*
X-199897Y156412D01*
X-199154Y157282D01*
X-198661Y158315D01*
X-198452Y159440D01*
X-198542Y160581D01*
X-198924Y161660D01*
X-199573Y162603D01*
X-200443Y163346D01*
X-201476Y163839D01*
X-202601Y164047D01*
D02*
G37*
G36*
X167191Y157847D02*
X166168Y157657D01*
X165229Y157209D01*
X164437Y156533D01*
X163848Y155675D01*
X163669Y155170D01*
X167015Y154458D01*
X167726Y157805D01*
X167191Y157847D01*
D02*
G37*
G36*
X168704Y157597D02*
X167993Y154251D01*
X171339Y153539D01*
X171381Y154074D01*
X171192Y155097D01*
X170744Y156037D01*
X170068Y156828D01*
X169210Y157418D01*
X168704Y157597D01*
D02*
G37*
G36*
X-115339Y181512D02*
X-120882D01*
Y178644D01*
X-147816Y151710D01*
X-196786D01*
X-196845Y151878D01*
X-197493Y152821D01*
X-198364Y153565D01*
X-199397Y154057D01*
X-200522Y154266D01*
X-201663Y154176D01*
X-202742Y153794D01*
X-203685Y153146D01*
X-204428Y152276D01*
X-204921Y151243D01*
X-205129Y150117D01*
X-205040Y148977D01*
X-204658Y147898D01*
X-204009Y146955D01*
X-203139Y146211D01*
X-202106Y145719D01*
X-200981Y145510D01*
X-199840Y145600D01*
X-198761Y145982D01*
X-197818Y146630D01*
X-197075Y147500D01*
X-196805Y148066D01*
X-147061D01*
X-147061Y148065D01*
X-146363Y148204D01*
X-145772Y148599D01*
X-118206Y176165D01*
X-115339D01*
Y181512D01*
D02*
G37*
G36*
X163461Y154192D02*
X163419Y153657D01*
X163608Y152634D01*
X164056Y151694D01*
X164732Y150903D01*
X165590Y150313D01*
X166096Y150134D01*
X166807Y153480D01*
X163461Y154192D01*
D02*
G37*
G36*
X167785Y153272D02*
X167074Y149926D01*
X167609Y149884D01*
X168632Y150074D01*
X169571Y150522D01*
X170363Y151198D01*
X170952Y152056D01*
X171131Y152561D01*
X167785Y153272D01*
D02*
G37*
G36*
X29921Y157927D02*
X28787Y157778D01*
X27729Y157340D01*
X26821Y156643D01*
X26125Y155735D01*
X25687Y154678D01*
X25537Y153543D01*
X25687Y152409D01*
X26125Y151351D01*
X26821Y150443D01*
X27729Y149747D01*
X28787Y149309D01*
X29921Y149159D01*
X31056Y149309D01*
X32113Y149747D01*
X33021Y150443D01*
X33718Y151351D01*
X34156Y152409D01*
X34305Y153543D01*
X34156Y154678D01*
X33718Y155735D01*
X33021Y156643D01*
X32113Y157340D01*
X31056Y157778D01*
X29921Y157927D01*
D02*
G37*
G36*
X-29921D02*
X-31056Y157778D01*
X-32113Y157340D01*
X-33021Y156643D01*
X-33718Y155735D01*
X-34156Y154678D01*
X-34305Y153543D01*
X-34156Y152409D01*
X-33718Y151351D01*
X-33021Y150443D01*
X-32113Y149747D01*
X-31056Y149309D01*
X-29921Y149159D01*
X-28787Y149309D01*
X-27729Y149747D01*
X-26821Y150443D01*
X-26125Y151351D01*
X-25687Y152409D01*
X-25537Y153543D01*
X-25687Y154678D01*
X-26125Y155735D01*
X-26821Y156643D01*
X-27729Y157340D01*
X-28787Y157778D01*
X-29921Y157927D01*
D02*
G37*
G36*
X176973Y155768D02*
X175950Y155578D01*
X175010Y155130D01*
X174219Y154454D01*
X173629Y153596D01*
X173282Y152615D01*
X173200Y151578D01*
X173390Y150554D01*
X173838Y149615D01*
X174514Y148824D01*
X175372Y148234D01*
X176353Y147887D01*
X177390Y147805D01*
X178413Y147995D01*
X179353Y148443D01*
X180144Y149119D01*
X180734Y149976D01*
X181081Y150958D01*
X181163Y151995D01*
X180973Y153018D01*
X180525Y153958D01*
X179849Y154749D01*
X178991Y155339D01*
X178010Y155686D01*
X176973Y155768D01*
D02*
G37*
G36*
X165112Y148065D02*
X164089Y147876D01*
X163149Y147428D01*
X162358Y146752D01*
X161769Y145894D01*
X161421Y144913D01*
X161339Y143875D01*
X161529Y142852D01*
X161977Y141913D01*
X162653Y141121D01*
X163511Y140532D01*
X164492Y140184D01*
X165530Y140103D01*
X166553Y140292D01*
X167492Y140740D01*
X168284Y141416D01*
X168873Y142274D01*
X169221Y143255D01*
X169302Y144293D01*
X169113Y145316D01*
X168665Y146255D01*
X167989Y147047D01*
X167131Y147636D01*
X166150Y147984D01*
X165112Y148065D01*
D02*
G37*
G36*
X174894Y145986D02*
X173870Y145797D01*
X172931Y145349D01*
X172140Y144673D01*
X171550Y143815D01*
X171203Y142834D01*
X171121Y141796D01*
X171311Y140773D01*
X171759Y139833D01*
X172435Y139042D01*
X173292Y138453D01*
X174274Y138105D01*
X175311Y138023D01*
X176334Y138213D01*
X177274Y138661D01*
X178065Y139337D01*
X178655Y140195D01*
X179002Y141176D01*
X179084Y142214D01*
X178894Y143237D01*
X178446Y144176D01*
X177770Y144968D01*
X176912Y145557D01*
X175931Y145905D01*
X174894Y145986D01*
D02*
G37*
G36*
X-198443Y144484D02*
X-199584Y144395D01*
X-200662Y144013D01*
X-201606Y143364D01*
X-202349Y142494D01*
X-202842Y141461D01*
X-203050Y140336D01*
X-202960Y139195D01*
X-202578Y138116D01*
X-201930Y137173D01*
X-201060Y136430D01*
X-200027Y135937D01*
X-198902Y135729D01*
X-197761Y135818D01*
X-196682Y136200D01*
X-195739Y136849D01*
X-194995Y137719D01*
X-194503Y138752D01*
X-194294Y139877D01*
X-194384Y141018D01*
X-194766Y142097D01*
X-195414Y143040D01*
X-196284Y143783D01*
X-197318Y144276D01*
X-198443Y144484D01*
D02*
G37*
G36*
X172815Y136205D02*
X171791Y136015D01*
X170852Y135567D01*
X170061Y134891D01*
X169471Y134033D01*
X169292Y133528D01*
X172638Y132817D01*
X173349Y136163D01*
X172815Y136205D01*
D02*
G37*
G36*
X174328Y135955D02*
X173616Y132609D01*
X176963Y131897D01*
X177005Y132432D01*
X176815Y133455D01*
X176367Y134395D01*
X175691Y135186D01*
X174833Y135776D01*
X174328Y135955D01*
D02*
G37*
G36*
X163033Y138284D02*
X162010Y138094D01*
X161070Y137646D01*
X160279Y136970D01*
X159689Y136113D01*
X159342Y135132D01*
X159260Y134094D01*
X159450Y133071D01*
X159898Y132131D01*
X160574Y131340D01*
X161432Y130750D01*
X162413Y130403D01*
X163451Y130321D01*
X164474Y130511D01*
X165413Y130959D01*
X166205Y131635D01*
X166794Y132493D01*
X167141Y133474D01*
X167223Y134511D01*
X167034Y135535D01*
X166586Y136474D01*
X165910Y137265D01*
X165052Y137855D01*
X164071Y138202D01*
X163033Y138284D01*
D02*
G37*
G36*
X169084Y132550D02*
X169042Y132015D01*
X169232Y130991D01*
X169680Y130052D01*
X170356Y129261D01*
X171213Y128671D01*
X171719Y128492D01*
X172430Y131838D01*
X169084Y132550D01*
D02*
G37*
G36*
X173408Y131630D02*
X172697Y128284D01*
X173232Y128242D01*
X174255Y128432D01*
X175195Y128880D01*
X175986Y129556D01*
X176576Y130413D01*
X176755Y130919D01*
X173408Y131630D01*
D02*
G37*
G36*
X-196364Y134703D02*
X-197505Y134613D01*
X-198583Y134231D01*
X-199527Y133583D01*
X-200270Y132713D01*
X-200763Y131680D01*
X-200971Y130554D01*
X-200881Y129413D01*
X-200499Y128335D01*
X-199851Y127392D01*
X-198981Y126648D01*
X-197948Y126156D01*
X-196823Y125947D01*
X-195682Y126037D01*
X-194603Y126419D01*
X-193660Y127067D01*
X-192916Y127937D01*
X-192424Y128970D01*
X-192215Y130096D01*
X-192305Y131237D01*
X-192687Y132315D01*
X-193335Y133258D01*
X-194205Y134002D01*
X-195238Y134494D01*
X-196364Y134703D01*
D02*
G37*
G36*
X160954Y128503D02*
X159931Y128313D01*
X158991Y127865D01*
X158200Y127189D01*
X157610Y126331D01*
X157263Y125350D01*
X157181Y124312D01*
X157371Y123289D01*
X157819Y122350D01*
X158495Y121558D01*
X159353Y120969D01*
X160334Y120621D01*
X161371Y120540D01*
X162395Y120729D01*
X163334Y121177D01*
X164126Y121853D01*
X164715Y122711D01*
X165062Y123692D01*
X165144Y124730D01*
X164954Y125753D01*
X164506Y126692D01*
X163830Y127484D01*
X162973Y128073D01*
X161992Y128421D01*
X160954Y128503D01*
D02*
G37*
G36*
X5225Y121754D02*
Y119928D01*
X7050D01*
X6965Y120356D01*
X6439Y121143D01*
X5652Y121668D01*
X5225Y121754D01*
D02*
G37*
G36*
X4225D02*
X3797Y121668D01*
X3010Y121143D01*
X2485Y120356D01*
X2400Y119928D01*
X4225D01*
Y121754D01*
D02*
G37*
G36*
X170736Y126423D02*
X169712Y126234D01*
X168773Y125786D01*
X167981Y125110D01*
X167392Y124252D01*
X167044Y123271D01*
X166963Y122233D01*
X167152Y121210D01*
X167601Y120271D01*
X168276Y119479D01*
X169134Y118890D01*
X170115Y118542D01*
X171153Y118461D01*
X172176Y118650D01*
X173116Y119098D01*
X173907Y119774D01*
X174496Y120632D01*
X174844Y121613D01*
X174926Y122651D01*
X174736Y123674D01*
X174288Y124613D01*
X173612Y125405D01*
X172754Y125994D01*
X171773Y126342D01*
X170736Y126423D01*
D02*
G37*
G36*
X7050Y118928D02*
X5225D01*
Y117103D01*
X5652Y117189D01*
X6439Y117714D01*
X6965Y118501D01*
X7050Y118928D01*
D02*
G37*
G36*
X4225D02*
X2400D01*
X2485Y118501D01*
X3010Y117714D01*
X3797Y117189D01*
X4225Y117103D01*
Y118928D01*
D02*
G37*
G36*
X7693Y115567D02*
X5225D01*
Y113000D01*
X7693D01*
Y115567D01*
D02*
G37*
G36*
X4225D02*
X1756D01*
Y113000D01*
X4225D01*
Y115567D01*
D02*
G37*
G36*
X-192205Y115140D02*
X-192844Y115090D01*
X-192050Y111355D01*
X-188315Y112149D01*
X-188529Y112752D01*
X-189177Y113696D01*
X-190047Y114439D01*
X-191080Y114931D01*
X-192205Y115140D01*
D02*
G37*
G36*
X158875Y118721D02*
X157852Y118531D01*
X156912Y118083D01*
X156121Y117407D01*
X155531Y116550D01*
X155184Y115568D01*
X155102Y114531D01*
X155292Y113508D01*
X155740Y112568D01*
X156416Y111777D01*
X157274Y111187D01*
X158255Y110840D01*
X159292Y110758D01*
X160316Y110948D01*
X161255Y111396D01*
X162046Y112072D01*
X162636Y112930D01*
X162983Y113911D01*
X163065Y114948D01*
X162875Y115972D01*
X162427Y116911D01*
X161751Y117702D01*
X160894Y118292D01*
X159913Y118639D01*
X158875Y118721D01*
D02*
G37*
G36*
X-193822Y114882D02*
X-194425Y114668D01*
X-195368Y114020D01*
X-196112Y113150D01*
X-196604Y112117D01*
X-196813Y110992D01*
X-196763Y110353D01*
X-193028Y111147D01*
X-193822Y114882D01*
D02*
G37*
G36*
X168656Y116642D02*
X167633Y116452D01*
X166694Y116004D01*
X165902Y115328D01*
X165313Y114471D01*
X164965Y113489D01*
X164884Y112452D01*
X165073Y111428D01*
X165521Y110489D01*
X166197Y109698D01*
X167055Y109108D01*
X168036Y108761D01*
X169074Y108679D01*
X170097Y108869D01*
X171037Y109317D01*
X171828Y109993D01*
X172417Y110851D01*
X172765Y111832D01*
X172846Y112869D01*
X172657Y113892D01*
X172209Y114832D01*
X171533Y115623D01*
X170675Y116213D01*
X169694Y116560D01*
X168656Y116642D01*
D02*
G37*
G36*
X22063Y127575D02*
X11796D01*
Y127559D01*
X8240Y127559D01*
X8195Y108124D01*
X7693D01*
Y109433D01*
Y112000D01*
X4725D01*
X1756D01*
Y109433D01*
Y103527D01*
X3195D01*
Y100043D01*
X2516Y99364D01*
X1020D01*
Y99425D01*
X-3232D01*
Y99819D01*
X-3626D01*
Y104070D01*
X-14681D01*
Y99819D01*
X-15075D01*
Y99425D01*
X-19327D01*
Y99364D01*
X-20735D01*
X-21146Y99864D01*
X-21099Y100098D01*
X-21284Y101026D01*
X-21809Y101813D01*
X-22596Y102338D01*
X-23524Y102523D01*
X-24451Y102338D01*
X-25238Y101813D01*
X-25764Y101026D01*
X-25948Y100098D01*
X-25764Y99171D01*
X-25238Y98384D01*
X-24905Y98161D01*
X-24798Y97488D01*
X-24871Y97395D01*
X-27909D01*
X-32106Y101592D01*
X-32198Y102052D01*
X-32680Y102773D01*
X-33401Y103255D01*
X-34252Y103425D01*
X-37599D01*
X-38450Y103255D01*
X-39171Y102773D01*
X-39653Y102052D01*
X-39823Y101201D01*
X-39653Y100350D01*
X-39171Y99628D01*
X-38450Y99146D01*
X-37599Y98977D01*
X-34252D01*
X-34123Y99003D01*
X-34041Y98892D01*
X-34182Y98580D01*
X-34317Y98425D01*
X-35426D01*
Y96701D01*
X-31818D01*
X-31637Y96797D01*
X-29624Y94784D01*
X-29128Y94453D01*
X-28543Y94336D01*
X-21427D01*
X-21220Y93836D01*
X-22223Y92834D01*
X-22441Y92877D01*
X-23369Y92693D01*
X-24155Y92167D01*
X-24681Y91381D01*
X-24866Y90453D01*
X-24681Y89525D01*
X-24155Y88738D01*
X-23369Y88213D01*
X-22441Y88028D01*
X-21513Y88213D01*
X-20727Y88738D01*
X-20336Y89322D01*
X-19837Y89170D01*
Y84712D01*
X-20021Y84588D01*
X-20547Y83802D01*
X-20732Y82874D01*
X-20547Y81946D01*
X-20021Y81160D01*
X-19235Y80634D01*
X-18307Y80449D01*
X-17729Y80564D01*
X-17515Y80304D01*
X-17406Y80119D01*
X-17582Y79232D01*
X-17398Y78304D01*
X-16872Y77518D01*
X-16085Y76992D01*
X-15157Y76808D01*
X-14230Y76992D01*
X-13443Y77518D01*
X-13390Y77598D01*
X-12890D01*
X-12836Y77518D01*
X-12050Y76992D01*
X-11122Y76808D01*
X-10194Y76992D01*
X-9472Y77475D01*
X-9263Y77524D01*
X-9044D01*
X-8835Y77475D01*
X-8113Y76992D01*
X-7185Y76808D01*
X-6257Y76992D01*
X-5471Y77518D01*
X-4945Y78305D01*
X-4761Y79232D01*
X-4945Y80160D01*
X-5471Y80947D01*
X-5656Y81070D01*
Y83724D01*
X-3626D01*
Y87976D01*
X-3232D01*
Y88370D01*
X1020D01*
Y90338D01*
Y94336D01*
X2516D01*
X3195Y93657D01*
Y90173D01*
X1756D01*
Y84039D01*
Y81701D01*
X4725D01*
Y81201D01*
X5225D01*
Y78134D01*
X7625D01*
X8125Y77969D01*
X8097Y66044D01*
X22047Y66044D01*
Y66126D01*
X22063D01*
Y90173D01*
X22047D01*
X22047Y103527D01*
X22063D01*
Y127575D01*
D02*
G37*
G36*
X-188107Y111171D02*
X-191842Y110377D01*
X-191048Y106642D01*
X-190445Y106856D01*
X-189501Y107504D01*
X-188758Y108374D01*
X-188266Y109407D01*
X-188057Y110533D01*
X-188107Y111171D01*
D02*
G37*
G36*
X-192820Y110169D02*
X-196555Y109375D01*
X-196341Y108772D01*
X-195693Y107829D01*
X-194823Y107085D01*
X-193790Y106593D01*
X-192664Y106384D01*
X-192026Y106434D01*
X-192820Y110169D01*
D02*
G37*
G36*
X-55709Y103425D02*
X-56882D01*
Y101701D01*
X-53585D01*
X-53654Y102052D01*
X-54137Y102773D01*
X-54858Y103255D01*
X-55709Y103425D01*
D02*
G37*
G36*
X-57882D02*
X-59056D01*
X-59907Y103255D01*
X-60628Y102773D01*
X-61110Y102052D01*
X-61180Y101701D01*
X-57882D01*
Y103425D01*
D02*
G37*
G36*
X72088Y126605D02*
X70072Y126553D01*
X68090Y126185D01*
X66189Y125512D01*
X64417Y124550D01*
X62817Y123322D01*
X61429Y121860D01*
X60287Y120198D01*
X59418Y118378D01*
X58846Y116444D01*
X58583Y114445D01*
X58635Y112429D01*
X59003Y110447D01*
X59676Y108546D01*
X60638Y106773D01*
X61866Y105174D01*
X63328Y103786D01*
X64990Y102644D01*
X66810Y101775D01*
X68744Y101203D01*
X70743Y100939D01*
X72759Y100992D01*
X74742Y101360D01*
X76642Y102033D01*
X78414Y102995D01*
X80014Y104223D01*
X81402Y105685D01*
X82544Y107347D01*
X83413Y109167D01*
X83985Y111101D01*
X84249Y113100D01*
X84196Y115116D01*
X83828Y117098D01*
X83155Y118999D01*
X82193Y120771D01*
X80965Y122371D01*
X79503Y123759D01*
X77841Y124901D01*
X76021Y125770D01*
X74087Y126342D01*
X72088Y126605D01*
D02*
G37*
G36*
X-53585Y100701D02*
X-56882D01*
Y98977D01*
X-55709D01*
X-54858Y99146D01*
X-54137Y99628D01*
X-53654Y100350D01*
X-53585Y100701D01*
D02*
G37*
G36*
X-57882D02*
X-61180D01*
X-61110Y100350D01*
X-60628Y99628D01*
X-59907Y99146D01*
X-59056Y98977D01*
X-57882D01*
Y100701D01*
D02*
G37*
G36*
X-36426Y98425D02*
X-37599D01*
X-38450Y98255D01*
X-39171Y97773D01*
X-39653Y97052D01*
X-39723Y96701D01*
X-36426D01*
Y98425D01*
D02*
G37*
G36*
X-190126Y105359D02*
X-191267Y105269D01*
X-192346Y104887D01*
X-193289Y104238D01*
X-194032Y103368D01*
X-194525Y102335D01*
X-194734Y101210D01*
X-194644Y100069D01*
X-194262Y98990D01*
X-193614Y98047D01*
X-192743Y97304D01*
X-191710Y96811D01*
X-190585Y96603D01*
X-189444Y96692D01*
X-188365Y97075D01*
X-187422Y97723D01*
X-187355Y97725D01*
X-186168Y96538D01*
X-186091Y95908D01*
X-186725Y95274D01*
X-186922Y95368D01*
X-188047Y95577D01*
X-189188Y95487D01*
X-190267Y95105D01*
X-191210Y94457D01*
X-191953Y93587D01*
X-192446Y92554D01*
X-192655Y91429D01*
X-192565Y90288D01*
X-192183Y89209D01*
X-191534Y88266D01*
X-190664Y87522D01*
X-189631Y87030D01*
X-188506Y86821D01*
X-187365Y86911D01*
X-186286Y87293D01*
X-185343Y87941D01*
X-184600Y88811D01*
X-184107Y89844D01*
X-183899Y90970D01*
X-183988Y92111D01*
X-184212Y92741D01*
X-183604Y93348D01*
X-102663D01*
X-93092Y83778D01*
X-92514Y83391D01*
X-91831Y83255D01*
X-91831Y83255D01*
X-85749D01*
X-85066Y83391D01*
X-84487Y83778D01*
X-82296Y85969D01*
X-79374D01*
Y88890D01*
X-77902Y90363D01*
X-62672D01*
X-62248Y89939D01*
X-61669Y89552D01*
X-60987Y89416D01*
X-60311D01*
X-59907Y89146D01*
X-59056Y88977D01*
X-55709D01*
X-54858Y89146D01*
X-54137Y89628D01*
X-53654Y90350D01*
X-53485Y91201D01*
X-53654Y92052D01*
X-54137Y92773D01*
X-54858Y93255D01*
X-55709Y93425D01*
X-59056D01*
X-59907Y93255D01*
X-60273Y93010D01*
X-60671Y93409D01*
X-60694Y93424D01*
X-60743Y93921D01*
X-60273Y94391D01*
X-59907Y94146D01*
X-59056Y93977D01*
X-55709D01*
X-54858Y94146D01*
X-54137Y94628D01*
X-53654Y95350D01*
X-53485Y96201D01*
X-53654Y97052D01*
X-54137Y97773D01*
X-54858Y98255D01*
X-55709Y98425D01*
X-59056D01*
X-59907Y98255D01*
X-60311Y97985D01*
X-60987D01*
X-61669Y97849D01*
X-62248Y97462D01*
X-62248Y97462D01*
X-63279Y96431D01*
X-73494D01*
X-73823Y96807D01*
X-73766Y97244D01*
X-73915Y98378D01*
X-74353Y99436D01*
X-75050Y100344D01*
X-75958Y101040D01*
X-77015Y101478D01*
X-78150Y101628D01*
X-79285Y101478D01*
X-79692Y101309D01*
X-82794Y104411D01*
X-83373Y104798D01*
X-84056Y104934D01*
X-96850D01*
X-97533Y104798D01*
X-98112Y104411D01*
X-98112Y104411D01*
X-103107Y99417D01*
X-184000D01*
X-186033Y101450D01*
X-186068Y101892D01*
X-186450Y102971D01*
X-187098Y103914D01*
X-187968Y104657D01*
X-189001Y105150D01*
X-190126Y105359D01*
D02*
G37*
G36*
X-32128Y95701D02*
X-35426D01*
Y93977D01*
X-34252D01*
X-33401Y94146D01*
X-32680Y94628D01*
X-32198Y95350D01*
X-32128Y95701D01*
D02*
G37*
G36*
X-36426D02*
X-39723D01*
X-39653Y95350D01*
X-39171Y94628D01*
X-38450Y94146D01*
X-37599Y93977D01*
X-36426D01*
Y95701D01*
D02*
G37*
G36*
X-42854Y93625D02*
X-43782Y93441D01*
X-44569Y92915D01*
X-45094Y92129D01*
X-45279Y91201D01*
X-45094Y90273D01*
X-44569Y89486D01*
X-43782Y88961D01*
X-42854Y88776D01*
X-41927Y88961D01*
X-41140Y89486D01*
X-41016Y89671D01*
X-39200D01*
X-39171Y89628D01*
X-38450Y89146D01*
X-37599Y88977D01*
X-34252D01*
X-33401Y89146D01*
X-32680Y89628D01*
X-32198Y90350D01*
X-32029Y91201D01*
X-32198Y92052D01*
X-32680Y92773D01*
X-33401Y93255D01*
X-34252Y93425D01*
X-37599D01*
X-38450Y93255D01*
X-39171Y92773D01*
X-39200Y92730D01*
X-41016D01*
X-41140Y92915D01*
X-41927Y93441D01*
X-42854Y93625D01*
D02*
G37*
G36*
X-28997Y88625D02*
X-29925Y88441D01*
X-30711Y87915D01*
X-30835Y87730D01*
X-32651D01*
X-32680Y87773D01*
X-33401Y88255D01*
X-34252Y88425D01*
X-37599D01*
X-38450Y88255D01*
X-39171Y87773D01*
X-39653Y87052D01*
X-39823Y86201D01*
X-39653Y85350D01*
X-39171Y84628D01*
X-38450Y84146D01*
X-37599Y83977D01*
X-34252D01*
X-33401Y84146D01*
X-32680Y84628D01*
X-32651Y84671D01*
X-30835D01*
X-30711Y84486D01*
X-29925Y83961D01*
X-28997Y83776D01*
X-28069Y83961D01*
X-27283Y84486D01*
X-26757Y85273D01*
X-26572Y86201D01*
X-26757Y87129D01*
X-27283Y87915D01*
X-28069Y88441D01*
X-28997Y88625D01*
D02*
G37*
G36*
X-50454D02*
X-51381Y88441D01*
X-52168Y87915D01*
X-52292Y87730D01*
X-54108D01*
X-54137Y87773D01*
X-54858Y88255D01*
X-55709Y88425D01*
X-59056D01*
X-59907Y88255D01*
X-60628Y87773D01*
X-61110Y87052D01*
X-61279Y86201D01*
X-61110Y85350D01*
X-60628Y84628D01*
X-59907Y84146D01*
X-59056Y83977D01*
X-55709D01*
X-54858Y84146D01*
X-54137Y84628D01*
X-54108Y84671D01*
X-52292D01*
X-52168Y84486D01*
X-51381Y83961D01*
X-50454Y83776D01*
X-49526Y83961D01*
X-48739Y84486D01*
X-48214Y85273D01*
X-48029Y86201D01*
X-48214Y87129D01*
X-48739Y87915D01*
X-49526Y88441D01*
X-50454Y88625D01*
D02*
G37*
G36*
X160661Y107779D02*
X158645Y107726D01*
X156662Y107359D01*
X154761Y106685D01*
X152989Y105723D01*
X151389Y104496D01*
X150001Y103033D01*
X148859Y101371D01*
X147991Y99551D01*
X147418Y97618D01*
X147155Y95618D01*
X147208Y93603D01*
X147575Y91620D01*
X148248Y89719D01*
X149211Y87947D01*
X150438Y86347D01*
X151901Y84959D01*
X153563Y83817D01*
X155383Y82949D01*
X157316Y82376D01*
X159315Y82113D01*
X161331Y82166D01*
X163314Y82533D01*
X165215Y83206D01*
X166987Y84168D01*
X168587Y85396D01*
X169975Y86859D01*
X171117Y88520D01*
X171985Y90341D01*
X172558Y92274D01*
X172821Y94273D01*
X172768Y96289D01*
X172401Y98272D01*
X171728Y100173D01*
X170765Y101945D01*
X169538Y103545D01*
X168075Y104933D01*
X166413Y106075D01*
X164593Y106943D01*
X162660Y107516D01*
X160661Y107779D01*
D02*
G37*
G36*
X4225Y80701D02*
X1756D01*
Y78134D01*
X4225D01*
Y80701D01*
D02*
G37*
G36*
X5225Y76597D02*
Y74772D01*
X7050D01*
X6965Y75200D01*
X6439Y75986D01*
X5652Y76512D01*
X5225Y76597D01*
D02*
G37*
G36*
X4225D02*
X3797Y76512D01*
X3010Y75986D01*
X2485Y75200D01*
X2400Y74772D01*
X4225D01*
Y76597D01*
D02*
G37*
G36*
X7050Y73772D02*
X5225D01*
Y71947D01*
X5652Y72032D01*
X6439Y72557D01*
X6965Y73344D01*
X7050Y73772D01*
D02*
G37*
G36*
X4225D02*
X2400D01*
X2485Y73344D01*
X3010Y72557D01*
X3797Y72032D01*
X4225Y71947D01*
Y73772D01*
D02*
G37*
G36*
X37803Y20065D02*
Y18240D01*
X39628D01*
X39543Y18668D01*
X39018Y19454D01*
X38231Y19980D01*
X37803Y20065D01*
D02*
G37*
G36*
X36803D02*
X36375Y19980D01*
X35589Y19454D01*
X35063Y18668D01*
X34978Y18240D01*
X36803D01*
Y20065D01*
D02*
G37*
G36*
X25041D02*
Y18240D01*
X26866D01*
X26781Y18668D01*
X26255Y19454D01*
X25469Y19980D01*
X25041Y20065D01*
D02*
G37*
G36*
X24041D02*
X23613Y19980D01*
X22826Y19454D01*
X22301Y18668D01*
X22216Y18240D01*
X24041D01*
Y20065D01*
D02*
G37*
G36*
X12278D02*
Y18240D01*
X14103D01*
X14018Y18668D01*
X13493Y19454D01*
X12706Y19980D01*
X12278Y20065D01*
D02*
G37*
G36*
X11278D02*
X10850Y19980D01*
X10064Y19454D01*
X9538Y18668D01*
X9453Y18240D01*
X11278D01*
Y20065D01*
D02*
G37*
G36*
X-484D02*
Y18240D01*
X1341D01*
X1256Y18668D01*
X730Y19454D01*
X-56Y19980D01*
X-484Y20065D01*
D02*
G37*
G36*
X-1484D02*
X-1912Y19980D01*
X-2699Y19454D01*
X-3224Y18668D01*
X-3309Y18240D01*
X-1484D01*
Y20065D01*
D02*
G37*
G36*
X-13247D02*
Y18240D01*
X-11422D01*
X-11507Y18668D01*
X-12032Y19454D01*
X-12819Y19980D01*
X-13247Y20065D01*
D02*
G37*
G36*
X-14247D02*
X-14675Y19980D01*
X-15461Y19454D01*
X-15987Y18668D01*
X-16072Y18240D01*
X-14247D01*
Y20065D01*
D02*
G37*
G36*
X-26009D02*
Y18240D01*
X-24184D01*
X-24269Y18668D01*
X-24795Y19454D01*
X-25581Y19980D01*
X-26009Y20065D01*
D02*
G37*
G36*
X-27009D02*
X-27437Y19980D01*
X-28224Y19454D01*
X-28749Y18668D01*
X-28834Y18240D01*
X-27009D01*
Y20065D01*
D02*
G37*
G36*
X-38772D02*
Y18240D01*
X-36947D01*
X-37032Y18668D01*
X-37557Y19454D01*
X-38344Y19980D01*
X-38772Y20065D01*
D02*
G37*
G36*
X-39772D02*
X-40200Y19980D01*
X-40986Y19454D01*
X-41512Y18668D01*
X-41597Y18240D01*
X-39772D01*
Y20065D01*
D02*
G37*
G36*
X39628Y17240D02*
X37803D01*
Y15415D01*
X38231Y15500D01*
X39018Y16025D01*
X39543Y16812D01*
X39628Y17240D01*
D02*
G37*
G36*
X36803D02*
X34978D01*
X35063Y16812D01*
X35589Y16025D01*
X36375Y15500D01*
X36803Y15415D01*
Y17240D01*
D02*
G37*
G36*
X26866D02*
X25041D01*
Y15415D01*
X25469Y15500D01*
X26255Y16025D01*
X26781Y16812D01*
X26866Y17240D01*
D02*
G37*
G36*
X24041D02*
X22216D01*
X22301Y16812D01*
X22826Y16025D01*
X23613Y15500D01*
X24041Y15415D01*
Y17240D01*
D02*
G37*
G36*
X14103D02*
X12278D01*
Y15415D01*
X12706Y15500D01*
X13493Y16025D01*
X14018Y16812D01*
X14103Y17240D01*
D02*
G37*
G36*
X11278D02*
X9453D01*
X9538Y16812D01*
X10064Y16025D01*
X10850Y15500D01*
X11278Y15415D01*
Y17240D01*
D02*
G37*
G36*
X1341D02*
X-484D01*
Y15415D01*
X-56Y15500D01*
X730Y16025D01*
X1256Y16812D01*
X1341Y17240D01*
D02*
G37*
G36*
X-1484D02*
X-3309D01*
X-3224Y16812D01*
X-2699Y16025D01*
X-1912Y15500D01*
X-1484Y15415D01*
Y17240D01*
D02*
G37*
G36*
X-11422D02*
X-13247D01*
Y15415D01*
X-12819Y15500D01*
X-12032Y16025D01*
X-11507Y16812D01*
X-11422Y17240D01*
D02*
G37*
G36*
X-14247D02*
X-16072D01*
X-15987Y16812D01*
X-15461Y16025D01*
X-14675Y15500D01*
X-14247Y15415D01*
Y17240D01*
D02*
G37*
G36*
X-24184D02*
X-26009D01*
Y15415D01*
X-25581Y15500D01*
X-24795Y16025D01*
X-24269Y16812D01*
X-24184Y17240D01*
D02*
G37*
G36*
X-27009D02*
X-28834D01*
X-28749Y16812D01*
X-28224Y16025D01*
X-27437Y15500D01*
X-27009Y15415D01*
Y17240D01*
D02*
G37*
G36*
X-36947D02*
X-38772D01*
Y15415D01*
X-38344Y15500D01*
X-37557Y16025D01*
X-37032Y16812D01*
X-36947Y17240D01*
D02*
G37*
G36*
X-39772D02*
X-41597D01*
X-41512Y16812D01*
X-40986Y16025D01*
X-40200Y15500D01*
X-39772Y15415D01*
Y17240D01*
D02*
G37*
G36*
X59055Y27448D02*
X57161Y27261D01*
X55340Y26709D01*
X53662Y25812D01*
X52190Y24605D01*
X50983Y23133D01*
X50086Y21455D01*
X49534Y19634D01*
X49347Y17740D01*
X49534Y15846D01*
X50086Y14025D01*
X50983Y12346D01*
X52190Y10875D01*
X53662Y9668D01*
X55340Y8771D01*
X57161Y8218D01*
X59055Y8032D01*
X60949Y8218D01*
X62770Y8771D01*
X64449Y9668D01*
X65920Y10875D01*
X67127Y12346D01*
X68024Y14025D01*
X68577Y15846D01*
X68763Y17740D01*
X68577Y19634D01*
X68024Y21455D01*
X67127Y23133D01*
X65920Y24605D01*
X64449Y25812D01*
X62770Y26709D01*
X60949Y27261D01*
X59055Y27448D01*
D02*
G37*
G36*
X-59055D02*
X-60949Y27261D01*
X-62770Y26709D01*
X-64449Y25812D01*
X-65920Y24605D01*
X-67127Y23133D01*
X-68024Y21455D01*
X-68577Y19634D01*
X-68763Y17740D01*
X-68577Y15846D01*
X-68024Y14025D01*
X-67127Y12346D01*
X-65920Y10875D01*
X-64449Y9668D01*
X-62770Y8771D01*
X-60949Y8218D01*
X-59055Y8032D01*
X-57161Y8218D01*
X-55340Y8771D01*
X-53662Y9668D01*
X-52190Y10875D01*
X-50983Y12346D01*
X-50086Y14025D01*
X-49534Y15846D01*
X-49347Y17740D01*
X-49534Y19634D01*
X-50086Y21455D01*
X-50983Y23133D01*
X-52190Y24605D01*
X-53662Y25812D01*
X-55340Y26709D01*
X-57161Y27261D01*
X-59055Y27448D01*
D02*
G37*
%LPD*%
D10*
X119291Y305118D02*
X201759D01*
X116969Y302796D02*
X119291Y305118D01*
X115121Y302796D02*
X116969D01*
X119193Y295276D02*
X199741D01*
X116673Y297796D02*
X119193Y295276D01*
X115121Y297796D02*
X116673D01*
X199741Y295276D02*
X206289Y288727D01*
X201759Y305118D02*
X208368Y298509D01*
X-9154Y93897D02*
X-1575Y86319D01*
D13*
X-200751Y149888D02*
X-147061D01*
X-118110Y178839D01*
Y184941D02*
Y191968D01*
X106791Y185039D02*
Y191968D01*
X67913Y140059D02*
X106791Y178937D01*
X-174998Y140059D02*
X67913D01*
X-194514Y120544D02*
X-174998Y140059D01*
D15*
X-19980Y92913D02*
X-16890D01*
X147087Y196879D02*
X147638Y196328D01*
X147087Y189674D02*
X154460Y197047D01*
X160149Y202773D02*
X177796D01*
X147639Y190262D02*
X160149Y202773D01*
X152869Y203412D02*
X162011Y212554D01*
X179875D01*
X158651Y217151D02*
X159203Y217702D01*
X163855Y222336D02*
X181954D01*
X159203Y217684D02*
X163855Y222336D01*
X164985Y231453D02*
X169175Y227264D01*
X184728D01*
X191735Y220257D01*
X186549Y237303D02*
X193815Y230038D01*
X181890Y237303D02*
X186549D01*
X174012Y245180D02*
X181890Y237303D01*
X170768Y245180D02*
X174012D01*
X170215Y244628D02*
X170768Y245180D01*
X164960Y244628D02*
X170215D01*
X-24054Y277264D02*
X-20609Y280708D01*
X-69784Y277264D02*
X-24054D01*
X-79331Y267717D02*
X-69784Y277264D01*
X-69882Y238976D02*
X82284D01*
X-79331Y248425D02*
X-69882Y238976D01*
X-79331Y248425D02*
Y267717D01*
X-68602Y242028D02*
X80610D01*
X-76279Y249705D02*
X-68602Y242028D01*
X-76279Y249705D02*
Y266240D01*
X-67421Y275098D01*
X-71260Y235925D02*
X84055D01*
X-82480Y247146D02*
X-71260Y235925D01*
X-82480Y247146D02*
Y269467D01*
X-71239Y280708D01*
X80610Y242028D02*
X97638Y259055D01*
X117913Y256201D02*
X127165Y265453D01*
X99508Y256201D02*
X117913D01*
X82284Y238976D02*
X99508Y256201D01*
X138111Y281025D02*
X194429D01*
X116142Y259055D02*
X138111Y281025D01*
X97638Y259055D02*
X116142D01*
X127165Y265453D02*
X186279D01*
X177076Y262795D02*
X188191Y251680D01*
X128839Y262795D02*
X177076D01*
X186279Y265453D02*
X190270Y261462D01*
X-67421Y275098D02*
X24410D01*
X30020Y280709D01*
X30571Y280157D01*
X35808D01*
X197329Y285827D02*
X204210Y278946D01*
X130118Y285827D02*
X197329D01*
X117087Y272796D02*
X130118Y285827D01*
X115121Y272796D02*
X117087D01*
X129802Y290806D02*
X196508D01*
X116792Y277796D02*
X129802Y290806D01*
X115121Y277796D02*
X116792D01*
X119291Y253248D02*
X128839Y262795D01*
X101378Y253248D02*
X119291D01*
X84055Y235925D02*
X101378Y253248D01*
X-20609Y280708D02*
X-20058Y280157D01*
X-14822D01*
X-71239Y280708D02*
X-70688Y280157D01*
X-65452D01*
X3150Y95866D02*
X4725Y94291D01*
X-1417Y95866D02*
X3150D01*
X170216Y251832D02*
X170767Y251281D01*
X164434Y238094D02*
X164985Y237543D01*
X163582Y251832D02*
Y256300D01*
X157800Y238094D02*
Y242562D01*
X152017Y224356D02*
Y228824D01*
X152869Y210617D02*
X153420Y210066D01*
X146235Y210617D02*
Y215085D01*
X140453Y196879D02*
Y201347D01*
X-23533Y100098D02*
X-23524D01*
X-23824Y99808D02*
X-23533Y100098D01*
X-23824Y99808D02*
X-21850Y97834D01*
X-22441Y90453D02*
X-19980Y92913D01*
X-28543Y95866D02*
X-16890D01*
X-33878Y101201D02*
X-28543Y95866D01*
X-35926Y101201D02*
X-33878D01*
X-35926Y86201D02*
X-28997D01*
X-21850Y97834D02*
X-16890D01*
X-57382Y86201D02*
X-50454D01*
X-42854Y91201D02*
X-35926D01*
X159203Y217684D02*
X160253Y216634D01*
X-77756Y216535D02*
X103115D01*
X138337Y220753D02*
X144143D01*
X-101555Y240335D02*
X-77756Y216535D01*
X-78248Y212303D02*
X103115D01*
X-78347Y212205D02*
X-78248Y212303D01*
X-77559Y220866D02*
X114235D01*
X-99587Y242894D02*
X-77559Y220866D01*
X132554Y207015D02*
X138361D01*
X132578Y188808D02*
Y193276D01*
X132554Y202547D02*
Y207015D01*
X138337Y216249D02*
Y220717D01*
X-103524Y237382D02*
X-78347Y212205D01*
X-103524Y237382D02*
Y281693D01*
X-101555Y240335D02*
Y281693D01*
X-99587Y242894D02*
Y281693D01*
X149901Y248230D02*
X155708D01*
X-77854Y225197D02*
X78839D01*
X-93012Y240354D02*
X-77854Y225197D01*
X-93012Y240354D02*
Y284941D01*
X78839Y225197D02*
X101873Y248232D01*
X149902D01*
X108563Y287796D02*
X115121D01*
X108563Y292796D02*
X115121D01*
X93665Y302796D02*
X100223D01*
X59469Y344468D02*
X60080Y345079D01*
X-133916D02*
X-128464D01*
X-134507Y344488D02*
X-133916Y345079D01*
X-29527D02*
X-28897Y344449D01*
X-34408Y344468D02*
X-33798Y345079D01*
X-76044Y332480D02*
X-70552D01*
X62716Y345079D02*
X64961Y342834D01*
X60080Y345079D02*
X62716D01*
X-33798D02*
X-29527D01*
X-129035Y344508D02*
X-128464Y345079D01*
X-102618Y328248D02*
Y335630D01*
X-2500Y328209D02*
Y335630D01*
X102579Y341610D02*
Y342008D01*
Y328248D02*
Y341610D01*
X2500D02*
Y341968D01*
Y328209D02*
Y341610D01*
X-97618D02*
Y342008D01*
Y328248D02*
Y341610D01*
X124153Y332479D02*
X129644D01*
X24074Y332440D02*
X29566D01*
X-70630Y263346D02*
X-20000D01*
X125347Y207040D02*
X132554D01*
X121555Y203248D02*
X125347Y207040D01*
X121555Y109351D02*
Y203248D01*
X126772Y199379D02*
Y203847D01*
X132554Y213142D02*
Y217610D01*
X144119Y234492D02*
X149925D01*
X136842Y234480D02*
X144119D01*
X111122Y208760D02*
X136842Y234480D01*
X111122Y109547D02*
Y208760D01*
X138337Y226819D02*
Y231288D01*
X144119Y240583D02*
Y245051D01*
X149902Y254334D02*
Y258802D01*
X-27736Y331063D02*
Y339449D01*
X-127854Y331102D02*
Y339488D01*
X-118110Y191968D02*
X-118110Y191968D01*
X-96653Y275611D02*
Y281102D01*
X-109015Y299212D02*
X-103524D01*
X-102224Y303445D02*
X-100886D01*
X-103524Y299212D02*
Y302146D01*
X-102224Y303445D01*
X-100886D02*
X-99587Y302146D01*
Y299212D02*
Y302146D01*
X-97618Y281693D02*
X-95650D01*
X-101555Y293484D02*
X-93012Y284941D01*
X-101555Y293484D02*
Y299212D01*
X-97618Y309272D02*
X-96752Y310138D01*
X-97618Y299212D02*
Y309272D01*
Y311005D02*
X-96752Y310138D01*
X-97618Y311005D02*
Y318405D01*
Y328248D01*
X-88150Y88741D02*
Y97244D01*
X4725Y112500D02*
Y119428D01*
X4725Y74272D02*
Y81201D01*
X131544Y220717D02*
X138337D01*
X116339Y205512D02*
X131544Y220717D01*
X116339Y109449D02*
Y205512D01*
X69882Y52362D02*
X69882D01*
X-11122D02*
X69882D01*
X126772Y109252D02*
Y193276D01*
X69882Y52362D02*
X126772Y109252D01*
X63681Y62106D02*
X111122Y109547D01*
X65748Y58858D02*
X116339Y109449D01*
X67815Y55610D02*
X121555Y109351D01*
X-15157Y55610D02*
X67815D01*
X-7185Y58858D02*
X65650D01*
X-17717Y89960D02*
X-16890D01*
X-18307Y89370D02*
X-17717Y89960D01*
X-18307Y82874D02*
Y89370D01*
Y62106D02*
X63681D01*
X126772Y193276D02*
X132578D01*
X126772D02*
Y193277D01*
X-15157Y79232D02*
Y79267D01*
X-13091Y81334D01*
Y86161D01*
X-7185Y79232D02*
Y86161D01*
X-11122Y79232D02*
Y86161D01*
X4725Y106594D02*
X16930D01*
X4725Y87106D02*
X16930D01*
Y78149D02*
Y87106D01*
X-1417Y97834D02*
X3149D01*
X4725Y99410D01*
X4725Y87106D02*
Y94291D01*
X4725Y99410D02*
Y106594D01*
X-9154Y93897D02*
X-1417D01*
X76104Y346161D02*
X77777Y344488D01*
X68602Y346161D02*
X76104D01*
X66436Y343995D02*
X68602Y346161D01*
X65059Y343995D02*
X66436D01*
X67127Y337696D02*
X72343Y342913D01*
X65059Y337696D02*
X67127D01*
X77777Y344488D02*
X81339D01*
X-28897Y344449D02*
X-18740D01*
X-129015Y344488D02*
X-118858D01*
X-27736Y339449D02*
X-18740D01*
X113819Y339488D02*
X123444D01*
X124153Y338779D01*
X113819Y334488D02*
X122145D01*
X124153Y332480D01*
X13740Y339449D02*
X23365D01*
X24074Y338740D01*
X13740Y334449D02*
X22066D01*
X24074Y332440D01*
X-78052Y334488D02*
X-76044Y332480D01*
X-86378Y334488D02*
X-78052D01*
X-76753Y339488D02*
X-76044Y338779D01*
X-86378Y339488D02*
X-76753D01*
X-127854D02*
X-118858D01*
X107579Y328248D02*
X117480D01*
X7500Y328209D02*
X17402D01*
X108563Y267796D02*
X115121D01*
X108563Y282796D02*
X115121D01*
X-92618Y328248D02*
Y337697D01*
X-90827Y339488D01*
X-86378D01*
X72343Y325000D02*
X87579D01*
X97579Y328248D02*
Y332047D01*
X94784Y334842D02*
X97579Y332047D01*
X90453Y334842D02*
X94784D01*
X87579Y331968D02*
X90453Y334842D01*
X87579Y328248D02*
Y331968D01*
X72343Y336810D02*
X72343Y336810D01*
Y331102D02*
Y336810D01*
X72343Y336810D02*
X75021Y339488D01*
X81339D01*
X87579Y325000D02*
Y328248D01*
X-12500Y324960D02*
Y328209D01*
X-27736Y324960D02*
X-12500D01*
X-127854Y325000D02*
X-112618D01*
Y328248D01*
X102618Y360728D02*
Y369547D01*
X105118Y372047D01*
X97618Y360728D02*
Y369547D01*
X95118Y372047D02*
X97618Y369547D01*
X92618Y360728D02*
Y364547D01*
X85118Y372047D02*
X92618Y364547D01*
X107618Y360728D02*
Y364547D01*
X115118Y372047D01*
X113858Y354488D02*
X122146D01*
X125118Y357461D01*
Y372047D01*
X113858Y349488D02*
X127284D01*
X135118Y357323D01*
Y372047D01*
X113858Y344488D02*
X132028D01*
X145118Y357579D01*
Y372047D01*
X65118Y357559D02*
Y372047D01*
Y357559D02*
X68189Y354488D01*
X81378D01*
X55118Y357421D02*
Y372047D01*
Y357421D02*
X63051Y349488D01*
X81378D01*
X75118Y363110D02*
Y372047D01*
Y363110D02*
X77500Y360728D01*
X87618D01*
X2500Y360728D02*
Y369547D01*
X5000Y372047D01*
X-2500Y360728D02*
Y369547D01*
X-5000Y372047D02*
X-2500Y369547D01*
X-7500Y360728D02*
Y364547D01*
X-15000Y372047D02*
X-7500Y364547D01*
X7500Y360728D02*
Y364547D01*
X15000Y372047D01*
X13740Y354488D02*
X22028D01*
X25000Y357461D01*
Y372047D01*
X13740Y349488D02*
X27165D01*
X35000Y357323D01*
Y372047D01*
X13740Y344488D02*
X31909D01*
X45000Y357579D01*
Y372047D01*
X-35000Y357559D02*
Y372047D01*
Y357559D02*
X-31929Y354488D01*
X-18740D01*
X-45000Y357421D02*
Y372047D01*
Y357421D02*
X-37067Y349488D01*
X-18740D01*
X-25000Y363110D02*
Y372047D01*
Y363110D02*
X-22618Y360728D01*
X-12500D01*
X-122736D02*
X-112618D01*
X-125118Y363110D02*
X-122736Y360728D01*
X-125118Y363110D02*
Y372047D01*
X-137185Y349488D02*
X-118858D01*
X-145118Y357421D02*
X-137185Y349488D01*
X-145118Y357421D02*
Y372047D01*
X-132047Y354488D02*
X-118858D01*
X-135118Y357559D02*
X-132047Y354488D01*
X-135118Y357559D02*
Y372047D01*
X-55118Y357579D02*
Y372047D01*
X-68209Y344488D02*
X-55118Y357579D01*
X-86378Y344488D02*
X-68209D01*
X-65118Y357323D02*
Y372047D01*
X-72953Y349488D02*
X-65118Y357323D01*
X-86378Y349488D02*
X-72953D01*
X-75118Y357461D02*
Y372047D01*
X-78091Y354488D02*
X-75118Y357461D01*
X-86378Y354488D02*
X-78091D01*
X-92618Y364547D02*
X-85118Y372047D01*
X-92618Y360728D02*
Y364547D01*
X-115118Y372047D02*
X-107618Y364547D01*
Y360728D02*
Y364547D01*
X-105118Y372047D02*
X-102618Y369547D01*
Y360728D02*
Y369547D01*
X-97618D02*
X-95118Y372047D01*
X-97618Y360728D02*
Y369547D01*
X141830Y196879D02*
X147087D01*
X141830Y189674D02*
X147087D01*
X147613Y210617D02*
X152869D01*
X147613Y203412D02*
X152869D01*
X153395Y224356D02*
X158651D01*
X159203Y223804D01*
X153395Y217151D02*
X158651D01*
X159177Y238094D02*
X164434D01*
X159177Y230889D02*
X164434D01*
X164985Y231440D01*
X164960Y251832D02*
X170216D01*
X-70689Y287362D02*
X-65452D01*
X-71240Y286811D02*
X-70689Y287362D01*
X-20059Y287362D02*
X-14822D01*
X-20610Y286811D02*
X-20059Y287362D01*
X30020Y286811D02*
X30571Y287362D01*
X35808D01*
X45059Y283760D02*
X50551D01*
X-5571Y283760D02*
X-79D01*
X-56200Y283760D02*
X-50709D01*
X84807Y307677D02*
X84862D01*
X89311Y303228D01*
Y300545D02*
Y303228D01*
X84807Y296653D02*
X84862D01*
X91673Y292795D02*
X93665D01*
X89311Y300545D02*
X92060Y297795D01*
X93665D01*
X84807Y302165D02*
X85890D01*
X89311Y295158D02*
X91673Y292795D01*
X89311Y295158D02*
Y297716D01*
X85890Y301137D02*
X89311Y297716D01*
X85890Y301137D02*
Y302165D01*
X84862Y296653D02*
X89311Y292204D01*
Y290083D02*
Y292204D01*
Y290083D02*
X91598Y287795D01*
X93665D01*
X84807Y291141D02*
X89236Y286713D01*
Y285232D02*
Y286713D01*
Y285232D02*
X91673Y282795D01*
X93665D01*
X88036Y277795D02*
X93665D01*
X84807Y274567D02*
X88036Y277795D01*
X88647Y272795D02*
X93665D01*
X84807Y268956D02*
X88647Y272795D01*
X89257Y267795D02*
X93665D01*
X84807Y263346D02*
X89257Y267795D01*
X60630Y272047D02*
X76240D01*
X10000Y272047D02*
X60630Y272047D01*
X-40630Y272047D02*
X10000D01*
X40630Y266929D02*
X76732D01*
X-10000Y266929D02*
X40630Y266929D01*
X-60630Y266929D02*
X-10000D01*
X30630Y263346D02*
X78760D01*
X-20000Y263346D02*
X30630Y263346D01*
X70630Y293701D02*
X76146D01*
X20000Y293701D02*
X70630Y293701D01*
X-30630Y293701D02*
X20000D01*
X10000Y298819D02*
X60630D01*
X-40630Y298819D02*
X10000Y298819D01*
X60630D02*
X76594D01*
X78760Y296654D01*
X30630Y304331D02*
X76594D01*
X-20000Y304331D02*
X30630Y304331D01*
X-70630Y304331D02*
X-20000D01*
X40630Y307677D02*
X78760D01*
X-10000Y307677D02*
X40630Y307677D01*
X-60630Y307677D02*
X-10000D01*
X76240Y272047D02*
X78760Y274567D01*
X76732Y266929D02*
X78760Y268957D01*
X76594Y304331D02*
X78760Y302166D01*
X78705Y291142D02*
X78760D01*
X76146Y293701D02*
X78705Y291142D01*
X-30630Y293701D02*
X-30630Y293701D01*
X60630Y298819D02*
X60630Y298819D01*
X-70630Y304331D02*
X-70630Y304331D01*
X40630Y307481D02*
X40630Y307480D01*
X60630Y272047D02*
X60630Y272047D01*
X40630Y266929D02*
X40630Y266929D01*
X30630Y263386D02*
X30630Y263386D01*
D28*
X198587Y300588D02*
D03*
X196508Y290806D02*
D03*
X194429Y281025D02*
D03*
X192350Y271243D02*
D03*
X190270Y261462D02*
D03*
X188191Y251680D02*
D03*
X186112Y241899D02*
D03*
X184033Y232117D02*
D03*
X181954Y222336D02*
D03*
X179875Y212554D02*
D03*
X177796Y202773D02*
D03*
X175716Y192991D02*
D03*
X173637Y183210D02*
D03*
X171558Y173428D02*
D03*
X169479Y163647D02*
D03*
X167400Y153866D02*
D03*
X165321Y144084D02*
D03*
X163242Y134302D02*
D03*
X161163Y124521D02*
D03*
X208368Y298509D02*
D03*
X206289Y288727D02*
D03*
X204210Y278946D02*
D03*
X202131Y269164D02*
D03*
X200052Y259383D02*
D03*
X197973Y249601D02*
D03*
X195894Y239820D02*
D03*
X193815Y230038D02*
D03*
X191735Y220257D02*
D03*
X189656Y210475D02*
D03*
X187577Y200694D02*
D03*
X185498Y190912D02*
D03*
X183419Y181131D02*
D03*
X181340Y171349D02*
D03*
X179261Y161568D02*
D03*
X177181Y151786D02*
D03*
X175102Y142005D02*
D03*
X173023Y132223D02*
D03*
X170944Y122442D02*
D03*
X168865Y112661D02*
D03*
X159084Y114740D02*
D03*
D29*
X159988Y94946D02*
D03*
X71416Y113772D02*
D03*
X207464Y318302D02*
D03*
D30*
X-88150Y97244D02*
D03*
X-78150D02*
D03*
X-188277Y91199D02*
D03*
X-190356Y100981D02*
D03*
X-192435Y110762D02*
D03*
X-194514Y120544D02*
D03*
X-196593Y130325D02*
D03*
X-198672Y140106D02*
D03*
X-200751Y149888D02*
D03*
X-202830Y159669D02*
D03*
X-204910Y169451D02*
D03*
X-206989Y179232D02*
D03*
X145118Y372047D02*
D03*
X135118D02*
D03*
X125118D02*
D03*
X115118D02*
D03*
X105118D02*
D03*
X95118D02*
D03*
X85118D02*
D03*
X75118D02*
D03*
X65118D02*
D03*
X55118D02*
D03*
Y401575D02*
D03*
X65118D02*
D03*
X75118D02*
D03*
X85118D02*
D03*
X95118D02*
D03*
X105118D02*
D03*
X115118D02*
D03*
X125118D02*
D03*
X135118D02*
D03*
X145118D02*
D03*
X45000Y372047D02*
D03*
X35000D02*
D03*
X25000D02*
D03*
X15000D02*
D03*
X5000D02*
D03*
X-5000D02*
D03*
X-15000D02*
D03*
X-25000D02*
D03*
X-35000D02*
D03*
X-45000D02*
D03*
Y401575D02*
D03*
X-35000D02*
D03*
X-25000D02*
D03*
X-15000D02*
D03*
X-5000D02*
D03*
X5000D02*
D03*
X15000D02*
D03*
X25000D02*
D03*
X35000D02*
D03*
X45000D02*
D03*
X-55118Y372047D02*
D03*
X-65118D02*
D03*
X-75118D02*
D03*
X-85118D02*
D03*
X-95118D02*
D03*
X-105118D02*
D03*
X-115118D02*
D03*
X-125118D02*
D03*
X-135118D02*
D03*
X-145118D02*
D03*
Y401575D02*
D03*
X-135118D02*
D03*
X-125118D02*
D03*
X-115118D02*
D03*
X-105118D02*
D03*
X-95118D02*
D03*
X-85118D02*
D03*
X-75118D02*
D03*
X-65118D02*
D03*
X-55118D02*
D03*
X-29921Y153543D02*
D03*
X29921D02*
D03*
D31*
X30630Y315906D02*
D03*
X40630D02*
D03*
X50630D02*
D03*
X60630D02*
D03*
X70630D02*
D03*
Y255906D02*
D03*
X60630D02*
D03*
X50630D02*
D03*
X40630D02*
D03*
X30630D02*
D03*
X-20000Y315905D02*
D03*
X-10000D02*
D03*
X0D02*
D03*
X10000D02*
D03*
X20000D02*
D03*
Y255906D02*
D03*
X10000D02*
D03*
X0D02*
D03*
X-10000D02*
D03*
X-20000D02*
D03*
X-70630Y315906D02*
D03*
X-60630D02*
D03*
X-50630D02*
D03*
X-40630D02*
D03*
X-30630D02*
D03*
Y255906D02*
D03*
X-40630D02*
D03*
X-50630D02*
D03*
X-60630D02*
D03*
X-70630D02*
D03*
D32*
X110393Y459265D02*
D03*
X59055Y17740D02*
D03*
X-213541Y208935D02*
D03*
X-110393Y459265D02*
D03*
X-59055Y17740D02*
D03*
X213541Y208935D02*
D03*
D33*
X-38583Y182874D02*
D03*
X-25820D02*
D03*
X-13058D02*
D03*
X-295D02*
D03*
X12467D02*
D03*
X25230D02*
D03*
X37992D02*
D03*
X-41831Y459265D02*
D03*
X-29068D02*
D03*
X-16306D02*
D03*
X-3543D02*
D03*
X9219D02*
D03*
X21982D02*
D03*
X34744D02*
D03*
X37303Y17740D02*
D03*
X24541D02*
D03*
X11778D02*
D03*
X-984D02*
D03*
X-13747D02*
D03*
X-26509D02*
D03*
X-39272D02*
D03*
X-23524Y100098D02*
D03*
X-22441Y90453D02*
D03*
X-28997Y86201D02*
D03*
X-50454D02*
D03*
X-42854Y91201D02*
D03*
X103115Y212303D02*
D03*
X114235Y220866D02*
D03*
X103115Y216535D02*
D03*
X132578Y188808D02*
D03*
X132554Y202547D02*
D03*
X138337Y216249D02*
D03*
X108563Y287796D02*
D03*
Y292796D02*
D03*
X100223Y302796D02*
D03*
X102579Y341610D02*
D03*
X-2500Y335630D02*
D03*
X-34408Y345079D02*
D03*
X59469D02*
D03*
X129644Y332479D02*
D03*
X29566Y332440D02*
D03*
X-70552Y332480D02*
D03*
X-134507Y345079D02*
D03*
X-20000Y263385D02*
D03*
X126772Y203847D02*
D03*
X132554Y217610D02*
D03*
X138337Y231288D02*
D03*
X144119Y245051D02*
D03*
X149902Y258802D02*
D03*
X163582Y256300D02*
D03*
X157800Y242562D02*
D03*
X152017Y228824D02*
D03*
X146235Y215085D02*
D03*
X140453Y201347D02*
D03*
X-118110Y191968D02*
D03*
Y172107D02*
D03*
X-96653Y275611D02*
D03*
X-109015Y299212D02*
D03*
X106791Y171811D02*
D03*
Y191968D02*
D03*
X4725Y119428D02*
D03*
X4725Y74272D02*
D03*
X-15157Y55610D02*
D03*
X-7185Y58858D02*
D03*
X-18307Y62106D02*
D03*
Y82874D02*
D03*
X-11122Y52362D02*
D03*
X-15157Y79232D02*
D03*
X-7185Y79232D02*
D03*
X-11122D02*
D03*
X2500Y341610D02*
D03*
X-97618D02*
D03*
X117480Y328248D02*
D03*
X-102618Y335630D02*
D03*
X17402Y328209D02*
D03*
X108563Y267796D02*
D03*
Y282796D02*
D03*
X50551Y283760D02*
D03*
X-79Y283760D02*
D03*
X-50709Y283760D02*
D03*
X30630Y304331D02*
D03*
X40630Y307480D02*
D03*
X60630Y298819D02*
D03*
X70630Y293701D02*
D03*
X60630Y272047D02*
D03*
X40630Y266929D02*
D03*
X30630Y263386D02*
D03*
X-20000Y304331D02*
D03*
X-10000Y307480D02*
D03*
X10000Y298819D02*
D03*
X20000Y293701D02*
D03*
X10000Y272047D02*
D03*
X-10000Y266929D02*
D03*
X-70630Y304331D02*
D03*
X-60630Y307481D02*
D03*
X-40630Y298819D02*
D03*
X-30630Y293701D02*
D03*
X-40630Y272047D02*
D03*
X-60630Y266929D02*
D03*
X-70630Y263386D02*
D03*
D34*
X155708Y248230D02*
D03*
X164960Y244628D02*
D03*
Y251832D02*
D03*
X149925Y234492D02*
D03*
X159177Y230889D02*
D03*
Y238094D02*
D03*
X144143Y220753D02*
D03*
X153395Y217151D02*
D03*
Y224356D02*
D03*
X138361Y207015D02*
D03*
X147613Y203412D02*
D03*
Y210617D02*
D03*
X132578Y193276D02*
D03*
X141830Y189674D02*
D03*
Y196879D02*
D03*
X45060Y283760D02*
D03*
X35808Y287362D02*
D03*
Y280157D02*
D03*
X-5570Y283759D02*
D03*
X-14822Y287362D02*
D03*
Y280157D02*
D03*
X-56200Y283760D02*
D03*
X-65452Y287362D02*
D03*
Y280157D02*
D03*
D35*
X149902Y248232D02*
D03*
Y254334D02*
D03*
X170768Y245180D02*
D03*
Y251283D02*
D03*
X144119Y234480D02*
D03*
Y240583D02*
D03*
X164985Y231453D02*
D03*
Y237556D02*
D03*
X138337Y220717D02*
D03*
Y226819D02*
D03*
X159203Y217684D02*
D03*
Y223786D02*
D03*
X132554Y207040D02*
D03*
Y213142D02*
D03*
X153420Y203988D02*
D03*
Y210091D02*
D03*
X147639Y190262D02*
D03*
Y196364D02*
D03*
X126772Y193277D02*
D03*
Y199379D02*
D03*
X-118110Y178839D02*
D03*
Y184941D02*
D03*
X106791Y178937D02*
D03*
Y185039D02*
D03*
X30020Y286811D02*
D03*
Y280709D02*
D03*
X-20609Y286810D02*
D03*
Y280708D02*
D03*
X-71239Y286811D02*
D03*
Y280708D02*
D03*
X-127854Y331102D02*
D03*
Y325000D02*
D03*
X-27735Y331062D02*
D03*
Y324960D02*
D03*
X72343Y342913D02*
D03*
Y336810D02*
D03*
X72343Y331102D02*
D03*
Y324999D02*
D03*
D36*
X4725Y87106D02*
D03*
Y81201D02*
D03*
X4725Y106594D02*
D03*
Y112500D02*
D03*
D37*
X-1417Y93897D02*
D03*
X-16890Y91929D02*
D03*
Y93897D02*
D03*
Y97834D02*
D03*
Y89960D02*
D03*
Y95866D02*
D03*
X-1417Y97834D02*
D03*
Y95866D02*
D03*
Y91929D02*
D03*
Y89960D02*
D03*
D38*
X-11122Y101634D02*
D03*
X-13091D02*
D03*
X-7185D02*
D03*
X-9154D02*
D03*
X-5217D02*
D03*
Y86161D02*
D03*
X-7185D02*
D03*
X-9154D02*
D03*
X-11122D02*
D03*
X-13091D02*
D03*
D39*
X-9154Y93897D02*
D03*
D40*
X16930Y78149D02*
D03*
Y115551D02*
D03*
D41*
X-35926Y101201D02*
D03*
Y96201D02*
D03*
Y91201D02*
D03*
Y86201D02*
D03*
X-57382Y101201D02*
D03*
Y96201D02*
D03*
Y91201D02*
D03*
Y86201D02*
D03*
X115121Y302796D02*
D03*
Y297796D02*
D03*
Y292796D02*
D03*
Y287796D02*
D03*
Y282796D02*
D03*
Y277796D02*
D03*
Y272796D02*
D03*
Y267796D02*
D03*
X93665Y302796D02*
D03*
Y297796D02*
D03*
Y292796D02*
D03*
Y287796D02*
D03*
Y282796D02*
D03*
Y277796D02*
D03*
Y272796D02*
D03*
Y267796D02*
D03*
D42*
X-82047Y88741D02*
D03*
X-88150D02*
D03*
X84862Y274567D02*
D03*
X78760D02*
D03*
X84862Y268956D02*
D03*
X78760D02*
D03*
X84862Y263346D02*
D03*
X78760D02*
D03*
X84862Y291141D02*
D03*
X78760D02*
D03*
X84862Y296653D02*
D03*
X78760D02*
D03*
X84862Y302165D02*
D03*
X78760D02*
D03*
X84862Y307677D02*
D03*
X78760D02*
D03*
X-91516Y318405D02*
D03*
X-97618D02*
D03*
D43*
X-129035Y344508D02*
D03*
Y338209D02*
D03*
X-76005Y332479D02*
D03*
Y338778D02*
D03*
X-28916Y344489D02*
D03*
Y338190D02*
D03*
X24074Y332440D02*
D03*
Y338739D02*
D03*
X64961Y342834D02*
D03*
Y336535D02*
D03*
X124153Y332479D02*
D03*
Y338778D02*
D03*
D44*
X-95650Y281693D02*
D03*
X-97618D02*
D03*
X-99587D02*
D03*
X-101555D02*
D03*
X-103524D02*
D03*
X-95650Y299212D02*
D03*
X-97618D02*
D03*
X-99587D02*
D03*
X-101555D02*
D03*
X-103524D02*
D03*
D45*
X-96752Y310138D02*
D03*
X-90452D02*
D03*
D46*
X-86378Y334488D02*
D03*
Y339488D02*
D03*
Y344488D02*
D03*
Y349488D02*
D03*
Y354488D02*
D03*
X-118858D02*
D03*
Y349488D02*
D03*
Y344488D02*
D03*
Y339488D02*
D03*
Y334488D02*
D03*
X13740Y334449D02*
D03*
Y339449D02*
D03*
Y344449D02*
D03*
Y349449D02*
D03*
Y354449D02*
D03*
X-18740D02*
D03*
Y349449D02*
D03*
Y344449D02*
D03*
Y339449D02*
D03*
Y334449D02*
D03*
X113819Y334488D02*
D03*
Y339488D02*
D03*
Y344488D02*
D03*
Y349488D02*
D03*
Y354488D02*
D03*
X81339D02*
D03*
Y349488D02*
D03*
Y344488D02*
D03*
Y339488D02*
D03*
Y334488D02*
D03*
D47*
X-92618Y360728D02*
D03*
X-97618D02*
D03*
X-102618D02*
D03*
X-107618D02*
D03*
X-112618D02*
D03*
Y328248D02*
D03*
X-107618D02*
D03*
X-102618D02*
D03*
X-97618D02*
D03*
X-92618D02*
D03*
X7500Y360689D02*
D03*
X2500D02*
D03*
X-2500D02*
D03*
X-7500D02*
D03*
X-12500D02*
D03*
Y328209D02*
D03*
X-7500D02*
D03*
X-2500D02*
D03*
X2500D02*
D03*
X7500D02*
D03*
X107579Y360728D02*
D03*
X102579D02*
D03*
X97579D02*
D03*
X92579D02*
D03*
X87579D02*
D03*
Y328248D02*
D03*
X92579D02*
D03*
X97579D02*
D03*
X102579D02*
D03*
X107579D02*
D03*
D48*
X-62540Y94647D02*
X-60987Y96201D01*
X-75553Y94647D02*
X-62540D01*
X-78150Y97244D02*
X-75553Y94647D01*
X-61933Y92147D02*
X-60987Y91201D01*
X-78641Y92147D02*
X-61933D01*
X-82047Y88741D02*
X-78641Y92147D01*
X-85749Y85039D02*
X-82047Y88741D01*
X-188277Y91199D02*
X-184343Y95132D01*
X-101924D01*
X-91831Y85039D02*
X-85749D01*
X-101924Y95132D02*
X-91831Y85039D01*
X-84056Y103150D02*
X-78150Y97244D01*
X-102367Y97632D02*
X-96850Y103150D01*
X-84056D01*
X-190356Y100981D02*
X-188087D01*
X-184739Y97632D01*
X-102367D01*
X-60987Y96201D02*
X-57382D01*
X-60987Y91201D02*
X-57382D01*
M02*
