M48
;Layer_Color=9474304
;FILE_FORMAT=2:5
INCH,LZ
;TYPE=PLATED
T1F00S00C0.01575
T2F00S00C0.03543
T3F00S00C0.04134
T4F00S00C0.04370
T5F00S00C0.04528
T6F00S00C0.11811
T7F00S00C0.17323
;TYPE=NON_PLATED
T8F00S00C0.03937
T9F00S00C0.04331
T10F00S00C0.10630
T11F00S00C0.11811
%
T01
X-0039272Y001774
X-0026509
X-0013747
X-0000984
X0011778
X0024541
X0037303
X-0011122Y0052362
X-0015157Y005561
X-0018307Y0062106
X-0007185Y0058858
X-0007185Y0079232
X-0011122
X-0015157Y0079232
X-0018307Y0082874
X-0022441Y0090453
X-0023524Y0100098
X-0028997Y0086201
X-0042854Y0091201
X-0050454Y0086201
X0004725Y0074272
X0004725Y0119428
X-011811Y0172107
Y0191968
X-0038583Y0182874
X-002582
X-0013058
X-0000295
X0012467
X002523
X0037992
X004063Y0266929
X003063Y0263386
X001Y0272047
X-0000079Y028376
X001Y0298819
X002Y0293701
X003063Y0304331
X004063Y030748
X-001Y030748
X-002Y0304331
X-003063Y0293701
X-004063Y0298819
X-0050709Y028376
X-004063Y0272047
X-006063Y0266929
X-007063Y0263386
X-0096653Y0275611
X-0109015Y0299212
X-007063Y0304331
X-006063Y0307481
X-002Y0263385
X-001Y0266929
X006063Y0272047
X0050551Y028376
X006063Y0298819
X007063Y0293701
X0100223Y0302796
X0108563Y0292796
Y0287796
Y0282796
Y0267796
X0149902Y0258802
X0163582Y02563
X01578Y0242562
X0144119Y0245051
X0138337Y0231288
Y0216249
X0132554Y021761
X0132554Y0202547
X0126772Y0203847
X0140453Y0201347
X0146235Y0215085
X0152017Y0228824
X0114235Y0220866
X0103115Y0216535
Y0212303
X0106791Y0191968
Y0171811
X0132578Y0188808
X0129644Y0332479
X011748Y0328248
X0102579Y034161
X0059469Y0345079
X0029566Y033244
X0017402Y0328209
X-00025Y033563
X00025Y034161
X-0034408Y0345079
X-0070552Y033248
X-0102618Y033563
X-0097618Y034161
X-0041831Y0459265
X-0029068
X-0016306
X-0003543
X0009219
X0021982
X0034744
X-0134507Y0345079
T02
X0055118Y0372047
X0065118
X0075118
X0085118
X0095118
X0105118
X0115118
X0125118
X0135118
X0145118
Y0401575
X0135118
X0125118
X0115118
X0105118
X0095118
X0085118
X0075118
X0065118
X0055118
X0045Y0401575
X0035
X0025
X0015
X0005
X-0005
X-0015
X-0025
X-0035
X-0045
X-0055118
X-0065118
X-0075118
X-0085118
X-0095118
X-0105118
Y0372047
X-0095118
X-0085118
X-0075118
X-0065118
X-0055118
X-0045
X-0035
X-0025
X-0015
X-0005
X0005
X0015
X0025
X0035
X0045
X-0115118
X-0125118
X-0135118
X-0145118
Y0401575
X-0135118
X-0125118
X-0115118
T03
X-0029921Y0153543
X0029921
T04
X-0188277Y0091199
X-0190356Y0100981
X-0192435Y0110762
X-0194514Y0120544
X-0196593Y0130325
X-0198672Y0140106
X-0200751Y0149888
X-020283Y0159669
X-020491Y0169451
X-0206989Y0179232
T05
X-008815Y0097244
X-007815
T06
X0071416Y0113772
T07
X0059055Y001774
X-0059055
X-0213541Y0208935
X0213541
X0110393Y0459265
X-0110393
T08
X-007063Y0255906
X-006063
X-005063
X-004063
X-003063
X-002Y0255906
X-001
X0
X001
X002
X003063Y0255906
X004063
Y0315906
X003063
X002Y0315905
X001
X0
X-001
X-002
X-003063Y0315906
X-004063
X-005063
X-006063
X-007063
X005063Y0315906
X006063
X007063
Y0255906
X006063
X005063
T09
X0159084Y011474
X0161163Y0124521
X0163242Y0134302
X0165321Y0144084
X0175102Y0142005
X0177181Y0151786
X01674Y0153866
X0179261Y0161568
X0173023Y0132223
X0170944Y0122442
X0168865Y0112661
X0169479Y0163647
X0171558Y0173428
X0173637Y018321
X0175716Y0192991
X0185498Y0190912
X0187577Y0200694
X0177796Y0202773
X0179875Y0212554
X0181954Y0222336
X0184033Y0232117
X0186112Y0241899
X0195894Y023982
X0197973Y0249601
X0188191Y025168
X019027Y0261462
X019235Y0271243
X0194429Y0281025
X0196508Y0290806
X0198587Y0300588
X0200052Y0259383
X0193815Y0230038
X0191735Y0220257
X0189656Y0210475
X0183419Y0181131
X018134Y0171349
X0202131Y0269164
X020421Y0278946
X0206289Y0288727
X0208368Y0298509
T10
X0159988Y0094946
T11
X0207464Y0318302
M30
