G04*
G04 #@! TF.GenerationSoftware,Altium Limited,Altium Designer,18.1.11 (251)*
G04*
G04 Layer_Color=32896*
%FSLAX25Y25*%
%MOIN*%
G70*
G01*
G75*
%ADD10C,0.00787*%
%ADD12C,0.00984*%
%ADD15C,0.01000*%
%ADD63C,0.02362*%
G36*
X-22245Y11999D02*
X-22143Y11986D01*
X-22028D01*
X-21900Y11960D01*
X-21607Y11922D01*
X-21301Y11846D01*
X-20982Y11756D01*
X-20676Y11629D01*
X-20664D01*
X-20638Y11616D01*
X-20600Y11591D01*
X-20536Y11565D01*
X-20472Y11527D01*
X-20396Y11476D01*
X-20205Y11348D01*
X-19988Y11195D01*
X-19746Y11004D01*
X-19516Y10775D01*
X-19287Y10507D01*
X-19248D01*
X-19542Y11731D01*
X-15742D01*
X-13218Y1633D01*
X-16979D01*
X-18662Y8301D01*
Y8314D01*
X-18675Y8327D01*
X-18687Y8403D01*
X-18726Y8505D01*
X-18777Y8633D01*
X-18840Y8786D01*
X-18930Y8926D01*
X-19032Y9066D01*
X-19159Y9194D01*
X-19172Y9206D01*
X-19223Y9245D01*
X-19299Y9283D01*
X-19401Y9347D01*
X-19529Y9398D01*
X-19682Y9436D01*
X-19860Y9474D01*
X-20052Y9487D01*
X-20141D01*
X-20230Y9474D01*
X-20345Y9449D01*
X-20472Y9410D01*
X-20600Y9359D01*
X-20702Y9296D01*
X-20791Y9194D01*
X-20804Y9181D01*
X-20817Y9143D01*
X-20842Y9066D01*
X-20868Y8977D01*
X-20880Y8849D01*
Y8684D01*
X-20855Y8505D01*
X-20804Y8288D01*
X-19146Y1633D01*
X-22908D01*
X-24578Y8301D01*
Y8314D01*
X-24591Y8327D01*
X-24603Y8403D01*
X-24642Y8505D01*
X-24705Y8633D01*
X-24769Y8786D01*
X-24858Y8926D01*
X-24960Y9066D01*
X-25088Y9194D01*
X-25101Y9206D01*
X-25152Y9245D01*
X-25228Y9283D01*
X-25343Y9347D01*
X-25470Y9398D01*
X-25636Y9436D01*
X-25815Y9474D01*
X-26019Y9487D01*
X-26108D01*
X-26197Y9474D01*
X-26312Y9449D01*
X-26439Y9410D01*
X-26554Y9359D01*
X-26669Y9296D01*
X-26745Y9194D01*
X-26758Y9181D01*
X-26771Y9143D01*
X-26796Y9066D01*
X-26822Y8977D01*
X-26835Y8849D01*
Y8696D01*
X-26822Y8518D01*
X-26771Y8301D01*
X-25101Y1633D01*
X-26860D01*
X-26924Y1646D01*
X-27000D01*
X-27090Y1658D01*
X-27306Y1697D01*
X-27549Y1760D01*
X-27829Y1850D01*
X-28110Y1977D01*
X-28390Y2156D01*
X-28403Y2168D01*
X-28428Y2181D01*
X-28454Y2207D01*
X-28505Y2245D01*
X-28632Y2360D01*
X-28785Y2513D01*
X-28951Y2704D01*
X-29104Y2933D01*
X-29232Y3188D01*
X-29334Y3469D01*
X-30787Y9245D01*
Y9257D01*
X-30800Y9283D01*
Y9321D01*
X-30813Y9385D01*
X-30838Y9525D01*
X-30876Y9716D01*
X-30902Y9933D01*
X-30915Y10150D01*
Y10379D01*
X-30889Y10596D01*
Y10609D01*
Y10622D01*
X-30876Y10685D01*
X-30838Y10787D01*
X-30800Y10915D01*
X-30749Y11042D01*
X-30672Y11183D01*
X-30570Y11323D01*
X-30456Y11450D01*
X-30443Y11463D01*
X-30392Y11501D01*
X-30303Y11552D01*
X-30201Y11616D01*
X-30073Y11680D01*
X-29907Y11756D01*
X-29742Y11820D01*
X-29550Y11871D01*
X-29525Y11884D01*
X-29461Y11897D01*
X-29359Y11922D01*
X-29219Y11948D01*
X-29040Y11973D01*
X-28836Y11986D01*
X-28620Y12011D01*
X-28212D01*
X-28097Y11999D01*
X-27957Y11986D01*
X-27804Y11973D01*
X-27485Y11922D01*
X-27472D01*
X-27408Y11909D01*
X-27319Y11884D01*
X-27217Y11858D01*
X-27077Y11820D01*
X-26937Y11769D01*
X-26618Y11654D01*
X-26592Y11642D01*
X-26541Y11629D01*
X-26452Y11591D01*
X-26337Y11540D01*
X-26210Y11463D01*
X-26070Y11387D01*
X-25917Y11297D01*
X-25764Y11183D01*
X-25751Y11170D01*
X-25700Y11132D01*
X-25623Y11068D01*
X-25521Y10979D01*
X-25407Y10864D01*
X-25292Y10736D01*
X-25164Y10596D01*
X-25037Y10443D01*
Y10456D01*
X-25024Y10507D01*
X-24999Y10583D01*
X-24973Y10673D01*
X-24935Y10787D01*
X-24884Y10902D01*
X-24769Y11132D01*
X-24756Y11144D01*
X-24744Y11183D01*
X-24705Y11234D01*
X-24654Y11310D01*
X-24591Y11387D01*
X-24501Y11463D01*
X-24412Y11552D01*
X-24310Y11629D01*
X-24297Y11642D01*
X-24259Y11654D01*
X-24195Y11693D01*
X-24106Y11731D01*
X-23991Y11782D01*
X-23864Y11833D01*
X-23724Y11871D01*
X-23558Y11909D01*
X-23532D01*
X-23481Y11922D01*
X-23392Y11948D01*
X-23265Y11960D01*
X-23112Y11986D01*
X-22933Y11999D01*
X-22729Y12011D01*
X-22334D01*
X-22245Y11999D01*
D02*
G37*
G36*
X-2278Y4081D02*
Y4068D01*
X-2265Y4043D01*
Y4004D01*
X-2253Y3953D01*
X-2227Y3800D01*
X-2189Y3622D01*
X-2163Y3405D01*
X-2151Y3188D01*
Y2972D01*
X-2176Y2755D01*
Y2729D01*
X-2202Y2666D01*
X-2227Y2576D01*
X-2278Y2449D01*
X-2342Y2321D01*
X-2418Y2194D01*
X-2533Y2066D01*
X-2661Y1952D01*
X-2673Y1939D01*
X-2724Y1901D01*
X-2801Y1850D01*
X-2890Y1786D01*
X-3018Y1709D01*
X-3158Y1633D01*
X-3324Y1569D01*
X-3502Y1505D01*
X-3528D01*
X-3591Y1480D01*
X-3693Y1467D01*
X-3834Y1442D01*
X-3999Y1416D01*
X-4203Y1391D01*
X-4420Y1378D01*
X-4841D01*
X-4917Y1391D01*
X-5032Y1403D01*
X-5147D01*
X-5274Y1429D01*
X-5555Y1467D01*
X-5861Y1531D01*
X-6167Y1620D01*
X-6473Y1748D01*
X-6486D01*
X-6511Y1760D01*
X-6549Y1786D01*
X-6613Y1811D01*
X-6677Y1850D01*
X-6753Y1901D01*
X-6945Y2015D01*
X-7161Y2168D01*
X-7391Y2360D01*
X-7620Y2576D01*
X-7850Y2831D01*
X-7901D01*
X-7608Y1620D01*
X-11356D01*
X-13881Y11731D01*
X-10119D01*
X-8436Y5050D01*
Y5037D01*
X-8424Y5024D01*
X-8411Y4948D01*
X-8373Y4846D01*
X-8322Y4718D01*
X-8245Y4565D01*
X-8156Y4412D01*
X-8054Y4272D01*
X-7926Y4145D01*
X-7914Y4132D01*
X-7863Y4094D01*
X-7786Y4043D01*
X-7684Y3992D01*
X-7557Y3941D01*
X-7404Y3890D01*
X-7225Y3851D01*
X-7021Y3839D01*
X-6932D01*
X-6843Y3851D01*
X-6741Y3877D01*
X-6613Y3915D01*
X-6498Y3966D01*
X-6396Y4043D01*
X-6307Y4145D01*
X-6294Y4157D01*
X-6282Y4208D01*
X-6256Y4272D01*
X-6243Y4374D01*
X-6218Y4502D01*
Y4655D01*
X-6243Y4833D01*
X-6282Y5050D01*
X-7952Y11731D01*
X-4191D01*
X-2278Y4081D01*
D02*
G37*
G36*
X19767Y14944D02*
X19907D01*
X20085Y14919D01*
X20289Y14893D01*
X20519Y14855D01*
X20761Y14804D01*
X21003Y14740D01*
X21016D01*
X21029Y14727D01*
X21067Y14714D01*
X21105Y14702D01*
X21233Y14663D01*
X21386Y14600D01*
X21577Y14523D01*
X21781Y14421D01*
X21985Y14319D01*
X22202Y14192D01*
X22227Y14179D01*
X22291Y14128D01*
X22393Y14051D01*
X22533Y13962D01*
X22686Y13835D01*
X22852Y13694D01*
X23031Y13542D01*
X23209Y13363D01*
X23235Y13338D01*
X23286Y13286D01*
X23362Y13184D01*
X23477Y13057D01*
X23592Y12904D01*
X23732Y12713D01*
X23872Y12521D01*
X24000Y12305D01*
X29724Y1620D01*
X25389Y1633D01*
X24369Y3941D01*
X21131D01*
X21258Y1620D01*
X16911D01*
X17408Y14957D01*
X19716D01*
X19767Y14944D01*
D02*
G37*
G36*
X16120Y1620D02*
X12346D01*
X9006Y14957D01*
X12767D01*
X16120Y1620D01*
D02*
G37*
G36*
X3816D02*
X55Y1620D01*
X-2482Y11731D01*
X1292Y11731D01*
X3816Y1620D01*
D02*
G37*
G36*
X9936Y4068D02*
Y4055D01*
X9949Y4030D01*
Y3992D01*
X9962Y3928D01*
X10000Y3788D01*
X10026Y3596D01*
X10064Y3380D01*
X10089Y3163D01*
X10102Y2933D01*
X10089Y2729D01*
Y2704D01*
X10077Y2640D01*
X10051Y2551D01*
X10013Y2436D01*
X9962Y2321D01*
X9885Y2194D01*
X9796Y2079D01*
X9681Y1977D01*
X9669Y1964D01*
X9618Y1939D01*
X9554Y1901D01*
X9452Y1850D01*
X9324Y1799D01*
X9171Y1735D01*
X8993Y1684D01*
X8789Y1633D01*
X8763D01*
X8687Y1620D01*
X8559Y1595D01*
X8394Y1582D01*
X8177Y1556D01*
X7935Y1544D01*
X7654Y1531D01*
X7029D01*
X6876Y1544D01*
X6507D01*
X6315Y1556D01*
X6226D01*
X6111Y1569D01*
X5971D01*
X5805Y1582D01*
X5627Y1595D01*
X5423Y1608D01*
X5206Y1620D01*
X4645Y3864D01*
X5436D01*
X5538Y3877D01*
X5652Y3903D01*
X5767Y3928D01*
X5856Y3979D01*
X5946Y4043D01*
X5958Y4055D01*
X5971Y4081D01*
X5997Y4132D01*
X6022Y4196D01*
X6048Y4285D01*
Y4387D01*
Y4515D01*
X6022Y4655D01*
X4824Y9461D01*
X3243D01*
X2682Y11731D01*
X4263D01*
X3447Y14817D01*
X7221D01*
X9936Y4068D01*
D02*
G37*
%LPC*%
G36*
X20672Y12050D02*
X20991Y6491D01*
X23247D01*
X20672Y12050D01*
D02*
G37*
%LPD*%
D10*
X157578Y242324D02*
Y245376D01*
Y242324D02*
X161515D01*
X157578Y251084D02*
Y254135D01*
X161515D01*
X151795Y228586D02*
Y231637D01*
Y228586D02*
X155732D01*
X151795Y237346D02*
Y240397D01*
X155732D01*
X146013Y214848D02*
Y217899D01*
Y214848D02*
X149950D01*
X146013Y223607D02*
Y226659D01*
X149950D01*
X140231Y201109D02*
Y204160D01*
Y201109D02*
X144168D01*
X140231Y209869D02*
Y212920D01*
X144168D01*
X134448Y187371D02*
Y190422D01*
Y187371D02*
X138385D01*
X134448Y196131D02*
Y199182D01*
X138385D01*
X-40355Y83858D02*
Y103543D01*
X-52953Y83858D02*
Y103543D01*
X-40355D01*
X-52953Y83858D02*
X-40355D01*
X110692Y265611D02*
Y304981D01*
X98094Y265611D02*
Y304981D01*
X110692D01*
X98094Y265611D02*
X110692D01*
X43190Y286614D02*
Y289665D01*
X39253D02*
X43190D01*
Y277854D02*
Y280905D01*
X39253Y277854D02*
X43190D01*
X-7440Y286614D02*
Y289665D01*
X-11377D02*
X-7440D01*
Y277854D02*
Y280905D01*
X-11377Y277854D02*
X-7440D01*
X-58070Y286614D02*
Y289665D01*
X-62007D02*
X-58070D01*
Y277854D02*
Y280905D01*
X-62007Y277854D02*
X-58070D01*
X-93484Y285925D02*
Y294980D01*
X-105689Y285925D02*
Y294980D01*
Y285925D02*
X-93484D01*
X-105689Y294980D02*
X-93484D01*
X-96811Y334744D02*
Y354232D01*
X-92874Y338681D02*
Y354232D01*
X-112362D02*
X-92874D01*
X-112362Y334744D02*
Y354232D01*
Y334744D02*
X-96811D01*
X-92874Y338681D01*
X3307Y334705D02*
Y354193D01*
X7244Y338642D02*
Y354193D01*
X-12244D02*
X7244D01*
X-12244Y334705D02*
Y354193D01*
Y334705D02*
X3307D01*
X7244Y338642D01*
X103386Y334744D02*
Y354232D01*
X107323Y338681D02*
Y354232D01*
X87835D02*
X107323D01*
X87835Y334744D02*
Y354232D01*
Y334744D02*
X103386D01*
X107323Y338681D01*
X-160659Y141828D02*
Y137892D01*
X-162627D01*
X-163283Y138548D01*
Y139204D01*
X-162627Y139860D01*
X-160659D01*
X-162627D01*
X-163283Y140516D01*
Y141172D01*
X-162627Y141828D01*
X-160659D01*
X-164595D02*
Y138548D01*
X-165251Y137892D01*
X-166563D01*
X-167219Y138548D01*
Y141828D01*
X-168530D02*
X-171154D01*
Y141172D01*
X-168530Y138548D01*
Y137892D01*
X-171154D01*
X-172466Y141828D02*
X-175090D01*
Y141172D01*
X-172466Y138548D01*
Y137892D01*
X-175090D01*
X-179026Y141828D02*
X-176402D01*
Y137892D01*
X-179026D01*
X-176402Y139860D02*
X-177714D01*
X-180338Y137892D02*
Y141828D01*
X-182306D01*
X-182962Y141172D01*
Y139860D01*
X-182306Y139204D01*
X-180338D01*
X-181650D02*
X-182962Y137892D01*
X-184274Y139860D02*
X-186897D01*
X-185585Y141172D02*
Y138548D01*
X-155183Y151560D02*
X-156495D01*
X-155839D01*
Y147624D01*
X-155183D01*
X-156495D01*
X-158463D02*
Y151560D01*
X-159775Y150248D01*
X-161087Y151560D01*
Y147624D01*
X-162399Y151560D02*
Y147624D01*
X-164367D01*
X-165023Y148280D01*
Y150904D01*
X-164367Y151560D01*
X-162399D01*
X-172894D02*
X-170270D01*
Y149592D01*
X-171582D01*
X-170270D01*
Y147624D01*
X-174206D02*
Y150248D01*
X-175518Y151560D01*
X-176830Y150248D01*
Y147624D01*
Y149592D01*
X-174206D01*
X-178142Y151560D02*
Y148280D01*
X-178798Y147624D01*
X-180110D01*
X-180766Y148280D01*
Y151560D01*
X-182078D02*
Y147624D01*
X-184701D01*
X-186013Y151560D02*
X-188637D01*
X-187325D01*
Y147624D01*
X-161723Y102243D02*
X-161067Y102899D01*
X-159756D01*
X-159100Y102243D01*
Y99619D01*
X-159756Y98963D01*
X-161067D01*
X-161723Y99619D01*
X-163035Y98963D02*
Y101587D01*
X-164347Y102899D01*
X-165659Y101587D01*
Y98963D01*
Y100931D01*
X-163035D01*
X-166971Y98963D02*
Y102899D01*
X-169595Y98963D01*
Y102899D01*
X-174843D02*
Y98963D01*
Y100931D01*
X-177466D01*
Y102899D01*
Y98963D01*
X-175244Y161292D02*
X-173932D01*
X-174588D01*
Y158012D01*
X-173932Y157357D01*
X-173276D01*
X-172620Y158012D01*
X-177212Y159980D02*
X-178524D01*
X-179180Y159325D01*
Y157357D01*
X-177212D01*
X-176556Y158012D01*
X-177212Y158668D01*
X-179180D01*
X-180492Y159980D02*
Y157357D01*
Y158668D01*
X-181148Y159325D01*
X-181804Y159980D01*
X-182459D01*
X-185083Y157357D02*
X-186395D01*
X-187051Y158012D01*
Y159325D01*
X-186395Y159980D01*
X-185083D01*
X-184427Y159325D01*
Y158012D01*
X-185083Y157357D01*
X-190987Y161292D02*
Y157357D01*
X-189019D01*
X-188363Y158012D01*
Y159325D01*
X-189019Y159980D01*
X-190987D01*
X-158614Y132096D02*
Y128160D01*
X-160582D01*
X-161238Y128816D01*
Y129472D01*
X-160582Y130128D01*
X-158614D01*
X-160582D01*
X-161238Y130784D01*
Y131440D01*
X-160582Y132096D01*
X-158614D01*
X-162550D02*
Y128816D01*
X-163206Y128160D01*
X-164518D01*
X-165174Y128816D01*
Y132096D01*
X-166486D02*
X-169109D01*
Y131440D01*
X-166486Y128816D01*
Y128160D01*
X-169109D01*
X-170422Y132096D02*
X-173045D01*
Y131440D01*
X-170422Y128816D01*
Y128160D01*
X-173045D01*
X-176981Y132096D02*
X-174357D01*
Y128160D01*
X-176981D01*
X-174357Y130128D02*
X-175669D01*
X-178293Y128160D02*
Y132096D01*
X-180261D01*
X-180917Y131440D01*
Y130128D01*
X-180261Y129472D01*
X-178293D01*
X-179605D02*
X-180917Y128160D01*
X-182229Y130128D02*
X-184853D01*
X-189096Y171025D02*
X-186472D01*
Y169057D01*
X-187784Y169713D01*
X-188440D01*
X-189096Y169057D01*
Y167745D01*
X-188440Y167089D01*
X-187128D01*
X-186472Y167745D01*
X-190408Y171025D02*
Y168401D01*
X-191720Y167089D01*
X-193032Y168401D01*
Y171025D01*
X-172891Y111975D02*
X-172235Y112631D01*
X-170923D01*
X-170268Y111975D01*
Y109352D01*
X-170923Y108696D01*
X-172235D01*
X-172891Y109352D01*
Y110663D01*
X-171580D01*
X-174203Y108696D02*
Y112631D01*
X-176827Y108696D01*
Y112631D01*
X-178139D02*
Y108696D01*
X-180107D01*
X-180763Y109352D01*
Y111975D01*
X-180107Y112631D01*
X-178139D01*
X-147179Y122364D02*
Y118428D01*
X-149147D01*
X-149802Y119084D01*
Y119740D01*
X-149147Y120396D01*
X-147179D01*
X-149147D01*
X-149802Y121052D01*
Y121708D01*
X-149147Y122364D01*
X-147179D01*
X-151114Y118428D02*
Y122364D01*
X-152426Y121052D01*
X-153738Y122364D01*
Y118428D01*
X-157674Y121708D02*
X-157018Y122364D01*
X-155706D01*
X-155050Y121708D01*
Y121052D01*
X-155706Y120396D01*
X-157018D01*
X-157674Y119740D01*
Y119084D01*
X-157018Y118428D01*
X-155706D01*
X-155050Y119084D01*
X-165545Y122364D02*
X-162922D01*
Y120396D01*
X-164234D01*
X-162922D01*
Y118428D01*
X-166857D02*
Y121052D01*
X-168169Y122364D01*
X-169481Y121052D01*
Y118428D01*
Y120396D01*
X-166857D01*
X-170793Y122364D02*
Y119084D01*
X-171449Y118428D01*
X-172761D01*
X-173417Y119084D01*
Y122364D01*
X-174729D02*
Y118428D01*
X-177353D01*
X-178665Y122364D02*
X-181289D01*
X-179977D01*
Y118428D01*
X-185237Y176821D02*
X-186549D01*
X-185893D01*
Y180757D01*
X-185237Y180101D01*
X-191141Y176821D02*
X-188517D01*
X-191141Y179445D01*
Y180101D01*
X-190485Y180757D01*
X-189173D01*
X-188517Y180101D01*
X-192453Y180757D02*
Y178133D01*
X-193765Y176821D01*
X-195077Y178133D01*
Y180757D01*
X-160794Y92511D02*
X-160138Y93167D01*
X-158826D01*
X-158170Y92511D01*
Y89887D01*
X-158826Y89231D01*
X-160138D01*
X-160794Y89887D01*
X-162106Y89231D02*
Y91855D01*
X-163418Y93167D01*
X-164730Y91855D01*
Y89231D01*
Y91199D01*
X-162106D01*
X-166042Y89231D02*
Y93167D01*
X-168666Y89231D01*
Y93167D01*
X-173913D02*
Y89231D01*
X-176537D01*
X-12922Y109755D02*
Y106475D01*
X-13578Y105819D01*
X-14890D01*
X-15546Y106475D01*
Y109755D01*
X-16858Y109099D02*
X-17514Y109755D01*
X-18826D01*
X-19482Y109099D01*
Y108443D01*
X-18826Y107787D01*
X-18170D01*
X-18826D01*
X-19482Y107131D01*
Y106475D01*
X-18826Y105819D01*
X-17514D01*
X-16858Y106475D01*
X19171Y132641D02*
Y131984D01*
X17859Y130673D01*
X16547Y131984D01*
Y132641D01*
X17859Y130673D02*
Y128705D01*
X15235D02*
X13923D01*
X14579D01*
Y132641D01*
X15235Y131984D01*
X128060Y365648D02*
Y362368D01*
X127404Y361712D01*
X126092D01*
X125436Y362368D01*
Y365648D01*
X124124Y364992D02*
X123468Y365648D01*
X122156D01*
X121500Y364992D01*
Y364336D01*
X122156Y363680D01*
X121500Y363024D01*
Y362368D01*
X122156Y361712D01*
X123468D01*
X124124Y362368D01*
Y363024D01*
X123468Y363680D01*
X124124Y364336D01*
Y364992D01*
X123468Y363680D02*
X122156D01*
X28650Y365549D02*
Y362269D01*
X27994Y361613D01*
X26682D01*
X26027Y362269D01*
Y365549D01*
X24715D02*
X22091D01*
Y364893D01*
X24715Y362269D01*
Y361613D01*
X-72337Y365648D02*
Y362368D01*
X-72993Y361712D01*
X-74305D01*
X-74961Y362368D01*
Y365648D01*
X-78897D02*
X-77585Y364992D01*
X-76273Y363680D01*
Y362368D01*
X-76929Y361712D01*
X-78241D01*
X-78897Y362368D01*
Y363024D01*
X-78241Y363680D01*
X-76273D01*
X-108387Y287126D02*
X-111667D01*
X-112323Y287782D01*
Y289094D01*
X-111667Y289750D01*
X-108387D01*
Y293686D02*
Y291062D01*
X-110355D01*
X-109699Y292374D01*
Y293030D01*
X-110355Y293686D01*
X-111667D01*
X-112323Y293030D01*
Y291718D01*
X-111667Y291062D01*
X-42965Y109664D02*
Y106384D01*
X-43620Y105728D01*
X-44932D01*
X-45588Y106384D01*
Y109664D01*
X-48868Y105728D02*
Y109664D01*
X-46900Y107696D01*
X-49524D01*
X107642Y311067D02*
Y307787D01*
X106986Y307132D01*
X105674D01*
X105018Y307787D01*
Y311067D01*
X101082Y307132D02*
X103706D01*
X101082Y309755D01*
Y310411D01*
X101738Y311067D01*
X103050D01*
X103706Y310411D01*
X70535Y347774D02*
X74470D01*
Y349742D01*
X73814Y350398D01*
X72502D01*
X71847Y349742D01*
Y347774D01*
Y349086D02*
X70535Y350398D01*
Y354334D02*
Y351710D01*
X73159Y354334D01*
X73814D01*
X74470Y353678D01*
Y352366D01*
X73814Y351710D01*
Y355645D02*
X74470Y356301D01*
Y357613D01*
X73814Y358269D01*
X73159D01*
X72502Y357613D01*
X71847Y358269D01*
X71191D01*
X70535Y357613D01*
Y356301D01*
X71191Y355645D01*
X71847D01*
X72502Y356301D01*
X73159Y355645D01*
X73814D01*
X72502Y356301D02*
Y357613D01*
X63754Y321790D02*
X67690D01*
Y323758D01*
X67034Y324414D01*
X65722D01*
X65066Y323758D01*
Y321790D01*
Y323102D02*
X63754Y324414D01*
Y328349D02*
Y325726D01*
X66378Y328349D01*
X67034D01*
X67690Y327693D01*
Y326381D01*
X67034Y325726D01*
X67690Y329661D02*
Y332285D01*
X67034D01*
X64410Y329661D01*
X63754D01*
X-36050Y322676D02*
X-32115D01*
Y324643D01*
X-32771Y325299D01*
X-34082D01*
X-34738Y324643D01*
Y322676D01*
Y323988D02*
X-36050Y325299D01*
Y329235D02*
Y326611D01*
X-33427Y329235D01*
X-32771D01*
X-32115Y328579D01*
Y327267D01*
X-32771Y326611D01*
X-32115Y333171D02*
X-32771Y331859D01*
X-34082Y330547D01*
X-35394D01*
X-36050Y331203D01*
Y332515D01*
X-35394Y333171D01*
X-34738D01*
X-34082Y332515D01*
Y330547D01*
X-136246Y322679D02*
X-132310D01*
Y324647D01*
X-132966Y325303D01*
X-134278D01*
X-134934Y324647D01*
Y322679D01*
Y323991D02*
X-136246Y325303D01*
Y329238D02*
Y326614D01*
X-133622Y329238D01*
X-132966D01*
X-132310Y328582D01*
Y327270D01*
X-132966Y326614D01*
X-132310Y333174D02*
Y330550D01*
X-134278D01*
X-133622Y331862D01*
Y332518D01*
X-134278Y333174D01*
X-135590D01*
X-136246Y332518D01*
Y331206D01*
X-135590Y330550D01*
X-101733Y316509D02*
Y320444D01*
X-103701D01*
X-104357Y319788D01*
Y318477D01*
X-103701Y317821D01*
X-101733D01*
X-103045D02*
X-104357Y316509D01*
X-108293D02*
X-105669D01*
X-108293Y319132D01*
Y319788D01*
X-107637Y320444D01*
X-106325D01*
X-105669Y319788D01*
X-111572Y316509D02*
Y320444D01*
X-109605Y318477D01*
X-112228D01*
X-79833Y80510D02*
Y84445D01*
X-81801D01*
X-82457Y83789D01*
Y82477D01*
X-81801Y81821D01*
X-79833D01*
X-81145D02*
X-82457Y80510D01*
X-86393D02*
X-83769D01*
X-86393Y83133D01*
Y83789D01*
X-85737Y84445D01*
X-84425D01*
X-83769Y83789D01*
X-87704D02*
X-88361Y84445D01*
X-89672D01*
X-90328Y83789D01*
Y83133D01*
X-89672Y82477D01*
X-89016D01*
X-89672D01*
X-90328Y81821D01*
Y81165D01*
X-89672Y80510D01*
X-88361D01*
X-87704Y81165D01*
X21816Y278558D02*
X25752D01*
Y280526D01*
X25096Y281182D01*
X23784D01*
X23128Y280526D01*
Y278558D01*
Y279870D02*
X21816Y281182D01*
Y285118D02*
Y282494D01*
X24440Y285118D01*
X25096D01*
X25752Y284462D01*
Y283150D01*
X25096Y282494D01*
X21816Y289054D02*
Y286430D01*
X24440Y289054D01*
X25096D01*
X25752Y288398D01*
Y287086D01*
X25096Y286430D01*
X-28577Y279453D02*
X-24641D01*
Y281421D01*
X-25297Y282077D01*
X-26609D01*
X-27265Y281421D01*
Y279453D01*
Y280766D02*
X-28577Y282077D01*
Y286013D02*
Y283389D01*
X-25953Y286013D01*
X-25297D01*
X-24641Y285357D01*
Y284045D01*
X-25297Y283389D01*
X-28577Y287325D02*
Y288637D01*
Y287981D01*
X-24641D01*
X-25297Y287325D01*
X-79168Y278676D02*
X-75232D01*
Y280644D01*
X-75888Y281299D01*
X-77200D01*
X-77856Y280644D01*
Y278676D01*
Y279988D02*
X-79168Y281299D01*
Y285235D02*
Y282611D01*
X-76544Y285235D01*
X-75888D01*
X-75232Y284579D01*
Y283267D01*
X-75888Y282611D01*
Y286547D02*
X-75232Y287203D01*
Y288515D01*
X-75888Y289171D01*
X-78512D01*
X-79168Y288515D01*
Y287203D01*
X-78512Y286547D01*
X-75888D01*
X74273Y300012D02*
Y303948D01*
X72305D01*
X71649Y303292D01*
Y301980D01*
X72305Y301324D01*
X74273D01*
X72961D02*
X71649Y300012D01*
X70337D02*
X69026D01*
X69682D01*
Y303948D01*
X70337Y303292D01*
X67058Y300668D02*
X66402Y300012D01*
X65090D01*
X64434Y300668D01*
Y303292D01*
X65090Y303948D01*
X66402D01*
X67058Y303292D01*
Y302636D01*
X66402Y301980D01*
X64434D01*
X74273Y305709D02*
Y309644D01*
X72305D01*
X71649Y308988D01*
Y307677D01*
X72305Y307021D01*
X74273D01*
X72961D02*
X71649Y305709D01*
X70337D02*
X69026D01*
X69682D01*
Y309644D01*
X70337Y308988D01*
X67058D02*
X66402Y309644D01*
X65090D01*
X64434Y308988D01*
Y308332D01*
X65090Y307677D01*
X64434Y307021D01*
Y306365D01*
X65090Y305709D01*
X66402D01*
X67058Y306365D01*
Y307021D01*
X66402Y307677D01*
X67058Y308332D01*
Y308988D01*
X66402Y307677D02*
X65090D01*
X74273Y261212D02*
Y265148D01*
X72305D01*
X71649Y264492D01*
Y263180D01*
X72305Y262524D01*
X74273D01*
X72961D02*
X71649Y261212D01*
X70337D02*
X69026D01*
X69682D01*
Y265148D01*
X70337Y264492D01*
X67058Y265148D02*
X64434D01*
Y264492D01*
X67058Y261868D01*
Y261212D01*
X74273Y267156D02*
Y271092D01*
X72305D01*
X71649Y270436D01*
Y269124D01*
X72305Y268468D01*
X74273D01*
X72961D02*
X71649Y267156D01*
X70337D02*
X69026D01*
X69682D01*
Y271092D01*
X70337Y270436D01*
X64434Y271092D02*
X65746Y270436D01*
X67058Y269124D01*
Y267812D01*
X66402Y267156D01*
X65090D01*
X64434Y267812D01*
Y268468D01*
X65090Y269124D01*
X67058D01*
X74273Y273101D02*
Y277036D01*
X72305D01*
X71649Y276381D01*
Y275069D01*
X72305Y274413D01*
X74273D01*
X72961D02*
X71649Y273101D01*
X70337D02*
X69026D01*
X69682D01*
Y277036D01*
X70337Y276381D01*
X64434Y277036D02*
X67058D01*
Y275069D01*
X65746Y275725D01*
X65090D01*
X64434Y275069D01*
Y273757D01*
X65090Y273101D01*
X66402D01*
X67058Y273757D01*
X74273Y288618D02*
Y292554D01*
X72305D01*
X71649Y291898D01*
Y290586D01*
X72305Y289930D01*
X74273D01*
X72961D02*
X71649Y288618D01*
X70337D02*
X69026D01*
X69682D01*
Y292554D01*
X70337Y291898D01*
X65090Y288618D02*
Y292554D01*
X67058Y290586D01*
X64434D01*
X74273Y294315D02*
Y298251D01*
X72305D01*
X71649Y297595D01*
Y296283D01*
X72305Y295627D01*
X74273D01*
X72961D02*
X71649Y294315D01*
X70337D02*
X69026D01*
X69682D01*
Y298251D01*
X70337Y297595D01*
X67058D02*
X66402Y298251D01*
X65090D01*
X64434Y297595D01*
Y296939D01*
X65090Y296283D01*
X65746D01*
X65090D01*
X64434Y295627D01*
Y294971D01*
X65090Y294315D01*
X66402D01*
X67058Y294971D01*
X-126639Y177741D02*
X-122703D01*
Y179709D01*
X-123359Y180365D01*
X-124671D01*
X-125327Y179709D01*
Y177741D01*
Y179053D02*
X-126639Y180365D01*
Y181677D02*
Y182989D01*
Y182333D01*
X-122703D01*
X-123359Y181677D01*
X-126639Y187580D02*
Y184957D01*
X-124015Y187580D01*
X-123359D01*
X-122703Y186924D01*
Y185612D01*
X-123359Y184957D01*
X98757Y177939D02*
X102692D01*
Y179907D01*
X102036Y180563D01*
X100725D01*
X100069Y179907D01*
Y177939D01*
Y179251D02*
X98757Y180563D01*
Y181875D02*
Y183187D01*
Y182531D01*
X102692D01*
X102036Y181875D01*
X98757Y185155D02*
Y186467D01*
Y185811D01*
X102692D01*
X102036Y185155D01*
X174799Y243073D02*
X178735D01*
Y245041D01*
X178079Y245697D01*
X176767D01*
X176111Y245041D01*
Y243073D01*
Y244385D02*
X174799Y245697D01*
Y247009D02*
Y248321D01*
Y247665D01*
X178735D01*
X178079Y247009D01*
Y250289D02*
X178735Y250945D01*
Y252257D01*
X178079Y252913D01*
X175455D01*
X174799Y252257D01*
Y250945D01*
X175455Y250289D01*
X178079D01*
X141974Y248225D02*
X145910D01*
Y250193D01*
X145254Y250849D01*
X143942D01*
X143286Y250193D01*
Y248225D01*
Y249537D02*
X141974Y250849D01*
X142630Y252161D02*
X141974Y252817D01*
Y254129D01*
X142630Y254785D01*
X145254D01*
X145910Y254129D01*
Y252817D01*
X145254Y252161D01*
X144598D01*
X143942Y252817D01*
Y254785D01*
X168678Y230763D02*
X172614D01*
Y232731D01*
X171958Y233387D01*
X170646D01*
X169990Y232731D01*
Y230763D01*
Y232075D02*
X168678Y233387D01*
X171958Y234699D02*
X172614Y235355D01*
Y236667D01*
X171958Y237323D01*
X171302D01*
X170646Y236667D01*
X169990Y237323D01*
X169334D01*
X168678Y236667D01*
Y235355D01*
X169334Y234699D01*
X169990D01*
X170646Y235355D01*
X171302Y234699D01*
X171958D01*
X170646Y235355D02*
Y236667D01*
X136442Y234635D02*
X140377D01*
Y236603D01*
X139722Y237259D01*
X138410D01*
X137754Y236603D01*
Y234635D01*
Y235947D02*
X136442Y237259D01*
X140377Y238571D02*
Y241195D01*
X139722D01*
X137098Y238571D01*
X136442D01*
X162850Y217370D02*
X166786D01*
Y219338D01*
X166130Y219994D01*
X164818D01*
X164162Y219338D01*
Y217370D01*
Y218682D02*
X162850Y219994D01*
X166786Y223930D02*
X166130Y222618D01*
X164818Y221306D01*
X163506D01*
X162850Y221962D01*
Y223274D01*
X163506Y223930D01*
X164162D01*
X164818Y223274D01*
Y221306D01*
X130813Y220553D02*
X134748D01*
Y222521D01*
X134092Y223177D01*
X132781D01*
X132124Y222521D01*
Y220553D01*
Y221866D02*
X130813Y223177D01*
X134748Y227113D02*
Y224489D01*
X132781D01*
X133436Y225801D01*
Y226457D01*
X132781Y227113D01*
X131469D01*
X130813Y226457D01*
Y225145D01*
X131469Y224489D01*
X156926Y203780D02*
X160862D01*
Y205748D01*
X160206Y206404D01*
X158894D01*
X158238Y205748D01*
Y203780D01*
Y205092D02*
X156926Y206404D01*
Y209684D02*
X160862D01*
X158894Y207716D01*
Y210340D01*
X124691Y207062D02*
X128627D01*
Y209030D01*
X127971Y209686D01*
X126659D01*
X126003Y209030D01*
Y207062D01*
Y208374D02*
X124691Y209686D01*
X127971Y210998D02*
X128627Y211654D01*
Y212966D01*
X127971Y213622D01*
X127315D01*
X126659Y212966D01*
Y212310D01*
Y212966D01*
X126003Y213622D01*
X125347D01*
X124691Y212966D01*
Y211654D01*
X125347Y210998D01*
X151494Y190683D02*
X155429D01*
Y192650D01*
X154773Y193307D01*
X153462D01*
X152806Y192650D01*
Y190683D01*
Y191995D02*
X151494Y193307D01*
Y197242D02*
Y194618D01*
X154118Y197242D01*
X154773D01*
X155429Y196586D01*
Y195274D01*
X154773Y194618D01*
X118962Y193963D02*
X122898D01*
Y195931D01*
X122242Y196587D01*
X120930D01*
X120274Y195931D01*
Y193963D01*
Y195275D02*
X118962Y196587D01*
Y197899D02*
Y199211D01*
Y198555D01*
X122898D01*
X122242Y197899D01*
X45040Y292470D02*
Y295094D01*
X45696Y295750D01*
X47008D01*
X47664Y295094D01*
Y292470D01*
X47008Y291814D01*
X45696D01*
X46352Y293126D02*
X45040Y291814D01*
X45696D02*
X45040Y292470D01*
X43728Y295094D02*
X43072Y295750D01*
X41760D01*
X41104Y295094D01*
Y294438D01*
X41760Y293782D01*
X41104Y293126D01*
Y292470D01*
X41760Y291814D01*
X43072D01*
X43728Y292470D01*
Y293126D01*
X43072Y293782D01*
X43728Y294438D01*
Y295094D01*
X43072Y293782D02*
X41760D01*
X-5857Y292470D02*
Y295094D01*
X-5201Y295750D01*
X-3889D01*
X-3233Y295094D01*
Y292470D01*
X-3889Y291814D01*
X-5201D01*
X-4545Y293126D02*
X-5857Y291814D01*
X-5201D02*
X-5857Y292470D01*
X-7169Y295750D02*
X-9793D01*
Y295094D01*
X-7169Y292470D01*
Y291814D01*
X-56162Y292175D02*
Y294799D01*
X-55506Y295455D01*
X-54194D01*
X-53538Y294799D01*
Y292175D01*
X-54194Y291519D01*
X-55506D01*
X-54850Y292831D02*
X-56162Y291519D01*
X-55506D02*
X-56162Y292175D01*
X-60097Y295455D02*
X-58785Y294799D01*
X-57473Y293487D01*
Y292175D01*
X-58130Y291519D01*
X-59441D01*
X-60097Y292175D01*
Y292831D01*
X-59441Y293487D01*
X-57473D01*
X137775Y248720D02*
Y251344D01*
X138431Y251999D01*
X139743D01*
X140398Y251344D01*
Y248720D01*
X139743Y248064D01*
X138431D01*
X139086Y249376D02*
X137775Y248064D01*
X138431D02*
X137775Y248720D01*
X133839Y251999D02*
X136463D01*
Y250032D01*
X135151Y250688D01*
X134495D01*
X133839Y250032D01*
Y248720D01*
X134495Y248064D01*
X135807D01*
X136463Y248720D01*
X132467Y235215D02*
Y237839D01*
X133123Y238495D01*
X134435D01*
X135091Y237839D01*
Y235215D01*
X134435Y234559D01*
X133123D01*
X133779Y235871D02*
X132467Y234559D01*
X133123D02*
X132467Y235215D01*
X129187Y234559D02*
Y238495D01*
X131155Y236527D01*
X128531D01*
X126765Y221318D02*
Y223942D01*
X127421Y224598D01*
X128733D01*
X129389Y223942D01*
Y221318D01*
X128733Y220662D01*
X127421D01*
X128077Y221974D02*
X126765Y220662D01*
X127421D02*
X126765Y221318D01*
X125453Y223942D02*
X124797Y224598D01*
X123485D01*
X122829Y223942D01*
Y223286D01*
X123485Y222630D01*
X124141D01*
X123485D01*
X122829Y221974D01*
Y221318D01*
X123485Y220662D01*
X124797D01*
X125453Y221318D01*
X120375Y207518D02*
Y210142D01*
X121030Y210798D01*
X122343D01*
X122998Y210142D01*
Y207518D01*
X122343Y206862D01*
X121030D01*
X121686Y208174D02*
X120375Y206862D01*
X121030D02*
X120375Y207518D01*
X116439Y206862D02*
X119063D01*
X116439Y209486D01*
Y210142D01*
X117095Y210798D01*
X118407D01*
X119063Y210142D01*
X115165Y194409D02*
Y197032D01*
X115821Y197688D01*
X117133D01*
X117789Y197032D01*
Y194409D01*
X117133Y193753D01*
X115821D01*
X116477Y195065D02*
X115165Y193753D01*
X115821D02*
X115165Y194409D01*
X113853Y193753D02*
X112541D01*
X113197D01*
Y197688D01*
X113853Y197032D01*
X-81672Y106856D02*
X-80360D01*
X-81016D01*
Y103576D01*
X-80360Y102920D01*
X-79704D01*
X-79048Y103576D01*
X-82984Y102920D02*
Y106856D01*
X-84952D01*
X-85608Y106200D01*
Y104888D01*
X-84952Y104232D01*
X-82984D01*
X-86919Y102920D02*
X-88231D01*
X-87576D01*
Y106856D01*
X-86919Y106200D01*
X-184736Y76796D02*
X-183424D01*
X-184080D01*
Y73516D01*
X-183424Y72860D01*
X-182768D01*
X-182112Y73516D01*
X-186048Y72860D02*
X-187359D01*
X-186704D01*
Y76796D01*
X-186048Y76140D01*
X132522Y338047D02*
X133178Y337391D01*
Y336080D01*
X132522Y335424D01*
X129899D01*
X129243Y336080D01*
Y337391D01*
X129899Y338047D01*
Y339359D02*
X129243Y340015D01*
Y341327D01*
X129899Y341983D01*
X132522D01*
X133178Y341327D01*
Y340015D01*
X132522Y339359D01*
X131866D01*
X131210Y340015D01*
Y341983D01*
X66347Y350988D02*
X67003Y350332D01*
Y349020D01*
X66347Y348364D01*
X63723D01*
X63067Y349020D01*
Y350332D01*
X63723Y350988D01*
X66347Y352299D02*
X67003Y352956D01*
Y354267D01*
X66347Y354923D01*
X65691D01*
X65035Y354267D01*
X64379Y354923D01*
X63723D01*
X63067Y354267D01*
Y352956D01*
X63723Y352299D01*
X64379D01*
X65035Y352956D01*
X65691Y352299D01*
X66347D01*
X65035Y352956D02*
Y354267D01*
X32424Y338933D02*
X33080Y338277D01*
Y336965D01*
X32424Y336309D01*
X29800D01*
X29144Y336965D01*
Y338277D01*
X29800Y338933D01*
X33080Y340245D02*
Y342869D01*
X32424D01*
X29800Y340245D01*
X29144D01*
X-27526Y352465D02*
X-26870Y351809D01*
Y350497D01*
X-27526Y349841D01*
X-30149D01*
X-30806Y350497D01*
Y351809D01*
X-30149Y352465D01*
X-26870Y356400D02*
X-27526Y355089D01*
X-28838Y353777D01*
X-30149D01*
X-30806Y354433D01*
Y355745D01*
X-30149Y356400D01*
X-29494D01*
X-28838Y355745D01*
Y353777D01*
X-67379Y338935D02*
X-66723Y338279D01*
Y336967D01*
X-67379Y336311D01*
X-70003D01*
X-70659Y336967D01*
Y338279D01*
X-70003Y338935D01*
X-66723Y342871D02*
Y340247D01*
X-68691D01*
X-68035Y341559D01*
Y342215D01*
X-68691Y342871D01*
X-70003D01*
X-70659Y342215D01*
Y340903D01*
X-70003Y340247D01*
X-127723Y353157D02*
X-127067Y352501D01*
Y351189D01*
X-127723Y350533D01*
X-130346D01*
X-131002Y351189D01*
Y352501D01*
X-130346Y353157D01*
X-131002Y356437D02*
X-127067D01*
X-129034Y354469D01*
Y357093D01*
X-104819Y311409D02*
X-104163Y312065D01*
X-102851D01*
X-102195Y311409D01*
Y308785D01*
X-102851Y308129D01*
X-104163D01*
X-104819Y308785D01*
X-106131Y311409D02*
X-106787Y312065D01*
X-108099D01*
X-108755Y311409D01*
Y310753D01*
X-108099Y310097D01*
X-107443D01*
X-108099D01*
X-108755Y309441D01*
Y308785D01*
X-108099Y308129D01*
X-106787D01*
X-106131Y308785D01*
X7Y76656D02*
X663Y76000D01*
Y74688D01*
X7Y74032D01*
X-2616D01*
X-3272Y74688D01*
Y76000D01*
X-2616Y76656D01*
X-3272Y80592D02*
Y77968D01*
X-649Y80592D01*
X7D01*
X663Y79936D01*
Y78624D01*
X7Y77968D01*
X-282Y119274D02*
X374Y118618D01*
Y117306D01*
X-282Y116650D01*
X-2905D01*
X-3561Y117306D01*
Y118618D01*
X-2905Y119274D01*
X-3561Y120586D02*
Y121898D01*
Y121242D01*
X374D01*
X-282Y120586D01*
D12*
X165452Y255277D02*
G03*
X165452Y255277I-492J0D01*
G01*
X159669Y241539D02*
G03*
X159669Y241539I-492J0D01*
G01*
X153887Y227800D02*
G03*
X153887Y227800I-492J0D01*
G01*
X148105Y214062D02*
G03*
X148105Y214062I-492J0D01*
G01*
X142322Y200324D02*
G03*
X142322Y200324I-492J0D01*
G01*
X-35434Y104547D02*
G03*
X-35434Y104547I-492J0D01*
G01*
X115613Y306142D02*
G03*
X115613Y306142I-492J0D01*
G01*
X36300Y276712D02*
G03*
X36300Y276712I-492J0D01*
G01*
X-14330Y276712D02*
G03*
X-14330Y276712I-492J0D01*
G01*
X-64960Y276712D02*
G03*
X-64960Y276712I-492J0D01*
G01*
X-105787Y299212D02*
G03*
X-105787Y299212I-492J0D01*
G01*
X-78799Y344488D02*
G03*
X-78799Y344488I-492J0D01*
G01*
X21319Y344449D02*
G03*
X21319Y344449I-492J0D01*
G01*
X121398Y344488D02*
G03*
X121398Y344488I-492J0D01*
G01*
D15*
X-15847Y104133D02*
G03*
X-15847Y104133I-394J0D01*
G01*
X-1280Y99803D02*
Y101771D01*
X-3248D02*
X-1280D01*
X-3248Y86023D02*
X-1280D01*
Y87992D01*
X-17028Y86023D02*
X-15059D01*
X-17028D02*
Y87992D01*
Y99803D02*
Y101771D01*
X-15059D01*
D63*
X-43111Y99606D02*
G03*
X-43111Y99606I-1181J0D01*
G01*
X107936Y301044D02*
G03*
X107936Y301044I-1181J0D01*
G01*
X-100571Y291043D02*
G03*
X-100571Y291043I-1181J0D01*
G01*
X-99567Y344488D02*
G03*
X-99567Y344488I-1181J0D01*
G01*
X551Y344449D02*
G03*
X551Y344449I-1181J0D01*
G01*
X100630Y344488D02*
G03*
X100630Y344488I-1181J0D01*
G01*
M02*
