G04*
G04 #@! TF.GenerationSoftware,Altium Limited,Altium Designer,18.1.11 (251)*
G04*
G04 Layer_Color=8388736*
%FSLAX25Y25*%
%MOIN*%
G70*
G01*
G75*
%ADD18R,0.09068X0.09068*%
%ADD19R,0.09068X0.05524*%
%ADD20C,0.06706*%
%ADD21C,0.24422*%
%ADD22C,0.07493*%
%ADD23C,0.07099*%
%ADD24C,0.18123*%
%ADD25C,0.03556*%
D18*
X118110Y185039D02*
D03*
X-118110D02*
D03*
D19*
X118110Y176575D02*
D03*
X-118110D02*
D03*
D20*
X198587Y300588D02*
D03*
X196508Y290806D02*
D03*
X194429Y281025D02*
D03*
X192350Y271243D02*
D03*
X190270Y261462D02*
D03*
X188191Y251680D02*
D03*
X186112Y241899D02*
D03*
X184033Y232117D02*
D03*
X181954Y222336D02*
D03*
X179875Y212554D02*
D03*
X177796Y202773D02*
D03*
X175716Y192991D02*
D03*
X173637Y183210D02*
D03*
X171558Y173428D02*
D03*
X169479Y163647D02*
D03*
X167400Y153866D02*
D03*
X165321Y144084D02*
D03*
X163242Y134302D02*
D03*
X161163Y124521D02*
D03*
X208368Y298509D02*
D03*
X206289Y288727D02*
D03*
X204210Y278946D02*
D03*
X202131Y269164D02*
D03*
X200052Y259383D02*
D03*
X197973Y249601D02*
D03*
X195894Y239820D02*
D03*
X193815Y230038D02*
D03*
X191735Y220257D02*
D03*
X189656Y210475D02*
D03*
X187577Y200694D02*
D03*
X185498Y190912D02*
D03*
X183419Y181131D02*
D03*
X181340Y171349D02*
D03*
X179261Y161568D02*
D03*
X177181Y151786D02*
D03*
X175102Y142005D02*
D03*
X173023Y132223D02*
D03*
X170944Y122442D02*
D03*
X168865Y112661D02*
D03*
X159084Y114740D02*
D03*
D21*
X159988Y94946D02*
D03*
X71416Y113772D02*
D03*
X207464Y318302D02*
D03*
D22*
X-88150Y97244D02*
D03*
X-78150D02*
D03*
X-188277Y91199D02*
D03*
X-190356Y100981D02*
D03*
X-192435Y110762D02*
D03*
X-194514Y120544D02*
D03*
X-196593Y130325D02*
D03*
X-198672Y140106D02*
D03*
X-200751Y149888D02*
D03*
X-202830Y159669D02*
D03*
X-204910Y169451D02*
D03*
X-206989Y179232D02*
D03*
X145118Y372047D02*
D03*
X135118D02*
D03*
X125118D02*
D03*
X115118D02*
D03*
X105118D02*
D03*
X95118D02*
D03*
X85118D02*
D03*
X75118D02*
D03*
X65118D02*
D03*
X55118D02*
D03*
Y401575D02*
D03*
X65118D02*
D03*
X75118D02*
D03*
X85118D02*
D03*
X95118D02*
D03*
X105118D02*
D03*
X115118D02*
D03*
X125118D02*
D03*
X135118D02*
D03*
X145118D02*
D03*
X45000Y372047D02*
D03*
X35000D02*
D03*
X25000D02*
D03*
X15000D02*
D03*
X5000D02*
D03*
X-5000D02*
D03*
X-15000D02*
D03*
X-25000D02*
D03*
X-35000D02*
D03*
X-45000D02*
D03*
Y401575D02*
D03*
X-35000D02*
D03*
X-25000D02*
D03*
X-15000D02*
D03*
X-5000D02*
D03*
X5000D02*
D03*
X15000D02*
D03*
X25000D02*
D03*
X35000D02*
D03*
X45000D02*
D03*
X-55118Y372047D02*
D03*
X-65118D02*
D03*
X-75118D02*
D03*
X-85118D02*
D03*
X-95118D02*
D03*
X-105118D02*
D03*
X-115118D02*
D03*
X-125118D02*
D03*
X-135118D02*
D03*
X-145118D02*
D03*
Y401575D02*
D03*
X-135118D02*
D03*
X-125118D02*
D03*
X-115118D02*
D03*
X-105118D02*
D03*
X-95118D02*
D03*
X-85118D02*
D03*
X-75118D02*
D03*
X-65118D02*
D03*
X-55118D02*
D03*
X-29921Y153543D02*
D03*
X29921D02*
D03*
D23*
X30630Y315906D02*
D03*
X40630D02*
D03*
X50630D02*
D03*
X60630D02*
D03*
X70630D02*
D03*
Y255906D02*
D03*
X60630D02*
D03*
X50630D02*
D03*
X40630D02*
D03*
X30630D02*
D03*
X-20000Y315905D02*
D03*
X-10000D02*
D03*
X0D02*
D03*
X10000D02*
D03*
X20000D02*
D03*
Y255906D02*
D03*
X10000D02*
D03*
X0D02*
D03*
X-10000D02*
D03*
X-20000D02*
D03*
X-70630Y315906D02*
D03*
X-60630D02*
D03*
X-50630D02*
D03*
X-40630D02*
D03*
X-30630D02*
D03*
Y255906D02*
D03*
X-40630D02*
D03*
X-50630D02*
D03*
X-60630D02*
D03*
X-70630D02*
D03*
D24*
X110393Y459265D02*
D03*
X59055Y17740D02*
D03*
X-213541Y208935D02*
D03*
X-110393Y459265D02*
D03*
X-59055Y17740D02*
D03*
X213541Y208935D02*
D03*
D25*
X-38583Y182874D02*
D03*
X-25820D02*
D03*
X-13058D02*
D03*
X-295D02*
D03*
X12467D02*
D03*
X25230D02*
D03*
X37992D02*
D03*
X-41831Y459265D02*
D03*
X-29068D02*
D03*
X-16306D02*
D03*
X-3543D02*
D03*
X9219D02*
D03*
X21982D02*
D03*
X34744D02*
D03*
X37303Y17740D02*
D03*
X24541D02*
D03*
X11778D02*
D03*
X-984D02*
D03*
X-13747D02*
D03*
X-26509D02*
D03*
X-39272D02*
D03*
X-23524Y100098D02*
D03*
X-22441Y90453D02*
D03*
X-28997Y86201D02*
D03*
X-50454D02*
D03*
X-42854Y91201D02*
D03*
X103115Y212303D02*
D03*
X114235Y220866D02*
D03*
X103115Y216535D02*
D03*
X132578Y188808D02*
D03*
X132554Y202547D02*
D03*
X138337Y216249D02*
D03*
X108563Y287796D02*
D03*
Y292796D02*
D03*
X100223Y302796D02*
D03*
X102579Y341610D02*
D03*
X-2500Y335630D02*
D03*
X-34408Y345079D02*
D03*
X59469D02*
D03*
X129644Y332479D02*
D03*
X29566Y332440D02*
D03*
X-70552Y332480D02*
D03*
X-134507Y345079D02*
D03*
X-20000Y263385D02*
D03*
X126772Y203847D02*
D03*
X132554Y217610D02*
D03*
X138337Y231288D02*
D03*
X144119Y245051D02*
D03*
X149902Y258802D02*
D03*
X163582Y256300D02*
D03*
X157800Y242562D02*
D03*
X152017Y228824D02*
D03*
X146235Y215085D02*
D03*
X140453Y201347D02*
D03*
X-118110Y191968D02*
D03*
Y172107D02*
D03*
X-96653Y275611D02*
D03*
X-109015Y299212D02*
D03*
X106791Y171811D02*
D03*
Y191968D02*
D03*
X4725Y119428D02*
D03*
X4725Y74272D02*
D03*
X-15157Y55610D02*
D03*
X-7185Y58858D02*
D03*
X-18307Y62106D02*
D03*
Y82874D02*
D03*
X-11122Y52362D02*
D03*
X-15157Y79232D02*
D03*
X-7185Y79232D02*
D03*
X-11122D02*
D03*
X2500Y341610D02*
D03*
X-97618D02*
D03*
X117480Y328248D02*
D03*
X-102618Y335630D02*
D03*
X17402Y328209D02*
D03*
X108563Y267796D02*
D03*
Y282796D02*
D03*
X50551Y283760D02*
D03*
X-79Y283760D02*
D03*
X-50709Y283760D02*
D03*
X30630Y304331D02*
D03*
X40630Y307480D02*
D03*
X60630Y298819D02*
D03*
X70630Y293701D02*
D03*
X60630Y272047D02*
D03*
X40630Y266929D02*
D03*
X30630Y263386D02*
D03*
X-20000Y304331D02*
D03*
X-10000Y307480D02*
D03*
X10000Y298819D02*
D03*
X20000Y293701D02*
D03*
X10000Y272047D02*
D03*
X-10000Y266929D02*
D03*
X-70630Y304331D02*
D03*
X-60630Y307481D02*
D03*
X-40630Y298819D02*
D03*
X-30630Y293701D02*
D03*
X-40630Y272047D02*
D03*
X-60630Y266929D02*
D03*
X-70630Y263386D02*
D03*
M02*
